<?xml version="1.0" encoding="UTF-8"?>
<svg xmlns="http://www.w3.org/2000/svg" xmlns:xlink="http://www.w3.org/1999/xlink" version="1.2" >
<font id="Betm ExtraBlack">
<font-face  font-family="Betm" units-per-em="1000" ascent="750" descent="-250" font-style="normal" font-weight="950" font-stretch="normal" cap-height="568" x-height="405" underline-position="-91" underline-thickness="35" />
<missing-glyph  horiz-adv-x="553" d="M16 0 L16 626 L527 626 L527 0 L16 0 Z M80 43 L80 64 L61 64 L59 44 Q61 44 61 43 L80 43 Z M481 580 L483 580 Q483 582 481 582 L481 580 Z M464 580 L464 562 L481 562 L481 580 L464 580 Z M481 64 L464 64 L464 45 L483 45 L481 64 Z M63 562 L80 562 L80 582 L61 583 Q61 582 63 582 L63 562 Z M80 64 L464 64 L464 562 L80 562 L80 64 Z " />
<glyph glyph-name="space" unicode="&#x20;" horiz-adv-x="199" d="" />
<glyph glyph-name="exclam" unicode="&#x21;" horiz-adv-x="247" d="M40 78 Q40 114 63.5 138 Q87 162 123 162 Q158 162 182.5 138 Q207 114 207 78 Q207 42 182.5 18 Q158 -6 123 -6 Q87 -6 63.5 18 Q40 42 40 78 Z M202 334 L189 194 L58 194 L45 334 L45 590 L202 590 L202 334 Z " />
<glyph glyph-name="quotedbl" unicode="&#x22;" horiz-adv-x="434" d="M40 590 L203 590 L193 381 L52 381 L40 590 Z M231 590 L394 590 L384 381 L243 381 L231 590 Z " />
<glyph glyph-name="numbersign" unicode="&#x23;" horiz-adv-x="768" d="M591 338 L559 257 L660 257 L660 103 L499 103 L459 0 L291 0 L331 103 L273 103 L233 0 L65 0 L104 103 L40 103 L40 257 L165 257 Q173 279 181 297 Q189 315 197 338 L108 338 L108 492 L255 492 L295 590 L463 590 L425 492 L482 492 L520 590 L688 590 L651 492 L728 492 L728 338 L591 338 Z M421 338 L365 338 Q357 316 349 298 Q341 280 333 257 L390 257 L421 338 Z " />
<glyph glyph-name="dollar" unicode="&#x24;" horiz-adv-x="550" d="M510 178 Q510 101 469 58 Q428 15 357 1 L357 -107 L193 -107 L193 1 Q141 11 107.5 27.5 Q74 44 60 56 L60 191 Q96 179 131 170 Q164 161 196 154.5 Q228 148 253 148 Q262 148 277.5 148.5 Q293 149 308.5 150.5 Q324 152 335.5 156.5 Q347 161 347 168 Q347 181 324.5 191.5 Q302 202 267.5 214 Q233 226 193.5 241 Q154 256 119.5 278.5 Q85 301 62.5 333.5 Q40 366 40 412 Q40 453 52 482.5 Q64 512 84.5 533 Q105 554 133 567 Q161 580 193 587 L193 703 L357 703 L357 591 Q402 586 425 576.5 Q448 567 464 557 L464 413 Q431 421 399 428 Q370 433 341 437.5 Q312 442 289 442 Q276 442 261.5 441 Q247 440 234 437.5 Q221 435 212.5 430.5 Q204 426 204 419 Q204 408 226.5 398 Q249 388 283 376.5 Q317 365 357 349.5 Q397 334 431 311 Q465 288 487.5 255.5 Q510 223 510 178 Z " />
<glyph glyph-name="percent" unicode="&#x25;" horiz-adv-x="729" d="M392 590 L560 590 L337 -6 L170 -6 L392 590 Z M165 445 Q182 445 182 468 Q182 489 165 489 Q148 489 148 468 Q148 445 165 445 Z M165 339 Q98 339 69 372.5 Q40 406 40 468 Q40 529 69 562.5 Q98 596 165 596 Q232 596 261 562.5 Q290 529 290 468 Q290 406 261 372.5 Q232 339 165 339 Z M564 100 Q581 100 581 123 Q581 144 564 144 Q547 144 547 123 Q547 100 564 100 Z M564 -6 Q497 -6 468 27.5 Q439 61 439 123 Q439 184 468 217.5 Q497 251 564 251 Q631 251 660 217.5 Q689 184 689 123 Q689 61 660 27.5 Q631 -6 564 -6 Z " />
<glyph glyph-name="ampersand" unicode="&#x26;" horiz-adv-x="584" d="M275 433 Q267 433 258 432 Q249 431 241 427.5 Q233 424 227.5 418 Q222 412 222 401 Q222 389 227.5 382 Q233 375 241.5 371 Q250 367 259 366 Q268 365 275 365 L339 365 L339 434 L496 434 L496 365 L544 365 L544 215 L496 215 L496 181 Q496 150 484 117.5 Q472 85 446 59 Q420 33 377.5 16.5 Q335 0 273 0 L274 0 Q214 0 170 16 Q126 32 97 58 Q68 84 54 116.5 Q40 149 40 181 Q40 227 56 259 Q72 291 98 308 Q82 328 73.5 355.5 Q65 383 65 407 Q65 463 85.5 498.5 Q106 534 137.5 554 Q169 574 205.5 582 Q242 590 275 590 L333 590 L310 433 L275 433 Z M274 153 Q281 153 292 153.5 Q303 154 313.5 156.5 Q324 159 331.5 165 Q339 171 339 182 L339 215 L247 215 Q227 215 212 208.5 Q197 202 197 185 Q197 174 205 167.5 Q213 161 224.5 158 Q236 155 248 154 Q260 153 267 153 L274 153 Z " />
<glyph glyph-name="quotesingle" unicode="&#x27;" horiz-adv-x="243" d="M40 590 L203 590 L193 381 L52 381 L40 590 Z " />
<glyph glyph-name="parenleft" unicode="&#x28;" horiz-adv-x="338" d="M40 270 Q40 374 63 492.5 Q86 611 139 724 L298 724 Q243 605 220 486 Q197 367 197 270 Q197 222 202.5 164 Q208 106 220 43.5 Q232 -19 251.5 -82 Q271 -145 298 -204 L139 -204 Q113 -148 94 -86.5 Q75 -25 63 37 Q51 99 45.5 158.5 Q40 218 40 270 Z " />
<glyph glyph-name="parenright" unicode="&#x29;" horiz-adv-x="338" d="M298 270 Q298 218 292.5 158.5 Q287 99 275 37 Q263 -25 244 -86.5 Q225 -148 199 -204 L40 -204 Q67 -145 86.5 -82 Q106 -19 118 43.5 Q130 106 135.5 164 Q141 222 141 270 Q141 367 118 486 Q95 605 40 724 L199 724 Q252 611 275 492.5 Q298 374 298 270 Z " />
<glyph glyph-name="asterisk" unicode="&#x2a;" horiz-adv-x="454" d="M290 490 L362 533 L414 407 L316 370 L381 305 L273 216 L227 287 L181 216 L73 305 L138 370 L40 407 L92 533 L164 490 L157 590 L297 590 L290 490 Z " />
<glyph glyph-name="plus" unicode="&#x2b;" horiz-adv-x="435" d="M296 298 L395 298 L395 144 L296 144 L296 45 L139 45 L139 144 L40 144 L40 298 L139 298 L139 400 L296 400 L296 298 Z " />
<glyph glyph-name="comma" unicode="&#x2c;" horiz-adv-x="293" d="M182 -100 L40 -100 L89 118 L253 118 L182 -100 Z " />
<glyph glyph-name="hyphen" unicode="&#x2d;" horiz-adv-x="434" d="M40 135 L40 289 L394 289 L394 135 L40 135 Z " />
<glyph glyph-name="period" unicode="&#x2e;" horiz-adv-x="243" d="M40 142 L203 142 L203 -6 L40 -6 L40 142 Z " />
<glyph glyph-name="slash" unicode="&#x2f;" horiz-adv-x="599" d="M390 724 L559 724 L209 -204 L40 -204 L390 724 Z " />
<glyph glyph-name="zero" unicode="0" horiz-adv-x="562" d="M282 148 Q299 148 315.5 154 Q332 160 345 176.5 Q358 193 366.5 222.5 Q375 252 375 299 Q375 341 368.5 368.5 Q362 396 349.5 412.5 Q337 429 319.5 435.5 Q302 442 280 442 Q259 442 242 435.5 Q225 429 212.5 412.5 Q200 396 193.5 368.5 Q187 341 187 299 Q187 252 195.5 222.5 Q204 193 217 176.5 Q230 160 247 154 Q264 148 280 148 L282 148 Z M280 -6 Q240 -6 196 7 Q152 20 115 54 Q78 88 54 148 Q30 208 30 302 Q30 383 51 439 Q72 495 107 530 Q142 565 187 580.5 Q232 596 281 596 Q330 596 375 580.5 Q420 565 455 530 Q490 495 511 439 Q532 383 532 302 Q532 208 508 148 Q484 88 447 54 Q410 20 366 7 Q322 -6 282 -6 L280 -6 Z " />
<glyph glyph-name="one" unicode="1" horiz-adv-x="345" d="M0 509 L159 590 L305 590 L305 0 L148 0 L148 408 L0 333 L0 509 Z " />
<glyph glyph-name="two" unicode="2" horiz-adv-x="481" d="M25 129 Q25 180 45.5 216.5 Q66 253 96 280 Q126 307 162 325.5 Q198 344 228 358 Q258 372 278.5 383.5 Q299 395 299 407 Q299 419 291.5 425.5 Q284 432 273 436 Q262 440 248.5 441 Q235 442 223 442 Q200 442 170 435.5 Q140 429 113 421 Q81 412 49 400 L49 552 Q67 561 84 569 Q101 577 122.5 583 Q144 589 172.5 592.5 Q201 596 241 596 Q285 596 324.5 587 Q364 578 393 556.5 Q422 535 439 498.5 Q456 462 456 407 Q456 350 429.5 315 Q403 280 364.5 254.5 Q326 229 282 207 Q238 185 203 154 L453 154 L453 0 L25 0 L25 129 Z " />
<glyph glyph-name="three" unicode="3" horiz-adv-x="491" d="M232 366 Q239 366 248 367 Q257 368 265 372 Q273 376 278.5 382.5 Q284 389 284 401 Q284 419 263 430.5 Q242 442 213 442 Q191 442 160 437 Q129 432 100 427 Q66 420 30 411 L30 554 Q50 563 69.5 570.5 Q89 578 110.5 584 Q132 590 159 593 Q186 596 221 596 Q254 596 292.5 587.5 Q331 579 364 557.5 Q397 536 419 500 Q441 464 441 408 Q441 384 432.5 357 Q424 330 408 310 Q435 293 450.5 260 Q466 227 466 181 Q466 147 451.5 113.5 Q437 80 407.5 53.5 Q378 27 333 10.5 Q288 -6 227 -6 Q150 -6 104.5 9.5 Q59 25 30 40 L30 178 Q58 170 89 163 Q118 157 151 152.5 Q184 148 221 148 Q229 148 243.5 149 Q258 150 272.5 154 Q287 158 298 166 Q309 174 309 187 Q309 207 293.5 213.5 Q278 220 262 220 L112 220 L147 366 L232 366 Z " />
<glyph glyph-name="four" unicode="4" horiz-adv-x="503" d="M265 148 L10 148 L10 305 L242 590 L422 590 L422 302 L493 302 L493 148 L422 148 L422 0 L265 0 L265 148 Z M265 302 L265 390 Q251 372 229.5 348 Q208 324 191 302 L265 302 Z " />
<glyph glyph-name="five" unicode="5" horiz-adv-x="493" d="M271 395 Q305 395 341.5 386 Q378 377 408.5 355 Q439 333 458.5 296 Q478 259 478 203 Q478 132 453.5 90.5 Q429 49 394.5 27.5 Q360 6 322.5 0 Q285 -6 258 -6 L250 -6 Q223 -6 186 1 Q149 8 115.5 29.5 Q82 51 58.5 89.5 Q35 128 35 191 L193 191 Q201 163 219.5 155.5 Q238 148 254 148 Q262 148 273 149.5 Q284 151 295 156 Q306 161 313.5 171.5 Q321 182 321 200 Q321 218 300.5 228 Q280 238 242 238 Q229 238 210 236.5 Q191 235 174 225 L35 232 L35 590 L435 590 L435 436 L192 436 L192 380 Q213 389 237 392 Q261 395 271 395 Z " />
<glyph glyph-name="six" unicode="6" horiz-adv-x="495" d="M273 395 Q305 395 341.5 385.5 Q378 376 409 353 Q440 330 460 292.5 Q480 255 480 199 Q480 133 455.5 92.5 Q431 52 396.5 30.5 Q362 9 324.5 1.5 Q287 -6 260 -6 L252 -6 Q225 -6 187 1.5 Q149 9 114 30.5 Q79 52 54.5 92 Q30 132 30 198 L30 320 Q30 463 92 529.5 Q154 596 269 596 Q330 596 375 584 Q420 572 435 559 L435 424 Q410 429 383 433 Q359 437 332.5 439.5 Q306 442 281 442 Q230 442 207.5 430 Q185 418 187 383 Q210 391 235 393 Q260 395 273 395 Z M256 148 Q264 148 275 150 Q286 152 297 157 Q308 162 315.5 171.5 Q323 181 323 197 Q323 211 315.5 219 Q308 227 297.5 231.5 Q287 236 275.5 237.5 Q264 239 256 239 Q248 239 236 237.5 Q224 236 213 231.5 Q202 227 194.5 219 Q187 211 187 197 Q187 182 195 172.5 Q203 163 214 157.5 Q225 152 237 150 Q249 148 256 148 Z " />
<glyph glyph-name="seven" unicode="7" horiz-adv-x="438" d="M15 590 L438 590 L438 448 L227 0 L55 0 L260 436 L15 436 L15 590 Z " />
<glyph glyph-name="eight" unicode="8" horiz-adv-x="526" d="M263 367 Q271 367 281 368.5 Q291 370 299.5 373.5 Q308 377 314 384 Q320 391 320 403 Q320 415 314 422.5 Q308 430 299 434.5 Q290 439 280 440.5 Q270 442 262 442 Q255 442 245.5 440.5 Q236 439 227 434.5 Q218 430 212 422.5 Q206 415 206 403 Q206 391 212 384 Q218 377 226.5 373.5 Q235 370 245 368.5 Q255 367 262 367 L263 367 Z M264 148 Q271 148 283 149 Q295 150 306 154 Q317 158 325.5 165 Q334 172 334 184 Q334 196 326 203.5 Q318 211 306.5 214.5 Q295 218 283 219.5 Q271 221 262 221 Q254 221 242 219.5 Q230 218 219 214.5 Q208 211 200 203.5 Q192 196 192 184 Q192 172 200.5 165 Q209 158 220 154 Q231 150 243 149 Q255 148 262 148 L264 148 Z M259 -6 Q232 -6 194 0.5 Q156 7 120.5 28 Q85 49 60 87 Q35 125 35 188 Q35 227 46.5 256.5 Q58 286 95 301 Q70 318 59.5 344.5 Q49 371 49 401 Q49 464 71.5 502 Q94 540 127 561 Q160 582 196.5 589 Q233 596 260 596 L266 596 Q293 596 329.5 589 Q366 582 399 561 Q432 540 454.5 502 Q477 464 477 401 Q477 372 464.5 345 Q452 318 428 301 Q463 287 477 256.5 Q491 226 491 188 Q491 125 466 87 Q441 49 405.5 28 Q370 7 332 0.5 Q294 -6 267 -6 L259 -6 Z " />
<glyph glyph-name="nine" unicode="9" horiz-adv-x="495" d="M222 195 Q190 195 153.5 204.5 Q117 214 86.5 237 Q56 260 35.5 297.5 Q15 335 15 391 Q15 457 39.5 497.5 Q64 538 98.5 559.5 Q133 581 170.5 588.5 Q208 596 235 596 L243 596 Q270 596 308 588.5 Q346 581 381 559.5 Q416 538 440.5 498 Q465 458 465 392 L465 270 Q465 128 403 61 Q341 -6 226 -6 Q165 -6 120 6 Q75 18 60 31 L60 166 Q85 161 112 157 Q136 153 162.5 150.5 Q189 148 214 148 Q265 148 287.5 160 Q310 172 308 207 Q285 199 260 197 Q235 195 222 195 Z M239 442 Q232 442 220.5 440.5 Q209 439 198 433.5 Q187 428 179.5 418.5 Q172 409 172 393 Q172 379 179.5 371 Q187 363 197.5 358.5 Q208 354 219.5 352.5 Q231 351 239 351 Q247 351 259 352.5 Q271 354 282 358.5 Q293 363 300.5 371 Q308 379 308 393 Q308 408 300 417.5 Q292 427 281 432.5 Q270 438 258.5 440 Q247 442 239 442 Z " />
<glyph glyph-name="colon" unicode="&#x3a;" horiz-adv-x="243" d="M40 142 L203 142 L203 -6 L40 -6 L40 142 Z M40 404 L203 404 L203 257 L40 257 L40 404 Z " />
<glyph glyph-name="semicolon" unicode="&#x3b;" horiz-adv-x="293" d="M89 404 L253 404 L253 257 L89 257 L89 404 Z M182 -100 L40 -100 L89 118 L253 118 L182 -100 Z " />
<glyph glyph-name="less" unicode="&#x3c;" horiz-adv-x="431" d="M40 158 L40 309 L391 474 L391 301 L248 234 L391 167 L391 -6 L40 158 Z " />
<glyph glyph-name="equal" unicode="&#x3d;" horiz-adv-x="407" d="M40 204 L40 349 L367 349 L367 204 L40 204 Z M40 18 L40 163 L367 163 L367 18 L40 18 Z " />
<glyph glyph-name="greater" unicode="&#x3e;" horiz-adv-x="431" d="M40 -6 L40 167 L183 234 L40 301 L40 474 L391 309 L391 158 L40 -6 Z " />
<glyph glyph-name="question" unicode="&#x3f;" horiz-adv-x="490" d="M127 346 Q174 357 206 364.5 Q238 372 257.5 378.5 Q277 385 285 393.5 Q293 402 293 414 Q293 423 285 428.5 Q277 434 266 437 Q255 440 243 441 Q231 442 223 442 Q201 442 170 436.5 Q139 431 110 425 Q76 418 40 408 L40 553 Q57 561 74.5 568.5 Q92 576 114 582 Q136 588 164 592 Q192 596 229 596 Q262 596 300.5 587.5 Q339 579 372 558 Q405 537 427.5 501 Q450 465 450 409 Q450 394 444.5 365.5 Q439 337 421 308 Q403 279 370.5 256 Q338 233 284 230 L284 189 L127 189 L127 346 Z M121 78 Q121 113 145.5 137.5 Q170 162 205 162 Q240 162 264.5 137.5 Q289 113 289 78 Q289 43 264.5 18.5 Q240 -6 205 -6 Q170 -6 145.5 18.5 Q121 43 121 78 Z " />
<glyph glyph-name="at" unicode="&#x40;" horiz-adv-x="682" d="M485 397 Q485 427 472 447 Q459 467 438.5 479 Q418 491 392 496 Q366 501 340 501 Q318 501 293 494.5 Q268 488 247 471.5 Q226 455 212.5 427.5 Q199 400 199 359 L199 85 Q199 44 213 17 Q227 -10 249 -26 Q271 -42 298 -48.5 Q325 -55 351 -55 L351 -210 Q300 -210 245 -194.5 Q190 -179 144.5 -144 Q99 -109 69.5 -53.5 Q40 2 40 82 L40 362 Q40 442 69 498.5 Q98 555 142.5 590 Q187 625 240 641 Q293 657 341 657 Q397 657 451 642.5 Q505 628 547.5 595 Q590 562 616 507.5 Q642 453 642 373 L642 0 L502 0 L496 26 Q475 2 447.5 -2 Q420 -6 401 -6 Q374 -6 346.5 4.5 Q319 15 296.5 39.5 Q274 64 260 105.5 Q246 147 246 209 Q246 262 259 300 Q272 338 293.5 363 Q315 388 343.5 399.5 Q372 411 402 411 Q419 411 442 408 Q465 405 485 392 L485 397 Z M485 233 Q479 240 473 245 Q467 250 460.5 253.5 Q454 257 446 257 Q442 257 434.5 255 Q427 253 420 247.5 Q413 242 408 232.5 Q403 223 403 209 Q403 190 408 178.5 Q413 167 420 160 Q427 153 434.5 150.5 Q442 148 446 148 Q463 148 472.5 157 Q482 166 485 172 L485 233 Z " />
<glyph glyph-name="A" unicode="A" horiz-adv-x="584" d="M367 590 L584 0 L417 0 L381 92 L201 92 L167 0 L0 0 L217 590 L366 590 L367 590 Z M328 242 L292 339 L256 242 L328 242 Z " />
<glyph glyph-name="B" unicode="B" horiz-adv-x="518" d="M272 371 Q287 371 301.5 376.5 Q316 382 316 405 Q316 422 301.5 429 Q287 436 272 436 L192 436 L192 371 L272 371 Z M297 154 Q312 154 326.5 159.5 Q341 165 341 188 Q341 205 327 211.5 Q313 218 297 218 L192 218 L192 154 L297 154 Z M35 0 L35 590 L273 590 Q306 590 341 582 Q376 574 405.5 554 Q435 534 454 498.5 Q473 463 473 407 Q473 384 464.5 356.5 Q456 329 440 308 Q466 291 482 258.5 Q498 226 498 181 Q498 154 488.5 122.5 Q479 91 455 64 Q431 37 391 18.5 Q351 0 290 0 L35 0 Z " />
<glyph glyph-name="C" unicode="C" horiz-adv-x="537" d="M310 442 Q288 442 264 435.5 Q240 429 220.5 412.5 Q201 396 188.5 368.5 Q176 341 176 299 Q176 252 190.5 222.5 Q205 193 226 176.5 Q247 160 270 154 Q293 148 310 148 Q338 148 371 157.5 Q404 167 439 196 L526 85 Q477 38 420.5 16 Q364 -6 312 -6 Q272 -6 220.5 6.5 Q169 19 123 52.5 Q77 86 46 145.5 Q15 205 15 299 Q15 380 43.5 436.5 Q72 493 115.5 528.5 Q159 564 211 580 Q263 596 311 596 Q363 596 420.5 575 Q478 554 527 507 L434 396 Q399 425 368.5 433.5 Q338 442 310 442 Z " />
<glyph glyph-name="D" unicode="D" horiz-adv-x="553" d="M528 301 Q528 210 500.5 152 Q473 94 432.5 60 Q392 26 344.5 13 Q297 0 257 0 L40 0 L40 590 L245 590 Q294 590 344.5 575 Q395 560 435.5 526 Q476 492 502 436.5 Q528 381 528 301 Z M248 154 Q267 154 288.5 159 Q310 164 328.5 179 Q347 194 359 222.5 Q371 251 371 298 Q371 339 360.5 365.5 Q350 392 333.5 408 Q317 424 295.5 430 Q274 436 251 436 L197 436 L197 154 L248 154 Z " />
<glyph glyph-name="E" unicode="E" horiz-adv-x="489" d="M197 436 L197 367 L413 367 L413 213 L197 213 L197 154 L459 154 L459 0 L40 0 L40 590 L459 590 L459 436 L197 436 Z " />
<glyph glyph-name="F" unicode="F" horiz-adv-x="484" d="M40 0 L40 590 L459 590 L459 436 L197 436 L197 360 L413 360 L413 206 L197 206 L197 0 L40 0 Z " />
<glyph glyph-name="G" unicode="G" horiz-adv-x="572" d="M310 442 Q288 442 264 435.5 Q240 429 220.5 412.5 Q201 396 188.5 368.5 Q176 341 176 299 Q176 252 190.5 222.5 Q205 193 226 176.5 Q247 160 270 154 Q293 148 310 148 Q324 148 338.5 150 Q353 152 369 157 L369 199 L288 199 L288 353 L526 353 L526 85 Q506 60 480 42.5 Q454 25 425 14 Q396 3 367 -1.5 Q338 -6 312 -6 Q272 -6 220.5 6.5 Q169 19 123 52.5 Q77 86 46 145.5 Q15 205 15 299 Q15 380 43.5 436.5 Q72 493 115.5 528.5 Q159 564 211 580 Q263 596 311 596 Q363 596 420.5 575 Q478 554 527 507 L434 396 Q399 425 368.5 433.5 Q338 442 310 442 Z " />
<glyph glyph-name="H" unicode="H" horiz-adv-x="568" d="M528 590 L528 0 L371 0 L371 206 L197 206 L197 0 L40 0 L40 590 L197 590 L197 361 L371 361 L371 590 L528 590 Z " />
<glyph glyph-name="I" unicode="I" horiz-adv-x="237" d="M40 590 L197 590 L197 0 L40 0 L40 590 Z " />
<glyph glyph-name="J" unicode="J" horiz-adv-x="460" d="M263 590 L420 590 L420 213 Q420 143 395.5 100.5 Q371 58 336.5 35 Q302 12 264 3.5 Q226 -5 199 -6 Q182 -6 159 -5 Q136 -4 109.5 2 Q83 8 54 21.5 Q25 35 -5 60 L67 182 Q113 156 142.5 152 Q172 148 186 148 Q194 148 207 149.5 Q220 151 232.5 157 Q245 163 254 175.5 Q263 188 263 210 L263 590 Z " />
<glyph glyph-name="K" unicode="K" horiz-adv-x="565" d="M577 0 L378 0 L197 242 L197 0 L40 0 L40 590 L197 590 L197 358 L382 590 L585 590 L351 298 L577 0 Z " />
<glyph glyph-name="L" unicode="L" horiz-adv-x="456" d="M197 154 L441 154 L441 0 L40 0 L40 590 L197 590 L197 154 Z " />
<glyph glyph-name="M" unicode="M" horiz-adv-x="638" d="M260 112 L197 211 L197 0 L40 0 L40 590 L144 590 L319 304 L494 590 L598 590 L598 0 L441 0 L441 211 L377 112 L260 112 Z " />
<glyph glyph-name="N" unicode="N" horiz-adv-x="587" d="M197 294 L197 0 L40 0 L40 590 L176 590 L390 293 L390 590 L547 590 L547 0 L408 0 L197 294 Z " />
<glyph glyph-name="O" unicode="O" horiz-adv-x="618" d="M308 148 L310 148 Q328 148 350 154 Q372 160 391 176.5 Q410 193 423 222.5 Q436 252 436 300 Q436 342 424.5 369.5 Q413 397 395 413 Q377 429 354 435.5 Q331 442 308 442 Q286 442 263.5 435.5 Q241 429 223 413 Q205 397 193.5 369.5 Q182 342 182 300 Q182 252 195 222.5 Q208 193 227 176.5 Q246 160 268 154 Q290 148 308 148 L310 148 L308 148 Z M308 -6 Q267 -6 217.5 7 Q168 20 125.5 54.5 Q83 89 54 149 Q25 209 25 303 Q25 384 51 439.5 Q77 495 118 530 Q159 565 209.5 580.5 Q260 596 309 596 Q358 596 408.5 580.5 Q459 565 500 530 Q541 495 567 439.5 Q593 384 593 303 Q593 209 564 149 Q535 89 492.5 54.5 Q450 20 400.5 7 Q351 -6 310 -6 L308 -6 Z " />
<glyph glyph-name="P" unicode="P" horiz-adv-x="514" d="M35 590 L300 590 Q333 590 369.5 577.5 Q406 565 437 539.5 Q468 514 488.5 474.5 Q509 435 509 380 Q509 315 487 272.5 Q465 230 433.5 205.5 Q402 181 366.5 171 Q331 161 303 161 L193 161 L193 0 L35 0 L35 590 Z M193 436 L193 315 L302 315 Q309 315 317.5 317.5 Q326 320 333.5 327 Q341 334 346.5 346.5 Q352 359 352 378 Q352 408 334.5 422 Q317 436 302 436 L193 436 Z " />
<glyph glyph-name="Q" unicode="Q" horiz-adv-x="618" d="M593 303 Q593 231 575.5 179.5 Q558 128 530 92.5 Q502 57 466 36.5 Q430 16 394 6 L491 -126 L301 -126 L197 14 Q164 27 133 49 Q102 71 78 105.5 Q54 140 39.5 188.5 Q25 237 25 303 Q25 384 51 439.5 Q77 495 118 530 Q159 565 209.5 580.5 Q260 596 309 596 Q358 596 408.5 580.5 Q459 565 500 530 Q541 495 567 439.5 Q593 384 593 303 Z M310 148 Q328 148 350 154 Q372 160 391 176.5 Q410 193 423 222.5 Q436 252 436 300 Q436 342 424.5 369.5 Q413 397 395 413 Q377 429 354 435.5 Q331 442 308 442 Q286 442 263.5 435.5 Q241 429 223 413 Q205 397 193.5 369.5 Q182 342 182 300 Q182 252 195 222.5 Q208 193 227 176.5 Q246 160 268 154 Q290 148 308 148 L310 148 Z " />
<glyph glyph-name="R" unicode="R" horiz-adv-x="537" d="M501 386 Q501 341 483 303 Q465 265 430 245 Q446 225 456.5 200 Q467 175 475 150 L525 0 L359 0 L321 117 Q310 153 297.5 165 Q285 177 271 177 L197 177 L197 0 L40 0 L40 590 L301 590 Q334 590 369 579 Q404 568 433.5 543.5 Q463 519 482 480.5 Q501 442 501 386 Z M299 332 Q306 332 314 333 Q322 334 328.5 339.5 Q335 345 339.5 355 Q344 365 344 383 Q344 414 328.5 424.5 Q313 435 299 435 L197 435 L197 332 L299 332 Z " />
<glyph glyph-name="S" unicode="S" horiz-adv-x="500" d="M255 595 Q299 595 329 591.5 Q359 588 380 582.5 Q401 577 415 570 Q429 563 439 557 L439 413 Q406 421 374 428 Q345 433 316 437.5 Q287 442 264 442 Q251 442 236.5 441 Q222 440 209 437.5 Q196 435 187.5 430.5 Q179 426 179 419 Q179 408 201.5 398 Q224 388 258 376.5 Q292 365 332 349.5 Q372 334 406 311 Q440 288 462.5 255.5 Q485 223 485 178 Q485 130 468 95 Q451 60 420.5 37.5 Q390 15 347 4.5 Q304 -6 251 -6 Q208 -6 172.5 0.5 Q137 7 109.5 16.5 Q82 26 63 37 Q44 48 35 56 L35 191 Q71 179 106 170 Q139 161 171 154.5 Q203 148 228 148 Q237 148 252.5 148.5 Q268 149 283.5 150.5 Q299 152 310.5 156.5 Q322 161 322 168 Q322 181 299.5 191.5 Q277 202 242.5 214 Q208 226 168.5 241 Q129 256 94.5 278.5 Q60 301 37.5 333.5 Q15 366 15 412 Q15 466 35.5 501 Q56 536 89.5 557 Q123 578 166 586.5 Q209 595 255 595 Z " />
<glyph glyph-name="T" unicode="T" horiz-adv-x="489" d="M15 590 L474 590 L474 436 L323 436 L323 0 L166 0 L166 436 L15 436 L15 590 Z " />
<glyph glyph-name="U" unicode="U" horiz-adv-x="568" d="M282 -6 Q242 -6 199 4.5 Q156 15 120.5 44.5 Q85 74 62.5 128 Q40 182 40 270 L40 590 L197 590 L197 257 Q197 221 204.5 199.5 Q212 178 224 166.5 Q236 155 252 151.5 Q268 148 284 148 Q301 148 316.5 151.5 Q332 155 344 166.5 Q356 178 363.5 199.5 Q371 221 371 257 L371 590 L528 590 L528 270 Q528 182 505.5 128 Q483 74 447.5 44.5 Q412 15 369.5 4.5 Q327 -6 286 -6 L282 -6 Z " />
<glyph glyph-name="V" unicode="V" horiz-adv-x="584" d="M417 590 L584 590 L367 0 L366 0 L217 0 L0 590 L167 590 L292 231 L417 590 Z " />
<glyph glyph-name="W" unicode="W" horiz-adv-x="760" d="M446 590 L531 257 L593 590 L755 590 L628 0 L448 0 L380 246 L312 0 L132 0 L5 590 L167 590 L229 257 L314 590 L446 590 Z " />
<glyph glyph-name="X" unicode="X" horiz-adv-x="562" d="M184 0 L-3 0 L188 296 L-5 590 L183 590 L281 437 L379 590 L567 590 L374 296 L565 0 L378 0 L281 159 L184 0 Z " />
<glyph glyph-name="Y" unicode="Y" horiz-adv-x="585" d="M371 0 L214 0 L214 199 L-5 590 L176 590 L292 376 L408 590 L590 590 L371 199 L371 0 Z " />
<glyph glyph-name="Z" unicode="Z" horiz-adv-x="485" d="M21 590 L465 590 L465 459 L229 154 L465 154 L465 0 L20 0 L20 138 L250 436 L21 436 L21 590 Z " />
<glyph glyph-name="bracketleft" unicode="&#x5b;" horiz-adv-x="340" d="M197 -50 L300 -50 L300 -204 L40 -204 L40 724 L300 724 L300 570 L197 570 L197 -50 Z " />
<glyph glyph-name="backslash" unicode="&#x5c;" horiz-adv-x="599" d="M559 -204 L390 -204 L40 724 L209 724 L559 -204 Z " />
<glyph glyph-name="bracketright" unicode="&#x5d;" horiz-adv-x="340" d="M143 570 L40 570 L40 724 L300 724 L300 -204 L40 -204 L40 -50 L143 -50 L143 570 Z " />
<glyph glyph-name="asciicircum" unicode="&#x5e;" horiz-adv-x="490" d="M326 590 L450 328 L277 328 L245 410 Q230 372 221 353 Q212 334 210 328 L40 328 L164 590 L326 590 Z " />
<glyph glyph-name="underscore" unicode="&#x5f;" horiz-adv-x="434" d="M40 -143 L40 -6 L394 -6 L394 -143 L40 -143 Z " />
<glyph glyph-name="grave" unicode="&#x60;" horiz-adv-x="310" d="M40 590 L212 590 L270 385 L123 385 L40 590 Z " />
<glyph glyph-name="a" unicode="a" horiz-adv-x="429" d="M394 0 L245 0 L242 25 Q220 3 196 -1.5 Q172 -6 161 -6 Q154 -6 130 -3 Q106 0 80.5 13.5 Q55 27 35 56 Q15 85 15 137 Q15 196 52 219.5 Q89 243 155 243 Q170 243 193.5 239 Q217 235 237 225 L237 243 Q234 254 220 264 Q206 274 168 274 Q156 274 135.5 271.5 Q115 269 95 267 Q72 263 47 259 L47 389 Q73 397 105.5 404 Q138 411 197 411 Q289 411 340 362.5 Q391 314 394 230 L394 0 Z M237 147 Q234 149 224.5 151.5 Q215 154 198 154 Q183 154 177.5 147 Q172 140 172 135 Q172 128 178.5 122 Q185 116 198 116 Q206 116 213 117 Q220 118 225 119 Q231 120 237 122 L237 147 Z " />
<glyph glyph-name="b" unicode="b" horiz-adv-x="451" d="M35 590 L192 590 L192 392 Q212 405 235 408 Q258 411 275 411 Q305 411 333.5 399.5 Q362 388 383.5 363 Q405 338 418 300 Q431 262 431 209 Q431 147 417 105.5 Q403 64 380.5 39.5 Q358 15 330.5 4.5 Q303 -6 276 -6 Q257 -6 229.5 -2 Q202 2 181 26 L175 0 L35 0 L35 590 Z M192 172 Q195 166 204.5 157 Q214 148 231 148 Q235 148 242.5 150.5 Q250 153 257 160 Q264 167 269 178.5 Q274 190 274 209 Q274 223 269 232.5 Q264 242 257 247.5 Q250 253 242.5 255 Q235 257 231 257 Q223 257 216 253.5 Q209 250 204 245 Q198 240 192 233 L192 172 Z " />
<glyph glyph-name="c" unicode="c" horiz-adv-x="402" d="M220 -6 Q193 -5 157.5 6 Q122 17 90.5 41 Q59 65 37 105.5 Q15 146 15 207 Q15 261 36 299.5 Q57 338 87.5 363 Q118 388 154 399.5 Q190 411 220 411 Q237 411 256 410 Q275 409 296.5 402.5 Q318 396 343.5 381.5 Q369 367 397 341 L332 236 Q310 249 295 256 Q280 263 268.5 266 Q257 269 249 269.5 Q241 270 233 270 Q224 270 213 267 Q202 264 192.5 257 Q183 250 177 238 Q171 226 171 208 Q171 186 177.5 171.5 Q184 157 193.5 149 Q203 141 213.5 138 Q224 135 233 135 Q249 135 269.5 139 Q290 143 331 166 L396 64 Q368 38 343 23.5 Q318 9 296 2.5 Q274 -4 255.5 -5 Q237 -6 221 -6 L220 -6 Z " />
<glyph glyph-name="d" unicode="d" horiz-adv-x="451" d="M416 0 L276 0 L270 26 Q249 2 221.5 -2 Q194 -6 175 -6 Q148 -6 120.5 4.5 Q93 15 70.5 39.5 Q48 64 34 105.5 Q20 147 20 209 Q20 262 33 300 Q46 338 67.5 363 Q89 388 117.5 399.5 Q146 411 176 411 Q193 411 216 408 Q239 405 259 392 L259 590 L416 590 L416 0 Z M259 233 Q253 240 247 245 Q241 250 234.5 253.5 Q228 257 220 257 Q216 257 208.5 255 Q201 253 194 247.5 Q187 242 182 232.5 Q177 223 177 209 Q177 190 182 178.5 Q187 167 194 160 Q201 153 208.5 150.5 Q216 148 220 148 Q237 148 246.5 157 Q256 166 259 172 L259 233 Z " />
<glyph glyph-name="e" unicode="e" horiz-adv-x="426" d="M401 173 L177 173 Q178 154 196.5 144.5 Q215 135 246 135 Q267 135 290 137.5 Q313 140 333 143 Q356 146 378 150 L378 24 Q360 16 346 10.5 Q332 5 316.5 1 Q301 -3 281 -4.5 Q261 -6 232 -6 Q180 -6 140 10.5 Q100 27 73.5 55 Q47 83 33.5 121.5 Q20 160 20 203 Q20 245 34 283 Q48 321 74 349.5 Q100 378 136.5 394.5 Q173 411 217 411 Q259 411 293 397 Q327 383 351 358 Q375 333 388 298.5 Q401 264 401 223 L401 173 Z M258 249 Q253 272 241.5 278.5 Q230 285 217 285 Q206 285 194 278.5 Q182 272 176 249 L258 249 Z " />
<glyph glyph-name="f" unicode="f" horiz-adv-x="340" d="M262 455 Q238 455 230.5 443.5 Q223 432 223 412 L223 405 L335 405 L335 257 L223 257 L223 0 L66 0 L66 257 L0 257 L0 405 L66 405 Q71 495 109.5 545.5 Q148 596 217 596 Q246 596 265 593 Q284 590 297.5 585 Q311 580 319.5 574.5 Q328 569 335 563 L335 450 Q320 451 306 453 Q293 454 281.5 454.5 Q270 455 262 455 Z " />
<glyph glyph-name="g" unicode="g" horiz-adv-x="456" d="M421 4 Q421 -58 398 -97 Q375 -136 342.5 -158.5 Q310 -181 274 -189.5 Q238 -198 212 -198 Q165 -198 120.5 -187 Q76 -176 43 -147 L90 -25 Q126 -46 160 -50.5 Q194 -55 208 -55 Q215 -55 224.5 -54 Q234 -53 243 -48.5 Q252 -44 258 -34.5 Q264 -25 264 -8 L264 15 Q244 -1 220.5 -3.5 Q197 -6 180 -6 Q153 -6 125.5 4.5 Q98 15 75.5 39.5 Q53 64 39 105.5 Q25 147 25 209 Q25 262 38 300 Q51 338 72.5 363 Q94 388 122.5 399.5 Q151 411 181 411 Q198 411 224 403.5 Q250 396 270 379 L272 405 L421 405 L421 4 Z M264 233 Q258 240 252 245 Q246 250 239.5 253.5 Q233 257 225 257 Q221 257 213.5 255 Q206 253 199 247.5 Q192 242 187 232.5 Q182 223 182 209 Q182 190 187 178.5 Q192 167 199 160 Q206 153 213.5 150.5 Q221 148 225 148 Q242 148 251.5 157 Q261 166 264 172 L264 233 Z " />
<glyph glyph-name="h" unicode="h" horiz-adv-x="442" d="M35 0 L35 590 L192 590 L192 384 Q212 400 236.5 405.5 Q261 411 278 411 Q308 411 332.5 400 Q357 389 374.5 370.5 Q392 352 402 326.5 Q412 301 412 271 L412 0 L255 0 L255 241 Q255 250 248 253.5 Q241 257 235 257 Q227 257 219.5 253.5 Q212 250 206 246 Q199 241 192 235 L192 0 L35 0 Z " />
<glyph glyph-name="i" unicode="i" horiz-adv-x="237" d="M40 405 L197 405 L197 0 L40 0 L40 405 Z M40 582 L197 582 L197 439 L40 439 L40 582 Z " />
<glyph glyph-name="j" unicode="j" horiz-adv-x="237" d="M40 405 L197 405 L197 -48 Q197 -69 192.5 -95.5 Q188 -122 172 -144.5 Q156 -167 126 -182.5 Q96 -198 45 -198 Q15 -198 -4.5 -195 Q-24 -192 -37 -187 Q-50 -182 -58.5 -176 Q-67 -170 -74 -164 L-74 -45 Q-57 -48 -41 -51 Q-27 -53 -14 -55 Q-1 -57 7 -57 Q23 -57 31.5 -49.5 Q40 -42 40 -22 L40 405 Z M40 582 L197 582 L197 439 L40 439 L40 582 Z " />
<glyph glyph-name="k" unicode="k" horiz-adv-x="451" d="M290 0 L192 157 L192 0 L35 0 L35 590 L192 590 L192 307 Q211 332 230.5 357 Q250 382 267 405 L464 405 L333 232 L473 0 L290 0 Z " />
<glyph glyph-name="l" unicode="l" horiz-adv-x="253" d="M197 142 Q197 137 201 136 Q205 135 206 135 Q216 135 220.5 136 Q225 137 233 139 L233 18 Q226 11 214 6 Q204 1 189 -2.5 Q174 -6 152 -6 L147 -6 Q128 -6 109 -0.5 Q90 5 74.5 18.5 Q59 32 49.5 55.5 Q40 79 40 117 L40 590 L197 590 L197 142 Z " />
<glyph glyph-name="m" unicode="m" horiz-adv-x="621" d="M463 411 Q493 411 517 400 Q541 389 557.5 370 Q574 351 582.5 325.5 Q591 300 591 270 L591 0 L434 0 L434 241 Q434 251 426 254 Q418 257 411 257 Q398 257 392.5 250.5 Q387 244 387 237 L387 0 L239 0 L239 241 Q239 250 231.5 253.5 Q224 257 216 257 Q199 257 195.5 247 Q192 237 192 236 L192 0 L35 0 L35 405 L176 405 L182 379 Q207 399 232 405 Q257 411 271 411 Q332 411 367 367 Q382 383 396.5 392 Q411 401 423.5 405 Q436 409 446.5 410 Q457 411 463 411 Z " />
<glyph glyph-name="n" unicode="n" horiz-adv-x="442" d="M35 0 L35 405 L184 405 L186 379 Q207 398 234 404.5 Q261 411 278 411 Q308 411 332.5 400 Q357 389 374.5 370.5 Q392 352 402 326.5 Q412 301 412 271 L412 0 L255 0 L255 241 Q255 250 248 253.5 Q241 257 235 257 Q227 257 219.5 253.5 Q212 250 206 246 Q199 241 192 235 L192 0 L35 0 Z " />
<glyph glyph-name="o" unicode="o" horiz-adv-x="442" d="M218 -6 Q191 -6 156.5 3.5 Q122 13 91.5 37 Q61 61 40.5 102 Q20 143 20 207 Q20 261 39.5 299.5 Q59 338 89 363 Q119 388 154.5 399.5 Q190 411 222 411 Q254 411 289 399.5 Q324 388 353.5 363 Q383 338 402.5 299.5 Q422 261 422 207 Q422 143 401.5 102 Q381 61 350.5 37 Q320 13 285.5 3.5 Q251 -6 224 -6 L218 -6 Z M222 148 Q228 148 235.5 150 Q243 152 249.5 158 Q256 164 260.5 175 Q265 186 265 204 Q265 233 250.5 245 Q236 257 222 257 Q208 257 192.5 245 Q177 233 177 204 Q177 186 181.5 175 Q186 164 193 158 Q200 152 207.5 150 Q215 148 222 148 Z " />
<glyph glyph-name="p" unicode="p" horiz-adv-x="451" d="M192 -185 L35 -185 L35 405 L181 405 L186 379 Q206 396 232 403.5 Q258 411 275 411 Q305 411 333.5 399.5 Q362 388 383.5 363 Q405 338 418 300 Q431 262 431 209 Q431 147 417 105.5 Q403 64 380.5 39.5 Q358 15 330.5 4.5 Q303 -6 276 -6 Q259 -6 235.5 -3.5 Q212 -1 192 15 L192 -185 Z M192 172 Q195 166 204.5 157 Q214 148 231 148 Q235 148 242.5 150.5 Q250 153 257 160 Q264 167 269 178.5 Q274 190 274 209 Q274 223 269 232.5 Q264 242 257 247.5 Q250 253 242.5 255 Q235 257 231 257 Q223 257 216 253.5 Q209 250 204 245 Q198 240 192 233 L192 172 Z " />
<glyph glyph-name="q" unicode="q" horiz-adv-x="451" d="M259 15 Q239 -1 215.5 -3.5 Q192 -6 175 -6 Q148 -6 120.5 4.5 Q93 15 70.5 39.5 Q48 64 34 105.5 Q20 147 20 209 Q20 262 33 300 Q46 338 67.5 363 Q89 388 117.5 399.5 Q146 411 176 411 Q193 411 219 403.5 Q245 396 265 379 L267 405 L416 405 L416 -185 L259 -185 L259 15 Z M259 233 Q253 240 247 245 Q241 250 234.5 253.5 Q228 257 220 257 Q216 257 208.5 255 Q201 253 194 247.5 Q187 242 182 232.5 Q177 223 177 209 Q177 190 182 178.5 Q187 167 194 160 Q201 153 208.5 150.5 Q216 148 220 148 Q237 148 246.5 157 Q256 166 259 172 L259 233 Z " />
<glyph glyph-name="r" unicode="r" horiz-adv-x="321" d="M321 245 Q292 254 275 255.5 Q258 257 252 257 Q229 257 217 251 Q205 245 200 238 Q193 230 192 219 L192 0 L35 0 L35 405 L175 405 L183 379 Q191 391 201 397.5 Q211 404 220.5 407 Q230 410 238.5 410.5 Q247 411 251 411 Q275 411 290 408 Q305 405 321 394 L321 245 Z " />
<glyph glyph-name="s" unicode="s" horiz-adv-x="380" d="M194 411 Q253 411 283 403 Q313 395 337 379 L337 262 Q312 266 289 269 Q268 271 248 273 Q228 275 214 275 Q206 275 196.5 274.5 Q187 274 187 270 Q187 267 201 262.5 Q215 258 235.5 251.5 Q256 245 280 236 Q304 227 324.5 213 Q345 199 359 179.5 Q373 160 373 134 Q373 68 329 31 Q285 -6 201 -6 Q171 -6 144 -2.5 Q117 1 95 7 Q73 13 57.5 19.5 Q42 26 35 32 L35 160 Q63 153 90 148 Q115 142 139 138.5 Q163 135 181 135 Q201 135 201 139 Q201 143 187 148.5 Q173 154 152.5 162.5 Q132 171 108 182.5 Q84 194 63.5 209.5 Q43 225 29 244.5 Q15 264 15 289 Q15 324 31 347 Q47 370 72.5 384.5 Q98 399 130 405 Q162 411 194 411 Z " />
<glyph glyph-name="t" unicode="t" horiz-adv-x="337" d="M-5 257 L-5 351 L166 526 L208 526 L208 405 L318 405 L318 257 L208 257 L208 182 Q208 162 216.5 155 Q225 148 242 148 Q250 148 263.5 149.5 Q277 151 290 154 Q305 156 322 159 L322 33 Q315 27 306.5 20.5 Q298 14 285 9 Q272 4 253 1 Q234 -2 205 -2 Q154 -2 123.5 13.5 Q93 29 77 51.5 Q61 74 56 100.5 Q51 127 51 148 L51 257 L-5 257 Z " />
<glyph glyph-name="u" unicode="u" horiz-adv-x="442" d="M407 405 L407 0 L258 0 L256 26 Q235 7 208 0.5 Q181 -6 164 -6 Q134 -6 109.5 5 Q85 16 67.5 34.5 Q50 53 40 78.5 Q30 104 30 134 L30 405 L187 405 L187 168 Q187 156 196 152 Q205 148 211 148 Q224 148 231.5 151.5 Q239 155 243 159 Q248 164 250 170 L250 405 L407 405 Z " />
<glyph glyph-name="v" unicode="v" horiz-adv-x="430" d="M124 0 L-5 405 L162 405 L215 184 L267 405 L435 405 L305 0 L124 0 Z " />
<glyph glyph-name="w" unicode="w" horiz-adv-x="612" d="M408 198 Q416 246 426.5 302 Q437 358 446 405 L612 405 L498 0 L347 0 L306 113 L264 0 L113 0 L0 405 L165 405 L205 198 L249 405 L363 405 L408 198 Z " />
<glyph glyph-name="x" unicode="x" horiz-adv-x="436" d="M179 0 L-5 0 L126 202 L-4 405 L182 405 L218 343 L254 405 L440 405 L310 202 L441 0 L257 0 L218 67 L179 0 Z " />
<glyph glyph-name="y" unicode="y" horiz-adv-x="436" d="M135 43 L5 405 L174 405 L222 249 L273 405 L446 405 L246 -79 Q231 -115 214 -138.5 Q197 -162 178 -175 Q159 -188 140 -193 Q121 -198 101 -198 Q80 -198 63 -195 Q46 -192 35 -189 Q21 -185 10 -180 L10 -43 Q37 -48 46.5 -49 Q56 -50 58 -50 Q60 -50 66.5 -49 Q73 -48 81.5 -45 Q90 -42 98 -36 Q106 -30 111 -19 L135 43 Z " />
<glyph glyph-name="z" unicode="z" horiz-adv-x="399" d="M30 405 L369 405 L369 268 L256 148 L369 148 L369 0 L30 0 L30 137 L147 257 L30 257 L30 405 Z " />
<glyph glyph-name="braceleft" unicode="&#x7b;" horiz-adv-x="472" d="M110 338 Q126 338 140.5 343.5 Q155 349 155 366 L155 570 Q155 592 159.5 618.5 Q164 645 180.5 668.5 Q197 692 228 708 Q259 724 311 724 Q341 724 361 721 Q381 718 394.5 712.5 Q408 707 416.5 700.5 Q425 694 432 688 L432 558 Q414 561 398 564 Q383 566 369.5 568 Q356 570 348 570 Q332 570 322 562 Q312 554 312 533 L312 385 Q312 342 296.5 310 Q281 278 258 261 Q283 244 297.5 211.5 Q312 179 312 135 L312 -13 Q312 -34 322 -42 Q332 -50 348 -50 Q356 -50 370 -48 Q384 -46 398 -44 Q414 -41 432 -37 L432 -168 Q425 -175 416.5 -181.5 Q408 -188 394.5 -193 Q381 -198 361 -201 Q341 -204 311 -204 Q259 -204 228 -188 Q197 -172 180.5 -148.5 Q164 -125 159.5 -98.5 Q155 -72 155 -50 L155 156 Q155 173 140.5 178.5 Q126 184 110 184 L40 184 L40 338 L110 338 Z " />
<glyph glyph-name="bar" unicode="&#x7c;" horiz-adv-x="237" d="M40 723 L197 723 L197 -204 L40 -204 L40 723 Z " />
<glyph glyph-name="braceright" unicode="&#x7d;" horiz-adv-x="472" d="M432 338 L432 184 L362 184 Q346 184 331.5 178.5 Q317 173 317 156 L317 -50 Q317 -72 312.5 -98.5 Q308 -125 291.5 -148.5 Q275 -172 244.5 -188 Q214 -204 161 -204 Q131 -204 111.5 -201 Q92 -198 78.5 -193 Q65 -188 56 -181.5 Q47 -175 40 -168 L40 -37 Q58 -41 74 -44 Q89 -46 102.5 -48 Q116 -50 124 -50 Q140 -50 150 -42 Q160 -34 160 -13 L160 135 Q160 179 174.5 211.5 Q189 244 214 261 Q191 278 175.5 310 Q160 342 160 385 L160 533 Q160 554 150 562 Q140 570 124 570 Q116 570 102 568 Q88 566 74 564 Q58 561 40 558 L40 688 Q47 694 56 700.5 Q65 707 78.5 712.5 Q92 718 111.5 721 Q131 724 161 724 Q214 724 244.5 708 Q275 692 291.5 668.5 Q308 645 312.5 618.5 Q317 592 317 570 L317 366 Q317 349 331.5 343.5 Q346 338 362 338 L432 338 Z " />
<glyph glyph-name="asciitilde" unicode="&#x7e;" horiz-adv-x="411" d="M371 161 Q341 136 310.5 119.5 Q280 103 251 103 Q237 103 224.5 108 Q212 113 200 118.5 Q188 124 176 129 Q164 134 151 134 Q142 134 130.5 128.5 Q119 123 98 106 L40 225 Q70 250 97 264 Q124 278 151 278 Q165 278 178 273 Q191 268 203 262.5 Q215 257 227 252 Q239 247 252 247 Q271 247 312 279 L371 161 Z " />
<glyph glyph-name="uni00A0" unicode="&#xa0;" horiz-adv-x="199" d="" />
<glyph glyph-name="exclamdown" unicode="&#xa1;" horiz-adv-x="247" d="M40 506 Q40 542 63.5 566 Q87 590 123 590 Q158 590 182.5 566 Q207 542 207 506 Q207 470 182.5 446 Q158 422 123 422 Q87 422 63.5 446 Q40 470 40 506 Z M202 -6 L45 -6 L45 250 L58 390 L189 390 L202 250 L202 -6 Z " />
<glyph glyph-name="cent" unicode="&#xa2;" horiz-adv-x="592" d="M551 85 Q512 47 467 25.5 Q422 4 378 -3 L378 -107 L214 -107 L214 17 Q181 30 149.5 52 Q118 74 93.5 107.5 Q69 141 54.5 188.5 Q40 236 40 299 Q40 355 54 399.5 Q68 444 92 477.5 Q116 511 147.5 534.5 Q179 558 214 572 L214 703 L378 703 L378 593 Q423 586 468 565.5 Q513 545 552 507 L459 396 Q424 425 393.5 433.5 Q363 442 335 442 Q313 442 289 435.5 Q265 429 245.5 412.5 Q226 396 213.5 368.5 Q201 341 201 299 Q201 252 215.5 222.5 Q230 193 251 176.5 Q272 160 295 154 Q318 148 335 148 Q363 148 396 157.5 Q429 167 464 196 L551 85 Z " />
<glyph glyph-name="sterling" unicode="&#xa3;" horiz-adv-x="550" d="M266 205 L266 154 L510 154 L510 0 L40 0 L40 154 L109 154 L109 205 L40 205 L40 362 L109 362 L109 394 Q109 456 132 495 Q155 534 187.5 556.5 Q220 579 256 587.5 Q292 596 318 596 Q365 596 409.5 585 Q454 574 487 545 L440 423 Q404 444 370 448.5 Q336 453 322 453 Q315 453 305.5 452 Q296 451 287 446.5 Q278 442 272 432.5 Q266 423 266 406 L266 362 L389 362 L389 205 L266 205 Z " />
<glyph glyph-name="currency" unicode="&#xa4;" horiz-adv-x="508" d="M254 249 Q241 249 232 241 Q223 233 223 220 Q223 209 231.5 201.5 Q240 194 254 194 L256 194 Q268 194 276.5 201.5 Q285 209 285 220 Q285 233 276 241 Q267 249 254 249 Z M255 381 Q276 381 293 377.5 Q310 374 327 364 Q340 376 357.5 392.5 Q375 409 384 418 L468 323 L409 269 Q413 257 414 244 Q415 231 415 220 Q415 209 413.5 197.5 Q412 186 408 175 Q422 162 438.5 147.5 Q455 133 468 121 L384 26 L325 77 Q309 70 291.5 66 Q274 62 257 62 L251 62 Q234 62 216.5 66 Q199 70 183 77 L124 26 L40 121 Q53 133 69.5 147.5 Q86 162 100 175 Q96 186 94.5 197.5 Q93 209 93 220 Q93 231 94 244 Q95 257 99 269 L40 323 L124 418 Q133 409 150.5 392.5 Q168 376 181 364 Q198 374 215 377.5 Q232 381 253 381 L255 381 Z " />
<glyph glyph-name="yen" unicode="&#xa5;" horiz-adv-x="675" d="M484 321 L515 321 L515 193 L416 193 L416 170 L515 170 L515 42 L416 42 L416 0 L259 0 L259 42 L160 42 L160 170 L259 170 L259 193 L160 193 L160 321 L191 321 L40 590 L221 590 L337 376 L453 590 L635 590 L484 321 Z " />
<glyph glyph-name="brokenbar" unicode="&#xa6;" horiz-adv-x="237" d="M40 724 L197 724 L197 317 L40 317 L40 724 Z M40 203 L197 203 L197 -204 L40 -204 L40 203 Z " />
<glyph glyph-name="section" unicode="&#xa7;" horiz-adv-x="450" d="M224 596 Q285 596 324 587 Q363 578 377 565 L377 447 Q348 449 322 451 Q298 452 276 453 Q254 454 240 454 Q225 454 214.5 453.5 Q204 453 204 448 Q204 443 219 437 Q234 431 257 423 Q280 415 306 404.5 Q332 394 355 380 Q378 366 393 348 Q408 330 408 307 Q408 278 398 259.5 Q388 241 371 221 Q388 205 399 186 Q410 167 410 144 Q410 110 396 82 Q382 54 358 34.5 Q334 15 301.5 4.5 Q269 -6 232 -6 Q202 -6 174 -2.5 Q146 1 123.5 6.5 Q101 12 85.5 18.5 Q70 25 63 32 L63 159 Q92 152 120 147 Q145 142 169 138.5 Q193 135 209 135 Q217 135 230.5 137.5 Q244 140 244 148 Q244 154 229 161.5 Q214 169 191.5 178.5 Q169 188 143 199.5 Q117 211 94.5 225.5 Q72 240 57 257.5 Q42 275 42 296 Q42 327 53 343.5 Q64 360 81 374 Q64 389 52 409 Q40 429 40 455 Q40 492 56 518.5 Q72 545 98.5 562.5 Q125 580 158 588 Q191 596 224 596 Z M260 311 Q260 318 248.5 320 Q237 322 226 322 Q215 322 204 320 Q193 318 193 310 Q193 302 203.5 300 Q214 298 225 298 Q238 298 249 300.5 Q260 303 260 311 Z " />
<glyph glyph-name="dieresis" unicode="&#xa8;" horiz-adv-x="437" d="M40 590 L203 590 L203 442 L40 442 L40 590 Z M234 590 L397 590 L397 442 L234 442 L234 590 Z " />
<glyph glyph-name="copyright" unicode="&#xa9;" horiz-adv-x="680" d="M338 595 Q401 595 456 571.5 Q511 548 552 507 Q593 466 616.5 411.5 Q640 357 640 294 Q640 233 616.5 178.5 Q593 124 552 83 Q511 42 456 18.5 Q401 -5 338 -5 Q277 -5 222.5 18.5 Q168 42 127.5 83 Q87 124 63.5 178.5 Q40 233 40 294 Q40 357 63.5 411.5 Q87 466 127.5 507 Q168 548 222.5 571.5 Q277 595 338 595 Z M338 99 Q378 99 414 115 Q450 131 477.5 158 Q505 185 521 220.5 Q537 256 537 294 Q537 334 521 370 Q505 406 477.5 433.5 Q450 461 414 477 Q378 493 338 493 Q300 493 265 477 Q230 461 203 433.5 Q176 406 160 370 Q144 334 144 294 Q144 256 160 220.5 Q176 185 203 158 Q230 131 265 115 Q300 99 338 99 Z M337 132 Q350 132 364.5 133 Q379 134 395.5 139 Q412 144 431 155 Q450 166 472 186 L423 264 Q391 246 375 243 Q359 240 347 240 Q340 240 331.5 242.5 Q323 245 315.5 251.5 Q308 258 302.5 269 Q297 280 297 297 Q297 311 302 320 Q307 329 314.5 334.5 Q322 340 331 342.5 Q340 345 347 345 Q358 345 374 342 Q390 339 424 319 L473 399 Q451 420 432 431 Q413 442 396 447 Q379 452 364.5 453 Q350 454 337 454 Q314 454 287 445 Q260 436 237.5 416.5 Q215 397 200 367.5 Q185 338 185 296 Q185 249 201 218 Q217 187 240 168 Q263 149 289.5 141 Q316 133 337 132 Z " />
<glyph glyph-name="ordfeminine" unicode="&#xaa;" horiz-adv-x="401" d="M361 239 L237 239 L236 261 Q216 245 194.5 240 Q173 235 159 235 Q153 235 133.5 236 Q114 237 93.5 247.5 Q73 258 56.5 282 Q40 306 40 352 Q40 403 66.5 424 Q93 445 153 445 Q168 445 188.5 442.5 Q209 440 230 428 L230 447 Q227 455 212 461.5 Q197 468 165 468 Q144 468 126 466.5 Q108 465 94 464 Q78 462 65 459 L65 566 Q79 579 107.5 587.5 Q136 596 189 596 Q270 596 314.5 553.5 Q359 511 361 438 L361 239 Z M230 363 Q225 365 214 366.5 Q203 368 190 368 Q179 368 174.5 362 Q170 356 170 350 Q170 345 175 339 Q180 333 190 333 Q197 333 204 334 Q211 335 217 336 Q224 337 230 338 L230 363 Z " />
<glyph glyph-name="guillemotleft" unicode="&#xab;" horiz-adv-x="573" d="M40 212 L121 416 L290 416 L209 212 L292 0 L123 0 L40 212 Z M281 212 L362 416 L531 416 L450 212 L533 0 L364 0 L281 212 Z " />
<glyph glyph-name="logicalnot" unicode="&#xac;" horiz-adv-x="481" d="M284 132 L40 132 L40 286 L441 286 L441 34 L284 34 L284 132 Z " />
<glyph glyph-name="uni00AD" unicode="&#xad;" horiz-adv-x="198" d="" />
<glyph glyph-name="registered" unicode="&#xae;" horiz-adv-x="680" d="M338 595 Q401 595 456 571.5 Q511 548 552 507 Q593 466 616.5 411.5 Q640 357 640 294 Q640 233 616.5 178.5 Q593 124 552 83 Q511 42 456 18.5 Q401 -5 338 -5 Q277 -5 222.5 18.5 Q168 42 127.5 83 Q87 124 63.5 178.5 Q40 233 40 294 Q40 357 63.5 411.5 Q87 466 127.5 507 Q168 548 222.5 571.5 Q277 595 338 595 Z M338 99 Q378 99 414 115 Q450 131 477.5 158 Q505 185 521 220.5 Q537 256 537 294 Q537 334 521 370 Q505 406 477.5 433.5 Q450 461 414 477 Q378 493 338 493 Q300 493 265 477 Q230 461 203 433.5 Q176 406 160 370 Q144 334 144 294 Q144 256 160 220.5 Q176 185 203 158 Q230 131 265 115 Q300 99 338 99 Z M471 324 Q471 301 458.5 280.5 Q446 260 426 249 Q437 239 444 225 Q451 211 460 187 L468 161 L355 161 L349 180 Q338 212 333 212 L328 212 L328 161 L219 161 L219 431 L364 431 Q381 431 400 425.5 Q419 420 435 407 Q451 394 461 373.5 Q471 353 471 324 Z M350 298 Q358 298 364.5 303 Q371 308 371 319 Q371 327 364.5 332.5 Q358 338 350 338 L328 338 L328 298 L350 298 Z " />
<glyph glyph-name="macron" unicode="&#xaf;" horiz-adv-x="416" d="M40 449 L40 590 L376 590 L376 449 L40 449 Z " />
<glyph glyph-name="degree" unicode="&#xb0;" horiz-adv-x="368" d="M184 308 Q156 308 129.5 319.5 Q103 331 83.5 350.5 Q64 370 52 396.5 Q40 423 40 452 Q40 482 52 508.5 Q64 535 83.5 554.5 Q103 574 129.5 585 Q156 596 184 596 Q213 596 239 585 Q265 574 284.5 554.5 Q304 535 316 508.5 Q328 482 328 452 Q328 423 316 396.5 Q304 370 284.5 350.5 Q265 331 239 319.5 Q213 308 184 308 Z M184 425 Q192 425 201 430 Q210 435 210 452 Q210 466 201 471 Q192 476 184 476 Q176 476 167.5 471 Q159 466 159 452 Q159 435 167.5 430 Q176 425 184 425 Z " />
<glyph glyph-name="plusminus" unicode="&#xb1;" horiz-adv-x="435" d="M296 441 L395 441 L395 287 L296 287 L296 188 L139 188 L139 287 L40 287 L40 441 L139 441 L139 543 L296 543 L296 441 Z M40 154 L395 154 L395 0 L40 0 L40 154 Z " />
<glyph glyph-name="twosuperior" unicode="&#xb2;" horiz-adv-x="358" d="M40 305 Q40 342 63.5 368 Q87 394 114.5 412 Q142 430 165.5 442.5 Q189 455 189 464 Q189 474 158 474 Q144 474 125.5 470.5 Q107 467 91 463 Q72 458 53 452 L53 570 Q73 578 98.5 587 Q124 596 170 596 Q200 596 227 588 Q254 580 274.5 563.5 Q295 547 306.5 522.5 Q318 498 318 466 Q318 433 306 414 Q294 395 276 381.5 Q258 368 237 357 Q216 346 198 329 L309 329 L309 217 L40 217 L40 305 Z " />
<glyph glyph-name="threesuperior" unicode="&#xb3;" horiz-adv-x="348" d="M150 445 Q159 445 169 448.5 Q179 452 179 460 Q179 474 164 474 Q149 474 138 474 Q125 474 108 471.5 Q91 469 76 466 Q58 462 40 458 L40 570 Q53 576 82 586 Q111 596 161 596 Q181 596 206.5 589.5 Q232 583 254.5 568.5 Q277 554 292.5 531 Q308 508 308 474 Q308 459 299.5 443 Q291 427 278 414 Q291 403 299.5 383 Q308 363 308 337 Q308 313 298 291.5 Q288 270 268.5 253.5 Q249 237 221 227 Q193 217 157 217 Q110 217 83.5 225.5 Q57 234 40 243 L40 349 Q60 343 79 339 Q96 335 113 332 Q130 329 143 329 Q157 329 168 329.5 Q179 330 179 344 Q179 355 170 357.5 Q161 360 152 360 L104 360 L123 445 L150 445 Z " />
<glyph glyph-name="acute" unicode="&#xb4;" horiz-adv-x="332" d="M188 405 L40 405 L120 590 L292 590 L188 405 Z " />
<glyph glyph-name="mu" unicode="&#xb5;" horiz-adv-x="442" d="M30 405 L187 405 L187 168 Q187 156 196 152 Q205 148 211 148 Q224 148 231.5 151.5 Q239 155 243 159 Q248 164 250 170 L250 405 L407 405 L407 0 L258 0 L256 26 Q241 12 222.5 5.5 Q204 -1 187 -4 L187 -185 L30 -185 L30 405 Z " />
<glyph glyph-name="paragraph" unicode="&#xb6;" horiz-adv-x="560" d="M520 0 L362 0 L362 435 L323 435 L323 0 L166 0 L166 263 Q109 278 74.5 322.5 Q40 367 40 424 Q40 456 51.5 484 Q63 512 82.5 533.5 Q102 555 128.5 570 Q155 585 185 590 L520 590 L520 0 Z " />
<glyph glyph-name="periodcentered" unicode="&#xb7;" horiz-adv-x="243" d="M40 273 L203 273 L203 127 L40 127 L40 273 Z " />
<glyph glyph-name="cedilla" unicode="&#xb8;" horiz-adv-x="332" d="M144 -6 L292 -6 L212 -191 L40 -191 L144 -6 Z " />
<glyph glyph-name="onesuperior" unicode="&#xb9;" horiz-adv-x="311" d="M40 534 L148 590 L271 590 L271 246 L142 246 L142 459 L40 412 L40 534 Z " />
<glyph glyph-name="ordmasculine" unicode="&#xba;" horiz-adv-x="368" d="M184 308 Q156 308 129.5 319.5 Q103 331 83.5 350.5 Q64 370 52 396.5 Q40 423 40 452 Q40 482 52 508.5 Q64 535 83.5 554.5 Q103 574 129.5 585 Q156 596 184 596 Q213 596 239 585 Q265 574 284.5 554.5 Q304 535 316 508.5 Q328 482 328 452 Q328 423 316 396.5 Q304 370 284.5 350.5 Q265 331 239 319.5 Q213 308 184 308 Z M184 425 Q192 425 201 430 Q210 435 210 452 Q210 466 201 471 Q192 476 184 476 Q176 476 167.5 471 Q159 466 159 452 Q159 435 167.5 430 Q176 425 184 425 Z " />
<glyph glyph-name="guillemotright" unicode="&#xbb;" horiz-adv-x="573" d="M450 0 L281 0 L364 212 L283 416 L452 416 L533 212 L450 0 Z M209 0 L40 0 L123 212 L42 416 L211 416 L292 212 L209 0 Z " />
<glyph glyph-name="onequarter" unicode="&#xbc;" horiz-adv-x="831" d="M439 590 L582 590 L358 0 L215 0 L439 590 Z M40 534 L148 590 L271 590 L271 246 L142 246 L142 459 L40 412 L40 534 Z M627 83 L466 83 L466 187 L603 361 L756 361 L756 193 L790 193 L790 83 L756 83 L756 0 L627 0 L627 83 Z M627 186 L627 236 L590 186 L627 186 Z " />
<glyph glyph-name="onehalf" unicode="&#xbd;" horiz-adv-x="822" d="M439 590 L582 590 L358 0 L215 0 L439 590 Z M40 534 L148 590 L271 590 L271 246 L142 246 L142 459 L40 412 L40 534 Z M504 88 Q504 125 527.5 151 Q551 177 578.5 195 Q606 213 629.5 225.5 Q653 238 653 247 Q653 257 622 257 Q608 257 589.5 253.5 Q571 250 555 246 Q536 241 517 235 L517 353 Q537 361 562.5 370 Q588 379 634 379 Q664 379 691 371 Q718 363 738.5 346.5 Q759 330 770.5 305.5 Q782 281 782 249 Q782 216 770 197 Q758 178 740 164.5 Q722 151 701 140 Q680 129 662 112 L773 112 L773 0 L504 0 L504 88 Z " />
<glyph glyph-name="threequarters" unicode="&#xbe;" horiz-adv-x="852" d="M459 590 L602 590 L378 0 L235 0 L459 590 Z M150 435 Q159 435 169 438.5 Q179 442 179 450 Q179 464 164 464 Q149 464 138 464 Q125 464 108 461.5 Q91 459 76 456 Q58 452 40 448 L40 560 Q53 566 82 576 Q111 586 161 586 Q181 586 206.5 579.5 Q232 573 254.5 558.5 Q277 544 292.5 521 Q308 498 308 464 Q308 449 299.5 433 Q291 417 278 404 Q291 393 299.5 373 Q308 353 308 327 Q308 303 298 281.5 Q288 260 268.5 243.5 Q249 227 221 217 Q193 207 157 207 Q110 207 83.5 215.5 Q57 224 40 233 L40 339 Q60 333 79 329 Q96 325 113 322 Q130 319 143 319 Q157 319 168 319.5 Q179 320 179 334 Q179 345 170 347.5 Q161 350 152 350 L104 350 L123 435 L150 435 Z M649 83 L488 83 L488 187 L625 361 L778 361 L778 193 L812 193 L812 83 L778 83 L778 0 L649 0 L649 83 Z M649 186 L649 236 L612 186 L649 186 Z " />
<glyph glyph-name="questiondown" unicode="&#xbf;" horiz-adv-x="490" d="M363 244 Q316 233 284 225.5 Q252 218 232.5 211.5 Q213 205 205 196.5 Q197 188 197 176 Q197 167 205 161.5 Q213 156 224 153 Q235 150 247 149 Q259 148 267 148 Q289 148 320 153.5 Q351 159 380 165 Q414 172 450 182 L450 37 Q434 30 416 22 Q398 14 376 8 Q354 2 326 -2 Q298 -6 261 -6 Q228 -6 189.5 2.5 Q151 11 118 32 Q85 53 62.5 89.5 Q40 126 40 181 Q40 196 45.5 224.5 Q51 253 69 282 Q87 311 119.5 334 Q152 357 206 360 L206 401 L363 401 L363 244 Z M369 512 Q369 477 344.5 452.5 Q320 428 285 428 Q250 428 225.5 452.5 Q201 477 201 512 Q201 547 225.5 571.5 Q250 596 285 596 Q320 596 344.5 571.5 Q369 547 369 512 Z " />
<glyph glyph-name="Agrave" unicode="&#xc0;" horiz-adv-x="584" d="M110 842 L282 842 L362 657 L214 657 L110 842 Z M367 590 L584 0 L417 0 L381 92 L201 92 L167 0 L0 0 L217 590 L366 590 L367 590 Z M328 242 L292 339 L256 242 L328 242 Z " />
<glyph glyph-name="Aacute" unicode="&#xc1;" horiz-adv-x="584" d="M370 657 L222 657 L302 842 L474 842 L370 657 Z M218 590 L367 590 L584 0 L417 0 L383 92 L203 92 L167 0 L0 0 L217 590 L218 590 Z M328 242 L292 339 L256 242 L328 242 Z " />
<glyph glyph-name="Acircumflex" unicode="&#xc2;" horiz-adv-x="584" d="M367 590 L584 0 L417 0 L381 92 L201 92 L167 0 L0 0 L217 590 L366 590 L367 590 Z M328 242 L292 339 L256 242 L328 242 Z M351 865 L460 657 L319 657 L292 715 L265 657 L124 657 L232 865 L351 865 Z " />
<glyph glyph-name="Atilde" unicode="&#xc3;" horiz-adv-x="584" d="M367 590 L584 0 L417 0 L381 92 L201 92 L167 0 L0 0 L217 590 L366 590 L367 590 Z M328 242 L292 339 L256 242 L328 242 Z M457 715 Q427 690 396.5 673.5 Q366 657 337 657 Q323 657 310.5 662 Q298 667 286 672.5 Q274 678 262 683 Q250 688 237 688 Q228 688 216.5 682.5 Q205 677 184 660 L126 779 Q156 804 183 818 Q210 832 237 832 Q251 832 264 827 Q277 822 289 816.5 Q301 811 313 806 Q325 801 338 801 Q357 801 398 833 L457 715 Z " />
<glyph glyph-name="Adieresis" unicode="&#xc4;" horiz-adv-x="584" d="M367 590 L584 0 L417 0 L381 92 L201 92 L167 0 L0 0 L217 590 L366 590 L367 590 Z M328 242 L292 339 L256 242 L328 242 Z M114 805 L277 805 L277 657 L114 657 L114 805 Z M308 805 L471 805 L471 657 L308 657 L308 805 Z " />
<glyph glyph-name="Aring" unicode="&#xc5;" horiz-adv-x="584" d="M367 590 L584 0 L417 0 L381 92 L201 92 L167 0 L0 0 L217 590 L366 590 L367 590 Z M328 242 L292 339 L256 242 L328 242 Z M292 657 Q264 657 237.5 668.5 Q211 680 191.5 699.5 Q172 719 160 745.5 Q148 772 148 801 Q148 831 160 857.5 Q172 884 191.5 903.5 Q211 923 237.5 934 Q264 945 292 945 Q321 945 347 934 Q373 923 392.5 903.5 Q412 884 424 857.5 Q436 831 436 801 Q436 772 424 745.5 Q412 719 392.5 699.5 Q373 680 347 668.5 Q321 657 292 657 Z M292 774 Q300 774 309 779 Q318 784 318 801 Q318 815 309 820 Q300 825 292 825 Q284 825 275.5 820 Q267 815 267 801 Q267 784 275.5 779 Q284 774 292 774 Z " />
<glyph glyph-name="AE" unicode="&#xc6;" horiz-adv-x="888" d="M858 590 L858 436 L596 436 L596 367 L812 367 L812 213 L596 213 L596 154 L858 154 L858 0 L439 0 L439 116 L267 116 L189 0 L0 0 L398 590 L858 590 Z M439 273 L439 371 L373 273 L439 273 Z " />
<glyph glyph-name="Ccedilla" unicode="&#xc7;" horiz-adv-x="537" d="M310 442 Q288 442 264 435.5 Q240 429 220.5 412.5 Q201 396 188.5 368.5 Q176 341 176 299 Q176 252 190.5 222.5 Q205 193 226 176.5 Q247 160 270 154 Q293 148 310 148 Q338 148 371 157.5 Q404 167 439 196 L526 85 Q477 38 420.5 16 Q364 -6 312 -6 Q272 -6 220.5 6.5 Q169 19 123 52.5 Q77 86 46 145.5 Q15 205 15 299 Q15 380 43.5 436.5 Q72 493 115.5 528.5 Q159 564 211 580 Q263 596 311 596 Q363 596 420.5 575 Q478 554 527 507 L434 396 Q399 425 368.5 433.5 Q338 442 310 442 Z M231 -64 L379 -64 L299 -249 L127 -249 L231 -64 Z " />
<glyph glyph-name="Egrave" unicode="&#xc8;" horiz-adv-x="489" d="M197 436 L197 367 L413 367 L413 213 L197 213 L197 154 L459 154 L459 0 L40 0 L40 590 L459 590 L459 436 L197 436 Z M95 842 L267 842 L347 657 L199 657 L95 842 Z " />
<glyph glyph-name="Eacute" unicode="&#xc9;" horiz-adv-x="489" d="M197 436 L197 367 L413 367 L413 213 L197 213 L197 154 L459 154 L459 0 L40 0 L40 590 L459 590 L459 436 L197 436 Z M312 657 L164 657 L244 842 L416 842 L312 657 Z " />
<glyph glyph-name="Ecircumflex" unicode="&#xca;" horiz-adv-x="489" d="M197 436 L197 367 L413 367 L413 213 L197 213 L197 154 L459 154 L459 0 L40 0 L40 590 L459 590 L459 436 L197 436 Z M315 865 L424 657 L283 657 L256 715 L229 657 L88 657 L196 865 L315 865 Z " />
<glyph glyph-name="Edieresis" unicode="&#xcb;" horiz-adv-x="489" d="M197 436 L197 367 L413 367 L413 213 L197 213 L197 154 L459 154 L459 0 L40 0 L40 590 L459 590 L459 436 L197 436 Z M75 805 L238 805 L238 657 L75 657 L75 805 Z M269 805 L432 805 L432 657 L269 657 L269 805 Z " />
<glyph glyph-name="Igrave" unicode="&#xcc;" horiz-adv-x="237" d="M40 590 L197 590 L197 0 L40 0 L40 590 Z M-60 842 L112 842 L192 657 L44 657 L-60 842 Z " />
<glyph glyph-name="Iacute" unicode="&#xcd;" horiz-adv-x="237" d="M197 0 L40 0 L40 590 L197 590 L197 0 Z M193 657 L45 657 L125 842 L297 842 L193 657 Z " />
<glyph glyph-name="Icircumflex" unicode="&#xce;" horiz-adv-x="237" d="M40 590 L197 590 L197 0 L40 0 L40 590 Z M177 865 L286 657 L145 657 L118 715 L91 657 L-50 657 L58 865 L177 865 Z " />
<glyph glyph-name="Idieresis" unicode="&#xcf;" horiz-adv-x="237" d="M40 590 L197 590 L197 0 L40 0 L40 590 Z M-60 805 L103 805 L103 657 L-60 657 L-60 805 Z M134 805 L297 805 L297 657 L134 657 L134 805 Z " />
<glyph glyph-name="Eth" unicode="&#xd0;" horiz-adv-x="592" d="M567 301 Q567 210 539.5 152 Q512 94 471.5 60 Q431 26 383.5 13 Q336 0 296 0 L79 0 L79 219 L0 219 L0 363 L79 363 L79 590 L284 590 Q333 590 383.5 575 Q434 560 474.5 526 Q515 492 541 436.5 Q567 381 567 301 Z M236 219 L236 154 L287 154 Q306 154 327.5 159 Q349 164 367.5 179 Q386 194 398 222.5 Q410 251 410 298 Q410 339 399.5 365.5 Q389 392 372.5 408 Q356 424 334.5 430 Q313 436 290 436 L236 436 L236 363 L344 363 L344 219 L236 219 Z " />
<glyph glyph-name="Ntilde" unicode="&#xd1;" horiz-adv-x="587" d="M197 294 L197 0 L40 0 L40 590 L176 590 L390 293 L390 590 L547 590 L547 0 L408 0 L197 294 Z M437 715 Q407 690 376.5 673.5 Q346 657 317 657 Q303 657 290.5 662 Q278 667 266 672.5 Q254 678 242 683 Q230 688 217 688 Q208 688 196.5 682.5 Q185 677 164 660 L106 779 Q136 804 163 818 Q190 832 217 832 Q231 832 244 827 Q257 822 269 816.5 Q281 811 293 806 Q305 801 318 801 Q337 801 378 833 L437 715 Z " />
<glyph glyph-name="Ograve" unicode="&#xd2;" horiz-adv-x="618" d="M308 148 L310 148 Q328 148 350 154 Q372 160 391 176.5 Q410 193 423 222.5 Q436 252 436 300 Q436 342 424.5 369.5 Q413 397 395 413 Q377 429 354 435.5 Q331 442 308 442 Q286 442 263.5 435.5 Q241 429 223 413 Q205 397 193.5 369.5 Q182 342 182 300 Q182 252 195 222.5 Q208 193 227 176.5 Q246 160 268 154 Q290 148 308 148 L310 148 L308 148 Z M308 -6 Q267 -6 217.5 7 Q168 20 125.5 54.5 Q83 89 54 149 Q25 209 25 303 Q25 384 51 439.5 Q77 495 118 530 Q159 565 209.5 580.5 Q260 596 309 596 Q358 596 408.5 580.5 Q459 565 500 530 Q541 495 567 439.5 Q593 384 593 303 Q593 209 564 149 Q535 89 492.5 54.5 Q450 20 400.5 7 Q351 -6 310 -6 L308 -6 Z M129 842 L301 842 L381 657 L233 657 L129 842 Z " />
<glyph glyph-name="Oacute" unicode="&#xd3;" horiz-adv-x="618" d="M308 148 L310 148 Q328 148 350 154 Q372 160 391 176.5 Q410 193 423 222.5 Q436 252 436 300 Q436 342 424.5 369.5 Q413 397 395 413 Q377 429 354.5 435.5 Q332 442 310 442 Q287 442 264 435.5 Q241 429 223 413 Q205 397 193.5 369.5 Q182 342 182 300 Q182 252 195 222.5 Q208 193 227 176.5 Q246 160 268 154 Q290 148 308 148 L310 148 L308 148 Z M308 -6 Q267 -6 217.5 7 Q168 20 125.5 54.5 Q83 89 54 149 Q25 209 25 303 Q25 384 51 439.5 Q77 495 118 530 Q159 565 209.5 580.5 Q260 596 309 596 Q358 596 408.5 580.5 Q459 565 500 530 Q541 495 567 439.5 Q593 384 593 303 Q593 209 564 149 Q535 89 492.5 54.5 Q450 20 400.5 7 Q351 -6 310 -6 L308 -6 Z M385 657 L237 657 L317 842 L489 842 L385 657 Z " />
<glyph glyph-name="Ocircumflex" unicode="&#xd4;" horiz-adv-x="618" d="M308 148 L310 148 Q328 148 350 154 Q372 160 391 176.5 Q410 193 423 222.5 Q436 252 436 300 Q436 342 424.5 369.5 Q413 397 395 413 Q377 429 354 435.5 Q331 442 308 442 Q286 442 263.5 435.5 Q241 429 223 413 Q205 397 193.5 369.5 Q182 342 182 300 Q182 252 195 222.5 Q208 193 227 176.5 Q246 160 268 154 Q290 148 308 148 L310 148 L308 148 Z M308 -6 Q267 -6 217.5 7 Q168 20 125.5 54.5 Q83 89 54 149 Q25 209 25 303 Q25 384 51 439.5 Q77 495 118 530 Q159 565 209.5 580.5 Q260 596 309 596 Q358 596 408.5 580.5 Q459 565 500 530 Q541 495 567 439.5 Q593 384 593 303 Q593 209 564 149 Q535 89 492.5 54.5 Q450 20 400.5 7 Q351 -6 310 -6 L308 -6 Z M369 865 L478 657 L337 657 L310 715 L283 657 L142 657 L250 865 L369 865 Z " />
<glyph glyph-name="Otilde" unicode="&#xd5;" horiz-adv-x="618" d="M308 148 L310 148 Q328 148 350 154 Q372 160 391 176.5 Q410 193 423 222.5 Q436 252 436 300 Q436 342 424.5 369.5 Q413 397 395 413 Q377 429 354 435.5 Q331 442 308 442 Q286 442 263.5 435.5 Q241 429 223 413 Q205 397 193.5 369.5 Q182 342 182 300 Q182 252 195 222.5 Q208 193 227 176.5 Q246 160 268 154 Q290 148 308 148 L310 148 L308 148 Z M308 -6 Q267 -6 217.5 7 Q168 20 125.5 54.5 Q83 89 54 149 Q25 209 25 303 Q25 384 51 439.5 Q77 495 118 530 Q159 565 209.5 580.5 Q260 596 309 596 Q358 596 408.5 580.5 Q459 565 500 530 Q541 495 567 439.5 Q593 384 593 303 Q593 209 564 149 Q535 89 492.5 54.5 Q450 20 400.5 7 Q351 -6 310 -6 L308 -6 Z M473 715 Q443 690 412.5 673.5 Q382 657 353 657 Q339 657 326.5 662 Q314 667 302 672.5 Q290 678 278 683 Q266 688 253 688 Q244 688 232.5 682.5 Q221 677 200 660 L142 779 Q172 804 199 818 Q226 832 253 832 Q267 832 280 827 Q293 822 305 816.5 Q317 811 329 806 Q341 801 354 801 Q373 801 414 833 L473 715 Z " />
<glyph glyph-name="Odieresis" unicode="&#xd6;" horiz-adv-x="618" d="M308 148 L310 148 Q328 148 350 154 Q372 160 391 176.5 Q410 193 423 222.5 Q436 252 436 300 Q436 342 424.5 369.5 Q413 397 395 413 Q377 429 354 435.5 Q331 442 308 442 Q286 442 263.5 435.5 Q241 429 223 413 Q205 397 193.5 369.5 Q182 342 182 300 Q182 252 195 222.5 Q208 193 227 176.5 Q246 160 268 154 Q290 148 308 148 L310 148 L308 148 Z M308 -6 Q267 -6 217.5 7 Q168 20 125.5 54.5 Q83 89 54 149 Q25 209 25 303 Q25 384 51 439.5 Q77 495 118 530 Q159 565 209.5 580.5 Q260 596 309 596 Q358 596 408.5 580.5 Q459 565 500 530 Q541 495 567 439.5 Q593 384 593 303 Q593 209 564 149 Q535 89 492.5 54.5 Q450 20 400.5 7 Q351 -6 310 -6 L308 -6 Z M130 805 L293 805 L293 657 L130 657 L130 805 Z M324 805 L487 805 L487 657 L324 657 L324 805 Z " />
<glyph glyph-name="multiply" unicode="&#xd7;" horiz-adv-x="498" d="M229 42 L45 42 L156 207 L40 378 L224 378 L249 335 L274 378 L458 378 L342 207 L453 42 L269 42 L249 80 L229 42 Z " />
<glyph glyph-name="Oslash" unicode="&#xd8;" horiz-adv-x="618" d="M488 540 Q534 506 563.5 448.5 Q593 391 593 303 Q593 209 564 149 Q535 89 492.5 54.5 Q450 20 400.5 7 Q351 -6 310 -6 L308 -6 Q302 -6 296 -6 Q290 -6 284 -5 L256 -74 L85 -74 L132 50 Q87 84 56 145 Q25 206 25 303 Q25 384 51 439.5 Q77 495 118 530 Q159 565 209.5 580.5 Q260 596 309 596 Q317 596 323.5 596 Q330 596 338 595 L362 657 L533 657 L488 540 Z M310 148 Q328 148 350 154 Q372 160 391 176.5 Q410 193 423 222.5 Q436 252 436 300 Q436 342 424.5 369.5 Q413 397 395 413 Q377 429 354 435.5 Q331 442 308 442 Q286 442 263.5 435.5 Q241 429 223 413 Q205 397 193.5 369.5 Q182 342 182 300 Q182 252 195 222.5 Q208 193 227 176.5 Q246 160 268 154 Q290 148 308 148 L310 148 Z " />
<glyph glyph-name="Ugrave" unicode="&#xd9;" horiz-adv-x="568" d="M282 -6 Q242 -6 199 4.5 Q156 15 120.5 44.5 Q85 74 62.5 128 Q40 182 40 270 L40 590 L197 590 L197 257 Q197 221 204.5 199.5 Q212 178 224 166.5 Q236 155 252 151.5 Q268 148 284 148 Q301 148 316.5 151.5 Q332 155 344 166.5 Q356 178 363.5 199.5 Q371 221 371 257 L371 590 L528 590 L528 270 Q528 182 505.5 128 Q483 74 447.5 44.5 Q412 15 369.5 4.5 Q327 -6 286 -6 L282 -6 Z M106 842 L278 842 L358 657 L210 657 L106 842 Z " />
<glyph glyph-name="Uacute" unicode="&#xda;" horiz-adv-x="568" d="M282 -6 Q242 -6 199 4.5 Q156 15 120.5 44.5 Q85 74 62.5 128 Q40 182 40 270 L40 590 L197 590 L197 257 Q197 221 204.5 199.5 Q212 178 224 166.5 Q236 155 252 151.5 Q268 148 284 148 Q301 148 316.5 151.5 Q332 155 344 166.5 Q356 178 363.5 199.5 Q371 221 371 257 L371 590 L528 590 L528 270 Q528 182 505.5 128 Q483 74 447.5 44.5 Q412 15 369.5 4.5 Q327 -6 286 -6 L282 -6 Z M358 657 L210 657 L290 842 L462 842 L358 657 Z " />
<glyph glyph-name="Ucircumflex" unicode="&#xdb;" horiz-adv-x="568" d="M282 -6 Q242 -6 199 4.5 Q156 15 120.5 44.5 Q85 74 62.5 128 Q40 182 40 270 L40 590 L197 590 L197 257 Q197 221 204.5 199.5 Q212 178 224 166.5 Q236 155 252 151.5 Q268 148 284 148 Q301 148 316.5 151.5 Q332 155 344 166.5 Q356 178 363.5 199.5 Q371 221 371 257 L371 590 L528 590 L528 270 Q528 182 505.5 128 Q483 74 447.5 44.5 Q412 15 369.5 4.5 Q327 -6 286 -6 L282 -6 Z M343 865 L452 657 L311 657 L284 715 L257 657 L116 657 L224 865 L343 865 Z " />
<glyph glyph-name="Udieresis" unicode="&#xdc;" horiz-adv-x="568" d="M282 -6 Q242 -6 199 4.5 Q156 15 120.5 44.5 Q85 74 62.5 128 Q40 182 40 270 L40 590 L197 590 L197 257 Q197 221 204.5 199.5 Q212 178 224 166.5 Q236 155 252 151.5 Q268 148 284 148 Q301 148 316.5 151.5 Q332 155 344 166.5 Q356 178 363.5 199.5 Q371 221 371 257 L371 590 L528 590 L528 270 Q528 182 505.5 128 Q483 74 447.5 44.5 Q412 15 369.5 4.5 Q327 -6 286 -6 L282 -6 Z M106 805 L269 805 L269 657 L106 657 L106 805 Z M300 805 L463 805 L463 657 L300 657 L300 805 Z " />
<glyph glyph-name="Yacute" unicode="&#xdd;" horiz-adv-x="585" d="M371 0 L214 0 L214 199 L-5 590 L176 590 L292 376 L408 590 L590 590 L371 199 L371 0 Z M362 657 L214 657 L294 842 L466 842 L362 657 Z " />
<glyph glyph-name="Thorn" unicode="&#xde;" horiz-adv-x="514" d="M35 590 L193 590 L193 513 L300 513 Q333 513 369.5 500.5 Q406 488 437 462.5 Q468 437 488.5 397.5 Q509 358 509 303 Q509 238 487 195.5 Q465 153 433.5 128.5 Q402 104 366.5 94 Q331 84 303 84 L193 84 L193 0 L35 0 L35 590 Z M193 359 L193 238 L302 238 Q309 238 317.5 240.5 Q326 243 333.5 250 Q341 257 346.5 269.5 Q352 282 352 301 Q352 331 334.5 345 Q317 359 302 359 L193 359 Z " />
<glyph glyph-name="germandbls" unicode="&#xdf;" horiz-adv-x="529" d="M300 590 Q332 590 366 583 Q400 576 428.5 556.5 Q457 537 475.5 502.5 Q494 468 494 413 Q494 391 486 360 Q478 329 462 309 Q488 292 503.5 256 Q519 220 519 175 Q519 150 509.5 119.5 Q500 89 477 62.5 Q454 36 414.5 18 Q375 0 316 0 L237 0 L237 153 L321 153 Q335 153 348.5 158 Q362 163 362 186 Q362 203 349.5 211.5 Q337 220 324 221 L230 221 L264 370 L295 370 Q309 370 323 379 Q337 388 337 410 Q337 427 323 432 Q309 437 295 437 L265 437 Q249 437 236 434.5 Q223 432 213 422 Q203 412 197.5 392 Q192 372 192 338 L192 0 L35 0 L35 341 Q35 428 58 478 Q81 528 116 552.5 Q151 577 194.5 583.5 Q238 590 278 590 L300 590 Z " />
<glyph glyph-name="agrave" unicode="&#xe0;" horiz-adv-x="429" d="M394 0 L245 0 L242 25 Q220 3 196 -1.5 Q172 -6 161 -6 Q154 -6 130 -3 Q106 0 80.5 13.5 Q55 27 35 56 Q15 85 15 137 Q15 196 52 219.5 Q89 243 155 243 Q170 243 193.5 239 Q217 235 237 225 L237 243 Q234 254 220 264 Q206 274 168 274 Q156 274 135.5 271.5 Q115 269 95 267 Q72 263 47 259 L47 389 Q73 397 105.5 404 Q138 411 197 411 Q289 411 340 362.5 Q391 314 394 230 L394 0 Z M237 147 Q234 149 224.5 151.5 Q215 154 198 154 Q183 154 177.5 147 Q172 140 172 135 Q172 128 178.5 122 Q185 116 198 116 Q206 116 213 117 Q220 118 225 119 Q231 120 237 122 L237 147 Z M67 647 L239 647 L319 462 L171 462 L67 647 Z " />
<glyph glyph-name="aacute" unicode="&#xe1;" horiz-adv-x="429" d="M394 0 L245 0 L242 25 Q220 3 196 -1.5 Q172 -6 161 -6 Q154 -6 130 -3 Q106 0 80.5 13.5 Q55 27 35 56 Q15 85 15 137 Q15 196 52 219.5 Q89 243 155 243 Q170 243 193.5 239 Q217 235 237 225 L237 243 Q234 254 220 264 Q206 274 168 274 Q156 274 135.5 271.5 Q115 269 95 267 Q72 263 47 259 L47 389 Q73 397 105.5 404 Q138 411 197 411 Q289 411 340 362.5 Q391 314 394 230 L394 0 Z M237 147 Q234 149 224.5 151.5 Q215 154 198 154 Q183 154 177.5 147 Q172 140 172 135 Q172 128 178.5 122 Q185 116 198 116 Q206 116 213 117 Q220 118 225 119 Q231 120 237 122 L237 147 Z M282 462 L134 462 L214 647 L386 647 L282 462 Z " />
<glyph glyph-name="acircumflex" unicode="&#xe2;" horiz-adv-x="429" d="M394 0 L245 0 L242 25 Q220 3 196 -1.5 Q172 -6 161 -6 Q154 -6 130 -3 Q106 0 80.5 13.5 Q55 27 35 56 Q15 85 15 137 Q15 196 52 219.5 Q89 243 155 243 Q170 243 193.5 239 Q217 235 237 225 L237 243 Q234 254 220 264 Q206 274 168 274 Q156 274 135.5 271.5 Q115 269 95 267 Q72 263 47 259 L47 389 Q73 397 105.5 404 Q138 411 197 411 Q289 411 340 362.5 Q391 314 394 230 L394 0 Z M237 147 Q234 149 224.5 151.5 Q215 154 198 154 Q183 154 177.5 147 Q172 140 172 135 Q172 128 178.5 122 Q185 116 198 116 Q206 116 213 117 Q220 118 225 119 Q231 120 237 122 L237 147 Z M270 670 L379 462 L238 462 L211 520 L184 462 L43 462 L151 670 L270 670 Z " />
<glyph glyph-name="atilde" unicode="&#xe3;" horiz-adv-x="429" d="M394 0 L245 0 L242 25 Q220 3 196 -1.5 Q172 -6 161 -6 Q154 -6 130 -3 Q106 0 80.5 13.5 Q55 27 35 56 Q15 85 15 137 Q15 196 52 219.5 Q89 243 155 243 Q170 243 193.5 239 Q217 235 237 225 L237 243 Q234 254 220 264 Q206 274 168 274 Q156 274 135.5 271.5 Q115 269 95 267 Q72 263 47 259 L47 389 Q73 397 105.5 404 Q138 411 197 411 Q289 411 340 362.5 Q391 314 394 230 L394 0 Z M237 147 Q234 149 224.5 151.5 Q215 154 198 154 Q183 154 177.5 147 Q172 140 172 135 Q172 128 178.5 122 Q185 116 198 116 Q206 116 213 117 Q220 118 225 119 Q231 120 237 122 L237 147 Z M372 520 Q342 495 311.5 478.5 Q281 462 252 462 Q238 462 225.5 467 Q213 472 201 477.5 Q189 483 177 488 Q165 493 152 493 Q143 493 131.5 487.5 Q120 482 99 465 L41 584 Q71 609 98 623 Q125 637 152 637 Q166 637 179 632 Q192 627 204 621.5 Q216 616 228 611 Q240 606 253 606 Q272 606 313 638 L372 520 Z " />
<glyph glyph-name="adieresis" unicode="&#xe4;" horiz-adv-x="429" d="M394 0 L245 0 L242 25 Q220 3 196 -1.5 Q172 -6 161 -6 Q154 -6 130 -3 Q106 0 80.5 13.5 Q55 27 35 56 Q15 85 15 137 Q15 196 52 219.5 Q89 243 155 243 Q170 243 193.5 239 Q217 235 237 225 L237 243 Q234 254 220 264 Q206 274 168 274 Q156 274 135.5 271.5 Q115 269 95 267 Q72 263 47 259 L47 389 Q73 397 105.5 404 Q138 411 197 411 Q289 411 340 362.5 Q391 314 394 230 L394 0 Z M237 147 Q234 149 224.5 151.5 Q215 154 198 154 Q183 154 177.5 147 Q172 140 172 135 Q172 128 178.5 122 Q185 116 198 116 Q206 116 213 117 Q220 118 225 119 Q231 120 237 122 L237 147 Z M33 610 L196 610 L196 462 L33 462 L33 610 Z M227 610 L390 610 L390 462 L227 462 L227 610 Z " />
<glyph glyph-name="aring" unicode="&#xe5;" horiz-adv-x="429" d="M394 0 L245 0 L242 25 Q220 3 196 -1.5 Q172 -6 161 -6 Q154 -6 130 -3 Q106 0 80.5 13.5 Q55 27 35 56 Q15 85 15 137 Q15 196 52 219.5 Q89 243 155 243 Q170 243 193.5 239 Q217 235 237 225 L237 243 Q234 254 220 264 Q206 274 168 274 Q156 274 135.5 271.5 Q115 269 95 267 Q72 263 47 259 L47 389 Q73 397 105.5 404 Q138 411 197 411 Q289 411 340 362.5 Q391 314 394 230 L394 0 Z M237 147 Q234 149 224.5 151.5 Q215 154 198 154 Q183 154 177.5 147 Q172 140 172 135 Q172 128 178.5 122 Q185 116 198 116 Q206 116 213 117 Q220 118 225 119 Q231 120 237 122 L237 147 Z M221 462 Q193 462 166.5 473.5 Q140 485 120.5 504.5 Q101 524 89 550.5 Q77 577 77 606 Q77 636 89 662.5 Q101 689 120.5 708.5 Q140 728 166.5 739 Q193 750 221 750 Q250 750 276 739 Q302 728 321.5 708.5 Q341 689 353 662.5 Q365 636 365 606 Q365 577 353 550.5 Q341 524 321.5 504.5 Q302 485 276 473.5 Q250 462 221 462 Z M221 579 Q229 579 238 584 Q247 589 247 606 Q247 620 238 625 Q229 630 221 630 Q213 630 204.5 625 Q196 620 196 606 Q196 589 204.5 584 Q213 579 221 579 Z " />
<glyph glyph-name="ae" unicode="&#xe6;" horiz-adv-x="643" d="M618 173 L394 173 L394 171 Q396 153 414.5 144 Q433 135 463 135 Q484 135 507 137.5 Q530 140 550 143 Q573 146 595 150 L595 24 Q577 16 563 10.5 Q549 5 533.5 1 Q518 -3 498 -4.5 Q478 -6 449 -6 Q406 -6 371.5 4.5 Q337 15 311 35 Q296 20 273 11.5 Q250 3 226.5 -1 Q203 -5 184.5 -5.5 Q166 -6 161 -6 Q154 -6 130 -3 Q106 0 80.5 13.5 Q55 27 35 56 Q15 85 15 137 Q15 196 52 219.5 Q89 243 155 243 Q170 243 193.5 239 Q217 235 237 225 L237 243 Q234 254 220 264 Q206 274 168 274 Q156 274 135.5 271.5 Q115 269 95 267 Q72 263 47 259 L47 389 Q73 397 105.5 404 Q138 411 197 411 Q273 411 322 376 Q345 393 373.5 402 Q402 411 434 411 Q476 411 510 397 Q544 383 568 358 Q592 333 605 298.5 Q618 264 618 223 L618 173 Z M475 249 Q470 272 458.5 278.5 Q447 285 434 285 Q423 285 411 278.5 Q399 272 393 249 L475 249 Z M237 147 Q234 149 224.5 151.5 Q215 154 198 154 Q183 154 177.5 147 Q172 140 172 135 Q172 128 178.5 122 Q185 116 198 116 Q206 116 213 117 Q220 118 225 119 Q231 120 237 122 L237 147 Z " />
<glyph glyph-name="ccedilla" unicode="&#xe7;" horiz-adv-x="402" d="M220 -6 Q193 -5 157.5 6 Q122 17 90.5 41 Q59 65 37 105.5 Q15 146 15 207 Q15 261 36 299.5 Q57 338 87.5 363 Q118 388 154 399.5 Q190 411 220 411 Q237 411 256 410 Q275 409 296.5 402.5 Q318 396 343.5 381.5 Q369 367 397 341 L332 236 Q310 249 295 256 Q280 263 268.5 266 Q257 269 249 269.5 Q241 270 233 270 Q224 270 213 267 Q202 264 192.5 257 Q183 250 177 238 Q171 226 171 208 Q171 186 177.5 171.5 Q184 157 193.5 149 Q203 141 213.5 138 Q224 135 233 135 Q249 135 269.5 139 Q290 143 331 166 L396 64 Q368 38 343 23.5 Q318 9 296 2.5 Q274 -4 255.5 -5 Q237 -6 221 -6 L220 -6 Z M157 -64 L305 -64 L225 -249 L53 -249 L157 -64 Z " />
<glyph glyph-name="egrave" unicode="&#xe8;" horiz-adv-x="426" d="M401 173 L177 173 Q178 154 196.5 144.5 Q215 135 246 135 Q267 135 290 137.5 Q313 140 333 143 Q356 146 378 150 L378 24 Q360 16 346 10.5 Q332 5 316.5 1 Q301 -3 281 -4.5 Q261 -6 232 -6 Q180 -6 140 10.5 Q100 27 73.5 55 Q47 83 33.5 121.5 Q20 160 20 203 Q20 245 34 283 Q48 321 74 349.5 Q100 378 136.5 394.5 Q173 411 217 411 Q259 411 293 397 Q327 383 351 358 Q375 333 388 298.5 Q401 264 401 223 L401 173 Z M258 249 Q253 272 241.5 278.5 Q230 285 217 285 Q206 285 194 278.5 Q182 272 176 249 L258 249 Z M67 647 L239 647 L319 462 L171 462 L67 647 Z " />
<glyph glyph-name="eacute" unicode="&#xe9;" horiz-adv-x="426" d="M401 173 L177 173 Q178 154 196.5 144.5 Q215 135 246 135 Q267 135 290 137.5 Q313 140 333 143 Q356 146 378 150 L378 24 Q360 16 346 10.5 Q332 5 316.5 1 Q301 -3 281 -4.5 Q261 -6 232 -6 Q180 -6 140 10.5 Q100 27 73.5 55 Q47 83 33.5 121.5 Q20 160 20 203 Q20 245 34 283 Q48 321 74 349.5 Q100 378 136.5 394.5 Q173 411 217 411 Q259 411 293 397 Q327 383 351 358 Q375 333 388 298.5 Q401 264 401 223 L401 173 Z M258 249 Q253 272 241.5 278.5 Q230 285 217 285 Q206 285 194 278.5 Q182 272 176 249 L258 249 Z M271 462 L123 462 L203 647 L375 647 L271 462 Z " />
<glyph glyph-name="ecircumflex" unicode="&#xea;" horiz-adv-x="426" d="M401 173 L177 173 Q178 154 196.5 144.5 Q215 135 246 135 Q267 135 290 137.5 Q313 140 333 143 Q356 146 378 150 L378 24 Q360 16 346 10.5 Q332 5 316.5 1 Q301 -3 281 -4.5 Q261 -6 232 -6 Q180 -6 140 10.5 Q100 27 73.5 55 Q47 83 33.5 121.5 Q20 160 20 203 Q20 245 34 283 Q48 321 74 349.5 Q100 378 136.5 394.5 Q173 411 217 411 Q259 411 293 397 Q327 383 351 358 Q375 333 388 298.5 Q401 264 401 223 L401 173 Z M258 249 Q253 272 241.5 278.5 Q230 285 217 285 Q206 285 194 278.5 Q182 272 176 249 L258 249 Z M278 670 L387 462 L246 462 L219 520 L192 462 L51 462 L159 670 L278 670 Z " />
<glyph glyph-name="edieresis" unicode="&#xeb;" horiz-adv-x="426" d="M401 173 L177 173 Q178 154 196.5 144.5 Q215 135 246 135 Q267 135 290 137.5 Q313 140 333 143 Q356 146 378 150 L378 24 Q360 16 346 10.5 Q332 5 316.5 1 Q301 -3 281 -4.5 Q261 -6 232 -6 Q180 -6 140 10.5 Q100 27 73.5 55 Q47 83 33.5 121.5 Q20 160 20 203 Q20 245 34 283 Q48 321 74 349.5 Q100 378 136.5 394.5 Q173 411 217 411 Q259 411 293 397 Q327 383 351 358 Q375 333 388 298.5 Q401 264 401 223 L401 173 Z M258 249 Q253 272 241.5 278.5 Q230 285 217 285 Q206 285 194 278.5 Q182 272 176 249 L258 249 Z M33 610 L196 610 L196 462 L33 462 L33 610 Z M227 610 L390 610 L390 462 L227 462 L227 610 Z " />
<glyph glyph-name="igrave" unicode="&#xec;" horiz-adv-x="237" d="M40 405 L197 405 L197 0 L40 0 L40 405 Z M-58 647 L114 647 L194 462 L46 462 L-58 647 Z " />
<glyph glyph-name="iacute" unicode="&#xed;" horiz-adv-x="237" d="M197 0 L40 0 L40 405 L197 405 L197 0 Z M191 462 L43 462 L123 647 L295 647 L191 462 Z " />
<glyph glyph-name="icircumflex" unicode="&#xee;" horiz-adv-x="237" d="M40 405 L197 405 L197 0 L40 0 L40 405 Z M177 670 L286 462 L145 462 L118 520 L91 462 L-50 462 L58 670 L177 670 Z " />
<glyph glyph-name="idieresis" unicode="&#xef;" horiz-adv-x="237" d="M40 405 L197 405 L197 0 L40 0 L40 405 Z M-60 610 L103 610 L103 462 L-60 462 L-60 610 Z M134 610 L297 610 L297 462 L134 462 L134 610 Z " />
<glyph glyph-name="eth" unicode="&#xf0;" horiz-adv-x="494" d="M223 385 Q237 385 260.5 382 Q284 379 304 371 Q302 397 299 418 Q296 439 290 453 L244 399 L142 481 L165 510 Q145 509 127 507 Q109 505 95 503 Q79 500 65 497 L65 612 Q80 624 123.5 634.5 Q167 645 227 645 Q241 645 253 644 Q265 643 276 641 Q287 654 300 670 Q313 686 322 699 L424 612 L393 576 Q428 536 443.5 472.5 Q459 409 459 316 L459 192 Q459 129 435 90 Q411 51 377 29.5 Q343 8 306 1 Q269 -6 242 -6 L235 -6 Q209 -6 172 1 Q135 8 101.5 29.5 Q68 51 44 90 Q20 129 20 193 Q20 248 40 284.5 Q60 321 90 343.5 Q120 366 155.5 375.5 Q191 385 223 385 Z M238 148 Q246 148 256.5 149.5 Q267 151 277.5 155.5 Q288 160 295 169 Q302 178 302 192 Q302 206 295 214 Q288 222 278 225.5 Q268 229 257 230 Q246 231 238 231 Q230 231 219.5 230 Q209 229 199.5 225.5 Q190 222 183.5 214 Q177 206 177 192 Q177 177 183.5 168.5 Q190 160 200 155.5 Q210 151 220.5 149.5 Q231 148 238 148 Z " />
<glyph glyph-name="ntilde" unicode="&#xf1;" horiz-adv-x="442" d="M35 0 L35 405 L184 405 L186 379 Q207 398 234 404.5 Q261 411 278 411 Q308 411 332.5 400 Q357 389 374.5 370.5 Q392 352 402 326.5 Q412 301 412 271 L412 0 L255 0 L255 241 Q255 250 248 253.5 Q241 257 235 257 Q227 257 219.5 253.5 Q212 250 206 246 Q199 241 192 235 L192 0 L35 0 Z M388 520 Q358 495 327.5 478.5 Q297 462 268 462 Q254 462 241.5 467 Q229 472 217 477.5 Q205 483 193 488 Q181 493 168 493 Q159 493 147.5 487.5 Q136 482 115 465 L57 584 Q87 609 114 623 Q141 637 168 637 Q182 637 195 632 Q208 627 220 621.5 Q232 616 244 611 Q256 606 269 606 Q288 606 329 638 L388 520 Z " />
<glyph glyph-name="ograve" unicode="&#xf2;" horiz-adv-x="442" d="M218 -6 Q191 -6 156.5 3.5 Q122 13 91.5 37 Q61 61 40.5 102 Q20 143 20 207 Q20 261 39.5 299.5 Q59 338 89 363 Q119 388 154.5 399.5 Q190 411 222 411 Q254 411 289 399.5 Q324 388 353.5 363 Q383 338 402.5 299.5 Q422 261 422 207 Q422 143 401.5 102 Q381 61 350.5 37 Q320 13 285.5 3.5 Q251 -6 224 -6 L218 -6 Z M222 148 Q228 148 235.5 150 Q243 152 249.5 158 Q256 164 260.5 175 Q265 186 265 204 Q265 233 250.5 245 Q236 257 222 257 Q208 257 192.5 245 Q177 233 177 204 Q177 186 181.5 175 Q186 164 193 158 Q200 152 207.5 150 Q215 148 222 148 Z M53 647 L225 647 L305 462 L157 462 L53 647 Z " />
<glyph glyph-name="oacute" unicode="&#xf3;" horiz-adv-x="442" d="M218 -6 Q191 -6 156.5 3.5 Q122 13 91.5 37 Q61 61 40.5 102 Q20 143 20 207 Q20 261 39.5 299.5 Q59 338 88.5 363 Q118 388 153.5 399.5 Q189 411 220 411 Q252 411 287.5 399.5 Q323 388 353 363 Q383 338 402.5 299.5 Q422 261 422 207 Q422 143 401.5 102 Q381 61 350.5 37 Q320 13 285.5 3.5 Q251 -6 224 -6 L218 -6 Z M220 148 Q227 148 235 150 Q243 152 249.5 158 Q256 164 260.5 175 Q265 186 265 204 Q265 233 249.5 245 Q234 257 220 257 Q206 257 191.5 245 Q177 233 177 204 Q177 186 181.5 175 Q186 164 192.5 158 Q199 152 206.5 150 Q214 148 220 148 Z M285 462 L137 462 L217 647 L389 647 L285 462 Z " />
<glyph glyph-name="ocircumflex" unicode="&#xf4;" horiz-adv-x="442" d="M218 -6 Q191 -6 156.5 3.5 Q122 13 91.5 37 Q61 61 40.5 102 Q20 143 20 207 Q20 261 39.5 299.5 Q59 338 89 363 Q119 388 154.5 399.5 Q190 411 222 411 Q254 411 289 399.5 Q324 388 353.5 363 Q383 338 402.5 299.5 Q422 261 422 207 Q422 143 401.5 102 Q381 61 350.5 37 Q320 13 285.5 3.5 Q251 -6 224 -6 L218 -6 Z M222 148 Q228 148 235.5 150 Q243 152 249.5 158 Q256 164 260.5 175 Q265 186 265 204 Q265 233 250.5 245 Q236 257 222 257 Q208 257 192.5 245 Q177 233 177 204 Q177 186 181.5 175 Q186 164 193 158 Q200 152 207.5 150 Q215 148 222 148 Z M281 670 L390 462 L249 462 L222 520 L195 462 L54 462 L162 670 L281 670 Z " />
<glyph glyph-name="otilde" unicode="&#xf5;" horiz-adv-x="442" d="M218 -6 Q191 -6 156.5 3.5 Q122 13 91.5 37 Q61 61 40.5 102 Q20 143 20 207 Q20 261 39.5 299.5 Q59 338 89 363 Q119 388 154.5 399.5 Q190 411 222 411 Q254 411 289 399.5 Q324 388 353.5 363 Q383 338 402.5 299.5 Q422 261 422 207 Q422 143 401.5 102 Q381 61 350.5 37 Q320 13 285.5 3.5 Q251 -6 224 -6 L218 -6 Z M222 148 Q228 148 235.5 150 Q243 152 249.5 158 Q256 164 260.5 175 Q265 186 265 204 Q265 233 250.5 245 Q236 257 222 257 Q208 257 192.5 245 Q177 233 177 204 Q177 186 181.5 175 Q186 164 193 158 Q200 152 207.5 150 Q215 148 222 148 Z M387 520 Q357 495 326.5 478.5 Q296 462 267 462 Q253 462 240.5 467 Q228 472 216 477.5 Q204 483 192 488 Q180 493 167 493 Q158 493 146.5 487.5 Q135 482 114 465 L56 584 Q86 609 113 623 Q140 637 167 637 Q181 637 194 632 Q207 627 219 621.5 Q231 616 243 611 Q255 606 268 606 Q287 606 328 638 L387 520 Z " />
<glyph glyph-name="odieresis" unicode="&#xf6;" horiz-adv-x="442" d="M218 -6 Q191 -6 156.5 3.5 Q122 13 91.5 37 Q61 61 40.5 102 Q20 143 20 207 Q20 261 39.5 299.5 Q59 338 89 363 Q119 388 154.5 399.5 Q190 411 222 411 Q254 411 289 399.5 Q324 388 353.5 363 Q383 338 402.5 299.5 Q422 261 422 207 Q422 143 401.5 102 Q381 61 350.5 37 Q320 13 285.5 3.5 Q251 -6 224 -6 L218 -6 Z M222 148 Q228 148 235.5 150 Q243 152 249.5 158 Q256 164 260.5 175 Q265 186 265 204 Q265 233 250.5 245 Q236 257 222 257 Q208 257 192.5 245 Q177 233 177 204 Q177 186 181.5 175 Q186 164 193 158 Q200 152 207.5 150 Q215 148 222 148 Z M44 610 L207 610 L207 462 L44 462 L44 610 Z M238 610 L401 610 L401 462 L238 462 L238 610 Z " />
<glyph glyph-name="divide" unicode="&#xf7;" horiz-adv-x="434" d="M40 184 L40 328 L394 328 L394 184 L40 184 Z M136 436 Q136 471 159 495 Q182 519 217 519 Q253 519 276.5 495 Q300 471 300 436 Q300 401 276.5 377.5 Q253 354 217 354 Q182 354 159 377.5 Q136 401 136 436 Z M136 76 Q136 111 159 134.5 Q182 158 217 158 Q253 158 276.5 134.5 Q300 111 300 76 Q300 41 276.5 17.5 Q253 -6 217 -6 Q182 -6 159 17.5 Q136 41 136 76 Z " />
<glyph glyph-name="oslash" unicode="&#xf8;" horiz-adv-x="442" d="M366 352 Q391 327 406.5 291 Q422 255 422 207 Q422 143 401.5 102 Q381 61 350.5 37 Q320 13 285.5 3.5 Q251 -6 224 -6 L222 -6 L195 -71 L24 -71 L72 55 Q49 79 34.5 116 Q20 153 20 207 Q20 260 39 298 Q58 336 87 361 Q116 386 150.5 398 Q185 410 217 411 L246 487 L417 487 L366 352 Z M222 148 Q228 148 235.5 150 Q243 152 249.5 158 Q256 164 260.5 175 Q265 186 265 204 Q265 233 250.5 245 Q236 257 222 257 Q208 257 192.5 245 Q177 233 177 204 Q177 186 181.5 175 Q186 164 193 158 Q200 152 207.5 150 Q215 148 222 148 Z " />
<glyph glyph-name="ugrave" unicode="&#xf9;" horiz-adv-x="442" d="M407 405 L407 0 L258 0 L256 26 Q235 7 208 0.5 Q181 -6 164 -6 Q134 -6 109.5 5 Q85 16 67.5 34.5 Q50 53 40 78.5 Q30 104 30 134 L30 405 L187 405 L187 168 Q187 156 196 152 Q205 148 211 148 Q224 148 231.5 151.5 Q239 155 243 159 Q248 164 250 170 L250 405 L407 405 Z M41 647 L213 647 L293 462 L145 462 L41 647 Z " />
<glyph glyph-name="uacute" unicode="&#xfa;" horiz-adv-x="442" d="M407 405 L407 0 L258 0 L256 26 Q235 7 208 0.5 Q181 -6 164 -6 Q134 -6 109.5 5 Q85 16 67.5 34.5 Q50 53 40 78.5 Q30 104 30 134 L30 405 L187 405 L187 168 Q187 156 196 152 Q205 148 211 148 Q224 148 231.5 151.5 Q239 155 243 159 Q248 164 250 170 L250 405 L407 405 Z M288 462 L140 462 L220 647 L392 647 L288 462 Z " />
<glyph glyph-name="ucircumflex" unicode="&#xfb;" horiz-adv-x="442" d="M407 405 L407 0 L258 0 L256 26 Q235 7 208 0.5 Q181 -6 164 -6 Q134 -6 109.5 5 Q85 16 67.5 34.5 Q50 53 40 78.5 Q30 104 30 134 L30 405 L187 405 L187 168 Q187 156 196 152 Q205 148 211 148 Q224 148 231.5 151.5 Q239 155 243 159 Q248 164 250 170 L250 405 L407 405 Z M278 670 L387 462 L246 462 L219 520 L192 462 L51 462 L159 670 L278 670 Z " />
<glyph glyph-name="udieresis" unicode="&#xfc;" horiz-adv-x="442" d="M407 405 L407 0 L258 0 L256 26 Q235 7 208 0.5 Q181 -6 164 -6 Q134 -6 109.5 5 Q85 16 67.5 34.5 Q50 53 40 78.5 Q30 104 30 134 L30 405 L187 405 L187 168 Q187 156 196 152 Q205 148 211 148 Q224 148 231.5 151.5 Q239 155 243 159 Q248 164 250 170 L250 405 L407 405 Z M42 610 L205 610 L205 462 L42 462 L42 610 Z M236 610 L399 610 L399 462 L236 462 L236 610 Z " />
<glyph glyph-name="yacute" unicode="&#xfd;" horiz-adv-x="436" d="M135 43 L5 405 L174 405 L222 249 L273 405 L446 405 L246 -79 Q231 -115 214 -138.5 Q197 -162 178 -175 Q159 -188 140 -193 Q121 -198 101 -198 Q80 -198 63 -195 Q46 -192 35 -189 Q21 -185 10 -180 L10 -43 Q37 -48 46.5 -49 Q56 -50 58 -50 Q60 -50 66.5 -49 Q73 -48 81.5 -45 Q90 -42 98 -36 Q106 -30 111 -19 L135 43 Z M301 462 L153 462 L233 647 L405 647 L301 462 Z " />
<glyph glyph-name="thorn" unicode="&#xfe;" horiz-adv-x="451" d="M192 -185 L35 -185 L35 590 L192 590 L192 384 Q212 398 235 404.5 Q258 411 275 411 Q305 411 333.5 399.5 Q362 388 383.5 363 Q405 338 418 300 Q431 262 431 209 Q431 147 417 105.5 Q403 64 380.5 39.5 Q358 15 330.5 4.5 Q303 -6 276 -6 Q259 -6 235.5 -3.5 Q212 -1 192 15 L192 -185 Z M192 172 Q195 166 204.5 157 Q214 148 231 148 Q235 148 242.5 150.5 Q250 153 257 160 Q264 167 269 178.5 Q274 190 274 209 Q274 223 269 232.5 Q264 242 257 247.5 Q250 253 242.5 255 Q235 257 231 257 Q223 257 216 253.5 Q209 250 204 245 Q198 240 192 233 L192 172 Z " />
<glyph glyph-name="ydieresis" unicode="&#xff;" horiz-adv-x="436" d="M135 43 L5 405 L174 405 L222 249 L273 405 L446 405 L246 -79 Q231 -115 214 -138.5 Q197 -162 178 -175 Q159 -188 140 -193 Q121 -198 101 -198 Q80 -198 63 -195 Q46 -192 35 -189 Q21 -185 10 -180 L10 -43 Q37 -48 46.5 -49 Q56 -50 58 -50 Q60 -50 66.5 -49 Q73 -48 81.5 -45 Q90 -42 98 -36 Q106 -30 111 -19 L135 43 Z M45 610 L208 610 L208 462 L45 462 L45 610 Z M239 610 L402 610 L402 462 L239 462 L239 610 Z " />
<glyph glyph-name="Amacron" unicode="&#x100;" horiz-adv-x="584" d="M367 590 L584 0 L417 0 L381 92 L201 92 L167 0 L0 0 L217 590 L366 590 L367 590 Z M328 242 L292 339 L256 242 L328 242 Z M123 657 L123 798 L459 798 L459 657 L123 657 Z " />
<glyph glyph-name="amacron" unicode="&#x101;" horiz-adv-x="429" d="M394 0 L245 0 L242 25 Q220 3 196 -1.5 Q172 -6 161 -6 Q154 -6 130 -3 Q106 0 80.5 13.5 Q55 27 35 56 Q15 85 15 137 Q15 196 52 219.5 Q89 243 155 243 Q170 243 193.5 239 Q217 235 237 225 L237 243 Q234 254 220 264 Q206 274 168 274 Q156 274 135.5 271.5 Q115 269 95 267 Q72 263 47 259 L47 389 Q73 397 105.5 404 Q138 411 197 411 Q289 411 340 362.5 Q391 314 394 230 L394 0 Z M237 147 Q234 149 224.5 151.5 Q215 154 198 154 Q183 154 177.5 147 Q172 140 172 135 Q172 128 178.5 122 Q185 116 198 116 Q206 116 213 117 Q220 118 225 119 Q231 120 237 122 L237 147 Z M44 462 L44 603 L380 603 L380 462 L44 462 Z " />
<glyph glyph-name="Abreve" unicode="&#x102;" horiz-adv-x="584" d="M218 590 L367 590 L584 0 L417 0 L383 92 L203 92 L167 0 L0 0 L217 590 L218 590 Z M328 242 L292 339 L256 242 L328 242 Z M293 657 Q262 657 232 667 Q202 677 178.5 698.5 Q155 720 140 753.5 Q125 787 123 834 L256 834 Q260 803 271.5 796 Q283 789 293 789 Q303 789 315 796 Q327 803 331 834 L465 834 Q464 786 448.5 752.5 Q433 719 409 698 Q385 677 355 667 Q325 657 293 657 Z " />
<glyph glyph-name="abreve" unicode="&#x103;" horiz-adv-x="429" d="M394 0 L245 0 L242 25 Q220 3 196 -1.5 Q172 -6 161 -6 Q154 -6 130 -3 Q106 0 80.5 13.5 Q55 27 35 56 Q15 85 15 137 Q15 196 52 219.5 Q89 243 155 243 Q170 243 193.5 239 Q217 235 237 225 L237 243 Q234 254 220 264 Q206 274 168 274 Q156 274 135.5 271.5 Q115 269 95 267 Q72 263 47 259 L47 389 Q73 397 105.5 404 Q138 411 197 411 Q289 411 340 362.5 Q391 314 394 230 L394 0 Z M237 147 Q234 149 224.5 151.5 Q215 154 198 154 Q183 154 177.5 147 Q172 140 172 135 Q172 128 178.5 122 Q185 116 198 116 Q206 116 213 117 Q220 118 225 119 Q231 120 237 122 L237 147 Z M216 462 Q185 462 155 472 Q125 482 101.5 503.5 Q78 525 63 558.5 Q48 592 46 639 L179 639 Q183 608 194.5 601 Q206 594 216 594 Q226 594 238 601 Q250 608 254 639 L388 639 Q387 591 371.5 557.5 Q356 524 332 503 Q308 482 278 472 Q248 462 216 462 Z " />
<glyph glyph-name="Aogonek" unicode="&#x104;" horiz-adv-x="584" d="M367 590 L584 0 L417 0 L381 92 L201 92 L167 0 L0 0 L217 590 L366 590 L367 590 Z M328 242 L292 339 L256 242 L328 242 Z M330 -249 L502 -249 L582 -64 L434 -64 L330 -249 Z " />
<glyph glyph-name="aogonek" unicode="&#x105;" horiz-adv-x="429" d="M394 0 L245 0 L242 25 Q220 3 196 -1.5 Q172 -6 161 -6 Q154 -6 130 -3 Q106 0 80.5 13.5 Q55 27 35 56 Q15 85 15 137 Q15 196 52 219.5 Q89 243 155 243 Q170 243 193.5 239 Q217 235 237 225 L237 243 Q234 254 220 264 Q206 274 168 274 Q156 274 135.5 271.5 Q115 269 95 267 Q72 263 47 259 L47 389 Q73 397 105.5 404 Q138 411 197 411 Q289 411 340 362.5 Q391 314 394 230 L394 0 Z M237 147 Q234 149 224.5 151.5 Q215 154 198 154 Q183 154 177.5 147 Q172 140 172 135 Q172 128 178.5 122 Q185 116 198 116 Q206 116 213 117 Q220 118 225 119 Q231 120 237 122 L237 147 Z M142 -249 L314 -249 L394 -64 L246 -64 L142 -249 Z " />
<glyph glyph-name="Cacute" unicode="&#x106;" horiz-adv-x="537" d="M310 442 Q288 442 264 435.5 Q240 429 220.5 412.5 Q201 396 188.5 368.5 Q176 341 176 299 Q176 252 190.5 222.5 Q205 193 226 176.5 Q247 160 270 154 Q293 148 310 148 Q338 148 371 157.5 Q404 167 439 196 L526 85 Q477 38 420.5 16 Q364 -6 312 -6 Q272 -6 220.5 6.5 Q169 19 123 52.5 Q77 86 46 145.5 Q15 205 15 299 Q15 380 43.5 436.5 Q72 493 115.5 528.5 Q159 564 211 580 Q263 596 311 596 Q363 596 420.5 575 Q478 554 527 507 L434 396 Q399 425 368.5 433.5 Q338 442 310 442 Z M366 657 L218 657 L298 842 L470 842 L366 657 Z " />
<glyph glyph-name="cacute" unicode="&#x107;" horiz-adv-x="402" d="M220 -6 Q193 -5 157.5 6 Q122 17 90.5 41 Q59 65 37 105.5 Q15 146 15 207 Q15 261 36 299.5 Q57 338 87.5 363 Q118 388 154 399.5 Q190 411 220 411 Q237 411 256 410 Q275 409 296.5 402.5 Q318 396 343.5 381.5 Q369 367 397 341 L332 236 Q310 249 295 256 Q280 263 268.5 266 Q257 269 249 269.5 Q241 270 233 270 Q224 270 213 267 Q202 264 192.5 257 Q183 250 177 238 Q171 226 171 208 Q171 186 177.5 171.5 Q184 157 193.5 149 Q203 141 213.5 138 Q224 135 233 135 Q249 135 269.5 139 Q290 143 331 166 L396 64 Q368 38 343 23.5 Q318 9 296 2.5 Q274 -4 255.5 -5 Q237 -6 221 -6 L220 -6 Z M273 462 L125 462 L205 647 L377 647 L273 462 Z " />
<glyph glyph-name="Ccircumflex" unicode="&#x108;" horiz-adv-x="537" d="M310 442 Q288 442 264 435.5 Q240 429 220.5 412.5 Q201 396 188.5 368.5 Q176 341 176 299 Q176 252 190.5 222.5 Q205 193 226 176.5 Q247 160 270 154 Q293 148 310 148 Q338 148 371 157.5 Q404 167 439 196 L526 85 Q477 38 420.5 16 Q364 -6 312 -6 Q272 -6 220.5 6.5 Q169 19 123 52.5 Q77 86 46 145.5 Q15 205 15 299 Q15 380 43.5 436.5 Q72 493 115.5 528.5 Q159 564 211 580 Q263 596 311 596 Q363 596 420.5 575 Q478 554 527 507 L434 396 Q399 425 368.5 433.5 Q338 442 310 442 Z M370 865 L479 657 L338 657 L311 715 L284 657 L143 657 L251 865 L370 865 Z " />
<glyph glyph-name="ccircumflex" unicode="&#x109;" horiz-adv-x="402" d="M220 -6 Q193 -5 157.5 6 Q122 17 90.5 41 Q59 65 37 105.5 Q15 146 15 207 Q15 261 36 299.5 Q57 338 87.5 363 Q118 388 154 399.5 Q190 411 220 411 Q237 411 256 410 Q275 409 296.5 402.5 Q318 396 343.5 381.5 Q369 367 397 341 L332 236 Q310 249 295 256 Q280 263 268.5 266 Q257 269 249 269.5 Q241 270 233 270 Q224 270 213 267 Q202 264 192.5 257 Q183 250 177 238 Q171 226 171 208 Q171 186 177.5 171.5 Q184 157 193.5 149 Q203 141 213.5 138 Q224 135 233 135 Q249 135 269.5 139 Q290 143 331 166 L396 64 Q368 38 343 23.5 Q318 9 296 2.5 Q274 -4 255.5 -5 Q237 -6 221 -6 L220 -6 Z M270 670 L379 462 L238 462 L211 520 L184 462 L43 462 L151 670 L270 670 Z " />
<glyph glyph-name="Cdotaccent" unicode="&#x10a;" horiz-adv-x="537" d="M310 442 Q288 442 264 435.5 Q240 429 220.5 412.5 Q201 396 188.5 368.5 Q176 341 176 299 Q176 252 190.5 222.5 Q205 193 226 176.5 Q247 160 270 154 Q293 148 310 148 Q338 148 371 157.5 Q404 167 439 196 L526 85 Q477 38 420.5 16 Q364 -6 312 -6 Q272 -6 220.5 6.5 Q169 19 123 52.5 Q77 86 46 145.5 Q15 205 15 299 Q15 380 43.5 436.5 Q72 493 115.5 528.5 Q159 564 211 580 Q263 596 311 596 Q363 596 420.5 575 Q478 554 527 507 L434 396 Q399 425 368.5 433.5 Q338 442 310 442 Z M215 657 L378 657 L378 805 L215 805 L215 657 Z " />
<glyph glyph-name="cdotaccent" unicode="&#x10b;" horiz-adv-x="402" d="M220 -6 Q193 -5 157.5 6 Q122 17 90.5 41 Q59 65 37 105.5 Q15 146 15 207 Q15 261 36 299.5 Q57 338 87.5 363 Q118 388 154 399.5 Q190 411 220 411 Q237 411 256 410 Q275 409 296.5 402.5 Q318 396 343.5 381.5 Q369 367 397 341 L332 236 Q310 249 295 256 Q280 263 268.5 266 Q257 269 249 269.5 Q241 270 233 270 Q224 270 213 267 Q202 264 192.5 257 Q183 250 177 238 Q171 226 171 208 Q171 186 177.5 171.5 Q184 157 193.5 149 Q203 141 213.5 138 Q224 135 233 135 Q249 135 269.5 139 Q290 143 331 166 L396 64 Q368 38 343 23.5 Q318 9 296 2.5 Q274 -4 255.5 -5 Q237 -6 221 -6 L220 -6 Z M133 462 L296 462 L296 610 L133 610 L133 462 Z " />
<glyph glyph-name="Ccaron" unicode="&#x10c;" horiz-adv-x="537" d="M310 442 Q288 442 264 435.5 Q240 429 220.5 412.5 Q201 396 188.5 368.5 Q176 341 176 299 Q176 252 190.5 222.5 Q205 193 226 176.5 Q247 160 270 154 Q293 148 310 148 Q338 148 371 157.5 Q404 167 439 196 L526 85 Q477 38 420.5 16 Q364 -6 312 -6 Q272 -6 220.5 6.5 Q169 19 123 52.5 Q77 86 46 145.5 Q15 205 15 299 Q15 380 43.5 436.5 Q72 493 115.5 528.5 Q159 564 211 580 Q263 596 311 596 Q363 596 420.5 575 Q478 554 527 507 L434 396 Q399 425 368.5 433.5 Q338 442 310 442 Z M238 657 L130 865 L271 865 L298 807 L325 865 L466 865 L357 657 L238 657 Z " />
<glyph glyph-name="ccaron" unicode="&#x10d;" horiz-adv-x="402" d="M134 462 L35 667 L185 667 L204 622 L223 667 L373 667 L274 462 L134 462 Z M220 -6 Q193 -5 157.5 6 Q122 17 90.5 41 Q59 65 37 105.5 Q15 146 15 207 Q15 261 36 299.5 Q57 338 87.5 363 Q118 388 154 399.5 Q190 411 220 411 Q237 411 256 410 Q275 409 296.5 402.5 Q318 396 343.5 381.5 Q369 367 397 341 L332 236 Q310 249 295 256 Q280 263 268.5 266 Q257 269 249 269.5 Q241 270 233 270 Q224 270 213 267 Q202 264 192.5 257 Q183 250 177 238 Q171 226 171 208 Q171 186 177.5 171.5 Q184 157 193.5 149 Q203 141 213.5 138 Q224 135 233 135 Q249 135 269.5 139 Q290 143 331 166 L396 64 Q368 38 343 23.5 Q318 9 296 2.5 Q274 -4 255.5 -5 Q237 -6 221 -6 L220 -6 Z " />
<glyph glyph-name="Dcaron" unicode="&#x10e;" horiz-adv-x="553" d="M528 301 Q528 210 500.5 152 Q473 94 432.5 60 Q392 26 344.5 13 Q297 0 257 0 L40 0 L40 590 L245 590 Q294 590 344.5 575 Q395 560 435.5 526 Q476 492 502 436.5 Q528 381 528 301 Z M248 154 Q267 154 288.5 159 Q310 164 328.5 179 Q347 194 359 222.5 Q371 251 371 298 Q371 339 360.5 365.5 Q350 392 333.5 408 Q317 424 295.5 430 Q274 436 251 436 L197 436 L197 154 L248 154 Z M189 657 L81 865 L222 865 L249 807 L276 865 L417 865 L308 657 L189 657 Z " />
<glyph glyph-name="dcaron" unicode="&#x10f;" horiz-adv-x="697" d="M416 0 L276 0 L270 26 Q249 2 221.5 -2 Q194 -6 175 -6 Q148 -6 120.5 4.5 Q93 15 70.5 39.5 Q48 64 34 105.5 Q20 147 20 209 Q20 262 33 300 Q46 338 67.5 363 Q89 388 117.5 399.5 Q146 411 176 411 Q193 411 216 408 Q239 405 259 392 L259 590 L416 590 L416 0 Z M259 233 Q253 240 247 245 Q241 250 234.5 253.5 Q228 257 220 257 Q216 257 208.5 255 Q201 253 194 247.5 Q187 242 182 232.5 Q177 223 177 209 Q177 190 182 178.5 Q187 167 194 160 Q201 153 208.5 150.5 Q216 148 220 148 Q237 148 246.5 157 Q256 166 259 172 L259 233 Z M702 590 L530 590 L450 405 L598 405 L702 590 Z " />
<glyph glyph-name="Dcroat" unicode="&#x110;" horiz-adv-x="592" d="M567 301 Q567 210 539.5 152 Q512 94 471.5 60 Q431 26 383.5 13 Q336 0 296 0 L79 0 L79 219 L0 219 L0 363 L79 363 L79 590 L284 590 Q333 590 383.5 575 Q434 560 474.5 526 Q515 492 541 436.5 Q567 381 567 301 Z M236 219 L236 154 L287 154 Q306 154 327.5 159 Q349 164 367.5 179 Q386 194 398 222.5 Q410 251 410 298 Q410 339 399.5 365.5 Q389 392 372.5 408 Q356 424 334.5 430 Q313 436 290 436 L236 436 L236 363 L344 363 L344 219 L236 219 Z " />
<glyph glyph-name="dcroat" unicode="&#x111;" horiz-adv-x="451" d="M259 233 Q253 240 247 245 Q241 250 234.5 253.5 Q228 257 220 257 Q216 257 208.5 255 Q201 253 194 247.5 Q187 242 182 232.5 Q177 223 177 209 Q177 190 182 178.5 Q187 167 194 160 Q201 153 208.5 150.5 Q216 148 220 148 Q237 148 246.5 157 Q256 166 259 172 L259 233 Z M416 0 L276 0 L270 26 Q249 2 221.5 -2 Q194 -6 175 -6 Q148 -6 120.5 4.5 Q93 15 70.5 39.5 Q48 64 34 105.5 Q20 147 20 209 Q20 262 33 300 Q46 338 67.5 363 Q89 388 117.5 399.5 Q146 411 176 411 Q193 411 216 408 Q239 405 259 392 L259 438 L197 438 L197 556 L259 556 L259 590 L416 590 L416 556 L476 556 L476 438 L416 438 L416 0 Z " />
<glyph glyph-name="Emacron" unicode="&#x112;" horiz-adv-x="489" d="M72 657 L72 800 L426 800 L426 657 L72 657 Z M197 436 L197 367 L413 367 L413 213 L197 213 L197 154 L459 154 L459 0 L40 0 L40 590 L459 590 L459 436 L197 436 Z " />
<glyph glyph-name="emacron" unicode="&#x113;" horiz-adv-x="426" d="M401 173 L177 173 Q178 154 196.5 144.5 Q215 135 246 135 Q267 135 290 137.5 Q313 140 333 143 Q356 146 378 150 L378 24 Q360 16 346 10.5 Q332 5 316.5 1 Q301 -3 281 -4.5 Q261 -6 232 -6 Q180 -6 140 10.5 Q100 27 73.5 55 Q47 83 33.5 121.5 Q20 160 20 203 Q20 245 34 283 Q48 321 74 349.5 Q100 378 136.5 394.5 Q173 411 217 411 Q259 411 293 397 Q327 383 351 358 Q375 333 388 298.5 Q401 264 401 223 L401 173 Z M258 249 Q253 272 241.5 278.5 Q230 285 217 285 Q206 285 194 278.5 Q182 272 176 249 L258 249 Z M44 462 L44 603 L380 603 L380 462 L44 462 Z " />
<glyph glyph-name="Edotaccent" unicode="&#x116;" horiz-adv-x="489" d="M197 436 L197 367 L413 367 L413 213 L197 213 L197 154 L459 154 L459 0 L40 0 L40 590 L459 590 L459 436 L197 436 Z M165 805 L328 805 L328 657 L165 657 L165 805 Z " />
<glyph glyph-name="edotaccent" unicode="&#x117;" horiz-adv-x="426" d="M401 173 L177 173 Q178 154 196.5 144.5 Q215 135 246 135 Q267 135 290 137.5 Q313 140 333 143 Q356 146 378 150 L378 24 Q360 16 346 10.5 Q332 5 316.5 1 Q301 -3 281 -4.5 Q261 -6 232 -6 Q180 -6 140 10.5 Q100 27 73.5 55 Q47 83 33.5 121.5 Q20 160 20 203 Q20 245 34 283 Q48 321 74 349.5 Q100 378 136.5 394.5 Q173 411 217 411 Q259 411 293 397 Q327 383 351 358 Q375 333 388 298.5 Q401 264 401 223 L401 173 Z M258 249 Q253 272 241.5 278.5 Q230 285 217 285 Q206 285 194 278.5 Q182 272 176 249 L258 249 Z M133 610 L296 610 L296 462 L133 462 L133 610 Z " />
<glyph glyph-name="Eogonek" unicode="&#x118;" horiz-adv-x="489" d="M197 436 L197 367 L413 367 L413 213 L197 213 L197 154 L459 154 L459 0 L40 0 L40 590 L459 590 L459 436 L197 436 Z M206 -249 L378 -249 L458 -64 L310 -64 L206 -249 Z " />
<glyph glyph-name="eogonek" unicode="&#x119;" horiz-adv-x="426" d="M401 173 L177 173 Q178 154 196.5 144.5 Q215 135 246 135 Q267 135 290 137.5 Q313 140 333 143 Q356 146 378 150 L378 24 Q360 16 346 10.5 Q332 5 316.5 1 Q301 -3 281 -4.5 Q261 -6 232 -6 Q180 -6 140 10.5 Q100 27 73.5 55 Q47 83 33.5 121.5 Q20 160 20 203 Q20 245 34 283 Q48 321 74 349.5 Q100 378 136.5 394.5 Q173 411 217 411 Q259 411 293 397 Q327 383 351 358 Q375 333 388 298.5 Q401 264 401 223 L401 173 Z M258 249 Q253 272 241.5 278.5 Q230 285 217 285 Q206 285 194 278.5 Q182 272 176 249 L258 249 Z M49 -249 L221 -249 L301 -64 L153 -64 L49 -249 Z " />
<glyph glyph-name="Ecaron" unicode="&#x11a;" horiz-adv-x="489" d="M197 436 L197 367 L413 367 L413 213 L197 213 L197 154 L459 154 L459 0 L40 0 L40 590 L459 590 L459 436 L197 436 Z M190 657 L82 865 L223 865 L250 807 L277 865 L418 865 L309 657 L190 657 Z " />
<glyph glyph-name="ecaron" unicode="&#x11b;" horiz-adv-x="426" d="M401 173 L177 173 Q178 154 196.5 144.5 Q215 135 246 135 Q267 135 290 137.5 Q313 140 333 143 Q356 146 378 150 L378 24 Q360 16 346 10.5 Q332 5 316.5 1 Q301 -3 281 -4.5 Q261 -6 232 -6 Q180 -6 140 10.5 Q100 27 73.5 55 Q47 83 33.5 121.5 Q20 160 20 203 Q20 245 34 283 Q48 321 74 349.5 Q100 378 136.5 394.5 Q173 411 217 411 Q259 411 293 397 Q327 383 351 358 Q375 333 388 298.5 Q401 264 401 223 L401 173 Z M258 249 Q253 272 241.5 278.5 Q230 285 217 285 Q206 285 194 278.5 Q182 272 176 249 L258 249 Z M156 462 L48 670 L189 670 L216 612 L243 670 L384 670 L275 462 L156 462 Z " />
<glyph glyph-name="Gcircumflex" unicode="&#x11c;" horiz-adv-x="572" d="M310 442 Q288 442 264 435.5 Q240 429 220.5 412.5 Q201 396 188.5 368.5 Q176 341 176 299 Q176 252 190.5 222.5 Q205 193 226 176.5 Q247 160 270 154 Q293 148 310 148 Q324 148 338.5 150 Q353 152 369 157 L369 199 L288 199 L288 353 L526 353 L526 85 Q506 60 480 42.5 Q454 25 425 14 Q396 3 367 -1.5 Q338 -6 312 -6 Q272 -6 220.5 6.5 Q169 19 123 52.5 Q77 86 46 145.5 Q15 205 15 299 Q15 380 43.5 436.5 Q72 493 115.5 528.5 Q159 564 211 580 Q263 596 311 596 Q363 596 420.5 575 Q478 554 527 507 L434 396 Q399 425 368.5 433.5 Q338 442 310 442 Z M371 865 L480 657 L339 657 L312 715 L285 657 L144 657 L252 865 L371 865 Z " />
<glyph glyph-name="gcircumflex" unicode="&#x11d;" horiz-adv-x="456" d="M421 4 Q421 -58 398 -97 Q375 -136 342.5 -158.5 Q310 -181 274 -189.5 Q238 -198 212 -198 Q165 -198 120.5 -187 Q76 -176 43 -147 L90 -25 Q126 -46 160 -50.5 Q194 -55 208 -55 Q215 -55 224.5 -54 Q234 -53 243 -48.5 Q252 -44 258 -34.5 Q264 -25 264 -8 L264 15 Q244 -1 220.5 -3.5 Q197 -6 180 -6 Q153 -6 125.5 4.5 Q98 15 75.5 39.5 Q53 64 39 105.5 Q25 147 25 209 Q25 262 38 300 Q51 338 72.5 363 Q94 388 122.5 399.5 Q151 411 181 411 Q198 411 224 403.5 Q250 396 270 379 L272 405 L421 405 L421 4 Z M264 233 Q258 240 252 245 Q246 250 239.5 253.5 Q233 257 225 257 Q221 257 213.5 255 Q206 253 199 247.5 Q192 242 187 232.5 Q182 223 182 209 Q182 190 187 178.5 Q192 167 199 160 Q206 153 213.5 150.5 Q221 148 225 148 Q242 148 251.5 157 Q261 166 264 172 L264 233 Z M281 670 L390 462 L249 462 L222 520 L195 462 L54 462 L162 670 L281 670 Z " />
<glyph glyph-name="Gbreve" unicode="&#x11e;" horiz-adv-x="572" d="M310 442 Q288 442 264 435.5 Q240 429 220.5 412.5 Q201 396 188.5 368.5 Q176 341 176 299 Q176 252 190.5 222.5 Q205 193 226 176.5 Q247 160 270 154 Q293 148 310 148 Q324 148 338.5 150 Q353 152 369 157 L369 199 L288 199 L288 353 L526 353 L526 85 Q506 60 480 42.5 Q454 25 425 14 Q396 3 367 -1.5 Q338 -6 312 -6 Q272 -6 220.5 6.5 Q169 19 123 52.5 Q77 86 46 145.5 Q15 205 15 299 Q15 380 43.5 436.5 Q72 493 115.5 528.5 Q159 564 211 580 Q263 596 311 596 Q363 596 420.5 575 Q478 554 527 507 L434 396 Q399 425 368.5 433.5 Q338 442 310 442 Z M309 657 Q341 657 371 667 Q401 677 425 698 Q449 719 464.5 752.5 Q480 786 481 834 L347 834 Q343 803 331 796 Q319 789 309 789 Q299 789 287.5 796 Q276 803 272 834 L139 834 Q141 787 156 753.5 Q171 720 194.5 698.5 Q218 677 248 667 Q278 657 309 657 Z " />
<glyph glyph-name="gbreve" unicode="&#x11f;" horiz-adv-x="456" d="M421 4 Q421 -58 398 -97 Q375 -136 342.5 -158.5 Q310 -181 274 -189.5 Q238 -198 212 -198 Q165 -198 120.5 -187 Q76 -176 43 -147 L90 -25 Q126 -46 160 -50.5 Q194 -55 208 -55 Q215 -55 224.5 -54 Q234 -53 243 -48.5 Q252 -44 258 -34.5 Q264 -25 264 -8 L264 15 Q244 -1 220.5 -3.5 Q197 -6 180 -6 Q153 -6 125.5 4.5 Q98 15 75.5 39.5 Q53 64 39 105.5 Q25 147 25 209 Q25 262 38 300 Q51 338 72.5 363 Q94 388 122.5 399.5 Q151 411 181 411 Q198 411 224 403.5 Q250 396 270 379 L272 405 L421 405 L421 4 Z M264 233 Q258 240 252 245 Q246 250 239.5 253.5 Q233 257 225 257 Q221 257 213.5 255 Q206 253 199 247.5 Q192 242 187 232.5 Q182 223 182 209 Q182 190 187 178.5 Q192 167 199 160 Q206 153 213.5 150.5 Q221 148 225 148 Q242 148 251.5 157 Q261 166 264 172 L264 233 Z M233 462 Q202 462 172 472 Q142 482 118.5 503.5 Q95 525 80 558.5 Q65 592 63 639 L196 639 Q200 608 211.5 601 Q223 594 233 594 Q243 594 255 601 Q267 608 271 639 L405 639 Q404 591 388.5 557.5 Q373 524 349 503 Q325 482 295 472 Q265 462 233 462 Z " />
<glyph glyph-name="Gdotaccent" unicode="&#x120;" horiz-adv-x="572" d="M310 442 Q288 442 264 435.5 Q240 429 220.5 412.5 Q201 396 188.5 368.5 Q176 341 176 299 Q176 252 190.5 222.5 Q205 193 226 176.5 Q247 160 270 154 Q293 148 310 148 Q324 148 338.5 150 Q353 152 369 157 L369 199 L288 199 L288 353 L526 353 L526 85 Q506 60 480 42.5 Q454 25 425 14 Q396 3 367 -1.5 Q338 -6 312 -6 Q272 -6 220.5 6.5 Q169 19 123 52.5 Q77 86 46 145.5 Q15 205 15 299 Q15 380 43.5 436.5 Q72 493 115.5 528.5 Q159 564 211 580 Q263 596 311 596 Q363 596 420.5 575 Q478 554 527 507 L434 396 Q399 425 368.5 433.5 Q338 442 310 442 Z M222 657 L385 657 L385 805 L222 805 L222 657 Z " />
<glyph glyph-name="gdotaccent" unicode="&#x121;" horiz-adv-x="456" d="M421 4 Q421 -58 398 -97 Q375 -136 342.5 -158.5 Q310 -181 274 -189.5 Q238 -198 212 -198 Q165 -198 120.5 -187 Q76 -176 43 -147 L90 -25 Q126 -46 160 -50.5 Q194 -55 208 -55 Q215 -55 224.5 -54 Q234 -53 243 -48.5 Q252 -44 258 -34.5 Q264 -25 264 -8 L264 15 Q244 -1 220.5 -3.5 Q197 -6 180 -6 Q153 -6 125.5 4.5 Q98 15 75.5 39.5 Q53 64 39 105.5 Q25 147 25 209 Q25 262 38 300 Q51 338 72.5 363 Q94 388 122.5 399.5 Q151 411 181 411 Q198 411 224 403.5 Q250 396 270 379 L272 405 L421 405 L421 4 Z M264 233 Q258 240 252 245 Q246 250 239.5 253.5 Q233 257 225 257 Q221 257 213.5 255 Q206 253 199 247.5 Q192 242 187 232.5 Q182 223 182 209 Q182 190 187 178.5 Q192 167 199 160 Q206 153 213.5 150.5 Q221 148 225 148 Q242 148 251.5 157 Q261 166 264 172 L264 233 Z M136 610 L299 610 L299 462 L136 462 L136 610 Z " />
<glyph glyph-name="uni0122" unicode="&#x122;" horiz-adv-x="572" d="M310 442 Q288 442 264 435.5 Q240 429 220.5 412.5 Q201 396 188.5 368.5 Q176 341 176 299 Q176 252 190.5 222.5 Q205 193 226 176.5 Q247 160 270 154 Q293 148 310 148 Q324 148 338.5 150 Q353 152 369 157 L369 199 L288 199 L288 353 L526 353 L526 85 Q506 60 480 42.5 Q454 25 425 14 Q396 3 367 -1.5 Q338 -6 312 -6 Q272 -6 220.5 6.5 Q169 19 123 52.5 Q77 86 46 145.5 Q15 205 15 299 Q15 380 43.5 436.5 Q72 493 115.5 528.5 Q159 564 211 580 Q263 596 311 596 Q363 596 420.5 575 Q478 554 527 507 L434 396 Q399 425 368.5 433.5 Q338 442 310 442 Z M252 -64 L400 -64 L320 -249 L148 -249 L252 -64 Z " />
<glyph glyph-name="uni0123" unicode="&#x123;" horiz-adv-x="456" d="M421 4 Q421 -58 398 -97 Q375 -136 342.5 -158.5 Q310 -181 274 -189.5 Q238 -198 212 -198 Q165 -198 120.5 -187 Q76 -176 43 -147 L90 -25 Q126 -46 160 -50.5 Q194 -55 208 -55 Q215 -55 224.5 -54 Q234 -53 243 -48.5 Q252 -44 258 -34.5 Q264 -25 264 -8 L264 15 Q244 -1 220.5 -3.5 Q197 -6 180 -6 Q153 -6 125.5 4.5 Q98 15 75.5 39.5 Q53 64 39 105.5 Q25 147 25 209 Q25 262 38 300 Q51 338 72.5 363 Q94 388 122.5 399.5 Q151 411 181 411 Q198 411 224 403.5 Q250 396 270 379 L272 405 L421 405 L421 4 Z M264 233 Q258 240 252 245 Q246 250 239.5 253.5 Q233 257 225 257 Q221 257 213.5 255 Q206 253 199 247.5 Q192 242 187 232.5 Q182 223 182 209 Q182 190 187 178.5 Q192 167 199 160 Q206 153 213.5 150.5 Q221 148 225 148 Q242 148 251.5 157 Q261 166 264 172 L264 233 Z M283 462 L135 462 L215 647 L387 647 L283 462 Z " />
<glyph glyph-name="Hcircumflex" unicode="&#x124;" horiz-adv-x="568" d="M528 590 L528 0 L371 0 L371 206 L197 206 L197 0 L40 0 L40 590 L197 590 L197 361 L371 361 L371 590 L528 590 Z M343 865 L452 657 L311 657 L284 715 L257 657 L116 657 L224 865 L343 865 Z " />
<glyph glyph-name="hcircumflex" unicode="&#x125;" horiz-adv-x="443" d="M36 0 L36 590 L193 590 L193 384 Q213 400 237.5 405.5 Q262 411 279 411 Q309 411 333.5 400 Q358 389 375.5 370.5 Q393 352 403 326.5 Q413 301 413 271 L413 0 L256 0 L256 241 Q256 250 249 253.5 Q242 257 236 257 Q228 257 220.5 253.5 Q213 250 207 246 Q200 241 193 235 L193 0 L36 0 Z M262 865 L371 657 L230 657 L203 715 L176 657 L35 657 L143 865 L262 865 Z " />
<glyph glyph-name="Hbar" unicode="&#x126;" horiz-adv-x="588" d="M538 397 L538 0 L381 0 L381 206 L207 206 L207 0 L50 0 L50 397 L-10 397 L-10 539 L50 539 L50 590 L207 590 L207 539 L381 539 L381 590 L538 590 L538 539 L598 539 L598 397 L538 397 Z M381 361 L381 397 L207 397 L207 361 L381 361 Z " />
<glyph glyph-name="hbar" unicode="&#x127;" horiz-adv-x="442" d="M-25 438 L-25 556 L35 556 L35 590 L192 590 L192 556 L254 556 L254 438 L192 438 L192 384 Q212 400 236.5 405.5 Q261 411 278 411 Q308 411 332.5 400 Q357 389 374.5 370.5 Q392 352 402 326.5 Q412 301 412 271 L412 0 L255 0 L255 241 Q255 250 248 253.5 Q241 257 235 257 Q227 257 219.5 253.5 Q212 250 206 246 Q199 241 192 235 L192 0 L35 0 L35 438 L-25 438 Z " />
<glyph glyph-name="Itilde" unicode="&#x128;" horiz-adv-x="237" d="M285 715 Q255 690 224.5 673.5 Q194 657 165 657 Q151 657 138.5 662 Q126 667 114 672.5 Q102 678 90 683 Q78 688 65 688 Q56 688 44.5 682.5 Q33 677 12 660 L-46 779 Q-16 804 11 818 Q38 832 65 832 Q79 832 92 827 Q105 822 117 816.5 Q129 811 141 806 Q153 801 166 801 Q185 801 226 833 L285 715 Z M40 590 L197 590 L197 0 L40 0 L40 590 Z " />
<glyph glyph-name="itilde" unicode="&#x129;" horiz-adv-x="237" d="M40 405 L197 405 L197 0 L40 0 L40 405 Z M285 520 Q255 495 224.5 478.5 Q194 462 165 462 Q151 462 138.5 467 Q126 472 114 477.5 Q102 483 90 488 Q78 493 65 493 Q56 493 44.5 487.5 Q33 482 12 465 L-46 584 Q-16 609 11 623 Q38 637 65 637 Q79 637 92 632 Q105 627 117 621.5 Q129 616 141 611 Q153 606 166 606 Q185 606 226 638 L285 520 Z " />
<glyph glyph-name="Imacron" unicode="&#x12a;" horiz-adv-x="237" d="M40 590 L197 590 L197 0 L40 0 L40 590 Z M-9 657 L-9 798 L245 798 L245 657 L-9 657 Z " />
<glyph glyph-name="imacron" unicode="&#x12b;" horiz-adv-x="237" d="M40 405 L197 405 L197 0 L40 0 L40 405 Z M-9 462 L-9 603 L245 603 L245 462 L-9 462 Z " />
<glyph glyph-name="Iogonek" unicode="&#x12e;" horiz-adv-x="237" d="M197 0 L40 0 L40 590 L197 590 L197 0 Z M-55 -249 L117 -249 L197 -64 L49 -64 L-55 -249 Z " />
<glyph glyph-name="iogonek" unicode="&#x12f;" horiz-adv-x="237" d="M40 405 L197 405 L197 0 L40 0 L40 405 Z M40 582 L197 582 L197 439 L40 439 L40 582 Z M-56 -249 L116 -249 L196 -64 L48 -64 L-56 -249 Z " />
<glyph glyph-name="Idotaccent" unicode="&#x130;" horiz-adv-x="237" d="M40 590 L197 590 L197 0 L40 0 L40 590 Z M40 800 L197 800 L197 657 L40 657 L40 800 Z " />
<glyph glyph-name="dotlessi" unicode="&#x131;" horiz-adv-x="237" d="M40 405 L197 405 L197 0 L40 0 L40 405 Z " />
<glyph glyph-name="Jcircumflex" unicode="&#x134;" horiz-adv-x="460" d="M263 590 L420 590 L420 213 Q420 143 395.5 100.5 Q371 58 336.5 35 Q302 12 264 3.5 Q226 -5 199 -6 Q182 -6 159 -5 Q136 -4 109.5 2 Q83 8 54 21.5 Q25 35 -5 60 L67 182 Q113 156 142.5 152 Q172 148 186 148 Q194 148 207 149.5 Q220 151 232.5 157 Q245 163 254 175.5 Q263 188 263 210 L263 590 Z M311 865 L420 657 L279 657 L252 715 L225 657 L84 657 L192 865 L311 865 Z " />
<glyph glyph-name="jcircumflex" unicode="&#x135;" horiz-adv-x="237" d="M40 405 L197 405 L197 -48 Q197 -69 192.5 -95.5 Q188 -122 172 -144.5 Q156 -167 126 -182.5 Q96 -198 45 -198 Q15 -198 -4.5 -195 Q-24 -192 -37 -187 Q-50 -182 -58.5 -176 Q-67 -170 -74 -164 L-74 -45 Q-57 -48 -41 -51 Q-27 -53 -14 -55 Q-1 -57 7 -57 Q23 -57 31.5 -49.5 Q40 -42 40 -22 L40 405 Z M177 670 L286 462 L145 462 L118 520 L91 462 L-50 462 L58 670 L177 670 Z " />
<glyph glyph-name="uni0136" unicode="&#x136;" horiz-adv-x="565" d="M577 0 L378 0 L197 242 L197 0 L40 0 L40 590 L197 590 L197 358 L382 590 L585 590 L351 298 L577 0 Z M218 -64 L366 -64 L286 -249 L114 -249 L218 -64 Z " />
<glyph glyph-name="uni0137" unicode="&#x137;" horiz-adv-x="451" d="M290 0 L192 157 L192 0 L35 0 L35 590 L192 590 L192 307 Q211 332 230.5 357 Q250 382 267 405 L464 405 L333 232 L473 0 L290 0 Z M64 -249 L236 -249 L316 -64 L168 -64 L64 -249 Z " />
<glyph glyph-name="kgreenlandic" unicode="&#x138;" horiz-adv-x="451" d="M290 0 L192 157 L192 0 L35 0 L35 405 L192 405 L192 307 Q211 332 230.5 357 Q250 382 267 405 L464 405 L333 232 L473 0 L290 0 Z " />
<glyph glyph-name="Lacute" unicode="&#x139;" horiz-adv-x="456" d="M197 154 L441 154 L441 0 L40 0 L40 590 L197 590 L197 154 Z M188 657 L40 657 L120 842 L292 842 L188 657 Z " />
<glyph glyph-name="lacute" unicode="&#x13a;" horiz-adv-x="237" d="M197 0 L40 0 L40 590 L197 590 L197 0 Z M193 657 L45 657 L125 842 L297 842 L193 657 Z " />
<glyph glyph-name="uni013B" unicode="&#x13b;" horiz-adv-x="456" d="M197 154 L441 154 L441 0 L40 0 L40 590 L197 590 L197 154 Z M88 -249 L260 -249 L340 -64 L192 -64 L88 -249 Z " />
<glyph glyph-name="uni013C" unicode="&#x13c;" horiz-adv-x="237" d="M197 0 L40 0 L40 590 L197 590 L197 0 Z M-55 -249 L117 -249 L197 -64 L49 -64 L-55 -249 Z " />
<glyph glyph-name="Lcaron" unicode="&#x13d;" horiz-adv-x="456" d="M197 154 L441 154 L441 0 L40 0 L40 590 L197 590 L197 154 Z M441 590 L281 590 L243 405 L379 405 L441 590 Z " />
<glyph glyph-name="lcaron" unicode="&#x13e;" horiz-adv-x="478" d="M40 590 L197 590 L197 0 L40 0 L40 590 Z M483 590 L311 590 L231 405 L379 405 L483 590 Z " />
<glyph glyph-name="Lslash" unicode="&#x141;" horiz-adv-x="489" d="M73 383 L73 590 L230 590 L230 434 L334 469 L334 304 L230 269 L230 154 L474 154 L474 0 L73 0 L73 218 L0 194 L0 359 L73 383 Z " />
<glyph glyph-name="lslash" unicode="&#x142;" horiz-adv-x="325" d="M235 263 L235 0 L78 0 L78 212 Q48 202 27 195.5 Q6 189 0 187 L0 348 L78 374 L78 590 L235 590 L235 426 L325 456 L325 294 L235 263 Z " />
<glyph glyph-name="Nacute" unicode="&#x143;" horiz-adv-x="587" d="M197 294 L197 0 L40 0 L40 590 L176 590 L390 293 L390 590 L547 590 L547 0 L408 0 L197 294 Z M362 657 L214 657 L294 842 L466 842 L362 657 Z " />
<glyph glyph-name="nacute" unicode="&#x144;" horiz-adv-x="442" d="M35 0 L35 405 L184 405 L186 379 Q207 398 234 404.5 Q261 411 278 411 Q308 411 332.5 400 Q357 389 374.5 370.5 Q392 352 402 326.5 Q412 301 412 271 L412 0 L255 0 L255 241 Q255 250 248 253.5 Q241 257 235 257 Q227 257 219.5 253.5 Q212 250 206 246 Q199 241 192 235 L192 0 L35 0 Z M286 462 L138 462 L218 647 L390 647 L286 462 Z " />
<glyph glyph-name="uni0145" unicode="&#x145;" horiz-adv-x="587" d="M197 294 L197 0 L40 0 L40 590 L176 590 L390 293 L390 590 L547 590 L547 0 L408 0 L197 294 Z M125 -249 L297 -249 L377 -64 L229 -64 L125 -249 Z " />
<glyph glyph-name="uni0146" unicode="&#x146;" horiz-adv-x="442" d="M35 0 L35 405 L184 405 L186 379 Q207 398 234 404.5 Q261 411 278 411 Q308 411 332.5 400 Q357 389 374.5 370.5 Q392 352 402 326.5 Q412 301 412 271 L412 0 L255 0 L255 241 Q255 250 248 253.5 Q241 257 235 257 Q227 257 219.5 253.5 Q212 250 206 246 Q199 241 192 235 L192 0 L35 0 Z M54 -249 L226 -249 L306 -64 L158 -64 L54 -249 Z " />
<glyph glyph-name="Ncaron" unicode="&#x147;" horiz-adv-x="587" d="M197 294 L197 0 L40 0 L40 590 L176 590 L390 293 L390 590 L547 590 L547 0 L408 0 L197 294 Z M234 657 L126 865 L267 865 L294 807 L321 865 L462 865 L353 657 L234 657 Z " />
<glyph glyph-name="ncaron" unicode="&#x148;" horiz-adv-x="442" d="M35 0 L35 405 L184 405 L186 379 Q207 398 234 404.5 Q261 411 278 411 Q308 411 332.5 400 Q357 389 374.5 370.5 Q392 352 402 326.5 Q412 301 412 271 L412 0 L255 0 L255 241 Q255 250 248 253.5 Q241 257 235 257 Q227 257 219.5 253.5 Q212 250 206 246 Q199 241 192 235 L192 0 L35 0 Z M166 462 L58 670 L199 670 L226 612 L253 670 L394 670 L285 462 L166 462 Z " />
<glyph glyph-name="Eng" unicode="&#x14a;" horiz-adv-x="587" d="M390 25 L197 294 L197 0 L40 0 L40 590 L176 590 L390 293 L390 590 L547 590 L547 -48 Q547 -69 542.5 -95.5 Q538 -122 522 -144.5 Q506 -167 476 -182.5 Q446 -198 395 -198 Q365 -198 345.5 -195 Q326 -192 313 -187 Q300 -182 291.5 -176 Q283 -170 276 -164 L276 -45 Q293 -48 309 -51 Q323 -53 336 -55 Q349 -57 357 -57 Q373 -57 381.5 -49.5 Q390 -42 390 -22 L390 25 Z " />
<glyph glyph-name="eng" unicode="&#x14b;" horiz-adv-x="442" d="M255 241 Q255 250 248 253.5 Q241 257 235 257 Q227 257 219.5 253.5 Q212 250 206 246 Q199 241 192 235 L192 0 L35 0 L35 405 L184 405 L186 379 Q207 398 234 404.5 Q261 411 278 411 Q308 411 332.5 400 Q357 389 374.5 370.5 Q392 352 402 326.5 Q412 301 412 271 L412 -48 Q412 -69 407.5 -95.5 Q403 -122 387 -144.5 Q371 -167 341 -182.5 Q311 -198 260 -198 Q230 -198 210.5 -195 Q191 -192 178 -187 Q165 -182 156.5 -176 Q148 -170 141 -164 L141 -45 Q158 -48 174 -51 Q188 -53 201 -55 Q214 -57 222 -57 Q238 -57 246.5 -49.5 Q255 -42 255 -22 L255 241 Z " />
<glyph glyph-name="Omacron" unicode="&#x14c;" horiz-adv-x="618" d="M308 148 L310 148 Q328 148 350 154 Q372 160 391 176.5 Q410 193 423 222.5 Q436 252 436 300 Q436 342 424.5 369.5 Q413 397 395 413 Q377 429 354 435.5 Q331 442 308 442 Q286 442 263.5 435.5 Q241 429 223 413 Q205 397 193.5 369.5 Q182 342 182 300 Q182 252 195 222.5 Q208 193 227 176.5 Q246 160 268 154 Q290 148 308 148 L310 148 L308 148 Z M308 -6 Q267 -6 217.5 7 Q168 20 125.5 54.5 Q83 89 54 149 Q25 209 25 303 Q25 384 51 439.5 Q77 495 118 530 Q159 565 209.5 580.5 Q260 596 309 596 Q358 596 408.5 580.5 Q459 565 500 530 Q541 495 567 439.5 Q593 384 593 303 Q593 209 564 149 Q535 89 492.5 54.5 Q450 20 400.5 7 Q351 -6 310 -6 L308 -6 Z M139 657 L139 798 L475 798 L475 657 L139 657 Z " />
<glyph glyph-name="omacron" unicode="&#x14d;" horiz-adv-x="442" d="M218 -6 Q191 -6 156.5 3.5 Q122 13 91.5 37 Q61 61 40.5 102 Q20 143 20 207 Q20 261 39.5 299.5 Q59 338 89 363 Q119 388 154.5 399.5 Q190 411 222 411 Q254 411 289 399.5 Q324 388 353.5 363 Q383 338 402.5 299.5 Q422 261 422 207 Q422 143 401.5 102 Q381 61 350.5 37 Q320 13 285.5 3.5 Q251 -6 224 -6 L218 -6 Z M222 148 Q228 148 235.5 150 Q243 152 249.5 158 Q256 164 260.5 175 Q265 186 265 204 Q265 233 250.5 245 Q236 257 222 257 Q208 257 192.5 245 Q177 233 177 204 Q177 186 181.5 175 Q186 164 193 158 Q200 152 207.5 150 Q215 148 222 148 Z M54 462 L54 603 L390 603 L390 462 L54 462 Z " />
<glyph glyph-name="Ohungarumlaut" unicode="&#x150;" horiz-adv-x="618" d="M308 148 L310 148 Q328 148 350 154 Q372 160 391 176.5 Q410 193 423 222.5 Q436 252 436 300 Q436 342 424.5 369.5 Q413 397 395 413 Q377 429 354 435.5 Q331 442 308 442 Q286 442 263.5 435.5 Q241 429 223 413 Q205 397 193.5 369.5 Q182 342 182 300 Q182 252 195 222.5 Q208 193 227 176.5 Q246 160 268 154 Q290 148 308 148 L310 148 L308 148 Z M308 -6 Q267 -6 217.5 7 Q168 20 125.5 54.5 Q83 89 54 149 Q25 209 25 303 Q25 384 51 439.5 Q77 495 118 530 Q159 565 209.5 580.5 Q260 596 309 596 Q358 596 408.5 580.5 Q459 565 500 530 Q541 495 567 439.5 Q593 384 593 303 Q593 209 564 149 Q535 89 492.5 54.5 Q450 20 400.5 7 Q351 -6 310 -6 L308 -6 Z M287 657 L148 657 L160 840 L316 840 L287 657 Z M468 657 L329 657 L341 840 L496 840 L468 657 Z " />
<glyph glyph-name="ohungarumlaut" unicode="&#x151;" horiz-adv-x="442" d="M201 462 L62 462 L74 645 L230 645 L201 462 Z M382 462 L243 462 L255 645 L410 645 L382 462 Z M218 -6 Q191 -6 156.5 3.5 Q122 13 91.5 37 Q61 61 40.5 102 Q20 143 20 207 Q20 261 39.5 299.5 Q59 338 89 363 Q119 388 154.5 399.5 Q190 411 222 411 Q254 411 289 399.5 Q324 388 353.5 363 Q383 338 402.5 299.5 Q422 261 422 207 Q422 143 401.5 102 Q381 61 350.5 37 Q320 13 285.5 3.5 Q251 -6 224 -6 L218 -6 Z M222 148 Q228 148 235.5 150 Q243 152 249.5 158 Q256 164 260.5 175 Q265 186 265 204 Q265 233 250.5 245 Q236 257 222 257 Q208 257 192.5 245 Q177 233 177 204 Q177 186 181.5 175 Q186 164 193 158 Q200 152 207.5 150 Q215 148 222 148 Z " />
<glyph glyph-name="OE" unicode="&#x152;" horiz-adv-x="816" d="M524 436 L524 367 L740 367 L740 213 L524 213 L524 154 L786 154 L786 0 L368 0 Q340 -6 312 -6 Q272 -6 220.5 6.5 Q169 19 123 52.5 Q77 86 46 145.5 Q15 205 15 299 Q15 380 43.5 436.5 Q72 493 115.5 528.5 Q159 564 211 580 Q263 596 311 596 Q339 596 369 590 L786 590 L786 436 L524 436 Z M310 148 Q323 148 337.5 149.5 Q352 151 367 156 L367 434 Q352 439 338 440.5 Q324 442 310 442 Q288 442 264 435.5 Q240 429 220.5 412.5 Q201 396 188.5 368.5 Q176 341 176 299 Q176 252 190.5 222.5 Q205 193 226 176.5 Q247 160 270 154 Q293 148 310 148 Z " />
<glyph glyph-name="oe" unicode="&#x153;" horiz-adv-x="671" d="M646 173 L422 173 Q423 154 441.5 144.5 Q460 135 491 135 Q512 135 535 137.5 Q558 140 578 143 Q601 146 623 150 L623 24 Q605 16 591 10.5 Q577 5 561.5 1 Q546 -3 526 -4.5 Q506 -6 477 -6 Q435 -6 402.5 4 Q370 14 344 32 Q315 10 282.5 2 Q250 -6 224 -6 L218 -6 Q191 -6 156.5 3.5 Q122 13 91.5 37 Q61 61 40.5 102 Q20 143 20 207 Q20 261 39.5 299.5 Q59 338 89 363 Q119 388 154.5 399.5 Q190 411 222 411 Q251 411 282.5 401 Q314 391 343 371 Q367 390 397 400.5 Q427 411 462 411 Q504 411 538 397 Q572 383 596 358 Q620 333 633 298.5 Q646 264 646 223 L646 173 Z M222 148 Q234 148 248.5 156.5 Q263 165 265 197 L265 203 L265 204 L265 209 Q263 235 249 246 Q235 257 222 257 Q208 257 192.5 245 Q177 233 177 204 Q177 186 181.5 175 Q186 164 193 158 Q200 152 207.5 150 Q215 148 222 148 Z M503 249 Q498 272 486.5 278.5 Q475 285 462 285 Q451 285 439 278.5 Q427 272 421 249 L503 249 Z " />
<glyph glyph-name="Racute" unicode="&#x154;" horiz-adv-x="537" d="M501 386 Q501 341 483 303 Q465 265 430 245 Q446 225 456.5 200 Q467 175 475 150 L525 0 L359 0 L321 117 Q310 153 297.5 165 Q285 177 271 177 L197 177 L197 0 L40 0 L40 590 L301 590 Q334 590 369 579 Q404 568 433.5 543.5 Q463 519 482 480.5 Q501 442 501 386 Z M299 332 Q306 332 314 333 Q322 334 328.5 339.5 Q335 345 339.5 355 Q344 365 344 383 Q344 414 328.5 424.5 Q313 435 299 435 L197 435 L197 332 L299 332 Z M304 657 L156 657 L236 842 L408 842 L304 657 Z " />
<glyph glyph-name="racute" unicode="&#x155;" horiz-adv-x="322" d="M322 245 Q293 254 276 255.5 Q259 257 253 257 Q230 257 218 251 Q206 245 201 238 Q194 230 193 219 L193 0 L36 0 L36 405 L176 405 L184 379 Q192 391 202 397.5 Q212 404 221.5 407 Q231 410 239.5 410.5 Q248 411 252 411 Q276 411 291 408 Q306 405 322 394 L322 245 Z M183 462 L35 462 L115 647 L287 647 L183 462 Z " />
<glyph glyph-name="uni0156" unicode="&#x156;" horiz-adv-x="537" d="M501 386 Q501 341 483 303 Q465 265 430 245 Q446 225 456.5 200 Q467 175 475 150 L525 0 L359 0 L321 117 Q310 153 297.5 165 Q285 177 271 177 L197 177 L197 0 L40 0 L40 590 L301 590 Q334 590 369 579 Q404 568 433.5 543.5 Q463 519 482 480.5 Q501 442 501 386 Z M299 332 Q306 332 314 333 Q322 334 328.5 339.5 Q335 345 339.5 355 Q344 365 344 383 Q344 414 328.5 424.5 Q313 435 299 435 L197 435 L197 332 L299 332 Z M108 -249 L280 -249 L360 -64 L212 -64 L108 -249 Z " />
<glyph glyph-name="uni0157" unicode="&#x157;" horiz-adv-x="322" d="M322 245 Q293 254 276 255.5 Q259 257 253 257 Q230 257 218 251 Q206 245 201 238 Q194 230 193 219 L193 0 L36 0 L36 405 L176 405 L184 379 Q192 391 202 397.5 Q212 404 221.5 407 Q231 410 239.5 410.5 Q248 411 252 411 Q276 411 291 408 Q306 405 322 394 L322 245 Z M35 -249 L207 -249 L287 -64 L139 -64 L35 -249 Z " />
<glyph glyph-name="Rcaron" unicode="&#x158;" horiz-adv-x="537" d="M501 386 Q501 341 483 303 Q465 265 430 245 Q446 225 456.5 200 Q467 175 475 150 L525 0 L359 0 L321 117 Q310 153 297.5 165 Q285 177 271 177 L197 177 L197 0 L40 0 L40 590 L301 590 Q334 590 369 579 Q404 568 433.5 543.5 Q463 519 482 480.5 Q501 442 501 386 Z M299 332 Q306 332 314 333 Q322 334 328.5 339.5 Q335 345 339.5 355 Q344 365 344 383 Q344 414 328.5 424.5 Q313 435 299 435 L197 435 L197 332 L299 332 Z M185 657 L77 865 L218 865 L245 807 L272 865 L413 865 L304 657 L185 657 Z " />
<glyph glyph-name="rcaron" unicode="&#x159;" horiz-adv-x="321" d="M106 462 L37 667 L156 667 L178 605 L196 667 L316 667 L248 462 L106 462 Z M321 245 Q292 254 275 255.5 Q258 257 252 257 Q229 257 217 251 Q205 245 200 238 Q193 230 192 219 L192 0 L35 0 L35 405 L175 405 L183 379 Q191 391 201 397.5 Q211 404 220.5 407 Q230 410 238.5 410.5 Q247 411 251 411 Q275 411 290 408 Q305 405 321 394 L321 245 Z " />
<glyph glyph-name="Sacute" unicode="&#x15a;" horiz-adv-x="500" d="M255 595 Q299 595 329 591.5 Q359 588 380 582.5 Q401 577 415 570 Q429 563 439 557 L439 413 Q406 421 374 428 Q345 433 316 437.5 Q287 442 264 442 Q251 442 236.5 441 Q222 440 209 437.5 Q196 435 187.5 430.5 Q179 426 179 419 Q179 408 201.5 398 Q224 388 258 376.5 Q292 365 332 349.5 Q372 334 406 311 Q440 288 462.5 255.5 Q485 223 485 178 Q485 130 468 95 Q451 60 420.5 37.5 Q390 15 347 4.5 Q304 -6 251 -6 Q208 -6 172.5 0.5 Q137 7 109.5 16.5 Q82 26 63 37 Q44 48 35 56 L35 191 Q71 179 106 170 Q139 161 171 154.5 Q203 148 228 148 Q237 148 252.5 148.5 Q268 149 283.5 150.5 Q299 152 310.5 156.5 Q322 161 322 168 Q322 181 299.5 191.5 Q277 202 242.5 214 Q208 226 168.5 241 Q129 256 94.5 278.5 Q60 301 37.5 333.5 Q15 366 15 412 Q15 466 35.5 501 Q56 536 89.5 557 Q123 578 166 586.5 Q209 595 255 595 Z M307 657 L159 657 L239 842 L411 842 L307 657 Z " />
<glyph glyph-name="sacute" unicode="&#x15b;" horiz-adv-x="380" d="M194 411 Q253 411 283 403 Q313 395 337 379 L337 262 Q312 266 289 269 Q268 271 248 273 Q228 275 214 275 Q206 275 196.5 274.5 Q187 274 187 270 Q187 267 201 262.5 Q215 258 235.5 251.5 Q256 245 280 236 Q304 227 324.5 213 Q345 199 359 179.5 Q373 160 373 134 Q373 68 329 31 Q285 -6 201 -6 Q171 -6 144 -2.5 Q117 1 95 7 Q73 13 57.5 19.5 Q42 26 35 32 L35 160 Q63 153 90 148 Q115 142 139 138.5 Q163 135 181 135 Q201 135 201 139 Q201 143 187 148.5 Q173 154 152.5 162.5 Q132 171 108 182.5 Q84 194 63.5 209.5 Q43 225 29 244.5 Q15 264 15 289 Q15 324 31 347 Q47 370 72.5 384.5 Q98 399 130 405 Q162 411 194 411 Z M259 462 L111 462 L191 647 L363 647 L259 462 Z " />
<glyph glyph-name="Scircumflex" unicode="&#x15c;" horiz-adv-x="500" d="M255 595 Q299 595 329 591.5 Q359 588 380 582.5 Q401 577 415 570 Q429 563 439 557 L439 413 Q406 421 374 428 Q345 433 316 437.5 Q287 442 264 442 Q251 442 236.5 441 Q222 440 209 437.5 Q196 435 187.5 430.5 Q179 426 179 419 Q179 408 201.5 398 Q224 388 258 376.5 Q292 365 332 349.5 Q372 334 406 311 Q440 288 462.5 255.5 Q485 223 485 178 Q485 130 468 95 Q451 60 420.5 37.5 Q390 15 347 4.5 Q304 -6 251 -6 Q208 -6 172.5 0.5 Q137 7 109.5 16.5 Q82 26 63 37 Q44 48 35 56 L35 191 Q71 179 106 170 Q139 161 171 154.5 Q203 148 228 148 Q237 148 252.5 148.5 Q268 149 283.5 150.5 Q299 152 310.5 156.5 Q322 161 322 168 Q322 181 299.5 191.5 Q277 202 242.5 214 Q208 226 168.5 241 Q129 256 94.5 278.5 Q60 301 37.5 333.5 Q15 366 15 412 Q15 466 35.5 501 Q56 536 89.5 557 Q123 578 166 586.5 Q209 595 255 595 Z M314 865 L423 657 L282 657 L255 715 L228 657 L87 657 L195 865 L314 865 Z " />
<glyph glyph-name="scircumflex" unicode="&#x15d;" horiz-adv-x="380" d="M194 411 Q253 411 283 403 Q313 395 337 379 L337 262 Q312 266 289 269 Q268 271 248 273 Q228 275 214 275 Q206 275 196.5 274.5 Q187 274 187 270 Q187 267 201 262.5 Q215 258 235.5 251.5 Q256 245 280 236 Q304 227 324.5 213 Q345 199 359 179.5 Q373 160 373 134 Q373 68 329 31 Q285 -6 201 -6 Q171 -6 144 -2.5 Q117 1 95 7 Q73 13 57.5 19.5 Q42 26 35 32 L35 160 Q63 153 90 148 Q115 142 139 138.5 Q163 135 181 135 Q201 135 201 139 Q201 143 187 148.5 Q173 154 152.5 162.5 Q132 171 108 182.5 Q84 194 63.5 209.5 Q43 225 29 244.5 Q15 264 15 289 Q15 324 31 347 Q47 370 72.5 384.5 Q98 399 130 405 Q162 411 194 411 Z M253 670 L362 462 L221 462 L194 520 L167 462 L26 462 L134 670 L253 670 Z " />
<glyph glyph-name="Scedilla" unicode="&#x15e;" horiz-adv-x="500" d="M255 595 Q299 595 329 591.5 Q359 588 380 582.5 Q401 577 415 570 Q429 563 439 557 L439 413 Q406 421 374 428 Q345 433 316 437.5 Q287 442 264 442 Q251 442 236.5 441 Q222 440 209 437.5 Q196 435 187.5 430.5 Q179 426 179 419 Q179 408 201.5 398 Q224 388 258 376.5 Q292 365 332 349.5 Q372 334 406 311 Q440 288 462.5 255.5 Q485 223 485 178 Q485 130 468 95 Q451 60 420.5 37.5 Q390 15 347 4.5 Q304 -6 251 -6 Q208 -6 172.5 0.5 Q137 7 109.5 16.5 Q82 26 63 37 Q44 48 35 56 L35 191 Q71 179 106 170 Q139 161 171 154.5 Q203 148 228 148 Q237 148 252.5 148.5 Q268 149 283.5 150.5 Q299 152 310.5 156.5 Q322 161 322 168 Q322 181 299.5 191.5 Q277 202 242.5 214 Q208 226 168.5 241 Q129 256 94.5 278.5 Q60 301 37.5 333.5 Q15 366 15 412 Q15 466 35.5 501 Q56 536 89.5 557 Q123 578 166 586.5 Q209 595 255 595 Z M126 -249 L298 -249 L378 -64 L230 -64 L126 -249 Z " />
<glyph glyph-name="scedilla" unicode="&#x15f;" horiz-adv-x="380" d="M194 411 Q253 411 283 403 Q313 395 337 379 L337 262 Q312 266 289 269 Q268 271 248 273 Q228 275 214 275 Q206 275 196.5 274.5 Q187 274 187 270 Q187 267 201 262.5 Q215 258 235.5 251.5 Q256 245 280 236 Q304 227 324.5 213 Q345 199 359 179.5 Q373 160 373 134 Q373 68 329 31 Q285 -6 201 -6 Q171 -6 144 -2.5 Q117 1 95 7 Q73 13 57.5 19.5 Q42 26 35 32 L35 160 Q63 153 90 148 Q115 142 139 138.5 Q163 135 181 135 Q201 135 201 139 Q201 143 187 148.5 Q173 154 152.5 162.5 Q132 171 108 182.5 Q84 194 63.5 209.5 Q43 225 29 244.5 Q15 264 15 289 Q15 324 31 347 Q47 370 72.5 384.5 Q98 399 130 405 Q162 411 194 411 Z M49 -249 L221 -249 L301 -64 L153 -64 L49 -249 Z " />
<glyph glyph-name="Scaron" unicode="&#x160;" horiz-adv-x="500" d="M255 595 Q299 595 329 591.5 Q359 588 380 582.5 Q401 577 415 570 Q429 563 439 557 L439 413 Q406 421 374 428 Q345 433 316 437.5 Q287 442 264 442 Q251 442 236.5 441 Q222 440 209 437.5 Q196 435 187.5 430.5 Q179 426 179 419 Q179 408 201.5 398 Q224 388 258 376.5 Q292 365 332 349.5 Q372 334 406 311 Q440 288 462.5 255.5 Q485 223 485 178 Q485 130 468 95 Q451 60 420.5 37.5 Q390 15 347 4.5 Q304 -6 251 -6 Q208 -6 172.5 0.5 Q137 7 109.5 16.5 Q82 26 63 37 Q44 48 35 56 L35 191 Q71 179 106 170 Q139 161 171 154.5 Q203 148 228 148 Q237 148 252.5 148.5 Q268 149 283.5 150.5 Q299 152 310.5 156.5 Q322 161 322 168 Q322 181 299.5 191.5 Q277 202 242.5 214 Q208 226 168.5 241 Q129 256 94.5 278.5 Q60 301 37.5 333.5 Q15 366 15 412 Q15 466 35.5 501 Q56 536 89.5 557 Q123 578 166 586.5 Q209 595 255 595 Z M179 657 L71 865 L212 865 L239 807 L266 865 L407 865 L298 657 L179 657 Z " />
<glyph glyph-name="scaron" unicode="&#x161;" horiz-adv-x="380" d="M194 411 Q253 411 283 403 Q313 395 337 379 L337 262 Q312 266 289 269 Q268 271 248 273 Q228 275 214 275 Q206 275 196.5 274.5 Q187 274 187 270 Q187 267 201 262.5 Q215 258 235.5 251.5 Q256 245 280 236 Q304 227 324.5 213 Q345 199 359 179.5 Q373 160 373 134 Q373 68 329 31 Q285 -6 201 -6 Q171 -6 144 -2.5 Q117 1 95 7 Q73 13 57.5 19.5 Q42 26 35 32 L35 160 Q63 153 90 148 Q115 142 139 138.5 Q163 135 181 135 Q201 135 201 139 Q201 143 187 148.5 Q173 154 152.5 162.5 Q132 171 108 182.5 Q84 194 63.5 209.5 Q43 225 29 244.5 Q15 264 15 289 Q15 324 31 347 Q47 370 72.5 384.5 Q98 399 130 405 Q162 411 194 411 Z M132 462 L24 670 L165 670 L192 612 L219 670 L360 670 L251 462 L132 462 Z " />
<glyph glyph-name="uni0162" unicode="&#x162;" horiz-adv-x="489" d="M15 590 L474 590 L474 436 L323 436 L323 0 L166 0 L166 436 L15 436 L15 590 Z M71 -249 L243 -249 L323 -64 L175 -64 L71 -249 Z " />
<glyph glyph-name="uni0163" unicode="&#x163;" horiz-adv-x="337" d="M-5 257 L-5 351 L166 526 L208 526 L208 405 L318 405 L318 257 L208 257 L208 182 Q208 162 216.5 155 Q225 148 242 148 Q250 148 263.5 149.5 Q277 151 290 154 Q305 156 322 159 L322 33 Q315 27 306.5 20.5 Q298 14 285 9 Q272 4 253 1 Q234 -2 205 -2 Q154 -2 123.5 13.5 Q93 29 77 51.5 Q61 74 56 100.5 Q51 127 51 148 L51 257 L-5 257 Z M40 -249 L212 -249 L292 -64 L144 -64 L40 -249 Z " />
<glyph glyph-name="Tcaron" unicode="&#x164;" horiz-adv-x="489" d="M15 590 L474 590 L474 436 L323 436 L323 0 L166 0 L166 436 L15 436 L15 590 Z M185 657 L77 865 L218 865 L245 807 L272 865 L413 865 L304 657 L185 657 Z " />
<glyph glyph-name="tcaron" unicode="&#x165;" horiz-adv-x="468" d="M5 257 L5 351 L176 526 L218 526 L218 405 L328 405 L328 257 L218 257 L218 182 Q218 162 226.5 155 Q235 148 252 148 Q260 148 273.5 149.5 Q287 151 300 154 Q315 156 332 159 L332 33 Q325 27 316.5 20.5 Q308 14 295 9 Q282 4 263 1 Q244 -2 215 -2 Q164 -2 133.5 13.5 Q103 29 87 51.5 Q71 74 66 100.5 Q61 127 61 148 L61 257 L5 257 Z M394 444 L246 444 L306 590 L478 590 L394 444 Z " />
<glyph glyph-name="Tbar" unicode="&#x166;" horiz-adv-x="489" d="M323 221 L323 0 L166 0 L166 221 L72 221 L72 364 L166 364 L166 436 L15 436 L15 590 L474 590 L474 436 L323 436 L323 364 L417 364 L417 221 L323 221 Z " />
<glyph glyph-name="tbar" unicode="&#x167;" horiz-adv-x="337" d="M-5 264 L51 264 L51 286 L-5 286 L-5 351 L166 526 L208 526 L208 405 L318 405 L318 286 L208 286 L208 264 L318 264 L318 184 L208 184 L208 182 Q208 162 216.5 155 Q225 148 242 148 Q250 148 263.5 149.5 Q277 151 290 154 Q305 156 322 159 L322 33 Q315 27 306.5 20.5 Q298 14 285 9 Q272 4 253 1 Q234 -2 205 -2 Q154 -2 123.5 13.5 Q93 29 77 51.5 Q61 74 56 100.5 Q51 127 51 148 L51 184 L-5 184 L-5 264 Z " />
<glyph glyph-name="Utilde" unicode="&#x168;" horiz-adv-x="568" d="M282 -6 Q242 -6 199 4.5 Q156 15 120.5 44.5 Q85 74 62.5 128 Q40 182 40 270 L40 590 L197 590 L197 257 Q197 221 204.5 199.5 Q212 178 224 166.5 Q236 155 252 151.5 Q268 148 284 148 Q301 148 316.5 151.5 Q332 155 344 166.5 Q356 178 363.5 199.5 Q371 221 371 257 L371 590 L528 590 L528 270 Q528 182 505.5 128 Q483 74 447.5 44.5 Q412 15 369.5 4.5 Q327 -6 286 -6 L282 -6 Z M449 715 Q419 690 388.5 673.5 Q358 657 329 657 Q315 657 302.5 662 Q290 667 278 672.5 Q266 678 254 683 Q242 688 229 688 Q220 688 208.5 682.5 Q197 677 176 660 L118 779 Q148 804 175 818 Q202 832 229 832 Q243 832 256 827 Q269 822 281 816.5 Q293 811 305 806 Q317 801 330 801 Q349 801 390 833 L449 715 Z " />
<glyph glyph-name="utilde" unicode="&#x169;" horiz-adv-x="442" d="M407 405 L407 0 L258 0 L256 26 Q235 7 208 0.5 Q181 -6 164 -6 Q134 -6 109.5 5 Q85 16 67.5 34.5 Q50 53 40 78.5 Q30 104 30 134 L30 405 L187 405 L187 168 Q187 156 196 152 Q205 148 211 148 Q224 148 231.5 151.5 Q239 155 243 159 Q248 164 250 170 L250 405 L407 405 Z M377 520 Q347 495 316.5 478.5 Q286 462 257 462 Q243 462 230.5 467 Q218 472 206 477.5 Q194 483 182 488 Q170 493 157 493 Q148 493 136.5 487.5 Q125 482 104 465 L46 584 Q76 609 103 623 Q130 637 157 637 Q171 637 184 632 Q197 627 209 621.5 Q221 616 233 611 Q245 606 258 606 Q277 606 318 638 L377 520 Z " />
<glyph glyph-name="Umacron" unicode="&#x16a;" horiz-adv-x="568" d="M282 -6 Q242 -6 199 4.5 Q156 15 120.5 44.5 Q85 74 62.5 128 Q40 182 40 270 L40 590 L197 590 L197 257 Q197 221 204.5 199.5 Q212 178 224 166.5 Q236 155 252 151.5 Q268 148 284 148 Q301 148 316.5 151.5 Q332 155 344 166.5 Q356 178 363.5 199.5 Q371 221 371 257 L371 590 L528 590 L528 270 Q528 182 505.5 128 Q483 74 447.5 44.5 Q412 15 369.5 4.5 Q327 -6 286 -6 L282 -6 Z M115 657 L115 798 L451 798 L451 657 L115 657 Z " />
<glyph glyph-name="umacron" unicode="&#x16b;" horiz-adv-x="442" d="M48 462 L48 603 L384 603 L384 462 L48 462 Z M407 405 L407 0 L258 0 L256 26 Q235 7 208 0.5 Q181 -6 164 -6 Q134 -6 109.5 5 Q85 16 67.5 34.5 Q50 53 40 78.5 Q30 104 30 134 L30 405 L187 405 L187 168 Q187 156 196 152 Q205 148 211 148 Q224 148 231.5 151.5 Q239 155 243 159 Q248 164 250 170 L250 405 L407 405 Z " />
<glyph glyph-name="Ubreve" unicode="&#x16c;" horiz-adv-x="568" d="M282 -6 Q242 -6 199 4.5 Q156 15 120.5 44.5 Q85 74 62.5 128 Q40 182 40 270 L40 590 L197 590 L197 257 Q197 221 204.5 199.5 Q212 178 224 166.5 Q236 155 252 151.5 Q268 148 284 148 Q301 148 316.5 151.5 Q332 155 344 166.5 Q356 178 363.5 199.5 Q371 221 371 257 L371 590 L528 590 L528 270 Q528 182 505.5 128 Q483 74 447.5 44.5 Q412 15 369.5 4.5 Q327 -6 286 -6 L282 -6 Z M285 657 Q254 657 224 667 Q194 677 170.5 698.5 Q147 720 132 753.5 Q117 787 115 834 L248 834 Q252 803 263.5 796 Q275 789 285 789 Q295 789 307 796 Q319 803 323 834 L457 834 Q456 786 440.5 752.5 Q425 719 401 698 Q377 677 347 667 Q317 657 285 657 Z " />
<glyph glyph-name="ubreve" unicode="&#x16d;" horiz-adv-x="442" d="M407 405 L407 0 L258 0 L256 26 Q235 7 208 0.5 Q181 -6 164 -6 Q134 -6 109.5 5 Q85 16 67.5 34.5 Q50 53 40 78.5 Q30 104 30 134 L30 405 L187 405 L187 168 Q187 156 196 152 Q205 148 211 148 Q224 148 231.5 151.5 Q239 155 243 159 Q248 164 250 170 L250 405 L407 405 Z M217 462 Q186 462 156 472 Q126 482 102.5 503.5 Q79 525 64 558.5 Q49 592 47 639 L180 639 Q184 608 195.5 601 Q207 594 217 594 Q227 594 239 601 Q251 608 255 639 L389 639 Q388 591 372.5 557.5 Q357 524 333 503 Q309 482 279 472 Q249 462 217 462 Z " />
<glyph glyph-name="Uring" unicode="&#x16e;" horiz-adv-x="568" d="M282 -6 Q242 -6 199 4.5 Q156 15 120.5 44.5 Q85 74 62.5 128 Q40 182 40 270 L40 590 L197 590 L197 257 Q197 221 204.5 199.5 Q212 178 224 166.5 Q236 155 252 151.5 Q268 148 284 148 Q301 148 316.5 151.5 Q332 155 344 166.5 Q356 178 363.5 199.5 Q371 221 371 257 L371 590 L528 590 L528 270 Q528 182 505.5 128 Q483 74 447.5 44.5 Q412 15 369.5 4.5 Q327 -6 286 -6 L282 -6 Z M283 657 Q255 657 228.5 668.5 Q202 680 182.5 699.5 Q163 719 151 745.5 Q139 772 139 801 Q139 831 151 857.5 Q163 884 182.5 903.5 Q202 923 228.5 934 Q255 945 283 945 Q312 945 338 934 Q364 923 383.5 903.5 Q403 884 415 857.5 Q427 831 427 801 Q427 772 415 745.5 Q403 719 383.5 699.5 Q364 680 338 668.5 Q312 657 283 657 Z M283 774 Q291 774 300 779 Q309 784 309 801 Q309 815 300 820 Q291 825 283 825 Q275 825 266.5 820 Q258 815 258 801 Q258 784 266.5 779 Q275 774 283 774 Z " />
<glyph glyph-name="uring" unicode="&#x16f;" horiz-adv-x="442" d="M407 405 L407 0 L258 0 L256 26 Q235 7 208 0.5 Q181 -6 164 -6 Q134 -6 109.5 5 Q85 16 67.5 34.5 Q50 53 40 78.5 Q30 104 30 134 L30 405 L187 405 L187 168 Q187 156 196 152 Q205 148 211 148 Q224 148 231.5 151.5 Q239 155 243 159 Q248 164 250 170 L250 405 L407 405 Z M219 462 Q191 462 164.5 473.5 Q138 485 118.5 504.5 Q99 524 87 550.5 Q75 577 75 606 Q75 636 87 662.5 Q99 689 118.5 708.5 Q138 728 164.5 739 Q191 750 219 750 Q248 750 274 739 Q300 728 319.5 708.5 Q339 689 351 662.5 Q363 636 363 606 Q363 577 351 550.5 Q339 524 319.5 504.5 Q300 485 274 473.5 Q248 462 219 462 Z M219 579 Q227 579 236 584 Q245 589 245 606 Q245 620 236 625 Q227 630 219 630 Q211 630 202.5 625 Q194 620 194 606 Q194 589 202.5 584 Q211 579 219 579 Z " />
<glyph glyph-name="Uhungarumlaut" unicode="&#x170;" horiz-adv-x="568" d="M282 -6 Q242 -6 199 4.5 Q156 15 120.5 44.5 Q85 74 62.5 128 Q40 182 40 270 L40 590 L197 590 L197 257 Q197 221 204.5 199.5 Q212 178 224 166.5 Q236 155 252 151.5 Q268 148 284 148 Q301 148 316.5 151.5 Q332 155 344 166.5 Q356 178 363.5 199.5 Q371 221 371 257 L371 590 L528 590 L528 270 Q528 182 505.5 128 Q483 74 447.5 44.5 Q412 15 369.5 4.5 Q327 -6 286 -6 L282 -6 Z M268 657 L129 657 L141 840 L297 840 L268 657 Z M449 657 L310 657 L322 840 L477 840 L449 657 Z " />
<glyph glyph-name="uhungarumlaut" unicode="&#x171;" horiz-adv-x="442" d="M407 405 L407 0 L258 0 L256 26 Q235 7 208 0.5 Q181 -6 164 -6 Q134 -6 109.5 5 Q85 16 67.5 34.5 Q50 53 40 78.5 Q30 104 30 134 L30 405 L187 405 L187 168 Q187 156 196 152 Q205 148 211 148 Q224 148 231.5 151.5 Q239 155 243 159 Q248 164 250 170 L250 405 L407 405 Z M198 462 L59 462 L71 645 L227 645 L198 462 Z M379 462 L240 462 L252 645 L407 645 L379 462 Z " />
<glyph glyph-name="Uogonek" unicode="&#x172;" horiz-adv-x="568" d="M282 -6 Q242 -6 199 4.5 Q156 15 120.5 44.5 Q85 74 62.5 128 Q40 182 40 270 L40 590 L197 590 L197 257 Q197 221 204.5 199.5 Q212 178 224 166.5 Q236 155 252 151.5 Q268 148 284 148 Q301 148 316.5 151.5 Q332 155 344 166.5 Q356 178 363.5 199.5 Q371 221 371 257 L371 590 L528 590 L528 270 Q528 182 505.5 128 Q483 74 447.5 44.5 Q412 15 369.5 4.5 Q327 -6 286 -6 L282 -6 Z M107 -249 L279 -249 L359 -64 L211 -64 L107 -249 Z " />
<glyph glyph-name="uogonek" unicode="&#x173;" horiz-adv-x="442" d="M407 405 L407 0 L258 0 L256 26 Q235 7 208 0.5 Q181 -6 164 -6 Q134 -6 109.5 5 Q85 16 67.5 34.5 Q50 53 40 78.5 Q30 104 30 134 L30 405 L187 405 L187 168 Q187 156 196 152 Q205 148 211 148 Q224 148 231.5 151.5 Q239 155 243 159 Q248 164 250 170 L250 405 L407 405 Z M155 -249 L327 -249 L407 -64 L259 -64 L155 -249 Z " />
<glyph glyph-name="Ydieresis" unicode="&#x178;" horiz-adv-x="585" d="M371 0 L214 0 L214 199 L-5 590 L176 590 L292 376 L408 590 L590 590 L371 199 L371 0 Z M115 805 L278 805 L278 657 L115 657 L115 805 Z M309 805 L472 805 L472 657 L309 657 L309 805 Z " />
<glyph glyph-name="Zacute" unicode="&#x179;" horiz-adv-x="485" d="M21 590 L465 590 L465 459 L229 154 L465 154 L465 0 L20 0 L20 138 L250 436 L21 436 L21 590 Z M322 657 L174 657 L254 842 L426 842 L322 657 Z " />
<glyph glyph-name="zacute" unicode="&#x17a;" horiz-adv-x="399" d="M30 405 L369 405 L369 268 L256 148 L369 148 L369 0 L30 0 L30 137 L147 257 L30 257 L30 405 Z M265 462 L117 462 L197 647 L369 647 L265 462 Z " />
<glyph glyph-name="Zdotaccent" unicode="&#x17b;" horiz-adv-x="485" d="M21 590 L465 590 L465 459 L229 154 L465 154 L465 0 L20 0 L20 138 L250 436 L21 436 L21 590 Z M165 805 L328 805 L328 657 L165 657 L165 805 Z " />
<glyph glyph-name="zdotaccent" unicode="&#x17c;" horiz-adv-x="399" d="M30 405 L369 405 L369 268 L256 148 L369 148 L369 0 L30 0 L30 137 L147 257 L30 257 L30 405 Z M118 610 L281 610 L281 462 L118 462 L118 610 Z " />
<glyph glyph-name="Zcaron" unicode="&#x17d;" horiz-adv-x="485" d="M21 590 L465 590 L465 459 L229 154 L465 154 L465 0 L20 0 L20 138 L250 436 L21 436 L21 590 Z M188 657 L80 865 L221 865 L248 807 L275 865 L416 865 L307 657 L188 657 Z " />
<glyph glyph-name="zcaron" unicode="&#x17e;" horiz-adv-x="399" d="M30 405 L369 405 L369 268 L256 148 L369 148 L369 0 L30 0 L30 137 L147 257 L30 257 L30 405 Z M139 462 L31 670 L172 670 L199 612 L226 670 L367 670 L258 462 L139 462 Z " />
<glyph glyph-name="florin" unicode="&#x192;" horiz-adv-x="340" d="M66 257 L0 257 L0 405 L66 405 Q71 495 109.5 545.5 Q148 596 217 596 Q246 596 265 593 Q284 590 297.5 585 Q311 580 319.5 574.5 Q328 569 335 563 L335 450 Q320 451 306 453 Q293 454 281.5 454.5 Q270 455 262 455 Q238 455 230.5 443.5 Q223 432 223 412 L223 405 L335 405 L335 257 L223 257 L223 -48 Q223 -69 218.5 -95.5 Q214 -122 198 -144.5 Q182 -167 152 -182.5 Q122 -198 71 -198 Q41 -198 21.5 -195 Q2 -192 -11 -187 Q-24 -182 -32.5 -176 Q-41 -170 -48 -164 L-48 -45 Q-31 -48 -15 -51 Q-1 -53 12 -55 Q25 -57 33 -57 Q49 -57 57.5 -49.5 Q66 -42 66 -22 L66 257 Z " />
<glyph glyph-name="uni0218" unicode="&#x218;" horiz-adv-x="500" d="M255 595 Q299 595 329 591.5 Q359 588 380 582.5 Q401 577 415 570 Q429 563 439 557 L439 413 Q406 421 374 428 Q345 433 316 437.5 Q287 442 264 442 Q251 442 236.5 441 Q222 440 209 437.5 Q196 435 187.5 430.5 Q179 426 179 419 Q179 408 201.5 398 Q224 388 258 376.5 Q292 365 332 349.5 Q372 334 406 311 Q440 288 462.5 255.5 Q485 223 485 178 Q485 130 468 95 Q451 60 420.5 37.5 Q390 15 347 4.5 Q304 -6 251 -6 Q208 -6 172.5 0.5 Q137 7 109.5 16.5 Q82 26 63 37 Q44 48 35 56 L35 191 Q71 179 106 170 Q139 161 171 154.5 Q203 148 228 148 Q237 148 252.5 148.5 Q268 149 283.5 150.5 Q299 152 310.5 156.5 Q322 161 322 168 Q322 181 299.5 191.5 Q277 202 242.5 214 Q208 226 168.5 241 Q129 256 94.5 278.5 Q60 301 37.5 333.5 Q15 366 15 412 Q15 466 35.5 501 Q56 536 89.5 557 Q123 578 166 586.5 Q209 595 255 595 Z M95 -249 L267 -249 L347 -64 L199 -64 L95 -249 Z " />
<glyph glyph-name="uni0219" unicode="&#x219;" horiz-adv-x="380" d="M194 411 Q253 411 283 403 Q313 395 337 379 L337 262 Q312 266 289 269 Q268 271 248 273 Q228 275 214 275 Q206 275 196.5 274.5 Q187 274 187 270 Q187 267 201 262.5 Q215 258 235.5 251.5 Q256 245 280 236 Q304 227 324.5 213 Q345 199 359 179.5 Q373 160 373 134 Q373 68 329 31 Q285 -6 201 -6 Q171 -6 144 -2.5 Q117 1 95 7 Q73 13 57.5 19.5 Q42 26 35 32 L35 160 Q63 153 90 148 Q115 142 139 138.5 Q163 135 181 135 Q201 135 201 139 Q201 143 187 148.5 Q173 154 152.5 162.5 Q132 171 108 182.5 Q84 194 63.5 209.5 Q43 225 29 244.5 Q15 264 15 289 Q15 324 31 347 Q47 370 72.5 384.5 Q98 399 130 405 Q162 411 194 411 Z M49 -249 L221 -249 L301 -64 L153 -64 L49 -249 Z " />
<glyph glyph-name="uni021A" unicode="&#x21a;" horiz-adv-x="489" d="M15 590 L474 590 L474 436 L323 436 L323 0 L166 0 L166 436 L15 436 L15 590 Z M71 -249 L243 -249 L323 -64 L175 -64 L71 -249 Z " />
<glyph glyph-name="uni021B" unicode="&#x21b;" horiz-adv-x="337" d="M-5 257 L-5 351 L166 526 L208 526 L208 405 L318 405 L318 257 L208 257 L208 182 Q208 162 216.5 155 Q225 148 242 148 Q250 148 263.5 149.5 Q277 151 290 154 Q305 156 322 159 L322 33 Q315 27 306.5 20.5 Q298 14 285 9 Q272 4 253 1 Q234 -2 205 -2 Q154 -2 123.5 13.5 Q93 29 77 51.5 Q61 74 56 100.5 Q51 127 51 148 L51 257 L-5 257 Z M40 -249 L212 -249 L292 -64 L144 -64 L40 -249 Z " />
<glyph glyph-name="circumflex" unicode="&#x2c6;" horiz-adv-x="416" d="M267 590 L376 382 L235 382 L208 440 L181 382 L40 382 L148 590 L267 590 Z " />
<glyph glyph-name="caron" unicode="&#x2c7;" horiz-adv-x="416" d="M148 382 L40 590 L181 590 L208 532 L235 590 L376 590 L267 382 L148 382 Z " />
<glyph glyph-name="breve" unicode="&#x2d8;" horiz-adv-x="422" d="M210 413 Q179 413 149 423 Q119 433 95.5 454.5 Q72 476 57 509.5 Q42 543 40 590 L173 590 Q177 559 188.5 552 Q200 545 210 545 Q220 545 232 552 Q244 559 248 590 L382 590 Q381 542 365.5 508.5 Q350 475 326 454 Q302 433 272 423 Q242 413 210 413 Z " />
<glyph glyph-name="dotaccent" unicode="&#x2d9;" horiz-adv-x="243" d="M40 590 L203 590 L203 442 L40 442 L40 590 Z " />
<glyph glyph-name="ring" unicode="&#x2da;" horiz-adv-x="368" d="M184 308 Q156 308 129.5 319.5 Q103 331 83.5 350.5 Q64 370 52 396.5 Q40 423 40 452 Q40 482 52 508.5 Q64 535 83.5 554.5 Q103 574 129.5 585 Q156 596 184 596 Q213 596 239 585 Q265 574 284.5 554.5 Q304 535 316 508.5 Q328 482 328 452 Q328 423 316 396.5 Q304 370 284.5 350.5 Q265 331 239 319.5 Q213 308 184 308 Z M184 425 Q192 425 201 430 Q210 435 210 452 Q210 466 201 471 Q192 476 184 476 Q176 476 167.5 471 Q159 466 159 452 Q159 435 167.5 430 Q176 425 184 425 Z " />
<glyph glyph-name="ogonek" unicode="&#x2db;" horiz-adv-x="332" d="M144 -6 L292 -6 L212 -191 L40 -191 L144 -6 Z " />
<glyph glyph-name="tilde" unicode="&#x2dc;" horiz-adv-x="411" d="M371 473 Q341 448 310.5 431.5 Q280 415 251 415 Q237 415 224.5 420 Q212 425 200 430.5 Q188 436 176 441 Q164 446 151 446 Q142 446 130.5 440.5 Q119 435 98 418 L40 537 Q70 562 97 576 Q124 590 151 590 Q165 590 178 585 Q191 580 203 574.5 Q215 569 227 564 Q239 559 252 559 Q271 559 312 591 L371 473 Z " />
<glyph glyph-name="hungarumlaut" unicode="&#x2dd;" horiz-adv-x="428" d="M179 407 L40 407 L52 590 L208 590 L179 407 Z M360 407 L221 407 L233 590 L388 590 L360 407 Z " />
<glyph glyph-name="uni03A9" unicode="&#x3a9;" horiz-adv-x="683" d="M338 441 Q317 441 298 435 Q279 429 265.5 413.5 Q252 398 244 371 Q236 344 236 303 L236 223 Q236 194 245 176 Q254 158 277 141 L277 0 L35 0 L35 154 L89 154 Q83 171 80.5 190 Q78 209 78 223 L78 304 Q78 384 100.5 440 Q123 496 160 530.5 Q197 565 243.5 580.5 Q290 596 339 596 Q388 596 435 580.5 Q482 565 518.5 530.5 Q555 496 577.5 440 Q600 384 600 304 L600 223 Q600 209 597.5 190 Q595 171 589 154 L643 154 L643 0 L401 0 L401 141 Q424 158 433 176 Q442 194 442 223 L442 303 Q442 344 434 371 Q426 398 412.5 413.5 Q399 429 380 435 Q361 441 340 441 L338 441 Z " />
<glyph glyph-name="pi" unicode="&#x3c0;" horiz-adv-x="681" d="M641 251 L551 251 L551 0 L394 0 L394 251 L287 251 L287 0 L130 0 L130 251 L40 251 L40 405 L641 405 L641 251 Z " />
<glyph glyph-name="ZWSP" unicode="&#x200b;" d="" />
<glyph glyph-name="endash" unicode="&#x2013;" horiz-adv-x="434" d="M40 135 L40 289 L394 289 L394 135 L40 135 Z " />
<glyph glyph-name="emdash" unicode="&#x2014;" horiz-adv-x="482" d="M40 135 L40 289 L442 289 L442 135 L40 135 Z " />
<glyph glyph-name="quoteleft" unicode="&#x2018;" horiz-adv-x="338" d="M150 590 L298 590 L212 392 L40 392 L150 590 Z " />
<glyph glyph-name="quoteright" unicode="&#x2019;" horiz-adv-x="338" d="M188 392 L40 392 L126 590 L298 590 L188 392 Z " />
<glyph glyph-name="quotesinglbase" unicode="&#x201a;" horiz-adv-x="338" d="M188 -88 L40 -88 L126 110 L298 110 L188 -88 Z " />
<glyph glyph-name="quotedblleft" unicode="&#x201c;" horiz-adv-x="551" d="M150 590 L298 590 L212 392 L40 392 L150 590 Z M363 590 L511 590 L425 392 L253 392 L363 590 Z " />
<glyph glyph-name="quotedblright" unicode="&#x201d;" horiz-adv-x="551" d="M401 392 L253 392 L339 590 L511 590 L401 392 Z M188 392 L40 392 L126 590 L298 590 L188 392 Z " />
<glyph glyph-name="quotedblbase" unicode="&#x201e;" horiz-adv-x="551" d="M401 -88 L253 -88 L339 110 L511 110 L401 -88 Z M188 -88 L40 -88 L126 110 L298 110 L188 -88 Z " />
<glyph glyph-name="dagger" unicode="&#x2020;" horiz-adv-x="471" d="M40 411 L157 411 L157 568 L315 568 L315 411 L431 411 L431 257 L315 257 L315 -171 L158 -171 L158 257 L40 257 L40 411 Z " />
<glyph glyph-name="daggerdbl" unicode="&#x2021;" horiz-adv-x="471" d="M158 154 L158 257 L40 257 L40 411 L157 411 L157 568 L315 568 L315 411 L431 411 L431 257 L315 257 L315 154 L431 154 L431 0 L315 0 L315 -171 L158 -171 L158 0 L40 0 L40 154 L158 154 Z " />
<glyph glyph-name="bullet" unicode="&#x2022;" horiz-adv-x="249" d="M40 203 Q40 239 65 263.5 Q90 288 124 288 Q160 288 184.5 263.5 Q209 239 209 203 Q209 168 184.5 144 Q160 120 124 120 Q90 120 65 144 Q40 168 40 203 Z " />
<glyph glyph-name="ellipsis" unicode="&#x2026;" horiz-adv-x="735" d="M40 142 L203 142 L203 -6 L40 -6 L40 142 Z M286 142 L449 142 L449 -6 L286 -6 L286 142 Z M532 142 L695 142 L695 -6 L532 -6 L532 142 Z " />
<glyph glyph-name="perthousand" unicode="&#x2030;" horiz-adv-x="1013" d="M392 590 L560 590 L337 -6 L170 -6 L392 590 Z M165 445 Q182 445 182 468 Q182 489 165 489 Q148 489 148 468 Q148 445 165 445 Z M165 339 Q98 339 69 372.5 Q40 406 40 468 Q40 529 69 562.5 Q98 596 165 596 Q232 596 261 562.5 Q290 529 290 468 Q290 406 261 372.5 Q232 339 165 339 Z M564 100 Q581 100 581 123 Q581 144 564 144 Q547 144 547 123 Q547 100 564 100 Z M564 -6 Q497 -6 468 27.5 Q439 61 439 123 Q439 184 468 217.5 Q497 251 564 251 Q631 251 660 217.5 Q689 184 689 123 Q689 61 660 27.5 Q631 -6 564 -6 Z M848 100 Q865 100 865 123 Q865 144 848 144 Q831 144 831 123 Q831 100 848 100 Z M848 -6 Q781 -6 752 27.5 Q723 61 723 123 Q723 184 752 217.5 Q781 251 848 251 Q915 251 944 217.5 Q973 184 973 123 Q973 61 944 27.5 Q915 -6 848 -6 Z " />
<glyph glyph-name="guilsinglleft" unicode="&#x2039;" horiz-adv-x="431" d="M40 158 L40 309 L391 474 L391 301 L248 234 L391 167 L391 -6 L40 158 Z " />
<glyph glyph-name="guilsinglright" unicode="&#x203a;" horiz-adv-x="431" d="M40 -6 L40 167 L183 234 L40 301 L40 474 L391 309 L391 158 L40 -6 Z " />
<glyph glyph-name="fraction" unicode="&#x2044;" horiz-adv-x="599" d="M390 724 L559 724 L209 -204 L40 -204 L390 724 Z " />
<glyph glyph-name="Euro" unicode="&#x20ac;" horiz-adv-x="630" d="M373 148 Q401 148 434 157.5 Q467 167 502 196 L589 85 Q540 38 483.5 16 Q427 -6 375 -6 Q342 -6 302 1.5 Q262 9 223 29.5 Q184 50 150.5 84.5 Q117 119 98 173 L40 173 L40 284 L78 284 L78 299 L78 304 L40 304 L40 415 L97 415 Q115 463 146 497.5 Q177 532 215 554 Q253 576 294.5 586 Q336 596 374 596 Q426 596 483.5 575 Q541 554 590 507 L497 396 Q462 425 431.5 433.5 Q401 442 373 442 Q352 442 329.5 436 Q307 430 287 415 L379 415 L379 304 L239 304 L239 299 L239 284 L379 284 L379 173 L293 173 Q313 159 334.5 153.5 Q356 148 373 148 Z " />
<glyph glyph-name="Numero" unicode="&#x2116;" horiz-adv-x="1028" d="M197 294 L197 0 L40 0 L40 590 L176 590 L390 293 L390 590 L547 590 L547 0 L408 0 L197 294 Z M605 0 L605 142 L987 142 L987 0 L605 0 Z M784 173 Q757 173 722.5 182.5 Q688 192 657.5 216 Q627 240 606.5 281 Q586 322 586 386 Q586 440 605.5 478.5 Q625 517 655 542 Q685 567 720.5 578.5 Q756 590 788 590 Q820 590 855 578.5 Q890 567 919.5 542 Q949 517 968.5 478.5 Q988 440 988 386 Q988 322 967.5 281 Q947 240 916.5 216 Q886 192 851.5 182.5 Q817 173 790 173 L784 173 Z M788 327 Q794 327 801.5 329 Q809 331 815.5 337 Q822 343 826.5 354 Q831 365 831 383 Q831 412 816.5 424 Q802 436 788 436 Q774 436 758.5 424 Q743 412 743 383 Q743 365 747.5 354 Q752 343 759 337 Q766 331 773.5 329 Q781 327 788 327 Z " />
<glyph glyph-name="trademark" unicode="&#x2122;" horiz-adv-x="758" d="M40 590 L317 590 L317 474 L244 474 L244 246 L113 246 L113 474 L40 474 L40 590 Z M556 289 L502 289 L473 342 L473 246 L341 246 L341 590 L435 590 L531 437 L624 590 L718 590 L718 246 L586 246 L586 343 L556 289 Z " />
<glyph glyph-name="Omega" unicode="&#x2126;" horiz-adv-x="688" d="M343 441 Q322 441 303 435 Q284 429 270.5 413.5 Q257 398 249 371 Q241 344 241 303 L241 223 Q241 194 250 176 Q259 158 282 141 L282 0 L40 0 L40 154 L94 154 Q88 171 85.5 190 Q83 209 83 223 L83 304 Q83 384 105.5 440 Q128 496 165 530.5 Q202 565 248.5 580.5 Q295 596 344 596 Q393 596 440 580.5 Q487 565 523.5 530.5 Q560 496 582.5 440 Q605 384 605 304 L605 223 Q605 209 602.5 190 Q600 171 594 154 L648 154 L648 0 L406 0 L406 141 Q429 158 438 176 Q447 194 447 223 L447 303 Q447 344 439 371 Q431 398 417.5 413.5 Q404 429 385 435 Q366 441 345 441 L343 441 Z " />
<glyph glyph-name="partialdiff" unicode="&#x2202;" horiz-adv-x="476" d="M279 386 Q278 416 258.5 428 Q239 440 216 440 Q200 440 168 436.5 Q136 433 103 412 L51 543 Q79 563 104.5 573.5 Q130 584 153 588.5 Q176 593 196.5 594 Q217 595 235 595 Q268 595 304 583 Q340 571 369 545 Q398 519 417 479.5 Q436 440 436 384 L436 0 L296 0 L290 26 Q269 2 241.5 -2 Q214 -6 195 -6 Q168 -6 140.5 1.5 Q113 9 90.5 30.5 Q68 52 54 91 Q40 130 40 192 Q40 245 53 281 Q66 317 87.5 339.5 Q109 362 137.5 372 Q166 382 196 382 Q213 382 236 379 Q259 376 279 363 L279 386 Z M279 204 Q273 211 267 216 Q261 221 254.5 224.5 Q248 228 240 228 Q236 228 228.5 227.5 Q221 227 214 224 Q207 221 202 213.5 Q197 206 197 192 Q197 173 202 164 Q207 155 214 151.5 Q221 148 228.5 148 Q236 148 240 148 Q257 148 266.5 157 Q276 166 279 172 L279 204 Z " />
<glyph glyph-name="Delta" unicode="&#x2206;" horiz-adv-x="798" d="M758 0 L40 0 L400 596 L758 0 Z M317 156 L481 156 L398 294 L317 156 Z " />
<glyph glyph-name="product" unicode="&#x220f;" horiz-adv-x="681" d="M641 436 L551 436 L551 0 L394 0 L394 436 L287 436 L287 0 L130 0 L130 436 L40 436 L40 590 L641 590 L641 436 Z " />
<glyph glyph-name="summation" unicode="&#x2211;" horiz-adv-x="459" d="M40 93 L125 295 L40 498 L40 590 L419 590 L419 435 L238 435 L295 296 L235 154 L419 154 L419 0 L40 0 L40 93 Z " />
<glyph glyph-name="minus" unicode="&#x2212;" horiz-adv-x="434" d="M40 135 L40 289 L394 289 L394 135 L40 135 Z " />
<glyph glyph-name="radical" unicode="&#x221a;" horiz-adv-x="730" d="M169 0 L40 405 L207 405 L260 184 L395 657 L690 657 L690 503 L513 503 L350 0 L169 0 Z " />
<glyph glyph-name="infinity" unicode="&#x221e;" horiz-adv-x="852" d="M597 44 Q544 44 501.5 62.5 Q459 81 427 111 Q395 82 351 63 Q307 44 257 44 Q216 44 177 55.5 Q138 67 107.5 90.5 Q77 114 58.5 150.5 Q40 187 40 236 Q40 325 97 376.5 Q154 428 257 428 Q315 428 352 411 Q389 394 426 355 Q445 377 463 391 Q481 405 500.5 413.5 Q520 422 543.5 425 Q567 428 597 428 Q698 428 755 376.5 Q812 325 812 236 Q812 187 793.5 150.5 Q775 114 744.5 90.5 Q714 67 675.5 55.5 Q637 44 597 44 Z M257 273 Q248 273 237.5 271.5 Q227 270 218 266 Q209 262 203 254.5 Q197 247 197 235 Q197 217 214.5 208 Q232 199 257 199 Q284 199 306 204 Q328 209 351 229 Q331 251 306 262 Q281 273 257 273 Z M597 273 Q571 273 546.5 262 Q522 251 501 228 Q526 207 547.5 203 Q569 199 597 199 Q622 199 639.5 208 Q657 217 657 235 Q657 247 651 254.5 Q645 262 636 266 Q627 270 616.5 271.5 Q606 273 597 273 Z " />
<glyph glyph-name="integral" unicode="&#x222b;" horiz-adv-x="465" d="M311 -48 Q311 -69 306.5 -95.5 Q302 -122 286 -144.5 Q270 -167 240 -182.5 Q210 -198 159 -198 Q129 -198 109.5 -195 Q90 -192 77 -187 Q64 -182 55.5 -176 Q47 -170 40 -164 L40 -45 Q57 -48 73 -51 Q87 -53 100 -55 Q113 -57 121 -57 Q137 -57 145.5 -49.5 Q154 -42 154 -22 L154 446 Q154 467 158.5 493.5 Q163 520 179 542.5 Q195 565 225 580.5 Q255 596 306 596 Q336 596 355.5 593 Q375 590 388 585 Q401 580 409.5 574 Q418 568 425 562 L425 443 Q408 446 392 449 Q378 451 365 453 Q352 455 344 455 Q328 455 319.5 447.5 Q311 440 311 420 L311 -48 Z " />
<glyph glyph-name="approxequal" unicode="&#x2248;" horiz-adv-x="411" d="M371 76 Q341 51 310.5 34.5 Q280 18 251 18 Q237 18 224.5 23 Q212 28 200 33.5 Q188 39 176 44 Q164 49 151 49 Q142 49 130.5 43.5 Q119 38 98 21 L40 140 Q70 165 97 179 Q124 193 151 193 Q165 193 178 188 Q191 183 203 177.5 Q215 172 227 167 Q239 162 252 162 Q271 162 312 194 L371 76 Z M371 263 Q341 238 310.5 221.5 Q280 205 251 205 Q237 205 224.5 210 Q212 215 200 220.5 Q188 226 176 231 Q164 236 151 236 Q142 236 130.5 230.5 Q119 225 98 208 L40 327 Q70 352 97 366 Q124 380 151 380 Q165 380 178 375 Q191 370 203 364.5 Q215 359 227 354 Q239 349 252 349 Q271 349 312 381 L371 263 Z " />
<glyph glyph-name="notequal" unicode="&#x2260;" horiz-adv-x="407" d="M285 231 L269 190 L367 190 L367 45 L216 45 L199 0 L52 0 L69 45 L40 45 L40 190 L123 190 L139 231 L40 231 L40 376 L193 376 L209 421 L354 421 L338 376 L367 376 L367 231 L285 231 Z " />
<glyph glyph-name="lessequal" unicode="&#x2264;" horiz-adv-x="431" d="M40 289 L40 445 L391 587 L391 418 L272 369 L391 322 L391 154 L40 289 Z M40 0 L40 137 L391 137 L391 0 L40 0 Z " />
<glyph glyph-name="greaterequal" unicode="&#x2265;" horiz-adv-x="431" d="M40 154 L40 322 L159 369 L40 418 L40 587 L391 445 L391 289 L40 154 Z M40 0 L40 137 L391 137 L391 0 L40 0 Z " />
<glyph glyph-name="lozenge" unicode="&#x25ca;" horiz-adv-x="496" d="M260 590 L456 302 L456 277 L263 0 L235 0 L40 277 L40 302 L236 590 L259 590 L260 590 Z M282 292 L249 339 L214 292 L248 242 L282 292 Z " />
<glyph glyph-name="uni25CC" unicode="&#x25cc;" horiz-adv-x="512" d="" />
<glyph glyph-name="fi" unicode="&#xfb01;" horiz-adv-x="577" d="M262 455 Q238 455 230.5 443.5 Q223 432 223 412 L223 405 L335 405 L335 257 L223 257 L223 0 L66 0 L66 257 L0 257 L0 405 L66 405 Q71 495 109.5 545.5 Q148 596 217 596 Q246 596 265 593 Q284 590 297.5 585 Q311 580 319.5 574.5 Q328 569 335 563 L335 450 Q320 451 306 453 Q293 454 281.5 454.5 Q270 455 262 455 Z M380 405 L537 405 L537 0 L380 0 L380 405 Z M380 582 L537 582 L537 439 L380 439 L380 582 Z " />
<glyph glyph-name="fl" unicode="&#xfb02;" horiz-adv-x="594" d="M262 455 Q238 455 230.5 443.5 Q223 432 223 412 L223 405 L335 405 L335 257 L223 257 L223 0 L66 0 L66 257 L0 257 L0 405 L66 405 Q71 495 109.5 545.5 Q148 596 217 596 Q246 596 265 593 Q284 590 297.5 585 Q311 580 319.5 574.5 Q328 569 335 563 L335 450 Q320 451 306 453 Q293 454 281.5 454.5 Q270 455 262 455 Z M537 590 L380 590 L380 117 Q380 79 389.5 55.5 Q399 32 414.5 18.5 Q430 5 449 -0.5 Q468 -6 487 -6 L492 -6 Q514 -6 529 -2.5 Q544 1 554 6 Q566 11 573 18 L573 139 Q565 137 560.5 136 Q556 135 546 135 Q545 135 541 136 Q537 137 537 142 L537 590 Z " />
</font>
</svg>
