<?xml version="1.0" encoding="UTF-8"?>
<svg xmlns="http://www.w3.org/2000/svg" xmlns:xlink="http://www.w3.org/1999/xlink" version="1.2" >
<font id="Betm SemiBold Italic">
<font-face  font-family="Betm" units-per-em="1000" ascent="750" descent="-250" font-style="italic" font-weight="600" font-stretch="normal" cap-height="568" x-height="405" underline-position="-91" underline-thickness="35" />
<missing-glyph  horiz-adv-x="563" d="M27 0 L27 628 L536 628 L536 0 L27 0 Z M73 35 L73 46 L65 46 Q73 44 73 35 Z M490 590 L490 582 L498 582 Q490 582 490 590 Z M498 46 L490 46 L490 37 Q490 44 498 46 Z M65 582 L73 582 L73 590 Q71 582 65 582 Z M73 46 L490 46 L490 582 L73 582 L73 46 Z " />
<glyph glyph-name="space" unicode="&#x20;" horiz-adv-x="199" d="" />
<glyph glyph-name="exclam" unicode="&#x21;" horiz-adv-x="228" d="M98 174 Q103 216 105.5 253.5 Q108 291 113 333 L159 590 L277 590 L231 333 L190 174 L98 174 Z M64 53 Q69 78 88.5 95 Q108 112 133 112 Q158 112 172.5 95 Q187 78 182 53 Q177 28 157 11 Q137 -6 112 -6 Q87 -6 73 11 Q59 28 64 53 Z " />
<glyph glyph-name="quotedbl" unicode="&#x22;" horiz-adv-x="397" d="M159 590 L282 590 L240 420 L141 420 L159 590 Z M324 590 L446 590 L404 420 L305 420 L324 590 Z " />
<glyph glyph-name="numbersign" unicode="&#x23;" horiz-adv-x="806" d="M680 369 L600 225 L713 225 L693 113 L537 113 L476 0 L349 0 L410 113 L285 113 L224 0 L97 0 L158 113 L74 113 L94 225 L221 225 L253 283 L302 369 L191 369 L210 482 L364 482 L424 590 L553 590 L490 482 L616 482 L677 590 L803 590 L742 482 L835 482 L816 369 L680 369 Z M554 369 L427 369 L347 225 L473 225 L554 369 Z " />
<glyph glyph-name="dollar" unicode="&#x24;" horiz-adv-x="567" d="M541 165 Q527 89 474 49 Q421 9 342 -2 L322 -114 L203 -114 L223 -3 Q167 4 133 19.5 Q99 35 85 47 L102 143 Q135 133 167 125 Q197 118 226 112.5 Q255 107 278 107 Q289 107 311.5 108 Q334 109 357.5 114 Q381 119 399.5 131 Q418 143 422 164 Q425 182 402.5 196 Q380 210 345 223.5 Q310 237 269 253 Q228 269 194 291 Q160 313 140 344 Q120 375 128 418 Q136 463 155 494.5 Q174 526 200.5 546 Q227 566 259.5 576.5 Q292 587 328 591 L350 717 L469 717 L447 593 Q497 590 522 582 Q547 574 560 566 L541 459 Q511 465 483 471 Q456 475 430 478.5 Q404 482 383 482 Q365 482 342.5 480 Q320 478 300.5 472 Q281 466 266 454.5 Q251 443 248 425 Q245 405 267.5 390.5 Q290 376 325 362.5 Q360 349 401 334 Q442 319 476 296.5 Q510 274 529.5 242.5 Q549 211 541 165 Z " />
<glyph glyph-name="percent" unicode="&#x25;" horiz-adv-x="708" d="M505 590 L632 590 Q590 514 549 440.5 Q508 367 468 295 Q428 223 388 150 Q348 77 307 0 L182 0 L505 590 Z M244 454 Q263 454 270 460.5 Q277 467 280 484 Q283 501 278 508.5 Q273 516 254 516 Q236 516 229 508.5 Q222 501 219 484 Q216 467 221 460.5 Q226 454 244 454 Z M268 595 Q326 595 346.5 566.5 Q367 538 358 484 Q348 427 317.5 398 Q287 369 229 369 Q171 369 150.5 398 Q130 427 140 484 Q149 538 179.5 566.5 Q210 595 268 595 Z M557 79 Q576 79 583.5 85.5 Q591 92 594 109 Q597 126 592 133.5 Q587 141 568 141 Q550 141 543 133.5 Q536 126 533 109 Q530 92 534.5 85.5 Q539 79 557 79 Z M582 220 Q640 220 660.5 191.5 Q681 163 672 109 Q661 52 630.5 23 Q600 -6 542 -6 Q484 -6 463.5 23 Q443 52 454 109 Q463 163 493.5 191.5 Q524 220 582 220 Z " />
<glyph glyph-name="ampersand" unicode="&#x26;" horiz-adv-x="607" d="M376 477 Q363 477 346.5 474.5 Q330 472 315 465.5 Q300 459 288.5 447 Q277 435 274 417 Q270 393 277.5 380 Q285 367 297.5 361 Q310 355 326 353.5 Q342 352 354 352 L442 352 L454 425 L572 425 L560 352 L614 352 L594 239 L540 239 L527 169 Q523 145 508 115.5 Q493 86 465 60.5 Q437 35 395 17.5 Q353 0 294 0 L271 0 Q213 0 174.5 17.5 Q136 35 114.5 60.5 Q93 86 86.5 115.5 Q80 145 84 169 Q93 220 126.5 255 Q160 290 202 302 Q170 325 161 358 Q152 391 157 420 Q166 473 191.5 506 Q217 539 250 558 Q283 577 320 583.5 Q357 590 388 590 L457 590 Q447 560 437.5 532.5 Q428 505 420 477 L376 477 Z M314 113 Q326 113 341.5 115 Q357 117 371 123.5 Q385 130 396 143.5 Q407 157 411 180 L422 239 L303 239 Q286 239 270 236.5 Q254 234 240.5 227.5 Q227 221 217 209.5 Q207 198 204 180 Q200 157 208 143.5 Q216 130 230 123.5 Q244 117 260.5 115 Q277 113 289 113 L314 113 Z " />
<glyph glyph-name="quotesingle" unicode="&#x27;" horiz-adv-x="233" d="M159 590 L282 590 L240 420 L141 420 L159 590 Z " />
<glyph glyph-name="parenleft" unicode="&#x28;" horiz-adv-x="327" d="M101 261 Q121 373 165 491.5 Q209 610 281 724 L399 724 Q326 609 282 490 Q238 371 219 262 Q199 153 201.5 32 Q204 -89 236 -204 L118 -204 Q86 -91 83.5 29.5 Q81 150 101 261 Z " />
<glyph glyph-name="parenright" unicode="&#x29;" horiz-adv-x="327" d="M318 261 Q298 150 253.5 29.5 Q209 -91 137 -204 L19 -204 Q92 -89 136 32 Q180 153 200 262 Q219 371 216.5 490 Q214 609 182 724 L300 724 Q332 610 335 491.5 Q338 373 318 261 Z " />
<glyph glyph-name="asterisk" unicode="&#x2a;" horiz-adv-x="444" d="M378 590 L349 481 L443 524 L465 433 L357 396 L409 320 L317 258 L280 333 L217 258 L147 320 L225 396 L131 433 L185 524 L263 481 L274 590 L378 590 Z " />
<glyph glyph-name="plus" unicode="&#x2b;" horiz-adv-x="448" d="M330 267 L440 267 L422 165 L312 165 L291 51 L173 51 L194 165 L84 165 L102 267 L212 267 L232 381 L350 381 L330 267 Z " />
<glyph glyph-name="comma" unicode="&#x2c;" horiz-adv-x="215" d="M107 -90 L14 -90 Q24 -64 33 -41.5 Q42 -19 50.5 2.5 Q59 24 68 46.5 Q77 69 87 94 L201 94 L107 -90 Z " />
<glyph glyph-name="hyphen" unicode="&#x2d;" horiz-adv-x="441" d="M83 163 L103 276 L434 276 L414 163 L83 163 Z " />
<glyph glyph-name="period" unicode="&#x2e;" horiz-adv-x="229" d="M71 94 L190 94 L172 -6 L53 -6 L71 94 Z " />
<glyph glyph-name="slash" unicode="&#x2f;" horiz-adv-x="587" d="M533 724 L659 724 Q528 487 402 260 Q276 33 145 -204 L19 -204 L533 724 Z " />
<glyph glyph-name="zero" unicode="0" horiz-adv-x="582" d="M310 107 Q334 107 358.5 113.5 Q383 120 404.5 141 Q426 162 443.5 200 Q461 238 472 301 Q481 356 479 391 Q477 426 464.5 446.5 Q452 467 429 474.5 Q406 482 374 482 Q343 482 318 474.5 Q293 467 273.5 446.5 Q254 426 239.5 391 Q225 356 216 301 Q205 238 208.5 200 Q212 162 226 141 Q240 120 262 113.5 Q284 107 308 107 L310 107 Z M288 -6 Q248 -6 207 7 Q166 20 136 54.5 Q106 89 93.5 149 Q81 209 98 304 Q112 384 142.5 439.5 Q173 495 213 529.5 Q253 564 300 579.5 Q347 595 395 595 Q443 595 485 579.5 Q527 564 555 529.5 Q583 495 593.5 439.5 Q604 384 590 304 Q573 209 539 149 Q505 89 463 54.5 Q421 20 375.5 7 Q330 -6 290 -6 L288 -6 Z " />
<glyph glyph-name="one" unicode="1" horiz-adv-x="347" d="M105 513 L269 590 L396 590 L292 0 L174 0 L255 463 L81 379 L105 513 Z " />
<glyph glyph-name="two" unicode="2" horiz-adv-x="496" d="M58 104 Q67 156 96 193.5 Q125 231 162.5 258 Q200 285 242 304.5 Q284 324 320 341 Q356 358 381 375 Q406 392 410 414 Q413 433 405.5 446 Q398 459 383.5 467 Q369 475 350 478.5 Q331 482 312 482 Q291 482 266.5 478.5 Q242 475 219 470 Q196 465 176.5 459.5 Q157 454 145 451 L164 556 Q187 569 226.5 582 Q266 595 341 595 Q386 595 424.5 587 Q463 579 489.5 558.5 Q516 538 527 504 Q538 470 529 418 Q521 374 494 341.5 Q467 309 430 284.5 Q393 260 352 240.5 Q311 221 275 202 Q239 183 213.5 162 Q188 141 183 113 L472 113 L453 0 L40 0 L58 104 Z " />
<glyph glyph-name="three" unicode="3" horiz-adv-x="505" d="M300 352 Q312 352 326.5 353.5 Q341 355 354 361 Q367 367 377.5 380 Q388 393 392 417 Q395 435 386 447.5 Q377 460 362 467.5 Q347 475 330 478.5 Q313 482 300 482 Q278 482 252 478.5 Q226 475 201.5 470 Q177 465 156.5 460 Q136 455 124 452 L143 558 Q156 564 172 570.5 Q188 577 209.5 582.5 Q231 588 260.5 591.5 Q290 595 329 595 Q360 595 396 587.5 Q432 580 460.5 560.5 Q489 541 504.5 507 Q520 473 511 420 Q506 391 487 358 Q468 325 424 302 Q462 292 482.5 255.5 Q503 219 493 162 Q488 135 468.5 105.5 Q449 76 415.5 51 Q382 26 336 10 Q290 -6 231 -6 Q192 -6 163 -2.5 Q134 1 113 6.5 Q92 12 77 18.5 Q62 25 50 31 L69 137 Q102 129 134 122 Q163 116 192 111.5 Q221 107 243 107 Q255 107 276 110 Q297 113 318.5 121 Q340 129 357 143 Q374 157 378 180 Q381 199 375.5 210.5 Q370 222 359.5 228.5 Q349 235 335 237 Q321 239 308 239 L186 239 Q197 269 208.5 296 Q220 323 232 352 L300 352 Z " />
<glyph glyph-name="four" unicode="4" horiz-adv-x="523" d="M327 163 L53 163 L74 283 L371 590 L521 590 L465 276 L546 276 L526 163 L445 163 L417 0 L299 0 L327 163 Z M347 276 L376 440 L218 276 L347 276 Z " />
<glyph glyph-name="five" unicode="5" horiz-adv-x="507" d="M354 376 Q382 376 413.5 367.5 Q445 359 469.5 338 Q494 317 507 282 Q520 247 511 194 Q499 125 468 85 Q437 45 400 25 Q363 5 325.5 -0.5 Q288 -6 262 -6 L254 -6 Q228 -6 194 -1 Q160 4 131.5 21.5 Q103 39 86 72.5 Q69 106 78 163 L196 163 Q195 144 203.5 132.5 Q212 121 224.5 115.5 Q237 110 251.5 108.5 Q266 107 278 107 Q290 107 307 108 Q324 109 341 117 Q358 125 372 142 Q386 159 392 191 Q398 226 374.5 245 Q351 264 312 264 Q304 264 289.5 263.5 Q275 263 259 260.5 Q243 258 227 254 Q211 250 200 242 L93 249 L154 590 L535 590 L515 477 L252 477 L229 350 Q243 358 262 363 Q281 368 299 371 Q317 374 332 375 Q347 376 354 376 Z " />
<glyph glyph-name="six" unicode="6" horiz-adv-x="512" d="M348 376 Q380 376 413.5 367 Q447 358 472.5 336 Q498 314 511 278.5 Q524 243 515 190 Q504 127 474 88.5 Q444 50 406.5 29 Q369 8 331 1 Q293 -6 267 -6 L259 -6 Q232 -6 196.5 1 Q161 8 131 29 Q101 50 84 88.5 Q67 127 78 189 L101 321 Q127 464 198 529.5 Q269 595 382 595 Q440 595 479.5 587 Q519 579 532 569 L514 468 Q481 472 453 475 Q428 478 406.5 480 Q385 482 377 482 Q341 482 315.5 474 Q290 466 272 449.5 Q254 433 242.5 407 Q231 381 223 344 Q265 366 298.5 371 Q332 376 348 376 Z M283 107 Q295 107 312.5 109 Q330 111 347 119.5 Q364 128 378 144 Q392 160 397 188 Q402 214 394 229.5 Q386 245 372 252.5 Q358 260 341 262 Q324 264 311 264 Q298 264 280.5 262 Q263 260 245.5 252.5 Q228 245 214.5 229.5 Q201 214 196 188 Q191 161 199.5 145 Q208 129 222.5 120.5 Q237 112 254 109.5 Q271 107 283 107 Z " />
<glyph glyph-name="seven" unicode="7" horiz-adv-x="451" d="M134 590 L540 590 L518 470 L215 0 L85 0 L390 477 L114 477 L134 590 Z " />
<glyph glyph-name="eight" unicode="8" horiz-adv-x="544" d="M332 345 Q345 345 361 347 Q377 349 391.5 356.5 Q406 364 417.5 378 Q429 392 433 416 Q437 437 430 449.5 Q423 462 410.5 469.5 Q398 477 383 479.5 Q368 482 356 482 Q344 482 328 479.5 Q312 477 297.5 469.5 Q283 462 272 449.5 Q261 437 257 416 Q253 392 259 378 Q265 364 277 356.5 Q289 349 304 347 Q319 345 332 345 Z M290 107 Q301 107 319.5 110 Q338 113 356 120.5 Q374 128 388.5 141 Q403 154 406 175 Q410 198 401 212 Q392 226 377 233.5 Q362 241 344.5 243.5 Q327 246 315 246 Q303 246 285 243.5 Q267 241 249 233.5 Q231 226 216.5 212 Q202 198 198 175 Q195 154 204.5 141 Q214 128 229.5 120.5 Q245 113 262 110 Q279 107 290 107 Z M266 -6 Q240 -6 204 0.5 Q168 7 137 26.5 Q106 46 88.5 82 Q71 118 81 177 Q94 254 175 300 Q149 323 140.5 351 Q132 379 138 414 Q149 473 176.5 508.5 Q204 544 238.5 563.5 Q273 583 309 589 Q345 595 372 595 L376 595 L380 595 Q407 595 440.5 589 Q474 583 502 563.5 Q530 544 545.5 508.5 Q561 473 550 414 Q544 379 526 351 Q508 323 473 300 Q538 255 525 177 Q515 118 484 82 Q453 46 415 26.5 Q377 7 338.5 0.5 Q300 -6 274 -6 L270 -6 L266 -6 Z " />
<glyph glyph-name="nine" unicode="9" horiz-adv-x="512" d="M267 213 Q236 213 202 222 Q168 231 142.5 253 Q117 275 104 310.5 Q91 346 100 399 Q111 462 141 500.5 Q171 539 208 560 Q245 581 283 588 Q321 595 347 595 L355 595 Q382 595 417.5 588 Q453 581 483.5 560 Q514 539 531 500.5 Q548 462 537 400 L514 268 Q488 125 416.5 59.5 Q345 -6 232 -6 Q174 -6 135 2 Q96 10 83 20 L101 121 Q134 117 161 114 Q187 111 208 109 Q229 107 237 107 Q273 107 298.5 115 Q324 123 342 139.5 Q360 156 372 182 Q384 208 392 245 Q350 223 316.5 218 Q283 213 267 213 Z M331 482 Q319 482 301.5 480 Q284 478 267 469.5 Q250 461 236.5 445 Q223 429 218 401 Q214 375 221.5 359.5 Q229 344 243 336.5 Q257 329 274 327 Q291 325 304 325 Q317 325 335 327 Q353 329 370 336.5 Q387 344 401 359.5 Q415 375 419 401 Q424 428 415.5 444 Q407 460 392 468.5 Q377 477 360 479.5 Q343 482 331 482 Z " />
<glyph glyph-name="colon" unicode="&#x3a;" horiz-adv-x="229" d="M71 94 L190 94 L172 -6 L53 -6 L71 94 Z M123 386 L242 386 L224 286 L105 286 L123 386 Z " />
<glyph glyph-name="semicolon" unicode="&#x3b;" horiz-adv-x="265" d="M159 386 L278 386 L260 286 L141 286 L159 386 Z M132 -90 L39 -90 Q49 -64 58 -41.5 Q67 -19 75.5 2.5 Q84 24 93 46.5 Q102 69 112 94 L226 94 L132 -90 Z " />
<glyph glyph-name="less" unicode="&#x3c;" horiz-adv-x="437" d="M80 145 L103 275 L457 426 L432 288 L219 210 L405 132 L380 -6 L80 145 Z " />
<glyph glyph-name="equal" unicode="&#x3d;" horiz-adv-x="410" d="M91 206 L111 319 L411 319 L391 206 L91 206 Z M59 26 L79 139 L379 139 L359 26 L59 26 Z " />
<glyph glyph-name="greater" unicode="&#x3e;" horiz-adv-x="437" d="M53 -6 L78 132 L292 210 L105 288 L130 426 L430 275 L407 145 L53 -6 Z " />
<glyph glyph-name="question" unicode="&#x3f;" horiz-adv-x="501" d="M208 326 Q259 338 294 347 Q329 356 352 365.5 Q375 375 386.5 387 Q398 399 401 417 Q405 439 396 452 Q387 465 372 471.5 Q357 478 340 480 Q323 482 310 482 Q288 482 262 478.5 Q236 475 211.5 470 Q187 465 166.5 460 Q146 455 134 452 L153 560 L158 562 Q169 567 184 573 Q199 579 220 584.5 Q241 590 270.5 593.5 Q300 597 339 597 Q371 597 406.5 589 Q442 581 470 561 Q498 541 513.5 507 Q529 473 520 420 Q516 396 505 369.5 Q494 343 470.5 318.5 Q447 294 409 274 Q371 254 311 243 L297 163 L179 163 L208 326 Z M160 53 Q165 78 184.5 95 Q204 112 229 112 Q254 112 268.5 95 Q283 78 278 53 Q273 28 253 11 Q233 -6 208 -6 Q183 -6 169 11 Q155 28 160 53 Z " />
<glyph glyph-name="at" unicode="&#x40;" horiz-adv-x="693" d="M561 245 Q558 260 549 272 Q542 282 529 290 Q516 298 494 298 Q486 298 471.5 294 Q457 290 442 280 Q427 270 414 253 Q401 236 396 209 Q391 178 397 158 Q403 138 414.5 127 Q426 116 439 111.5 Q452 107 460 107 Q482 107 498 115.5 Q514 124 525 134 Q537 145 546 160 L561 245 Z M638 0 L531 0 L528 39 Q511 21 493 12 Q475 3 458.5 -1 Q442 -5 428 -5.5 Q414 -6 403 -6 Q376 -6 349.5 4.5 Q323 15 303.5 39.5 Q284 64 275.5 105.5 Q267 147 278 209 Q287 262 307.5 300 Q328 338 355 363 Q382 388 414 399.5 Q446 411 477 411 Q488 411 501.5 410.5 Q515 410 529.5 406 Q544 402 558.5 393.5 Q573 385 585 369 Q594 424 584.5 458.5 Q575 493 553 512 Q531 531 501 537.5 Q471 544 441 544 Q411 544 379 536.5 Q347 529 318.5 509.5 Q290 490 268.5 455 Q247 420 237 365 L190 97 Q181 44 189.5 9.5 Q198 -25 217.5 -46 Q237 -67 264.5 -76.5 Q292 -86 321 -87 L302 -198 Q255 -195 207.5 -181 Q160 -167 124.5 -135.5 Q89 -104 72 -53 Q55 -2 68 75 L119 368 Q133 449 170 504 Q207 559 255.5 593 Q304 627 358.5 642 Q413 657 461 657 Q509 657 558 642 Q607 627 644 593 Q681 559 698.5 504 Q716 449 702 368 L638 0 Z " />
<glyph glyph-name="A" unicode="A" horiz-adv-x="593" d="M578 0 L451 0 L427 129 L211 129 L144 0 L15 0 L338 590 L465 590 L578 0 Z M272 240 L407 240 L371 422 L272 240 Z " />
<glyph glyph-name="B" unicode="B" horiz-adv-x="541" d="M340 349 Q352 349 366.5 351 Q381 353 394.5 359.5 Q408 366 418.5 379.5 Q429 393 433 417 Q436 435 430.5 447 Q425 459 414.5 465.5 Q404 472 390 474.5 Q376 477 363 477 L257 477 L234 349 L340 349 Z M326 113 Q338 113 352.5 115 Q367 117 380.5 123.5 Q394 130 404.5 143.5 Q415 157 419 180 Q422 199 416.5 211 Q411 223 400.5 230 Q390 237 376 240 Q362 243 349 243 L215 243 L192 113 L326 113 Z M55 0 L159 590 L391 590 Q423 590 455 583.5 Q487 577 512 558 Q537 539 549 506 Q561 473 552 420 Q547 391 525.5 358 Q504 325 465 302 Q503 290 523.5 255 Q544 220 535 169 Q531 145 516.5 115.5 Q502 86 474.5 60.5 Q447 35 405.5 17.5 Q364 0 306 0 L55 0 Z " />
<glyph glyph-name="C" unicode="C" horiz-adv-x="543" d="M405 482 Q375 482 342.5 474.5 Q310 467 282 446.5 Q254 426 232 391 Q210 356 201 301 Q190 238 201 200 Q212 162 234.5 141 Q257 120 286 113.5 Q315 107 339 107 Q373 107 406.5 113 Q440 119 475 143 L529 66 Q481 30 426 12 Q371 -6 321 -6 Q281 -6 232 7 Q183 20 144.5 54.5 Q106 89 86 149 Q66 209 83 304 Q97 384 134 439.5 Q171 495 220 529.5 Q269 564 323 579.5 Q377 595 426 595 Q477 595 525 579.5 Q573 564 608 526 Q586 503 567.5 485.5 Q549 468 527 446 Q501 470 470 476 Q439 482 405 482 Z " />
<glyph glyph-name="D" unicode="D" horiz-adv-x="576" d="M589 304 Q573 212 535.5 153 Q498 94 451 60 Q404 26 354.5 13 Q305 0 265 0 L55 0 L159 590 L357 590 Q405 590 452.5 575.5 Q500 561 535 527.5 Q570 494 586.5 439 Q603 384 589 304 Z M271 113 Q296 113 326 119 Q356 125 384.5 144.5 Q413 164 436.5 201 Q460 238 471 301 Q480 355 472.5 389.5 Q465 424 445.5 443.5 Q426 463 398 470 Q370 477 339 477 L257 477 L192 113 L271 113 Z " />
<glyph glyph-name="E" unicode="E" horiz-adv-x="503" d="M257 477 L232 340 L465 340 L446 227 L213 227 L192 113 L477 113 L458 0 L55 0 L159 590 L562 590 L542 477 L257 477 Z " />
<glyph glyph-name="F" unicode="F" horiz-adv-x="498" d="M159 591 L562 591 L542 477 L257 477 L232 340 L465 340 L446 227 L213 227 L173 0 L55 0 L159 591 Z " />
<glyph glyph-name="G" unicode="G" horiz-adv-x="593" d="M589 322 L546 77 Q521 54 492 38 Q463 22 433.5 12.5 Q404 3 375 -1.5 Q346 -6 321 -6 Q281 -6 232 7 Q183 20 144.5 54.5 Q106 89 86 149 Q66 209 83 304 Q97 384 134 439.5 Q171 495 220 529.5 Q269 564 323 579.5 Q377 595 426 595 Q477 595 525 579.5 Q573 564 608 526 Q586 503 567.5 485.5 Q549 468 527 446 Q501 470 470 476 Q439 482 405 482 Q375 482 342.5 474.5 Q310 467 282 446.5 Q254 426 232 391 Q210 356 201 301 Q190 238 201 200 Q212 162 234.5 141 Q257 120 286 113.5 Q315 107 339 107 Q364 107 388 112.5 Q412 118 438 131 L451 209 L368 209 L388 322 L589 322 Z " />
<glyph glyph-name="H" unicode="H" horiz-adv-x="591" d="M640 590 L536 0 L418 0 L458 228 L213 228 L173 0 L55 0 L159 590 L277 590 L233 341 L478 341 L522 590 L640 590 Z " />
<glyph glyph-name="I" unicode="I" horiz-adv-x="228" d="M159 590 L277 590 L173 0 L55 0 L159 590 Z " />
<glyph glyph-name="J" unicode="J" horiz-adv-x="466" d="M397 590 L515 590 L446 204 Q434 137 403.5 96 Q373 55 335.5 33 Q298 11 259.5 3 Q221 -5 193 -6 Q177 -6 155.5 -4.5 Q134 -3 111 3 Q88 9 64 20.5 Q40 32 19 53 L85 134 Q122 114 152.5 110.5 Q183 107 201 107 Q213 107 232 109 Q251 111 270.5 120.5 Q290 130 306.5 150 Q323 170 329 206 L397 590 Z " />
<glyph glyph-name="K" unicode="K" horiz-adv-x="558" d="M557 0 L404 0 L220 269 L173 0 L55 0 L159 590 L277 590 L230 328 L509 590 L667 590 L356 299 L557 0 Z " />
<glyph glyph-name="L" unicode="L" horiz-adv-x="467" d="M192 113 L456 113 L437 0 L55 0 L159 590 L277 590 L192 113 Z " />
<glyph glyph-name="M" unicode="M" horiz-adv-x="666" d="M308 123 L227 305 L174 0 L55 0 L159 590 L242 590 L381 276 L632 590 L715 590 L611 0 L492 0 L545 305 L400 123 L308 123 Z " />
<glyph glyph-name="N" unicode="N" horiz-adv-x="610" d="M240 380 L173 0 L55 0 L159 590 L273 590 L471 203 L540 590 L659 590 L555 0 L432 0 L240 380 Z " />
<glyph glyph-name="O" unicode="O" horiz-adv-x="646" d="M341 107 Q365 107 395 113.5 Q425 120 453.5 141 Q482 162 506 200 Q530 238 541 301 Q550 356 542 391 Q534 426 514 446.5 Q494 467 465.5 474.5 Q437 482 407 482 Q377 482 346 474.5 Q315 467 288 446.5 Q261 426 240.5 391 Q220 356 211 301 Q200 238 210 200 Q220 162 241 141 Q262 120 289.5 113.5 Q317 107 341 107 Z M321 -6 Q281 -6 233.5 7 Q186 20 149.5 54.5 Q113 89 94.5 149 Q76 209 93 304 Q107 384 143 439.5 Q179 495 226 529.5 Q273 564 326 579.5 Q379 595 427 595 Q475 595 523 579.5 Q571 564 606 529.5 Q641 495 657 439.5 Q673 384 659 304 Q642 209 602.5 149 Q563 89 514 54.5 Q465 20 413.5 7 Q362 -6 321 -6 Z " />
<glyph glyph-name="P" unicode="P" horiz-adv-x="534" d="M154 590 L428 590 Q460 590 491.5 578.5 Q523 567 546 543 Q569 519 580 481 Q591 443 582 390 Q571 327 546.5 286 Q522 245 490.5 221.5 Q459 198 424 188.5 Q389 179 358 179 L199 179 L168 0 L50 0 L154 590 Z M252 477 L219 292 L374 292 Q387 292 400.5 295.5 Q414 299 426.5 309.5 Q439 320 449 339.5 Q459 359 464 390 Q469 416 465.5 433 Q462 450 453.5 459.5 Q445 469 433 473 Q421 477 407 477 L252 477 Z " />
<glyph glyph-name="Q" unicode="Q" horiz-adv-x="646" d="M659 304 Q644 218 610 160.5 Q576 103 532.5 67.5 Q489 32 441.5 16 Q394 0 353 -4 L438 -157 L314 -157 L219 12 Q188 24 160 46 Q132 68 113 103 Q94 138 87.5 187.5 Q81 237 93 304 Q107 384 143 439.5 Q179 495 226 529.5 Q273 564 326 579.5 Q379 595 427 595 Q475 595 523 579.5 Q571 564 606 529.5 Q641 495 657 439.5 Q673 384 659 304 Z M341 107 Q365 107 395 113.5 Q425 120 453.5 141 Q482 162 506 200 Q530 238 541 301 Q550 356 542 391 Q534 426 514 446.5 Q494 467 465.5 474.5 Q437 482 407 482 Q377 482 346 474.5 Q315 467 288 446.5 Q261 426 240.5 391 Q220 356 211 301 Q200 238 210 200 Q220 162 241 141 Q262 120 289.5 113.5 Q317 107 341 107 Z " />
<glyph glyph-name="R" unicode="R" horiz-adv-x="546" d="M576 398 Q573 379 563.5 354 Q554 329 538 305.5 Q522 282 498.5 262.5 Q475 243 444 235 Q458 223 467.5 211 Q477 199 483 184 Q489 169 493.5 149.5 Q498 130 502 104 L519 0 L394 0 L377 108 Q369 156 351.5 176 Q334 196 308 196 L207 196 L173 0 L55 0 L159 590 L419 590 Q451 590 482.5 580 Q514 570 538 547.5 Q562 525 573.5 488 Q585 451 576 398 Z M368 309 Q381 309 394.5 310.5 Q408 312 420 320.5 Q432 329 441.5 346.5 Q451 364 457 395 Q462 421 458 437 Q454 453 445.5 462 Q437 471 424.5 474.5 Q412 478 398 478 L257 478 L227 309 L368 309 Z " />
<glyph glyph-name="S" unicode="S" horiz-adv-x="517" d="M369 595 Q408 595 435.5 592 Q463 589 482.5 585 Q502 581 514.5 576 Q527 571 535 566 L516 459 Q486 465 458 471 Q431 475 405 478.5 Q379 482 358 482 Q340 482 317.5 480 Q295 478 275.5 472 Q256 466 241 454.5 Q226 443 223 425 Q220 405 242.5 390.5 Q265 376 300 362.5 Q335 349 376 334 Q417 319 451 296.5 Q485 274 504.5 242.5 Q524 211 516 165 Q508 120 485.5 88 Q463 56 429 35 Q395 14 351.5 4 Q308 -6 257 -6 Q216 -6 183 -0.5 Q150 5 125.5 13 Q101 21 85 30.5 Q69 40 60 47 L77 143 Q110 133 142 125 Q172 118 201 112.5 Q230 107 253 107 Q264 107 286.5 108 Q309 109 332.5 114 Q356 119 374.5 131 Q393 143 397 164 Q400 182 377.5 196 Q355 210 320 223.5 Q285 237 244 253 Q203 269 169 291 Q135 313 115 344 Q95 375 103 418 Q113 474 139 508.5 Q165 543 201 562.5 Q237 582 280.5 588.5 Q324 595 369 595 Z " />
<glyph glyph-name="T" unicode="T" horiz-adv-x="514" d="M134 590 L588 590 L568 477 L400 477 L316 0 L198 0 L282 477 L114 477 L134 590 Z " />
<glyph glyph-name="U" unicode="U" horiz-adv-x="590" d="M293 -6 Q253 -6 212.5 4.5 Q172 15 142 44.5 Q112 74 99.5 127.5 Q87 181 102 269 L159 590 L277 590 L221 274 Q212 225 216.5 192.5 Q221 160 234 141 Q247 122 268 114.5 Q289 107 313 107 Q337 107 361 114.5 Q385 122 405 141 Q425 160 440.5 192.5 Q456 225 465 274 L521 590 L639 590 L582 269 Q567 181 535 127.5 Q503 74 463 44.5 Q423 15 378.5 4.5 Q334 -6 293 -6 Z " />
<glyph glyph-name="V" unicode="V" horiz-adv-x="593" d="M555 590 L682 590 L361 0 L234 0 L119 590 L248 590 L326 168 L555 590 Z " />
<glyph glyph-name="W" unicode="W" horiz-adv-x="796" d="M605 197 L757 590 L880 590 L649 0 L504 0 L462 367 L292 0 L147 0 L124 590 L247 590 L259 197 L445 590 L559 590 L605 197 Z " />
<glyph glyph-name="X" unicode="X" horiz-adv-x="542" d="M152 0 L11 0 Q69 71 132.5 146.5 Q196 222 254 293 L114 590 L254 590 L342 404 L496 590 L636 590 L390 293 Q424 222 460.5 146.5 Q497 71 531 0 L390 0 L302 180 L152 0 Z " />
<glyph glyph-name="Y" unicode="Y" horiz-adv-x="574" d="M531 590 L668 590 L381 199 L346 0 L228 0 L263 199 L114 590 L251 590 L344 334 L531 590 Z " />
<glyph glyph-name="Z" unicode="Z" horiz-adv-x="502" d="M140 590 L571 590 L552 486 L202 113 L486 113 L467 0 L35 0 L54 113 L396 477 L120 477 L140 590 Z " />
<glyph glyph-name="bracketleft" unicode="&#x5b;" horiz-adv-x="340" d="M156 -91 L268 -91 L249 -204 L19 -204 L182 724 L412 724 L392 611 L280 611 L156 -91 Z " />
<glyph glyph-name="backslash" unicode="&#x5c;" horiz-adv-x="587" d="M496 -204 L370 -204 Q322 33 275.5 260 Q229 487 182 724 L308 724 L496 -204 Z " />
<glyph glyph-name="bracketright" unicode="&#x5d;" horiz-adv-x="340" d="M274 611 L162 611 L182 724 L412 724 L249 -204 L19 -204 L38 -91 L150 -91 L274 611 Z " />
<glyph glyph-name="asciicircum" unicode="&#x5e;" horiz-adv-x="469" d="M415 590 Q430 530 445.5 474.5 Q461 419 477 361 L351 361 L321 496 Q314 482 304 464.5 Q294 447 283.5 429 Q273 411 262.5 393.5 Q252 376 245 361 L118 361 Q155 421 189.5 475.5 Q224 530 261 590 L415 590 Z " />
<glyph glyph-name="underscore" unicode="&#x5f;" horiz-adv-x="441" d="M36 -105 L53 -6 L384 -6 L367 -105 L36 -105 Z " />
<glyph glyph-name="grave" unicode="&#x60;" horiz-adv-x="277" d="M159 591 L279 591 Q283 548 287.5 508.5 Q292 469 297 426 L196 426 L159 591 Z " />
<glyph glyph-name="a" unicode="a" horiz-adv-x="454" d="M404 0 L293 0 L292 39 Q276 22 256.5 13 Q237 4 219.5 -0.5 Q202 -5 187.5 -5.5 Q173 -6 165 -6 Q158 -6 136 -2 Q114 2 93 16 Q72 30 58.5 58.5 Q45 87 53 135 Q63 188 104.5 222.5 Q146 257 209 257 Q232 257 261 252 Q290 247 325 224 L327 238 Q329 251 326.5 262 Q324 273 313 281 Q302 289 281.5 293.5 Q261 298 226 298 Q213 298 197.5 297 Q182 296 167 294.5 Q152 293 138.5 291 Q125 289 116 288 L134 390 Q149 395 163 399 Q177 403 193.5 405.5 Q210 408 231 409.5 Q252 411 280 411 Q373 411 414.5 364 Q456 317 445 234 L404 0 Z M307 138 Q302 145 293 151 Q284 156 271 159.5 Q258 163 237 163 Q198 163 185.5 154 Q173 145 171 133 Q169 122 180.5 114.5 Q192 107 227 107 Q251 107 266 110 Q281 113 290 117 Q300 121 305 127 L307 138 Z " />
<glyph glyph-name="b" unicode="b" horiz-adv-x="481" d="M154 590 L272 590 L233 369 Q251 385 268 393.5 Q285 402 301 406 Q317 410 331 410.5 Q345 411 355 411 Q387 411 414 399.5 Q441 388 459.5 363 Q478 338 484.5 300 Q491 262 482 209 Q471 147 448.5 105.5 Q426 64 397.5 39.5 Q369 15 338.5 4.5 Q308 -6 281 -6 Q271 -6 256.5 -5.5 Q242 -5 227 -0.5 Q212 4 197.5 13 Q183 22 172 39 L157 0 L50 0 L154 590 Z M198 160 Q201 145 209 134 Q217 123 229.5 115 Q242 107 264 107 Q272 107 287 111.5 Q302 116 317 127 Q332 138 345.5 158 Q359 178 364 209 Q369 236 362.5 253 Q356 270 344.5 280 Q333 290 319.5 294 Q306 298 298 298 Q276 298 260 289.5 Q244 281 234 272 Q221 260 213 245 L198 160 Z " />
<glyph glyph-name="c" unicode="c" horiz-adv-x="415" d="M404 54 Q374 30 348.5 18 Q323 6 301 0.5 Q279 -5 261 -5.5 Q243 -6 226 -6 Q199 -5 166.5 5.5 Q134 16 108 40.5 Q82 65 68.5 105.5 Q55 146 66 207 Q75 261 101.5 299.5 Q128 338 161.5 363 Q195 388 231.5 399.5 Q268 411 298 411 Q314 411 332.5 409.5 Q351 408 371.5 402 Q392 396 413.5 384 Q435 372 456 352 Q439 330 422.5 310.5 Q406 291 389 269 Q356 289 333 293.5 Q310 298 293 298 Q280 298 263 294 Q246 290 230 279.5 Q214 269 201.5 252 Q189 235 184 208 Q179 177 185 157.5 Q191 138 203.5 126.5 Q216 115 231 111 Q246 107 259 107 Q277 107 300.5 111 Q324 115 366 135 Q376 113 386 93.5 Q396 74 404 54 Z " />
<glyph glyph-name="d" unicode="d" horiz-adv-x="481" d="M431 0 L324 0 L321 39 Q304 22 286 13 Q268 4 251.5 -0.5 Q235 -5 221 -5.5 Q207 -6 196 -6 Q169 -6 142.5 4.5 Q116 15 96.5 39.5 Q77 64 68.5 105.5 Q60 147 71 209 Q80 262 100.5 300 Q121 338 148 363 Q175 388 207 399.5 Q239 411 270 411 Q281 411 294.5 410.5 Q308 410 322.5 406 Q337 402 351.5 393.5 Q366 385 378 369 L417 590 L535 590 L431 0 Z M354 245 Q351 260 342 272 Q335 282 322 290 Q309 298 287 298 Q279 298 264.5 294 Q250 290 235 280 Q220 270 207 253 Q194 236 189 209 Q184 178 190 158 Q196 138 207.5 127 Q219 116 232 111.5 Q245 107 253 107 Q275 107 291 115.5 Q307 124 318 134 Q330 145 339 160 L354 245 Z " />
<glyph glyph-name="e" unicode="e" horiz-adv-x="451" d="M439 162 L181 162 Q182 150 185 139.5 Q188 129 198.5 120.5 Q209 112 229 107.5 Q249 103 283 103 Q291 103 306.5 104.5 Q322 106 340 108.5 Q358 111 375.5 113.5 Q393 116 405 117 L388 20 Q372 10 330 2 Q288 -6 229 -6 Q181 -6 147.5 10.5 Q114 27 94.5 55 Q75 83 69 121.5 Q63 160 70 203 Q78 246 99 284 Q120 322 150.5 350 Q181 378 220 394.5 Q259 411 302 411 Q344 411 375 397 Q406 383 425 358.5 Q444 334 450.5 300 Q457 266 450 226 L439 162 Z M336 246 Q334 269 320.5 283.5 Q307 298 274 298 Q244 298 222 281.5 Q200 265 196 246 L336 246 Z " />
<glyph glyph-name="f" unicode="f" horiz-adv-x="357" d="M363 496 Q328 496 309 480.5 Q290 465 282 423 L279 405 L408 405 L389 298 L260 298 L208 0 L90 0 L142 298 L67 298 L86 405 L161 405 L162 410 Q180 512 228.5 553.5 Q277 595 346 595 Q372 595 387.5 593 Q403 591 412 587.5 Q421 584 426.5 580 Q432 576 437 572 L423 490 Q411 492 399 493 Q389 494 379 495 Q369 496 363 496 Z " />
<glyph glyph-name="g" unicode="g" horiz-adv-x="486" d="M292 298 Q284 298 269.5 294 Q255 290 240 280 Q225 270 212 253 Q199 236 194 209 Q189 178 195 158 Q201 138 212.5 127 Q224 116 237 111.5 Q250 107 258 107 Q280 107 296 115.5 Q312 124 323 134 Q335 145 344 160 L359 245 Q359 247 356 255.5 Q353 264 345.5 273.5 Q338 283 325.5 290.5 Q313 298 292 298 Z M321 34 Q305 19 287.5 11 Q270 3 254.5 -1 Q239 -5 225 -5.5 Q211 -6 201 -6 Q174 -6 147.5 4.5 Q121 15 101.5 39.5 Q82 64 73.5 105.5 Q65 147 76 209 Q85 262 105.5 300 Q126 338 153 363 Q180 388 212 399.5 Q244 411 275 411 Q286 411 299 410 Q312 409 326 404 Q340 399 354 389 Q368 379 380 362 L396 405 L507 405 L435 -3 Q424 -67 395 -105.5 Q366 -144 330 -164.5 Q294 -185 257 -191.5 Q220 -198 193 -198 Q145 -198 107 -188.5 Q69 -179 43 -154 L94 -59 Q123 -75 157.5 -80 Q192 -85 209 -85 Q221 -85 237.5 -83.5 Q254 -82 269.5 -74 Q285 -66 297.5 -49 Q310 -32 316 0 L321 34 Z " />
<glyph glyph-name="h" unicode="h" horiz-adv-x="468" d="M50 0 L154 590 L272 590 L231 361 Q249 379 268 389.5 Q287 400 304.5 404.5 Q322 409 337 410 Q352 411 363 411 Q390 411 412.5 401 Q435 391 450 373.5 Q465 356 471 332.5 Q477 309 472 282 L423 0 L305 0 L348 247 Q353 276 336.5 287 Q320 298 302 298 Q281 298 265 290.5 Q249 283 237 274 Q225 265 218.5 256.5 Q212 248 211 246 L168 0 L50 0 Z " />
<glyph glyph-name="i" unicode="i" horiz-adv-x="228" d="M126 405 L244 405 L173 0 L55 0 L126 405 Z M154 566 L272 566 L253 458 L135 458 L154 566 Z " />
<glyph glyph-name="j" unicode="j" horiz-adv-x="228" d="M126 405 L244 405 L162 -57 Q159 -77 150 -101.5 Q141 -126 121.5 -147.5 Q102 -169 70.5 -183.5 Q39 -198 -9 -198 Q-60 -198 -79 -191 Q-98 -184 -107 -175 L-90 -76 Q-75 -79 -60 -81 Q-46 -82 -31.5 -83.5 Q-17 -85 -3 -85 Q12 -85 21 -81.5 Q30 -78 35.5 -70 Q41 -62 44.5 -48 Q48 -34 52 -13 L126 405 Z M154 566 L272 566 L253 458 L135 458 L154 566 Z " />
<glyph glyph-name="k" unicode="k" horiz-adv-x="457" d="M318 0 L204 205 L168 0 L50 0 L154 590 L272 590 L211 248 L365 405 L519 405 L339 224 L464 0 L318 0 Z " />
<glyph glyph-name="l" unicode="l" horiz-adv-x="249" d="M193 118 Q191 104 194 96 Q197 88 210 88 L229 88 L214 2 Q206 0 197 -2 Q188 -4 176.5 -5 Q165 -6 150 -6 L145 -6 Q129 -6 113.5 -2 Q98 2 87 14.5 Q76 27 71.5 50.5 Q67 74 74 113 L159 590 L277 590 L193 118 Z " />
<glyph glyph-name="m" unicode="m" horiz-adv-x="669" d="M568 411 Q623 411 652 369.5 Q681 328 669 260 L624 0 L506 0 L548 241 Q551 259 548 270.5 Q545 282 537.5 288 Q530 294 521 296 Q512 298 503 298 Q488 298 476 292 Q464 286 456 276.5 Q448 267 443 256 Q438 245 436 236 L395 0 L277 0 L320 247 Q325 276 309.5 287 Q294 298 277 298 Q255 298 242 288.5 Q229 279 221.5 267.5 Q214 256 211.5 246 Q209 236 209 235 L168 0 L50 0 L121 405 L226 405 L230 356 Q248 377 268 388 Q288 399 306 404 Q324 409 338.5 410 Q353 411 360 411 Q390 411 409 401 Q428 391 445 353 Q461 375 479.5 386.5 Q498 398 515.5 403.5 Q533 409 547 410 Q561 411 568 411 Z " />
<glyph glyph-name="n" unicode="n" horiz-adv-x="468" d="M50 0 L121 405 L232 405 L232 362 Q250 380 269 390 Q288 400 305 404.5 Q322 409 337 410 Q352 411 363 411 Q390 411 412.5 401 Q435 391 450 373.5 Q465 356 471 332.5 Q477 309 472 282 L423 0 L305 0 L348 247 Q353 276 336.5 287 Q320 298 302 298 Q280 298 263 290 Q246 282 235 272 Q221 261 211 246 L168 0 L50 0 Z " />
<glyph glyph-name="o" unicode="o" horiz-adv-x="471" d="M230 -6 Q203 -6 171 3.5 Q139 13 113 37 Q87 61 73.5 102 Q60 143 71 207 Q80 261 106.5 299.5 Q133 338 167 363 Q201 388 238.5 399.5 Q276 411 309 411 Q341 411 374 399.5 Q407 388 432 363 Q457 338 469 299.5 Q481 261 472 207 Q461 143 433 102 Q405 61 370.5 37 Q336 13 300.5 3.5 Q265 -6 238 -6 L230 -6 Z M254 107 Q267 107 282 110.5 Q297 114 311 124.5 Q325 135 336.5 154.5 Q348 174 354 205 Q359 232 354 249.5 Q349 267 339 278 Q329 289 315.5 293.5 Q302 298 288 298 Q274 298 258.5 293.5 Q243 289 229 278 Q215 267 204.5 249.5 Q194 232 189 205 Q183 174 188 154.5 Q193 135 203.5 124.5 Q214 114 227.5 110.5 Q241 107 254 107 Z " />
<glyph glyph-name="p" unicode="p" horiz-adv-x="481" d="M121 405 L232 405 L232 362 Q268 397 301 404 Q334 411 355 411 Q387 411 414 399.5 Q441 388 459.5 363 Q478 338 484.5 300 Q491 262 482 209 Q471 147 448.5 105.5 Q426 64 397.5 39.5 Q369 15 338.5 4.5 Q308 -6 281 -6 Q271 -6 257.5 -5.5 Q244 -5 229.5 -1 Q215 3 200.5 11 Q186 19 175 34 L137 -185 L17 -185 L121 405 Z M298 298 Q277 298 262 290.5 Q247 283 236.5 273.5 Q226 264 220 255.5 Q214 247 213 245 L198 160 Q201 145 209 134 Q217 123 229.5 115 Q242 107 264 107 Q272 107 287 111.5 Q302 116 317 127 Q332 138 345.5 158 Q359 178 364 209 Q369 236 362.5 253 Q356 270 344.5 280 Q333 290 319.5 294 Q306 298 298 298 Z " />
<glyph glyph-name="q" unicode="q" horiz-adv-x="481" d="M398 -185 L278 -185 L316 34 Q300 19 282.5 11 Q265 3 249.5 -1 Q234 -5 220 -5.5 Q206 -6 196 -6 Q169 -6 142.5 4.5 Q116 15 96.5 39.5 Q77 64 68.5 105.5 Q60 147 71 209 Q80 262 100.5 300 Q121 338 148 363 Q175 388 207 399.5 Q239 411 270 411 Q281 411 294 410 Q307 409 321 404 Q335 399 349 389 Q363 379 375 362 L391 405 L502 405 L398 -185 Z M287 298 Q279 298 264.5 294 Q250 290 235 280 Q220 270 207 253 Q194 236 189 209 Q184 178 190 158 Q196 138 207.5 127 Q219 116 232 111.5 Q245 107 253 107 Q275 107 291 115.5 Q307 124 318 134 Q330 145 339 160 L354 245 Q354 247 351 255.5 Q348 264 340.5 273.5 Q333 283 320.5 290.5 Q308 298 287 298 Z " />
<glyph glyph-name="r" unicode="r" horiz-adv-x="332" d="M369 296 Q354 298 337 298 Q320 298 313 298 Q279 298 258.5 287 Q238 276 226 263 Q213 248 208 228 L168 0 L50 0 L121 405 L225 405 L229 361 Q248 380 265.5 390 Q283 400 297.5 404.5 Q312 409 322.5 410 Q333 411 338 411 Q377 411 388 407 L369 296 Z " />
<glyph glyph-name="s" unicode="s" horiz-adv-x="401" d="M277 411 Q334 411 364.5 403.5 Q395 396 407 386 L389 284 Q368 288 347 291 Q328 294 309 296 Q290 298 274 298 Q235 298 219 296 Q203 294 201 286 Q200 280 216 273.5 Q232 267 255.5 259.5 Q279 252 307 241 Q335 230 357.5 214.5 Q380 199 393 178 Q406 157 401 129 Q390 66 339.5 30 Q289 -6 204 -6 Q147 -6 108.5 6.5 Q70 19 58 29 L75 130 Q99 124 123 119 Q144 114 165 110.5 Q186 107 203 107 L210 107 Q219 107 230.5 107 Q242 107 252.5 108.5 Q263 110 270 112.5 Q277 115 278 119 Q280 128 264 133.5 Q248 139 224 146 Q200 153 172 162.5 Q144 172 121.5 187.5 Q99 203 86.5 226.5 Q74 250 80 285 Q86 318 105.5 342 Q125 366 152.5 381.5 Q180 397 213 404 Q246 411 277 411 Z " />
<glyph glyph-name="t" unicode="t" horiz-adv-x="350" d="M62 298 L74 367 Q128 414 173 456.5 Q218 499 273 545 L289 545 L264 405 L391 405 L372 298 L245 298 L222 165 Q218 144 220.5 132.5 Q223 121 230.5 115.5 Q238 110 251 108.5 Q264 107 281 107 Q295 107 311 109 Q327 111 339 113 L323 21 Q317 17 310 12 Q303 7 292 3 Q281 -1 264.5 -3.5 Q248 -6 222 -6 Q174 -6 147 8.5 Q120 23 108.5 46.5 Q97 70 97 100 Q97 130 103 162 L127 298 L62 298 Z " />
<glyph glyph-name="u" unicode="u" horiz-adv-x="468" d="M489 405 L418 0 L307 0 L306 43 Q288 25 269 15 Q250 5 233 0.5 Q216 -4 201 -5 Q186 -6 175 -6 Q148 -6 125.5 4 Q103 14 88.5 31.5 Q74 49 68 72.5 Q62 96 66 123 L116 405 L234 405 L190 158 Q185 129 201.5 118 Q218 107 236 107 Q258 107 275 115 Q292 123 304 133 Q318 144 328 159 L371 405 L489 405 Z " />
<glyph glyph-name="v" unicode="v" horiz-adv-x="442" d="M157 0 L81 405 L206 405 L244 134 L378 405 L503 405 L285 0 L157 0 Z " />
<glyph glyph-name="w" unicode="w" horiz-adv-x="650" d="M471 136 L582 405 L706 405 Q659 302 613.5 203 Q568 104 521 0 L382 0 L353 163 L268 0 L129 0 Q118 104 107.5 203 Q97 302 86 405 L210 405 L225 136 L352 405 L440 405 L471 136 Z " />
<glyph glyph-name="x" unicode="x" horiz-adv-x="424" d="M147 0 L10 0 L176 203 L81 405 L222 405 L264 297 L344 405 L485 405 L318 203 L414 0 L277 0 L231 113 L147 0 Z " />
<glyph glyph-name="y" unicode="y" horiz-adv-x="442" d="M160 11 Q143 108 125.5 208 Q108 308 91 405 L216 405 L245 158 L376 405 L508 405 L223 -79 Q180 -150 141.5 -174 Q103 -198 65 -198 Q34 -198 16 -195.5 Q-2 -193 -8 -191 L8 -91 Q11 -91 17.5 -91.5 Q24 -92 30.5 -92 Q37 -92 42.5 -92 Q48 -92 49 -92 Q53 -92 62 -91 Q71 -90 81.5 -86 Q92 -82 104 -73.5 Q116 -65 126 -51 L160 11 Z " />
<glyph glyph-name="z" unicode="z" horiz-adv-x="418" d="M116 405 L444 405 L424 291 L218 107 L391 107 L373 0 L45 0 L65 114 L270 298 L97 298 L116 405 Z " />
<glyph glyph-name="braceleft" unicode="&#x7b;" horiz-adv-x="483" d="M155 301 Q169 301 183.5 303.5 Q198 306 210.5 313 Q223 320 233 332 Q243 344 246 363 L285 585 Q288 605 297 629 Q306 653 324.5 674 Q343 695 373.5 709.5 Q404 724 452 724 Q503 724 522.5 716.5 Q542 709 551 701 L537 620 Q525 622 514 623 Q504 624 494 625 Q484 626 478 626 Q443 626 424 611.5 Q405 597 397 555 L367 384 Q358 333 327 296.5 Q296 260 248 247 Q292 233 310 197 Q328 161 319 110 L293 -35 Q286 -77 300 -92 Q314 -107 349 -107 Q362 -107 379.5 -105 Q397 -103 410 -101 L395 -182 Q383 -190 361.5 -197 Q340 -204 289 -204 Q241 -204 215.5 -189.5 Q190 -175 178.5 -154 Q167 -133 167 -109 Q167 -85 170 -66 L205 132 Q208 150 202.5 162 Q197 174 187 181 Q177 188 163.5 191 Q150 194 136 194 L89 194 L108 301 L155 301 Z " />
<glyph glyph-name="bar" unicode="&#x7c;" horiz-adv-x="228" d="M182 724 L300 724 L137 -204 L19 -204 L182 724 Z " />
<glyph glyph-name="braceright" unicode="&#x7d;" horiz-adv-x="483" d="M481 301 L462 194 L415 194 Q402 194 387 191 Q372 188 359 181 Q346 174 336.5 162 Q327 150 324 132 L289 -66 Q286 -85 277 -109 Q268 -133 249.5 -154 Q231 -175 200.5 -189.5 Q170 -204 122 -204 Q71 -204 51 -197 Q31 -190 22 -182 L37 -101 Q48 -103 65.5 -105 Q83 -107 96 -107 Q131 -107 150 -92 Q169 -77 176 -35 L202 110 Q211 161 242 197 Q273 233 321 247 Q277 260 259 296.5 Q241 333 250 384 L280 555 Q288 597 274 611.5 Q260 626 225 626 Q219 626 208.5 625 Q198 624 188 623 Q177 622 164 620 L178 701 Q190 709 212 716.5 Q234 724 285 724 Q333 724 358.5 709.5 Q384 695 395.5 674 Q407 653 407 629 Q407 605 404 585 L365 363 Q362 344 367 332 Q372 320 382.5 313 Q393 306 407 303.5 Q421 301 434 301 L481 301 Z " />
<glyph glyph-name="asciitilde" unicode="&#x7e;" horiz-adv-x="399" d="M370 151 Q345 134 319 122.5 Q293 111 269 111 Q254 111 241.5 116.5 Q229 122 217 128 Q205 134 192.5 139.5 Q180 145 165 145 Q151 145 139.5 141.5 Q128 138 114 130 L92 214 Q142 250 184 250 Q200 250 212.5 244.5 Q225 239 237 232.5 Q249 226 261.5 220.5 Q274 215 289 215 Q304 215 318 220 Q332 225 347 234 L370 151 Z " />
<glyph glyph-name="uni00A0" unicode="&#xa0;" horiz-adv-x="199" d="" />
<glyph glyph-name="exclamdown" unicode="&#xa1;" horiz-adv-x="228" d="M232 410 L217 251 L171 -6 L53 -6 L99 251 Q110 293 119.5 330.5 Q129 368 140 410 L232 410 Z M148 531 Q153 556 173 573 Q193 590 218 590 Q243 590 257 573 Q271 556 266 531 Q261 506 241.5 489 Q222 472 197 472 Q172 472 157.5 489 Q143 506 148 531 Z " />
<glyph glyph-name="cent" unicode="&#xa2;" horiz-adv-x="598" d="M554 66 Q519 40 479.5 23.5 Q440 7 401 -1 L381 -114 L262 -114 L283 0 Q245 8 208 27.5 Q171 47 144 82.5 Q117 118 106 172 Q95 226 108 304 Q120 372 148.5 421.5 Q177 471 215 505.5 Q253 540 297.5 560.5 Q342 581 386 589 L409 717 L528 717 L506 591 Q541 584 574 568.5 Q607 553 633 526 Q611 503 592.5 485.5 Q574 468 552 446 Q526 470 495 476 Q464 482 430 482 Q400 482 367.5 474.5 Q335 467 307 446.5 Q279 426 257 391 Q235 356 226 301 Q215 238 226 200 Q237 162 259.5 141 Q282 120 311 113.5 Q340 107 364 107 Q398 107 431.5 113 Q465 119 500 143 L554 66 Z " />
<glyph glyph-name="sterling" unicode="&#xa3;" horiz-adv-x="568" d="M74 113 L150 113 L171 227 L95 227 L114 339 L190 339 L201 400 Q212 464 241 502.5 Q270 541 306 561.5 Q342 582 379 588.5 Q416 595 443 595 Q491 595 529 585.5 Q567 576 593 551 L542 456 Q513 472 478.5 477 Q444 482 427 482 Q415 482 398.5 480.5 Q382 479 366 471 Q350 463 337 446 Q324 429 319 397 L308 339 L461 339 L442 227 L289 227 L268 113 L532 113 L513 0 L55 0 L74 113 Z " />
<glyph glyph-name="currency" unicode="&#xa4;" horiz-adv-x="498" d="M260 68 Q240 68 219 74.5 Q198 81 180 92 L115 42 Q104 59 93.5 72 Q83 85 72 102 Q87 114 106.5 128 Q126 142 140 153 Q136 170 136 185 Q136 200 138 214 Q140 226 146.5 242.5 Q153 259 162 274 L112 326 Q129 343 144 356 Q159 369 176 386 L223 335 Q268 360 312 360 Q354 360 393 335 L458 386 Q469 369 479 356 Q489 343 500 326 L432 274 Q435 259 435.5 242.5 Q436 226 434 214 Q430 186 410 153 Q421 142 435 128 Q449 114 460 102 Q443 85 428.5 72 Q414 59 397 42 L350 92 Q327 81 303.5 74.5 Q280 68 260 68 Z M293 254 Q276 254 261.5 242.5 Q247 231 244 214 Q241 197 252 186 Q263 175 279 175 Q295 175 310 186 Q325 197 328 214 Q331 231 320.5 242.5 Q310 254 293 254 Z " />
<glyph glyph-name="yen" unicode="&#xa5;" horiz-adv-x="664" d="M400 54 L391 0 L273 0 L282 54 L176 54 L194 154 L300 154 L306 189 L200 189 L217 289 L278 289 L159 590 L296 590 L389 334 L576 590 L713 590 L485 289 L548 289 L531 189 L424 189 L418 154 L525 154 L507 54 L400 54 Z " />
<glyph glyph-name="brokenbar" unicode="&#xa6;" horiz-adv-x="228" d="M182 724 L300 724 L228 317 L110 317 L182 724 Z M90 203 L208 203 L137 -204 L19 -204 L90 203 Z " />
<glyph glyph-name="section" unicode="&#xa7;" horiz-adv-x="461" d="M331 595 Q387 595 419 587.5 Q451 580 464 570 L446 468 Q424 472 402 475 Q382 478 362.5 480 Q343 482 328 482 Q301 482 281.5 482 Q262 482 260 471 Q258 463 275.5 456 Q293 449 316 441 Q339 434 365.5 422.5 Q392 411 414.5 395.5 Q437 380 450.5 359.5 Q464 339 459 313 Q453 282 435.5 258.5 Q418 235 387 213 Q410 193 421.5 172.5 Q433 152 428 129 Q422 93 403.5 67 Q385 41 359 25 Q333 9 300.5 1.5 Q268 -6 233 -6 Q176 -6 137 7 Q98 20 85 30 L102 130 Q126 124 149 119 Q170 114 191 110.5 Q212 107 229 107 Q237 107 249.5 107 Q262 107 274 108.5 Q286 110 295.5 113 Q305 116 306 122 Q308 135 286.5 143 Q265 151 240 160 Q217 167 191.5 177 Q166 187 145.5 201 Q125 215 113.5 234.5 Q102 254 106 280 Q112 316 129 339.5 Q146 363 172 377 Q147 395 140 419 Q133 443 138 472 Q144 505 163 528 Q182 551 209 566 Q236 581 268 588 Q300 595 331 595 Z M336 295 Q338 309 323.5 317.5 Q309 326 285 326 Q262 326 244 318.5 Q226 311 223 294 Q220 277 234.5 270 Q249 263 273 263 Q296 263 314.5 271.5 Q333 280 336 295 Z " />
<glyph glyph-name="dieresis" unicode="&#xa8;" horiz-adv-x="384" d="M159 590 L278 590 L260 490 L141 490 L159 590 Z M314 590 L433 590 L415 490 L296 490 L314 590 Z " />
<glyph glyph-name="copyright" unicode="&#xa9;" horiz-adv-x="711" d="M459 596 Q522 596 572.5 572.5 Q623 549 657 508 Q691 467 704.5 412 Q718 357 707 294 Q696 233 663 178.5 Q630 124 582 83 Q534 42 475 18.5 Q416 -5 353 -5 Q292 -5 241.5 18.5 Q191 42 157 83 Q123 124 109 178.5 Q95 233 106 294 Q117 357 150.5 412 Q184 467 232 508 Q280 549 339 572.5 Q398 596 459 596 Z M366 69 Q412 69 456.5 87.5 Q501 106 537.5 137 Q574 168 599.5 208.5 Q625 249 633 293 Q641 339 630 380 Q619 421 593 452.5 Q567 484 529 502.5 Q491 521 445 521 Q401 521 357 502.5 Q313 484 277 452.5 Q241 421 215 380 Q189 339 181 293 Q173 249 184.5 208.5 Q196 168 221.5 137 Q247 106 284.5 87.5 Q322 69 366 69 Z M374 127 Q388 127 403 128 Q418 129 436 133.5 Q454 138 475 148.5 Q496 159 520 178 L483 229 Q448 212 430 209 Q412 206 399 206 Q365 206 347 230.5 Q329 255 337 298 Q343 333 368 355.5 Q393 378 429 378 Q442 378 458.5 375 Q475 372 505 354 L560 407 Q542 427 525 437.5 Q508 448 491.5 452.5 Q475 457 460 458 Q445 459 431 459 Q407 459 378 450 Q349 441 322.5 421.5 Q296 402 275.5 371 Q255 340 247 297 Q238 248 249 216 Q260 184 280.5 164.5 Q301 145 326.5 136.5 Q352 128 374 127 Z " />
<glyph glyph-name="ordfeminine" unicode="&#xaa;" horiz-adv-x="403" d="M394 262 L314 262 L303 285 Q275 265 249.5 261.5 Q224 258 211 258 Q205 258 187.5 260.5 Q170 263 152.5 273.5 Q135 284 123.5 306.5 Q112 329 119 368 Q123 389 131.5 408.5 Q140 428 154.5 443 Q169 458 189.5 467.5 Q210 477 237 477 Q255 477 278 474 Q301 471 333 454 L335 467 Q335 477 332.5 485.5 Q330 494 321.5 500 Q313 506 296.5 509.5 Q280 513 251 513 Q231 513 208 510 Q185 507 172 505 L184 578 Q195 586 219.5 590.5 Q244 595 292 595 Q368 595 402.5 557.5 Q437 520 427 453 L394 262 Z M319 379 Q317 386 311 391 Q306 396 296 399.5 Q286 403 269 403 Q236 403 226.5 392 Q217 381 215 370 Q213 357 220 345.5 Q227 334 256 334 Q276 334 288 338 Q300 342 306 348 Q313 353 316 361 L319 379 Z " />
<glyph glyph-name="guillemotleft" unicode="&#xab;" horiz-adv-x="558" d="M90 203 Q119 254 147.5 304 Q176 354 205 405 L330 405 L217 203 L260 0 L134 0 L90 203 Z M333 203 Q362 254 390.5 304 Q419 354 448 405 L573 405 L460 203 L503 0 L377 0 L333 203 Z " />
<glyph glyph-name="logicalnot" unicode="&#xac;" horiz-adv-x="491" d="M343 145 L80 145 L100 258 L481 258 L442 37 L324 37 L343 145 Z " />
<glyph glyph-name="uni00AD" unicode="&#xad;" horiz-adv-x="198" d="" />
<glyph glyph-name="registered" unicode="&#xae;" horiz-adv-x="711" d="M459 596 Q522 596 572.5 572.5 Q623 549 657 508 Q691 467 704.5 412 Q718 357 707 294 Q696 233 663 178.5 Q630 124 582 83 Q534 42 475 18.5 Q416 -5 353 -5 Q292 -5 241.5 18.5 Q191 42 157 83 Q123 124 109 178.5 Q95 233 106 294 Q117 357 150.5 412 Q184 467 232 508 Q280 549 339 572.5 Q398 596 459 596 Z M366 69 Q412 69 456.5 87.5 Q501 106 537.5 137 Q574 168 599.5 208.5 Q625 249 633 293 Q641 339 630 380 Q619 421 593 452.5 Q567 484 529 502.5 Q491 521 445 521 Q401 521 357 502.5 Q313 484 277 452.5 Q241 421 215 380 Q189 339 181 293 Q173 249 184.5 208.5 Q196 168 221.5 137 Q247 106 284.5 87.5 Q322 69 366 69 Z M549 352 Q544 326 526.5 304 Q509 282 483 275 Q500 264 503.5 245 Q507 226 511 203 L520 142 L424 142 L413 201 Q410 224 404.5 233.5 Q399 243 387 243 L376 243 L359 142 L269 142 L324 457 L463 457 Q480 457 497.5 451.5 Q515 446 528 433.5 Q541 421 547.5 401 Q554 381 549 352 Z M418 322 Q429 322 441 327.5 Q453 333 456 351 Q459 365 449 371 Q439 377 428 377 L400 377 L390 322 L418 322 Z " />
<glyph glyph-name="macron" unicode="&#xaf;" horiz-adv-x="412" d="M141 492 L159 590 L461 590 L443 492 L141 492 Z " />
<glyph glyph-name="degree" unicode="&#xb0;" horiz-adv-x="366" d="M256 415 Q271 415 286.5 426.5 Q302 438 307 464 Q311 486 299 498 Q287 510 272 510 Q257 510 241 498 Q225 486 221 464 Q216 438 228.5 426.5 Q241 415 256 415 Z M242 337 Q216 337 194.5 347.5 Q173 358 158.5 375.5 Q144 393 138 416 Q132 439 136 465 Q141 492 155.5 515.5 Q170 539 190.5 557 Q211 575 236 585 Q261 595 287 595 Q313 595 334.5 585 Q356 575 370.5 557 Q385 539 391 515.5 Q397 492 392 465 Q388 439 373.5 416 Q359 393 338.5 375.5 Q318 358 293 347.5 Q268 337 242 337 Z " />
<glyph glyph-name="plusminus" unicode="&#xb1;" horiz-adv-x="448" d="M347 363 L457 363 L439 261 L329 261 L308 147 L190 147 L211 261 L101 261 L119 363 L229 363 L249 477 L367 477 L347 363 Z M72 102 L410 102 L393 0 L55 0 L72 102 Z " />
<glyph glyph-name="twosuperior" unicode="&#xb2;" horiz-adv-x="358" d="M113 332 Q119 366 147 388.5 Q175 411 206.5 427 Q238 443 264 454 Q290 465 292 477 Q294 486 279 488.5 Q264 491 251 491 Q237 491 219.5 487.5 Q202 484 187 481 Q168 476 149 470 L167 568 Q187 576 212 585.5 Q237 595 280 595 Q304 595 326 589 Q348 583 363.5 569.5 Q379 556 386 534.5 Q393 513 388 483 Q382 453 367.5 434.5 Q353 416 333 403.5 Q313 391 290 381 Q267 371 244 357 L359 357 L343 262 L101 262 L113 332 Z " />
<glyph glyph-name="threesuperior" unicode="&#xb3;" horiz-adv-x="349" d="M224 459 Q241 459 260 459 Q279 459 281 470 Q283 479 277 483.5 Q271 488 261 489.5 Q251 491 240 491 Q229 491 221 491 Q196 491 174.5 486.5 Q153 482 139 479 L156 574 Q170 581 197.5 588 Q225 595 270 595 Q288 595 309.5 590.5 Q331 586 348.5 574.5 Q366 563 376 544 Q386 525 381 495 Q378 479 367.5 459.5 Q357 440 325 431 Q351 422 356.5 404.5 Q362 387 357 358 Q349 316 307 286 Q265 256 199 256 Q157 256 136.5 261 Q116 266 103 274 L119 364 Q134 360 148 358 Q162 355 175.5 353 Q189 351 201 351 L206 351 Q223 350 242 352.5 Q261 355 263 368 Q265 376 260 379.5 Q255 383 247.5 384.5 Q240 386 230.5 385.5 Q221 385 213 385 L171 385 L196 459 L224 459 Z " />
<glyph glyph-name="acute" unicode="&#xb4;" horiz-adv-x="293" d="M236 447 L133 447 L220 590 L342 590 L236 447 Z " />
<glyph glyph-name="mu" unicode="&#xb5;" horiz-adv-x="468" d="M116 405 L234 405 L190 158 Q185 129 201.5 118 Q218 107 236 107 Q258 107 275 115 Q292 123 304 133 Q318 144 328 159 L371 405 L489 405 L418 0 L307 0 L306 43 Q288 25 269 15 Q250 5 233 0.5 Q216 -4 201 -5 Q186 -6 175 -6 Q171 -6 168 -5.5 Q165 -5 162 -5 L130 -185 L12 -185 L116 405 Z " />
<glyph glyph-name="paragraph" unicode="&#xb6;" horiz-adv-x="579" d="M524 0 L406 0 L490 477 L398 477 L314 0 L196 0 L245 282 Q185 294 153 336.5 Q121 379 131 435 Q136 464 151.5 489.5 Q167 515 189.5 535.5 Q212 556 239.5 570 Q267 584 295 590 L628 590 L524 0 Z " />
<glyph glyph-name="periodcentered" unicode="&#xb7;" horiz-adv-x="229" d="M97 240 L216 240 L198 140 L79 140 L97 240 Z " />
<glyph glyph-name="cedilla" unicode="&#xb8;" horiz-adv-x="293" d="M133 -6 L236 -6 L150 -149 L28 -149 L133 -6 Z " />
<glyph glyph-name="onesuperior" unicode="&#xb9;" horiz-adv-x="305" d="M149 538 L252 590 L354 590 L296 262 L201 262 L240 483 L130 429 L149 538 Z " />
<glyph glyph-name="ordmasculine" unicode="&#xba;" horiz-adv-x="366" d="M256 415 Q271 415 286.5 426.5 Q302 438 307 464 Q311 486 299 498 Q287 510 272 510 Q257 510 241 498 Q225 486 221 464 Q216 438 228.5 426.5 Q241 415 256 415 Z M242 337 Q216 337 194.5 347.5 Q173 358 158.5 375.5 Q144 393 138 416 Q132 439 136 465 Q141 492 155.5 515.5 Q170 539 190.5 557 Q211 575 236 585 Q261 595 287 595 Q313 595 334.5 585 Q356 575 370.5 557 Q385 539 391 515.5 Q397 492 392 465 Q388 439 373.5 416 Q359 393 338.5 375.5 Q318 358 293 347.5 Q268 337 242 337 Z " />
<glyph glyph-name="guillemotright" unicode="&#xbb;" horiz-adv-x="558" d="M424 0 L298 0 L411 203 L370 405 L495 405 Q506 354 516.5 304 Q527 254 538 203 L424 0 Z M181 0 L55 0 L168 203 L127 405 L252 405 Q263 354 273.5 304 Q284 254 295 203 L181 0 Z " />
<glyph glyph-name="onequarter" unicode="&#xbc;" horiz-adv-x="766" d="M149 538 L252 590 L354 590 L296 262 L201 262 L240 483 L130 429 L149 538 Z M207 0 L307 0 L637 590 L536 590 L207 0 Z M592 75 L437 75 L452 164 Q497 210 534.5 254 Q572 298 616 344 L734 344 L701 157 L742 157 L728 75 L687 75 L674 0 L579 0 L592 75 Z M606 157 L621 241 L544 157 L606 157 Z " />
<glyph glyph-name="onehalf" unicode="&#xbd;" horiz-adv-x="770" d="M149 538 L252 590 L354 590 L296 262 L201 262 L240 483 L130 429 L149 538 Z M207 0 L307 0 L637 590 L536 590 L207 0 Z M479 70 Q485 104 513 126.5 Q541 149 572.5 165 Q604 181 629.5 192 Q655 203 657 215 Q659 224 644.5 226.5 Q630 229 617 229 Q603 229 585.5 225.5 Q568 222 553 219 Q534 214 515 208 L532 306 Q552 314 577.5 323.5 Q603 333 646 333 Q670 333 692 327 Q714 321 729.5 307.5 Q745 294 752 272.5 Q759 251 753 221 Q748 191 733.5 172.5 Q719 154 699 141.5 Q679 129 656 119 Q633 109 610 95 L725 95 L709 0 L467 0 L479 70 Z " />
<glyph glyph-name="threequarters" unicode="&#xbe;" horiz-adv-x="806" d="M628 75 L473 75 L488 164 Q533 210 570.5 254 Q608 298 652 344 L770 344 L737 157 L778 157 L764 75 L723 75 L710 0 L615 0 L628 75 Z M642 157 L657 241 L580 157 L642 157 Z M242 0 L342 0 L672 590 L571 590 L242 0 Z M224 459 Q241 459 260 459 Q279 459 281 470 Q283 479 277 483.5 Q271 488 261 489.5 Q251 491 240 491 Q229 491 221 491 Q196 491 174.5 486.5 Q153 482 139 479 L156 574 Q170 581 197.5 588 Q225 595 270 595 Q288 595 309.5 590.5 Q331 586 348.5 574.5 Q366 563 376 544 Q386 525 381 495 Q378 479 367.5 459.5 Q357 440 325 431 Q351 422 356.5 404.5 Q362 387 357 358 Q349 316 307 286 Q265 256 199 256 Q157 256 136.5 261 Q116 266 103 274 L119 364 Q134 360 148 358 Q162 355 175.5 353 Q189 351 201 351 L206 351 Q223 350 242 352.5 Q261 355 263 368 Q265 376 260 379.5 Q255 383 247.5 384.5 Q240 386 230.5 385.5 Q221 385 213 385 L171 385 L196 459 L224 459 Z " />
<glyph glyph-name="questiondown" unicode="&#xbf;" horiz-adv-x="501" d="M396 265 Q345 253 310 244 Q275 235 252 225.5 Q229 216 217.5 204 Q206 192 203 174 Q199 152 208 139 Q217 126 232 119.5 Q247 113 264 111 Q281 109 294 109 Q316 109 342 112.5 Q368 116 393 121 Q418 126 438.5 131 Q459 136 470 139 L451 31 L447 29 Q436 24 421 18 Q406 12 384.5 6.5 Q363 1 333.5 -2.5 Q304 -6 265 -6 Q234 -6 198 2 Q162 10 134 30 Q106 50 91 84 Q76 118 85 171 Q89 195 99.5 221.5 Q110 248 133.5 272.5 Q157 297 195 317 Q233 337 293 348 L307 428 L425 428 L396 265 Z M444 538 Q440 513 420 496 Q400 479 375 479 Q350 479 336 496 Q322 513 326 538 Q331 563 351 580 Q371 597 396 597 Q421 597 435 580 Q449 563 444 538 Z " />
<glyph glyph-name="Agrave" unicode="&#xc0;" horiz-adv-x="593" d="M578 0 L451 0 L427 129 L211 129 L144 0 L15 0 L338 590 L465 590 L578 0 Z M272 240 L407 240 L371 422 L272 240 Z M303 800 L425 800 L460 657 L357 657 L303 800 Z " />
<glyph glyph-name="Aacute" unicode="&#xc1;" horiz-adv-x="593" d="M578 0 L451 0 L427 129 L211 129 L144 0 L15 0 L338 590 L465 590 L578 0 Z M272 240 L407 240 L371 422 L272 240 Z M467 657 L364 657 L451 800 L573 800 L467 657 Z " />
<glyph glyph-name="Acircumflex" unicode="&#xc2;" horiz-adv-x="593" d="M578 0 L451 0 L427 129 L211 129 L144 0 L15 0 L338 590 L465 590 L578 0 Z M272 240 L407 240 L371 422 L272 240 Z M504 826 L555 657 L447 657 L427 740 L377 657 L269 657 L380 826 L504 826 Z " />
<glyph glyph-name="Atilde" unicode="&#xc3;" horiz-adv-x="593" d="M578 0 L451 0 L427 129 L211 129 L144 0 L15 0 L338 590 L465 590 L578 0 Z M272 240 L407 240 L371 422 L272 240 Z M563 697 Q538 680 512 668.5 Q486 657 462 657 Q447 657 434.5 662.5 Q422 668 410 674 Q398 680 385.5 685.5 Q373 691 358 691 Q344 691 333 687.5 Q322 684 308 676 L286 760 Q311 778 332.5 787 Q354 796 377 796 Q393 796 406 790.5 Q419 785 431 778.5 Q443 772 455.5 766.5 Q468 761 483 761 Q498 761 511.5 766 Q525 771 540 780 L563 697 Z " />
<glyph glyph-name="Adieresis" unicode="&#xc4;" horiz-adv-x="593" d="M578 0 L451 0 L427 129 L211 129 L144 0 L15 0 L338 590 L465 590 L578 0 Z M272 240 L407 240 L371 422 L272 240 Z M293 757 L412 757 L394 657 L275 657 L293 757 Z M448 757 L567 757 L549 657 L430 657 L448 757 Z " />
<glyph glyph-name="Aring" unicode="&#xc5;" horiz-adv-x="593" d="M578 0 L451 0 L427 129 L211 129 L144 0 L15 0 L338 590 L465 590 L578 0 Z M272 240 L407 240 L371 422 L272 240 Z M426 735 Q441 735 457 746.5 Q473 758 478 784 Q482 806 470 818 Q458 830 443 830 Q428 830 412 818 Q396 806 392 784 Q387 758 399 746.5 Q411 735 426 735 Z M412 657 Q386 657 364.5 667.5 Q343 678 329 695.5 Q315 713 309 736 Q303 759 307 785 Q312 812 326.5 835.5 Q341 859 361.5 877 Q382 895 407 905 Q432 915 458 915 Q484 915 505.5 905 Q527 895 541.5 877 Q556 859 562 835.5 Q568 812 563 785 Q559 759 544.5 736 Q530 713 509 695.5 Q488 678 463 667.5 Q438 657 412 657 Z " />
<glyph glyph-name="AE" unicode="&#xc6;" horiz-adv-x="926" d="M680 477 L655 340 L888 340 L869 227 L636 227 L615 113 L900 113 L881 0 L478 0 L500 127 L264 127 L158 0 L15 0 L512 590 L985 590 L965 477 L680 477 Z M520 240 L563 483 L359 240 L520 240 Z " />
<glyph glyph-name="Ccedilla" unicode="&#xc7;" horiz-adv-x="543" d="M405 482 Q375 482 342.5 474.5 Q310 467 282 446.5 Q254 426 232 391 Q210 356 201 301 Q190 238 201 200 Q212 162 234.5 141 Q257 120 286 113.5 Q315 107 339 107 Q373 107 406.5 113 Q440 119 475 143 L529 66 Q481 30 426 12 Q371 -6 321 -6 Q281 -6 232 7 Q183 20 144.5 54.5 Q106 89 86 149 Q66 209 83 304 Q97 384 134 439.5 Q171 495 220 529.5 Q269 564 323 579.5 Q377 595 426 595 Q477 595 525 579.5 Q573 564 608 526 Q586 503 567.5 485.5 Q549 468 527 446 Q501 470 470 476 Q439 482 405 482 Z M239 -64 L342 -64 L256 -207 L134 -207 L239 -64 Z " />
<glyph glyph-name="Egrave" unicode="&#xc8;" horiz-adv-x="503" d="M257 477 L232 340 L465 340 L446 227 L213 227 L192 113 L477 113 L458 0 L55 0 L159 590 L562 590 L542 477 L257 477 Z M286 800 L408 800 L443 657 L340 657 L286 800 Z " />
<glyph glyph-name="Eacute" unicode="&#xc9;" horiz-adv-x="503" d="M257 477 L232 340 L465 340 L446 227 L213 227 L192 113 L477 113 L458 0 L55 0 L159 590 L562 590 L542 477 L257 477 Z M424 657 L321 657 L408 800 L530 800 L424 657 Z " />
<glyph glyph-name="Ecircumflex" unicode="&#xca;" horiz-adv-x="503" d="M257 477 L232 340 L465 340 L446 227 L213 227 L192 113 L477 113 L458 0 L55 0 L159 590 L562 590 L542 477 L257 477 Z M466 826 L517 657 L409 657 L389 740 L339 657 L231 657 L342 826 L466 826 Z " />
<glyph glyph-name="Edieresis" unicode="&#xcb;" horiz-adv-x="503" d="M257 477 L232 340 L465 340 L446 227 L213 227 L192 113 L477 113 L458 0 L55 0 L159 590 L562 590 L542 477 L257 477 Z M255 757 L374 757 L356 657 L237 657 L255 757 Z M410 757 L529 757 L511 657 L392 657 L410 757 Z " />
<glyph glyph-name="Igrave" unicode="&#xcc;" horiz-adv-x="228" d="M159 590 L277 590 L173 0 L55 0 L159 590 Z M124 800 L246 800 L281 657 L178 657 L124 800 Z " />
<glyph glyph-name="Iacute" unicode="&#xcd;" horiz-adv-x="228" d="M173 0 L55 0 L159 590 L277 590 L173 0 Z M280 657 L177 657 L264 800 L386 800 L280 657 Z " />
<glyph glyph-name="Icircumflex" unicode="&#xce;" horiz-adv-x="228" d="M173 0 L55 0 L159 590 L277 590 L173 0 Z M321 826 L372 657 L264 657 L244 740 L194 657 L86 657 L197 826 L321 826 Z " />
<glyph glyph-name="Idieresis" unicode="&#xcf;" horiz-adv-x="228" d="M173 0 L55 0 L159 590 L277 590 L173 0 Z M110 757 L229 757 L211 657 L92 657 L110 757 Z M265 757 L384 757 L366 657 L247 657 L265 757 Z " />
<glyph glyph-name="Eth" unicode="&#xd0;" horiz-adv-x="613" d="M75 341 L152 341 L196 590 L394 590 Q442 590 489.5 575.5 Q537 561 572 527.5 Q607 494 623.5 439 Q640 384 626 304 Q610 212 572.5 153 Q535 94 488 60 Q441 26 391.5 13 Q342 0 302 0 L92 0 L134 242 L57 242 L75 341 Z M308 113 Q333 113 363 119 Q393 125 421.5 144.5 Q450 164 473.5 201 Q497 238 508 301 Q517 355 509.5 389.5 Q502 424 482.5 443.5 Q463 463 435 470 Q407 477 376 477 L294 477 L270 341 L406 341 L388 242 L252 242 L229 113 L308 113 Z " />
<glyph glyph-name="Ntilde" unicode="&#xd1;" horiz-adv-x="610" d="M240 380 L173 0 L55 0 L159 590 L273 590 L471 203 L540 590 L659 590 L555 0 L432 0 L240 380 Z M564 697 Q539 680 513 668.5 Q487 657 463 657 Q448 657 435.5 662.5 Q423 668 411 674 Q399 680 386.5 685.5 Q374 691 359 691 Q345 691 334 687.5 Q323 684 309 676 L287 760 Q312 778 333.5 787 Q355 796 378 796 Q394 796 407 790.5 Q420 785 432 778.5 Q444 772 456.5 766.5 Q469 761 484 761 Q499 761 512.5 766 Q526 771 541 780 L564 697 Z " />
<glyph glyph-name="Ograve" unicode="&#xd2;" horiz-adv-x="646" d="M341 107 Q365 107 395 113.5 Q425 120 453.5 141 Q482 162 506 200 Q530 238 541 301 Q550 356 542 391 Q534 426 514 446.5 Q494 467 465.5 474.5 Q437 482 407 482 Q377 482 346 474.5 Q315 467 288 446.5 Q261 426 240.5 391 Q220 356 211 301 Q200 238 210 200 Q220 162 241 141 Q262 120 289.5 113.5 Q317 107 341 107 Z M321 -6 Q281 -6 233.5 7 Q186 20 149.5 54.5 Q113 89 94.5 149 Q76 209 93 304 Q107 384 143 439.5 Q179 495 226 529.5 Q273 564 326 579.5 Q379 595 427 595 Q475 595 523 579.5 Q571 564 606 529.5 Q641 495 657 439.5 Q673 384 659 304 Q642 209 602.5 149 Q563 89 514 54.5 Q465 20 413.5 7 Q362 -6 321 -6 Z M329 800 L451 800 L486 657 L383 657 L329 800 Z " />
<glyph glyph-name="Oacute" unicode="&#xd3;" horiz-adv-x="646" d="M341 107 Q365 107 395 113.5 Q425 120 453.5 141 Q482 162 506 200 Q530 238 541 301 Q550 356 542 391 Q534 426 514 446.5 Q494 467 465.5 474.5 Q437 482 407 482 Q377 482 346 474.5 Q315 467 288 446.5 Q261 426 240.5 391 Q220 356 211 301 Q200 238 210 200 Q220 162 241 141 Q262 120 289.5 113.5 Q317 107 341 107 Z M321 -6 Q281 -6 233.5 7 Q186 20 149.5 54.5 Q113 89 94.5 149 Q76 209 93 304 Q107 384 143 439.5 Q179 495 226 529.5 Q273 564 326 579.5 Q379 595 427 595 Q475 595 523 579.5 Q571 564 606 529.5 Q641 495 657 439.5 Q673 384 659 304 Q642 209 602.5 149 Q563 89 514 54.5 Q465 20 413.5 7 Q362 -6 321 -6 Z M493 657 L390 657 L477 800 L599 800 L493 657 Z " />
<glyph glyph-name="Ocircumflex" unicode="&#xd4;" horiz-adv-x="646" d="M341 107 Q365 107 395 113.5 Q425 120 453.5 141 Q482 162 506 200 Q530 238 541 301 Q550 356 542 391 Q534 426 514 446.5 Q494 467 465.5 474.5 Q437 482 407 482 Q377 482 346 474.5 Q315 467 288 446.5 Q261 426 240.5 391 Q220 356 211 301 Q200 238 210 200 Q220 162 241 141 Q262 120 289.5 113.5 Q317 107 341 107 Z M321 -6 Q281 -6 233.5 7 Q186 20 149.5 54.5 Q113 89 94.5 149 Q76 209 93 304 Q107 384 143 439.5 Q179 495 226 529.5 Q273 564 326 579.5 Q379 595 427 595 Q475 595 523 579.5 Q571 564 606 529.5 Q641 495 657 439.5 Q673 384 659 304 Q642 209 602.5 149 Q563 89 514 54.5 Q465 20 413.5 7 Q362 -6 321 -6 Z M531 826 L582 657 L474 657 L454 740 L404 657 L296 657 L407 826 L531 826 Z " />
<glyph glyph-name="Otilde" unicode="&#xd5;" horiz-adv-x="646" d="M341 107 Q365 107 395 113.5 Q425 120 453.5 141 Q482 162 506 200 Q530 238 541 301 Q550 356 542 391 Q534 426 514 446.5 Q494 467 465.5 474.5 Q437 482 407 482 Q377 482 346 474.5 Q315 467 288 446.5 Q261 426 240.5 391 Q220 356 211 301 Q200 238 210 200 Q220 162 241 141 Q262 120 289.5 113.5 Q317 107 341 107 Z M321 -6 Q281 -6 233.5 7 Q186 20 149.5 54.5 Q113 89 94.5 149 Q76 209 93 304 Q107 384 143 439.5 Q179 495 226 529.5 Q273 564 326 579.5 Q379 595 427 595 Q475 595 523 579.5 Q571 564 606 529.5 Q641 495 657 439.5 Q673 384 659 304 Q642 209 602.5 149 Q563 89 514 54.5 Q465 20 413.5 7 Q362 -6 321 -6 Z M588 697 Q563 680 537 668.5 Q511 657 487 657 Q472 657 459.5 662.5 Q447 668 435 674 Q423 680 410.5 685.5 Q398 691 383 691 Q369 691 358 687.5 Q347 684 333 676 L311 760 Q336 778 357.5 787 Q379 796 402 796 Q418 796 431 790.5 Q444 785 456 778.5 Q468 772 480.5 766.5 Q493 761 508 761 Q523 761 536.5 766 Q550 771 565 780 L588 697 Z " />
<glyph glyph-name="Odieresis" unicode="&#xd6;" horiz-adv-x="646" d="M341 107 Q365 107 395 113.5 Q425 120 453.5 141 Q482 162 506 200 Q530 238 541 301 Q550 356 542 391 Q534 426 514 446.5 Q494 467 465.5 474.5 Q437 482 407 482 Q377 482 346 474.5 Q315 467 288 446.5 Q261 426 240.5 391 Q220 356 211 301 Q200 238 210 200 Q220 162 241 141 Q262 120 289.5 113.5 Q317 107 341 107 Z M321 -6 Q281 -6 233.5 7 Q186 20 149.5 54.5 Q113 89 94.5 149 Q76 209 93 304 Q107 384 143 439.5 Q179 495 226 529.5 Q273 564 326 579.5 Q379 595 427 595 Q475 595 523 579.5 Q571 564 606 529.5 Q641 495 657 439.5 Q673 384 659 304 Q642 209 602.5 149 Q563 89 514 54.5 Q465 20 413.5 7 Q362 -6 321 -6 Z M319 757 L438 757 L420 657 L301 657 L319 757 Z M474 757 L593 757 L575 657 L456 657 L474 757 Z " />
<glyph glyph-name="multiply" unicode="&#xd7;" horiz-adv-x="452" d="M190 46 L64 46 L191 201 L117 357 L242 357 L276 285 L334 357 L459 357 L331 201 L404 46 L278 46 L246 116 L190 46 Z " />
<glyph glyph-name="Oslash" unicode="&#xd8;" horiz-adv-x="646" d="M581 550 Q628 518 652 457.5 Q676 397 659 304 Q642 209 602.5 149 Q563 89 514 54.5 Q465 20 413.5 7 Q362 -6 321 -6 Q296 -6 275 -2 L231 -80 L105 -80 L171 37 Q149 53 130 76.5 Q111 100 100 132.5 Q89 165 86.5 207.5 Q84 250 93 304 Q107 384 143 439.5 Q179 495 226 529.5 Q273 564 326 579.5 Q379 595 427 595 Q440 595 452.5 594 Q465 593 478 591 L516 661 L641 661 L581 550 Z M341 107 Q365 107 395 113.5 Q425 120 453.5 141 Q482 162 506 200 Q530 238 541 301 Q550 356 542 391 Q534 426 514 446.5 Q494 467 465.5 474.5 Q437 482 407 482 Q377 482 346 474.5 Q315 467 288 446.5 Q261 426 240.5 391 Q220 356 211 301 Q200 238 210 200 Q220 162 241 141 Q262 120 289.5 113.5 Q317 107 341 107 Z " />
<glyph glyph-name="Ugrave" unicode="&#xd9;" horiz-adv-x="590" d="M293 -6 Q253 -6 212.5 4.5 Q172 15 142 44.5 Q112 74 99.5 127.5 Q87 181 102 269 L159 590 L277 590 L221 274 Q212 225 216.5 192.5 Q221 160 234 141 Q247 122 268 114.5 Q289 107 313 107 Q337 107 361 114.5 Q385 122 405 141 Q425 160 440.5 192.5 Q456 225 465 274 L521 590 L639 590 L582 269 Q567 181 535 127.5 Q503 74 463 44.5 Q423 15 378.5 4.5 Q334 -6 293 -6 Z M311 800 L433 800 L468 657 L365 657 L311 800 Z " />
<glyph glyph-name="Uacute" unicode="&#xda;" horiz-adv-x="590" d="M293 -6 Q253 -6 212.5 4.5 Q172 15 142 44.5 Q112 74 99.5 127.5 Q87 181 102 269 L159 590 L277 590 L221 274 Q212 225 216.5 192.5 Q221 160 234 141 Q247 122 268 114.5 Q289 107 313 107 Q337 107 361 114.5 Q385 122 405 141 Q425 160 440.5 192.5 Q456 225 465 274 L521 590 L639 590 L582 269 Q567 181 535 127.5 Q503 74 463 44.5 Q423 15 378.5 4.5 Q334 -6 293 -6 Z M455 657 L352 657 L439 800 L561 800 L455 657 Z " />
<glyph glyph-name="Ucircumflex" unicode="&#xdb;" horiz-adv-x="590" d="M293 -6 Q253 -6 212.5 4.5 Q172 15 142 44.5 Q112 74 99.5 127.5 Q87 181 102 269 L159 590 L277 590 L221 274 Q212 225 216.5 192.5 Q221 160 234 141 Q247 122 268 114.5 Q289 107 313 107 Q337 107 361 114.5 Q385 122 405 141 Q425 160 440.5 192.5 Q456 225 465 274 L521 590 L639 590 L582 269 Q567 181 535 127.5 Q503 74 463 44.5 Q423 15 378.5 4.5 Q334 -6 293 -6 Z M502 826 L553 657 L445 657 L425 740 L375 657 L267 657 L378 826 L502 826 Z " />
<glyph glyph-name="Udieresis" unicode="&#xdc;" horiz-adv-x="590" d="M293 -6 Q253 -6 212.5 4.5 Q172 15 142 44.5 Q112 74 99.5 127.5 Q87 181 102 269 L159 590 L277 590 L221 274 Q212 225 216.5 192.5 Q221 160 234 141 Q247 122 268 114.5 Q289 107 313 107 Q337 107 361 114.5 Q385 122 405 141 Q425 160 440.5 192.5 Q456 225 465 274 L521 590 L639 590 L582 269 Q567 181 535 127.5 Q503 74 463 44.5 Q423 15 378.5 4.5 Q334 -6 293 -6 Z M290 757 L409 757 L391 657 L272 657 L290 757 Z M445 757 L564 757 L546 657 L427 657 L445 757 Z " />
<glyph glyph-name="Yacute" unicode="&#xdd;" horiz-adv-x="574" d="M531 590 L668 590 L381 199 L346 0 L228 0 L263 199 L114 590 L251 590 L344 334 L531 590 Z M455 657 L352 657 L439 800 L561 800 L455 657 Z " />
<glyph glyph-name="Thorn" unicode="&#xde;" horiz-adv-x="534" d="M154 590 L272 590 L256 500 L412 500 Q444 500 475.5 488.5 Q507 477 530 453 Q553 429 564 391 Q575 353 566 300 Q555 237 530.5 196 Q506 155 474.5 131.5 Q443 108 408 98.5 Q373 89 342 89 L183 89 L168 0 L50 0 L154 590 Z M236 387 L203 202 L358 202 Q371 202 384.5 205.5 Q398 209 410.5 219.5 Q423 230 433 249.5 Q443 269 448 300 Q453 326 449.5 343 Q446 360 437.5 369.5 Q429 379 417 383 Q405 387 391 387 L236 387 Z " />
<glyph glyph-name="germandbls" unicode="&#xdf;" horiz-adv-x="552" d="M409 595 Q441 595 474 588 Q507 581 532 561.5 Q557 542 569.5 508.5 Q582 475 573 421 Q568 392 546.5 358.5 Q525 325 484 301 Q522 289 544 256 Q566 223 557 171 Q553 146 538 116.5 Q523 87 495.5 61 Q468 35 425.5 17.5 Q383 0 324 0 L264 0 Q269 32 273.5 57 Q278 82 283 113 L344 113 Q357 113 372 115 Q387 117 401 124.5 Q415 132 426 145.5 Q437 159 441 183 Q444 201 438 212 Q432 223 421.5 229 Q411 235 397 237 Q383 239 370 239 L299 239 L345 352 L359 352 Q371 352 386 353.5 Q401 355 414.5 361.5 Q428 368 439 381 Q450 394 454 418 Q457 437 451.5 449 Q446 461 434.5 468.5 Q423 476 409 479 Q395 482 381 482 L367 482 Q342 482 320 477.5 Q298 473 280 458 Q262 443 248.5 413.5 Q235 384 226 334 L168 0 L50 0 L109 337 Q125 427 155.5 479 Q186 531 224.5 556.5 Q263 582 306 588.5 Q349 595 389 595 L409 595 Z " />
<glyph glyph-name="agrave" unicode="&#xe0;" horiz-adv-x="454" d="M197 612 L319 612 L355 469 L252 469 L197 612 Z M404 0 L293 0 L292 39 Q276 22 256.5 13 Q237 4 219.5 -0.5 Q202 -5 187.5 -5.5 Q173 -6 165 -6 Q158 -6 136 -2 Q114 2 93 16 Q72 30 58.5 58.5 Q45 87 53 135 Q63 188 104.5 222.5 Q146 257 209 257 Q232 257 261 252 Q290 247 325 224 L327 238 Q329 251 326.5 262 Q324 273 313 281 Q302 289 281.5 293.5 Q261 298 226 298 Q213 298 197.5 297 Q182 296 167 294.5 Q152 293 138.5 291 Q125 289 116 288 L134 390 Q149 395 163 399 Q177 403 193.5 405.5 Q210 408 231 409.5 Q252 411 280 411 Q373 411 414.5 364 Q456 317 445 234 L404 0 Z M307 138 Q302 145 293 151 Q284 156 271 159.5 Q258 163 237 163 Q198 163 185.5 154 Q173 145 171 133 Q169 122 180.5 114.5 Q192 107 227 107 Q251 107 266 110 Q281 113 290 117 Q300 121 305 127 L307 138 Z " />
<glyph glyph-name="aacute" unicode="&#xe1;" horiz-adv-x="454" d="M358 469 L255 469 L341 612 L463 612 L358 469 Z M404 0 L293 0 L292 39 Q276 22 256.5 13 Q237 4 219.5 -0.5 Q202 -5 187.5 -5.5 Q173 -6 165 -6 Q158 -6 136 -2 Q114 2 93 16 Q72 30 58.5 58.5 Q45 87 53 135 Q63 188 104.5 222.5 Q146 257 209 257 Q232 257 261 252 Q290 247 325 224 L327 238 Q329 251 326.5 262 Q324 273 313 281 Q302 289 281.5 293.5 Q261 298 226 298 Q213 298 197.5 297 Q182 296 167 294.5 Q152 293 138.5 291 Q125 289 116 288 L134 390 Q149 395 163 399 Q177 403 193.5 405.5 Q210 408 231 409.5 Q252 411 280 411 Q373 411 414.5 364 Q456 317 445 234 L404 0 Z M307 138 Q302 145 293 151 Q284 156 271 159.5 Q258 163 237 163 Q198 163 185.5 154 Q173 145 171 133 Q169 122 180.5 114.5 Q192 107 227 107 Q251 107 266 110 Q281 113 290 117 Q300 121 305 127 L307 138 Z " />
<glyph glyph-name="acircumflex" unicode="&#xe2;" horiz-adv-x="454" d="M413 638 L464 469 L356 469 L336 552 L286 469 L178 469 L289 638 L413 638 Z M404 0 L293 0 L292 39 Q276 22 256.5 13 Q237 4 219.5 -0.5 Q202 -5 187.5 -5.5 Q173 -6 165 -6 Q158 -6 136 -2 Q114 2 93 16 Q72 30 58.5 58.5 Q45 87 53 135 Q63 188 104.5 222.5 Q146 257 209 257 Q232 257 261 252 Q290 247 325 224 L327 238 Q329 251 326.5 262 Q324 273 313 281 Q302 289 281.5 293.5 Q261 298 226 298 Q213 298 197.5 297 Q182 296 167 294.5 Q152 293 138.5 291 Q125 289 116 288 L134 390 Q149 395 163 399 Q177 403 193.5 405.5 Q210 408 231 409.5 Q252 411 280 411 Q373 411 414.5 364 Q456 317 445 234 L404 0 Z M307 138 Q302 145 293 151 Q284 156 271 159.5 Q258 163 237 163 Q198 163 185.5 154 Q173 145 171 133 Q169 122 180.5 114.5 Q192 107 227 107 Q251 107 266 110 Q281 113 290 117 Q300 121 305 127 L307 138 Z " />
<glyph glyph-name="atilde" unicode="&#xe3;" horiz-adv-x="454" d="M467 509 Q442 492 416 480.5 Q390 469 366 469 Q351 469 338.5 474.5 Q326 480 314 486 Q302 492 289.5 497.5 Q277 503 262 503 Q235 503 212 488 L189 572 Q215 590 236.5 599 Q258 608 281 608 Q297 608 310 602.5 Q323 597 335 590.5 Q347 584 359.5 578.5 Q372 573 387 573 Q402 573 415.5 578 Q429 583 444 592 L467 509 Z M404 0 L293 0 L292 39 Q276 22 256.5 13 Q237 4 219.5 -0.5 Q202 -5 187.5 -5.5 Q173 -6 165 -6 Q158 -6 136 -2 Q114 2 93 16 Q72 30 58.5 58.5 Q45 87 53 135 Q63 188 104.5 222.5 Q146 257 209 257 Q232 257 261 252 Q290 247 325 224 L327 238 Q329 251 326.5 262 Q324 273 313 281 Q302 289 281.5 293.5 Q261 298 226 298 Q213 298 197.5 297 Q182 296 167 294.5 Q152 293 138.5 291 Q125 289 116 288 L134 390 Q149 395 163 399 Q177 403 193.5 405.5 Q210 408 231 409.5 Q252 411 280 411 Q373 411 414.5 364 Q456 317 445 234 L404 0 Z M307 138 Q302 145 293 151 Q284 156 271 159.5 Q258 163 237 163 Q198 163 185.5 154 Q173 145 171 133 Q169 122 180.5 114.5 Q192 107 227 107 Q251 107 266 110 Q281 113 290 117 Q300 121 305 127 L307 138 Z " />
<glyph glyph-name="adieresis" unicode="&#xe4;" horiz-adv-x="454" d="M202 569 L321 569 L303 469 L184 469 L202 569 Z M357 569 L476 569 L458 469 L339 469 L357 569 Z M404 0 L293 0 L292 39 Q276 22 256.5 13 Q237 4 219.5 -0.5 Q202 -5 187.5 -5.5 Q173 -6 165 -6 Q158 -6 136 -2 Q114 2 93 16 Q72 30 58.5 58.5 Q45 87 53 135 Q63 188 104.5 222.5 Q146 257 209 257 Q232 257 261 252 Q290 247 325 224 L327 238 Q329 251 326.5 262 Q324 273 313 281 Q302 289 281.5 293.5 Q261 298 226 298 Q213 298 197.5 297 Q182 296 167 294.5 Q152 293 138.5 291 Q125 289 116 288 L134 390 Q149 395 163 399 Q177 403 193.5 405.5 Q210 408 231 409.5 Q252 411 280 411 Q373 411 414.5 364 Q456 317 445 234 L404 0 Z M307 138 Q302 145 293 151 Q284 156 271 159.5 Q258 163 237 163 Q198 163 185.5 154 Q173 145 171 133 Q169 122 180.5 114.5 Q192 107 227 107 Q251 107 266 110 Q281 113 290 117 Q300 121 305 127 L307 138 Z " />
<glyph glyph-name="aring" unicode="&#xe5;" horiz-adv-x="454" d="M336 547 Q351 547 367 558.5 Q383 570 388 596 Q392 618 380 630 Q368 642 353 642 Q338 642 322 630 Q306 618 302 596 Q297 570 309 558.5 Q321 547 336 547 Z M322 469 Q296 469 274.5 479.5 Q253 490 239 507.5 Q225 525 219 548 Q213 571 217 597 Q222 624 236 647.5 Q250 671 271 689 Q292 707 317 717 Q342 727 368 727 Q394 727 415.5 717 Q437 707 451 689 Q465 671 471.5 647.5 Q478 624 473 597 Q469 571 454.5 548 Q440 525 419 507.5 Q398 490 373 479.5 Q348 469 322 469 Z M404 0 L293 0 L292 39 Q276 22 256.5 13 Q237 4 219.5 -0.5 Q202 -5 187.5 -5.5 Q173 -6 165 -6 Q158 -6 136 -2 Q114 2 93 16 Q72 30 58.5 58.5 Q45 87 53 135 Q63 188 104.5 222.5 Q146 257 209 257 Q232 257 261 252 Q290 247 325 224 L327 238 Q329 251 326.5 262 Q324 273 313 281 Q302 289 281.5 293.5 Q261 298 226 298 Q213 298 197.5 297 Q182 296 167 294.5 Q152 293 138.5 291 Q125 289 116 288 L134 390 Q149 395 163 399 Q177 403 193.5 405.5 Q210 408 231 409.5 Q252 411 280 411 Q373 411 414.5 364 Q456 317 445 234 L404 0 Z M307 138 Q302 145 293 151 Q284 156 271 159.5 Q258 163 237 163 Q198 163 185.5 154 Q173 145 171 133 Q169 122 180.5 114.5 Q192 107 227 107 Q251 107 266 110 Q281 113 290 117 Q300 121 305 127 L307 138 Z " />
<glyph glyph-name="ae" unicode="&#xe6;" horiz-adv-x="702" d="M690 162 L432 162 Q433 150 436 139.5 Q439 129 449.5 120.5 Q460 112 480 107.5 Q500 103 534 103 Q542 103 557.5 104.5 Q573 106 591 108.5 Q609 111 626.5 113.5 Q644 116 656 117 L639 20 Q623 10 581 2 Q539 -6 480 -6 Q432 -6 398.5 10 Q365 26 345 55 Q321 32 292.5 19.5 Q264 7 238 1.5 Q212 -4 192 -5 Q172 -6 165 -6 Q158 -6 136 -2 Q114 2 93 16 Q72 30 58.5 58.5 Q45 87 53 135 Q63 188 104.5 222.5 Q146 257 209 257 Q232 257 261 252 Q290 247 325 224 L327 238 Q329 251 326.5 262 Q324 273 313 281 Q302 289 281.5 293.5 Q261 298 226 298 Q213 298 197.5 297 Q182 296 167 294.5 Q152 293 138.5 291 Q125 289 116 288 L134 390 Q149 395 163 399 Q177 403 193.5 405.5 Q210 408 231 409.5 Q252 411 280 411 Q374 411 415 362 Q444 385 479 398 Q514 411 553 411 Q595 411 626 397 Q657 383 676 358.5 Q695 334 701.5 300 Q708 266 701 226 L690 162 Z M307 138 Q302 145 293 151 Q284 156 271 159.5 Q258 163 237 163 Q198 163 185.5 154 Q173 145 171 133 Q169 122 180.5 114.5 Q192 107 227 107 Q251 107 266 110 Q281 113 290 117 Q300 121 305 127 L307 138 Z M587 246 Q585 269 571.5 283.5 Q558 298 525 298 Q495 298 473 281.5 Q451 265 447 246 L587 246 Z " />
<glyph glyph-name="ccedilla" unicode="&#xe7;" horiz-adv-x="415" d="M404 54 Q374 30 348.5 18 Q323 6 301 0.5 Q279 -5 261 -5.5 Q243 -6 226 -6 Q199 -5 166.5 5.5 Q134 16 108 40.5 Q82 65 68.5 105.5 Q55 146 66 207 Q75 261 101.5 299.5 Q128 338 161.5 363 Q195 388 231.5 399.5 Q268 411 298 411 Q314 411 332.5 409.5 Q351 408 371.5 402 Q392 396 413.5 384 Q435 372 456 352 Q439 330 422.5 310.5 Q406 291 389 269 Q356 289 333 293.5 Q310 298 293 298 Q280 298 263 294 Q246 290 230 279.5 Q214 269 201.5 252 Q189 235 184 208 Q179 177 185 157.5 Q191 138 203.5 126.5 Q216 115 231 111 Q246 107 259 107 Q277 107 300.5 111 Q324 115 366 135 Q376 113 386 93.5 Q396 74 404 54 Z M179 -64 L282 -64 L196 -207 L74 -207 L179 -64 Z " />
<glyph glyph-name="egrave" unicode="&#xe8;" horiz-adv-x="451" d="M439 162 L181 162 Q182 150 185 139.5 Q188 129 198.5 120.5 Q209 112 229 107.5 Q249 103 283 103 Q291 103 306.5 104.5 Q322 106 340 108.5 Q358 111 375.5 113.5 Q393 116 405 117 L388 20 Q372 10 330 2 Q288 -6 229 -6 Q181 -6 147.5 10.5 Q114 27 94.5 55 Q75 83 69 121.5 Q63 160 70 203 Q78 246 99 284 Q120 322 150.5 350 Q181 378 220 394.5 Q259 411 302 411 Q344 411 375 397 Q406 383 425 358.5 Q444 334 450.5 300 Q457 266 450 226 L439 162 Z M336 246 Q334 269 320.5 283.5 Q307 298 274 298 Q244 298 222 281.5 Q200 265 196 246 L336 246 Z M200 612 L322 612 L358 469 L255 469 L200 612 Z " />
<glyph glyph-name="eacute" unicode="&#xe9;" horiz-adv-x="451" d="M439 162 L181 162 Q182 150 185 139.5 Q188 129 198.5 120.5 Q209 112 229 107.5 Q249 103 283 103 Q291 103 306.5 104.5 Q322 106 340 108.5 Q358 111 375.5 113.5 Q393 116 405 117 L388 20 Q372 10 330 2 Q288 -6 229 -6 Q181 -6 147.5 10.5 Q114 27 94.5 55 Q75 83 69 121.5 Q63 160 70 203 Q78 246 99 284 Q120 322 150.5 350 Q181 378 220 394.5 Q259 411 302 411 Q344 411 375 397 Q406 383 425 358.5 Q444 334 450.5 300 Q457 266 450 226 L439 162 Z M336 246 Q334 269 320.5 283.5 Q307 298 274 298 Q244 298 222 281.5 Q200 265 196 246 L336 246 Z M356 469 L253 469 L339 612 L461 612 L356 469 Z " />
<glyph glyph-name="ecircumflex" unicode="&#xea;" horiz-adv-x="451" d="M439 162 L181 162 Q182 150 185 139.5 Q188 129 198.5 120.5 Q209 112 229 107.5 Q249 103 283 103 Q291 103 306.5 104.5 Q322 106 340 108.5 Q358 111 375.5 113.5 Q393 116 405 117 L388 20 Q372 10 330 2 Q288 -6 229 -6 Q181 -6 147.5 10.5 Q114 27 94.5 55 Q75 83 69 121.5 Q63 160 70 203 Q78 246 99 284 Q120 322 150.5 350 Q181 378 220 394.5 Q259 411 302 411 Q344 411 375 397 Q406 383 425 358.5 Q444 334 450.5 300 Q457 266 450 226 L439 162 Z M336 246 Q334 269 320.5 283.5 Q307 298 274 298 Q244 298 222 281.5 Q200 265 196 246 L336 246 Z M404 638 L455 469 L347 469 L327 552 L277 469 L169 469 L280 638 L404 638 Z " />
<glyph glyph-name="edieresis" unicode="&#xeb;" horiz-adv-x="451" d="M439 162 L181 162 Q182 150 185 139.5 Q188 129 198.5 120.5 Q209 112 229 107.5 Q249 103 283 103 Q291 103 306.5 104.5 Q322 106 340 108.5 Q358 111 375.5 113.5 Q393 116 405 117 L388 20 Q372 10 330 2 Q288 -6 229 -6 Q181 -6 147.5 10.5 Q114 27 94.5 55 Q75 83 69 121.5 Q63 160 70 203 Q78 246 99 284 Q120 322 150.5 350 Q181 378 220 394.5 Q259 411 302 411 Q344 411 375 397 Q406 383 425 358.5 Q444 334 450.5 300 Q457 266 450 226 L439 162 Z M336 246 Q334 269 320.5 283.5 Q307 298 274 298 Q244 298 222 281.5 Q200 265 196 246 L336 246 Z M195 569 L314 569 L296 469 L177 469 L195 569 Z M350 569 L469 569 L451 469 L332 469 L350 569 Z " />
<glyph glyph-name="igrave" unicode="&#xec;" horiz-adv-x="228" d="M126 405 L244 405 L173 0 L55 0 L126 405 Z M85 612 L207 612 L243 469 L140 469 L85 612 Z " />
<glyph glyph-name="iacute" unicode="&#xed;" horiz-adv-x="228" d="M173 0 L55 0 L126 405 L244 405 L173 0 Z M252 469 L149 469 L235 612 L357 612 L252 469 Z " />
<glyph glyph-name="icircumflex" unicode="&#xee;" horiz-adv-x="228" d="M173 0 L55 0 L126 405 L244 405 L173 0 Z M288 638 L339 469 L231 469 L211 552 L161 469 L53 469 L164 638 L288 638 Z " />
<glyph glyph-name="idieresis" unicode="&#xef;" horiz-adv-x="228" d="M173 0 L55 0 L126 405 L244 405 L173 0 Z M77 569 L196 569 L178 469 L59 469 L77 569 Z M232 569 L351 569 L333 469 L214 469 L232 569 Z " />
<glyph glyph-name="eth" unicode="&#xf0;" horiz-adv-x="529" d="M500 608 Q535 565 545 499 Q555 433 536 326 L512 191 Q501 128 470 89.5 Q439 51 401 29.5 Q363 8 324.5 1 Q286 -6 259 -6 L250 -6 Q223 -6 187.5 1 Q152 8 122 29.5 Q92 51 75 90 Q58 129 69 193 Q78 247 104.5 283 Q131 319 164.5 341 Q198 363 235.5 372.5 Q273 382 305 382 Q314 382 326.5 382 Q339 382 354 379 Q369 376 385.5 368 Q402 360 419 344 Q425 381 428 408 Q431 435 430 455 Q429 475 424 490 Q419 505 408 518 L318 428 L258 485 L317 542 Q260 540 226.5 535.5 Q193 531 180 529 L198 631 Q214 640 256.5 648.5 Q299 657 358 657 Q375 657 391.5 655.5 Q408 654 425 650 L480 705 Q496 691 511 676.5 Q526 662 540 648 L500 608 Z M274 107 Q286 107 304.5 110 Q323 113 340.5 121.5 Q358 130 372.5 146.5 Q387 163 392 190 Q397 217 388.5 232.5 Q380 248 365.5 256 Q351 264 333.5 266 Q316 268 303 268 Q290 268 272 266 Q254 264 236.5 256 Q219 248 205 232.5 Q191 217 186 190 Q181 162 189.5 145.5 Q198 129 213 120.5 Q228 112 245 109.5 Q262 107 274 107 Z " />
<glyph glyph-name="ntilde" unicode="&#xf1;" horiz-adv-x="468" d="M50 0 L121 405 L232 405 L232 362 Q250 380 269 390 Q288 400 305 404.5 Q322 409 337 410 Q352 411 363 411 Q390 411 412.5 401 Q435 391 450 373.5 Q465 356 471 332.5 Q477 309 472 282 L423 0 L305 0 L348 247 Q353 276 336.5 287 Q320 298 302 298 Q280 298 263 290 Q246 282 235 272 Q221 261 211 246 L168 0 L50 0 Z M467 509 Q442 492 416 480.5 Q390 469 366 469 Q351 469 338.5 474.5 Q326 480 314 486 Q302 492 289.5 497.5 Q277 503 262 503 Q235 503 212 488 L189 572 Q215 590 236.5 599 Q258 608 281 608 Q297 608 310 602.5 Q323 597 335 590.5 Q347 584 359.5 578.5 Q372 573 387 573 Q402 573 415.5 578 Q429 583 444 592 L467 509 Z " />
<glyph glyph-name="ograve" unicode="&#xf2;" horiz-adv-x="471" d="M230 -6 Q203 -6 171 3.5 Q139 13 113 37 Q87 61 73.5 102 Q60 143 71 207 Q80 261 106.5 299.5 Q133 338 167 363 Q201 388 238.5 399.5 Q276 411 309 411 Q341 411 374 399.5 Q407 388 432 363 Q457 338 469 299.5 Q481 261 472 207 Q461 143 433 102 Q405 61 370.5 37 Q336 13 300.5 3.5 Q265 -6 238 -6 L230 -6 Z M254 107 Q267 107 282 110.5 Q297 114 311 124.5 Q325 135 336.5 154.5 Q348 174 354 205 Q359 232 354 249.5 Q349 267 339 278 Q329 289 315.5 293.5 Q302 298 288 298 Q274 298 258.5 293.5 Q243 289 229 278 Q215 267 204.5 249.5 Q194 232 189 205 Q183 174 188 154.5 Q193 135 203.5 124.5 Q214 114 227.5 110.5 Q241 107 254 107 Z M208 612 L330 612 L366 469 L263 469 L208 612 Z " />
<glyph glyph-name="oacute" unicode="&#xf3;" horiz-adv-x="471" d="M229 -6 Q202 -6 170 3.5 Q138 13 112 37 Q86 61 73 102 Q60 143 71 207 Q80 261 106 299.5 Q132 338 166 363 Q200 388 237 399.5 Q274 411 306 411 Q339 411 372.5 399.5 Q406 388 431 363 Q456 338 468.5 299.5 Q481 261 472 207 Q461 143 432.5 102 Q404 61 369.5 37 Q335 13 299.5 3.5 Q264 -6 237 -6 L229 -6 Z M253 107 Q266 107 281 110.5 Q296 114 310.5 124.5 Q325 135 336.5 154.5 Q348 174 354 205 Q359 232 354 249.5 Q349 267 339 278 Q329 289 315 293.5 Q301 298 287 298 Q273 298 257.5 293.5 Q242 289 228.5 278 Q215 267 204.5 249.5 Q194 232 189 205 Q183 174 187.5 154.5 Q192 135 202.5 124.5 Q213 114 226.5 110.5 Q240 107 253 107 Z M372 469 L269 469 L355 612 L477 612 L372 469 Z " />
<glyph glyph-name="ocircumflex" unicode="&#xf4;" horiz-adv-x="471" d="M229 -6 Q202 -6 170 3.5 Q138 13 112 37 Q86 61 73 102 Q60 143 71 207 Q80 261 106 299.5 Q132 338 166 363 Q200 388 237 399.5 Q274 411 306 411 Q339 411 372.5 399.5 Q406 388 431 363 Q456 338 468.5 299.5 Q481 261 472 207 Q461 143 432.5 102 Q404 61 369.5 37 Q335 13 299.5 3.5 Q264 -6 237 -6 L229 -6 Z M253 107 Q266 107 281 110.5 Q296 114 310.5 124.5 Q325 135 336.5 154.5 Q348 174 354 205 Q359 232 354 249.5 Q349 267 339 278 Q329 289 315 293.5 Q301 298 287 298 Q273 298 257.5 293.5 Q242 289 228.5 278 Q215 267 204.5 249.5 Q194 232 189 205 Q183 174 187.5 154.5 Q192 135 202.5 124.5 Q213 114 226.5 110.5 Q240 107 253 107 Z M409 638 L460 469 L352 469 L332 552 L282 469 L174 469 L285 638 L409 638 Z " />
<glyph glyph-name="otilde" unicode="&#xf5;" horiz-adv-x="471" d="M229 -6 Q202 -6 170 3.5 Q138 13 112 37 Q86 61 73 102 Q60 143 71 207 Q80 261 106 299.5 Q132 338 166 363 Q200 388 237 399.5 Q274 411 306 411 Q339 411 372.5 399.5 Q406 388 431 363 Q456 338 468.5 299.5 Q481 261 472 207 Q461 143 432.5 102 Q404 61 369.5 37 Q335 13 299.5 3.5 Q264 -6 237 -6 L229 -6 Z M253 107 Q266 107 281 110.5 Q296 114 310.5 124.5 Q325 135 336.5 154.5 Q348 174 354 205 Q359 232 354 249.5 Q349 267 339 278 Q329 289 315 293.5 Q301 298 287 298 Q273 298 257.5 293.5 Q242 289 228.5 278 Q215 267 204.5 249.5 Q194 232 189 205 Q183 174 187.5 154.5 Q192 135 202.5 124.5 Q213 114 226.5 110.5 Q240 107 253 107 Z M467 509 Q442 492 416 480.5 Q390 469 366 469 Q351 469 338.5 474.5 Q326 480 314 486 Q302 492 289.5 497.5 Q277 503 262 503 Q235 503 212 488 L189 572 Q215 590 236.5 599 Q258 608 281 608 Q297 608 310 602.5 Q323 597 335 590.5 Q347 584 359.5 578.5 Q372 573 387 573 Q402 573 415.5 578 Q429 583 444 592 L467 509 Z " />
<glyph glyph-name="odieresis" unicode="&#xf6;" horiz-adv-x="471" d="M229 -6 Q202 -6 170 3.5 Q138 13 112 37 Q86 61 73 102 Q60 143 71 207 Q80 261 106 299.5 Q132 338 166 363 Q200 388 237 399.5 Q274 411 306 411 Q339 411 372.5 399.5 Q406 388 431 363 Q456 338 468.5 299.5 Q481 261 472 207 Q461 143 432.5 102 Q404 61 369.5 37 Q335 13 299.5 3.5 Q264 -6 237 -6 L229 -6 Z M253 107 Q266 107 281 110.5 Q296 114 310.5 124.5 Q325 135 336.5 154.5 Q348 174 354 205 Q359 232 354 249.5 Q349 267 339 278 Q329 289 315 293.5 Q301 298 287 298 Q273 298 257.5 293.5 Q242 289 228.5 278 Q215 267 204.5 249.5 Q194 232 189 205 Q183 174 187.5 154.5 Q192 135 202.5 124.5 Q213 114 226.5 110.5 Q240 107 253 107 Z M198 569 L317 569 L299 469 L180 469 L198 569 Z M353 569 L472 569 L454 469 L335 469 L353 569 Z " />
<glyph glyph-name="divide" unicode="&#xf7;" horiz-adv-x="441" d="M83 159 L102 272 L433 272 L414 159 L83 159 Z M170 53 Q175 78 194.5 95.5 Q214 113 239 113 Q264 113 279 95.5 Q294 78 289 53 Q284 28 263.5 11 Q243 -6 218 -6 Q193 -6 179 11 Q165 28 170 53 Z M227 378 Q232 403 252 420 Q272 437 297 437 Q322 437 336.5 420 Q351 403 346 378 Q341 353 321 335.5 Q301 318 276 318 Q251 318 236.5 335.5 Q222 353 227 378 Z " />
<glyph glyph-name="oslash" unicode="&#xf8;" horiz-adv-x="471" d="M426 369 Q454 344 468 304 Q482 264 472 207 Q461 143 433 102 Q405 61 370.5 37 Q336 13 300.5 3.5 Q265 -6 238 -6 L230 -6 Q221 -6 217 -5 L173 -84 L47 -84 L114 36 Q87 60 73.5 101 Q60 142 71 207 Q80 261 106.5 299.5 Q133 338 167 363 Q201 388 238.5 399.5 Q276 411 309 411 Q318 411 323 410 L371 499 L496 499 L426 369 Z M254 107 Q267 107 282 110.5 Q297 114 311 124.5 Q325 135 336.5 154.5 Q348 174 354 205 Q359 232 354 249.5 Q349 267 339 278 Q329 289 315.5 293.5 Q302 298 288 298 Q274 298 258.5 293.5 Q243 289 229 278 Q215 267 204.5 249.5 Q194 232 189 205 Q183 174 188 154.5 Q193 135 203.5 124.5 Q214 114 227.5 110.5 Q241 107 254 107 Z " />
<glyph glyph-name="ugrave" unicode="&#xf9;" horiz-adv-x="468" d="M489 405 L418 0 L307 0 L306 43 Q288 25 269 15 Q250 5 233 0.5 Q216 -4 201 -5 Q186 -6 175 -6 Q148 -6 125.5 4 Q103 14 88.5 31.5 Q74 49 68 72.5 Q62 96 66 123 L116 405 L234 405 L190 158 Q185 129 201.5 118 Q218 107 236 107 Q258 107 275 115 Q292 123 304 133 Q318 144 328 159 L371 405 L489 405 Z M208 612 L330 612 L366 469 L263 469 L208 612 Z " />
<glyph glyph-name="uacute" unicode="&#xfa;" horiz-adv-x="468" d="M489 405 L418 0 L307 0 L306 43 Q288 25 269 15 Q250 5 233 0.5 Q216 -4 201 -5 Q186 -6 175 -6 Q148 -6 125.5 4 Q103 14 88.5 31.5 Q74 49 68 72.5 Q62 96 66 123 L116 405 L234 405 L190 158 Q185 129 201.5 118 Q218 107 236 107 Q258 107 275 115 Q292 123 304 133 Q318 144 328 159 L371 405 L489 405 Z M366 469 L263 469 L349 612 L471 612 L366 469 Z " />
<glyph glyph-name="ucircumflex" unicode="&#xfb;" horiz-adv-x="468" d="M489 405 L418 0 L307 0 L306 43 Q288 25 269 15 Q250 5 233 0.5 Q216 -4 201 -5 Q186 -6 175 -6 Q148 -6 125.5 4 Q103 14 88.5 31.5 Q74 49 68 72.5 Q62 96 66 123 L116 405 L234 405 L190 158 Q185 129 201.5 118 Q218 107 236 107 Q258 107 275 115 Q292 123 304 133 Q318 144 328 159 L371 405 L489 405 Z M407 638 L458 469 L350 469 L330 552 L280 469 L172 469 L283 638 L407 638 Z " />
<glyph glyph-name="udieresis" unicode="&#xfc;" horiz-adv-x="468" d="M489 405 L418 0 L307 0 L306 43 Q288 25 269 15 Q250 5 233 0.5 Q216 -4 201 -5 Q186 -6 175 -6 Q148 -6 125.5 4 Q103 14 88.5 31.5 Q74 49 68 72.5 Q62 96 66 123 L116 405 L234 405 L190 158 Q185 129 201.5 118 Q218 107 236 107 Q258 107 275 115 Q292 123 304 133 Q318 144 328 159 L371 405 L489 405 Z M194 569 L313 569 L295 469 L176 469 L194 569 Z M349 569 L468 569 L450 469 L331 469 L349 569 Z " />
<glyph glyph-name="yacute" unicode="&#xfd;" horiz-adv-x="442" d="M160 11 Q143 108 125.5 208 Q108 308 91 405 L216 405 L245 158 L376 405 L508 405 L223 -79 Q180 -150 141.5 -174 Q103 -198 65 -198 Q34 -198 16 -195.5 Q-2 -193 -8 -191 L8 -91 Q11 -91 17.5 -91.5 Q24 -92 30.5 -92 Q37 -92 42.5 -92 Q48 -92 49 -92 Q53 -92 62 -91 Q71 -90 81.5 -86 Q92 -82 104 -73.5 Q116 -65 126 -51 L160 11 Z M365 469 L262 469 L348 612 L470 612 L365 469 Z " />
<glyph glyph-name="thorn" unicode="&#xfe;" horiz-adv-x="481" d="M152 590 L268 590 L232 362 Q268 397 301 404 Q334 411 355 411 Q387 411 414 399.5 Q441 388 459.5 363 Q478 338 484.5 300 Q491 262 482 209 Q471 147 448.5 105.5 Q426 64 397.5 39.5 Q369 15 338.5 4.5 Q308 -6 281 -6 Q271 -6 257.5 -5.5 Q244 -5 229.5 -1 Q215 3 200.5 11 Q186 19 175 34 L137 -185 L17 -185 L152 590 Z M298 298 Q277 298 262 290.5 Q247 283 236.5 273.5 Q226 264 220 255.5 Q214 247 213 245 L198 160 Q201 145 209 134 Q217 123 229.5 115 Q242 107 264 107 Q272 107 287 111.5 Q302 116 317 127 Q332 138 345.5 158 Q359 178 364 209 Q369 236 362.5 253 Q356 270 344.5 280 Q333 290 319.5 294 Q306 298 298 298 Z " />
<glyph glyph-name="ydieresis" unicode="&#xff;" horiz-adv-x="442" d="M160 11 Q143 108 125.5 208 Q108 308 91 405 L216 405 L245 158 L376 405 L508 405 L223 -79 Q180 -150 141.5 -174 Q103 -198 65 -198 Q34 -198 16 -195.5 Q-2 -193 -8 -191 L8 -91 Q11 -91 17.5 -91.5 Q24 -92 30.5 -92 Q37 -92 42.5 -92 Q48 -92 49 -92 Q53 -92 62 -91 Q71 -90 81.5 -86 Q92 -82 104 -73.5 Q116 -65 126 -51 L160 11 Z M188 569 L307 569 L289 469 L170 469 L188 569 Z M343 569 L462 569 L444 469 L325 469 L343 569 Z " />
<glyph glyph-name="Amacron" unicode="&#x100;" horiz-adv-x="593" d="M578 0 L451 0 L427 129 L211 129 L144 0 L15 0 L338 590 L465 590 L578 0 Z M272 240 L407 240 L371 422 L272 240 Z M261 657 L279 755 L581 755 L563 657 L261 657 Z " />
<glyph glyph-name="amacron" unicode="&#x101;" horiz-adv-x="454" d="M160 469 L177 567 L479 567 L462 469 L160 469 Z M404 0 L293 0 L292 39 Q276 22 256.5 13 Q237 4 219.5 -0.5 Q202 -5 187.5 -5.5 Q173 -6 165 -6 Q158 -6 136 -2 Q114 2 93 16 Q72 30 58.5 58.5 Q45 87 53 135 Q63 188 104.5 222.5 Q146 257 209 257 Q232 257 261 252 Q290 247 325 224 L327 238 Q329 251 326.5 262 Q324 273 313 281 Q302 289 281.5 293.5 Q261 298 226 298 Q213 298 197.5 297 Q182 296 167 294.5 Q152 293 138.5 291 Q125 289 116 288 L134 390 Q149 395 163 399 Q177 403 193.5 405.5 Q210 408 231 409.5 Q252 411 280 411 Q373 411 414.5 364 Q456 317 445 234 L404 0 Z M307 138 Q302 145 293 151 Q284 156 271 159.5 Q258 163 237 163 Q198 163 185.5 154 Q173 145 171 133 Q169 122 180.5 114.5 Q192 107 227 107 Q251 107 266 110 Q281 113 290 117 Q300 121 305 127 L307 138 Z " />
<glyph glyph-name="Abreve" unicode="&#x102;" horiz-adv-x="593" d="M412 657 Q384 657 358.5 664.5 Q333 672 314.5 688 Q296 704 286 730 Q276 756 279 792 L367 792 Q368 775 374 765 Q380 755 389 749.5 Q398 744 408 742.5 Q418 741 427 741 Q445 741 468.5 749.5 Q492 758 506 792 L595 792 Q586 755 566.5 729.5 Q547 704 522 688 Q497 672 468.5 664.5 Q440 657 412 657 Z M578 0 L451 0 L427 129 L211 129 L144 0 L15 0 L338 590 L465 590 L578 0 Z M272 240 L407 240 L371 422 L272 240 Z " />
<glyph glyph-name="abreve" unicode="&#x103;" horiz-adv-x="454" d="M318 469 Q290 469 264.5 476.5 Q239 484 220.5 500 Q202 516 192 542 Q182 568 185 604 L273 604 Q274 587 280 577 Q286 567 295 561.5 Q304 556 314 554.5 Q324 553 333 553 Q351 553 374.5 561.5 Q398 570 412 604 L501 604 Q492 567 472.5 541.5 Q453 516 428 500 Q403 484 374.5 476.5 Q346 469 318 469 Z M404 0 L293 0 L292 39 Q276 22 256.5 13 Q237 4 219.5 -0.5 Q202 -5 187.5 -5.5 Q173 -6 165 -6 Q158 -6 136 -2 Q114 2 93 16 Q72 30 58.5 58.5 Q45 87 53 135 Q63 188 104.5 222.5 Q146 257 209 257 Q232 257 261 252 Q290 247 325 224 L327 238 Q329 251 326.5 262 Q324 273 313 281 Q302 289 281.5 293.5 Q261 298 226 298 Q213 298 197.5 297 Q182 296 167 294.5 Q152 293 138.5 291 Q125 289 116 288 L134 390 Q149 395 163 399 Q177 403 193.5 405.5 Q210 408 231 409.5 Q252 411 280 411 Q373 411 414.5 364 Q456 317 445 234 L404 0 Z M307 138 Q302 145 293 151 Q284 156 271 159.5 Q258 163 237 163 Q198 163 185.5 154 Q173 145 171 133 Q169 122 180.5 114.5 Q192 107 227 107 Q251 107 266 110 Q281 113 290 117 Q300 121 305 127 L307 138 Z " />
<glyph glyph-name="Aogonek" unicode="&#x104;" horiz-adv-x="593" d="M578 0 L451 0 L427 129 L211 129 L144 0 L15 0 L338 590 L465 590 L578 0 Z M272 240 L407 240 L371 422 L272 240 Z M358 -207 L480 -207 L566 -64 L463 -64 L358 -207 Z " />
<glyph glyph-name="aogonek" unicode="&#x105;" horiz-adv-x="454" d="M182 -207 L304 -207 L390 -64 L287 -64 L182 -207 Z M404 0 L293 0 L292 39 Q276 22 256.5 13 Q237 4 219.5 -0.5 Q202 -5 187.5 -5.5 Q173 -6 165 -6 Q158 -6 136 -2 Q114 2 93 16 Q72 30 58.5 58.5 Q45 87 53 135 Q63 188 104.5 222.5 Q146 257 209 257 Q232 257 261 252 Q290 247 325 224 L327 238 Q329 251 326.5 262 Q324 273 313 281 Q302 289 281.5 293.5 Q261 298 226 298 Q213 298 197.5 297 Q182 296 167 294.5 Q152 293 138.5 291 Q125 289 116 288 L134 390 Q149 395 163 399 Q177 403 193.5 405.5 Q210 408 231 409.5 Q252 411 280 411 Q373 411 414.5 364 Q456 317 445 234 L404 0 Z M307 138 Q302 145 293 151 Q284 156 271 159.5 Q258 163 237 163 Q198 163 185.5 154 Q173 145 171 133 Q169 122 180.5 114.5 Q192 107 227 107 Q251 107 266 110 Q281 113 290 117 Q300 121 305 127 L307 138 Z " />
<glyph glyph-name="Cacute" unicode="&#x106;" horiz-adv-x="543" d="M405 482 Q375 482 342.5 474.5 Q310 467 282 446.5 Q254 426 232 391 Q210 356 201 301 Q190 238 201 200 Q212 162 234.5 141 Q257 120 286 113.5 Q315 107 339 107 Q373 107 406.5 113 Q440 119 475 143 L529 66 Q481 30 426 12 Q371 -6 321 -6 Q281 -6 232 7 Q183 20 144.5 54.5 Q106 89 86 149 Q66 209 83 304 Q97 384 134 439.5 Q171 495 220 529.5 Q269 564 323 579.5 Q377 595 426 595 Q477 595 525 579.5 Q573 564 608 526 Q586 503 567.5 485.5 Q549 468 527 446 Q501 470 470 476 Q439 482 405 482 Z M462 657 L359 657 L446 800 L568 800 L462 657 Z " />
<glyph glyph-name="cacute" unicode="&#x107;" horiz-adv-x="415" d="M404 54 Q374 30 348.5 18 Q323 6 301 0.5 Q279 -5 261 -5.5 Q243 -6 226 -6 Q199 -5 166.5 5.5 Q134 16 108 40.5 Q82 65 68.5 105.5 Q55 146 66 207 Q75 261 101.5 299.5 Q128 338 161.5 363 Q195 388 231.5 399.5 Q268 411 298 411 Q314 411 332.5 409.5 Q351 408 371.5 402 Q392 396 413.5 384 Q435 372 456 352 Q439 330 422.5 310.5 Q406 291 389 269 Q356 289 333 293.5 Q310 298 293 298 Q280 298 263 294 Q246 290 230 279.5 Q214 269 201.5 252 Q189 235 184 208 Q179 177 185 157.5 Q191 138 203.5 126.5 Q216 115 231 111 Q246 107 259 107 Q277 107 300.5 111 Q324 115 366 135 Q376 113 386 93.5 Q396 74 404 54 Z M362 469 L259 469 L345 612 L467 612 L362 469 Z " />
<glyph glyph-name="Ccircumflex" unicode="&#x108;" horiz-adv-x="543" d="M405 482 Q375 482 342.5 474.5 Q310 467 282 446.5 Q254 426 232 391 Q210 356 201 301 Q190 238 201 200 Q212 162 234.5 141 Q257 120 286 113.5 Q315 107 339 107 Q373 107 406.5 113 Q440 119 475 143 L529 66 Q481 30 426 12 Q371 -6 321 -6 Q281 -6 232 7 Q183 20 144.5 54.5 Q106 89 86 149 Q66 209 83 304 Q97 384 134 439.5 Q171 495 220 529.5 Q269 564 323 579.5 Q377 595 426 595 Q477 595 525 579.5 Q573 564 608 526 Q586 503 567.5 485.5 Q549 468 527 446 Q501 470 470 476 Q439 482 405 482 Z M525 826 L576 657 L468 657 L448 740 L398 657 L290 657 L401 826 L525 826 Z " />
<glyph glyph-name="ccircumflex" unicode="&#x109;" horiz-adv-x="415" d="M404 54 Q374 30 348.5 18 Q323 6 301 0.5 Q279 -5 261 -5.5 Q243 -6 226 -6 Q199 -5 166.5 5.5 Q134 16 108 40.5 Q82 65 68.5 105.5 Q55 146 66 207 Q75 261 101.5 299.5 Q128 338 161.5 363 Q195 388 231.5 399.5 Q268 411 298 411 Q314 411 332.5 409.5 Q351 408 371.5 402 Q392 396 413.5 384 Q435 372 456 352 Q439 330 422.5 310.5 Q406 291 389 269 Q356 289 333 293.5 Q310 298 293 298 Q280 298 263 294 Q246 290 230 279.5 Q214 269 201.5 252 Q189 235 184 208 Q179 177 185 157.5 Q191 138 203.5 126.5 Q216 115 231 111 Q246 107 259 107 Q277 107 300.5 111 Q324 115 366 135 Q376 113 386 93.5 Q396 74 404 54 Z M393 638 L444 469 L336 469 L316 552 L266 469 L158 469 L269 638 L393 638 Z " />
<glyph glyph-name="Cdotaccent" unicode="&#x10a;" horiz-adv-x="543" d="M405 482 Q375 482 342.5 474.5 Q310 467 282 446.5 Q254 426 232 391 Q210 356 201 301 Q190 238 201 200 Q212 162 234.5 141 Q257 120 286 113.5 Q315 107 339 107 Q373 107 406.5 113 Q440 119 475 143 L529 66 Q481 30 426 12 Q371 -6 321 -6 Q281 -6 232 7 Q183 20 144.5 54.5 Q106 89 86 149 Q66 209 83 304 Q97 384 134 439.5 Q171 495 220 529.5 Q269 564 323 579.5 Q377 595 426 595 Q477 595 525 579.5 Q573 564 608 526 Q586 503 567.5 485.5 Q549 468 527 446 Q501 470 470 476 Q439 482 405 482 Z M366 657 L485 657 L503 757 L384 757 L366 657 Z " />
<glyph glyph-name="cdotaccent" unicode="&#x10b;" horiz-adv-x="415" d="M404 54 Q374 30 348.5 18 Q323 6 301 0.5 Q279 -5 261 -5.5 Q243 -6 226 -6 Q199 -5 166.5 5.5 Q134 16 108 40.5 Q82 65 68.5 105.5 Q55 146 66 207 Q75 261 101.5 299.5 Q128 338 161.5 363 Q195 388 231.5 399.5 Q268 411 298 411 Q314 411 332.5 409.5 Q351 408 371.5 402 Q392 396 413.5 384 Q435 372 456 352 Q439 330 422.5 310.5 Q406 291 389 269 Q356 289 333 293.5 Q310 298 293 298 Q280 298 263 294 Q246 290 230 279.5 Q214 269 201.5 252 Q189 235 184 208 Q179 177 185 157.5 Q191 138 203.5 126.5 Q216 115 231 111 Q246 107 259 107 Q277 107 300.5 111 Q324 115 366 135 Q376 113 386 93.5 Q396 74 404 54 Z M244 469 L363 469 L381 569 L262 569 L244 469 Z " />
<glyph glyph-name="Ccaron" unicode="&#x10c;" horiz-adv-x="543" d="M405 482 Q375 482 342.5 474.5 Q310 467 282 446.5 Q254 426 232 391 Q210 356 201 301 Q190 238 201 200 Q212 162 234.5 141 Q257 120 286 113.5 Q315 107 339 107 Q373 107 406.5 113 Q440 119 475 143 L529 66 Q481 30 426 12 Q371 -6 321 -6 Q281 -6 232 7 Q183 20 144.5 54.5 Q106 89 86 149 Q66 209 83 304 Q97 384 134 439.5 Q171 495 220 529.5 Q269 564 323 579.5 Q377 595 426 595 Q477 595 525 579.5 Q573 564 608 526 Q586 503 567.5 485.5 Q549 468 527 446 Q501 470 470 476 Q439 482 405 482 Z M358 657 L307 826 L415 826 L436 743 L485 826 L593 826 L482 657 L358 657 Z " />
<glyph glyph-name="ccaron" unicode="&#x10d;" horiz-adv-x="415" d="M404 54 Q374 30 348.5 18 Q323 6 301 0.5 Q279 -5 261 -5.5 Q243 -6 226 -6 Q199 -5 166.5 5.5 Q134 16 108 40.5 Q82 65 68.5 105.5 Q55 146 66 207 Q75 261 101.5 299.5 Q128 338 161.5 363 Q195 388 231.5 399.5 Q268 411 298 411 Q314 411 332.5 409.5 Q351 408 371.5 402 Q392 396 413.5 384 Q435 372 456 352 Q439 330 422.5 310.5 Q406 291 389 269 Q356 289 333 293.5 Q310 298 293 298 Q280 298 263 294 Q246 290 230 279.5 Q214 269 201.5 252 Q189 235 184 208 Q179 177 185 157.5 Q191 138 203.5 126.5 Q216 115 231 111 Q246 107 259 107 Q277 107 300.5 111 Q324 115 366 135 Q376 113 386 93.5 Q396 74 404 54 Z M253 469 L202 638 L310 638 L330 555 L380 638 L488 638 L377 469 L253 469 Z " />
<glyph glyph-name="Dcaron" unicode="&#x10e;" horiz-adv-x="576" d="M589 304 Q573 212 535.5 153 Q498 94 451 60 Q404 26 354.5 13 Q305 0 265 0 L55 0 L159 590 L357 590 Q405 590 452.5 575.5 Q500 561 535 527.5 Q570 494 586.5 439 Q603 384 589 304 Z M271 113 Q296 113 326 119 Q356 125 384.5 144.5 Q413 164 436.5 201 Q460 238 471 301 Q480 355 472.5 389.5 Q465 424 445.5 443.5 Q426 463 398 470 Q370 477 339 477 L257 477 L192 113 L271 113 Z M319 657 L268 826 L376 826 L397 743 L446 826 L554 826 L443 657 L319 657 Z " />
<glyph glyph-name="dcaron" unicode="&#x10f;" horiz-adv-x="655" d="M431 0 L324 0 L321 39 Q304 22 286 13 Q268 4 251.5 -0.5 Q235 -5 221 -5.5 Q207 -6 196 -6 Q169 -6 142.5 4.5 Q116 15 96.5 39.5 Q77 64 68.5 105.5 Q60 147 71 209 Q80 262 100.5 300 Q121 338 148 363 Q175 388 207 399.5 Q239 411 270 411 Q281 411 294.5 410.5 Q308 410 322.5 406 Q337 402 351.5 393.5 Q366 385 378 369 L417 590 L535 590 L431 0 Z M354 245 Q351 260 342 272 Q335 282 322 290 Q309 298 287 298 Q279 298 264.5 294 Q250 290 235 280 Q220 270 207 253 Q194 236 189 209 Q184 178 190 158 Q196 138 207.5 127 Q219 116 232 111.5 Q245 107 253 107 Q275 107 291 115.5 Q307 124 318 134 Q330 145 339 160 L354 245 Z M749 590 L627 590 L540 447 L643 447 L749 590 Z " />
<glyph glyph-name="Dcroat" unicode="&#x110;" horiz-adv-x="613" d="M75 341 L152 341 L196 590 L394 590 Q442 590 489.5 575.5 Q537 561 572 527.5 Q607 494 623.5 439 Q640 384 626 304 Q610 212 572.5 153 Q535 94 488 60 Q441 26 391.5 13 Q342 0 302 0 L92 0 L134 242 L57 242 L75 341 Z M308 113 Q333 113 363 119 Q393 125 421.5 144.5 Q450 164 473.5 201 Q497 238 508 301 Q517 355 509.5 389.5 Q502 424 482.5 443.5 Q463 463 435 470 Q407 477 376 477 L294 477 L270 341 L406 341 L388 242 L252 242 L229 113 L308 113 Z " />
<glyph glyph-name="dcroat" unicode="&#x111;" horiz-adv-x="490" d="M319 452 L336 550 L409 550 L417 590 L535 590 L527 550 L596 550 L579 452 L510 452 L431 0 L324 0 L321 39 Q304 22 286 13 Q268 4 251.5 -0.5 Q235 -5 221 -5.5 Q207 -6 196 -6 Q169 -6 142.5 4.5 Q116 15 96.5 39.5 Q77 64 68.5 105.5 Q60 147 71 209 Q80 262 100.5 300 Q121 338 148 363 Q175 388 207 399.5 Q239 411 270 411 Q281 411 294.5 410.5 Q308 410 322.5 406 Q337 402 351.5 393.5 Q366 385 378 369 L392 452 L319 452 Z M354 245 Q351 260 342 272 Q335 282 322 290 Q309 298 287 298 Q279 298 264.5 294 Q250 290 235 280 Q220 270 207 253 Q194 236 189 209 Q184 178 190 158 Q196 138 207.5 127 Q219 116 232 111.5 Q245 107 253 107 Q275 107 291 115.5 Q307 124 318 134 Q330 145 339 160 L354 245 Z " />
<glyph glyph-name="Emacron" unicode="&#x112;" horiz-adv-x="503" d="M257 477 L232 340 L465 340 L446 227 L213 227 L192 113 L477 113 L458 0 L55 0 L159 590 L562 590 L542 477 L257 477 Z M220 657 L238 755 L540 755 L522 657 L220 657 Z " />
<glyph glyph-name="emacron" unicode="&#x113;" horiz-adv-x="451" d="M439 162 L181 162 Q182 150 185 139.5 Q188 129 198.5 120.5 Q209 112 229 107.5 Q249 103 283 103 Q291 103 306.5 104.5 Q322 106 340 108.5 Q358 111 375.5 113.5 Q393 116 405 117 L388 20 Q372 10 330 2 Q288 -6 229 -6 Q181 -6 147.5 10.5 Q114 27 94.5 55 Q75 83 69 121.5 Q63 160 70 203 Q78 246 99 284 Q120 322 150.5 350 Q181 378 220 394.5 Q259 411 302 411 Q344 411 375 397 Q406 383 425 358.5 Q444 334 450.5 300 Q457 266 450 226 L439 162 Z M336 246 Q334 269 320.5 283.5 Q307 298 274 298 Q244 298 222 281.5 Q200 265 196 246 L336 246 Z M157 469 L174 567 L476 567 L459 469 L157 469 Z " />
<glyph glyph-name="Edotaccent" unicode="&#x116;" horiz-adv-x="503" d="M257 477 L232 340 L465 340 L446 227 L213 227 L192 113 L477 113 L458 0 L55 0 L159 590 L562 590 L542 477 L257 477 Z M343 757 L462 757 L444 657 L325 657 L343 757 Z " />
<glyph glyph-name="edotaccent" unicode="&#x117;" horiz-adv-x="451" d="M439 162 L181 162 Q182 150 185 139.5 Q188 129 198.5 120.5 Q209 112 229 107.5 Q249 103 283 103 Q291 103 306.5 104.5 Q322 106 340 108.5 Q358 111 375.5 113.5 Q393 116 405 117 L388 20 Q372 10 330 2 Q288 -6 229 -6 Q181 -6 147.5 10.5 Q114 27 94.5 55 Q75 83 69 121.5 Q63 160 70 203 Q78 246 99 284 Q120 322 150.5 350 Q181 378 220 394.5 Q259 411 302 411 Q344 411 375 397 Q406 383 425 358.5 Q444 334 450.5 300 Q457 266 450 226 L439 162 Z M336 246 Q334 269 320.5 283.5 Q307 298 274 298 Q244 298 222 281.5 Q200 265 196 246 L336 246 Z M266 569 L385 569 L367 469 L248 469 L266 569 Z " />
<glyph glyph-name="Eogonek" unicode="&#x118;" horiz-adv-x="503" d="M257 477 L232 340 L465 340 L446 227 L213 227 L192 113 L477 113 L458 0 L55 0 L159 590 L562 590 L542 477 L257 477 Z M238 -207 L360 -207 L446 -64 L343 -64 L238 -207 Z " />
<glyph glyph-name="eogonek" unicode="&#x119;" horiz-adv-x="451" d="M439 162 L181 162 Q182 150 185 139.5 Q188 129 198.5 120.5 Q209 112 229 107.5 Q249 103 283 103 Q291 103 306.5 104.5 Q322 106 340 108.5 Q358 111 375.5 113.5 Q393 116 405 117 L388 20 Q372 10 330 2 Q288 -6 229 -6 Q181 -6 147.5 10.5 Q114 27 94.5 55 Q75 83 69 121.5 Q63 160 70 203 Q78 246 99 284 Q120 322 150.5 350 Q181 378 220 394.5 Q259 411 302 411 Q344 411 375 397 Q406 383 425 358.5 Q444 334 450.5 300 Q457 266 450 226 L439 162 Z M336 246 Q334 269 320.5 283.5 Q307 298 274 298 Q244 298 222 281.5 Q200 265 196 246 L336 246 Z M75 -207 L197 -207 L283 -64 L180 -64 L75 -207 Z " />
<glyph glyph-name="Ecaron" unicode="&#x11a;" horiz-adv-x="503" d="M257 477 L232 340 L465 340 L446 227 L213 227 L192 113 L477 113 L458 0 L55 0 L159 590 L562 590 L542 477 L257 477 Z M318 657 L267 826 L375 826 L396 743 L445 826 L553 826 L442 657 L318 657 Z " />
<glyph glyph-name="ecaron" unicode="&#x11b;" horiz-adv-x="451" d="M439 162 L181 162 Q182 150 185 139.5 Q188 129 198.5 120.5 Q209 112 229 107.5 Q249 103 283 103 Q291 103 306.5 104.5 Q322 106 340 108.5 Q358 111 375.5 113.5 Q393 116 405 117 L388 20 Q372 10 330 2 Q288 -6 229 -6 Q181 -6 147.5 10.5 Q114 27 94.5 55 Q75 83 69 121.5 Q63 160 70 203 Q78 246 99 284 Q120 322 150.5 350 Q181 378 220 394.5 Q259 411 302 411 Q344 411 375 397 Q406 383 425 358.5 Q444 334 450.5 300 Q457 266 450 226 L439 162 Z M336 246 Q334 269 320.5 283.5 Q307 298 274 298 Q244 298 222 281.5 Q200 265 196 246 L336 246 Z M253 469 L202 638 L310 638 L330 555 L380 638 L488 638 L377 469 L253 469 Z " />
<glyph glyph-name="Gcircumflex" unicode="&#x11c;" horiz-adv-x="593" d="M589 322 L546 77 Q521 54 492 38 Q463 22 433.5 12.5 Q404 3 375 -1.5 Q346 -6 321 -6 Q281 -6 232 7 Q183 20 144.5 54.5 Q106 89 86 149 Q66 209 83 304 Q97 384 134 439.5 Q171 495 220 529.5 Q269 564 323 579.5 Q377 595 426 595 Q477 595 525 579.5 Q573 564 608 526 Q586 503 567.5 485.5 Q549 468 527 446 Q501 470 470 476 Q439 482 405 482 Q375 482 342.5 474.5 Q310 467 282 446.5 Q254 426 232 391 Q210 356 201 301 Q190 238 201 200 Q212 162 234.5 141 Q257 120 286 113.5 Q315 107 339 107 Q364 107 388 112.5 Q412 118 438 131 L451 209 L368 209 L388 322 L589 322 Z M510 826 L561 657 L453 657 L433 740 L383 657 L275 657 L386 826 L510 826 Z " />
<glyph glyph-name="gcircumflex" unicode="&#x11d;" horiz-adv-x="486" d="M292 298 Q284 298 269.5 294 Q255 290 240 280 Q225 270 212 253 Q199 236 194 209 Q189 178 195 158 Q201 138 212.5 127 Q224 116 237 111.5 Q250 107 258 107 Q280 107 296 115.5 Q312 124 323 134 Q335 145 344 160 L359 245 Q359 247 356 255.5 Q353 264 345.5 273.5 Q338 283 325.5 290.5 Q313 298 292 298 Z M321 34 Q305 19 287.5 11 Q270 3 254.5 -1 Q239 -5 225 -5.5 Q211 -6 201 -6 Q174 -6 147.5 4.5 Q121 15 101.5 39.5 Q82 64 73.5 105.5 Q65 147 76 209 Q85 262 105.5 300 Q126 338 153 363 Q180 388 212 399.5 Q244 411 275 411 Q286 411 299 410 Q312 409 326 404 Q340 399 354 389 Q368 379 380 362 L396 405 L507 405 L435 -3 Q424 -67 395 -105.5 Q366 -144 330 -164.5 Q294 -185 257 -191.5 Q220 -198 193 -198 Q145 -198 107 -188.5 Q69 -179 43 -154 L94 -59 Q123 -75 157.5 -80 Q192 -85 209 -85 Q221 -85 237.5 -83.5 Q254 -82 269.5 -74 Q285 -66 297.5 -49 Q310 -32 316 0 L321 34 Z M423 638 L474 469 L366 469 L346 552 L296 469 L188 469 L299 638 L423 638 Z " />
<glyph glyph-name="Gbreve" unicode="&#x11e;" horiz-adv-x="593" d="M589 322 L546 77 Q521 54 492 38 Q463 22 433.5 12.5 Q404 3 375 -1.5 Q346 -6 321 -6 Q281 -6 232 7 Q183 20 144.5 54.5 Q106 89 86 149 Q66 209 83 304 Q97 384 134 439.5 Q171 495 220 529.5 Q269 564 323 579.5 Q377 595 426 595 Q477 595 525 579.5 Q573 564 608 526 Q586 503 567.5 485.5 Q549 468 527 446 Q501 470 470 476 Q439 482 405 482 Q375 482 342.5 474.5 Q310 467 282 446.5 Q254 426 232 391 Q210 356 201 301 Q190 238 201 200 Q212 162 234.5 141 Q257 120 286 113.5 Q315 107 339 107 Q364 107 388 112.5 Q412 118 438 131 L451 209 L368 209 L388 322 L589 322 Z M431 657 Q403 657 377.5 664.5 Q352 672 333.5 688 Q315 704 305 730 Q295 756 298 792 L386 792 Q387 775 393 765 Q399 755 408 749.5 Q417 744 427 742.5 Q437 741 446 741 Q464 741 487.5 749.5 Q511 758 525 792 L614 792 Q605 755 585.5 729.5 Q566 704 541 688 Q516 672 487.5 664.5 Q459 657 431 657 Z " />
<glyph glyph-name="gbreve" unicode="&#x11f;" horiz-adv-x="486" d="M292 298 Q284 298 269.5 294 Q255 290 240 280 Q225 270 212 253 Q199 236 194 209 Q189 178 195 158 Q201 138 212.5 127 Q224 116 237 111.5 Q250 107 258 107 Q280 107 296 115.5 Q312 124 323 134 Q335 145 344 160 L359 245 Q359 247 356 255.5 Q353 264 345.5 273.5 Q338 283 325.5 290.5 Q313 298 292 298 Z M321 34 Q305 19 287.5 11 Q270 3 254.5 -1 Q239 -5 225 -5.5 Q211 -6 201 -6 Q174 -6 147.5 4.5 Q121 15 101.5 39.5 Q82 64 73.5 105.5 Q65 147 76 209 Q85 262 105.5 300 Q126 338 153 363 Q180 388 212 399.5 Q244 411 275 411 Q286 411 299 410 Q312 409 326 404 Q340 399 354 389 Q368 379 380 362 L396 405 L507 405 L435 -3 Q424 -67 395 -105.5 Q366 -144 330 -164.5 Q294 -185 257 -191.5 Q220 -198 193 -198 Q145 -198 107 -188.5 Q69 -179 43 -154 L94 -59 Q123 -75 157.5 -80 Q192 -85 209 -85 Q221 -85 237.5 -83.5 Q254 -82 269.5 -74 Q285 -66 297.5 -49 Q310 -32 316 0 L321 34 Z M335 469 Q307 469 281.5 476.5 Q256 484 237.5 500 Q219 516 209 542 Q199 568 202 604 L290 604 Q291 587 297 577 Q303 567 312 561.5 Q321 556 331 554.5 Q341 553 350 553 Q368 553 391.5 561.5 Q415 570 429 604 L518 604 Q509 567 489.5 541.5 Q470 516 445 500 Q420 484 391.5 476.5 Q363 469 335 469 Z " />
<glyph glyph-name="Gdotaccent" unicode="&#x120;" horiz-adv-x="593" d="M589 322 L546 77 Q521 54 492 38 Q463 22 433.5 12.5 Q404 3 375 -1.5 Q346 -6 321 -6 Q281 -6 232 7 Q183 20 144.5 54.5 Q106 89 86 149 Q66 209 83 304 Q97 384 134 439.5 Q171 495 220 529.5 Q269 564 323 579.5 Q377 595 426 595 Q477 595 525 579.5 Q573 564 608 526 Q586 503 567.5 485.5 Q549 468 527 446 Q501 470 470 476 Q439 482 405 482 Q375 482 342.5 474.5 Q310 467 282 446.5 Q254 426 232 391 Q210 356 201 301 Q190 238 201 200 Q212 162 234.5 141 Q257 120 286 113.5 Q315 107 339 107 Q364 107 388 112.5 Q412 118 438 131 L451 209 L368 209 L388 322 L589 322 Z M389 757 L508 757 L490 657 L371 657 L389 757 Z " />
<glyph glyph-name="gdotaccent" unicode="&#x121;" horiz-adv-x="486" d="M292 298 Q284 298 269.5 294 Q255 290 240 280 Q225 270 212 253 Q199 236 194 209 Q189 178 195 158 Q201 138 212.5 127 Q224 116 237 111.5 Q250 107 258 107 Q280 107 296 115.5 Q312 124 323 134 Q335 145 344 160 L359 245 Q359 247 356 255.5 Q353 264 345.5 273.5 Q338 283 325.5 290.5 Q313 298 292 298 Z M321 34 Q305 19 287.5 11 Q270 3 254.5 -1 Q239 -5 225 -5.5 Q211 -6 201 -6 Q174 -6 147.5 4.5 Q121 15 101.5 39.5 Q82 64 73.5 105.5 Q65 147 76 209 Q85 262 105.5 300 Q126 338 153 363 Q180 388 212 399.5 Q244 411 275 411 Q286 411 299 410 Q312 409 326 404 Q340 399 354 389 Q368 379 380 362 L396 405 L507 405 L435 -3 Q424 -67 395 -105.5 Q366 -144 330 -164.5 Q294 -185 257 -191.5 Q220 -198 193 -198 Q145 -198 107 -188.5 Q69 -179 43 -154 L94 -59 Q123 -75 157.5 -80 Q192 -85 209 -85 Q221 -85 237.5 -83.5 Q254 -82 269.5 -74 Q285 -66 297.5 -49 Q310 -32 316 0 L321 34 Z M286 569 L405 569 L387 469 L268 469 L286 569 Z " />
<glyph glyph-name="uni0122" unicode="&#x122;" horiz-adv-x="593" d="M589 322 L546 77 Q521 54 492 38 Q463 22 433.5 12.5 Q404 3 375 -1.5 Q346 -6 321 -6 Q281 -6 232 7 Q183 20 144.5 54.5 Q106 89 86 149 Q66 209 83 304 Q97 384 134 439.5 Q171 495 220 529.5 Q269 564 323 579.5 Q377 595 426 595 Q477 595 525 579.5 Q573 564 608 526 Q586 503 567.5 485.5 Q549 468 527 446 Q501 470 470 476 Q439 482 405 482 Q375 482 342.5 474.5 Q310 467 282 446.5 Q254 426 232 391 Q210 356 201 301 Q190 238 201 200 Q212 162 234.5 141 Q257 120 286 113.5 Q315 107 339 107 Q364 107 388 112.5 Q412 118 438 131 L451 209 L368 209 L388 322 L589 322 Z M151 -207 L273 -207 L359 -64 L256 -64 L151 -207 Z " />
<glyph glyph-name="uni0123" unicode="&#x123;" horiz-adv-x="486" d="M292 298 Q284 298 269.5 294 Q255 290 240 280 Q225 270 212 253 Q199 236 194 209 Q189 178 195 158 Q201 138 212.5 127 Q224 116 237 111.5 Q250 107 258 107 Q280 107 296 115.5 Q312 124 323 134 Q335 145 344 160 L359 245 Q359 247 356 255.5 Q353 264 345.5 273.5 Q338 283 325.5 290.5 Q313 298 292 298 Z M321 34 Q305 19 287.5 11 Q270 3 254.5 -1 Q239 -5 225 -5.5 Q211 -6 201 -6 Q174 -6 147.5 4.5 Q121 15 101.5 39.5 Q82 64 73.5 105.5 Q65 147 76 209 Q85 262 105.5 300 Q126 338 153 363 Q180 388 212 399.5 Q244 411 275 411 Q286 411 299 410 Q312 409 326 404 Q340 399 354 389 Q368 379 380 362 L396 405 L507 405 L435 -3 Q424 -67 395 -105.5 Q366 -144 330 -164.5 Q294 -185 257 -191.5 Q220 -198 193 -198 Q145 -198 107 -188.5 Q69 -179 43 -154 L94 -59 Q123 -75 157.5 -80 Q192 -85 209 -85 Q221 -85 237.5 -83.5 Q254 -82 269.5 -74 Q285 -66 297.5 -49 Q310 -32 316 0 L321 34 Z M362 469 L259 469 L345 612 L467 612 L362 469 Z " />
<glyph glyph-name="Hcircumflex" unicode="&#x124;" horiz-adv-x="591" d="M640 590 L536 0 L418 0 L458 228 L213 228 L173 0 L55 0 L159 590 L277 590 L233 341 L478 341 L522 590 L640 590 Z M502 826 L553 657 L445 657 L425 740 L375 657 L267 657 L378 826 L502 826 Z " />
<glyph glyph-name="hcircumflex" unicode="&#x125;" horiz-adv-x="468" d="M50 0 L154 590 L272 590 L231 361 Q249 379 268 389.5 Q287 400 304.5 404.5 Q322 409 337 410 Q352 411 363 411 Q390 411 412.5 401 Q435 391 450 373.5 Q465 356 471 332.5 Q477 309 472 282 L423 0 L305 0 L348 247 Q353 276 336.5 287 Q320 298 302 298 Q281 298 265 290.5 Q249 283 237 274 Q225 265 218.5 256.5 Q212 248 211 246 L168 0 L50 0 Z M400 826 L451 657 L343 657 L323 740 L273 657 L165 657 L276 826 L400 826 Z " />
<glyph glyph-name="Hbar" unicode="&#x126;" horiz-adv-x="605" d="M620 439 L543 0 L425 0 L465 228 L220 228 L180 0 L62 0 L139 439 L82 439 L99 536 L156 536 L166 590 L284 590 L274 536 L519 536 L529 590 L647 590 L637 536 L694 536 L677 439 L620 439 Z M485 341 L502 439 L257 439 L240 341 L485 341 Z " />
<glyph glyph-name="hbar" unicode="&#x127;" horiz-adv-x="477" d="M71 465 L89 563 L158 563 L165 603 L283 603 L276 563 L349 563 L331 465 L258 465 L240 361 Q258 379 277 389.5 Q296 400 313.5 404.5 Q331 409 346 410 Q361 411 372 411 Q399 411 421.5 401 Q444 391 459 373.5 Q474 356 480 332.5 Q486 309 481 282 L432 0 L314 0 L357 247 Q362 276 345.5 287 Q329 298 311 298 Q290 298 274 290.5 Q258 283 246 274 Q234 265 227.5 256.5 Q221 248 220 246 L177 0 L59 0 L140 465 L71 465 Z " />
<glyph glyph-name="Itilde" unicode="&#x128;" horiz-adv-x="228" d="M173 0 L55 0 L159 590 L277 590 L173 0 Z M381 697 Q356 680 330 668.5 Q304 657 280 657 Q265 657 252.5 662.5 Q240 668 228 674 Q216 680 203.5 685.5 Q191 691 176 691 Q162 691 151 687.5 Q140 684 126 676 L104 760 Q129 778 150.5 787 Q172 796 195 796 Q211 796 224 790.5 Q237 785 249 778.5 Q261 772 273.5 766.5 Q286 761 301 761 Q316 761 329.5 766 Q343 771 358 780 L381 697 Z " />
<glyph glyph-name="itilde" unicode="&#x129;" horiz-adv-x="228" d="M126 405 L244 405 L173 0 L55 0 L126 405 Z M348 509 Q323 492 297 480.5 Q271 469 247 469 Q232 469 219.5 474.5 Q207 480 195 486 Q183 492 170.5 497.5 Q158 503 143 503 Q116 503 93 488 L70 572 Q96 590 117.5 599 Q139 608 162 608 Q178 608 191 602.5 Q204 597 216 590.5 Q228 584 240.5 578.5 Q253 573 268 573 Q283 573 296.5 578 Q310 583 325 592 L348 509 Z " />
<glyph glyph-name="Imacron" unicode="&#x12a;" horiz-adv-x="228" d="M173 0 L55 0 L159 590 L277 590 L173 0 Z M117 657 L135 755 L358 755 L340 657 L117 657 Z " />
<glyph glyph-name="imacron" unicode="&#x12b;" horiz-adv-x="228" d="M126 405 L244 405 L173 0 L55 0 L126 405 Z M84 469 L101 567 L324 567 L307 469 L84 469 Z " />
<glyph glyph-name="Iogonek" unicode="&#x12e;" horiz-adv-x="228" d="M173 0 L55 0 L159 590 L277 590 L173 0 Z M-49 -207 L72 -207 L158 -64 L55 -64 L-49 -207 Z " />
<glyph glyph-name="iogonek" unicode="&#x12f;" horiz-adv-x="228" d="M126 405 L244 405 L173 0 L55 0 L126 405 Z M154 566 L272 566 L253 458 L135 458 L154 566 Z M-49 -207 L72 -207 L158 -64 L55 -64 L-49 -207 Z " />
<glyph glyph-name="Idotaccent" unicode="&#x130;" horiz-adv-x="228" d="M159 590 L277 590 L173 0 L55 0 L159 590 Z M189 765 L307 765 L288 657 L170 657 L189 765 Z " />
<glyph glyph-name="dotlessi" unicode="&#x131;" horiz-adv-x="228" d="M126 405 L244 405 L173 0 L55 0 L126 405 Z " />
<glyph glyph-name="Jcircumflex" unicode="&#x134;" horiz-adv-x="466" d="M397 590 L515 590 L446 204 Q434 137 403.5 96 Q373 55 335.5 33 Q298 11 259.5 3 Q221 -5 193 -6 Q177 -6 155.5 -4.5 Q134 -3 111 3 Q88 9 64 20.5 Q40 32 19 53 L85 134 Q122 114 152.5 110.5 Q183 107 201 107 Q213 107 232 109 Q251 111 270.5 120.5 Q290 130 306.5 150 Q323 170 329 206 L397 590 Z M475 826 L526 657 L418 657 L398 740 L348 657 L240 657 L351 826 L475 826 Z " />
<glyph glyph-name="jcircumflex" unicode="&#x135;" horiz-adv-x="228" d="M126 405 L244 405 L162 -57 Q159 -77 150 -101.5 Q141 -126 121.5 -147.5 Q102 -169 70.5 -183.5 Q39 -198 -9 -198 Q-60 -198 -79 -191 Q-98 -184 -107 -175 L-90 -76 Q-75 -79 -60 -81 Q-46 -82 -31.5 -83.5 Q-17 -85 -3 -85 Q12 -85 21 -81.5 Q30 -78 35.5 -70 Q41 -62 44.5 -48 Q48 -34 52 -13 L126 405 Z M288 638 L339 469 L231 469 L211 552 L161 469 L53 469 L164 638 L288 638 Z " />
<glyph glyph-name="uni0136" unicode="&#x136;" horiz-adv-x="558" d="M557 0 L404 0 L220 269 L173 0 L55 0 L159 590 L277 590 L230 328 L509 590 L667 590 L356 299 L557 0 Z M234 -64 L337 -64 L251 -207 L129 -207 L234 -64 Z " />
<glyph glyph-name="uni0137" unicode="&#x137;" horiz-adv-x="457" d="M318 0 L204 205 L168 0 L50 0 L154 590 L272 590 L211 248 L365 405 L519 405 L339 224 L464 0 L318 0 Z M78 -207 L200 -207 L286 -64 L183 -64 L78 -207 Z " />
<glyph glyph-name="kgreenlandic" unicode="&#x138;" horiz-adv-x="457" d="M318 0 L204 205 L168 0 L50 0 L121 405 L239 405 L211 248 L365 405 L519 405 L339 224 L464 0 L318 0 Z " />
<glyph glyph-name="Lacute" unicode="&#x139;" horiz-adv-x="467" d="M192 113 L456 113 L437 0 L55 0 L159 590 L277 590 L192 113 Z M273 657 L170 657 L257 800 L379 800 L273 657 Z " />
<glyph glyph-name="lacute" unicode="&#x13a;" horiz-adv-x="228" d="M173 0 L55 0 L159 590 L277 590 L173 0 Z M280 657 L177 657 L264 800 L386 800 L280 657 Z " />
<glyph glyph-name="uni013B" unicode="&#x13b;" horiz-adv-x="467" d="M192 113 L456 113 L437 0 L55 0 L159 590 L277 590 L192 113 Z M85 -207 L207 -207 L293 -64 L190 -64 L85 -207 Z " />
<glyph glyph-name="uni013C" unicode="&#x13c;" horiz-adv-x="228" d="M173 0 L55 0 L159 590 L277 590 L173 0 Z M-49 -207 L72 -207 L158 -64 L55 -64 L-49 -207 Z " />
<glyph glyph-name="Lcaron" unicode="&#x13d;" horiz-adv-x="467" d="M192 113 L456 113 L437 0 L55 0 L159 590 L277 590 L192 113 Z M522 590 L400 590 L313 447 L416 447 L522 590 Z " />
<glyph glyph-name="lcaron" unicode="&#x13e;" horiz-adv-x="397" d="M159 590 L277 590 L173 0 L55 0 L159 590 Z M491 590 L369 590 L282 447 L385 447 L491 590 Z " />
<glyph glyph-name="Lslash" unicode="&#x141;" horiz-adv-x="518" d="M276 295 L243 113 L507 113 L488 0 L106 0 L150 255 L54 225 L75 341 L171 371 L210 590 L328 590 L296 411 L401 444 L380 328 L276 295 Z " />
<glyph glyph-name="lslash" unicode="&#x142;" horiz-adv-x="342" d="M55 228 L76 346 L173 376 L211 590 L329 590 L298 416 L406 450 L385 332 L277 298 L225 0 L107 0 L152 258 L150 258 L55 228 Z " />
<glyph glyph-name="Nacute" unicode="&#x143;" horiz-adv-x="610" d="M240 380 L173 0 L55 0 L159 590 L273 590 L471 203 L540 590 L659 590 L555 0 L432 0 L240 380 Z M468 657 L365 657 L452 800 L574 800 L468 657 Z " />
<glyph glyph-name="nacute" unicode="&#x144;" horiz-adv-x="468" d="M50 0 L121 405 L232 405 L232 362 Q250 380 269 390 Q288 400 305 404.5 Q322 409 337 410 Q352 411 363 411 Q390 411 412.5 401 Q435 391 450 373.5 Q465 356 471 332.5 Q477 309 472 282 L423 0 L305 0 L348 247 Q353 276 336.5 287 Q320 298 302 298 Q280 298 263 290 Q246 282 235 272 Q221 261 211 246 L168 0 L50 0 Z M410 469 L307 469 L393 612 L515 612 L410 469 Z " />
<glyph glyph-name="uni0145" unicode="&#x145;" horiz-adv-x="610" d="M240 380 L173 0 L55 0 L159 590 L273 590 L471 203 L540 590 L659 590 L555 0 L432 0 L240 380 Z M136 -207 L258 -207 L344 -64 L241 -64 L136 -207 Z " />
<glyph glyph-name="uni0146" unicode="&#x146;" horiz-adv-x="468" d="M50 0 L121 405 L232 405 L232 362 Q250 380 269 390 Q288 400 305 404.5 Q322 409 337 410 Q352 411 363 411 Q390 411 412.5 401 Q435 391 450 373.5 Q465 356 471 332.5 Q477 309 472 282 L423 0 L305 0 L348 247 Q353 276 336.5 287 Q320 298 302 298 Q280 298 263 290 Q246 282 235 272 Q221 261 211 246 L168 0 L50 0 Z M68 -207 L190 -207 L276 -64 L173 -64 L68 -207 Z " />
<glyph glyph-name="Ncaron" unicode="&#x147;" horiz-adv-x="610" d="M240 380 L173 0 L55 0 L159 590 L273 590 L471 203 L540 590 L659 590 L555 0 L432 0 L240 380 Z M357 657 L306 826 L414 826 L435 743 L484 826 L592 826 L481 657 L357 657 Z " />
<glyph glyph-name="ncaron" unicode="&#x148;" horiz-adv-x="468" d="M50 0 L121 405 L232 405 L232 362 Q250 380 269 390 Q288 400 305 404.5 Q322 409 337 410 Q352 411 363 411 Q390 411 412.5 401 Q435 391 450 373.5 Q465 356 471 332.5 Q477 309 472 282 L423 0 L305 0 L348 247 Q353 276 336.5 287 Q320 298 302 298 Q280 298 263 290 Q246 282 235 272 Q221 261 211 246 L168 0 L50 0 Z M253 469 L202 638 L310 638 L330 555 L380 638 L488 638 L377 469 L253 469 Z " />
<glyph glyph-name="Eng" unicode="&#x14a;" horiz-adv-x="610" d="M240 380 L173 0 L55 0 L159 590 L273 590 L472 203 L541 590 L659 590 L544 -57 Q541 -77 532 -101.5 Q523 -126 503.5 -147.5 Q484 -169 452.5 -183.5 Q421 -198 372 -198 Q321 -198 302 -191 Q283 -184 274 -175 L291 -76 Q306 -79 321 -81 Q335 -82 349.5 -83.5 Q364 -85 378 -85 Q393 -85 402.5 -81.5 Q412 -78 417.5 -70 Q423 -62 426.5 -48 Q430 -34 434 -13 L437 0 L240 380 Z " />
<glyph glyph-name="eng" unicode="&#x14b;" horiz-adv-x="468" d="M348 247 Q353 276 336.5 287 Q320 298 302 298 Q280 298 263 290 Q246 282 235 272 Q221 261 211 246 L168 0 L50 0 L121 405 L232 405 L232 362 Q250 380 269 390 Q288 400 305 404.5 Q322 409 337 410 Q352 411 363 411 Q390 411 412.5 401 Q435 391 450 373.5 Q465 356 471 332.5 Q477 309 472 282 L412 -57 Q409 -77 400 -101.5 Q391 -126 371.5 -147.5 Q352 -169 320.5 -183.5 Q289 -198 240 -198 Q189 -198 170 -191 Q151 -184 142 -175 L159 -76 Q174 -79 189 -81 Q203 -82 217.5 -83.5 Q232 -85 246 -85 Q261 -85 270.5 -81.5 Q280 -78 285.5 -70 Q291 -62 294.5 -48 Q298 -34 302 -13 L348 247 Z " />
<glyph glyph-name="Omacron" unicode="&#x14c;" horiz-adv-x="646" d="M341 107 Q365 107 395 113.5 Q425 120 453.5 141 Q482 162 506 200 Q530 238 541 301 Q550 356 542 391 Q534 426 514 446.5 Q494 467 465.5 474.5 Q437 482 407 482 Q377 482 346 474.5 Q315 467 288 446.5 Q261 426 240.5 391 Q220 356 211 301 Q200 238 210 200 Q220 162 241 141 Q262 120 289.5 113.5 Q317 107 341 107 Z M321 -6 Q281 -6 233.5 7 Q186 20 149.5 54.5 Q113 89 94.5 149 Q76 209 93 304 Q107 384 143 439.5 Q179 495 226 529.5 Q273 564 326 579.5 Q379 595 427 595 Q475 595 523 579.5 Q571 564 606 529.5 Q641 495 657 439.5 Q673 384 659 304 Q642 209 602.5 149 Q563 89 514 54.5 Q465 20 413.5 7 Q362 -6 321 -6 Z M287 657 L305 755 L607 755 L589 657 L287 657 Z " />
<glyph glyph-name="omacron" unicode="&#x14d;" horiz-adv-x="471" d="M230 -6 Q203 -6 171 3.5 Q139 13 113 37 Q87 61 73.5 102 Q60 143 71 207 Q80 261 106.5 299.5 Q133 338 167 363 Q201 388 238.5 399.5 Q276 411 309 411 Q341 411 374 399.5 Q407 388 432 363 Q457 338 469 299.5 Q481 261 472 207 Q461 143 433 102 Q405 61 370.5 37 Q336 13 300.5 3.5 Q265 -6 238 -6 L230 -6 Z M254 107 Q267 107 282 110.5 Q297 114 311 124.5 Q325 135 336.5 154.5 Q348 174 354 205 Q359 232 354 249.5 Q349 267 339 278 Q329 289 315.5 293.5 Q302 298 288 298 Q274 298 258.5 293.5 Q243 289 229 278 Q215 267 204.5 249.5 Q194 232 189 205 Q183 174 188 154.5 Q193 135 203.5 124.5 Q214 114 227.5 110.5 Q241 107 254 107 Z M168 469 L185 567 L487 567 L470 469 L168 469 Z " />
<glyph glyph-name="Ohungarumlaut" unicode="&#x150;" horiz-adv-x="646" d="M341 107 Q365 107 395 113.5 Q425 120 453.5 141 Q482 162 506 200 Q530 238 541 301 Q550 356 542 391 Q534 426 514 446.5 Q494 467 465.5 474.5 Q437 482 407 482 Q377 482 346 474.5 Q315 467 288 446.5 Q261 426 240.5 391 Q220 356 211 301 Q200 238 210 200 Q220 162 241 141 Q262 120 289.5 113.5 Q317 107 341 107 Z M321 -6 Q281 -6 233.5 7 Q186 20 149.5 54.5 Q113 89 94.5 149 Q76 209 93 304 Q107 384 143 439.5 Q179 495 226 529.5 Q273 564 326 579.5 Q379 595 427 595 Q475 595 523 579.5 Q571 564 606 529.5 Q641 495 657 439.5 Q673 384 659 304 Q642 209 602.5 149 Q563 89 514 54.5 Q465 20 413.5 7 Q362 -6 321 -6 Z M573 657 L471 657 L538 803 L654 803 L573 657 Z M411 657 L309 657 L376 803 L492 803 L411 657 Z " />
<glyph glyph-name="ohungarumlaut" unicode="&#x151;" horiz-adv-x="471" d="M452 469 L350 469 L417 615 L533 615 L452 469 Z M230 -6 Q203 -6 171 3.5 Q139 13 113 37 Q87 61 73.5 102 Q60 143 71 207 Q80 261 106.5 299.5 Q133 338 167 363 Q201 388 238.5 399.5 Q276 411 309 411 Q341 411 374 399.5 Q407 388 432 363 Q457 338 469 299.5 Q481 261 472 207 Q461 143 433 102 Q405 61 370.5 37 Q336 13 300.5 3.5 Q265 -6 238 -6 L230 -6 Z M254 107 Q267 107 282 110.5 Q297 114 311 124.5 Q325 135 336.5 154.5 Q348 174 354 205 Q359 232 354 249.5 Q349 267 339 278 Q329 289 315.5 293.5 Q302 298 288 298 Q274 298 258.5 293.5 Q243 289 229 278 Q215 267 204.5 249.5 Q194 232 189 205 Q183 174 188 154.5 Q193 135 203.5 124.5 Q214 114 227.5 110.5 Q241 107 254 107 Z M290 469 L188 469 L255 615 L371 615 L290 469 Z " />
<glyph glyph-name="OE" unicode="&#x152;" horiz-adv-x="829" d="M583 477 L558 340 L791 340 L772 227 L539 227 L518 113 L803 113 L784 0 L381 0 Q351 -6 321 -6 Q281 -6 232 7 Q183 20 144.5 54.5 Q106 89 86 149 Q66 209 83 304 Q97 384 134 439.5 Q171 495 220 529.5 Q269 564 323 579.5 Q377 595 426 595 Q440 595 455 593.5 Q470 592 485 590 L485 590 L888 590 L868 477 L583 477 Z M339 107 Q354 107 369.5 108 Q385 109 400 112 L465 477 Q450 480 435.5 481 Q421 482 405 482 Q375 482 342.5 474.5 Q310 467 282 446.5 Q254 426 232 391 Q210 356 201 301 Q190 238 201 200 Q212 162 234.5 141 Q257 120 286 113.5 Q315 107 339 107 Z " />
<glyph glyph-name="oe" unicode="&#x153;" horiz-adv-x="734" d="M722 162 L464 162 Q465 150 468 139.5 Q471 129 481.5 120.5 Q492 112 512 107.5 Q532 103 566 103 Q574 103 589.5 104.5 Q605 106 623 108.5 Q641 111 658.5 113.5 Q676 116 688 117 L671 20 Q655 10 613 2 Q571 -6 512 -6 Q467 -6 435.5 8 Q404 22 384 47 Q347 17 307 5.5 Q267 -6 238 -6 L230 -6 Q203 -6 171 3.5 Q139 13 113 37 Q87 61 73.5 102 Q60 143 71 207 Q80 261 106.5 299.5 Q133 338 167 363 Q201 388 238.5 399.5 Q276 411 309 411 Q343 411 378.5 397.5 Q414 384 439 355 Q469 381 506 396 Q543 411 585 411 Q627 411 658 397 Q689 383 708 358.5 Q727 334 733.5 300 Q740 266 733 226 L722 162 Z M254 107 Q267 107 282 110.5 Q297 114 311 124.5 Q325 135 336.5 154.5 Q348 174 354 205 Q359 232 354 249.5 Q349 267 339 278 Q329 289 315.5 293.5 Q302 298 288 298 Q274 298 258.5 293.5 Q243 289 229 278 Q215 267 204.5 249.5 Q194 232 189 205 Q183 174 188 154.5 Q193 135 203.5 124.5 Q214 114 227.5 110.5 Q241 107 254 107 Z M619 246 Q617 269 603.5 283.5 Q590 298 557 298 Q527 298 505 281.5 Q483 265 479 246 L619 246 Z " />
<glyph glyph-name="Racute" unicode="&#x154;" horiz-adv-x="546" d="M576 398 Q573 379 563.5 354 Q554 329 538 305.5 Q522 282 498.5 262.5 Q475 243 444 235 Q458 223 467.5 211 Q477 199 483 184 Q489 169 493.5 149.5 Q498 130 502 104 L519 0 L394 0 L377 108 Q369 156 351.5 176 Q334 196 308 196 L207 196 L173 0 L55 0 L159 590 L419 590 Q451 590 482.5 580 Q514 570 538 547.5 Q562 525 573.5 488 Q585 451 576 398 Z M368 309 Q381 309 394.5 310.5 Q408 312 420 320.5 Q432 329 441.5 346.5 Q451 364 457 395 Q462 421 458 437 Q454 453 445.5 462 Q437 471 424.5 474.5 Q412 478 398 478 L257 478 L227 309 L368 309 Z M421 657 L318 657 L405 800 L527 800 L421 657 Z " />
<glyph glyph-name="racute" unicode="&#x155;" horiz-adv-x="332" d="M369 296 Q354 298 337 298 Q320 298 313 298 Q279 298 258.5 287 Q238 276 226 263 Q213 248 208 228 L168 0 L50 0 L121 405 L225 405 L229 361 Q248 380 265.5 390 Q283 400 297.5 404.5 Q312 409 322.5 410 Q333 411 338 411 Q377 411 388 407 L369 296 Z M235 469 L132 469 L218 612 L340 612 L235 469 Z " />
<glyph glyph-name="uni0156" unicode="&#x156;" horiz-adv-x="546" d="M576 398 Q573 379 563.5 354 Q554 329 538 305.5 Q522 282 498.5 262.5 Q475 243 444 235 Q458 223 467.5 211 Q477 199 483 184 Q489 169 493.5 149.5 Q498 130 502 104 L519 0 L394 0 L377 108 Q369 156 351.5 176 Q334 196 308 196 L207 196 L173 0 L55 0 L159 590 L419 590 Q451 590 482.5 580 Q514 570 538 547.5 Q562 525 573.5 488 Q585 451 576 398 Z M368 309 Q381 309 394.5 310.5 Q408 312 420 320.5 Q432 329 441.5 346.5 Q451 364 457 395 Q462 421 458 437 Q454 453 445.5 462 Q437 471 424.5 474.5 Q412 478 398 478 L257 478 L227 309 L368 309 Z M125 -207 L247 -207 L333 -64 L230 -64 L125 -207 Z " />
<glyph glyph-name="uni0157" unicode="&#x157;" horiz-adv-x="332" d="M369 296 Q354 298 337 298 Q320 298 313 298 Q279 298 258.5 287 Q238 276 226 263 Q213 248 208 228 L168 0 L50 0 L121 405 L225 405 L229 361 Q248 380 265.5 390 Q283 400 297.5 404.5 Q312 409 322.5 410 Q333 411 338 411 Q377 411 388 407 L369 296 Z M15 -207 L137 -207 L223 -64 L120 -64 L15 -207 Z " />
<glyph glyph-name="Rcaron" unicode="&#x158;" horiz-adv-x="546" d="M576 398 Q573 379 563.5 354 Q554 329 538 305.5 Q522 282 498.5 262.5 Q475 243 444 235 Q458 223 467.5 211 Q477 199 483 184 Q489 169 493.5 149.5 Q498 130 502 104 L519 0 L394 0 L377 108 Q369 156 351.5 176 Q334 196 308 196 L207 196 L173 0 L55 0 L159 590 L419 590 Q451 590 482.5 580 Q514 570 538 547.5 Q562 525 573.5 488 Q585 451 576 398 Z M368 309 Q381 309 394.5 310.5 Q408 312 420 320.5 Q432 329 441.5 346.5 Q451 364 457 395 Q462 421 458 437 Q454 453 445.5 462 Q437 471 424.5 474.5 Q412 478 398 478 L257 478 L227 309 L368 309 Z M307 657 L256 826 L364 826 L385 743 L434 826 L542 826 L431 657 L307 657 Z " />
<glyph glyph-name="rcaron" unicode="&#x159;" horiz-adv-x="332" d="M369 296 Q354 298 337 298 Q320 298 313 298 Q279 298 258.5 287 Q238 276 226 263 Q213 248 208 228 L168 0 L50 0 L121 405 L225 405 L229 361 Q248 380 265.5 390 Q283 400 297.5 404.5 Q312 409 322.5 410 Q333 411 338 411 Q377 411 388 407 L369 296 Z M205 469 L168 638 L276 638 L282 555 L316 638 L424 638 L329 469 L205 469 Z " />
<glyph glyph-name="Sacute" unicode="&#x15a;" horiz-adv-x="517" d="M369 595 Q408 595 435.5 592 Q463 589 482.5 585 Q502 581 514.5 576 Q527 571 535 566 L516 459 Q486 465 458 471 Q431 475 405 478.5 Q379 482 358 482 Q340 482 317.5 480 Q295 478 275.5 472 Q256 466 241 454.5 Q226 443 223 425 Q220 405 242.5 390.5 Q265 376 300 362.5 Q335 349 376 334 Q417 319 451 296.5 Q485 274 504.5 242.5 Q524 211 516 165 Q508 120 485.5 88 Q463 56 429 35 Q395 14 351.5 4 Q308 -6 257 -6 Q216 -6 183 -0.5 Q150 5 125.5 13 Q101 21 85 30.5 Q69 40 60 47 L77 143 Q110 133 142 125 Q172 118 201 112.5 Q230 107 253 107 Q264 107 286.5 108 Q309 109 332.5 114 Q356 119 374.5 131 Q393 143 397 164 Q400 182 377.5 196 Q355 210 320 223.5 Q285 237 244 253 Q203 269 169 291 Q135 313 115 344 Q95 375 103 418 Q113 474 139 508.5 Q165 543 201 562.5 Q237 582 280.5 588.5 Q324 595 369 595 Z M421 657 L318 657 L405 800 L527 800 L421 657 Z " />
<glyph glyph-name="sacute" unicode="&#x15b;" horiz-adv-x="401" d="M277 411 Q334 411 364.5 403.5 Q395 396 407 386 L389 284 Q368 288 347 291 Q328 294 309 296 Q290 298 274 298 Q235 298 219 296 Q203 294 201 286 Q200 280 216 273.5 Q232 267 255.5 259.5 Q279 252 307 241 Q335 230 357.5 214.5 Q380 199 393 178 Q406 157 401 129 Q390 66 339.5 30 Q289 -6 204 -6 Q147 -6 108.5 6.5 Q70 19 58 29 L75 130 Q99 124 123 119 Q144 114 165 110.5 Q186 107 203 107 L210 107 Q219 107 230.5 107 Q242 107 252.5 108.5 Q263 110 270 112.5 Q277 115 278 119 Q280 128 264 133.5 Q248 139 224 146 Q200 153 172 162.5 Q144 172 121.5 187.5 Q99 203 86.5 226.5 Q74 250 80 285 Q86 318 105.5 342 Q125 366 152.5 381.5 Q180 397 213 404 Q246 411 277 411 Z M339 469 L236 469 L322 612 L444 612 L339 469 Z " />
<glyph glyph-name="Scircumflex" unicode="&#x15c;" horiz-adv-x="517" d="M369 595 Q408 595 435.5 592 Q463 589 482.5 585 Q502 581 514.5 576 Q527 571 535 566 L516 459 Q486 465 458 471 Q431 475 405 478.5 Q379 482 358 482 Q340 482 317.5 480 Q295 478 275.5 472 Q256 466 241 454.5 Q226 443 223 425 Q220 405 242.5 390.5 Q265 376 300 362.5 Q335 349 376 334 Q417 319 451 296.5 Q485 274 504.5 242.5 Q524 211 516 165 Q508 120 485.5 88 Q463 56 429 35 Q395 14 351.5 4 Q308 -6 257 -6 Q216 -6 183 -0.5 Q150 5 125.5 13 Q101 21 85 30.5 Q69 40 60 47 L77 143 Q110 133 142 125 Q172 118 201 112.5 Q230 107 253 107 Q264 107 286.5 108 Q309 109 332.5 114 Q356 119 374.5 131 Q393 143 397 164 Q400 182 377.5 196 Q355 210 320 223.5 Q285 237 244 253 Q203 269 169 291 Q135 313 115 344 Q95 375 103 418 Q113 474 139 508.5 Q165 543 201 562.5 Q237 582 280.5 588.5 Q324 595 369 595 Z M474 826 L525 657 L417 657 L397 740 L347 657 L239 657 L350 826 L474 826 Z " />
<glyph glyph-name="scircumflex" unicode="&#x15d;" horiz-adv-x="401" d="M277 411 Q334 411 364.5 403.5 Q395 396 407 386 L389 284 Q368 288 347 291 Q328 294 309 296 Q290 298 274 298 Q235 298 219 296 Q203 294 201 286 Q200 280 216 273.5 Q232 267 255.5 259.5 Q279 252 307 241 Q335 230 357.5 214.5 Q380 199 393 178 Q406 157 401 129 Q390 66 339.5 30 Q289 -6 204 -6 Q147 -6 108.5 6.5 Q70 19 58 29 L75 130 Q99 124 123 119 Q144 114 165 110.5 Q186 107 203 107 L210 107 Q219 107 230.5 107 Q242 107 252.5 108.5 Q263 110 270 112.5 Q277 115 278 119 Q280 128 264 133.5 Q248 139 224 146 Q200 153 172 162.5 Q144 172 121.5 187.5 Q99 203 86.5 226.5 Q74 250 80 285 Q86 318 105.5 342 Q125 366 152.5 381.5 Q180 397 213 404 Q246 411 277 411 Z M373 638 L424 469 L316 469 L296 552 L246 469 L138 469 L249 638 L373 638 Z " />
<glyph glyph-name="Scedilla" unicode="&#x15e;" horiz-adv-x="517" d="M369 595 Q408 595 435.5 592 Q463 589 482.5 585 Q502 581 514.5 576 Q527 571 535 566 L516 459 Q486 465 458 471 Q431 475 405 478.5 Q379 482 358 482 Q340 482 317.5 480 Q295 478 275.5 472 Q256 466 241 454.5 Q226 443 223 425 Q220 405 242.5 390.5 Q265 376 300 362.5 Q335 349 376 334 Q417 319 451 296.5 Q485 274 504.5 242.5 Q524 211 516 165 Q508 120 485.5 88 Q463 56 429 35 Q395 14 351.5 4 Q308 -6 257 -6 Q216 -6 183 -0.5 Q150 5 125.5 13 Q101 21 85 30.5 Q69 40 60 47 L77 143 Q110 133 142 125 Q172 118 201 112.5 Q230 107 253 107 Q264 107 286.5 108 Q309 109 332.5 114 Q356 119 374.5 131 Q393 143 397 164 Q400 182 377.5 196 Q355 210 320 223.5 Q285 237 244 253 Q203 269 169 291 Q135 313 115 344 Q95 375 103 418 Q113 474 139 508.5 Q165 543 201 562.5 Q237 582 280.5 588.5 Q324 595 369 595 Z M102 -207 L224 -207 L310 -64 L207 -64 L102 -207 Z " />
<glyph glyph-name="scedilla" unicode="&#x15f;" horiz-adv-x="401" d="M277 411 Q334 411 364.5 403.5 Q395 396 407 386 L389 284 Q368 288 347 291 Q328 294 309 296 Q290 298 274 298 Q235 298 219 296 Q203 294 201 286 Q200 280 216 273.5 Q232 267 255.5 259.5 Q279 252 307 241 Q335 230 357.5 214.5 Q380 199 393 178 Q406 157 401 129 Q390 66 339.5 30 Q289 -6 204 -6 Q147 -6 108.5 6.5 Q70 19 58 29 L75 130 Q99 124 123 119 Q144 114 165 110.5 Q186 107 203 107 L210 107 Q219 107 230.5 107 Q242 107 252.5 108.5 Q263 110 270 112.5 Q277 115 278 119 Q280 128 264 133.5 Q248 139 224 146 Q200 153 172 162.5 Q144 172 121.5 187.5 Q99 203 86.5 226.5 Q74 250 80 285 Q86 318 105.5 342 Q125 366 152.5 381.5 Q180 397 213 404 Q246 411 277 411 Z M64 -207 L186 -207 L272 -64 L169 -64 L64 -207 Z " />
<glyph glyph-name="Scaron" unicode="&#x160;" horiz-adv-x="517" d="M369 595 Q408 595 435.5 592 Q463 589 482.5 585 Q502 581 514.5 576 Q527 571 535 566 L516 459 Q486 465 458 471 Q431 475 405 478.5 Q379 482 358 482 Q340 482 317.5 480 Q295 478 275.5 472 Q256 466 241 454.5 Q226 443 223 425 Q220 405 242.5 390.5 Q265 376 300 362.5 Q335 349 376 334 Q417 319 451 296.5 Q485 274 504.5 242.5 Q524 211 516 165 Q508 120 485.5 88 Q463 56 429 35 Q395 14 351.5 4 Q308 -6 257 -6 Q216 -6 183 -0.5 Q150 5 125.5 13 Q101 21 85 30.5 Q69 40 60 47 L77 143 Q110 133 142 125 Q172 118 201 112.5 Q230 107 253 107 Q264 107 286.5 108 Q309 109 332.5 114 Q356 119 374.5 131 Q393 143 397 164 Q400 182 377.5 196 Q355 210 320 223.5 Q285 237 244 253 Q203 269 169 291 Q135 313 115 344 Q95 375 103 418 Q113 474 139 508.5 Q165 543 201 562.5 Q237 582 280.5 588.5 Q324 595 369 595 Z M301 657 L250 826 L358 826 L379 743 L428 826 L536 826 L425 657 L301 657 Z " />
<glyph glyph-name="scaron" unicode="&#x161;" horiz-adv-x="401" d="M277 411 Q334 411 364.5 403.5 Q395 396 407 386 L389 284 Q368 288 347 291 Q328 294 309 296 Q290 298 274 298 Q235 298 219 296 Q203 294 201 286 Q200 280 216 273.5 Q232 267 255.5 259.5 Q279 252 307 241 Q335 230 357.5 214.5 Q380 199 393 178 Q406 157 401 129 Q390 66 339.5 30 Q289 -6 204 -6 Q147 -6 108.5 6.5 Q70 19 58 29 L75 130 Q99 124 123 119 Q144 114 165 110.5 Q186 107 203 107 L210 107 Q219 107 230.5 107 Q242 107 252.5 108.5 Q263 110 270 112.5 Q277 115 278 119 Q280 128 264 133.5 Q248 139 224 146 Q200 153 172 162.5 Q144 172 121.5 187.5 Q99 203 86.5 226.5 Q74 250 80 285 Q86 318 105.5 342 Q125 366 152.5 381.5 Q180 397 213 404 Q246 411 277 411 Z M215 469 L164 638 L272 638 L292 555 L342 638 L450 638 L339 469 L215 469 Z " />
<glyph glyph-name="uni0162" unicode="&#x162;" horiz-adv-x="514" d="M134 590 L588 590 L568 477 L400 477 L316 0 L198 0 L282 477 L114 477 L134 590 Z M92 -207 L214 -207 L300 -64 L197 -64 L92 -207 Z " />
<glyph glyph-name="uni0163" unicode="&#x163;" horiz-adv-x="350" d="M62 298 L74 367 Q128 414 173 456.5 Q218 499 273 545 L289 545 L264 405 L391 405 L372 298 L245 298 L222 165 Q218 144 220.5 132.5 Q223 121 230.5 115.5 Q238 110 251 108.5 Q264 107 281 107 Q295 107 311 109 Q327 111 339 113 L323 21 Q317 17 310 12 Q303 7 292 3 Q281 -1 264.5 -3.5 Q248 -6 222 -6 Q174 -6 147 8.5 Q120 23 108.5 46.5 Q97 70 97 100 Q97 130 103 162 L127 298 L62 298 Z M51 -207 L173 -207 L259 -64 L156 -64 L51 -207 Z " />
<glyph glyph-name="Tcaron" unicode="&#x164;" horiz-adv-x="514" d="M134 590 L588 590 L568 477 L400 477 L316 0 L198 0 L282 477 L114 477 L134 590 Z M310 657 L259 826 L367 826 L388 743 L437 826 L545 826 L434 657 L310 657 Z " />
<glyph glyph-name="tcaron" unicode="&#x165;" horiz-adv-x="427" d="M72 298 L84 367 Q138 414 183 456.5 Q228 499 283 545 L299 545 L274 405 L401 405 L382 298 L255 298 L232 165 Q228 144 230.5 132.5 Q233 121 240.5 115.5 Q248 110 261 108.5 Q274 107 291 107 Q305 107 321 109 Q337 111 349 113 L333 21 Q327 17 320 12 Q313 7 302 3 Q291 -1 274.5 -3.5 Q258 -6 232 -6 Q184 -6 157 8.5 Q130 23 118.5 46.5 Q107 70 107 100 Q107 130 113 162 L137 298 L72 298 Z M420 447 L317 447 L404 590 L526 590 L420 447 Z " />
<glyph glyph-name="Tbar" unicode="&#x166;" horiz-adv-x="514" d="M356 231 L316 0 L198 0 L238 231 L133 231 L153 344 L258 344 L282 477 L114 477 L134 590 L588 590 L568 477 L400 477 L376 344 L481 344 L461 231 L356 231 Z " />
<glyph glyph-name="tbar" unicode="&#x167;" horiz-adv-x="350" d="M56 266 L121 266 L127 298 L62 298 L74 367 Q128 414 173 456.5 Q218 499 273 545 L289 545 L264 405 L391 405 L372 298 L245 298 L239 266 L366 266 L348 159 L221 159 Q218 140 220.5 129.5 Q223 119 231 114 Q239 109 251.5 108 Q264 107 281 107 Q295 107 311 109 Q327 111 339 113 L323 21 Q317 17 310 12 Q303 7 292 3 Q281 -1 264.5 -3.5 Q248 -6 222 -6 Q174 -6 147.5 8 Q121 22 109 45 Q97 68 97 98 Q97 128 103 159 L38 159 L56 266 Z " />
<glyph glyph-name="Utilde" unicode="&#x168;" horiz-adv-x="590" d="M293 -6 Q253 -6 212.5 4.5 Q172 15 142 44.5 Q112 74 99.5 127.5 Q87 181 102 269 L159 590 L277 590 L221 274 Q212 225 216.5 192.5 Q221 160 234 141 Q247 122 268 114.5 Q289 107 313 107 Q337 107 361 114.5 Q385 122 405 141 Q425 160 440.5 192.5 Q456 225 465 274 L521 590 L639 590 L582 269 Q567 181 535 127.5 Q503 74 463 44.5 Q423 15 378.5 4.5 Q334 -6 293 -6 Z M561 697 Q536 680 510 668.5 Q484 657 460 657 Q445 657 432.5 662.5 Q420 668 408 674 Q396 680 383.5 685.5 Q371 691 356 691 Q342 691 331 687.5 Q320 684 306 676 L284 760 Q309 778 330.5 787 Q352 796 375 796 Q391 796 404 790.5 Q417 785 429 778.5 Q441 772 453.5 766.5 Q466 761 481 761 Q496 761 509.5 766 Q523 771 538 780 L561 697 Z " />
<glyph glyph-name="utilde" unicode="&#x169;" horiz-adv-x="468" d="M489 405 L418 0 L307 0 L306 43 Q288 25 269 15 Q250 5 233 0.5 Q216 -4 201 -5 Q186 -6 175 -6 Q148 -6 125.5 4 Q103 14 88.5 31.5 Q74 49 68 72.5 Q62 96 66 123 L116 405 L234 405 L190 158 Q185 129 201.5 118 Q218 107 236 107 Q258 107 275 115 Q292 123 304 133 Q318 144 328 159 L371 405 L489 405 Z M465 509 Q440 492 414 480.5 Q388 469 364 469 Q349 469 336.5 474.5 Q324 480 312 486 Q300 492 287.5 497.5 Q275 503 260 503 Q233 503 210 488 L187 572 Q213 590 234.5 599 Q256 608 279 608 Q295 608 308 602.5 Q321 597 333 590.5 Q345 584 357.5 578.5 Q370 573 385 573 Q400 573 413.5 578 Q427 583 442 592 L465 509 Z " />
<glyph glyph-name="Umacron" unicode="&#x16a;" horiz-adv-x="590" d="M293 -6 Q253 -6 212.5 4.5 Q172 15 142 44.5 Q112 74 99.5 127.5 Q87 181 102 269 L159 590 L277 590 L221 274 Q212 225 216.5 192.5 Q221 160 234 141 Q247 122 268 114.5 Q289 107 313 107 Q337 107 361 114.5 Q385 122 405 141 Q425 160 440.5 192.5 Q456 225 465 274 L521 590 L639 590 L582 269 Q567 181 535 127.5 Q503 74 463 44.5 Q423 15 378.5 4.5 Q334 -6 293 -6 Z M259 657 L277 755 L579 755 L561 657 L259 657 Z " />
<glyph glyph-name="umacron" unicode="&#x16b;" horiz-adv-x="468" d="M157 469 L174 567 L476 567 L459 469 L157 469 Z M489 405 L418 0 L307 0 L306 43 Q288 25 269 15 Q250 5 233 0.5 Q216 -4 201 -5 Q186 -6 175 -6 Q148 -6 125.5 4 Q103 14 88.5 31.5 Q74 49 68 72.5 Q62 96 66 123 L116 405 L234 405 L190 158 Q185 129 201.5 118 Q218 107 236 107 Q258 107 275 115 Q292 123 304 133 Q318 144 328 159 L371 405 L489 405 Z " />
<glyph glyph-name="Ubreve" unicode="&#x16c;" horiz-adv-x="590" d="M293 -6 Q253 -6 212.5 4.5 Q172 15 142 44.5 Q112 74 99.5 127.5 Q87 181 102 269 L159 590 L277 590 L221 274 Q212 225 216.5 192.5 Q221 160 234 141 Q247 122 268 114.5 Q289 107 313 107 Q337 107 361 114.5 Q385 122 405 141 Q425 160 440.5 192.5 Q456 225 465 274 L521 590 L639 590 L582 269 Q567 181 535 127.5 Q503 74 463 44.5 Q423 15 378.5 4.5 Q334 -6 293 -6 Z M410 657 Q382 657 356.5 664.5 Q331 672 312.5 688 Q294 704 284 730 Q274 756 277 792 L365 792 Q366 775 372 765 Q378 755 387 749.5 Q396 744 406 742.5 Q416 741 425 741 Q443 741 466.5 749.5 Q490 758 504 792 L593 792 Q584 755 564.5 729.5 Q545 704 520 688 Q495 672 466.5 664.5 Q438 657 410 657 Z " />
<glyph glyph-name="ubreve" unicode="&#x16d;" horiz-adv-x="468" d="M489 405 L418 0 L307 0 L306 43 Q288 25 269 15 Q250 5 233 0.5 Q216 -4 201 -5 Q186 -6 175 -6 Q148 -6 125.5 4 Q103 14 88.5 31.5 Q74 49 68 72.5 Q62 96 66 123 L116 405 L234 405 L190 158 Q185 129 201.5 118 Q218 107 236 107 Q258 107 275 115 Q292 123 304 133 Q318 144 328 159 L371 405 L489 405 Z M311 469 Q283 469 257.5 476.5 Q232 484 213.5 500 Q195 516 185 542 Q175 568 178 604 L266 604 Q267 587 273 577 Q279 567 288 561.5 Q297 556 307 554.5 Q317 553 326 553 Q344 553 367.5 561.5 Q391 570 405 604 L494 604 Q485 567 465.5 541.5 Q446 516 421 500 Q396 484 367.5 476.5 Q339 469 311 469 Z " />
<glyph glyph-name="Uring" unicode="&#x16e;" horiz-adv-x="590" d="M293 -6 Q253 -6 212.5 4.5 Q172 15 142 44.5 Q112 74 99.5 127.5 Q87 181 102 269 L159 590 L277 590 L221 274 Q212 225 216.5 192.5 Q221 160 234 141 Q247 122 268 114.5 Q289 107 313 107 Q337 107 361 114.5 Q385 122 405 141 Q425 160 440.5 192.5 Q456 225 465 274 L521 590 L639 590 L582 269 Q567 181 535 127.5 Q503 74 463 44.5 Q423 15 378.5 4.5 Q334 -6 293 -6 Z M424 735 Q439 735 455 746.5 Q471 758 476 784 Q480 806 468 818 Q456 830 441 830 Q426 830 410 818 Q394 806 390 784 Q385 758 397 746.5 Q409 735 424 735 Z M410 657 Q384 657 362.5 667.5 Q341 678 327 695.5 Q313 713 307 736 Q301 759 305 785 Q310 812 324.5 835.5 Q339 859 359.5 877 Q380 895 405 905 Q430 915 456 915 Q482 915 503.5 905 Q525 895 539.5 877 Q554 859 560 835.5 Q566 812 561 785 Q557 759 542.5 736 Q528 713 507 695.5 Q486 678 461 667.5 Q436 657 410 657 Z " />
<glyph glyph-name="uring" unicode="&#x16f;" horiz-adv-x="468" d="M489 405 L418 0 L307 0 L306 43 Q288 25 269 15 Q250 5 233 0.5 Q216 -4 201 -5 Q186 -6 175 -6 Q148 -6 125.5 4 Q103 14 88.5 31.5 Q74 49 68 72.5 Q62 96 66 123 L116 405 L234 405 L190 158 Q185 129 201.5 118 Q218 107 236 107 Q258 107 275 115 Q292 123 304 133 Q318 144 328 159 L371 405 L489 405 Z M327 547 Q342 547 358 558.5 Q374 570 379 596 Q383 618 371 630 Q359 642 344 642 Q329 642 313 630 Q297 618 293 596 Q288 570 300 558.5 Q312 547 327 547 Z M313 469 Q287 469 265.5 479.5 Q244 490 230 507.5 Q216 525 210 548 Q204 571 208 597 Q213 624 227 647.5 Q241 671 262 689 Q283 707 308 717 Q333 727 359 727 Q385 727 406.5 717 Q428 707 442 689 Q456 671 462.5 647.5 Q469 624 464 597 Q460 571 445.5 548 Q431 525 410 507.5 Q389 490 364 479.5 Q339 469 313 469 Z " />
<glyph glyph-name="Uhungarumlaut" unicode="&#x170;" horiz-adv-x="590" d="M293 -6 Q253 -6 212.5 4.5 Q172 15 142 44.5 Q112 74 99.5 127.5 Q87 181 102 269 L159 590 L277 590 L221 274 Q212 225 216.5 192.5 Q221 160 234 141 Q247 122 268 114.5 Q289 107 313 107 Q337 107 361 114.5 Q385 122 405 141 Q425 160 440.5 192.5 Q456 225 465 274 L521 590 L639 590 L582 269 Q567 181 535 127.5 Q503 74 463 44.5 Q423 15 378.5 4.5 Q334 -6 293 -6 Z M543 657 L441 657 L508 803 L624 803 L543 657 Z M381 657 L279 657 L346 803 L462 803 L381 657 Z " />
<glyph glyph-name="uhungarumlaut" unicode="&#x171;" horiz-adv-x="468" d="M489 405 L418 0 L307 0 L306 43 Q288 25 269 15 Q250 5 233 0.5 Q216 -4 201 -5 Q186 -6 175 -6 Q148 -6 125.5 4 Q103 14 88.5 31.5 Q74 49 68 72.5 Q62 96 66 123 L116 405 L234 405 L190 158 Q185 129 201.5 118 Q218 107 236 107 Q258 107 275 115 Q292 123 304 133 Q318 144 328 159 L371 405 L489 405 Z M439 469 L337 469 L404 615 L520 615 L439 469 Z M277 469 L175 469 L242 615 L358 615 L277 469 Z " />
<glyph glyph-name="Uogonek" unicode="&#x172;" horiz-adv-x="590" d="M293 -6 Q253 -6 212.5 4.5 Q172 15 142 44.5 Q112 74 99.5 127.5 Q87 181 102 269 L159 590 L277 590 L221 274 Q212 225 216.5 192.5 Q221 160 234 141 Q247 122 268 114.5 Q289 107 313 107 Q337 107 361 114.5 Q385 122 405 141 Q425 160 440.5 192.5 Q456 225 465 274 L521 590 L639 590 L582 269 Q567 181 535 127.5 Q503 74 463 44.5 Q423 15 378.5 4.5 Q334 -6 293 -6 Z M124 -207 L246 -207 L332 -64 L229 -64 L124 -207 Z " />
<glyph glyph-name="uogonek" unicode="&#x173;" horiz-adv-x="468" d="M489 405 L418 0 L307 0 L306 43 Q288 25 269 15 Q250 5 233 0.5 Q216 -4 201 -5 Q186 -6 175 -6 Q148 -6 125.5 4 Q103 14 88.5 31.5 Q74 49 68 72.5 Q62 96 66 123 L116 405 L234 405 L190 158 Q185 129 201.5 118 Q218 107 236 107 Q258 107 275 115 Q292 123 304 133 Q318 144 328 159 L371 405 L489 405 Z M198 -207 L320 -207 L406 -64 L303 -64 L198 -207 Z " />
<glyph glyph-name="Ydieresis" unicode="&#x178;" horiz-adv-x="574" d="M531 590 L668 590 L381 199 L346 0 L228 0 L263 199 L114 590 L251 590 L344 334 L531 590 Z M284 757 L403 757 L385 657 L266 657 L284 757 Z M439 757 L558 757 L540 657 L421 657 L439 757 Z " />
<glyph glyph-name="Zacute" unicode="&#x179;" horiz-adv-x="502" d="M140 590 L571 590 L552 486 L202 113 L486 113 L467 0 L35 0 L54 113 L396 477 L120 477 L140 590 Z M421 657 L318 657 L405 800 L527 800 L421 657 Z " />
<glyph glyph-name="zacute" unicode="&#x17a;" horiz-adv-x="418" d="M116 405 L444 405 L424 291 L218 107 L391 107 L373 0 L45 0 L65 114 L270 298 L97 298 L116 405 Z M339 469 L236 469 L322 612 L444 612 L339 469 Z " />
<glyph glyph-name="Zdotaccent" unicode="&#x17b;" horiz-adv-x="502" d="M140 590 L571 590 L552 486 L202 113 L486 113 L467 0 L35 0 L54 113 L396 477 L120 477 L140 590 Z M325 757 L444 757 L426 657 L307 657 L325 757 Z " />
<glyph glyph-name="zdotaccent" unicode="&#x17c;" horiz-adv-x="418" d="M116 405 L444 405 L424 291 L218 107 L391 107 L373 0 L45 0 L65 114 L270 298 L97 298 L116 405 Z M250 569 L369 569 L351 469 L232 469 L250 569 Z " />
<glyph glyph-name="Zcaron" unicode="&#x17d;" horiz-adv-x="502" d="M140 590 L571 590 L552 486 L202 113 L486 113 L467 0 L35 0 L54 113 L396 477 L120 477 L140 590 Z M313 657 L262 826 L370 826 L391 743 L440 826 L548 826 L437 657 L313 657 Z " />
<glyph glyph-name="zcaron" unicode="&#x17e;" horiz-adv-x="418" d="M116 405 L444 405 L424 291 L218 107 L391 107 L373 0 L45 0 L65 114 L270 298 L97 298 L116 405 Z M227 469 L176 638 L284 638 L304 555 L354 638 L462 638 L351 469 L227 469 Z " />
<glyph glyph-name="florin" unicode="&#x192;" horiz-adv-x="357" d="M142 298 L67 298 L86 405 L161 405 L162 410 Q180 512 228.5 553.5 Q277 595 346 595 Q372 595 387.5 593 Q403 591 412 587.5 Q421 584 426.5 580 Q432 576 437 572 L423 490 Q411 492 399 493 Q389 494 379 495 Q369 496 363 496 Q328 496 309 480.5 Q290 465 282 423 L279 405 L408 405 L389 298 L260 298 L197 -57 Q194 -77 185 -101.5 Q176 -126 156.5 -147.5 Q137 -169 105.5 -183.5 Q74 -198 25 -198 Q-25 -198 -44 -191 Q-63 -184 -72 -175 L-55 -76 Q-40 -79 -25 -81 Q-11 -82 3.5 -83.5 Q18 -85 31 -85 Q46 -85 55.5 -81.5 Q65 -78 70.5 -70 Q76 -62 79.5 -48 Q83 -34 87 -13 L142 298 Z " />
<glyph glyph-name="uni0218" unicode="&#x218;" horiz-adv-x="517" d="M369 595 Q408 595 435.5 592 Q463 589 482.5 585 Q502 581 514.5 576 Q527 571 535 566 L516 459 Q486 465 458 471 Q431 475 405 478.5 Q379 482 358 482 Q340 482 317.5 480 Q295 478 275.5 472 Q256 466 241 454.5 Q226 443 223 425 Q220 405 242.5 390.5 Q265 376 300 362.5 Q335 349 376 334 Q417 319 451 296.5 Q485 274 504.5 242.5 Q524 211 516 165 Q508 120 485.5 88 Q463 56 429 35 Q395 14 351.5 4 Q308 -6 257 -6 Q216 -6 183 -0.5 Q150 5 125.5 13 Q101 21 85 30.5 Q69 40 60 47 L77 143 Q110 133 142 125 Q172 118 201 112.5 Q230 107 253 107 Q264 107 286.5 108 Q309 109 332.5 114 Q356 119 374.5 131 Q393 143 397 164 Q400 182 377.5 196 Q355 210 320 223.5 Q285 237 244 253 Q203 269 169 291 Q135 313 115 344 Q95 375 103 418 Q113 474 139 508.5 Q165 543 201 562.5 Q237 582 280.5 588.5 Q324 595 369 595 Z M116 -207 L238 -207 L324 -64 L221 -64 L116 -207 Z " />
<glyph glyph-name="uni0219" unicode="&#x219;" horiz-adv-x="401" d="M277 411 Q334 411 364.5 403.5 Q395 396 407 386 L389 284 Q368 288 347 291 Q328 294 309 296 Q290 298 274 298 Q235 298 219 296 Q203 294 201 286 Q200 280 216 273.5 Q232 267 255.5 259.5 Q279 252 307 241 Q335 230 357.5 214.5 Q380 199 393 178 Q406 157 401 129 Q390 66 339.5 30 Q289 -6 204 -6 Q147 -6 108.5 6.5 Q70 19 58 29 L75 130 Q99 124 123 119 Q144 114 165 110.5 Q186 107 203 107 L210 107 Q219 107 230.5 107 Q242 107 252.5 108.5 Q263 110 270 112.5 Q277 115 278 119 Q280 128 264 133.5 Q248 139 224 146 Q200 153 172 162.5 Q144 172 121.5 187.5 Q99 203 86.5 226.5 Q74 250 80 285 Q86 318 105.5 342 Q125 366 152.5 381.5 Q180 397 213 404 Q246 411 277 411 Z M57 -207 L179 -207 L265 -64 L162 -64 L57 -207 Z " />
<glyph glyph-name="uni021A" unicode="&#x21a;" horiz-adv-x="514" d="M134 590 L588 590 L568 477 L400 477 L316 0 L198 0 L282 477 L114 477 L134 590 Z M92 -207 L214 -207 L300 -64 L197 -64 L92 -207 Z " />
<glyph glyph-name="uni021B" unicode="&#x21b;" horiz-adv-x="350" d="M62 298 L74 367 Q128 414 173 456.5 Q218 499 273 545 L289 545 L264 405 L391 405 L372 298 L245 298 L222 165 Q218 144 220.5 132.5 Q223 121 230.5 115.5 Q238 110 251 108.5 Q264 107 281 107 Q295 107 311 109 Q327 111 339 113 L323 21 Q317 17 310 12 Q303 7 292 3 Q281 -1 264.5 -3.5 Q248 -6 222 -6 Q174 -6 147 8.5 Q120 23 108.5 46.5 Q97 70 97 100 Q97 130 103 162 L127 298 L62 298 Z M51 -207 L173 -207 L259 -64 L156 -64 L51 -207 Z " />
<glyph glyph-name="circumflex" unicode="&#x2c6;" horiz-adv-x="396" d="M364 590 L415 421 L307 421 L286 504 L237 421 L129 421 L240 590 L364 590 Z " />
<glyph glyph-name="caron" unicode="&#x2c7;" horiz-adv-x="396" d="M210 421 L159 590 L267 590 L287 507 L337 590 L445 590 L334 421 L210 421 Z " />
<glyph glyph-name="breve" unicode="&#x2d8;" horiz-adv-x="426" d="M292 455 Q264 455 238.5 462.5 Q213 470 194 486 Q175 502 165 528 Q155 554 159 590 L247 590 Q248 573 254 563 Q260 553 269 547.5 Q278 542 288 540.5 Q298 539 307 539 Q325 539 348.5 547.5 Q372 556 386 590 L475 590 Q465 553 446 527.5 Q427 502 402 486 Q377 470 348.5 462.5 Q320 455 292 455 Z " />
<glyph glyph-name="dotaccent" unicode="&#x2d9;" horiz-adv-x="229" d="M159 590 L278 590 L260 490 L141 490 L159 590 Z " />
<glyph glyph-name="ring" unicode="&#x2da;" horiz-adv-x="366" d="M256 415 Q271 415 286.5 426.5 Q302 438 307 464 Q311 486 299 498 Q287 510 272 510 Q257 510 241 498 Q225 486 221 464 Q216 438 228.5 426.5 Q241 415 256 415 Z M242 337 Q216 337 194.5 347.5 Q173 358 158.5 375.5 Q144 393 138 416 Q132 439 136 465 Q141 492 155.5 515.5 Q170 539 190.5 557 Q211 575 236 585 Q261 595 287 595 Q313 595 334.5 585 Q356 575 370.5 557 Q385 539 391 515.5 Q397 492 392 465 Q388 439 373.5 416 Q359 393 338.5 375.5 Q318 358 293 347.5 Q268 337 242 337 Z " />
<glyph glyph-name="ogonek" unicode="&#x2db;" horiz-adv-x="293" d="M133 -6 L236 -6 L150 -149 L28 -149 L133 -6 Z " />
<glyph glyph-name="tilde" unicode="&#x2dc;" horiz-adv-x="399" d="M430 491 Q405 474 379 462.5 Q353 451 329 451 Q314 451 301.5 456.5 Q289 462 277 468 Q265 474 252.5 479.5 Q240 485 225 485 Q211 485 199.5 481.5 Q188 478 174 470 L152 554 Q202 590 244 590 Q260 590 272.5 584.5 Q285 579 297 572.5 Q309 566 321.5 560.5 Q334 555 349 555 Q364 555 378 560 Q392 565 407 574 L430 491 Z " />
<glyph glyph-name="hungarumlaut" unicode="&#x2dd;" horiz-adv-x="429" d="M397 444 L295 444 L362 590 L478 590 L397 444 Z M235 444 L133 444 L200 590 L316 590 L235 444 Z " />
<glyph glyph-name="uni03A9" unicode="&#x3a9;" horiz-adv-x="723" d="M465 595 Q513 595 557 579.5 Q601 564 631.5 529.5 Q662 495 674.5 439 Q687 383 673 303 L658 219 Q654 199 642.5 171 Q631 143 609 113 L687 113 L668 0 L462 0 L481 112 Q509 132 521 155.5 Q533 179 540 219 L554 300 Q564 355 560 390.5 Q556 426 541 446 Q526 466 501.5 474 Q477 482 447 482 L444 482 Q414 482 387 474 Q360 466 338 446 Q316 426 299.5 390.5 Q283 355 273 300 L259 219 Q252 179 256 155.5 Q260 132 280 112 L261 0 L55 0 L74 113 L152 113 Q141 143 139 171 Q137 199 141 219 L156 303 Q170 383 202 439 Q234 495 276.5 529.5 Q319 564 368.5 579.5 Q418 595 466 595 L465 595 Z " />
<glyph glyph-name="pi" unicode="&#x3c0;" horiz-adv-x="722" d="M719 298 L619 298 L567 0 L448 0 L500 298 L326 298 L274 0 L155 0 L207 298 L107 298 L127 411 L739 411 L719 298 Z " />
<glyph glyph-name="ZWSP" unicode="&#x200b;" d="" />
<glyph glyph-name="endash" unicode="&#x2013;" horiz-adv-x="441" d="M83 163 L103 276 L434 276 L414 163 L83 163 Z " />
<glyph glyph-name="emdash" unicode="&#x2014;" horiz-adv-x="490" d="M83 163 L103 276 L483 276 L463 163 L83 163 Z " />
<glyph glyph-name="quoteleft" unicode="&#x2018;" horiz-adv-x="296" d="M246 590 L345 590 L248 432 L131 432 L246 590 Z " />
<glyph glyph-name="quoteright" unicode="&#x2019;" horiz-adv-x="296" d="M230 432 L131 432 L228 590 L345 590 L230 432 Z " />
<glyph glyph-name="quotesinglbase" unicode="&#x201a;" horiz-adv-x="296" d="M142 -67 L43 -67 L140 91 L257 91 L142 -67 Z " />
<glyph glyph-name="quotedblleft" unicode="&#x201c;" horiz-adv-x="464" d="M246 590 L345 590 L248 432 L131 432 L246 590 Z M414 590 L513 590 L416 432 L299 432 L414 590 Z " />
<glyph glyph-name="quotedblright" unicode="&#x201d;" horiz-adv-x="464" d="M398 432 L299 432 L396 590 L513 590 L398 432 Z M230 432 L131 432 L228 590 L345 590 L230 432 Z " />
<glyph glyph-name="quotedblbase" unicode="&#x201e;" horiz-adv-x="464" d="M310 -67 L211 -67 L308 91 L425 91 L310 -67 Z M142 -67 L43 -67 L140 91 L257 91 L142 -67 Z " />
<glyph glyph-name="dagger" unicode="&#x2020;" horiz-adv-x="485" d="M125 399 L254 399 L284 568 L402 568 L372 399 L500 399 L480 286 L352 286 L271 -171 L153 -171 L234 286 L105 286 L125 399 Z " />
<glyph glyph-name="daggerdbl" unicode="&#x2021;" horiz-adv-x="485" d="M203 113 L234 286 L105 286 L125 399 L254 399 L284 568 L402 568 L372 399 L500 399 L480 286 L352 286 L321 113 L449 113 L430 0 L302 0 L271 -171 L153 -171 L184 0 L55 0 L74 113 L203 113 Z " />
<glyph glyph-name="bullet" unicode="&#x2022;" horiz-adv-x="235" d="M89 194 Q94 220 115 238.5 Q136 257 162 257 Q188 257 203.5 238.5 Q219 220 214 194 Q209 169 187.5 151 Q166 133 140 133 Q114 133 99 151 Q84 169 89 194 Z " />
<glyph glyph-name="ellipsis" unicode="&#x2026;" horiz-adv-x="733" d="M71 94 L190 94 L172 -6 L53 -6 L71 94 Z M323 94 L442 94 L424 -6 L305 -6 L323 94 Z M575 94 L694 94 L676 -6 L557 -6 L575 94 Z " />
<glyph glyph-name="perthousand" unicode="&#x2030;" horiz-adv-x="965" d="M505 590 L632 590 Q590 514 549 440.5 Q508 367 468 295 Q428 223 388 150 Q348 77 307 0 L182 0 L505 590 Z M244 454 Q263 454 270 460.5 Q277 467 280 484 Q283 501 278 508.5 Q273 516 254 516 Q236 516 229 508.5 Q222 501 219 484 Q216 467 221 460.5 Q226 454 244 454 Z M268 595 Q326 595 346.5 566.5 Q367 538 358 484 Q348 427 317.5 398 Q287 369 229 369 Q171 369 150.5 398 Q130 427 140 484 Q149 538 179.5 566.5 Q210 595 268 595 Z M557 79 Q576 79 583.5 85.5 Q591 92 594 109 Q597 126 592 133.5 Q587 141 568 141 Q550 141 543 133.5 Q536 126 533 109 Q530 92 534.5 85.5 Q539 79 557 79 Z M582 220 Q640 220 660.5 191.5 Q681 163 672 109 Q661 52 630.5 23 Q600 -6 542 -6 Q484 -6 463.5 23 Q443 52 454 109 Q463 163 493.5 191.5 Q524 220 582 220 Z M814 79 Q833 79 840.5 85.5 Q848 92 851 109 Q854 126 849 133.5 Q844 141 825 141 Q807 141 800 133.5 Q793 126 790 109 Q787 92 791.5 85.5 Q796 79 814 79 Z M839 220 Q897 220 917.5 191.5 Q938 163 929 109 Q918 52 887.5 23 Q857 -6 799 -6 Q741 -6 720.5 23 Q700 52 711 109 Q720 163 750.5 191.5 Q781 220 839 220 Z " />
<glyph glyph-name="guilsinglleft" unicode="&#x2039;" horiz-adv-x="437" d="M80 145 L103 275 L457 426 L432 288 L219 210 L405 132 L380 -6 L80 145 Z " />
<glyph glyph-name="guilsinglright" unicode="&#x203a;" horiz-adv-x="437" d="M53 -6 L78 132 L292 210 L105 288 L130 426 L430 275 L407 145 L53 -6 Z " />
<glyph glyph-name="fraction" unicode="&#x2044;" horiz-adv-x="587" d="M533 724 L659 724 Q528 487 402 260 Q276 33 145 -204 L19 -204 L533 724 Z " />
<glyph glyph-name="Euro" unicode="&#x20ac;" horiz-adv-x="673" d="M629 66 Q581 30 526 12 Q471 -6 421 -6 Q388 -6 349.5 2 Q311 10 276 31 Q241 52 214.5 88 Q188 124 179 180 L86 180 L101 263 L178 263 Q179 273 180 283 Q181 293 183 304 Q184 309 185 314.5 Q186 320 188 325 L112 325 L126 408 L216 408 Q241 459 277.5 494.5 Q314 530 356 552.5 Q398 575 442 585 Q486 595 526 595 Q577 595 625 579.5 Q673 564 708 526 Q686 503 667.5 485.5 Q649 468 627 446 Q601 470 570 476 Q539 482 505 482 Q463 482 419 467 Q375 452 343 408 L438 408 L424 325 L306 325 Q304 319 303 313 Q302 307 301 301 Q299 290 298 281 Q297 272 296 263 L413 263 L398 180 L307 180 Q316 157 332 143 Q348 129 366 121 Q384 113 403.5 110 Q423 107 439 107 Q473 107 506.5 113 Q540 119 575 143 L629 66 Z " />
<glyph glyph-name="Numero" unicode="&#x2116;" horiz-adv-x="1105" d="M240 380 L173 0 L55 0 L159 590 L273 590 L471 203 L540 590 L659 590 L555 0 L432 0 L240 380 Z M873 154 Q846 154 813.5 163.5 Q781 173 755 197 Q729 221 715.5 262 Q702 303 713 367 Q723 421 749 459.5 Q775 498 809 523 Q843 548 880.5 559.5 Q918 571 951 571 Q983 571 1016 559.5 Q1049 548 1074 523 Q1099 498 1111.5 459.5 Q1124 421 1114 367 Q1103 303 1075 262 Q1047 221 1013 197 Q979 173 943.5 163.5 Q908 154 881 154 L873 154 Z M897 267 Q910 267 925 270.5 Q940 274 954 284.5 Q968 295 979 314.5 Q990 334 996 365 Q1001 392 996 409.5 Q991 427 981 438 Q971 449 957.5 453.5 Q944 458 930 458 Q916 458 900.5 453.5 Q885 449 871 438 Q857 427 846.5 409.5 Q836 392 831 365 Q825 334 830 314.5 Q835 295 845.5 284.5 Q856 274 870 270.5 Q884 267 897 267 Z M649 0 L666 99 L1067 99 L1050 0 L649 0 Z " />
<glyph glyph-name="trademark" unicode="&#x2122;" horiz-adv-x="773" d="M159 590 L409 590 L394 508 L316 508 L273 262 L178 262 L221 508 L144 508 L159 590 Z M556 311 L506 425 L478 262 L382 262 L440 590 L540 590 L603 432 L722 590 L822 590 L764 262 L668 262 L696 425 L606 311 L556 311 Z " />
<glyph glyph-name="Omega" unicode="&#x2126;" horiz-adv-x="723" d="M465 595 Q513 595 557 579.5 Q601 564 631.5 529.5 Q662 495 674.5 439 Q687 383 673 303 L658 219 Q654 199 642.5 171 Q631 143 609 113 L687 113 L668 0 L462 0 L481 112 Q509 132 521 155.5 Q533 179 540 219 L554 300 Q564 355 560 390.5 Q556 426 541 446 Q526 466 501.5 474 Q477 482 447 482 L444 482 Q414 482 387 474 Q360 466 338 446 Q316 426 299.5 390.5 Q283 355 273 300 L259 219 Q252 179 256 155.5 Q260 132 280 112 L261 0 L55 0 L74 113 L152 113 Q141 143 139 171 Q137 199 141 219 L156 303 Q170 383 202 439 Q234 495 276.5 529.5 Q319 564 368.5 579.5 Q418 595 466 595 L465 595 Z " />
<glyph glyph-name="partialdiff" unicode="&#x2202;" horiz-adv-x="506" d="M374 245 Q371 260 362 272 Q355 282 342 290 Q329 298 307 298 Q299 298 284.5 294 Q270 290 255 280 Q240 270 227 253 Q214 236 209 209 Q204 178 210 158 Q216 138 227.5 127 Q239 116 252 111.5 Q265 107 273 107 Q295 107 311 115.5 Q327 124 338 134 Q350 145 359 160 L374 245 Z M451 0 L344 0 L341 39 Q324 21 306 12 Q288 3 271.5 -1 Q255 -5 241 -5.5 Q227 -6 216 -6 Q189 -6 162.5 4.5 Q136 15 116.5 39.5 Q97 64 88.5 105.5 Q80 147 91 209 Q100 262 120.5 300 Q141 338 168 363 Q195 388 227 399.5 Q259 411 290 411 Q301 411 314.5 410.5 Q328 410 342.5 406 Q357 402 371.5 393.5 Q386 385 398 369 L403 397 Q408 429 401 446 Q394 463 380.5 471 Q367 479 351 480.5 Q335 482 323 482 Q306 482 270.5 477 Q235 472 200 456 L183 551 Q217 576 258 585.5 Q299 595 347 595 Q374 595 409 588.5 Q444 582 472.5 561.5 Q501 541 516.5 502.5 Q532 464 521 400 L451 0 Z " />
<glyph glyph-name="Delta" unicode="&#x2206;" horiz-adv-x="794" d="M739 0 L55 0 L503 595 L739 0 Z M277 112 L555 112 L459 353 L277 112 Z " />
<glyph glyph-name="product" unicode="&#x220f;" horiz-adv-x="722" d="M751 477 L651 477 L567 0 L448 0 L532 477 L358 477 L274 0 L155 0 L239 477 L139 477 L159 590 L771 590 L751 477 Z " />
<glyph glyph-name="summation" unicode="&#x2211;" horiz-adv-x="470" d="M207 295 Q193 351 177 409 Q161 467 147 523 L159 590 L519 590 L499 477 L288 477 L336 295 L223 113 L434 113 L415 0 L55 0 L66 65 L207 295 Z " />
<glyph glyph-name="minus" unicode="&#x2212;" horiz-adv-x="441" d="M83 163 L103 276 L434 276 L414 163 L83 163 Z " />
<glyph glyph-name="radical" unicode="&#x221a;" horiz-adv-x="767" d="M202 0 L126 405 L251 405 L289 134 L560 657 L827 657 L807 544 L623 544 L330 0 L202 0 Z " />
<glyph glyph-name="infinity" unicode="&#x221e;" horiz-adv-x="950" d="M499 134 Q454 94 399 69 Q344 44 281 44 Q240 44 203 55.5 Q166 67 139 90.5 Q112 114 99.5 149.5 Q87 185 96 234 Q112 325 179 376.5 Q246 428 349 428 Q382 428 407.5 422.5 Q433 417 454 404 Q475 391 493.5 371.5 Q512 352 531 323 Q560 352 586 371.5 Q612 391 637.5 404 Q663 417 690.5 422.5 Q718 428 751 428 Q854 428 903 376.5 Q952 325 936 234 Q927 185 902 149.5 Q877 114 842 90.5 Q807 67 765.5 55.5 Q724 44 683 44 Q620 44 574.5 69 Q529 94 497 134 L499 134 Z M329 315 Q314 315 296 311.5 Q278 308 261 299 Q244 290 231 274 Q218 258 214 233 Q211 215 216.5 201 Q222 187 234.5 177 Q247 167 264.5 162 Q282 157 301 157 Q324 157 343.5 159 Q363 161 382.5 168 Q402 175 423 188.5 Q444 202 469 224 Q443 272 407.5 293.5 Q372 315 329 315 Z M731 315 Q688 315 645 293.5 Q602 272 559 224 Q576 202 592.5 188.5 Q609 175 626 168 Q643 161 662 159 Q681 157 703 157 Q723 157 742 162 Q761 167 776.5 177 Q792 187 803.5 201 Q815 215 818 233 Q822 258 814.5 274 Q807 290 793.5 299 Q780 308 763 311.5 Q746 315 731 315 Z " />
<glyph glyph-name="integral" unicode="&#x222b;" horiz-adv-x="492" d="M294 -57 Q291 -77 282 -101.5 Q273 -126 253.5 -147.5 Q234 -169 202.5 -183.5 Q171 -198 122 -198 Q71 -198 52 -191 Q33 -184 24 -175 L41 -76 Q56 -79 71 -81 Q85 -82 99.5 -83.5 Q114 -85 128 -85 Q143 -85 152.5 -81.5 Q162 -78 167.5 -70 Q173 -62 176.5 -48 Q180 -34 184 -13 L267 454 Q270 474 279 498.5 Q288 523 307.5 544.5 Q327 566 358.5 580.5 Q390 595 439 595 Q490 595 509 588 Q528 581 537 572 L520 473 Q505 476 490 478 Q476 479 461.5 480.5 Q447 482 433 482 Q418 482 408.5 478.5 Q399 475 393.5 467 Q388 459 384.5 445 Q381 431 377 410 L294 -57 Z " />
<glyph glyph-name="approxequal" unicode="&#x2248;" horiz-adv-x="399" d="M384 228 Q359 211 333 199.5 Q307 188 283 188 Q268 188 255.5 193.5 Q243 199 231 205 Q219 211 206.5 216.5 Q194 222 179 222 Q165 222 153.5 218.5 Q142 215 128 207 L106 291 Q131 309 152.5 318 Q174 327 197 327 Q213 327 226 321.5 Q239 316 251 309.5 Q263 303 275.5 297.5 Q288 292 303 292 Q318 292 331.5 297 Q345 302 360 311 L384 228 Z M356 70 Q331 53 305 41.5 Q279 30 255 30 Q240 30 227.5 35.5 Q215 41 203 47 Q191 53 178.5 58.5 Q166 64 151 64 Q137 64 125.5 60.5 Q114 57 100 49 L78 133 Q103 151 124.5 160 Q146 169 169 169 Q185 169 198 163.5 Q211 158 223 151.5 Q235 145 247.5 139.5 Q260 134 275 134 Q290 134 303.5 139 Q317 144 332 153 L356 70 Z " />
<glyph glyph-name="notequal" unicode="&#x2260;" horiz-adv-x="410" d="M307 236 L270 169 L384 169 L364 56 L208 56 L177 0 L80 0 L111 56 L64 56 L84 169 L173 169 L210 236 L96 236 L116 349 L272 349 L303 405 L400 405 L369 349 L416 349 L396 236 L307 236 Z " />
<glyph glyph-name="lessequal" unicode="&#x2264;" horiz-adv-x="437" d="M55 0 L72 99 L399 99 L382 0 L55 0 Z M124 394 L475 528 L452 401 L238 331 L428 261 L405 134 L102 268 L124 394 Z " />
<glyph glyph-name="greaterequal" unicode="&#x2265;" horiz-adv-x="437" d="M55 0 L72 99 L399 99 L382 0 L55 0 Z M429 268 L78 134 L101 261 L315 331 L125 401 L148 528 L451 394 L429 268 Z " />
<glyph glyph-name="lozenge" unicode="&#x25ca;" horiz-adv-x="510" d="M507 299 L505 285 L267 0 L243 0 L105 285 L107 299 L351 590 L367 590 L507 299 Z M370 293 L323 390 L242 293 L289 197 L370 293 Z " />
<glyph glyph-name="uni25CC" unicode="&#x25cc;" horiz-adv-x="512" d="" />
<glyph glyph-name="fi" unicode="&#xfb01;" horiz-adv-x="585" d="M363 496 Q328 496 309 480.5 Q290 465 282 423 L279 405 L408 405 L389 298 L260 298 L208 0 L90 0 L142 298 L67 298 L86 405 L161 405 L162 410 Q180 512 228.5 553.5 Q277 595 346 595 Q372 595 387.5 593 Q403 591 412 587.5 Q421 584 426.5 580 Q432 576 437 572 L423 490 Q411 492 399 493 Q389 494 379 495 Q369 496 363 496 Z M483 405 L601 405 L530 0 L412 0 L483 405 Z M511 566 L629 566 L610 458 L492 458 L511 566 Z " />
<glyph glyph-name="fl" unicode="&#xfb02;" horiz-adv-x="606" d="M363 496 Q328 496 309 480.5 Q290 465 282 423 L279 405 L408 405 L389 298 L260 298 L208 0 L90 0 L142 298 L67 298 L86 405 L161 405 L162 410 Q180 512 228.5 553.5 Q277 595 346 595 Q372 595 387.5 593 Q403 591 412 587.5 Q421 584 426.5 580 Q432 576 437 572 L423 490 Q411 492 399 493 Q389 494 379 495 Q369 496 363 496 Z M634 590 L516 590 L431 113 Q424 74 428.5 50.5 Q433 27 444 14.5 Q455 2 470.5 -2 Q486 -6 502 -6 L507 -6 Q522 -6 533.5 -5 Q545 -4 554 -2 Q563 0 571 2 L586 88 L567 88 Q554 88 551 96 Q548 104 550 118 L634 590 Z " />
</font>
</svg>
