<?xml version="1.0" encoding="UTF-8"?>
<svg xmlns="http://www.w3.org/2000/svg" xmlns:xlink="http://www.w3.org/1999/xlink" version="1.2" >
<font id="Betm SemiLight Italic">
<font-face  font-family="Betm" units-per-em="1000" ascent="750" descent="-250" font-style="italic" font-weight="300" font-stretch="normal" cap-height="568" x-height="405" underline-position="-91" underline-thickness="35" />
<missing-glyph  horiz-adv-x="593" d="M42 0 L42 628 L551 628 L551 0 L42 0 Z M88 35 L88 46 L80 46 Q88 44 88 35 Z M505 590 L505 582 L513 582 Q505 582 505 590 Z M513 46 L505 46 L505 37 Q505 44 513 46 Z M80 582 L88 582 L88 590 Q86 582 80 582 Z M88 46 L505 46 L505 582 L88 582 L88 46 Z " />
<glyph glyph-name="space" unicode="&#x20;" horiz-adv-x="199" d="" />
<glyph glyph-name="exclam" unicode="&#x21;" horiz-adv-x="210" d="M110 227 L174 590 L244 590 L180 227 L154 132 L101 132 L110 227 Z M75 29 Q77 43 89.5 53.5 Q102 64 116 64 Q130 64 138.5 53.5 Q147 43 145 29 Q142 15 129.5 4.5 Q117 -6 103 -6 Q89 -6 80.5 4.5 Q72 15 75 29 Z " />
<glyph glyph-name="quotedbl" unicode="&#x22;" horiz-adv-x="319" d="M174 590 L243 590 L208 457 L161 457 L174 590 Z M284 590 L353 590 L318 457 L271 457 L284 590 Z " />
<glyph glyph-name="numbersign" unicode="&#x23;" horiz-adv-x="851" d="M713 410 L588 186 L727 186 L716 123 L552 123 L485 0 L409 0 L477 123 L273 123 L204 0 L129 0 L197 123 L91 123 L102 186 L233 186 L358 410 L222 410 L233 473 L393 473 L459 590 L534 590 L469 473 L673 473 L739 590 L814 590 L749 473 L864 473 L853 410 L713 410 Z M638 410 L433 410 L308 186 L512 186 L638 410 Z " />
<glyph glyph-name="dollar" unicode="&#x24;" horiz-adv-x="584" d="M540 152 Q527 77 468 39 Q409 1 325 -5 L304 -124 L235 -124 L256 -5 Q201 -2 161.5 7.5 Q122 17 100 29 L111 92 Q124 88 144 82.5 Q164 77 188.5 71.5 Q213 66 241.5 62.5 Q270 59 299 59 Q328 59 356.5 63 Q385 67 408.5 77 Q432 87 448.5 105 Q465 123 470 150 Q475 180 451 200.5 Q427 221 388.5 238 Q350 255 304.5 271.5 Q259 288 221.5 310 Q184 332 161.5 363 Q139 394 147 440 Q155 483 175 511.5 Q195 540 223.5 557.5 Q252 575 287.5 583.5 Q323 592 361 594 L386 736 L455 736 L430 595 Q484 593 512.5 587 Q541 581 558 573 L547 512 Q516 517 488 521 Q462 525 438.5 527.5 Q415 530 401 530 Q376 530 346.5 528.5 Q317 527 290 518.5 Q263 510 243 492 Q223 474 217 440 Q212 411 236 390.5 Q260 370 298.5 352.5 Q337 335 382.5 318.5 Q428 302 465.5 279.5 Q503 257 525.5 226.5 Q548 196 540 152 Z " />
<glyph glyph-name="percent" unicode="&#x25;" horiz-adv-x="688" d="M521 590 L595 590 L270 0 L194 0 L521 590 Z M240 465 Q254 465 265 473.5 Q276 482 280 502 Q284 522 275.5 530 Q267 538 253 538 Q239 538 228.5 530 Q218 522 214 502 Q210 482 218 473.5 Q226 465 240 465 Z M230 407 Q141 407 158 502 Q166 547 193.5 571 Q221 595 263 595 Q305 595 324.5 571 Q344 547 336 502 Q319 407 230 407 Z M538 52 Q552 52 562.5 60.5 Q573 69 577 89 Q581 109 573 117 Q565 125 551 125 Q537 125 526 117 Q515 109 511 89 Q507 69 515.5 60.5 Q524 52 538 52 Z M527 -6 Q438 -6 455 89 Q463 134 491 158 Q519 182 561 182 Q603 182 622 158 Q641 134 633 89 Q616 -6 527 -6 Z " />
<glyph glyph-name="ampersand" unicode="&#x26;" horiz-adv-x="628" d="M394 528 Q375 528 351.5 524.5 Q328 521 306.5 510.5 Q285 500 268.5 481 Q252 462 247 432 Q240 394 250 373 Q260 352 278 342.5 Q296 333 318.5 331.5 Q341 330 359 330 L489 330 L503 409 L573 409 L559 330 L616 330 L605 267 L548 267 L530 165 Q524 131 508 100 Q492 69 463.5 45.5 Q435 22 394 8 Q353 -6 297 -6 L281 -6 Q224 -6 186 6.5 Q148 19 126 40.5 Q104 62 97.5 92 Q91 122 97 157 Q101 180 107 201 Q113 222 125.5 240 Q138 258 159 272.5 Q180 287 214 297 Q195 309 186 327 Q177 345 174.5 364.5 Q172 384 173.5 403 Q175 422 177 435 Q186 485 210 515 Q234 545 265.5 562 Q297 579 332 584.5 Q367 590 397 590 L435 590 L416 528 L394 528 Z M310 59 Q329 59 352.5 62.5 Q376 66 398 77 Q420 88 437 109.5 Q454 131 460 168 L478 267 L314 267 Q289 267 265 261 Q241 255 221 242.5 Q201 230 187 209.5 Q173 189 168 160 Q161 123 173 102.5 Q185 82 205.5 72 Q226 62 250 60.5 Q274 59 290 59 L310 59 Z " />
<glyph glyph-name="quotesingle" unicode="&#x27;" horiz-adv-x="209" d="M174 590 L243 590 L208 457 L161 457 L174 590 Z " />
<glyph glyph-name="parenleft" unicode="&#x28;" horiz-adv-x="310" d="M116 265 Q136 380 181.5 493 Q227 606 297 724 L367 724 Q295 603 250.5 491.5 Q206 380 186 266 Q166 153 170 35 Q174 -83 204 -204 L134 -204 Q105 -88 100.5 32 Q96 152 116 265 Z " />
<glyph glyph-name="parenright" unicode="&#x29;" horiz-adv-x="310" d="M286 265 Q266 152 219.5 32 Q173 -88 104 -204 L34 -204 Q106 -83 151 35 Q196 153 216 266 Q236 380 231 491.5 Q226 603 197 724 L267 724 Q295 606 300.5 493 Q306 380 286 265 Z " />
<glyph glyph-name="asterisk" unicode="&#x2a;" horiz-adv-x="466" d="M333 447 L461 503 L473 442 L335 394 L402 298 L344 255 L295 354 L210 255 L168 298 L269 394 L147 442 L181 503 L289 447 L304 590 L370 590 L333 447 Z " />
<glyph glyph-name="plus" unicode="&#x2b;" horiz-adv-x="456" d="M305 240 L428 240 L417 177 L294 177 L273 57 L203 57 L224 177 L101 177 L112 240 L235 240 L256 360 L326 360 L305 240 Z " />
<glyph glyph-name="comma" unicode="&#x2c;" horiz-adv-x="136" d="M52 -95 L3 -95 L59 45 L123 45 L52 -95 Z " />
<glyph glyph-name="hyphen" unicode="&#x2d;" horiz-adv-x="444" d="M101 179 L112 242 L416 242 L405 179 L101 179 Z " />
<glyph glyph-name="period" unicode="&#x2e;" horiz-adv-x="208" d="M80 59 L148 59 L136 -6 L68 -6 L80 59 Z " />
<glyph glyph-name="slash" unicode="&#x2f;" horiz-adv-x="564" d="M544 724 L621 724 L106 -204 L34 -204 L544 724 Z " />
<glyph glyph-name="zero" unicode="0" horiz-adv-x="600" d="M310 59 Q343 59 375 68.5 Q407 78 435.5 105 Q464 132 487 180 Q510 228 523 304 Q534 367 531.5 410 Q529 453 512.5 479.5 Q496 506 466 518 Q436 530 393 530 Q350 530 316 518 Q282 506 256.5 479.5 Q231 453 212.5 410 Q194 367 183 304 Q170 228 175.5 180 Q181 132 200 105 Q219 78 248 68.5 Q277 59 310 59 Z M404 595 Q451 595 491.5 580 Q532 565 559.5 531 Q587 497 597.5 442 Q608 387 594 307 Q577 211 543 150 Q509 89 467.5 54.5 Q426 20 381.5 7 Q337 -6 298 -6 Q259 -6 219 7 Q179 20 150 54.5 Q121 89 109 150 Q97 211 114 307 Q128 387 157.5 442 Q187 497 226 531 Q265 565 311 580 Q357 595 404 595 Z " />
<glyph glyph-name="one" unicode="1" horiz-adv-x="346" d="M120 516 L303 590 L380 590 L276 0 L206 0 L298 523 Q255 506 204 486 Q153 466 108 447 L120 516 Z " />
<glyph glyph-name="two" unicode="2" horiz-adv-x="510" d="M68 79 Q76 124 107 160.5 Q138 197 180 227.5 Q222 258 269.5 284.5 Q317 311 358 335 Q399 359 427.5 382 Q456 405 460 429 Q465 459 456 478.5 Q447 498 429 509.5 Q411 521 386 525.5 Q361 530 334 530 Q294 530 249.5 523 Q205 516 173 508 L183 566 Q206 577 243.5 586 Q281 595 346 595 Q390 595 427.5 588 Q465 581 490.5 561.5 Q516 542 527 509 Q538 476 529 423 Q523 386 493 356.5 Q463 327 422 301 Q381 275 334 250 Q287 225 245.5 197.5 Q204 170 173.5 137 Q143 104 136 63 L463 63 L452 0 L55 0 L68 79 Z " />
<glyph glyph-name="three" unicode="3" horiz-adv-x="519" d="M301 330 Q320 330 341.5 331.5 Q363 333 382.5 342.5 Q402 352 417 373 Q432 394 439 432 Q444 461 431.5 480 Q419 499 398.5 510 Q378 521 353.5 525.5 Q329 530 311 530 Q273 530 228.5 523.5 Q184 517 149 509 L159 567 Q185 577 225.5 586 Q266 595 334 595 Q363 595 397 588.5 Q431 582 459 564.5 Q487 547 502.5 516 Q518 485 509 435 Q507 422 502.5 403.5 Q498 385 489 365.5 Q480 346 465.5 328 Q451 310 429 298 Q455 286 470 273 Q485 260 491.5 244 Q498 228 497.5 208 Q497 188 492 163 Q486 128 466.5 97 Q447 66 414.5 43 Q382 20 337 7 Q292 -6 236 -6 Q169 -6 128.5 2.5 Q88 11 64 23 L74 83 Q109 76 141 71 Q170 66 196.5 62.5 Q223 59 240 59 Q257 59 285 63 Q313 67 342 78.5 Q371 90 394 111.5 Q417 133 423 168 Q429 199 421 218 Q413 237 397 248 Q381 259 361 263 Q341 267 321 267 L225 267 Q232 286 238 299.5 Q244 313 251 330 L301 330 Z " />
<glyph glyph-name="four" unicode="4" horiz-adv-x="541" d="M374 180 L71 180 L89 279 Q167 360 245.5 434.5 Q324 509 404 590 L517 590 L455 243 L543 243 L532 180 L444 180 L413 0 L343 0 L374 180 Z M385 243 L436 530 L142 243 L385 243 Z " />
<glyph glyph-name="five" unicode="5" horiz-adv-x="520" d="M331 359 Q361 359 396 352 Q431 345 459 325.5 Q487 306 501.5 272 Q516 238 507 184 Q495 118 466 80 Q437 42 401.5 23 Q366 4 330 -1 Q294 -6 269 -6 L261 -6 Q237 -6 207 -1.5 Q177 3 151 17.5 Q125 32 107 59.5 Q89 87 90 132 L159 132 Q159 106 171.5 91 Q184 76 202 69 Q220 62 240.5 60.5 Q261 59 277 59 Q308 59 334.5 64.5 Q361 70 381.5 84.5 Q402 99 416.5 122.5 Q431 146 437 182 Q446 236 413.5 265 Q381 294 324 294 Q314 294 298 293 Q282 292 263.5 289.5 Q245 287 225.5 282 Q206 277 189 269 L113 277 L169 590 L528 590 L516 527 L227 527 L193 333 Q248 353 282 356 Q316 359 331 359 Z " />
<glyph glyph-name="six" unicode="6" horiz-adv-x="527" d="M343 362 Q382 362 416.5 351.5 Q451 341 475.5 319 Q500 297 511 262.5 Q522 228 513 179 Q503 120 474 83.5 Q445 47 409.5 27 Q374 7 337.5 0.5 Q301 -6 276 -6 L265 -6 Q240 -6 205.5 0.5 Q171 7 142 27 Q113 47 97 83 Q81 119 91 177 L119 336 Q144 476 212.5 535.5 Q281 595 391 595 Q436 595 471.5 590 Q507 585 528 579 L517 517 Q497 521 477 524 Q458 526 438 528 Q418 530 398 530 Q348 530 313 520.5 Q278 511 253 486 Q228 461 212 419.5 Q196 378 185 313 Q207 331 231.5 341 Q256 351 278 355.5 Q300 360 317.5 361 Q335 362 343 362 Z M282 57 Q299 57 323.5 59.5 Q348 62 372 73.5 Q396 85 415.5 109 Q435 133 443 176 Q450 216 439.5 240.5 Q429 265 410 278 Q391 291 367.5 295 Q344 299 324 299 Q306 299 281 293.5 Q256 288 231 273.5 Q206 259 186.5 235.5 Q167 212 161 176 Q154 135 165.5 111.5 Q177 88 197 76 Q217 64 241 60.5 Q265 57 282 57 Z " />
<glyph glyph-name="seven" unicode="7" horiz-adv-x="463" d="M149 590 L537 590 L525 523 L199 0 L122 0 L450 526 L137 526 L149 590 Z " />
<glyph glyph-name="eight" unicode="8" horiz-adv-x="562" d="M339 329 Q359 329 381.5 331 Q404 333 424.5 342.5 Q445 352 461 373 Q477 394 483 431 Q489 464 480 484 Q471 504 453.5 514 Q436 524 414.5 527 Q393 530 374 530 Q355 530 332.5 527 Q310 524 289 514 Q268 504 251.5 484 Q235 464 229 431 Q223 394 232 373 Q241 352 258 342.5 Q275 333 297.5 331 Q320 329 339 329 Z M291 59 Q307 59 332 62.5 Q357 66 382.5 76.5 Q408 87 428.5 108 Q449 129 455 163 Q462 200 449 220.5 Q436 241 414.5 251 Q393 261 368.5 263 Q344 265 327 265 Q311 265 285.5 263 Q260 261 235 251 Q210 241 190 220.5 Q170 200 163 163 Q157 129 170.5 108 Q184 87 205.5 76.5 Q227 66 251 62.5 Q275 59 291 59 Z M279 -6 Q254 -6 218 0 Q182 6 151 24 Q120 42 102 75.5 Q84 109 94 165 Q97 183 102 201 Q107 219 117 235.5 Q127 252 143.5 267 Q160 282 186 295 Q159 324 156.5 361.5 Q154 399 159 431 Q169 485 195 517.5 Q221 550 254 567.5 Q287 585 322 590 Q357 595 385 595 Q413 595 446.5 590 Q480 585 507 567.5 Q534 550 548.5 517.5 Q563 485 553 431 Q548 399 532 361.5 Q516 324 480 295 Q502 282 513 267 Q524 252 528 235.5 Q532 219 530.5 201 Q529 183 526 165 Q516 109 485.5 75.5 Q455 42 417.5 24 Q380 6 342 0 Q304 -6 279 -6 Z " />
<glyph glyph-name="nine" unicode="9" horiz-adv-x="527" d="M287 227 Q248 227 213.5 237.5 Q179 248 154.5 270 Q130 292 119 326.5 Q108 361 117 410 Q128 469 156.5 505.5 Q185 542 220.5 562 Q256 582 292 588.5 Q328 595 353 595 L364 595 Q390 595 424 588.5 Q458 582 487.5 562 Q517 542 533.5 506.5 Q550 471 539 412 L511 253 Q486 113 417 53.5 Q348 -6 238 -6 Q193 -6 158 -1 Q123 4 102 10 L113 72 Q133 68 153 66 Q172 63 192 61 Q212 59 232 59 Q282 59 317 68.5 Q352 78 377 103 Q402 128 418 170 Q434 212 445 276 Q423 258 398.5 248 Q374 238 352 233.5 Q330 229 312.5 228 Q295 227 287 227 Z M348 532 Q331 532 306.5 529.5 Q282 527 258 515.5 Q234 504 214.5 480 Q195 456 187 413 Q180 373 190.5 348.5 Q201 324 220 311 Q239 298 263 294 Q287 290 306 290 Q324 290 349 295.5 Q374 301 398.5 315.5 Q423 330 443 353.5 Q463 377 469 413 Q477 454 465 477.5 Q453 501 433 513 Q413 525 389 528.5 Q365 532 348 532 Z " />
<glyph glyph-name="colon" unicode="&#x3a;" horiz-adv-x="208" d="M80 59 L148 59 L136 -6 L68 -6 L80 59 Z M134 365 L202 365 L190 300 L122 300 L134 365 Z " />
<glyph glyph-name="semicolon" unicode="&#x3b;" horiz-adv-x="237" d="M163 365 L231 365 L219 300 L151 300 L163 365 Z M102 -95 L53 -95 L109 45 L173 45 L102 -95 Z " />
<glyph glyph-name="less" unicode="&#x3c;" horiz-adv-x="439" d="M158 191 L382 77 L369 0 L94 140 L113 244 L436 383 L422 305 L158 191 Z " />
<glyph glyph-name="equal" unicode="&#x3d;" horiz-adv-x="409" d="M108 219 L119 282 L388 282 L377 219 L108 219 Z M80 59 L91 122 L360 122 L349 59 L80 59 Z " />
<glyph glyph-name="greater" unicode="&#x3e;" horiz-adv-x="439" d="M123 305 L137 383 L412 244 L393 140 L70 0 L83 77 L347 191 L123 305 Z " />
<glyph glyph-name="question" unicode="&#x3f;" horiz-adv-x="510" d="M228 294 Q284 308 323 321.5 Q362 335 388 351 Q414 367 428 386.5 Q442 406 446 432 Q452 468 440 488 Q428 508 407.5 517 Q387 526 363 528 Q339 530 322 530 Q284 530 239 523 Q194 516 159 508 L169 567 Q192 577 230 586 Q268 595 341 595 Q371 595 405.5 588.5 Q440 582 467.5 564.5 Q495 547 510 516 Q525 485 516 435 Q512 413 501.5 386.5 Q491 360 466.5 334 Q442 308 399.5 285 Q357 262 290 246 L267 116 L197 116 L228 294 Z M182 34 Q185 50 197 60 Q209 70 223 70 Q239 70 247 60 Q255 50 252 34 Q250 20 238.5 10 Q227 0 211 0 Q197 0 188.5 10 Q180 20 182 34 Z " />
<glyph glyph-name="at" unicode="&#x40;" horiz-adv-x="726" d="M630 251 Q624 278 610 299 Q598 318 577.5 332 Q557 346 523 346 Q510 346 487 342.5 Q464 339 441 325 Q418 311 398 283.5 Q378 256 369 209 Q359 153 369 122.5 Q379 92 397.5 78 Q416 64 437.5 61.5 Q459 59 472 59 Q506 59 532 74 Q558 89 576 107 Q597 127 613 154 L630 251 Z M656 0 L593 0 L593 50 Q572 29 549 17.5 Q526 6 504 1 Q482 -4 464.5 -5 Q447 -6 436 -6 Q407 -6 377.5 4.5 Q348 15 327 39.5 Q306 64 297 105.5 Q288 147 299 209 Q308 262 331 300 Q354 338 384.5 363 Q415 388 450 399.5 Q485 411 519 411 Q525 411 539.5 410 Q554 409 573 403 Q592 397 611.5 384 Q631 371 647 347 L650 364 Q662 435 649 479 Q636 523 607.5 548.5 Q579 574 541 583 Q503 592 465 592 Q426 592 385 583.5 Q344 575 308 551 Q272 527 244.5 483 Q217 439 204 368 L154 82 Q143 19 151 -21 Q159 -61 179.5 -85 Q200 -109 231 -120 Q262 -131 296 -135 L285 -198 Q241 -192 199 -178 Q157 -164 126.5 -135 Q96 -106 82 -59.5 Q68 -13 80 57 L135 371 Q149 452 186 507 Q223 562 271.5 595.5 Q320 629 374 643 Q428 657 476 657 Q526 657 575.5 642.5 Q625 628 662 594 Q699 560 717 504.5 Q735 449 720 368 L656 0 Z " />
<glyph glyph-name="A" unicode="A" horiz-adv-x="598" d="M568 0 L493 0 L465 144 L183 144 L105 0 L30 0 L356 590 L450 590 L568 0 Z M450 208 L390 518 L220 208 L450 208 Z " />
<glyph glyph-name="B" unicode="B" horiz-adv-x="559" d="M346 330 Q365 330 386.5 332 Q408 334 427.5 343.5 Q447 353 462 374 Q477 395 484 432 Q489 462 481 481 Q473 500 457.5 510.5 Q442 521 421.5 524.5 Q401 528 381 528 L233 528 L198 330 L346 330 Z M330 63 Q349 63 370.5 65.5 Q392 68 411.5 78.5 Q431 89 446.5 110 Q462 131 468 168 Q474 199 466 218 Q458 237 442.5 248 Q427 259 406.5 263 Q386 267 366 267 L187 267 L151 63 L330 63 Z M70 0 L174 590 L400 590 Q430 590 461.5 584.5 Q493 579 516 562 Q539 545 551 515 Q563 485 554 435 Q552 422 548 405 Q544 388 535 369.5 Q526 351 510.5 332.5 Q495 314 470 299 Q501 289 516.5 273.5 Q532 258 537.5 239.5 Q543 221 541.5 200 Q540 179 536 157 Q531 129 517 101 Q503 73 477 50.5 Q451 28 412 14 Q373 0 318 0 L70 0 Z " />
<glyph glyph-name="C" unicode="C" horiz-adv-x="550" d="M432 530 Q392 530 350.5 521 Q309 512 272.5 487 Q236 462 208 418 Q180 374 168 303 Q154 222 168.5 174 Q183 126 212 100.5 Q241 75 279 67 Q317 59 349 59 Q384 59 419.5 67 Q455 75 491 93 Q498 81 504 68.5 Q510 56 516 45 Q473 18 426.5 6 Q380 -6 339 -6 Q299 -6 249.5 7 Q200 20 161 54.5 Q122 89 101.5 149.5 Q81 210 98 306 Q113 388 148 443.5 Q183 499 230.5 532.5 Q278 566 333.5 580.5 Q389 595 444 595 Q487 595 529 582.5 Q571 570 606 545 L562 497 Q532 514 498 522 Q464 530 432 530 Z " />
<glyph glyph-name="D" unicode="D" horiz-adv-x="596" d="M595 307 Q579 214 541 154.5 Q503 95 456 60.5 Q409 26 359.5 13 Q310 0 270 0 L70 0 L174 590 L362 590 Q410 590 457.5 575.5 Q505 561 540 528 Q575 495 592 441 Q609 387 595 307 Z M268 63 Q300 63 339 70 Q378 77 414 102 Q450 127 480 175 Q510 223 524 304 Q535 367 525 410 Q515 453 490 479 Q465 505 429 516.5 Q393 528 353 528 L233 528 L151 63 L268 63 Z " />
<glyph glyph-name="E" unicode="E" horiz-adv-x="518" d="M233 528 L198 330 L458 330 L447 267 L187 267 L151 63 L469 63 L458 0 L70 0 L174 590 L562 590 L551 528 L233 528 Z " />
<glyph glyph-name="F" unicode="F" horiz-adv-x="513" d="M70 0 L174 590 L562 590 L551 528 L233 528 L198 330 L458 330 L447 267 L187 267 L140 0 L70 0 Z " />
<glyph glyph-name="G" unicode="G" horiz-adv-x="614" d="M432 530 Q392 530 350.5 521 Q309 512 272.5 487 Q236 462 208 418 Q180 374 168 303 Q154 222 168.5 174 Q183 126 212 100.5 Q241 75 279 67 Q317 59 349 59 Q383 59 418.5 67 Q454 75 490 92 L514 229 L423 229 L434 294 L595 294 L555 64 Q531 44 502 30.5 Q473 17 443.5 9 Q414 1 386.5 -2.5 Q359 -6 339 -6 Q299 -6 249.5 7 Q200 20 161 54.5 Q122 89 101.5 149.5 Q81 210 98 306 Q113 388 148 443.5 Q183 499 230.5 532.5 Q278 566 333.5 580.5 Q389 595 444 595 Q487 595 529 582.5 Q571 570 606 545 L562 497 Q532 514 498 522 Q464 530 432 530 Z " />
<glyph glyph-name="H" unicode="H" horiz-adv-x="612" d="M646 590 L542 0 L472 0 L516 252 L184 252 L140 0 L70 0 L174 590 L244 590 L195 315 L527 315 L576 590 L646 590 Z " />
<glyph glyph-name="I" unicode="I" horiz-adv-x="210" d="M174 590 L244 590 L140 0 L70 0 L174 590 Z " />
<glyph glyph-name="J" unicode="J" horiz-adv-x="470" d="M434 590 L504 590 L434 195 Q422 130 392 91 Q362 52 325 31 Q288 10 249.5 2.5 Q211 -5 184 -6 Q169 -6 149.5 -5.5 Q130 -5 109 -1.5 Q88 2 67.5 9 Q47 16 30 29 L66 78 Q102 64 132.5 61.5 Q163 59 186 59 Q203 59 229.5 61.5 Q256 64 283 77.5 Q310 91 333 119.5 Q356 148 365 200 L434 590 Z " />
<glyph glyph-name="K" unicode="K" horiz-adv-x="532" d="M522 0 L425 0 L190 285 L140 0 L70 0 L174 590 L244 590 L194 310 L529 590 L626 590 L279 296 L522 0 Z " />
<glyph glyph-name="L" unicode="L" horiz-adv-x="479" d="M151 63 L445 63 L434 0 L70 0 L174 590 L244 590 L151 63 Z " />
<glyph glyph-name="M" unicode="M" horiz-adv-x="694" d="M683 590 L728 590 L624 0 L554 0 L627 416 L405 137 L337 137 L213 416 L140 0 L70 0 L174 590 L219 590 L385 216 L683 590 Z " />
<glyph glyph-name="N" unicode="N" horiz-adv-x="634" d="M226 491 L140 0 L70 0 L174 590 L263 590 L510 92 L598 590 L668 590 L564 0 L473 0 L226 491 Z " />
<glyph glyph-name="O" unicode="O" horiz-adv-x="676" d="M348 59 Q380 59 418.5 67 Q457 75 494 100.5 Q531 126 561 174.5 Q591 223 605 304 Q617 375 606.5 419 Q596 463 570 487.5 Q544 512 507.5 521 Q471 530 431 530 Q391 530 351.5 521 Q312 512 277.5 487.5 Q243 463 216.5 419 Q190 375 178 304 Q164 223 176.5 174.5 Q189 126 216.5 100.5 Q244 75 280 67 Q316 59 348 59 Z M336 -6 Q296 -6 249 7 Q202 20 165 54.5 Q128 89 110 150 Q92 211 109 307 Q123 387 158.5 442 Q194 497 241 531 Q288 565 341 580 Q394 595 442 595 Q490 595 538 580 Q586 565 621 531 Q656 497 672.5 442 Q689 387 675 307 Q658 211 618 150 Q578 89 529 54.5 Q480 20 428.5 7 Q377 -6 336 -6 Z " />
<glyph glyph-name="P" unicode="P" horiz-adv-x="555" d="M169 590 L446 590 Q476 590 505.5 579.5 Q535 569 557 546.5 Q579 524 589 488 Q599 452 590 401 Q580 340 556.5 301 Q533 262 504 239.5 Q475 217 442.5 208 Q410 199 380 199 L170 199 L135 0 L65 0 L169 590 Z M227 526 L181 263 L384 263 Q404 263 424.5 268 Q445 273 464 287.5 Q483 302 497.5 329 Q512 356 520 401 Q527 440 521.5 464 Q516 488 502.5 502 Q489 516 470 521 Q451 526 430 526 L227 526 Z " />
<glyph glyph-name="Q" unicode="Q" horiz-adv-x="676" d="M675 307 Q658 211 618 150 Q578 89 529 54.5 Q480 20 428.5 7 Q377 -6 336 -6 L328 -6 L424 -175 L348 -175 L242 9 Q209 20 179.5 42 Q150 64 130.5 99.5 Q111 135 104 186 Q97 237 109 307 Q123 387 158.5 442 Q194 497 241 531 Q288 565 341 580 Q394 595 442 595 Q490 595 538 580 Q586 565 621 531 Q656 497 672.5 442 Q689 387 675 307 Z M178 304 Q164 223 176.5 174.5 Q189 126 216.5 100.5 Q244 75 280 67 Q316 59 348 59 Q380 59 418.5 67 Q457 75 494 100.5 Q531 126 561 174.5 Q591 223 605 304 Q617 375 606.5 419 Q596 463 570 487.5 Q544 512 507.5 521 Q471 530 431 530 Q391 530 351.5 521 Q312 512 277.5 487.5 Q243 463 216.5 419 Q190 375 178 304 Z " />
<glyph glyph-name="R" unicode="R" horiz-adv-x="558" d="M585 408 Q582 390 574 364.5 Q566 339 550 313 Q534 287 508 265 Q482 243 443 232 Q460 213 470 195 Q480 177 486.5 158.5 Q493 140 496.5 119.5 Q500 99 504 74 Q506 61 508.5 45 Q511 29 516 0 L443 0 L425 98 Q413 162 388.5 189 Q364 216 324 216 L178 216 L140 0 L70 0 L174 590 L442 590 Q472 590 501.5 580.5 Q531 571 552.5 550 Q574 529 584 494 Q594 459 585 408 Z M379 280 Q400 280 420.5 282.5 Q441 285 459.5 297 Q478 309 492.5 334.5 Q507 360 515 407 Q522 446 516.5 469.5 Q511 493 497 505.5 Q483 518 463 522 Q443 526 422 526 L232 526 L189 280 L379 280 Z " />
<glyph glyph-name="S" unicode="S" horiz-adv-x="534" d="M378 595 Q445 595 480 588.5 Q515 582 533 573 L522 512 Q491 517 463 521 Q437 525 413.5 527.5 Q390 530 376 530 Q351 530 321.5 528.5 Q292 527 265 518.5 Q238 510 218 492 Q198 474 192 440 Q187 411 211 390.5 Q235 370 273.5 352.5 Q312 335 357.5 318.5 Q403 302 440.5 279.5 Q478 257 500.5 226.5 Q523 196 515 152 Q508 111 486 81 Q464 51 431 31.5 Q398 12 356 3 Q314 -6 266 -6 Q198 -6 149 4.5 Q100 15 75 29 L86 92 Q99 88 119 82.5 Q139 77 163.5 71.5 Q188 66 216.5 62.5 Q245 59 274 59 Q303 59 331.5 63 Q360 67 383.5 77 Q407 87 423.5 105 Q440 123 445 150 Q450 180 426 200.5 Q402 221 363.5 238 Q325 255 279.5 271.5 Q234 288 196.5 310 Q159 332 136.5 363 Q114 394 122 440 Q131 489 155.5 519 Q180 549 215 566 Q250 583 292 589 Q334 595 378 595 Z " />
<glyph glyph-name="T" unicode="T" horiz-adv-x="532" d="M149 590 L591 590 L579 527 L393 527 L301 0 L231 0 L323 527 L137 527 L149 590 Z " />
<glyph glyph-name="U" unicode="U" horiz-adv-x="614" d="M305 -6 Q266 -6 225.5 4.5 Q185 15 156 44 Q127 73 114 126 Q101 179 116 266 L174 590 L244 590 L188 277 Q177 212 183.5 170 Q190 128 208.5 103 Q227 78 255.5 68.5 Q284 59 317 59 Q350 59 382 68.5 Q414 78 441.5 103 Q469 128 490 170 Q511 212 522 277 L578 590 L648 590 L590 266 Q575 179 543.5 126 Q512 73 472.5 44 Q433 15 389 4.5 Q345 -6 305 -6 Z " />
<glyph glyph-name="V" unicode="V" horiz-adv-x="598" d="M597 590 L672 590 L346 0 L252 0 L134 590 L209 590 L311 72 L597 590 Z " />
<glyph glyph-name="W" unicode="W" horiz-adv-x="838" d="M630 71 L838 590 L907 590 L675 0 L563 0 L507 501 L275 0 L163 0 L139 590 L208 590 L232 71 L477 590 L569 590 L630 71 Z " />
<glyph glyph-name="X" unicode="X" horiz-adv-x="516" d="M112 0 L27 0 L269 291 L129 590 L215 590 L321 359 L509 590 L595 590 L349 291 L489 0 L404 0 L298 227 L112 0 Z " />
<glyph glyph-name="Y" unicode="Y" horiz-adv-x="557" d="M313 0 L244 0 L279 199 L129 590 L207 590 L327 281 L558 590 L636 590 L348 199 L313 0 Z " />
<glyph glyph-name="Z" unicode="Z" horiz-adv-x="517" d="M155 590 L571 590 L556 510 L137 65 L478 65 L467 0 L50 0 L64 84 L483 525 L143 525 L155 590 Z " />
<glyph glyph-name="bracketleft" unicode="&#x5b;" horiz-adv-x="332" d="M112 -141 L237 -141 L226 -204 L34 -204 L197 724 L389 724 L378 661 L253 661 L112 -141 Z " />
<glyph glyph-name="backslash" unicode="&#x5c;" horiz-adv-x="564" d="M458 -204 L386 -204 L197 724 L274 724 L458 -204 Z " />
<glyph glyph-name="bracketright" unicode="&#x5d;" horiz-adv-x="332" d="M311 661 L186 661 L197 724 L389 724 L226 -204 L34 -204 L45 -141 L170 -141 L311 661 Z " />
<glyph glyph-name="asciicircum" unicode="&#x5e;" horiz-adv-x="437" d="M368 590 Q383 539 402 494 Q421 449 437 399 L363 399 L313 534 L217 399 L140 399 Q173 450 208.5 495.5 Q244 541 277 590 L368 590 Z " />
<glyph glyph-name="underscore" unicode="&#x5f;" horiz-adv-x="444" d="M58 -65 L68 -6 L372 -6 L362 -65 L58 -65 Z " />
<glyph glyph-name="grave" unicode="&#x60;" horiz-adv-x="251" d="M174 590 L247 590 Q252 558 255 524.5 Q258 491 261 459 L201 459 L174 590 Z " />
<glyph glyph-name="a" unicode="a" horiz-adv-x="479" d="M414 0 L348 0 L349 48 Q328 28 303 17 Q278 6 254.5 1 Q231 -4 211.5 -5 Q192 -6 182 -6 L169 -6 Q162 -6 142 -2.5 Q122 1 102.5 14 Q83 27 70.5 53 Q58 79 66 124 Q71 148 82.5 170.5 Q94 193 114.5 210 Q135 227 166 237 Q197 247 239 247 Q262 247 295 241 Q328 235 379 204 L387 244 Q391 266 387 285 Q383 304 367 317.5 Q351 331 320.5 338.5 Q290 346 239 346 Q222 346 198.5 343 Q175 340 146 335 L156 392 Q179 400 207.5 405.5 Q236 411 290 411 Q383 411 425.5 369 Q468 327 457 247 L414 0 Z M368 139 Q356 151 339 161 Q324 169 302.5 175.5 Q281 182 251 182 Q218 182 196.5 177.5 Q175 173 162.5 165 Q150 157 144 146 Q138 135 136 121 Q131 93 150 76 Q169 59 229 59 Q264 59 289.5 66.5 Q315 74 331 83 Q350 94 362 107 L368 139 Z " />
<glyph glyph-name="b" unicode="b" horiz-adv-x="508" d="M169 590 L239 590 L196 347 Q220 371 244.5 384 Q269 397 289.5 403 Q310 409 325 410 Q340 411 346 411 Q380 411 411 399.5 Q442 388 463.5 363 Q485 338 494 300 Q503 262 494 209 Q483 147 459.5 105.5 Q436 64 406 39.5 Q376 15 343 4.5 Q310 -6 281 -6 Q271 -6 253 -5 Q235 -4 215.5 1 Q196 6 177 17.5 Q158 29 144 50 L128 0 L65 0 L169 590 Z M162 154 Q168 127 182 107 Q194 87 214.5 73 Q235 59 269 59 Q283 59 305 61.5 Q327 64 350.5 78 Q374 92 394 122.5 Q414 153 424 209 Q433 256 422.5 283.5 Q412 311 394 325 Q376 339 355 342.5 Q334 346 320 346 Q286 346 260 331 Q234 316 216 299 Q195 278 179 251 L162 154 Z " />
<glyph glyph-name="c" unicode="c" horiz-adv-x="425" d="M395 29 Q350 3 311 -1.5 Q272 -6 240 -6 Q213 -5 180.5 5 Q148 15 122.5 39 Q97 63 83.5 103.5 Q70 144 81 207 Q90 261 116.5 299.5 Q143 338 177 363 Q211 388 247.5 399.5 Q284 411 314 411 Q343 411 380 406.5 Q417 402 455 373 L417 324 Q385 338 359.5 342 Q334 346 316 346 Q296 346 270.5 340 Q245 334 221 318.5 Q197 303 178 276 Q159 249 151 208 Q143 162 152.5 133 Q162 104 180.5 87.5 Q199 71 222.5 65 Q246 59 265 59 Q285 59 310.5 62.5 Q336 66 374 81 L395 29 Z " />
<glyph glyph-name="d" unicode="d" horiz-adv-x="508" d="M443 0 L380 0 L380 50 Q359 29 336 17.5 Q313 6 291 1 Q269 -4 251.5 -5 Q234 -6 223 -6 Q194 -6 164.5 4.5 Q135 15 114 39.5 Q93 64 84 105.5 Q75 147 86 209 Q95 262 118 300 Q141 338 171.5 363 Q202 388 237 399.5 Q272 411 306 411 Q312 411 326.5 410 Q341 409 360 403 Q379 397 398.5 384 Q418 371 434 347 L477 590 L547 590 L443 0 Z M417 251 Q411 278 397 299 Q385 318 364.5 332 Q344 346 310 346 Q297 346 274 342.5 Q251 339 228 325 Q205 311 185 283.5 Q165 256 156 209 Q146 153 156 122.5 Q166 92 184.5 78 Q203 64 224.5 61.5 Q246 59 259 59 Q293 59 319 74 Q345 89 363 107 Q384 127 400 154 L417 251 Z " />
<glyph glyph-name="e" unicode="e" horiz-adv-x="475" d="M451 176 L150 176 Q151 146 157 123.5 Q163 101 178.5 87 Q194 73 221.5 66 Q249 59 293 59 Q308 59 339.5 62 Q371 65 403 69 L392 11 Q369 3 333.5 -1.5 Q298 -6 250 -6 Q198 -6 163 10.5 Q128 27 108 55 Q88 83 83 121.5 Q78 160 85 203 Q93 246 111.5 284 Q130 322 158 350 Q186 378 224 394.5 Q262 411 308 411 Q355 411 387 397 Q419 383 437.5 358.5 Q456 334 461.5 301 Q467 268 460 229 L451 176 Z M392 241 Q397 273 391 293.5 Q385 314 371.5 325.5 Q358 337 338.5 341.5 Q319 346 296 346 Q194 346 162 241 L392 241 Z " />
<glyph glyph-name="f" unicode="f" horiz-adv-x="372" d="M429 526 Q418 528 401 529 Q384 530 368 530 Q324 530 298 509 Q272 488 261 423 L258 405 L407 405 L395 340 L246 340 L187 0 L117 0 L176 340 L89 340 L101 405 L188 405 L189 413 Q206 508 252 551.5 Q298 595 364 595 Q396 595 413.5 591.5 Q431 588 439 583 L429 526 Z " />
<glyph glyph-name="g" unicode="g" horiz-adv-x="513" d="M446 -6 Q435 -69 406 -106.5 Q377 -144 341.5 -164.5 Q306 -185 269 -191.5 Q232 -198 205 -198 Q163 -198 127 -191 Q91 -184 65 -168 Q74 -152 79.5 -140.5 Q85 -129 94 -114 Q127 -127 159 -130 Q191 -133 211 -133 Q230 -133 255 -131 Q280 -129 304 -117 Q328 -105 348 -79 Q368 -53 376 -6 L386 51 Q365 30 342 18.5 Q319 7 297 1.5 Q275 -4 257 -5 Q239 -6 228 -6 Q199 -6 169.5 4.5 Q140 15 119 39.5 Q98 64 89 105.5 Q80 147 91 209 Q100 262 123 300 Q146 338 176.5 363 Q207 388 242 399.5 Q277 411 311 411 Q317 411 331.5 410 Q346 409 365 402.5 Q384 396 403.5 383 Q423 370 439 346 L458 405 L519 405 L446 -6 Z M422 251 Q416 278 402 299 Q390 318 369.5 332 Q349 346 315 346 Q302 346 279 342.5 Q256 339 233 325 Q210 311 190 283.5 Q170 256 161 209 Q151 153 161 122.5 Q171 92 189.5 78 Q208 64 229.5 61.5 Q251 59 264 59 Q298 59 324 74 Q350 89 368 107 Q389 127 405 154 L422 251 Z " />
<glyph glyph-name="h" unicode="h" horiz-adv-x="492" d="M65 0 L169 590 L239 590 L195 344 Q219 369 243.5 382.5 Q268 396 290 402.5 Q312 409 330 410 Q348 411 358 411 Q383 411 407 400.5 Q431 390 449 370.5 Q467 351 475 323 Q483 295 477 260 L432 0 L362 0 L406 254 Q411 281 405 299 Q399 317 386.5 327.5 Q374 338 357.5 342 Q341 346 326 346 Q293 346 266.5 332.5 Q240 319 220 303 Q198 284 180 260 L135 0 L65 0 Z " />
<glyph glyph-name="i" unicode="i" horiz-adv-x="210" d="M141 405 L211 405 L140 0 L70 0 L141 405 Z M167 554 L237 554 L223 475 L153 475 L167 554 Z " />
<glyph glyph-name="j" unicode="j" horiz-adv-x="210" d="M141 405 L211 405 L129 -60 Q126 -79 117 -103 Q108 -127 89.5 -148 Q71 -169 41.5 -183.5 Q12 -198 -33 -198 Q-71 -198 -89 -195.5 Q-107 -193 -118 -189 L-107 -129 Q-93 -130 -80 -131 Q-68 -132 -57 -132.5 Q-46 -133 -39 -133 Q-10 -133 8 -126.5 Q26 -120 37.5 -105.5 Q49 -91 55.5 -67.5 Q62 -44 68 -10 L141 405 Z M167 554 L237 554 L223 475 L153 475 L167 554 Z " />
<glyph glyph-name="k" unicode="k" horiz-adv-x="440" d="M337 0 L173 217 L135 0 L65 0 L169 590 L239 590 L177 243 L379 405 L480 405 L260 227 L432 0 L337 0 Z " />
<glyph glyph-name="l" unicode="l" horiz-adv-x="238" d="M157 102 Q154 86 155 77.5 Q156 69 160.5 65 Q165 61 174 60 Q183 59 198 59 L187 -4 Q179 -5 171 -5 Q164 -5 157.5 -5.5 Q151 -6 146 -6 L141 -6 Q128 -6 115.5 -2.5 Q103 1 94.5 11.5 Q86 22 83.5 42 Q81 62 87 97 L174 590 L244 590 L157 102 Z " />
<glyph glyph-name="m" unicode="m" horiz-adv-x="721" d="M579 411 Q653 411 686 370 Q719 329 705 254 L661 0 L591 0 L634 247 Q640 280 634 299.5 Q628 319 616 329.5 Q604 340 587.5 343 Q571 346 556 346 Q529 346 508 335.5 Q487 325 472.5 309.5 Q458 294 449 276 Q440 258 437 242 L395 0 L325 0 L369 254 Q374 281 368.5 299 Q363 317 351 327.5 Q339 338 323.5 342 Q308 346 293 346 Q257 346 235 332 Q213 318 200.5 299.5 Q188 281 183 264 Q178 247 177 241 L135 0 L65 0 L136 405 L194 405 L196 346 Q209 370 228 383.5 Q247 397 266 403 Q285 409 301 410 Q317 411 324 411 Q352 411 378.5 399.5 Q405 388 435 346 Q456 370 477.5 383.5 Q499 397 518 403 Q537 409 553 410 Q569 411 579 411 Z " />
<glyph glyph-name="n" unicode="n" horiz-adv-x="492" d="M65 0 L136 405 L197 405 L196 345 Q220 370 244 383.5 Q268 397 290 403 Q312 409 330 410 Q348 411 358 411 Q383 411 407 400.5 Q431 390 449 370.5 Q467 351 475 323 Q483 295 477 260 L432 0 L362 0 L406 254 Q411 281 405 299 Q399 317 386.5 327.5 Q374 338 357.5 342 Q341 346 326 346 Q293 346 266.5 332.5 Q240 319 220 303 Q198 284 180 260 L135 0 L65 0 Z " />
<glyph glyph-name="o" unicode="o" horiz-adv-x="502" d="M261 59 Q281 59 304.5 64 Q328 69 350.5 84.5 Q373 100 391 128.5 Q409 157 418 205 Q425 246 417 273.5 Q409 301 392.5 317 Q376 333 354.5 339.5 Q333 346 312 346 Q291 346 267 339.5 Q243 333 220.5 317 Q198 301 180.5 273.5 Q163 246 156 205 Q147 157 155 128.5 Q163 100 180 84.5 Q197 69 219.5 64 Q242 59 261 59 Z M249 -6 Q221 -6 187.5 3.5 Q154 13 128 37 Q102 61 88.5 102 Q75 143 86 207 Q95 261 121 299.5 Q147 338 181 363 Q215 388 252.5 399.5 Q290 411 323 411 Q356 411 389 399.5 Q422 388 447.5 363 Q473 338 485 299.5 Q497 261 488 207 Q477 143 448.5 102 Q420 61 385 37 Q350 13 313.5 3.5 Q277 -6 249 -6 Z " />
<glyph glyph-name="p" unicode="p" horiz-adv-x="508" d="M100 -198 L30 -198 L136 405 L197 405 L196 346 Q220 370 244.5 383 Q269 396 289.5 402.5 Q310 409 325 410 Q340 411 346 411 Q380 411 411 399.5 Q442 388 463.5 363 Q485 338 494 300 Q503 262 494 209 Q483 147 459.5 105.5 Q436 64 406 39.5 Q376 15 343 4.5 Q310 -6 281 -6 Q271 -6 253 -5 Q235 -4 215.5 1.5 Q196 7 176.5 18.5 Q157 30 143 51 L100 -198 Z M162 154 Q168 127 182 107 Q194 87 214.5 73 Q235 59 269 59 Q283 59 305 61.5 Q327 64 350.5 78 Q374 92 394 122.5 Q414 153 424 209 Q433 256 422.5 283.5 Q412 311 394 325 Q376 339 355 342.5 Q334 346 320 346 Q286 346 260 331 Q234 316 216 299 Q195 278 179 251 L162 154 Z " />
<glyph glyph-name="q" unicode="q" horiz-adv-x="508" d="M381 51 Q360 30 337 18.5 Q314 7 292 1.5 Q270 -4 252 -5 Q234 -6 223 -6 Q194 -6 164.5 4.5 Q135 15 114 39.5 Q93 64 84 105.5 Q75 147 86 209 Q95 262 118 300 Q141 338 171.5 363 Q202 388 237 399.5 Q272 411 306 411 Q312 411 326.5 410 Q341 409 360 402.5 Q379 396 398.5 383 Q418 370 434 346 L453 405 L514 405 L408 -198 L338 -198 L381 51 Z M417 251 Q411 278 397 299 Q385 318 364.5 332 Q344 346 310 346 Q297 346 274 342.5 Q251 339 228 325 Q205 311 185 283.5 Q165 256 156 209 Q146 153 156 122.5 Q166 92 184.5 78 Q203 64 224.5 61.5 Q246 59 259 59 Q293 59 319 74 Q345 89 363 107 Q384 127 400 154 L417 251 Z " />
<glyph glyph-name="r" unicode="r" horiz-adv-x="344" d="M374 343 Q360 345 353 345.5 Q346 346 340 346 Q288 346 255 325.5 Q222 305 204 280 Q182 250 172 213 L135 0 L65 0 L136 405 L197 405 L196 346 Q215 370 241 383.5 Q267 397 291 403 Q315 409 334 410 Q353 411 357 411 L386 411 L374 343 Z " />
<glyph glyph-name="s" unicode="s" horiz-adv-x="422" d="M286 411 Q331 411 361 405.5 Q391 400 408 392 L398 335 Q376 338 357 341 Q338 343 321.5 344.5 Q305 346 295 346 Q232 346 202.5 338 Q173 330 168 304 Q165 288 183 276.5 Q201 265 229.5 254.5 Q258 244 291 233 Q324 222 351 206.5 Q378 191 394.5 169.5 Q411 148 405 116 Q395 59 345 26.5 Q295 -6 210 -6 Q162 -6 124 2.5 Q86 11 66 21 L77 81 Q106 75 133 70 Q158 66 180.5 62.5 Q203 59 217 59 Q233 59 252 61.5 Q271 64 288.5 70 Q306 76 319 86.5 Q332 97 335 114 Q338 131 320 142.5 Q302 154 273.5 164.5 Q245 175 212 186.5 Q179 198 152 213.5 Q125 229 108.5 250.5 Q92 272 98 303 Q103 333 122 354 Q141 375 167 387.5 Q193 400 224.5 405.5 Q256 411 286 411 Z " />
<glyph glyph-name="t" unicode="t" horiz-adv-x="364" d="M84 340 L89 368 L257 556 L268 556 L241 405 L390 405 L378 340 L229 340 L198 159 Q192 124 193 104 Q194 84 203.5 74 Q213 64 231 61.5 Q249 59 276 59 Q289 59 302.5 61 Q316 63 330 65 L320 7 Q309 1 291.5 -2.5 Q274 -6 238 -6 Q193 -6 168 8 Q143 22 132 44.5 Q121 67 121.5 96 Q122 125 127 156 L159 340 L84 340 Z " />
<glyph glyph-name="u" unicode="u" horiz-adv-x="492" d="M498 405 L427 0 L366 0 L366 60 Q342 35 318 21.5 Q294 8 272 2 Q250 -4 232.5 -5 Q215 -6 204 -6 Q179 -6 155 4.5 Q131 15 113.5 34.5 Q96 54 87.5 82 Q79 110 85 145 L131 405 L201 405 L156 151 Q151 124 157.5 106.5 Q164 89 176.5 78.5 Q189 68 205.5 63.5 Q222 59 237 59 Q270 59 296.5 72.5 Q323 86 342 102 Q364 121 382 145 L428 405 L498 405 Z " />
<glyph glyph-name="v" unicode="v" horiz-adv-x="448" d="M177 0 L96 405 L174 405 L234 59 L416 405 L494 405 L271 0 L177 0 Z " />
<glyph glyph-name="w" unicode="w" horiz-adv-x="656" d="M469 57 L620 405 L697 405 Q649 302 605 202.5 Q561 103 513 0 L410 0 L371 244 L246 0 L143 0 Q132 103 122 202.5 Q112 302 101 405 L178 405 L207 57 L375 405 L423 405 L469 57 Z " />
<glyph glyph-name="x" unicode="x" horiz-adv-x="434" d="M117 0 L25 0 L203 203 L96 405 L190 405 L263 261 L386 405 L480 405 L301 203 L409 0 L317 0 L243 149 L117 0 Z " />
<glyph glyph-name="y" unicode="y" horiz-adv-x="447" d="M177 -13 Q170 24 163.5 63 Q157 102 148.5 150.5 Q140 199 130 261 Q120 323 106 405 L186 405 L232 84 Q275 159 322.5 244.5 Q370 330 412 405 L498 405 L193 -109 Q157 -163 124 -180.5 Q91 -198 59 -198 Q47 -198 31 -198 Q15 -198 5 -197 L16 -131 Q25 -132 33.5 -132.5 Q42 -133 44 -133 Q51 -133 63 -132 Q75 -131 88.5 -125 Q102 -119 116.5 -107 Q131 -95 143 -73 L177 -13 Z " />
<glyph glyph-name="z" unicode="z" horiz-adv-x="434" d="M131 405 L445 405 L429 317 L149 65 L385 65 L374 0 L60 0 L74 85 L359 340 L119 340 L131 405 Z " />
<glyph glyph-name="braceleft" unicode="&#x7b;" horiz-adv-x="492" d="M234 114 Q239 145 231 164.5 Q223 184 206.5 195.5 Q190 207 169 211.5 Q148 216 128 216 L108 216 L117 271 L137 271 Q157 271 180 275.5 Q203 280 223 291 Q243 302 258.5 322 Q274 342 279 372 L316 584 Q319 601 327 625 Q335 649 352 671 Q369 693 396.5 708.5 Q424 724 466 724 Q501 724 519 720.5 Q537 717 547 712 L538 660 Q530 660 523 661 Q516 661 510.5 661 Q505 661 502 661 Q475 661 454.5 659 Q434 657 419.5 648 Q405 639 396 620.5 Q387 602 381 570 L350 396 Q346 373 341 350 Q336 327 326 306.5 Q316 286 298.5 269.5 Q281 253 253 244 Q278 237 289.5 220.5 Q301 204 304 182.5 Q307 161 303.5 137 Q300 113 296 90 L272 -50 Q266 -82 269 -100.5 Q272 -119 283.5 -128 Q295 -137 314.5 -139 Q334 -141 361 -141 Q364 -141 369.5 -141 Q375 -141 382 -141 Q389 -140 397 -140 L388 -192 Q376 -197 357 -200.5 Q338 -204 303 -204 Q261 -204 238.5 -188.5 Q216 -173 207 -151 Q198 -129 198.5 -105 Q199 -81 202 -64 L234 114 Z " />
<glyph glyph-name="bar" unicode="&#x7c;" horiz-adv-x="210" d="M197 725 L267 725 L104 -204 L34 -204 L197 725 Z " />
<glyph glyph-name="braceright" unicode="&#x7d;" horiz-adv-x="492" d="M266 -64 Q263 -81 255 -105 Q247 -129 230.5 -151 Q214 -173 186.5 -188.5 Q159 -204 117 -204 Q82 -204 63.5 -200.5 Q45 -197 36 -192 L45 -140 Q53 -140 60 -141 Q67 -141 72.5 -141 Q78 -141 81 -141 Q108 -141 128.5 -139 Q149 -137 163.5 -128 Q178 -119 187 -100.5 Q196 -82 202 -50 L226 90 Q230 113 235.5 137 Q241 161 251.5 182.5 Q262 204 279.5 220.5 Q297 237 325 244 Q300 253 288.5 269.5 Q277 286 274 306.5 Q271 327 273.5 350 Q276 373 280 396 L311 570 Q317 602 314 620.5 Q311 639 299.5 648 Q288 657 268.5 659 Q249 661 222 661 Q219 661 213.5 661 Q208 661 201 661 Q194 660 186 660 L195 712 Q206 717 225.5 720.5 Q245 724 280 724 Q322 724 344.5 708.5 Q367 693 376 671 Q385 649 384 625 Q383 601 380 584 L343 372 Q338 342 346 322 Q354 302 370.5 291 Q387 280 408 275.5 Q429 271 449 271 L469 271 L460 216 L440 216 Q420 216 397 211.5 Q374 207 354 195.5 Q334 184 318.5 164.5 Q303 145 298 114 L266 -64 Z " />
<glyph glyph-name="asciitilde" unicode="&#x7e;" horiz-adv-x="384" d="M337 135 Q320 127 301.5 122.5 Q283 118 268 118 Q251 118 237 124 Q223 130 209.5 136.5 Q196 143 182.5 149 Q169 155 152 155 Q142 155 133.5 154.5 Q125 154 116 151 L105 201 Q122 212 134.5 215 Q147 218 163 218 Q181 218 195.5 212 Q210 206 223.5 199.5 Q237 193 251.5 187 Q266 181 283 181 Q294 181 305.5 182.5 Q317 184 328 189 L337 135 Z " />
<glyph glyph-name="uni00A0" unicode="&#xa0;" horiz-adv-x="199" d="" />
<glyph glyph-name="exclamdown" unicode="&#xa1;" horiz-adv-x="210" d="M157 452 L210 452 L202 357 L138 -6 L68 -6 L132 357 L157 452 Z M167 555 Q170 569 182.5 579.5 Q195 590 209 590 Q223 590 231.5 579.5 Q240 569 237 555 Q235 541 222.5 530.5 Q210 520 196 520 Q182 520 173.5 530.5 Q165 541 167 555 Z " />
<glyph glyph-name="cent" unicode="&#xa2;" horiz-adv-x="605" d="M516 93 Q523 81 529 68.5 Q535 56 541 45 Q503 21 461 8.5 Q419 -4 381 -6 L361 -124 L292 -124 L313 -2 Q274 4 234 22.5 Q194 41 164.5 77 Q135 113 122 169 Q109 225 123 306 Q136 378 165 430 Q194 482 234 516 Q274 550 321.5 568 Q369 586 418 592 L443 736 L512 736 L487 594 Q526 592 563 580 Q600 568 631 545 L587 497 Q557 514 523 522 Q489 530 457 530 Q417 530 375.5 521 Q334 512 297.5 487 Q261 462 233 418 Q205 374 193 303 Q179 222 193.5 174 Q208 126 237 100.5 Q266 75 304 67 Q342 59 374 59 Q409 59 444.5 67 Q480 75 516 93 Z " />
<glyph glyph-name="sterling" unicode="&#xa3;" horiz-adv-x="573" d="M264 312 L377 312 L365 249 L252 249 L220 63 L514 63 L503 0 L70 0 L81 63 L150 63 L182 249 L113 249 L125 312 L194 312 L210 403 Q221 466 250 503.5 Q279 541 314.5 561.5 Q350 582 387 588.5 Q424 595 451 595 Q493 595 529 588 Q565 581 591 565 Q582 549 576.5 537.5 Q571 526 562 511 Q529 524 497 527 Q465 530 445 530 Q426 530 401 528 Q376 526 352 514 Q328 502 308 476 Q288 450 280 403 L264 312 Z " />
<glyph glyph-name="currency" unicode="&#xa4;" horiz-adv-x="502" d="M424 208 Q422 197 416.5 179.5 Q411 162 397 142 L447 88 L406 49 L357 102 Q328 84 305 78 Q282 72 263 72 Q244 72 223 78 Q202 84 179 102 L112 49 L85 88 L155 142 Q147 162 147.5 179.5 Q148 197 150 208 Q152 219 157.5 236.5 Q163 254 178 274 L127 328 L168 367 L217 314 Q246 332 269 338 Q292 344 311 344 Q330 344 351 338 Q372 332 395 314 L462 367 L489 328 L420 274 Q428 254 427 236.5 Q426 219 424 208 Z M208 208 Q202 174 221.5 152 Q241 130 273 130 Q305 130 332.5 152 Q360 174 366 208 Q372 242 352.5 264 Q333 286 301 286 Q269 286 241.5 264 Q214 242 208 208 Z " />
<glyph glyph-name="yen" unicode="&#xa5;" horiz-adv-x="647" d="M216 251 L304 251 L174 590 L252 590 L372 281 L603 590 L681 590 L431 251 L519 251 L508 188 L391 188 L381 135 L498 135 L487 72 L370 72 L358 0 L289 0 L301 72 L184 72 L195 135 L312 135 L322 188 L205 188 L216 251 Z " />
<glyph glyph-name="brokenbar" unicode="&#xa6;" horiz-adv-x="210" d="M197 724 L267 724 L195 317 L125 317 L197 724 Z M105 203 L175 203 L104 -204 L34 -204 L105 203 Z " />
<glyph glyph-name="section" unicode="&#xa7;" horiz-adv-x="499" d="M362 595 Q407 595 437 589.5 Q467 584 484 576 L474 519 Q452 522 433 525 Q414 527 397.5 528.5 Q381 530 371 530 Q308 530 279 522 Q250 514 245 488 Q242 472 259.5 459 Q277 446 305 434 Q333 422 365.5 409.5 Q398 397 425.5 381 Q453 365 469.5 344.5 Q486 324 481 296 Q468 219 383 191 Q407 176 420.5 157 Q434 138 429 112 Q419 54 369.5 24 Q320 -6 235 -6 Q187 -6 149 2.5 Q111 11 91 21 L102 81 Q131 75 158 70 Q183 66 205.5 62.5 Q228 59 242 59 Q258 59 277 60 Q296 61 313 64.5 Q330 68 342 76.5 Q354 85 357 100 Q360 117 342.5 129.5 Q325 142 297 154.5 Q269 167 236.5 180 Q204 193 177 210 Q150 227 134 249.5 Q118 272 123 303 Q130 341 157 364 Q184 387 221 398 Q197 415 183 436.5 Q169 458 174 487 Q180 517 198.5 538 Q217 559 243.5 571.5 Q270 584 301 589.5 Q332 595 362 595 Z M409 284 Q412 301 400.5 313.5 Q389 326 371 333.5 Q353 341 333 344.5 Q313 348 299 348 Q284 348 266.5 346 Q249 344 233.5 339 Q218 334 206.5 325.5 Q195 317 193 304 Q191 291 202 280 Q213 269 229.5 260.5 Q246 252 263.5 247.5 Q281 243 293 243 Q309 243 328 244 Q347 245 364 248.5 Q381 252 393.5 260.5 Q406 269 409 284 Z " />
<glyph glyph-name="dieresis" unicode="&#xa8;" horiz-adv-x="349" d="M174 590 L242 590 L230 525 L162 525 L174 590 Z M315 590 L383 590 L371 525 L303 525 L315 590 Z " />
<glyph glyph-name="copyright" unicode="&#xa9;" horiz-adv-x="741" d="M474 596 Q537 596 587.5 572.5 Q638 549 672 508 Q706 467 719.5 412 Q733 357 722 294 Q711 233 678 178.5 Q645 124 597 83 Q549 42 490 18.5 Q431 -5 368 -5 Q307 -5 256.5 18.5 Q206 42 172 83 Q138 124 124 178.5 Q110 233 121 294 Q132 357 165.5 412 Q199 467 247 508 Q295 549 354 572.5 Q413 596 474 596 Z M379 60 Q427 60 473.5 79.5 Q520 99 558.5 131 Q597 163 623.5 205.5 Q650 248 658 294 Q667 342 655 385 Q643 428 616 460.5 Q589 493 549.5 512.5 Q510 532 462 532 Q416 532 370.5 512.5 Q325 493 286.5 460.5 Q248 428 221.5 385 Q195 342 186 294 Q178 248 190 205.5 Q202 163 228.5 131 Q255 99 294 79.5 Q333 60 379 60 Z M503 208 Q472 196 452 193 Q432 190 415 190 Q399 190 381 193.5 Q363 197 349.5 208.5 Q336 220 329.5 242.5 Q323 265 330 302 Q336 336 350 356 Q364 376 381 387 Q398 398 417.5 401.5 Q437 405 453 405 Q467 405 488 401.5 Q509 398 535 387 L569 437 Q537 460 506.5 464 Q476 468 453 468 Q429 468 399 458.5 Q369 449 341 429 Q313 409 292 377 Q271 345 263 301 Q254 250 265 216.5 Q276 183 297 163 Q318 143 344.5 135 Q371 127 393 127 Q419 127 451 130.5 Q483 134 519 156 L503 208 Z " />
<glyph glyph-name="ordfeminine" unicode="&#xaa;" horiz-adv-x="403" d="M384 290 L331 290 L330 315 Q300 293 276 289.5 Q252 286 239 286 Q233 286 214 288.5 Q195 291 176 300.5 Q157 310 143.5 328.5 Q130 347 136 379 Q139 396 147.5 413 Q156 430 170 443.5 Q184 457 205 465 Q226 473 254 473 Q282 473 305 469 Q328 465 354 451 L358 473 Q361 492 361 505 Q361 518 350.5 526.5 Q340 535 316.5 539 Q293 543 251 543 Q223 543 197 540 L205 586 Q217 590 236 592.5 Q255 595 290 595 Q360 595 392.5 568 Q425 541 417 482 L384 290 Z M342 383 Q343 388 342.5 394.5 Q342 401 335.5 406 Q329 411 314 414.5 Q299 418 272 418 Q227 418 212.5 408 Q198 398 194 378 Q193 373 193 366 Q193 359 198.5 353 Q204 347 217.5 343 Q231 339 258 339 Q290 339 314 349.5 Q338 360 342 383 Z " />
<glyph glyph-name="guillemotleft" unicode="&#xab;" horiz-adv-x="548" d="M104 193 Q132 243 157 289.5 Q182 336 210 387 L286 387 L179 193 L219 0 L144 0 L104 193 Z M363 193 Q391 243 416 289.5 Q441 336 469 387 L545 387 L438 193 L478 0 L403 0 L363 193 Z " />
<glyph glyph-name="logicalnot" unicode="&#xac;" horiz-adv-x="500" d="M387 158 L97 158 L108 221 L468 221 L437 40 L367 40 L387 158 Z " />
<glyph glyph-name="uni00AD" unicode="&#xad;" horiz-adv-x="198" d="" />
<glyph glyph-name="registered" unicode="&#xae;" horiz-adv-x="741" d="M474 596 Q537 596 587.5 572.5 Q638 549 672 508 Q706 467 719.5 412 Q733 357 722 294 Q711 233 678 178.5 Q645 124 597 83 Q549 42 490 18.5 Q431 -5 368 -5 Q307 -5 256.5 18.5 Q206 42 172 83 Q138 124 124 178.5 Q110 233 121 294 Q132 357 165.5 412 Q199 467 247 508 Q295 549 354 572.5 Q413 596 474 596 Z M379 60 Q427 60 473.5 79.5 Q520 99 558.5 131 Q597 163 623.5 205.5 Q650 248 658 294 Q667 342 655 385 Q643 428 616 460.5 Q589 493 549.5 512.5 Q510 532 462 532 Q416 532 370.5 512.5 Q325 493 286.5 460.5 Q248 428 221.5 385 Q195 342 186 294 Q178 248 190 205.5 Q202 163 228.5 131 Q255 99 294 79.5 Q333 60 379 60 Z M553 352 Q548 326 530.5 304 Q513 282 487 275 Q502 265 506.5 248 Q511 231 515 210 L524 142 L454 142 L443 201 Q438 224 420.5 233.5 Q403 243 391 243 L357 243 L340 142 L273 142 L328 457 L467 457 Q484 457 501.5 451.5 Q519 446 532 433.5 Q545 421 551.5 401 Q558 381 553 352 Z M447 322 Q458 322 470 329 Q482 336 487 360 Q490 376 480.5 385 Q471 394 460 394 L384 394 L371 322 L447 322 Z " />
<glyph glyph-name="macron" unicode="&#xaf;" horiz-adv-x="445" d="M162 526 L174 590 L479 590 L467 526 L162 526 Z " />
<glyph glyph-name="degree" unicode="&#xb0;" horiz-adv-x="374" d="M261 420 Q282 420 302 435 Q322 450 327 480 Q332 509 317.5 524.5 Q303 540 282 540 Q261 540 240.5 524.5 Q220 509 215 480 Q210 450 225 435 Q240 420 261 420 Z M251 365 Q224 365 204 374.5 Q184 384 171.5 399.5 Q159 415 154.5 436 Q150 457 154 480 Q158 503 170 524 Q182 545 200 561 Q218 577 241 586 Q264 595 291 595 Q318 595 338 586 Q358 577 370.5 561 Q383 545 387.5 524 Q392 503 388 480 Q384 457 372 436 Q360 415 342 399.5 Q324 384 301 374.5 Q278 365 251 365 Z " />
<glyph glyph-name="plusminus" unicode="&#xb1;" horiz-adv-x="456" d="M317 310 L440 310 L429 247 L306 247 L285 127 L215 127 L236 247 L113 247 L124 310 L247 310 L268 430 L338 430 L317 310 Z M81 63 L397 63 L386 0 L70 0 L81 63 Z " />
<glyph glyph-name="twosuperior" unicode="&#xb2;" horiz-adv-x="352" d="M129 335 Q134 362 161.5 383 Q189 404 221 423 Q253 442 280.5 460.5 Q308 479 312 502 Q315 517 311 525.5 Q307 534 299 538 Q291 542 279.5 542.5 Q268 543 256 543 Q238 543 217 539.5 Q196 536 178 531 L187 580 Q207 589 227 592 Q247 595 277 595 Q298 595 317 591.5 Q336 588 349.5 577.5 Q363 567 369 549 Q375 531 370 502 Q364 471 337 444.5 Q310 418 279 397.5 Q248 377 222 362.5 Q196 348 191 340 L334 340 L325 288 L120 288 L129 335 Z " />
<glyph glyph-name="threesuperior" unicode="&#xb3;" horiz-adv-x="342" d="M247 460 Q273 460 285 467 Q297 474 302 500 Q305 515 299.5 523.5 Q294 532 283.5 536.5 Q273 541 259.5 542 Q246 543 232 543 L224 543 Q206 543 191.5 540.5 Q177 538 164 535 L173 586 Q187 591 206 593 Q225 595 258 595 Q273 595 293 592 Q313 589 329.5 579 Q346 569 355.5 550 Q365 531 360 500 Q358 487 348 468 Q338 449 303 433 Q318 426 325.5 416 Q333 406 335.5 395.5 Q338 385 337 376 Q336 367 335 362 Q329 328 296 305.5 Q263 283 206 283 Q150 283 121 291 L130 343 Q144 339 162 337 Q180 335 206 335 Q233 335 253.5 339.5 Q274 344 279 370 Q284 398 270 403 Q256 408 227 408 L200 408 Q205 423 207.5 435 Q210 447 214 460 L247 460 Z " />
<glyph glyph-name="acute" unicode="&#xb4;" horiz-adv-x="267" d="M219 470 L152 470 L225 590 L301 590 L219 470 Z " />
<glyph glyph-name="mu" unicode="&#xb5;" horiz-adv-x="492" d="M131 405 L201 405 L156 151 Q151 124 157.5 106.5 Q164 89 176.5 78.5 Q189 68 205.5 63.5 Q222 59 237 59 Q270 59 296.5 72.5 Q323 86 342 102 Q364 121 382 145 L428 405 L498 405 L427 0 L366 0 L366 60 Q342 35 318 21.5 Q294 8 272 2 Q250 -4 232.5 -5 Q215 -6 204 -6 Q164 -6 132 17 L95 -195 L25 -195 L131 405 Z " />
<glyph glyph-name="paragraph" unicode="&#xb6;" horiz-adv-x="598" d="M528 0 L458 0 L550 527 L390 527 L298 0 L228 0 L281 304 Q245 304 218 316 Q191 328 173.5 347 Q156 366 149.5 390.5 Q143 415 147 440 Q152 464 166 490.5 Q180 517 202 539 Q224 561 253 575.5 Q282 590 316 590 L632 590 L528 0 Z " />
<glyph glyph-name="periodcentered" unicode="&#xb7;" horiz-adv-x="208" d="M106 205 L174 205 L162 140 L94 140 L106 205 Z " />
<glyph glyph-name="cedilla" unicode="&#xb8;" horiz-adv-x="267" d="M128 -6 L195 -6 L123 -126 L47 -126 L128 -6 Z " />
<glyph glyph-name="onesuperior" unicode="&#xb9;" horiz-adv-x="292" d="M165 544 L268 590 L326 590 L273 290 L215 290 L256 526 L154 478 L165 544 Z " />
<glyph glyph-name="ordmasculine" unicode="&#xba;" horiz-adv-x="374" d="M261 420 Q282 420 302 435 Q322 450 327 480 Q332 509 317.5 524.5 Q303 540 282 540 Q261 540 240.5 524.5 Q220 509 215 480 Q210 450 225 435 Q240 420 261 420 Z M251 365 Q224 365 204 374.5 Q184 384 171.5 399.5 Q159 415 154.5 436 Q150 457 154 480 Q158 503 170 524 Q182 545 200 561 Q218 577 241 586 Q264 595 291 595 Q318 595 338 586 Q358 577 370.5 561 Q383 545 387.5 524 Q392 503 388 480 Q384 457 372 436 Q360 415 342 399.5 Q324 384 301 374.5 Q278 365 251 365 Z " />
<glyph glyph-name="guillemotright" unicode="&#xbb;" horiz-adv-x="548" d="M404 0 L329 0 L437 193 L398 387 L474 387 Q484 336 492.5 289.5 Q501 243 512 193 L404 0 Z M145 0 L70 0 L178 193 L139 387 L215 387 Q225 336 233.5 289.5 Q242 243 253 193 L145 0 Z " />
<glyph glyph-name="onequarter" unicode="&#xbc;" horiz-adv-x="712" d="M165 544 L268 590 L326 590 L273 290 L215 290 L256 526 L154 478 L165 544 Z M188 0 L245 0 L576 590 L517 590 L188 0 Z M546 62 L382 62 L394 125 L559 319 L650 319 L614 114 L652 114 L642 62 L604 62 L594 0 L536 0 L546 62 Z M556 114 L583 268 L454 114 L556 114 Z " />
<glyph glyph-name="onehalf" unicode="&#xbd;" horiz-adv-x="705" d="M431 47 Q436 74 463.5 95 Q491 116 523 135 Q555 154 582.5 172.5 Q610 191 614 214 Q617 229 613 237.5 Q609 246 601 250 Q593 254 581.5 254.5 Q570 255 558 255 Q540 255 519 251.5 Q498 248 480 243 L489 292 Q509 301 529.5 304 Q550 307 580 307 Q601 307 620 303.5 Q639 300 652.5 289.5 Q666 279 671.5 261 Q677 243 672 214 Q667 183 640 156.5 Q613 130 582 109.5 Q551 89 524.5 74.5 Q498 60 494 52 L637 52 L628 0 L423 0 L431 47 Z M165 544 L268 590 L326 590 L273 290 L215 290 L256 526 L154 478 L165 544 Z M188 0 L245 0 L576 590 L517 590 L188 0 Z " />
<glyph glyph-name="threequarters" unicode="&#xbe;" horiz-adv-x="727" d="M246 455 Q272 455 284 462 Q296 469 301 495 Q304 510 298.5 518.5 Q293 527 282.5 531.5 Q272 536 258.5 537 Q245 538 231 538 L223 538 Q205 538 190.5 535.5 Q176 533 163 530 L172 581 Q186 586 205.5 588 Q225 590 258 590 Q273 590 293 587 Q313 584 329.5 574 Q346 564 355 545 Q364 526 359 495 Q357 482 347 463 Q337 444 302 428 Q318 421 325.5 411 Q333 401 335 390.5 Q337 380 336 371 Q335 362 334 357 Q329 323 296 300.5 Q263 278 206 278 Q149 278 120 286 L129 338 Q143 334 161 332 Q179 330 205 330 Q232 330 252.5 334.5 Q273 339 278 365 Q283 393 269.5 398 Q256 403 227 403 L200 403 Q204 418 206.5 430 Q209 442 213 455 L246 455 Z M212 0 L269 0 L600 590 L541 590 L212 0 Z M571 62 L407 62 L419 125 L584 319 L675 319 L639 114 L677 114 L667 62 L629 62 L619 0 L561 0 L571 62 Z M581 114 L608 268 L479 114 L581 114 Z " />
<glyph glyph-name="questiondown" unicode="&#xbf;" horiz-adv-x="510" d="M386 301 Q331 287 291.5 273.5 Q252 260 226 244 Q200 228 186.5 208.5 Q173 189 168 163 Q162 127 174 107 Q186 87 206.5 78 Q227 69 251 67 Q275 65 292 65 Q330 65 375 72 Q420 79 455 87 L444 28 Q422 18 384 9 Q346 0 273 0 Q243 0 208.5 6.5 Q174 13 146.5 30.5 Q119 48 104 79.5 Q89 111 98 160 Q102 182 112.5 208.5 Q123 235 147.5 261 Q172 287 214.5 310 Q257 333 324 349 L347 479 L417 479 L386 301 Z M431 561 Q429 545 417 535 Q405 525 391 525 Q375 525 367 535 Q359 545 361 561 Q364 575 375.5 585 Q387 595 403 595 Q417 595 425.5 585 Q434 575 431 561 Z " />
<glyph glyph-name="Agrave" unicode="&#xc0;" horiz-adv-x="598" d="M568 0 L493 0 L465 144 L183 144 L105 0 L30 0 L356 590 L450 590 L568 0 Z M450 208 L390 518 L220 208 L450 208 Z M341 777 L417 777 L446 657 L379 657 L341 777 Z " />
<glyph glyph-name="Aacute" unicode="&#xc1;" horiz-adv-x="598" d="M356 590 L450 590 L568 0 L493 0 L465 144 L183 144 L105 0 L30 0 L356 590 Z M450 208 L390 518 L220 208 L450 208 Z M449 657 L382 657 L455 777 L531 777 L449 657 Z " />
<glyph glyph-name="Acircumflex" unicode="&#xc2;" horiz-adv-x="598" d="M356 590 L450 590 L568 0 L493 0 L465 144 L183 144 L105 0 L30 0 L356 590 Z M450 208 L390 518 L220 208 L450 208 Z M470 780 L523 657 L454 657 L427 730 L375 657 L306 657 L403 780 L470 780 Z " />
<glyph glyph-name="Atilde" unicode="&#xc3;" horiz-adv-x="598" d="M356 590 L450 590 L568 0 L493 0 L465 144 L183 144 L105 0 L30 0 L356 590 Z M450 208 L390 518 L220 208 L450 208 Z M539 674 Q522 666 503.5 661.5 Q485 657 470 657 Q453 657 439 663 Q425 669 411.5 675.5 Q398 682 384.5 688 Q371 694 354 694 Q344 694 335.5 693.5 Q327 693 318 690 L307 740 Q324 751 336.5 754 Q349 757 365 757 Q383 757 397.5 751 Q412 745 425.5 738.5 Q439 732 453.5 726 Q468 720 485 720 Q496 720 507.5 721.5 Q519 723 530 728 L539 674 Z " />
<glyph glyph-name="Adieresis" unicode="&#xc4;" horiz-adv-x="598" d="M356 590 L450 590 L568 0 L493 0 L465 144 L183 144 L105 0 L30 0 L356 590 Z M450 208 L390 518 L220 208 L450 208 Z M322 722 L390 722 L378 657 L310 657 L322 722 Z M463 722 L531 722 L519 657 L451 657 L463 722 Z " />
<glyph glyph-name="Aring" unicode="&#xc5;" horiz-adv-x="598" d="M356 590 L450 590 L568 0 L493 0 L465 144 L183 144 L105 0 L30 0 L356 590 Z M450 208 L390 518 L220 208 L450 208 Z M424 712 Q445 712 465.5 727 Q486 742 491 772 Q496 801 481 816.5 Q466 832 445 832 Q424 832 404 816.5 Q384 801 379 772 Q374 742 388.5 727 Q403 712 424 712 Z M414 657 Q360 657 335 691.5 Q310 726 318 772 Q322 795 334 816 Q346 837 364 853 Q382 869 405 878 Q428 887 455 887 Q482 887 502 878 Q522 869 534.5 853 Q547 837 551.5 816 Q556 795 552 772 Q548 749 536 728 Q524 707 506 691.5 Q488 676 464.5 666.5 Q441 657 414 657 Z " />
<glyph glyph-name="AE" unicode="&#xc6;" horiz-adv-x="992" d="M707 528 L672 330 L932 330 L921 267 L661 267 L625 63 L943 63 L932 0 L544 0 L569 144 L260 144 L120 0 L31 0 L606 590 L1036 590 L1025 528 L707 528 Z M580 208 L637 530 L322 208 L580 208 Z " />
<glyph glyph-name="Ccedilla" unicode="&#xc7;" horiz-adv-x="550" d="M432 530 Q392 530 350.5 521 Q309 512 272.5 487 Q236 462 208 418 Q180 374 168 303 Q154 222 168.5 174 Q183 126 212 100.5 Q241 75 279 67 Q317 59 349 59 Q384 59 419.5 67 Q455 75 491 93 Q498 81 504 68.5 Q510 56 516 45 Q473 18 426.5 6 Q380 -6 339 -6 Q299 -6 249.5 7 Q200 20 161 54.5 Q122 89 101.5 149.5 Q81 210 98 306 Q113 388 148 443.5 Q183 499 230.5 532.5 Q278 566 333.5 580.5 Q389 595 444 595 Q487 595 529 582.5 Q571 570 606 545 L562 497 Q532 514 498 522 Q464 530 432 530 Z M288 -64 L355 -64 L283 -184 L207 -184 L288 -64 Z " />
<glyph glyph-name="Egrave" unicode="&#xc8;" horiz-adv-x="518" d="M233 528 L198 330 L458 330 L447 267 L187 267 L151 63 L469 63 L458 0 L70 0 L174 590 L562 590 L551 528 L233 528 Z M313 777 L389 777 L418 657 L351 657 L313 777 Z " />
<glyph glyph-name="Eacute" unicode="&#xc9;" horiz-adv-x="518" d="M233 528 L198 330 L458 330 L447 267 L187 267 L151 63 L469 63 L458 0 L70 0 L174 590 L562 590 L551 528 L233 528 Z M423 657 L356 657 L429 777 L505 777 L423 657 Z " />
<glyph glyph-name="Ecircumflex" unicode="&#xca;" horiz-adv-x="518" d="M233 528 L198 330 L458 330 L447 267 L187 267 L151 63 L469 63 L458 0 L70 0 L174 590 L562 590 L551 528 L233 528 Z M432 780 L485 657 L416 657 L389 730 L337 657 L268 657 L365 780 L432 780 Z " />
<glyph glyph-name="Edieresis" unicode="&#xcb;" horiz-adv-x="518" d="M233 528 L198 330 L458 330 L447 267 L187 267 L151 63 L469 63 L458 0 L70 0 L174 590 L562 590 L551 528 L233 528 Z M283 722 L351 722 L339 657 L271 657 L283 722 Z M424 722 L492 722 L480 657 L412 657 L424 722 Z " />
<glyph glyph-name="Igrave" unicode="&#xcc;" horiz-adv-x="210" d="M174 590 L244 590 L140 0 L70 0 L174 590 Z M147 777 L223 777 L252 657 L185 657 L147 777 Z " />
<glyph glyph-name="Iacute" unicode="&#xcd;" horiz-adv-x="210" d="M140 0 L70 0 L174 590 L244 590 L140 0 Z M255 657 L188 657 L261 777 L337 777 L255 657 Z " />
<glyph glyph-name="Icircumflex" unicode="&#xce;" horiz-adv-x="210" d="M174 590 L244 590 L140 0 L70 0 L174 590 Z M276 780 L329 657 L260 657 L233 730 L181 657 L112 657 L209 780 L276 780 Z " />
<glyph glyph-name="Idieresis" unicode="&#xcf;" horiz-adv-x="210" d="M174 590 L244 590 L140 0 L70 0 L174 590 Z M139 722 L207 722 L195 657 L127 657 L139 722 Z M256 722 L324 722 L312 657 L244 657 L256 722 Z " />
<glyph glyph-name="Eth" unicode="&#xd0;" horiz-adv-x="640" d="M639 307 Q623 214 585 154.5 Q547 95 500 60.5 Q453 26 403.5 13 Q354 0 314 0 L114 0 L159 259 L75 259 L86 322 L170 322 L218 590 L406 590 Q454 590 501.5 575.5 Q549 561 584 528 Q619 495 636 441 Q653 387 639 307 Z M229 259 L195 63 L312 63 Q344 63 383 70 Q422 77 458 102 Q494 127 524 175 Q554 223 568 304 Q579 367 569 410 Q559 453 534 479 Q509 505 473 516.5 Q437 528 397 528 L277 528 L240 322 L390 322 L379 259 L229 259 Z " />
<glyph glyph-name="Ntilde" unicode="&#xd1;" horiz-adv-x="634" d="M226 491 L140 0 L70 0 L174 590 L263 590 L510 92 L598 590 L668 590 L564 0 L473 0 L226 491 Z M554 674 Q537 666 518.5 661.5 Q500 657 485 657 Q468 657 454 663 Q440 669 426.5 675.5 Q413 682 399.5 688 Q386 694 369 694 Q359 694 350.5 693.5 Q342 693 333 690 L322 740 Q339 751 351.5 754 Q364 757 380 757 Q398 757 412.5 751 Q427 745 440.5 738.5 Q454 732 468.5 726 Q483 720 500 720 Q511 720 522.5 721.5 Q534 723 545 728 L554 674 Z " />
<glyph glyph-name="Ograve" unicode="&#xd2;" horiz-adv-x="676" d="M348 59 Q380 59 418.5 67 Q457 75 494 100.5 Q531 126 561 174.5 Q591 223 605 304 Q617 375 606.5 419 Q596 463 570 487.5 Q544 512 507.5 521 Q471 530 431 530 Q391 530 351.5 521 Q312 512 277.5 487.5 Q243 463 216.5 419 Q190 375 178 304 Q164 223 176.5 174.5 Q189 126 216.5 100.5 Q244 75 280 67 Q316 59 348 59 Z M336 -6 Q296 -6 249 7 Q202 20 165 54.5 Q128 89 110 150 Q92 211 109 307 Q123 387 158.5 442 Q194 497 241 531 Q288 565 341 580 Q394 595 442 595 Q490 595 538 580 Q586 565 621 531 Q656 497 672.5 442 Q689 387 675 307 Q658 211 618 150 Q578 89 529 54.5 Q480 20 428.5 7 Q377 -6 336 -6 Z M377 777 L453 777 L482 657 L415 657 L377 777 Z " />
<glyph glyph-name="Oacute" unicode="&#xd3;" horiz-adv-x="676" d="M348 59 Q380 59 418.5 67 Q457 75 493.5 100.5 Q530 126 560 174.5 Q590 223 604 304 Q616 375 605.5 419 Q595 463 569.5 487.5 Q544 512 507.5 521 Q471 530 431 530 Q391 530 351 521 Q311 512 276.5 487.5 Q242 463 215.5 419 Q189 375 177 304 Q163 223 176 174.5 Q189 126 216.5 100.5 Q244 75 280 67 Q316 59 348 59 Z M336 -6 Q296 -6 249 7 Q202 20 165 54.5 Q128 89 110 150 Q92 211 109 307 Q123 387 158.5 442 Q194 497 241 531 Q288 565 341 580 Q394 595 442 595 Q490 595 537.5 580 Q585 565 620.5 531 Q656 497 672.5 442 Q689 387 675 307 Q658 211 618 150 Q578 89 529 54.5 Q480 20 428.5 7 Q377 -6 336 -6 Z M491 657 L424 657 L497 777 L573 777 L491 657 Z " />
<glyph glyph-name="Ocircumflex" unicode="&#xd4;" horiz-adv-x="676" d="M348 59 Q380 59 418.5 67 Q457 75 493.5 100.5 Q530 126 560 174.5 Q590 223 604 304 Q616 375 605.5 419 Q595 463 569.5 487.5 Q544 512 507.5 521 Q471 530 431 530 Q391 530 351 521 Q311 512 276.5 487.5 Q242 463 215.5 419 Q189 375 177 304 Q163 223 176 174.5 Q189 126 216.5 100.5 Q244 75 280 67 Q316 59 348 59 Z M336 -6 Q296 -6 249 7 Q202 20 165 54.5 Q128 89 110 150 Q92 211 109 307 Q123 387 158.5 442 Q194 497 241 531 Q288 565 341 580 Q394 595 442 595 Q490 595 537.5 580 Q585 565 620.5 531 Q656 497 672.5 442 Q689 387 675 307 Q658 211 618 150 Q578 89 529 54.5 Q480 20 428.5 7 Q377 -6 336 -6 Z M509 780 L562 657 L493 657 L466 730 L414 657 L345 657 L442 780 L509 780 Z " />
<glyph glyph-name="Otilde" unicode="&#xd5;" horiz-adv-x="676" d="M348 59 Q380 59 418.5 67 Q457 75 493.5 100.5 Q530 126 560 174.5 Q590 223 604 304 Q616 375 605.5 419 Q595 463 569.5 487.5 Q544 512 507.5 521 Q471 530 431 530 Q391 530 351 521 Q311 512 276.5 487.5 Q242 463 215.5 419 Q189 375 177 304 Q163 223 176 174.5 Q189 126 216.5 100.5 Q244 75 280 67 Q316 59 348 59 Z M336 -6 Q296 -6 249 7 Q202 20 165 54.5 Q128 89 110 150 Q92 211 109 307 Q123 387 158.5 442 Q194 497 241 531 Q288 565 341 580 Q394 595 442 595 Q490 595 537.5 580 Q585 565 620.5 531 Q656 497 672.5 442 Q689 387 675 307 Q658 211 618 150 Q578 89 529 54.5 Q480 20 428.5 7 Q377 -6 336 -6 Z M578 674 Q561 666 542.5 661.5 Q524 657 509 657 Q492 657 478 663 Q464 669 450.5 675.5 Q437 682 423.5 688 Q410 694 393 694 Q383 694 374.5 693.5 Q366 693 357 690 L346 740 Q363 751 375.5 754 Q388 757 404 757 Q422 757 436.5 751 Q451 745 464.5 738.5 Q478 732 492.5 726 Q507 720 524 720 Q535 720 546.5 721.5 Q558 723 569 728 L578 674 Z " />
<glyph glyph-name="Odieresis" unicode="&#xd6;" horiz-adv-x="676" d="M348 59 Q380 59 418.5 67 Q457 75 493.5 100.5 Q530 126 560 174.5 Q590 223 604 304 Q616 375 605.5 419 Q595 463 569.5 487.5 Q544 512 507.5 521 Q471 530 431 530 Q391 530 351 521 Q311 512 276.5 487.5 Q242 463 215.5 419 Q189 375 177 304 Q163 223 176 174.5 Q189 126 216.5 100.5 Q244 75 280 67 Q316 59 348 59 Z M336 -6 Q296 -6 249 7 Q202 20 165 54.5 Q128 89 110 150 Q92 211 109 307 Q123 387 158.5 442 Q194 497 241 531 Q288 565 341 580 Q394 595 442 595 Q490 595 537.5 580 Q585 565 620.5 531 Q656 497 672.5 442 Q689 387 675 307 Q658 211 618 150 Q578 89 529 54.5 Q480 20 428.5 7 Q377 -6 336 -6 Z M361 722 L429 722 L417 657 L349 657 L361 722 Z M502 722 L570 722 L558 657 L490 657 L502 722 Z " />
<glyph glyph-name="multiply" unicode="&#xd7;" horiz-adv-x="406" d="M162 52 L80 52 L193 192 L128 333 L212 333 L247 254 L310 333 L394 333 L279 192 L344 52 L262 52 L225 130 L162 52 Z " />
<glyph glyph-name="Oslash" unicode="&#xd8;" horiz-adv-x="676" d="M572 566 Q601 552 624 529.5 Q647 507 661 475 Q675 443 679.5 401.5 Q684 360 675 307 Q658 211 618 150 Q578 89 529 54.5 Q480 20 428.5 7 Q377 -6 336 -6 Q303 -6 271 1 L220 -91 L147 -91 L210 23 Q182 37 159 60.5 Q136 84 121 118.5 Q106 153 102 199.5 Q98 246 109 307 Q123 387 158.5 442 Q194 497 241 531 Q288 565 341 580 Q394 595 442 595 Q479 595 510 588 L557 673 L630 673 L572 566 Z M348 59 Q380 59 418.5 67 Q457 75 494 100.5 Q531 126 561 174.5 Q591 223 605 304 Q617 375 606.5 419 Q596 463 570 487.5 Q544 512 507.5 521 Q471 530 431 530 Q391 530 351.5 521 Q312 512 277.5 487.5 Q243 463 216.5 419 Q190 375 178 304 Q164 223 176.5 174.5 Q189 126 216.5 100.5 Q244 75 280 67 Q316 59 348 59 Z " />
<glyph glyph-name="Ugrave" unicode="&#xd9;" horiz-adv-x="614" d="M305 -6 Q266 -6 225.5 4.5 Q185 15 156 44 Q127 73 114 126 Q101 179 116 266 L174 590 L244 590 L188 277 Q177 212 183.5 170 Q190 128 208.5 103 Q227 78 255.5 68.5 Q284 59 317 59 Q350 59 382 68.5 Q414 78 441.5 103 Q469 128 490 170 Q511 212 522 277 L578 590 L648 590 L590 266 Q575 179 543.5 126 Q512 73 472.5 44 Q433 15 389 4.5 Q345 -6 305 -6 Z M348 777 L424 777 L453 657 L386 657 L348 777 Z " />
<glyph glyph-name="Uacute" unicode="&#xda;" horiz-adv-x="614" d="M305 -6 Q266 -6 225.5 4.5 Q185 15 156 44 Q127 73 114 126 Q101 179 116 266 L174 590 L244 590 L188 277 Q177 212 183.5 170 Q190 128 208.5 103 Q227 78 255.5 68.5 Q284 59 317 59 Q350 59 382 68.5 Q414 78 441.5 103 Q469 128 490 170 Q511 212 522 277 L578 590 L648 590 L590 266 Q575 179 543.5 126 Q512 73 472.5 44 Q433 15 389 4.5 Q345 -6 305 -6 Z M458 657 L391 657 L464 777 L540 777 L458 657 Z " />
<glyph glyph-name="Ucircumflex" unicode="&#xdb;" horiz-adv-x="614" d="M305 -6 Q266 -6 225.5 4.5 Q185 15 156 44 Q127 73 114 126 Q101 179 116 266 L174 590 L244 590 L188 277 Q177 212 183.5 170 Q190 128 208.5 103 Q227 78 255.5 68.5 Q284 59 317 59 Q350 59 382 68.5 Q414 78 441.5 103 Q469 128 490 170 Q511 212 522 277 L578 590 L648 590 L590 266 Q575 179 543.5 126 Q512 73 472.5 44 Q433 15 389 4.5 Q345 -6 305 -6 Z M478 780 L531 657 L462 657 L435 730 L383 657 L314 657 L411 780 L478 780 Z " />
<glyph glyph-name="Udieresis" unicode="&#xdc;" horiz-adv-x="614" d="M305 -6 Q266 -6 225.5 4.5 Q185 15 156 44 Q127 73 114 126 Q101 179 116 266 L174 590 L244 590 L188 277 Q177 212 183.5 170 Q190 128 208.5 103 Q227 78 255.5 68.5 Q284 59 317 59 Q350 59 382 68.5 Q414 78 441.5 103 Q469 128 490 170 Q511 212 522 277 L578 590 L648 590 L590 266 Q575 179 543.5 126 Q512 73 472.5 44 Q433 15 389 4.5 Q345 -6 305 -6 Z M330 722 L398 722 L386 657 L318 657 L330 722 Z M471 722 L539 722 L527 657 L459 657 L471 722 Z " />
<glyph glyph-name="Yacute" unicode="&#xdd;" horiz-adv-x="557" d="M313 0 L244 0 L279 199 L129 590 L207 590 L327 281 L558 590 L636 590 L348 199 L313 0 Z M435 657 L368 657 L441 777 L517 777 L435 657 Z " />
<glyph glyph-name="Thorn" unicode="&#xde;" horiz-adv-x="555" d="M169 590 L239 590 L221 489 L428 489 Q458 489 487.5 478.5 Q517 468 539 445.5 Q561 423 571 387 Q581 351 572 300 Q562 239 538.5 200 Q515 161 486 138.5 Q457 116 424.5 107 Q392 98 362 98 L152 98 L135 0 L65 0 L169 590 Z M209 425 L163 162 L366 162 Q386 162 406.5 167 Q427 172 446 186.5 Q465 201 479.5 228 Q494 255 502 300 Q509 339 503.5 363 Q498 387 484.5 401 Q471 415 452 420 Q433 425 412 425 L209 425 Z " />
<glyph glyph-name="germandbls" unicode="&#xdf;" horiz-adv-x="557" d="M401 595 Q434 595 466 588 Q498 581 521.5 562 Q545 543 556 510 Q567 477 558 424 Q556 411 552 396 Q548 381 539 365 Q530 349 515 331 Q500 313 475 293 Q505 285 521.5 273 Q538 261 544.5 245 Q551 229 550.5 209 Q550 189 546 165 Q540 129 524.5 98.5 Q509 68 482 46.5 Q455 25 413.5 12.5 Q372 0 313 0 L277 0 L288 65 L326 65 Q346 65 369.5 68 Q393 71 415 83 Q437 95 454 117.5 Q471 140 478 179 Q483 208 473.5 224 Q464 240 446.5 247.5 Q429 255 406.5 256 Q384 257 364 257 L265 257 L292 322 L342 322 Q362 322 385 324.5 Q408 327 429 337 Q450 347 466 367 Q482 387 488 422 Q494 454 485.5 475 Q477 496 461 508 Q445 520 423.5 525 Q402 530 381 530 L374 530 Q337 530 308.5 523 Q280 516 258 494 Q236 472 219.5 430.5 Q203 389 191 320 L135 0 L65 0 L123 334 Q140 428 168 480.5 Q196 533 231 558.5 Q266 584 306.5 589.5 Q347 595 387 595 L401 595 Z " />
<glyph glyph-name="agrave" unicode="&#xe0;" horiz-adv-x="479" d="M414 0 L348 0 L349 48 Q328 28 303 17 Q278 6 254.5 1 Q231 -4 211.5 -5 Q192 -6 182 -6 L169 -6 Q162 -6 142 -2.5 Q122 1 102.5 14 Q83 27 70.5 53 Q58 79 66 124 Q71 148 82.5 170.5 Q94 193 114.5 210 Q135 227 166 237 Q197 247 239 247 Q262 247 295 241 Q328 235 379 204 L387 244 Q391 266 387 285 Q383 304 367 317.5 Q351 331 320.5 338.5 Q290 346 239 346 Q222 346 198.5 343 Q175 340 146 335 L156 392 Q179 400 207.5 405.5 Q236 411 290 411 Q383 411 425.5 369 Q468 327 457 247 L414 0 Z M368 139 Q356 151 339 161 Q324 169 302.5 175.5 Q281 182 251 182 Q218 182 196.5 177.5 Q175 173 162.5 165 Q150 157 144 146 Q138 135 136 121 Q131 93 150 76 Q169 59 229 59 Q264 59 289.5 66.5 Q315 74 331 83 Q350 94 362 107 L368 139 Z M254 591 L330 591 L360 471 L293 471 L254 591 Z " />
<glyph glyph-name="aacute" unicode="&#xe1;" horiz-adv-x="479" d="M414 0 L348 0 L349 48 Q328 28 303 17 Q278 6 254.5 1 Q231 -4 211.5 -5 Q192 -6 182 -6 L169 -6 Q162 -6 142 -2.5 Q122 1 102.5 14 Q83 27 70.5 53 Q58 79 66 124 Q71 148 82.5 170.5 Q94 193 114.5 210 Q135 227 166 237 Q197 247 239 247 Q262 247 295 241 Q328 235 379 204 L387 244 Q391 266 387 285 Q383 304 367 317.5 Q351 331 320.5 338.5 Q290 346 239 346 Q222 346 198.5 343 Q175 340 146 335 L156 392 Q179 400 207.5 405.5 Q236 411 290 411 Q383 411 425.5 369 Q468 327 457 247 L414 0 Z M368 139 Q356 151 339 161 Q324 169 302.5 175.5 Q281 182 251 182 Q218 182 196.5 177.5 Q175 173 162.5 165 Q150 157 144 146 Q138 135 136 121 Q131 93 150 76 Q169 59 229 59 Q264 59 289.5 66.5 Q315 74 331 83 Q350 94 362 107 L368 139 Z M341 471 L274 471 L346 591 L422 591 L341 471 Z " />
<glyph glyph-name="acircumflex" unicode="&#xe2;" horiz-adv-x="479" d="M414 0 L348 0 L349 48 Q328 28 303 17 Q278 6 254.5 1 Q231 -4 211.5 -5 Q192 -6 182 -6 L169 -6 Q162 -6 142 -2.5 Q122 1 102.5 14 Q83 27 70.5 53 Q58 79 66 124 Q71 148 82.5 170.5 Q94 193 114.5 210 Q135 227 166 237 Q197 247 239 247 Q262 247 295 241 Q328 235 379 204 L387 244 Q391 266 387 285 Q383 304 367 317.5 Q351 331 320.5 338.5 Q290 346 239 346 Q222 346 198.5 343 Q175 340 146 335 L156 392 Q179 400 207.5 405.5 Q236 411 290 411 Q383 411 425.5 369 Q468 327 457 247 L414 0 Z M368 139 Q356 151 339 161 Q324 169 302.5 175.5 Q281 182 251 182 Q218 182 196.5 177.5 Q175 173 162.5 165 Q150 157 144 146 Q138 135 136 121 Q131 93 150 76 Q169 59 229 59 Q264 59 289.5 66.5 Q315 74 331 83 Q350 94 362 107 L368 139 Z M383 594 L437 471 L368 471 L340 544 L289 471 L220 471 L316 594 L383 594 Z " />
<glyph glyph-name="atilde" unicode="&#xe3;" horiz-adv-x="479" d="M414 0 L348 0 L349 48 Q328 28 303 17 Q278 6 254.5 1 Q231 -4 211.5 -5 Q192 -6 182 -6 L169 -6 Q162 -6 142 -2.5 Q122 1 102.5 14 Q83 27 70.5 53 Q58 79 66 124 Q71 148 82.5 170.5 Q94 193 114.5 210 Q135 227 166 237 Q197 247 239 247 Q262 247 295 241 Q328 235 379 204 L387 244 Q391 266 387 285 Q383 304 367 317.5 Q351 331 320.5 338.5 Q290 346 239 346 Q222 346 198.5 343 Q175 340 146 335 L156 392 Q179 400 207.5 405.5 Q236 411 290 411 Q383 411 425.5 369 Q468 327 457 247 L414 0 Z M368 139 Q356 151 339 161 Q324 169 302.5 175.5 Q281 182 251 182 Q218 182 196.5 177.5 Q175 173 162.5 165 Q150 157 144 146 Q138 135 136 121 Q131 93 150 76 Q169 59 229 59 Q264 59 289.5 66.5 Q315 74 331 83 Q350 94 362 107 L368 139 Z M453 488 Q436 480 417.5 475.5 Q399 471 384 471 Q367 471 353 477 Q339 483 325.5 489.5 Q312 496 298 502 Q284 508 267 508 Q257 508 248.5 507.5 Q240 507 231 504 L220 554 Q237 565 249.5 568 Q262 571 278 571 Q296 571 310.5 565 Q325 559 339 552.5 Q353 546 367.5 540 Q382 534 399 534 Q410 534 421 535.5 Q432 537 443 542 L453 488 Z " />
<glyph glyph-name="adieresis" unicode="&#xe4;" horiz-adv-x="479" d="M414 0 L348 0 L349 48 Q328 28 303 17 Q278 6 254.5 1 Q231 -4 211.5 -5 Q192 -6 182 -6 L169 -6 Q162 -6 142 -2.5 Q122 1 102.5 14 Q83 27 70.5 53 Q58 79 66 124 Q71 148 82.5 170.5 Q94 193 114.5 210 Q135 227 166 237 Q197 247 239 247 Q262 247 295 241 Q328 235 379 204 L387 244 Q391 266 387 285 Q383 304 367 317.5 Q351 331 320.5 338.5 Q290 346 239 346 Q222 346 198.5 343 Q175 340 146 335 L156 392 Q179 400 207.5 405.5 Q236 411 290 411 Q383 411 425.5 369 Q468 327 457 247 L414 0 Z M368 139 Q356 151 339 161 Q324 169 302.5 175.5 Q281 182 251 182 Q218 182 196.5 177.5 Q175 173 162.5 165 Q150 157 144 146 Q138 135 136 121 Q131 93 150 76 Q169 59 229 59 Q264 59 289.5 66.5 Q315 74 331 83 Q350 94 362 107 L368 139 Z M233 536 L301 536 L290 471 L222 471 L233 536 Z M374 536 L442 536 L431 471 L363 471 L374 536 Z " />
<glyph glyph-name="aring" unicode="&#xe5;" horiz-adv-x="479" d="M414 0 L348 0 L349 48 Q328 28 303 17 Q278 6 254.5 1 Q231 -4 211.5 -5 Q192 -6 182 -6 L169 -6 Q162 -6 142 -2.5 Q122 1 102.5 14 Q83 27 70.5 53 Q58 79 66 124 Q71 148 82.5 170.5 Q94 193 114.5 210 Q135 227 166 237 Q197 247 239 247 Q262 247 295 241 Q328 235 379 204 L387 244 Q391 266 387 285 Q383 304 367 317.5 Q351 331 320.5 338.5 Q290 346 239 346 Q222 346 198.5 343 Q175 340 146 335 L156 392 Q179 400 207.5 405.5 Q236 411 290 411 Q383 411 425.5 369 Q468 327 457 247 L414 0 Z M368 139 Q356 151 339 161 Q324 169 302.5 175.5 Q281 182 251 182 Q218 182 196.5 177.5 Q175 173 162.5 165 Q150 157 144 146 Q138 135 136 121 Q131 93 150 76 Q169 59 229 59 Q264 59 289.5 66.5 Q315 74 331 83 Q350 94 362 107 L368 139 Z M335 526 Q356 526 376.5 541 Q397 556 402 586 Q407 615 392 630.5 Q377 646 356 646 Q335 646 315 630.5 Q295 615 290 586 Q285 556 299.5 541 Q314 526 335 526 Z M326 471 Q299 471 279 480.5 Q259 490 246.5 505.5 Q234 521 229.5 542 Q225 563 229 586 Q233 609 245 630 Q257 651 275 667 Q293 683 316 692 Q339 701 366 701 Q393 701 413 692 Q433 683 445.5 667 Q458 651 462.5 630 Q467 609 463 586 Q459 563 447 542 Q435 521 417 505.5 Q399 490 376 480.5 Q353 471 326 471 Z " />
<glyph glyph-name="ae" unicode="&#xe6;" horiz-adv-x="769" d="M745 176 L445 176 L444 172 Q446 143 452 121.5 Q458 100 473.5 86 Q489 72 516.5 65.5 Q544 59 587 59 Q602 59 633.5 62 Q665 65 697 69 L686 11 Q663 3 627.5 -1.5 Q592 -6 544 -6 Q487 -6 450 13.5 Q413 33 395 66 Q374 39 344.5 24.5 Q315 10 286 3 Q257 -4 233 -5 Q209 -6 199 -6 L186 -6 Q179 -6 156 -4 Q133 -2 110 10 Q87 22 72 48.5 Q57 75 66 124 Q71 148 82.5 170.5 Q94 193 114.5 210 Q135 227 166 237 Q197 247 239 247 Q262 247 295 241 Q328 235 379 204 L387 244 Q391 266 387 285 Q383 304 367 317.5 Q351 331 320.5 338.5 Q290 346 239 346 Q222 346 198.5 343 Q175 340 146 335 L156 392 Q179 400 207.5 405.5 Q236 411 290 411 Q409 411 444 342 Q473 374 512.5 392.5 Q552 411 602 411 Q649 411 681 397 Q713 383 731.5 358.5 Q750 334 755.5 301 Q761 268 754 229 L745 176 Z M368 139 Q356 151 339 161 Q324 169 302.5 175.5 Q281 182 251 182 Q218 182 196.5 177.5 Q175 173 162.5 165 Q150 157 144 146 Q138 135 136 121 Q131 93 150 76 Q169 59 229 59 Q264 59 289.5 66.5 Q315 74 331 83 Q350 94 362 107 L368 139 Z M686 241 Q691 273 685 293.5 Q679 314 665.5 325.5 Q652 337 632.5 341.5 Q613 346 590 346 Q488 346 456 241 L686 241 Z " />
<glyph glyph-name="ccedilla" unicode="&#xe7;" horiz-adv-x="425" d="M395 29 Q350 3 311 -1.5 Q272 -6 240 -6 Q213 -5 180.5 5 Q148 15 122.5 39 Q97 63 83.5 103.5 Q70 144 81 207 Q90 261 116.5 299.5 Q143 338 177 363 Q211 388 247.5 399.5 Q284 411 314 411 Q343 411 380 406.5 Q417 402 455 373 L417 324 Q385 338 359.5 342 Q334 346 316 346 Q296 346 270.5 340 Q245 334 221 318.5 Q197 303 178 276 Q159 249 151 208 Q143 162 152.5 133 Q162 104 180.5 87.5 Q199 71 222.5 65 Q246 59 265 59 Q285 59 310.5 62.5 Q336 66 374 81 L395 29 Z M206 -64 L273 -64 L201 -184 L125 -184 L206 -64 Z " />
<glyph glyph-name="egrave" unicode="&#xe8;" horiz-adv-x="475" d="M451 176 L150 176 Q151 146 157 123.5 Q163 101 178.5 87 Q194 73 221.5 66 Q249 59 293 59 Q308 59 339.5 62 Q371 65 403 69 L392 11 Q369 3 333.5 -1.5 Q298 -6 250 -6 Q198 -6 163 10.5 Q128 27 108 55 Q88 83 83 121.5 Q78 160 85 203 Q93 246 111.5 284 Q130 322 158 350 Q186 378 224 394.5 Q262 411 308 411 Q355 411 387 397 Q419 383 437.5 358.5 Q456 334 461.5 301 Q467 268 460 229 L451 176 Z M392 241 Q397 273 391 293.5 Q385 314 371.5 325.5 Q358 337 338.5 341.5 Q319 346 296 346 Q194 346 162 241 L392 241 Z M245 591 L321 591 L351 471 L284 471 L245 591 Z " />
<glyph glyph-name="eacute" unicode="&#xe9;" horiz-adv-x="475" d="M451 176 L150 176 Q151 146 157 123.5 Q163 101 178.5 87 Q194 73 221.5 66 Q249 59 293 59 Q308 59 339.5 62 Q371 65 403 69 L392 11 Q369 3 333.5 -1.5 Q298 -6 250 -6 Q198 -6 163 10.5 Q128 27 108 55 Q88 83 83 121.5 Q78 160 85 203 Q93 246 111.5 284 Q130 322 158 350 Q186 378 224 394.5 Q262 411 308 411 Q355 411 387 397 Q419 383 437.5 358.5 Q456 334 461.5 301 Q467 268 460 229 L451 176 Z M392 241 Q397 273 391 293.5 Q385 314 371.5 325.5 Q358 337 338.5 341.5 Q319 346 296 346 Q194 346 162 241 L392 241 Z M355 471 L288 471 L360 591 L436 591 L355 471 Z " />
<glyph glyph-name="ecircumflex" unicode="&#xea;" horiz-adv-x="475" d="M451 176 L150 176 Q151 146 157 123.5 Q163 101 178.5 87 Q194 73 221.5 66 Q249 59 293 59 Q308 59 339.5 62 Q371 65 403 69 L392 11 Q369 3 333.5 -1.5 Q298 -6 250 -6 Q198 -6 163 10.5 Q128 27 108 55 Q88 83 83 121.5 Q78 160 85 203 Q93 246 111.5 284 Q130 322 158 350 Q186 378 224 394.5 Q262 411 308 411 Q355 411 387 397 Q419 383 437.5 358.5 Q456 334 461.5 301 Q467 268 460 229 L451 176 Z M392 241 Q397 273 391 293.5 Q385 314 371.5 325.5 Q358 337 338.5 341.5 Q319 346 296 346 Q194 346 162 241 L392 241 Z M373 594 L427 471 L358 471 L330 544 L279 471 L210 471 L306 594 L373 594 Z " />
<glyph glyph-name="edieresis" unicode="&#xeb;" horiz-adv-x="475" d="M451 176 L150 176 Q151 146 157 123.5 Q163 101 178.5 87 Q194 73 221.5 66 Q249 59 293 59 Q308 59 339.5 62 Q371 65 403 69 L392 11 Q369 3 333.5 -1.5 Q298 -6 250 -6 Q198 -6 163 10.5 Q128 27 108 55 Q88 83 83 121.5 Q78 160 85 203 Q93 246 111.5 284 Q130 322 158 350 Q186 378 224 394.5 Q262 411 308 411 Q355 411 387 397 Q419 383 437.5 358.5 Q456 334 461.5 301 Q467 268 460 229 L451 176 Z M392 241 Q397 273 391 293.5 Q385 314 371.5 325.5 Q358 337 338.5 341.5 Q319 346 296 346 Q194 346 162 241 L392 241 Z M224 536 L292 536 L281 471 L213 471 L224 536 Z M365 536 L433 536 L422 471 L354 471 L365 536 Z " />
<glyph glyph-name="igrave" unicode="&#xec;" horiz-adv-x="210" d="M141 405 L211 405 L140 0 L70 0 L141 405 Z M117 591 L193 591 L223 471 L156 471 L117 591 Z " />
<glyph glyph-name="iacute" unicode="&#xed;" horiz-adv-x="210" d="M140 0 L70 0 L141 405 L211 405 L140 0 Z M220 471 L153 471 L225 591 L301 591 L220 471 Z " />
<glyph glyph-name="icircumflex" unicode="&#xee;" horiz-adv-x="210" d="M141 405 L211 405 L140 0 L70 0 L141 405 Z M243 594 L297 471 L228 471 L200 544 L149 471 L80 471 L176 594 L243 594 Z " />
<glyph glyph-name="idieresis" unicode="&#xef;" horiz-adv-x="210" d="M141 405 L211 405 L140 0 L70 0 L141 405 Z M106 536 L174 536 L163 471 L95 471 L106 536 Z M223 536 L291 536 L280 471 L212 471 L223 536 Z " />
<glyph glyph-name="eth" unicode="&#xf0;" horiz-adv-x="550" d="M498 623 Q518 608 534 584.5 Q550 561 559.5 527.5 Q569 494 570 449 Q571 404 561 346 L533 188 Q521 124 490 85.5 Q459 47 421 27 Q383 7 343.5 0.5 Q304 -6 277 -6 L267 -6 Q240 -6 203.5 1 Q167 8 137 29.5 Q107 51 90 90 Q73 129 84 193 Q93 245 119.5 280.5 Q146 316 181.5 337.5 Q217 359 256.5 368 Q296 377 330 377 Q339 377 354 376.5 Q369 376 389.5 372 Q410 368 435 359 Q460 350 488 334 Q497 387 497.5 427.5 Q498 468 491.5 496.5 Q485 525 473 543.5 Q461 562 447 572 L335 464 L300 501 L389 588 Q376 590 364.5 590 Q353 590 342 590 Q307 590 282 585.5 Q257 581 234 577 L244 635 Q267 644 293.5 650.5 Q320 657 372 657 Q389 657 406 656 Q423 655 454 651 L506 703 L545 669 L498 623 Z M284 59 Q302 59 329 63 Q356 67 383.5 80.5 Q411 94 433 119.5 Q455 145 462 187 Q470 230 457 255 Q444 280 422 292.5 Q400 305 374 308.5 Q348 312 329 312 Q310 312 283 308.5 Q256 305 229.5 292.5 Q203 280 181.5 255 Q160 230 152 187 Q145 143 158 117.5 Q171 92 193 79 Q215 66 240.5 62.5 Q266 59 284 59 Z " />
<glyph glyph-name="ntilde" unicode="&#xf1;" horiz-adv-x="492" d="M65 0 L136 405 L197 405 L196 345 Q220 370 244 383.5 Q268 397 290 403 Q312 409 330 410 Q348 411 358 411 Q383 411 407 400.5 Q431 390 449 370.5 Q467 351 475 323 Q483 295 477 260 L432 0 L362 0 L406 254 Q411 281 405 299 Q399 317 386.5 327.5 Q374 338 357.5 342 Q341 346 326 346 Q293 346 266.5 332.5 Q240 319 220 303 Q198 284 180 260 L135 0 L65 0 Z M462 488 Q445 480 426.5 475.5 Q408 471 393 471 Q376 471 362 477 Q348 483 334.5 489.5 Q321 496 307 502 Q293 508 276 508 Q266 508 257.5 507.5 Q249 507 240 504 L229 554 Q246 565 258.5 568 Q271 571 287 571 Q305 571 319.5 565 Q334 559 348 552.5 Q362 546 376.5 540 Q391 534 408 534 Q419 534 430 535.5 Q441 537 452 542 L462 488 Z " />
<glyph glyph-name="ograve" unicode="&#xf2;" horiz-adv-x="502" d="M261 59 Q281 59 304.5 64 Q328 69 350.5 84.5 Q373 100 391 128.5 Q409 157 418 205 Q425 246 417 273.5 Q409 301 392.5 317 Q376 333 354.5 339.5 Q333 346 312 346 Q291 346 267 339.5 Q243 333 220.5 317 Q198 301 180.5 273.5 Q163 246 156 205 Q147 157 155 128.5 Q163 100 180 84.5 Q197 69 219.5 64 Q242 59 261 59 Z M249 -6 Q221 -6 187.5 3.5 Q154 13 128 37 Q102 61 88.5 102 Q75 143 86 207 Q95 261 121 299.5 Q147 338 181 363 Q215 388 252.5 399.5 Q290 411 323 411 Q356 411 389 399.5 Q422 388 447.5 363 Q473 338 485 299.5 Q497 261 488 207 Q477 143 448.5 102 Q420 61 385 37 Q350 13 313.5 3.5 Q277 -6 249 -6 Z M260 591 L336 591 L366 471 L299 471 L260 591 Z " />
<glyph glyph-name="oacute" unicode="&#xf3;" horiz-adv-x="502" d="M261 59 Q281 59 304.5 64 Q328 69 350.5 84.5 Q373 100 391 128.5 Q409 157 418 205 Q425 246 417 273.5 Q409 301 392.5 317 Q376 333 354.5 339.5 Q333 346 312 346 Q291 346 267 339.5 Q243 333 220.5 317 Q198 301 180.5 273.5 Q163 246 156 205 Q147 157 155 128.5 Q163 100 180 84.5 Q197 69 219.5 64 Q242 59 261 59 Z M249 -6 Q221 -6 187.5 3.5 Q154 13 128 37 Q102 61 88.5 102 Q75 143 86 207 Q95 261 121 299.5 Q147 338 181 363 Q215 388 252.5 399.5 Q290 411 323 411 Q356 411 389 399.5 Q422 388 447.5 363 Q473 338 485 299.5 Q497 261 488 207 Q477 143 448.5 102 Q420 61 385 37 Q350 13 313.5 3.5 Q277 -6 249 -6 Z M369 471 L302 471 L374 591 L450 591 L369 471 Z " />
<glyph glyph-name="ocircumflex" unicode="&#xf4;" horiz-adv-x="502" d="M261 59 Q281 59 304.5 64 Q328 69 350.5 84.5 Q373 100 391 128.5 Q409 157 418 205 Q425 246 417 273.5 Q409 301 392.5 317 Q376 333 354.5 339.5 Q333 346 312 346 Q291 346 267 339.5 Q243 333 220.5 317 Q198 301 180.5 273.5 Q163 246 156 205 Q147 157 155 128.5 Q163 100 180 84.5 Q197 69 219.5 64 Q242 59 261 59 Z M249 -6 Q221 -6 187.5 3.5 Q154 13 128 37 Q102 61 88.5 102 Q75 143 86 207 Q95 261 121 299.5 Q147 338 181 363 Q215 388 252.5 399.5 Q290 411 323 411 Q356 411 389 399.5 Q422 388 447.5 363 Q473 338 485 299.5 Q497 261 488 207 Q477 143 448.5 102 Q420 61 385 37 Q350 13 313.5 3.5 Q277 -6 249 -6 Z M389 594 L443 471 L374 471 L346 544 L295 471 L226 471 L322 594 L389 594 Z " />
<glyph glyph-name="otilde" unicode="&#xf5;" horiz-adv-x="502" d="M261 59 Q281 59 304.5 64 Q328 69 350.5 84.5 Q373 100 391 128.5 Q409 157 418 205 Q425 246 417 273.5 Q409 301 392.5 317 Q376 333 354.5 339.5 Q333 346 312 346 Q291 346 267 339.5 Q243 333 220.5 317 Q198 301 180.5 273.5 Q163 246 156 205 Q147 157 155 128.5 Q163 100 180 84.5 Q197 69 219.5 64 Q242 59 261 59 Z M249 -6 Q221 -6 187.5 3.5 Q154 13 128 37 Q102 61 88.5 102 Q75 143 86 207 Q95 261 121 299.5 Q147 338 181 363 Q215 388 252.5 399.5 Q290 411 323 411 Q356 411 389 399.5 Q422 388 447.5 363 Q473 338 485 299.5 Q497 261 488 207 Q477 143 448.5 102 Q420 61 385 37 Q350 13 313.5 3.5 Q277 -6 249 -6 Z M459 488 Q442 480 423.5 475.5 Q405 471 390 471 Q373 471 359 477 Q345 483 331.5 489.5 Q318 496 304 502 Q290 508 273 508 Q263 508 254.5 507.5 Q246 507 237 504 L226 554 Q243 565 255.5 568 Q268 571 284 571 Q302 571 316.5 565 Q331 559 345 552.5 Q359 546 373.5 540 Q388 534 405 534 Q416 534 427 535.5 Q438 537 449 542 L459 488 Z " />
<glyph glyph-name="odieresis" unicode="&#xf6;" horiz-adv-x="502" d="M261 59 Q281 59 304.5 64 Q328 69 350.5 84.5 Q373 100 391 128.5 Q409 157 418 205 Q425 246 417 273.5 Q409 301 392.5 317 Q376 333 354.5 339.5 Q333 346 312 346 Q291 346 267 339.5 Q243 333 220.5 317 Q198 301 180.5 273.5 Q163 246 156 205 Q147 157 155 128.5 Q163 100 180 84.5 Q197 69 219.5 64 Q242 59 261 59 Z M249 -6 Q221 -6 187.5 3.5 Q154 13 128 37 Q102 61 88.5 102 Q75 143 86 207 Q95 261 121 299.5 Q147 338 181 363 Q215 388 252.5 399.5 Q290 411 323 411 Q356 411 389 399.5 Q422 388 447.5 363 Q473 338 485 299.5 Q497 261 488 207 Q477 143 448.5 102 Q420 61 385 37 Q350 13 313.5 3.5 Q277 -6 249 -6 Z M252 536 L320 536 L309 471 L241 471 L252 536 Z M369 536 L437 536 L426 471 L358 471 L369 536 Z " />
<glyph glyph-name="divide" unicode="&#xf7;" horiz-adv-x="444" d="M100 172 L111 235 L415 235 L404 172 L100 172 Z M192 51 Q195 67 207.5 78 Q220 89 236 89 Q252 89 261 78 Q270 67 267 51 Q265 35 252 24.5 Q239 14 223 14 Q207 14 198.5 24.5 Q190 35 192 51 Z M246 356 Q249 372 261.5 382.5 Q274 393 290 393 Q306 393 315 382.5 Q324 372 321 356 Q319 340 306 329 Q293 318 277 318 Q261 318 252.5 329 Q244 340 246 356 Z " />
<glyph glyph-name="oslash" unicode="&#xf8;" horiz-adv-x="502" d="M420 384 Q457 361 478.5 318 Q500 275 488 207 Q477 143 448.5 102 Q420 61 385 37 Q350 13 313.5 3.5 Q277 -6 249 -6 Q233 -6 213 -3 L164 -91 L91 -91 L152 19 Q134 30 119 46 Q104 62 94.5 85 Q85 108 82 138 Q79 168 86 207 Q95 261 121 299.5 Q147 338 181 363 Q215 388 252.5 399.5 Q290 411 323 411 Q332 411 341.5 410 Q351 409 359 407 L408 497 L481 497 L420 384 Z M261 59 Q281 59 304.5 64 Q328 69 350.5 84.5 Q373 100 391 128.5 Q409 157 418 205 Q425 246 417 273.5 Q409 301 392.5 317 Q376 333 354.5 339.5 Q333 346 312 346 Q291 346 267 339.5 Q243 333 220.5 317 Q198 301 180.5 273.5 Q163 246 156 205 Q147 157 155 128.5 Q163 100 180 84.5 Q197 69 219.5 64 Q242 59 261 59 Z " />
<glyph glyph-name="ugrave" unicode="&#xf9;" horiz-adv-x="492" d="M498 405 L427 0 L366 0 L366 60 Q342 35 318 21.5 Q294 8 272 2 Q250 -4 232.5 -5 Q215 -6 204 -6 Q179 -6 155 4.5 Q131 15 113.5 34.5 Q96 54 87.5 82 Q79 110 85 145 L131 405 L201 405 L156 151 Q151 124 157.5 106.5 Q164 89 176.5 78.5 Q189 68 205.5 63.5 Q222 59 237 59 Q270 59 296.5 72.5 Q323 86 342 102 Q364 121 382 145 L428 405 L498 405 Z M260 591 L336 591 L366 471 L299 471 L260 591 Z " />
<glyph glyph-name="uacute" unicode="&#xfa;" horiz-adv-x="492" d="M498 405 L427 0 L366 0 L366 60 Q342 35 318 21.5 Q294 8 272 2 Q250 -4 232.5 -5 Q215 -6 204 -6 Q179 -6 155 4.5 Q131 15 113.5 34.5 Q96 54 87.5 82 Q79 110 85 145 L131 405 L201 405 L156 151 Q151 124 157.5 106.5 Q164 89 176.5 78.5 Q189 68 205.5 63.5 Q222 59 237 59 Q270 59 296.5 72.5 Q323 86 342 102 Q364 121 382 145 L428 405 L498 405 Z M362 471 L295 471 L367 591 L443 591 L362 471 Z " />
<glyph glyph-name="ucircumflex" unicode="&#xfb;" horiz-adv-x="492" d="M498 405 L427 0 L366 0 L366 60 Q342 35 318 21.5 Q294 8 272 2 Q250 -4 232.5 -5 Q215 -6 204 -6 Q179 -6 155 4.5 Q131 15 113.5 34.5 Q96 54 87.5 82 Q79 110 85 145 L131 405 L201 405 L156 151 Q151 124 157.5 106.5 Q164 89 176.5 78.5 Q189 68 205.5 63.5 Q222 59 237 59 Q270 59 296.5 72.5 Q323 86 342 102 Q364 121 382 145 L428 405 L498 405 Z M380 594 L434 471 L365 471 L337 544 L286 471 L217 471 L313 594 L380 594 Z " />
<glyph glyph-name="udieresis" unicode="&#xfc;" horiz-adv-x="492" d="M498 405 L427 0 L366 0 L366 60 Q342 35 318 21.5 Q294 8 272 2 Q250 -4 232.5 -5 Q215 -6 204 -6 Q179 -6 155 4.5 Q131 15 113.5 34.5 Q96 54 87.5 82 Q79 110 85 145 L131 405 L201 405 L156 151 Q151 124 157.5 106.5 Q164 89 176.5 78.5 Q189 68 205.5 63.5 Q222 59 237 59 Q270 59 296.5 72.5 Q323 86 342 102 Q364 121 382 145 L428 405 L498 405 Z M244 536 L312 536 L301 471 L233 471 L244 536 Z M361 536 L429 536 L418 471 L350 471 L361 536 Z " />
<glyph glyph-name="yacute" unicode="&#xfd;" horiz-adv-x="447" d="M177 -13 Q170 24 163.5 63 Q157 102 148.5 150.5 Q140 199 130 261 Q120 323 106 405 L186 405 L232 84 Q275 159 322.5 244.5 Q370 330 412 405 L498 405 L193 -109 Q157 -163 124 -180.5 Q91 -198 59 -198 Q47 -198 31 -198 Q15 -198 5 -197 L16 -131 Q25 -132 33.5 -132.5 Q42 -133 44 -133 Q51 -133 63 -132 Q75 -131 88.5 -125 Q102 -119 116.5 -107 Q131 -95 143 -73 L177 -13 Z M347 471 L280 471 L352 591 L428 591 L347 471 Z " />
<glyph glyph-name="thorn" unicode="&#xfe;" horiz-adv-x="508" d="M100 -198 L30 -198 L168 590 L237 590 L196 346 Q220 370 244.5 383 Q269 396 289.5 402.5 Q310 409 325 410 Q340 411 346 411 Q380 411 411 399.5 Q442 388 463.5 363 Q485 338 494 300 Q503 262 494 209 Q483 147 459.5 105.5 Q436 64 406 39.5 Q376 15 343 4.5 Q310 -6 281 -6 Q271 -6 253 -5 Q235 -4 215.5 1.5 Q196 7 176.5 18.5 Q157 30 143 51 L100 -198 Z M162 154 Q168 127 182 107 Q194 87 214.5 73 Q235 59 269 59 Q283 59 305 61.5 Q327 64 350.5 78 Q374 92 394 122.5 Q414 153 424 209 Q433 256 422.5 283.5 Q412 311 394 325 Q376 339 355 342.5 Q334 346 320 346 Q286 346 260 331 Q234 316 216 299 Q195 278 179 251 L162 154 Z " />
<glyph glyph-name="ydieresis" unicode="&#xff;" horiz-adv-x="447" d="M177 -13 Q170 24 163.5 63 Q157 102 148.5 150.5 Q140 199 130 261 Q120 323 106 405 L186 405 L232 84 Q275 159 322.5 244.5 Q370 330 412 405 L498 405 L193 -109 Q157 -163 124 -180.5 Q91 -198 59 -198 Q47 -198 31 -198 Q15 -198 5 -197 L16 -131 Q25 -132 33.5 -132.5 Q42 -133 44 -133 Q51 -133 63 -132 Q75 -131 88.5 -125 Q102 -119 116.5 -107 Q131 -95 143 -73 L177 -13 Z M229 536 L297 536 L286 471 L218 471 L229 536 Z M346 536 L414 536 L403 471 L335 471 L346 536 Z " />
<glyph glyph-name="Amacron" unicode="&#x100;" horiz-adv-x="598" d="M568 0 L493 0 L465 144 L183 144 L105 0 L30 0 L356 590 L450 590 L568 0 Z M450 208 L390 518 L220 208 L450 208 Z M260 657 L272 721 L577 721 L565 657 L260 657 Z " />
<glyph glyph-name="amacron" unicode="&#x101;" horiz-adv-x="479" d="M414 0 L348 0 L349 48 Q328 28 303 17 Q278 6 254.5 1 Q231 -4 211.5 -5 Q192 -6 182 -6 L169 -6 Q162 -6 142 -2.5 Q122 1 102.5 14 Q83 27 70.5 53 Q58 79 66 124 Q71 148 82.5 170.5 Q94 193 114.5 210 Q135 227 166 237 Q197 247 239 247 Q262 247 295 241 Q328 235 379 204 L387 244 Q391 266 387 285 Q383 304 367 317.5 Q351 331 320.5 338.5 Q290 346 239 346 Q222 346 198.5 343 Q175 340 146 335 L156 392 Q179 400 207.5 405.5 Q236 411 290 411 Q383 411 425.5 369 Q468 327 457 247 L414 0 Z M368 139 Q356 151 339 161 Q324 169 302.5 175.5 Q281 182 251 182 Q218 182 196.5 177.5 Q175 173 162.5 165 Q150 157 144 146 Q138 135 136 121 Q131 93 150 76 Q169 59 229 59 Q264 59 289.5 66.5 Q315 74 331 83 Q350 94 362 107 L368 139 Z M173 471 L184 535 L489 535 L478 471 L173 471 Z " />
<glyph glyph-name="Abreve" unicode="&#x102;" horiz-adv-x="598" d="M356 590 L450 590 L568 0 L493 0 L465 144 L183 144 L105 0 L30 0 L356 590 Z M450 208 L390 518 L220 208 L450 208 Z M414 657 Q393 657 372.5 661.5 Q352 666 336 678 Q320 690 310 710.5 Q300 731 299 763 L367 763 Q372 734 388 725 Q404 716 425 716 Q446 716 465 725 Q484 734 499 763 L567 763 Q555 731 537.5 710.5 Q520 690 499.5 678 Q479 666 457 661.5 Q435 657 414 657 Z " />
<glyph glyph-name="abreve" unicode="&#x103;" horiz-adv-x="479" d="M414 0 L348 0 L349 48 Q328 28 303 17 Q278 6 254.5 1 Q231 -4 211.5 -5 Q192 -6 182 -6 L169 -6 Q162 -6 142 -2.5 Q122 1 102.5 14 Q83 27 70.5 53 Q58 79 66 124 Q71 148 82.5 170.5 Q94 193 114.5 210 Q135 227 166 237 Q197 247 239 247 Q262 247 295 241 Q328 235 379 204 L387 244 Q391 266 387 285 Q383 304 367 317.5 Q351 331 320.5 338.5 Q290 346 239 346 Q222 346 198.5 343 Q175 340 146 335 L156 392 Q179 400 207.5 405.5 Q236 411 290 411 Q383 411 425.5 369 Q468 327 457 247 L414 0 Z M368 139 Q356 151 339 161 Q324 169 302.5 175.5 Q281 182 251 182 Q218 182 196.5 177.5 Q175 173 162.5 165 Q150 157 144 146 Q138 135 136 121 Q131 93 150 76 Q169 59 229 59 Q264 59 289.5 66.5 Q315 74 331 83 Q350 94 362 107 L368 139 Z M333 471 Q312 471 291.5 475.5 Q271 480 254.5 492 Q238 504 228 524.5 Q218 545 217 577 L285 577 Q290 548 306 539 Q322 530 343 530 Q364 530 383.5 539 Q403 548 417 577 L485 577 Q473 545 455.5 524.5 Q438 504 418 492 Q398 480 376 475.5 Q354 471 333 471 Z " />
<glyph glyph-name="Aogonek" unicode="&#x104;" horiz-adv-x="598" d="M568 0 L493 0 L465 144 L183 144 L105 0 L30 0 L356 590 L450 590 L568 0 Z M450 208 L390 518 L220 208 L450 208 Z M407 -184 L483 -184 L555 -64 L488 -64 L407 -184 Z " />
<glyph glyph-name="aogonek" unicode="&#x105;" horiz-adv-x="479" d="M414 0 L348 0 L349 48 Q328 28 303 17 Q278 6 254.5 1 Q231 -4 211.5 -5 Q192 -6 182 -6 L169 -6 Q162 -6 142 -2.5 Q122 1 102.5 14 Q83 27 70.5 53 Q58 79 66 124 Q71 148 82.5 170.5 Q94 193 114.5 210 Q135 227 166 237 Q197 247 239 247 Q262 247 295 241 Q328 235 379 204 L387 244 Q391 266 387 285 Q383 304 367 317.5 Q351 331 320.5 338.5 Q290 346 239 346 Q222 346 198.5 343 Q175 340 146 335 L156 392 Q179 400 207.5 405.5 Q236 411 290 411 Q383 411 425.5 369 Q468 327 457 247 L414 0 Z M368 139 Q356 151 339 161 Q324 169 302.5 175.5 Q281 182 251 182 Q218 182 196.5 177.5 Q175 173 162.5 165 Q150 157 144 146 Q138 135 136 121 Q131 93 150 76 Q169 59 229 59 Q264 59 289.5 66.5 Q315 74 331 83 Q350 94 362 107 L368 139 Z M254 -184 L330 -184 L402 -64 L335 -64 L254 -184 Z " />
<glyph glyph-name="Cacute" unicode="&#x106;" horiz-adv-x="550" d="M432 530 Q392 530 350.5 521 Q309 512 272.5 487 Q236 462 208 418 Q180 374 168 303 Q154 222 168.5 174 Q183 126 212 100.5 Q241 75 279 67 Q317 59 349 59 Q384 59 419.5 67 Q455 75 491 93 Q498 81 504 68.5 Q510 56 516 45 Q473 18 426.5 6 Q380 -6 339 -6 Q299 -6 249.5 7 Q200 20 161 54.5 Q122 89 101.5 149.5 Q81 210 98 306 Q113 388 148 443.5 Q183 499 230.5 532.5 Q278 566 333.5 580.5 Q389 595 444 595 Q487 595 529 582.5 Q571 570 606 545 L562 497 Q532 514 498 522 Q464 530 432 530 Z M476 657 L409 657 L482 777 L558 777 L476 657 Z " />
<glyph glyph-name="cacute" unicode="&#x107;" horiz-adv-x="425" d="M395 29 Q350 3 311 -1.5 Q272 -6 240 -6 Q213 -5 180.5 5 Q148 15 122.5 39 Q97 63 83.5 103.5 Q70 144 81 207 Q90 261 116.5 299.5 Q143 338 177 363 Q211 388 247.5 399.5 Q284 411 314 411 Q343 411 380 406.5 Q417 402 455 373 L417 324 Q385 338 359.5 342 Q334 346 316 346 Q296 346 270.5 340 Q245 334 221 318.5 Q197 303 178 276 Q159 249 151 208 Q143 162 152.5 133 Q162 104 180.5 87.5 Q199 71 222.5 65 Q246 59 265 59 Q285 59 310.5 62.5 Q336 66 374 81 L395 29 Z M350 471 L283 471 L355 591 L431 591 L350 471 Z " />
<glyph glyph-name="Ccircumflex" unicode="&#x108;" horiz-adv-x="550" d="M432 530 Q392 530 350.5 521 Q309 512 272.5 487 Q236 462 208 418 Q180 374 168 303 Q154 222 168.5 174 Q183 126 212 100.5 Q241 75 279 67 Q317 59 349 59 Q384 59 419.5 67 Q455 75 491 93 Q498 81 504 68.5 Q510 56 516 45 Q473 18 426.5 6 Q380 -6 339 -6 Q299 -6 249.5 7 Q200 20 161 54.5 Q122 89 101.5 149.5 Q81 210 98 306 Q113 388 148 443.5 Q183 499 230.5 532.5 Q278 566 333.5 580.5 Q389 595 444 595 Q487 595 529 582.5 Q571 570 606 545 L562 497 Q532 514 498 522 Q464 530 432 530 Z M507 780 L560 657 L491 657 L464 730 L412 657 L343 657 L440 780 L507 780 Z " />
<glyph glyph-name="ccircumflex" unicode="&#x109;" horiz-adv-x="425" d="M395 29 Q350 3 311 -1.5 Q272 -6 240 -6 Q213 -5 180.5 5 Q148 15 122.5 39 Q97 63 83.5 103.5 Q70 144 81 207 Q90 261 116.5 299.5 Q143 338 177 363 Q211 388 247.5 399.5 Q284 411 314 411 Q343 411 380 406.5 Q417 402 455 373 L417 324 Q385 338 359.5 342 Q334 346 316 346 Q296 346 270.5 340 Q245 334 221 318.5 Q197 303 178 276 Q159 249 151 208 Q143 162 152.5 133 Q162 104 180.5 87.5 Q199 71 222.5 65 Q246 59 265 59 Q285 59 310.5 62.5 Q336 66 374 81 L395 29 Z M379 594 L433 471 L364 471 L336 544 L285 471 L216 471 L312 594 L379 594 Z " />
<glyph glyph-name="Cdotaccent" unicode="&#x10a;" horiz-adv-x="550" d="M432 530 Q392 530 350.5 521 Q309 512 272.5 487 Q236 462 208 418 Q180 374 168 303 Q154 222 168.5 174 Q183 126 212 100.5 Q241 75 279 67 Q317 59 349 59 Q384 59 419.5 67 Q455 75 491 93 Q498 81 504 68.5 Q510 56 516 45 Q473 18 426.5 6 Q380 -6 339 -6 Q299 -6 249.5 7 Q200 20 161 54.5 Q122 89 101.5 149.5 Q81 210 98 306 Q113 388 148 443.5 Q183 499 230.5 532.5 Q278 566 333.5 580.5 Q389 595 444 595 Q487 595 529 582.5 Q571 570 606 545 L562 497 Q532 514 498 522 Q464 530 432 530 Z M388 657 L456 657 L468 722 L400 722 L388 657 Z " />
<glyph glyph-name="cdotaccent" unicode="&#x10b;" horiz-adv-x="425" d="M395 29 Q350 3 311 -1.5 Q272 -6 240 -6 Q213 -5 180.5 5 Q148 15 122.5 39 Q97 63 83.5 103.5 Q70 144 81 207 Q90 261 116.5 299.5 Q143 338 177 363 Q211 388 247.5 399.5 Q284 411 314 411 Q343 411 380 406.5 Q417 402 455 373 L417 324 Q385 338 359.5 342 Q334 346 316 346 Q296 346 270.5 340 Q245 334 221 318.5 Q197 303 178 276 Q159 249 151 208 Q143 162 152.5 133 Q162 104 180.5 87.5 Q199 71 222.5 65 Q246 59 265 59 Q285 59 310.5 62.5 Q336 66 374 81 L395 29 Z M289 471 L357 471 L368 536 L300 536 L289 471 Z " />
<glyph glyph-name="Ccaron" unicode="&#x10c;" horiz-adv-x="550" d="M432 530 Q392 530 350.5 521 Q309 512 272.5 487 Q236 462 208 418 Q180 374 168 303 Q154 222 168.5 174 Q183 126 212 100.5 Q241 75 279 67 Q317 59 349 59 Q384 59 419.5 67 Q455 75 491 93 Q498 81 504 68.5 Q510 56 516 45 Q473 18 426.5 6 Q380 -6 339 -6 Q299 -6 249.5 7 Q200 20 161 54.5 Q122 89 101.5 149.5 Q81 210 98 306 Q113 388 148 443.5 Q183 499 230.5 532.5 Q278 566 333.5 580.5 Q389 595 444 595 Q487 595 529 582.5 Q571 570 606 545 L562 497 Q532 514 498 522 Q464 530 432 530 Z M414 657 L361 780 L430 780 L456 707 L509 780 L578 780 L481 657 L414 657 Z " />
<glyph glyph-name="ccaron" unicode="&#x10d;" horiz-adv-x="425" d="M395 29 Q350 3 311 -1.5 Q272 -6 240 -6 Q213 -5 180.5 5 Q148 15 122.5 39 Q97 63 83.5 103.5 Q70 144 81 207 Q90 261 116.5 299.5 Q143 338 177 363 Q211 388 247.5 399.5 Q284 411 314 411 Q343 411 380 406.5 Q417 402 455 373 L417 324 Q385 338 359.5 342 Q334 346 316 346 Q296 346 270.5 340 Q245 334 221 318.5 Q197 303 178 276 Q159 249 151 208 Q143 162 152.5 133 Q162 104 180.5 87.5 Q199 71 222.5 65 Q246 59 265 59 Q285 59 310.5 62.5 Q336 66 374 81 L395 29 Z M299 471 L245 594 L314 594 L340 521 L393 594 L462 594 L366 471 L299 471 Z " />
<glyph glyph-name="Dcaron" unicode="&#x10e;" horiz-adv-x="596" d="M595 307 Q579 214 541 154.5 Q503 95 456 60.5 Q409 26 359.5 13 Q310 0 270 0 L70 0 L174 590 L362 590 Q410 590 457.5 575.5 Q505 561 540 528 Q575 495 592 441 Q609 387 595 307 Z M268 63 Q300 63 339 70 Q378 77 414 102 Q450 127 480 175 Q510 223 524 304 Q535 367 525 410 Q515 453 490 479 Q465 505 429 516.5 Q393 528 353 528 L233 528 L151 63 L268 63 Z M351 657 L298 780 L367 780 L393 707 L446 780 L515 780 L418 657 L351 657 Z " />
<glyph glyph-name="dcaron" unicode="&#x10f;" horiz-adv-x="641" d="M443 0 L380 0 L380 50 Q359 29 336 17.5 Q313 6 291 1 Q269 -4 251.5 -5 Q234 -6 223 -6 Q194 -6 164.5 4.5 Q135 15 114 39.5 Q93 64 84 105.5 Q75 147 86 209 Q95 262 118 300 Q141 338 171.5 363 Q202 388 237 399.5 Q272 411 306 411 Q312 411 326.5 410 Q341 409 360 403 Q379 397 398.5 384 Q418 371 434 347 L477 590 L547 590 L443 0 Z M417 251 Q411 278 397 299 Q385 318 364.5 332 Q344 346 310 346 Q297 346 274 342.5 Q251 339 228 325 Q205 311 185 283.5 Q165 256 156 209 Q146 153 156 122.5 Q166 92 184.5 78 Q203 64 224.5 61.5 Q246 59 259 59 Q293 59 319 74 Q345 89 363 107 Q384 127 400 154 L417 251 Z M720 590 L644 590 L571 470 L638 470 L720 590 Z " />
<glyph glyph-name="Dcroat" unicode="&#x110;" horiz-adv-x="640" d="M639 307 Q623 214 585 154.5 Q547 95 500 60.5 Q453 26 403.5 13 Q354 0 314 0 L114 0 L159 259 L75 259 L86 322 L170 322 L218 590 L406 590 Q454 590 501.5 575.5 Q549 561 584 528 Q619 495 636 441 Q653 387 639 307 Z M229 259 L195 63 L312 63 Q344 63 383 70 Q422 77 458 102 Q494 127 524 175 Q554 223 568 304 Q579 367 569 410 Q559 453 534 479 Q509 505 473 516.5 Q437 528 397 528 L277 528 L240 322 L390 322 L379 259 L229 259 Z " />
<glyph glyph-name="dcroat" unicode="&#x111;" horiz-adv-x="529" d="M371 481 L381 537 L467 537 L477 590 L547 590 L537 537 L618 537 L608 481 L527 481 L443 0 L380 0 L380 50 Q359 29 336 17.5 Q313 6 291 1 Q269 -4 251.5 -5 Q234 -6 223 -6 Q194 -6 164.5 4.5 Q135 15 114 39.5 Q93 64 84 105.5 Q75 147 86 209 Q95 262 118 300 Q141 338 171.5 363 Q202 388 237 399.5 Q272 411 306 411 Q312 411 326.5 410 Q341 409 360 403 Q379 397 398.5 384 Q418 371 434 347 L457 481 L371 481 Z M417 251 Q411 278 397 299 Q385 318 364.5 332 Q344 346 310 346 Q297 346 274 342.5 Q251 339 228 325 Q205 311 185 283.5 Q165 256 156 209 Q146 153 156 122.5 Q166 92 184.5 78 Q203 64 224.5 61.5 Q246 59 259 59 Q293 59 319 74 Q345 89 363 107 Q384 127 400 154 L417 251 Z " />
<glyph glyph-name="Emacron" unicode="&#x112;" horiz-adv-x="518" d="M233 528 L198 330 L458 330 L447 267 L187 267 L151 63 L469 63 L458 0 L70 0 L174 590 L562 590 L551 528 L233 528 Z M225 657 L237 721 L542 721 L530 657 L225 657 Z " />
<glyph glyph-name="emacron" unicode="&#x113;" horiz-adv-x="475" d="M451 176 L150 176 Q151 146 157 123.5 Q163 101 178.5 87 Q194 73 221.5 66 Q249 59 293 59 Q308 59 339.5 62 Q371 65 403 69 L392 11 Q369 3 333.5 -1.5 Q298 -6 250 -6 Q198 -6 163 10.5 Q128 27 108 55 Q88 83 83 121.5 Q78 160 85 203 Q93 246 111.5 284 Q130 322 158 350 Q186 378 224 394.5 Q262 411 308 411 Q355 411 387 397 Q419 383 437.5 358.5 Q456 334 461.5 301 Q467 268 460 229 L451 176 Z M392 241 Q397 273 391 293.5 Q385 314 371.5 325.5 Q358 337 338.5 341.5 Q319 346 296 346 Q194 346 162 241 L392 241 Z M172 471 L183 535 L488 535 L477 471 L172 471 Z " />
<glyph glyph-name="Edotaccent" unicode="&#x116;" horiz-adv-x="518" d="M233 528 L198 330 L458 330 L447 267 L187 267 L151 63 L469 63 L458 0 L70 0 L174 590 L562 590 L551 528 L233 528 Z M364 722 L432 722 L420 657 L352 657 L364 722 Z " />
<glyph glyph-name="edotaccent" unicode="&#x117;" horiz-adv-x="475" d="M451 176 L150 176 Q151 146 157 123.5 Q163 101 178.5 87 Q194 73 221.5 66 Q249 59 293 59 Q308 59 339.5 62 Q371 65 403 69 L392 11 Q369 3 333.5 -1.5 Q298 -6 250 -6 Q198 -6 163 10.5 Q128 27 108 55 Q88 83 83 121.5 Q78 160 85 203 Q93 246 111.5 284 Q130 322 158 350 Q186 378 224 394.5 Q262 411 308 411 Q355 411 387 397 Q419 383 437.5 358.5 Q456 334 461.5 301 Q467 268 460 229 L451 176 Z M392 241 Q397 273 391 293.5 Q385 314 371.5 325.5 Q358 337 338.5 341.5 Q319 346 296 346 Q194 346 162 241 L392 241 Z M294 536 L362 536 L351 471 L283 471 L294 536 Z " />
<glyph glyph-name="Eogonek" unicode="&#x118;" horiz-adv-x="518" d="M233 528 L198 330 L458 330 L447 267 L187 267 L151 63 L469 63 L458 0 L70 0 L174 590 L562 590 L551 528 L233 528 Z M298 -184 L374 -184 L446 -64 L379 -64 L298 -184 Z " />
<glyph glyph-name="eogonek" unicode="&#x119;" horiz-adv-x="475" d="M451 176 L150 176 Q151 146 157 123.5 Q163 101 178.5 87 Q194 73 221.5 66 Q249 59 293 59 Q308 59 339.5 62 Q371 65 403 69 L392 11 Q369 3 333.5 -1.5 Q298 -6 250 -6 Q198 -6 163 10.5 Q128 27 108 55 Q88 83 83 121.5 Q78 160 85 203 Q93 246 111.5 284 Q130 322 158 350 Q186 378 224 394.5 Q262 411 308 411 Q355 411 387 397 Q419 383 437.5 358.5 Q456 334 461.5 301 Q467 268 460 229 L451 176 Z M392 241 Q397 273 391 293.5 Q385 314 371.5 325.5 Q358 337 338.5 341.5 Q319 346 296 346 Q194 346 162 241 L392 241 Z M135 -184 L211 -184 L283 -64 L216 -64 L135 -184 Z " />
<glyph glyph-name="Ecaron" unicode="&#x11a;" horiz-adv-x="518" d="M233 528 L198 330 L458 330 L447 267 L187 267 L151 63 L469 63 L458 0 L70 0 L174 590 L562 590 L551 528 L233 528 Z M350 657 L297 780 L366 780 L392 707 L445 780 L514 780 L417 657 L350 657 Z " />
<glyph glyph-name="ecaron" unicode="&#x11b;" horiz-adv-x="475" d="M451 176 L150 176 Q151 146 157 123.5 Q163 101 178.5 87 Q194 73 221.5 66 Q249 59 293 59 Q308 59 339.5 62 Q371 65 403 69 L392 11 Q369 3 333.5 -1.5 Q298 -6 250 -6 Q198 -6 163 10.5 Q128 27 108 55 Q88 83 83 121.5 Q78 160 85 203 Q93 246 111.5 284 Q130 322 158 350 Q186 378 224 394.5 Q262 411 308 411 Q355 411 387 397 Q419 383 437.5 358.5 Q456 334 461.5 301 Q467 268 460 229 L451 176 Z M392 241 Q397 273 391 293.5 Q385 314 371.5 325.5 Q358 337 338.5 341.5 Q319 346 296 346 Q194 346 162 241 L392 241 Z M288 471 L234 594 L303 594 L329 521 L382 594 L451 594 L355 471 L288 471 Z " />
<glyph glyph-name="Gcircumflex" unicode="&#x11c;" horiz-adv-x="614" d="M432 530 Q392 530 350.5 521 Q309 512 272.5 487 Q236 462 208 418 Q180 374 168 303 Q154 222 168.5 174 Q183 126 212 100.5 Q241 75 279 67 Q317 59 349 59 Q383 59 418.5 67 Q454 75 490 92 L514 229 L423 229 L434 294 L595 294 L555 64 Q531 44 502 30.5 Q473 17 443.5 9 Q414 1 386.5 -2.5 Q359 -6 339 -6 Q299 -6 249.5 7 Q200 20 161 54.5 Q122 89 101.5 149.5 Q81 210 98 306 Q113 388 148 443.5 Q183 499 230.5 532.5 Q278 566 333.5 580.5 Q389 595 444 595 Q487 595 529 582.5 Q571 570 606 545 L562 497 Q532 514 498 522 Q464 530 432 530 Z M499 780 L552 657 L483 657 L456 730 L404 657 L335 657 L432 780 L499 780 Z " />
<glyph glyph-name="gcircumflex" unicode="&#x11d;" horiz-adv-x="513" d="M446 -6 Q435 -69 406 -106.5 Q377 -144 341.5 -164.5 Q306 -185 269 -191.5 Q232 -198 205 -198 Q163 -198 127 -191 Q91 -184 65 -168 Q74 -152 79.5 -140.5 Q85 -129 94 -114 Q127 -127 159 -130 Q191 -133 211 -133 Q230 -133 255 -131 Q280 -129 304 -117 Q328 -105 348 -79 Q368 -53 376 -6 L386 51 Q365 30 342 18.5 Q319 7 297 1.5 Q275 -4 257 -5 Q239 -6 228 -6 Q199 -6 169.5 4.5 Q140 15 119 39.5 Q98 64 89 105.5 Q80 147 91 209 Q100 262 123 300 Q146 338 176.5 363 Q207 388 242 399.5 Q277 411 311 411 Q317 411 331.5 410 Q346 409 365 402.5 Q384 396 403.5 383 Q423 370 439 346 L458 405 L519 405 L446 -6 Z M422 251 Q416 278 402 299 Q390 318 369.5 332 Q349 346 315 346 Q302 346 279 342.5 Q256 339 233 325 Q210 311 190 283.5 Q170 256 161 209 Q151 153 161 122.5 Q171 92 189.5 78 Q208 64 229.5 61.5 Q251 59 264 59 Q298 59 324 74 Q350 89 368 107 Q389 127 405 154 L422 251 Z M395 594 L449 471 L380 471 L352 544 L301 471 L232 471 L328 594 L395 594 Z " />
<glyph glyph-name="Gbreve" unicode="&#x11e;" horiz-adv-x="614" d="M432 530 Q392 530 350.5 521 Q309 512 272.5 487 Q236 462 208 418 Q180 374 168 303 Q154 222 168.5 174 Q183 126 212 100.5 Q241 75 279 67 Q317 59 349 59 Q383 59 418.5 67 Q454 75 490 92 L514 229 L423 229 L434 294 L595 294 L555 64 Q531 44 502 30.5 Q473 17 443.5 9 Q414 1 386.5 -2.5 Q359 -6 339 -6 Q299 -6 249.5 7 Q200 20 161 54.5 Q122 89 101.5 149.5 Q81 210 98 306 Q113 388 148 443.5 Q183 499 230.5 532.5 Q278 566 333.5 580.5 Q389 595 444 595 Q487 595 529 582.5 Q571 570 606 545 L562 497 Q532 514 498 522 Q464 530 432 530 Z M443 657 Q464 657 486 661.5 Q508 666 528.5 678 Q549 690 566.5 710.5 Q584 731 596 763 L528 763 Q513 734 494 725 Q475 716 454 716 Q433 716 417 725 Q401 734 396 763 L328 763 Q329 731 339 710.5 Q349 690 365 678 Q381 666 401.5 661.5 Q422 657 443 657 Z " />
<glyph glyph-name="gbreve" unicode="&#x11f;" horiz-adv-x="513" d="M446 -6 Q435 -69 406 -106.5 Q377 -144 341.5 -164.5 Q306 -185 269 -191.5 Q232 -198 205 -198 Q163 -198 127 -191 Q91 -184 65 -168 Q74 -152 79.5 -140.5 Q85 -129 94 -114 Q127 -127 159 -130 Q191 -133 211 -133 Q230 -133 255 -131 Q280 -129 304 -117 Q328 -105 348 -79 Q368 -53 376 -6 L386 51 Q365 30 342 18.5 Q319 7 297 1.5 Q275 -4 257 -5 Q239 -6 228 -6 Q199 -6 169.5 4.5 Q140 15 119 39.5 Q98 64 89 105.5 Q80 147 91 209 Q100 262 123 300 Q146 338 176.5 363 Q207 388 242 399.5 Q277 411 311 411 Q317 411 331.5 410 Q346 409 365 402.5 Q384 396 403.5 383 Q423 370 439 346 L458 405 L519 405 L446 -6 Z M422 251 Q416 278 402 299 Q390 318 369.5 332 Q349 346 315 346 Q302 346 279 342.5 Q256 339 233 325 Q210 311 190 283.5 Q170 256 161 209 Q151 153 161 122.5 Q171 92 189.5 78 Q208 64 229.5 61.5 Q251 59 264 59 Q298 59 324 74 Q350 89 368 107 Q389 127 405 154 L422 251 Z M338 471 Q317 471 296.5 475.5 Q276 480 259.5 492 Q243 504 233 524.5 Q223 545 222 577 L290 577 Q295 548 311 539 Q327 530 348 530 Q369 530 388.5 539 Q408 548 422 577 L490 577 Q478 545 460.5 524.5 Q443 504 423 492 Q403 480 381 475.5 Q359 471 338 471 Z " />
<glyph glyph-name="Gdotaccent" unicode="&#x120;" horiz-adv-x="614" d="M432 530 Q392 530 350.5 521 Q309 512 272.5 487 Q236 462 208 418 Q180 374 168 303 Q154 222 168.5 174 Q183 126 212 100.5 Q241 75 279 67 Q317 59 349 59 Q383 59 418.5 67 Q454 75 490 92 L514 229 L423 229 L434 294 L595 294 L555 64 Q531 44 502 30.5 Q473 17 443.5 9 Q414 1 386.5 -2.5 Q359 -6 339 -6 Q299 -6 249.5 7 Q200 20 161 54.5 Q122 89 101.5 149.5 Q81 210 98 306 Q113 388 148 443.5 Q183 499 230.5 532.5 Q278 566 333.5 580.5 Q389 595 444 595 Q487 595 529 582.5 Q571 570 606 545 L562 497 Q532 514 498 522 Q464 530 432 530 Z M404 657 L472 657 L484 722 L416 722 L404 657 Z " />
<glyph glyph-name="gdotaccent" unicode="&#x121;" horiz-adv-x="513" d="M446 -6 Q435 -69 406 -106.5 Q377 -144 341.5 -164.5 Q306 -185 269 -191.5 Q232 -198 205 -198 Q163 -198 127 -191 Q91 -184 65 -168 Q74 -152 79.5 -140.5 Q85 -129 94 -114 Q127 -127 159 -130 Q191 -133 211 -133 Q230 -133 255 -131 Q280 -129 304 -117 Q328 -105 348 -79 Q368 -53 376 -6 L386 51 Q365 30 342 18.5 Q319 7 297 1.5 Q275 -4 257 -5 Q239 -6 228 -6 Q199 -6 169.5 4.5 Q140 15 119 39.5 Q98 64 89 105.5 Q80 147 91 209 Q100 262 123 300 Q146 338 176.5 363 Q207 388 242 399.5 Q277 411 311 411 Q317 411 331.5 410 Q346 409 365 402.5 Q384 396 403.5 383 Q423 370 439 346 L458 405 L519 405 L446 -6 Z M422 251 Q416 278 402 299 Q390 318 369.5 332 Q349 346 315 346 Q302 346 279 342.5 Q256 339 233 325 Q210 311 190 283.5 Q170 256 161 209 Q151 153 161 122.5 Q171 92 189.5 78 Q208 64 229.5 61.5 Q251 59 264 59 Q298 59 324 74 Q350 89 368 107 Q389 127 405 154 L422 251 Z M307 536 L375 536 L364 471 L296 471 L307 536 Z " />
<glyph glyph-name="uni0122" unicode="&#x122;" horiz-adv-x="614" d="M432 530 Q392 530 350.5 521 Q309 512 272.5 487 Q236 462 208 418 Q180 374 168 303 Q154 222 168.5 174 Q183 126 212 100.5 Q241 75 279 67 Q317 59 349 59 Q383 59 418.5 67 Q454 75 490 92 L514 229 L423 229 L434 294 L595 294 L555 64 Q531 44 502 30.5 Q473 17 443.5 9 Q414 1 386.5 -2.5 Q359 -6 339 -6 Q299 -6 249.5 7 Q200 20 161 54.5 Q122 89 101.5 149.5 Q81 210 98 306 Q113 388 148 443.5 Q183 499 230.5 532.5 Q278 566 333.5 580.5 Q389 595 444 595 Q487 595 529 582.5 Q571 570 606 545 L562 497 Q532 514 498 522 Q464 530 432 530 Z M289 -64 L356 -64 L284 -184 L208 -184 L289 -64 Z " />
<glyph glyph-name="uni0123" unicode="&#x123;" horiz-adv-x="513" d="M446 -6 Q435 -69 406 -106.5 Q377 -144 341.5 -164.5 Q306 -185 269 -191.5 Q232 -198 205 -198 Q163 -198 127 -191 Q91 -184 65 -168 Q74 -152 79.5 -140.5 Q85 -129 94 -114 Q127 -127 159 -130 Q191 -133 211 -133 Q230 -133 255 -131 Q280 -129 304 -117 Q328 -105 348 -79 Q368 -53 376 -6 L386 51 Q365 30 342 18.5 Q319 7 297 1.5 Q275 -4 257 -5 Q239 -6 228 -6 Q199 -6 169.5 4.5 Q140 15 119 39.5 Q98 64 89 105.5 Q80 147 91 209 Q100 262 123 300 Q146 338 176.5 363 Q207 388 242 399.5 Q277 411 311 411 Q317 411 331.5 410 Q346 409 365 402.5 Q384 396 403.5 383 Q423 370 439 346 L458 405 L519 405 L446 -6 Z M422 251 Q416 278 402 299 Q390 318 369.5 332 Q349 346 315 346 Q302 346 279 342.5 Q256 339 233 325 Q210 311 190 283.5 Q170 256 161 209 Q151 153 161 122.5 Q171 92 189.5 78 Q208 64 229.5 61.5 Q251 59 264 59 Q298 59 324 74 Q350 89 368 107 Q389 127 405 154 L422 251 Z M371 470 L304 470 L377 590 L453 590 L371 470 Z " />
<glyph glyph-name="Hcircumflex" unicode="&#x124;" horiz-adv-x="612" d="M646 590 L542 0 L472 0 L516 252 L184 252 L140 0 L70 0 L174 590 L244 590 L195 315 L527 315 L576 590 L646 590 Z M477 780 L530 657 L461 657 L434 730 L382 657 L313 657 L410 780 L477 780 Z " />
<glyph glyph-name="hcircumflex" unicode="&#x125;" horiz-adv-x="492" d="M65 0 L169 590 L239 590 L195 344 Q219 369 243.5 382.5 Q268 396 290 402.5 Q312 409 330 410 Q348 411 358 411 Q383 411 407 400.5 Q431 390 449 370.5 Q467 351 475 323 Q483 295 477 260 L432 0 L362 0 L406 254 Q411 281 405 299 Q399 317 386.5 327.5 Q374 338 357.5 342 Q341 346 326 346 Q293 346 266.5 332.5 Q240 319 220 303 Q198 284 180 260 L135 0 L65 0 Z M344 780 L397 657 L328 657 L301 730 L249 657 L180 657 L277 780 L344 780 Z " />
<glyph glyph-name="Hbar" unicode="&#x126;" horiz-adv-x="638" d="M639 478 L555 0 L485 0 L529 252 L197 252 L153 0 L83 0 L167 478 L104 478 L115 541 L178 541 L187 590 L257 590 L248 541 L580 541 L589 590 L659 590 L650 541 L713 541 L702 478 L639 478 Z M540 315 L569 478 L237 478 L208 315 L540 315 Z " />
<glyph glyph-name="hbar" unicode="&#x127;" horiz-adv-x="513" d="M216 344 Q240 369 264.5 382.5 Q289 396 311 402.5 Q333 409 351 410 Q369 411 379 411 Q404 411 428 400.5 Q452 390 470 370.5 Q488 351 496 323 Q504 295 498 260 L453 0 L383 0 L427 254 Q432 281 426 299 Q420 317 407.5 327.5 Q395 338 378.5 342 Q362 346 347 346 Q314 346 287.5 332.5 Q261 319 241 303 Q219 284 201 260 L156 0 L86 0 L170 481 L89 481 L99 537 L180 537 L190 590 L260 590 L250 537 L336 537 L326 481 L240 481 L216 344 Z " />
<glyph glyph-name="Itilde" unicode="&#x128;" horiz-adv-x="210" d="M345 674 Q328 666 309.5 661.5 Q291 657 276 657 Q259 657 245 663 Q231 669 217.5 675.5 Q204 682 190.5 688 Q177 694 160 694 Q150 694 141.5 693.5 Q133 693 124 690 L113 740 Q130 751 142.5 754 Q155 757 171 757 Q189 757 203.5 751 Q218 745 231.5 738.5 Q245 732 259.5 726 Q274 720 291 720 Q302 720 313.5 721.5 Q325 723 336 728 L345 674 Z M140 0 L70 0 L174 590 L244 590 L140 0 Z " />
<glyph glyph-name="itilde" unicode="&#x129;" horiz-adv-x="210" d="M141 405 L211 405 L140 0 L70 0 L141 405 Z M313 488 Q296 480 277.5 475.5 Q259 471 244 471 Q227 471 213 477 Q199 483 185.5 489.5 Q172 496 158 502 Q144 508 127 508 Q117 508 108.5 507.5 Q100 507 91 504 L80 554 Q97 565 109.5 568 Q122 571 138 571 Q156 571 170.5 565 Q185 559 199 552.5 Q213 546 227.5 540 Q242 534 259 534 Q270 534 281 535.5 Q292 537 303 542 L313 488 Z " />
<glyph glyph-name="Imacron" unicode="&#x12a;" horiz-adv-x="210" d="M174 590 L244 590 L140 0 L70 0 L174 590 Z M127 657 L139 721 L326 721 L314 657 L127 657 Z " />
<glyph glyph-name="imacron" unicode="&#x12b;" horiz-adv-x="210" d="M141 405 L211 405 L140 0 L70 0 L141 405 Z M95 471 L106 535 L293 535 L282 471 L95 471 Z " />
<glyph glyph-name="Iogonek" unicode="&#x12e;" horiz-adv-x="210" d="M174 590 L244 590 L140 0 L70 0 L174 590 Z M-19 -184 L56 -184 L128 -64 L61 -64 L-19 -184 Z " />
<glyph glyph-name="iogonek" unicode="&#x12f;" horiz-adv-x="210" d="M141 405 L211 405 L140 0 L70 0 L141 405 Z M167 554 L237 554 L223 475 L153 475 L167 554 Z M-18 -184 L57 -184 L129 -64 L62 -64 L-18 -184 Z " />
<glyph glyph-name="Idotaccent" unicode="&#x130;" horiz-adv-x="210" d="M174 590 L244 590 L140 0 L70 0 L174 590 Z M199 736 L269 736 L255 657 L185 657 L199 736 Z " />
<glyph glyph-name="dotlessi" unicode="&#x131;" horiz-adv-x="210" d="M141 405 L211 405 L140 0 L70 0 L141 405 Z " />
<glyph glyph-name="Jcircumflex" unicode="&#x134;" horiz-adv-x="470" d="M434 590 L504 590 L434 195 Q422 130 392 91 Q362 52 325 31 Q288 10 249.5 2.5 Q211 -5 184 -6 Q169 -6 149.5 -5.5 Q130 -5 109 -1.5 Q88 2 67.5 9 Q47 16 30 29 L66 78 Q102 64 132.5 61.5 Q163 59 186 59 Q203 59 229.5 61.5 Q256 64 283 77.5 Q310 91 333 119.5 Q356 148 365 200 L434 590 Z M462 780 L515 657 L446 657 L419 730 L367 657 L298 657 L395 780 L462 780 Z " />
<glyph glyph-name="jcircumflex" unicode="&#x135;" horiz-adv-x="210" d="M141 405 L211 405 L129 -60 Q126 -79 117 -103 Q108 -127 89.5 -148 Q71 -169 41.5 -183.5 Q12 -198 -33 -198 Q-71 -198 -89 -195.5 Q-107 -193 -118 -189 L-107 -129 Q-93 -130 -80 -131 Q-68 -132 -57 -132.5 Q-46 -133 -39 -133 Q-10 -133 8 -126.5 Q26 -120 37.5 -105.5 Q49 -91 55.5 -67.5 Q62 -44 68 -10 L141 405 Z M243 594 L297 471 L228 471 L200 544 L149 471 L80 471 L176 594 L243 594 Z " />
<glyph glyph-name="uni0136" unicode="&#x136;" horiz-adv-x="532" d="M522 0 L425 0 L190 285 L140 0 L70 0 L174 590 L244 590 L194 310 L529 590 L626 590 L279 296 L522 0 Z M238 -64 L305 -64 L233 -184 L157 -184 L238 -64 Z " />
<glyph glyph-name="uni0137" unicode="&#x137;" horiz-adv-x="440" d="M337 0 L173 217 L135 0 L65 0 L169 590 L239 590 L177 243 L379 405 L480 405 L260 227 L432 0 L337 0 Z M120 -184 L196 -184 L268 -64 L201 -64 L120 -184 Z " />
<glyph glyph-name="kgreenlandic" unicode="&#x138;" horiz-adv-x="440" d="M337 0 L173 217 L135 0 L65 0 L136 405 L206 405 L177 243 L379 405 L480 405 L260 227 L432 0 L337 0 Z " />
<glyph glyph-name="Lacute" unicode="&#x139;" horiz-adv-x="479" d="M151 63 L445 63 L434 0 L70 0 L174 590 L244 590 L151 63 Z M252 657 L185 657 L258 777 L334 777 L252 657 Z " />
<glyph glyph-name="lacute" unicode="&#x13a;" horiz-adv-x="210" d="M140 0 L70 0 L174 590 L244 590 L140 0 Z M255 657 L188 657 L261 777 L337 777 L255 657 Z " />
<glyph glyph-name="uni013B" unicode="&#x13b;" horiz-adv-x="479" d="M151 63 L445 63 L434 0 L70 0 L174 590 L244 590 L151 63 Z M148 -184 L224 -184 L296 -64 L229 -64 L148 -184 Z " />
<glyph glyph-name="uni013C" unicode="&#x13c;" horiz-adv-x="210" d="M174 590 L244 590 L140 0 L70 0 L174 590 Z M-19 -184 L56 -184 L128 -64 L61 -64 L-19 -184 Z " />
<glyph glyph-name="Lcaron" unicode="&#x13d;" horiz-adv-x="479" d="M151 63 L445 63 L434 0 L70 0 L174 590 L244 590 L151 63 Z M488 590 L412 590 L339 470 L406 470 L488 590 Z " />
<glyph glyph-name="lcaron" unicode="&#x13e;" horiz-adv-x="338" d="M174 590 L244 590 L140 0 L70 0 L174 590 Z M417 590 L341 590 L268 470 L335 470 L417 590 Z " />
<glyph glyph-name="Lslash" unicode="&#x141;" horiz-adv-x="539" d="M255 312 L211 63 L505 63 L494 0 L130 0 L180 289 L75 256 L87 324 L192 357 L234 590 L304 590 L267 381 L382 417 L370 348 L255 312 Z " />
<glyph glyph-name="lslash" unicode="&#x142;" horiz-adv-x="358" d="M267 334 L209 0 L139 0 L193 311 L78 275 L90 345 L206 380 L243 590 L313 590 L279 402 L405 441 L393 373 L267 334 Z " />
<glyph glyph-name="Nacute" unicode="&#x143;" horiz-adv-x="634" d="M226 491 L140 0 L70 0 L174 590 L263 590 L510 92 L598 590 L668 590 L564 0 L473 0 L226 491 Z M482 657 L415 657 L488 777 L564 777 L482 657 Z " />
<glyph glyph-name="nacute" unicode="&#x144;" horiz-adv-x="492" d="M65 0 L136 405 L197 405 L196 345 Q220 370 244 383.5 Q268 397 290 403 Q312 409 330 410 Q348 411 358 411 Q383 411 407 400.5 Q431 390 449 370.5 Q467 351 475 323 Q483 295 477 260 L432 0 L362 0 L406 254 Q411 281 405 299 Q399 317 386.5 327.5 Q374 338 357.5 342 Q341 346 326 346 Q293 346 266.5 332.5 Q240 319 220 303 Q198 284 180 260 L135 0 L65 0 Z M371 471 L304 471 L376 591 L452 591 L371 471 Z " />
<glyph glyph-name="uni0145" unicode="&#x145;" horiz-adv-x="634" d="M226 491 L140 0 L70 0 L174 590 L263 590 L510 92 L598 590 L668 590 L564 0 L473 0 L226 491 Z M203 -184 L279 -184 L351 -64 L284 -64 L203 -184 Z " />
<glyph glyph-name="uni0146" unicode="&#x146;" horiz-adv-x="492" d="M65 0 L136 405 L197 405 L196 345 Q220 370 244 383.5 Q268 397 290 403 Q312 409 330 410 Q348 411 358 411 Q383 411 407 400.5 Q431 390 449 370.5 Q467 351 475 323 Q483 295 477 260 L432 0 L362 0 L406 254 Q411 281 405 299 Q399 317 386.5 327.5 Q374 338 357.5 342 Q341 346 326 346 Q293 346 266.5 332.5 Q240 319 220 303 Q198 284 180 260 L135 0 L65 0 Z M134 -184 L210 -184 L282 -64 L215 -64 L134 -184 Z " />
<glyph glyph-name="Ncaron" unicode="&#x147;" horiz-adv-x="634" d="M226 491 L140 0 L70 0 L174 590 L263 590 L510 92 L598 590 L668 590 L564 0 L473 0 L226 491 Z M402 657 L349 780 L418 780 L444 707 L497 780 L566 780 L469 657 L402 657 Z " />
<glyph glyph-name="ncaron" unicode="&#x148;" horiz-adv-x="492" d="M65 0 L136 405 L197 405 L196 345 Q220 370 244 383.5 Q268 397 290 403 Q312 409 330 410 Q348 411 358 411 Q383 411 407 400.5 Q431 390 449 370.5 Q467 351 475 323 Q483 295 477 260 L432 0 L362 0 L406 254 Q411 281 405 299 Q399 317 386.5 327.5 Q374 338 357.5 342 Q341 346 326 346 Q293 346 266.5 332.5 Q240 319 220 303 Q198 284 180 260 L135 0 L65 0 Z M288 471 L234 594 L303 594 L329 521 L382 594 L451 594 L355 471 L288 471 Z " />
<glyph glyph-name="Eng" unicode="&#x14a;" horiz-adv-x="634" d="M553 -60 Q550 -79 541 -103 Q532 -127 513.5 -148 Q495 -169 465 -183.5 Q435 -198 390 -198 Q352 -198 334 -195.5 Q316 -193 305 -189 L316 -129 Q330 -130 343 -131 Q355 -132 366 -132.5 Q377 -133 384 -133 Q411 -133 428.5 -127.5 Q446 -122 457 -110 Q468 -98 475 -78.5 Q482 -59 488 -31 L226 491 L140 0 L70 0 L174 590 L263 590 L510 92 L598 590 L668 590 L553 -60 Z " />
<glyph glyph-name="eng" unicode="&#x14b;" horiz-adv-x="492" d="M406 254 Q411 281 405 299 Q399 317 386.5 327.5 Q374 338 357.5 342 Q341 346 326 346 Q293 346 266.5 332.5 Q240 319 220 303 Q198 284 180 260 L135 0 L65 0 L136 405 L197 405 L196 345 Q220 370 244 383.5 Q268 397 290 403 Q312 409 330 410 Q348 411 358 411 Q383 411 407 400.5 Q431 390 449 370.5 Q467 351 475 323 Q483 295 477 260 L421 -60 Q418 -79 409 -103 Q400 -127 381.5 -148 Q363 -169 333 -183.5 Q303 -198 258 -198 Q220 -198 202 -195.5 Q184 -193 173 -189 L184 -129 Q198 -130 211 -131 Q223 -132 234 -132.5 Q245 -133 252 -133 Q281 -133 299.5 -126.5 Q318 -120 329.5 -105.5 Q341 -91 347.5 -67.5 Q354 -44 360 -10 L406 254 Z " />
<glyph glyph-name="Omacron" unicode="&#x14c;" horiz-adv-x="676" d="M348 59 Q380 59 418.5 67 Q457 75 494 100.5 Q531 126 561 174.5 Q591 223 605 304 Q617 375 606.5 419 Q596 463 570 487.5 Q544 512 507.5 521 Q471 530 431 530 Q391 530 351.5 521 Q312 512 277.5 487.5 Q243 463 216.5 419 Q190 375 178 304 Q164 223 176.5 174.5 Q189 126 216.5 100.5 Q244 75 280 67 Q316 59 348 59 Z M336 -6 Q296 -6 249 7 Q202 20 165 54.5 Q128 89 110 150 Q92 211 109 307 Q123 387 158.5 442 Q194 497 241 531 Q288 565 341 580 Q394 595 442 595 Q490 595 538 580 Q586 565 621 531 Q656 497 672.5 442 Q689 387 675 307 Q658 211 618 150 Q578 89 529 54.5 Q480 20 428.5 7 Q377 -6 336 -6 Z M299 657 L311 721 L616 721 L604 657 L299 657 Z " />
<glyph glyph-name="omacron" unicode="&#x14d;" horiz-adv-x="502" d="M261 59 Q281 59 304.5 64 Q328 69 350.5 84.5 Q373 100 391 128.5 Q409 157 418 205 Q425 246 417 273.5 Q409 301 392.5 317 Q376 333 354.5 339.5 Q333 346 312 346 Q291 346 267 339.5 Q243 333 220.5 317 Q198 301 180.5 273.5 Q163 246 156 205 Q147 157 155 128.5 Q163 100 180 84.5 Q197 69 219.5 64 Q242 59 261 59 Z M249 -6 Q221 -6 187.5 3.5 Q154 13 128 37 Q102 61 88.5 102 Q75 143 86 207 Q95 261 121 299.5 Q147 338 181 363 Q215 388 252.5 399.5 Q290 411 323 411 Q356 411 389 399.5 Q422 388 447.5 363 Q473 338 485 299.5 Q497 261 488 207 Q477 143 448.5 102 Q420 61 385 37 Q350 13 313.5 3.5 Q277 -6 249 -6 Z M182 471 L193 535 L498 535 L487 471 L182 471 Z " />
<glyph glyph-name="Ohungarumlaut" unicode="&#x150;" horiz-adv-x="676" d="M348 59 Q380 59 418.5 67 Q457 75 494 100.5 Q531 126 561 174.5 Q591 223 605 304 Q617 375 606.5 419 Q596 463 570 487.5 Q544 512 507.5 521 Q471 530 431 530 Q391 530 351.5 521 Q312 512 277.5 487.5 Q243 463 216.5 419 Q190 375 178 304 Q164 223 176.5 174.5 Q189 126 216.5 100.5 Q244 75 280 67 Q316 59 348 59 Z M336 -6 Q296 -6 249 7 Q202 20 165 54.5 Q128 89 110 150 Q92 211 109 307 Q123 387 158.5 442 Q194 497 241 531 Q288 565 341 580 Q394 595 442 595 Q490 595 538 580 Q586 565 621 531 Q656 497 672.5 442 Q689 387 675 307 Q658 211 618 150 Q578 89 529 54.5 Q480 20 428.5 7 Q377 -6 336 -6 Z M422 657 L361 657 L412 767 L488 767 L422 657 Z M540 657 L479 657 L530 767 L606 767 L540 657 Z " />
<glyph glyph-name="ohungarumlaut" unicode="&#x151;" horiz-adv-x="502" d="M261 59 Q281 59 304.5 64 Q328 69 350.5 84.5 Q373 100 391 128.5 Q409 157 418 205 Q425 246 417 273.5 Q409 301 392.5 317 Q376 333 354.5 339.5 Q333 346 312 346 Q291 346 267 339.5 Q243 333 220.5 317 Q198 301 180.5 273.5 Q163 246 156 205 Q147 157 155 128.5 Q163 100 180 84.5 Q197 69 219.5 64 Q242 59 261 59 Z M249 -6 Q221 -6 187.5 3.5 Q154 13 128 37 Q102 61 88.5 102 Q75 143 86 207 Q95 261 121 299.5 Q147 338 181 363 Q215 388 252.5 399.5 Q290 411 323 411 Q356 411 389 399.5 Q422 388 447.5 363 Q473 338 485 299.5 Q497 261 488 207 Q477 143 448.5 102 Q420 61 385 37 Q350 13 313.5 3.5 Q277 -6 249 -6 Z M301 471 L240 471 L290 581 L366 581 L301 471 Z M419 471 L358 471 L408 581 L484 581 L419 471 Z " />
<glyph glyph-name="OE" unicode="&#x152;" horiz-adv-x="841" d="M556 528 L521 330 L781 330 L770 267 L510 267 L474 63 L792 63 L781 0 L406 0 Q390 -4 373.5 -5 Q357 -6 339 -6 Q299 -6 249.5 7 Q200 20 161 54.5 Q122 89 101.5 149.5 Q81 210 98 306 Q113 388 148 443.5 Q183 499 230.5 532.5 Q278 566 333.5 580.5 Q389 595 444 595 Q461 595 473.5 594 Q486 593 497 590 L885 590 L874 528 L556 528 Z M349 59 Q369 59 380.5 60 Q392 61 404 65 L485 525 Q474 528 461 529 Q448 530 432 530 Q392 530 350.5 521 Q309 512 272.5 487 Q236 462 208 418 Q180 374 168 303 Q154 222 168.5 174 Q183 126 212 100.5 Q241 75 279 67 Q317 59 349 59 Z " />
<glyph glyph-name="oe" unicode="&#x153;" horiz-adv-x="807" d="M783 176 L482 176 Q483 146 489 123.5 Q495 101 510.5 87 Q526 73 553.5 66 Q581 59 625 59 Q640 59 671.5 62 Q703 65 735 69 L724 11 Q701 3 665.5 -1.5 Q630 -6 582 -6 Q521 -6 483.5 16 Q446 38 429 75 Q409 52 385 36.5 Q361 21 337 11.5 Q313 2 290 -2 Q267 -6 249 -6 Q221 -6 187.5 3.5 Q154 13 128 37 Q102 61 88.5 102 Q75 143 86 207 Q95 261 121 299.5 Q147 338 181 363 Q215 388 252.5 399.5 Q290 411 323 411 Q365 411 407 391.5 Q449 372 472 330 Q501 367 543.5 389 Q586 411 640 411 Q687 411 719 397 Q751 383 769.5 358.5 Q788 334 793.5 301 Q799 268 792 229 L783 176 Z M261 59 Q280 59 303 63.5 Q326 68 348 82.5 Q370 97 388.5 124 Q407 151 416 195 L418 205 Q425 246 417 273.5 Q409 301 392.5 317 Q376 333 354.5 339.5 Q333 346 312 346 Q291 346 267 339.5 Q243 333 220.5 317 Q198 301 180.5 273.5 Q163 246 156 205 Q147 157 155 128.5 Q163 100 180 84.5 Q197 69 219.5 64 Q242 59 261 59 Z M724 241 Q729 273 723 293.5 Q717 314 703.5 325.5 Q690 337 670.5 341.5 Q651 346 628 346 Q526 346 494 241 L724 241 Z " />
<glyph glyph-name="Racute" unicode="&#x154;" horiz-adv-x="558" d="M585 408 Q582 390 574 364.5 Q566 339 550 313 Q534 287 508 265 Q482 243 443 232 Q460 213 470 195 Q480 177 486.5 158.5 Q493 140 496.5 119.5 Q500 99 504 74 Q506 61 508.5 45 Q511 29 516 0 L443 0 L425 98 Q413 162 388.5 189 Q364 216 324 216 L178 216 L140 0 L70 0 L174 590 L442 590 Q472 590 501.5 580.5 Q531 571 552.5 550 Q574 529 584 494 Q594 459 585 408 Z M379 280 Q400 280 420.5 282.5 Q441 285 459.5 297 Q478 309 492.5 334.5 Q507 360 515 407 Q522 446 516.5 469.5 Q511 493 497 505.5 Q483 518 463 522 Q443 526 422 526 L232 526 L189 280 L379 280 Z M408 657 L341 657 L414 777 L490 777 L408 657 Z " />
<glyph glyph-name="racute" unicode="&#x155;" horiz-adv-x="344" d="M374 343 Q360 345 353 345.5 Q346 346 340 346 Q288 346 255 325.5 Q222 305 204 280 Q182 250 172 213 L135 0 L65 0 L136 405 L197 405 L196 346 Q215 370 241 383.5 Q267 397 291 403 Q315 409 334 410 Q353 411 357 411 L386 411 L374 343 Z M215 471 L148 471 L220 591 L296 591 L215 471 Z " />
<glyph glyph-name="uni0156" unicode="&#x156;" horiz-adv-x="558" d="M585 408 Q582 390 574 364.5 Q566 339 550 313 Q534 287 508 265 Q482 243 443 232 Q460 213 470 195 Q480 177 486.5 158.5 Q493 140 496.5 119.5 Q500 99 504 74 Q506 61 508.5 45 Q511 29 516 0 L443 0 L425 98 Q413 162 388.5 189 Q364 216 324 216 L178 216 L140 0 L70 0 L174 590 L442 590 Q472 590 501.5 580.5 Q531 571 552.5 550 Q574 529 584 494 Q594 459 585 408 Z M379 280 Q400 280 420.5 282.5 Q441 285 459.5 297 Q478 309 492.5 334.5 Q507 360 515 407 Q522 446 516.5 469.5 Q511 493 497 505.5 Q483 518 463 522 Q443 526 422 526 L232 526 L189 280 L379 280 Z M171 -184 L247 -184 L319 -64 L252 -64 L171 -184 Z " />
<glyph glyph-name="uni0157" unicode="&#x157;" horiz-adv-x="344" d="M374 343 Q360 345 353 345.5 Q346 346 340 346 Q288 346 255 325.5 Q222 305 204 280 Q182 250 172 213 L135 0 L65 0 L136 405 L197 405 L196 346 Q215 370 241 383.5 Q267 397 291 403 Q315 409 334 410 Q353 411 357 411 L386 411 L374 343 Z M32 -184 L108 -184 L180 -64 L113 -64 L32 -184 Z " />
<glyph glyph-name="Rcaron" unicode="&#x158;" horiz-adv-x="558" d="M585 408 Q582 390 574 364.5 Q566 339 550 313 Q534 287 508 265 Q482 243 443 232 Q460 213 470 195 Q480 177 486.5 158.5 Q493 140 496.5 119.5 Q500 99 504 74 Q506 61 508.5 45 Q511 29 516 0 L443 0 L425 98 Q413 162 388.5 189 Q364 216 324 216 L178 216 L140 0 L70 0 L174 590 L442 590 Q472 590 501.5 580.5 Q531 571 552.5 550 Q574 529 584 494 Q594 459 585 408 Z M379 280 Q400 280 420.5 282.5 Q441 285 459.5 297 Q478 309 492.5 334.5 Q507 360 515 407 Q522 446 516.5 469.5 Q511 493 497 505.5 Q483 518 463 522 Q443 526 422 526 L232 526 L189 280 L379 280 Z M332 657 L279 780 L348 780 L374 707 L427 780 L496 780 L399 657 L332 657 Z " />
<glyph glyph-name="rcaron" unicode="&#x159;" horiz-adv-x="344" d="M374 343 Q360 345 353 345.5 Q346 346 340 346 Q288 346 255 325.5 Q222 305 204 280 Q182 250 172 213 L135 0 L65 0 L136 405 L197 405 L196 346 Q215 370 241 383.5 Q267 397 291 403 Q315 409 334 410 Q353 411 357 411 L386 411 L374 343 Z M223 471 L169 594 L238 594 L264 521 L317 594 L386 594 L290 471 L223 471 Z " />
<glyph glyph-name="Sacute" unicode="&#x15a;" horiz-adv-x="534" d="M378 595 Q445 595 480 588.5 Q515 582 533 573 L522 512 Q491 517 463 521 Q437 525 413.5 527.5 Q390 530 376 530 Q351 530 321.5 528.5 Q292 527 265 518.5 Q238 510 218 492 Q198 474 192 440 Q187 411 211 390.5 Q235 370 273.5 352.5 Q312 335 357.5 318.5 Q403 302 440.5 279.5 Q478 257 500.5 226.5 Q523 196 515 152 Q508 111 486 81 Q464 51 431 31.5 Q398 12 356 3 Q314 -6 266 -6 Q198 -6 149 4.5 Q100 15 75 29 L86 92 Q99 88 119 82.5 Q139 77 163.5 71.5 Q188 66 216.5 62.5 Q245 59 274 59 Q303 59 331.5 63 Q360 67 383.5 77 Q407 87 423.5 105 Q440 123 445 150 Q450 180 426 200.5 Q402 221 363.5 238 Q325 255 279.5 271.5 Q234 288 196.5 310 Q159 332 136.5 363 Q114 394 122 440 Q131 489 155.5 519 Q180 549 215 566 Q250 583 292 589 Q334 595 378 595 Z M401 657 L334 657 L407 777 L483 777 L401 657 Z " />
<glyph glyph-name="sacute" unicode="&#x15b;" horiz-adv-x="422" d="M323 471 L256 471 L328 591 L404 591 L323 471 Z M286 411 Q331 411 361 405.5 Q391 400 408 392 L398 335 Q376 338 357 341 Q338 343 321.5 344.5 Q305 346 295 346 Q232 346 202.5 338 Q173 330 168 304 Q165 288 183 276.5 Q201 265 229.5 254.5 Q258 244 291 233 Q324 222 351 206.5 Q378 191 394.5 169.5 Q411 148 405 116 Q395 59 345 26.5 Q295 -6 210 -6 Q162 -6 124 2.5 Q86 11 66 21 L77 81 Q106 75 133 70 Q158 66 180.5 62.5 Q203 59 217 59 Q233 59 252 61.5 Q271 64 288.5 70 Q306 76 319 86.5 Q332 97 335 114 Q338 131 320 142.5 Q302 154 273.5 164.5 Q245 175 212 186.5 Q179 198 152 213.5 Q125 229 108.5 250.5 Q92 272 98 303 Q103 333 122 354 Q141 375 167 387.5 Q193 400 224.5 405.5 Q256 411 286 411 Z " />
<glyph glyph-name="Scircumflex" unicode="&#x15c;" horiz-adv-x="534" d="M378 595 Q445 595 480 588.5 Q515 582 533 573 L522 512 Q491 517 463 521 Q437 525 413.5 527.5 Q390 530 376 530 Q351 530 321.5 528.5 Q292 527 265 518.5 Q238 510 218 492 Q198 474 192 440 Q187 411 211 390.5 Q235 370 273.5 352.5 Q312 335 357.5 318.5 Q403 302 440.5 279.5 Q478 257 500.5 226.5 Q523 196 515 152 Q508 111 486 81 Q464 51 431 31.5 Q398 12 356 3 Q314 -6 266 -6 Q198 -6 149 4.5 Q100 15 75 29 L86 92 Q99 88 119 82.5 Q139 77 163.5 71.5 Q188 66 216.5 62.5 Q245 59 274 59 Q303 59 331.5 63 Q360 67 383.5 77 Q407 87 423.5 105 Q440 123 445 150 Q450 180 426 200.5 Q402 221 363.5 238 Q325 255 279.5 271.5 Q234 288 196.5 310 Q159 332 136.5 363 Q114 394 122 440 Q131 489 155.5 519 Q180 549 215 566 Q250 583 292 589 Q334 595 378 595 Z M433 780 L486 657 L417 657 L390 730 L338 657 L269 657 L366 780 L433 780 Z " />
<glyph glyph-name="scircumflex" unicode="&#x15d;" horiz-adv-x="422" d="M365 594 L419 471 L350 471 L322 544 L271 471 L202 471 L298 594 L365 594 Z M286 411 Q331 411 361 405.5 Q391 400 408 392 L398 335 Q376 338 357 341 Q338 343 321.5 344.5 Q305 346 295 346 Q232 346 202.5 338 Q173 330 168 304 Q165 288 183 276.5 Q201 265 229.5 254.5 Q258 244 291 233 Q324 222 351 206.5 Q378 191 394.5 169.5 Q411 148 405 116 Q395 59 345 26.5 Q295 -6 210 -6 Q162 -6 124 2.5 Q86 11 66 21 L77 81 Q106 75 133 70 Q158 66 180.5 62.5 Q203 59 217 59 Q233 59 252 61.5 Q271 64 288.5 70 Q306 76 319 86.5 Q332 97 335 114 Q338 131 320 142.5 Q302 154 273.5 164.5 Q245 175 212 186.5 Q179 198 152 213.5 Q125 229 108.5 250.5 Q92 272 98 303 Q103 333 122 354 Q141 375 167 387.5 Q193 400 224.5 405.5 Q256 411 286 411 Z " />
<glyph glyph-name="Scedilla" unicode="&#x15e;" horiz-adv-x="534" d="M378 595 Q445 595 480 588.5 Q515 582 533 573 L522 512 Q491 517 463 521 Q437 525 413.5 527.5 Q390 530 376 530 Q351 530 321.5 528.5 Q292 527 265 518.5 Q238 510 218 492 Q198 474 192 440 Q187 411 211 390.5 Q235 370 273.5 352.5 Q312 335 357.5 318.5 Q403 302 440.5 279.5 Q478 257 500.5 226.5 Q523 196 515 152 Q508 111 486 81 Q464 51 431 31.5 Q398 12 356 3 Q314 -6 266 -6 Q198 -6 149 4.5 Q100 15 75 29 L86 92 Q99 88 119 82.5 Q139 77 163.5 71.5 Q188 66 216.5 62.5 Q245 59 274 59 Q303 59 331.5 63 Q360 67 383.5 77 Q407 87 423.5 105 Q440 123 445 150 Q450 180 426 200.5 Q402 221 363.5 238 Q325 255 279.5 271.5 Q234 288 196.5 310 Q159 332 136.5 363 Q114 394 122 440 Q131 489 155.5 519 Q180 549 215 566 Q250 583 292 589 Q334 595 378 595 Z M165 -184 L241 -184 L313 -64 L246 -64 L165 -184 Z " />
<glyph glyph-name="scedilla" unicode="&#x15f;" horiz-adv-x="422" d="M117 -184 L193 -184 L265 -64 L198 -64 L117 -184 Z M286 411 Q331 411 361 405.5 Q391 400 408 392 L398 335 Q376 338 357 341 Q338 343 321.5 344.5 Q305 346 295 346 Q232 346 202.5 338 Q173 330 168 304 Q165 288 183 276.5 Q201 265 229.5 254.5 Q258 244 291 233 Q324 222 351 206.5 Q378 191 394.5 169.5 Q411 148 405 116 Q395 59 345 26.5 Q295 -6 210 -6 Q162 -6 124 2.5 Q86 11 66 21 L77 81 Q106 75 133 70 Q158 66 180.5 62.5 Q203 59 217 59 Q233 59 252 61.5 Q271 64 288.5 70 Q306 76 319 86.5 Q332 97 335 114 Q338 131 320 142.5 Q302 154 273.5 164.5 Q245 175 212 186.5 Q179 198 152 213.5 Q125 229 108.5 250.5 Q92 272 98 303 Q103 333 122 354 Q141 375 167 387.5 Q193 400 224.5 405.5 Q256 411 286 411 Z " />
<glyph glyph-name="Scaron" unicode="&#x160;" horiz-adv-x="534" d="M378 595 Q445 595 480 588.5 Q515 582 533 573 L522 512 Q491 517 463 521 Q437 525 413.5 527.5 Q390 530 376 530 Q351 530 321.5 528.5 Q292 527 265 518.5 Q238 510 218 492 Q198 474 192 440 Q187 411 211 390.5 Q235 370 273.5 352.5 Q312 335 357.5 318.5 Q403 302 440.5 279.5 Q478 257 500.5 226.5 Q523 196 515 152 Q508 111 486 81 Q464 51 431 31.5 Q398 12 356 3 Q314 -6 266 -6 Q198 -6 149 4.5 Q100 15 75 29 L86 92 Q99 88 119 82.5 Q139 77 163.5 71.5 Q188 66 216.5 62.5 Q245 59 274 59 Q303 59 331.5 63 Q360 67 383.5 77 Q407 87 423.5 105 Q440 123 445 150 Q450 180 426 200.5 Q402 221 363.5 238 Q325 255 279.5 271.5 Q234 288 196.5 310 Q159 332 136.5 363 Q114 394 122 440 Q131 489 155.5 519 Q180 549 215 566 Q250 583 292 589 Q334 595 378 595 Z M344 657 L291 780 L360 780 L386 707 L439 780 L508 780 L411 657 L344 657 Z " />
<glyph glyph-name="scaron" unicode="&#x161;" horiz-adv-x="422" d="M263 471 L209 594 L278 594 L304 521 L357 594 L426 594 L330 471 L263 471 Z M286 411 Q331 411 361 405.5 Q391 400 408 392 L398 335 Q376 338 357 341 Q338 343 321.5 344.5 Q305 346 295 346 Q232 346 202.5 338 Q173 330 168 304 Q165 288 183 276.5 Q201 265 229.5 254.5 Q258 244 291 233 Q324 222 351 206.5 Q378 191 394.5 169.5 Q411 148 405 116 Q395 59 345 26.5 Q295 -6 210 -6 Q162 -6 124 2.5 Q86 11 66 21 L77 81 Q106 75 133 70 Q158 66 180.5 62.5 Q203 59 217 59 Q233 59 252 61.5 Q271 64 288.5 70 Q306 76 319 86.5 Q332 97 335 114 Q338 131 320 142.5 Q302 154 273.5 164.5 Q245 175 212 186.5 Q179 198 152 213.5 Q125 229 108.5 250.5 Q92 272 98 303 Q103 333 122 354 Q141 375 167 387.5 Q193 400 224.5 405.5 Q256 411 286 411 Z " />
<glyph glyph-name="uni0162" unicode="&#x162;" horiz-adv-x="532" d="M149 590 L591 590 L579 527 L393 527 L301 0 L231 0 L323 527 L137 527 L149 590 Z M141 -184 L217 -184 L289 -64 L222 -64 L141 -184 Z " />
<glyph glyph-name="uni0163" unicode="&#x163;" horiz-adv-x="364" d="M84 340 L89 368 L257 556 L268 556 L241 405 L390 405 L378 340 L229 340 L198 159 Q192 124 193 104 Q194 84 203.5 74 Q213 64 231 61.5 Q249 59 276 59 Q289 59 302.5 61 Q316 63 330 65 L320 7 Q309 1 291.5 -2.5 Q274 -6 238 -6 Q193 -6 168 8 Q143 22 132 44.5 Q121 67 121.5 96 Q122 125 127 156 L159 340 L84 340 Z M105 -184 L181 -184 L253 -64 L186 -64 L105 -184 Z " />
<glyph glyph-name="Tcaron" unicode="&#x164;" horiz-adv-x="532" d="M149 590 L591 590 L579 527 L393 527 L301 0 L231 0 L323 527 L137 527 L149 590 Z M348 657 L295 780 L364 780 L390 707 L443 780 L512 780 L415 657 L348 657 Z " />
<glyph glyph-name="tcaron" unicode="&#x165;" horiz-adv-x="404" d="M94 340 L99 368 L267 556 L278 556 L251 405 L400 405 L388 340 L239 340 L208 159 Q202 124 203 104 Q204 84 213.5 74 Q223 64 241 61.5 Q259 59 286 59 Q299 59 312.5 61 Q326 63 340 65 L330 7 Q319 1 301.5 -2.5 Q284 -6 248 -6 Q203 -6 178 8 Q153 22 142 44.5 Q131 67 131.5 96 Q132 125 137 156 L169 340 L94 340 Z M406 470 L339 470 L412 590 L488 590 L406 470 Z " />
<glyph glyph-name="Tbar" unicode="&#x166;" horiz-adv-x="532" d="M346 256 L301 0 L231 0 L276 256 L158 256 L169 320 L287 320 L323 527 L137 527 L149 590 L591 590 L579 527 L393 527 L357 320 L475 320 L464 256 L346 256 Z " />
<glyph glyph-name="tbar" unicode="&#x167;" horiz-adv-x="364" d="M72 268 L147 268 L159 340 L84 340 L89 368 L257 556 L268 556 L241 405 L390 405 L378 340 L229 340 L217 268 L366 268 L354 203 L205 203 L198 159 Q192 124 193 104 Q194 84 203.5 74 Q213 64 231 61.5 Q249 59 276 59 Q289 59 302.5 61 Q316 63 330 65 L320 7 Q309 1 291.5 -2.5 Q274 -6 238 -6 Q193 -6 168 8 Q143 22 132 44.5 Q121 67 121.5 96 Q122 125 127 156 L135 203 L60 203 L72 268 Z " />
<glyph glyph-name="Utilde" unicode="&#x168;" horiz-adv-x="614" d="M305 -6 Q266 -6 225.5 4.5 Q185 15 156 44 Q127 73 114 126 Q101 179 116 266 L174 590 L244 590 L188 277 Q177 212 183.5 170 Q190 128 208.5 103 Q227 78 255.5 68.5 Q284 59 317 59 Q350 59 382 68.5 Q414 78 441.5 103 Q469 128 490 170 Q511 212 522 277 L578 590 L648 590 L590 266 Q575 179 543.5 126 Q512 73 472.5 44 Q433 15 389 4.5 Q345 -6 305 -6 Z M545 674 Q528 666 509.5 661.5 Q491 657 476 657 Q459 657 445 663 Q431 669 417.5 675.5 Q404 682 390.5 688 Q377 694 360 694 Q350 694 341.5 693.5 Q333 693 324 690 L313 740 Q330 751 342.5 754 Q355 757 371 757 Q389 757 403.5 751 Q418 745 431.5 738.5 Q445 732 459.5 726 Q474 720 491 720 Q502 720 513.5 721.5 Q525 723 536 728 L545 674 Z " />
<glyph glyph-name="utilde" unicode="&#x169;" horiz-adv-x="492" d="M498 405 L427 0 L366 0 L366 60 Q342 35 318 21.5 Q294 8 272 2 Q250 -4 232.5 -5 Q215 -6 204 -6 Q179 -6 155 4.5 Q131 15 113.5 34.5 Q96 54 87.5 82 Q79 110 85 145 L131 405 L201 405 L156 151 Q151 124 157.5 106.5 Q164 89 176.5 78.5 Q189 68 205.5 63.5 Q222 59 237 59 Q270 59 296.5 72.5 Q323 86 342 102 Q364 121 382 145 L428 405 L498 405 Z M451 488 Q434 480 415.5 475.5 Q397 471 382 471 Q365 471 351 477 Q337 483 323.5 489.5 Q310 496 296 502 Q282 508 265 508 Q255 508 246.5 507.5 Q238 507 229 504 L218 554 Q235 565 247.5 568 Q260 571 276 571 Q294 571 308.5 565 Q323 559 337 552.5 Q351 546 365.5 540 Q380 534 397 534 Q408 534 419 535.5 Q430 537 441 542 L451 488 Z " />
<glyph glyph-name="Umacron" unicode="&#x16a;" horiz-adv-x="614" d="M305 -6 Q266 -6 225.5 4.5 Q185 15 156 44 Q127 73 114 126 Q101 179 116 266 L174 590 L244 590 L188 277 Q177 212 183.5 170 Q190 128 208.5 103 Q227 78 255.5 68.5 Q284 59 317 59 Q350 59 382 68.5 Q414 78 441.5 103 Q469 128 490 170 Q511 212 522 277 L578 590 L648 590 L590 266 Q575 179 543.5 126 Q512 73 472.5 44 Q433 15 389 4.5 Q345 -6 305 -6 Z M268 657 L280 721 L585 721 L573 657 L268 657 Z " />
<glyph glyph-name="umacron" unicode="&#x16b;" horiz-adv-x="492" d="M498 405 L427 0 L366 0 L366 60 Q342 35 318 21.5 Q294 8 272 2 Q250 -4 232.5 -5 Q215 -6 204 -6 Q179 -6 155 4.5 Q131 15 113.5 34.5 Q96 54 87.5 82 Q79 110 85 145 L131 405 L201 405 L156 151 Q151 124 157.5 106.5 Q164 89 176.5 78.5 Q189 68 205.5 63.5 Q222 59 237 59 Q270 59 296.5 72.5 Q323 86 342 102 Q364 121 382 145 L428 405 L498 405 Z M173 471 L184 535 L489 535 L478 471 L173 471 Z " />
<glyph glyph-name="Ubreve" unicode="&#x16c;" horiz-adv-x="614" d="M305 -6 Q266 -6 225.5 4.5 Q185 15 156 44 Q127 73 114 126 Q101 179 116 266 L174 590 L244 590 L188 277 Q177 212 183.5 170 Q190 128 208.5 103 Q227 78 255.5 68.5 Q284 59 317 59 Q350 59 382 68.5 Q414 78 441.5 103 Q469 128 490 170 Q511 212 522 277 L578 590 L648 590 L590 266 Q575 179 543.5 126 Q512 73 472.5 44 Q433 15 389 4.5 Q345 -6 305 -6 Z M422 657 Q401 657 380.5 661.5 Q360 666 344 678 Q328 690 318 710.5 Q308 731 307 763 L375 763 Q380 734 396 725 Q412 716 433 716 Q454 716 473 725 Q492 734 507 763 L575 763 Q563 731 545.5 710.5 Q528 690 507.5 678 Q487 666 465 661.5 Q443 657 422 657 Z " />
<glyph glyph-name="ubreve" unicode="&#x16d;" horiz-adv-x="492" d="M498 405 L427 0 L366 0 L366 60 Q342 35 318 21.5 Q294 8 272 2 Q250 -4 232.5 -5 Q215 -6 204 -6 Q179 -6 155 4.5 Q131 15 113.5 34.5 Q96 54 87.5 82 Q79 110 85 145 L131 405 L201 405 L156 151 Q151 124 157.5 106.5 Q164 89 176.5 78.5 Q189 68 205.5 63.5 Q222 59 237 59 Q270 59 296.5 72.5 Q323 86 342 102 Q364 121 382 145 L428 405 L498 405 Z M327 471 Q306 471 285.5 475.5 Q265 480 248.5 492 Q232 504 222 524.5 Q212 545 211 577 L279 577 Q284 548 300 539 Q316 530 337 530 Q358 530 377.5 539 Q397 548 411 577 L479 577 Q467 545 449.5 524.5 Q432 504 412 492 Q392 480 370 475.5 Q348 471 327 471 Z " />
<glyph glyph-name="Uring" unicode="&#x16e;" horiz-adv-x="614" d="M305 -6 Q266 -6 225.5 4.5 Q185 15 156 44 Q127 73 114 126 Q101 179 116 266 L174 590 L244 590 L188 277 Q177 212 183.5 170 Q190 128 208.5 103 Q227 78 255.5 68.5 Q284 59 317 59 Q350 59 382 68.5 Q414 78 441.5 103 Q469 128 490 170 Q511 212 522 277 L578 590 L648 590 L590 266 Q575 179 543.5 126 Q512 73 472.5 44 Q433 15 389 4.5 Q345 -6 305 -6 Z M432 712 Q453 712 473.5 727 Q494 742 499 772 Q504 801 489 816.5 Q474 832 453 832 Q432 832 412 816.5 Q392 801 387 772 Q382 742 396.5 727 Q411 712 432 712 Z M422 657 Q368 657 343 691.5 Q318 726 326 772 Q330 795 342 816 Q354 837 372 853 Q390 869 413 878 Q436 887 463 887 Q490 887 510 878 Q530 869 542.5 853 Q555 837 559.5 816 Q564 795 560 772 Q556 749 544 728 Q532 707 514 691.5 Q496 676 472.5 666.5 Q449 657 422 657 Z " />
<glyph glyph-name="uring" unicode="&#x16f;" horiz-adv-x="492" d="M498 405 L427 0 L366 0 L366 60 Q342 35 318 21.5 Q294 8 272 2 Q250 -4 232.5 -5 Q215 -6 204 -6 Q179 -6 155 4.5 Q131 15 113.5 34.5 Q96 54 87.5 82 Q79 110 85 145 L131 405 L201 405 L156 151 Q151 124 157.5 106.5 Q164 89 176.5 78.5 Q189 68 205.5 63.5 Q222 59 237 59 Q270 59 296.5 72.5 Q323 86 342 102 Q364 121 382 145 L428 405 L498 405 Z M335 526 Q356 526 376.5 541 Q397 556 402 586 Q407 615 392 630.5 Q377 646 356 646 Q335 646 315 630.5 Q295 615 290 586 Q285 556 299.5 541 Q314 526 335 526 Z M326 471 Q299 471 279 480.5 Q259 490 246.5 505.5 Q234 521 229.5 542 Q225 563 229 586 Q233 609 245 630 Q257 651 275 667 Q293 683 316 692 Q339 701 366 701 Q393 701 413 692 Q433 683 445.5 667 Q458 651 462.5 630 Q467 609 463 586 Q459 563 447 542 Q435 521 417 505.5 Q399 490 376 480.5 Q353 471 326 471 Z " />
<glyph glyph-name="Uhungarumlaut" unicode="&#x170;" horiz-adv-x="614" d="M391 657 L330 657 L381 767 L457 767 L391 657 Z M509 657 L448 657 L499 767 L575 767 L509 657 Z M305 -6 Q266 -6 225.5 4.5 Q185 15 156 44 Q127 73 114 126 Q101 179 116 266 L174 590 L244 590 L188 277 Q177 212 183.5 170 Q190 128 208.5 103 Q227 78 255.5 68.5 Q284 59 317 59 Q350 59 382 68.5 Q414 78 441.5 103 Q469 128 490 170 Q511 212 522 277 L578 590 L648 590 L590 266 Q575 179 543.5 126 Q512 73 472.5 44 Q433 15 389 4.5 Q345 -6 305 -6 Z " />
<glyph glyph-name="uhungarumlaut" unicode="&#x171;" horiz-adv-x="492" d="M498 405 L427 0 L366 0 L366 60 Q342 35 318 21.5 Q294 8 272 2 Q250 -4 232.5 -5 Q215 -6 204 -6 Q179 -6 155 4.5 Q131 15 113.5 34.5 Q96 54 87.5 82 Q79 110 85 145 L131 405 L201 405 L156 151 Q151 124 157.5 106.5 Q164 89 176.5 78.5 Q189 68 205.5 63.5 Q222 59 237 59 Q270 59 296.5 72.5 Q323 86 342 102 Q364 121 382 145 L428 405 L498 405 Z M295 471 L234 471 L284 581 L360 581 L295 471 Z M413 471 L352 471 L402 581 L478 581 L413 471 Z " />
<glyph glyph-name="Uogonek" unicode="&#x172;" horiz-adv-x="614" d="M305 -6 Q266 -6 225.5 4.5 Q185 15 156 44 Q127 73 114 126 Q101 179 116 266 L174 590 L244 590 L188 277 Q177 212 183.5 170 Q190 128 208.5 103 Q227 78 255.5 68.5 Q284 59 317 59 Q350 59 382 68.5 Q414 78 441.5 103 Q469 128 490 170 Q511 212 522 277 L578 590 L648 590 L590 266 Q575 179 543.5 126 Q512 73 472.5 44 Q433 15 389 4.5 Q345 -6 305 -6 Z M177 -184 L253 -184 L325 -64 L258 -64 L177 -184 Z " />
<glyph glyph-name="uogonek" unicode="&#x173;" horiz-adv-x="492" d="M498 405 L427 0 L366 0 L366 60 Q342 35 318 21.5 Q294 8 272 2 Q250 -4 232.5 -5 Q215 -6 204 -6 Q179 -6 155 4.5 Q131 15 113.5 34.5 Q96 54 87.5 82 Q79 110 85 145 L131 405 L201 405 L156 151 Q151 124 157.5 106.5 Q164 89 176.5 78.5 Q189 68 205.5 63.5 Q222 59 237 59 Q270 59 296.5 72.5 Q323 86 342 102 Q364 121 382 145 L428 405 L498 405 Z M267 -184 L343 -184 L415 -64 L348 -64 L267 -184 Z " />
<glyph glyph-name="Ydieresis" unicode="&#x178;" horiz-adv-x="557" d="M313 0 L244 0 L279 199 L129 590 L207 590 L327 281 L558 590 L636 590 L348 199 L313 0 Z M301 721 L369 721 L357 656 L289 656 L301 721 Z M442 721 L510 721 L498 656 L430 656 L442 721 Z " />
<glyph glyph-name="Zacute" unicode="&#x179;" horiz-adv-x="517" d="M155 590 L571 590 L556 510 L137 65 L478 65 L467 0 L50 0 L64 84 L483 525 L143 525 L155 590 Z M403 657 L336 657 L409 777 L485 777 L403 657 Z " />
<glyph glyph-name="zacute" unicode="&#x17a;" horiz-adv-x="434" d="M131 405 L445 405 L429 317 L149 65 L385 65 L374 0 L60 0 L74 85 L359 340 L119 340 L131 405 Z M338 471 L271 471 L343 591 L419 591 L338 471 Z " />
<glyph glyph-name="Zdotaccent" unicode="&#x17b;" horiz-adv-x="517" d="M155 590 L571 590 L556 510 L137 65 L478 65 L467 0 L50 0 L64 84 L483 525 L143 525 L155 590 Z M350 722 L418 722 L406 657 L338 657 L350 722 Z " />
<glyph glyph-name="zdotaccent" unicode="&#x17c;" horiz-adv-x="434" d="M131 405 L445 405 L429 317 L149 65 L385 65 L374 0 L60 0 L74 85 L359 340 L119 340 L131 405 Z M274 536 L342 536 L331 471 L263 471 L274 536 Z " />
<glyph glyph-name="Zcaron" unicode="&#x17d;" horiz-adv-x="517" d="M155 590 L571 590 L556 510 L137 65 L478 65 L467 0 L50 0 L64 84 L483 525 L143 525 L155 590 Z M340 657 L287 780 L356 780 L382 707 L435 780 L504 780 L407 657 L340 657 Z " />
<glyph glyph-name="zcaron" unicode="&#x17e;" horiz-adv-x="434" d="M131 405 L445 405 L429 317 L149 65 L385 65 L374 0 L60 0 L74 85 L359 340 L119 340 L131 405 Z M274 471 L220 594 L289 594 L315 521 L368 594 L437 594 L341 471 L274 471 Z " />
<glyph glyph-name="florin" unicode="&#x192;" horiz-adv-x="372" d="M176 340 L89 340 L101 405 L188 405 L189 413 Q206 508 252 551.5 Q298 595 364 595 Q396 595 413.5 591.5 Q431 588 439 583 L429 526 Q418 528 401 529 Q384 530 368 530 Q324 530 298 509 Q272 488 261 423 L258 405 L407 405 L395 340 L246 340 L176 -60 Q173 -79 164 -103 Q155 -127 136.5 -148 Q118 -169 88 -183.5 Q58 -198 13 -198 Q-25 -198 -42.5 -195.5 Q-60 -193 -71 -189 L-60 -129 Q-46 -130 -33 -131 Q-21 -132 -10 -132.5 Q1 -133 7 -133 Q36 -133 54.5 -126.5 Q73 -120 84.5 -105.5 Q96 -91 102.5 -67.5 Q109 -44 115 -10 L176 340 Z " />
<glyph glyph-name="uni0218" unicode="&#x218;" horiz-adv-x="534" d="M378 595 Q445 595 480 588.5 Q515 582 533 573 L522 512 Q491 517 463 521 Q437 525 413.5 527.5 Q390 530 376 530 Q351 530 321.5 528.5 Q292 527 265 518.5 Q238 510 218 492 Q198 474 192 440 Q187 411 211 390.5 Q235 370 273.5 352.5 Q312 335 357.5 318.5 Q403 302 440.5 279.5 Q478 257 500.5 226.5 Q523 196 515 152 Q508 111 486 81 Q464 51 431 31.5 Q398 12 356 3 Q314 -6 266 -6 Q198 -6 149 4.5 Q100 15 75 29 L86 92 Q99 88 119 82.5 Q139 77 163.5 71.5 Q188 66 216.5 62.5 Q245 59 274 59 Q303 59 331.5 63 Q360 67 383.5 77 Q407 87 423.5 105 Q440 123 445 150 Q450 180 426 200.5 Q402 221 363.5 238 Q325 255 279.5 271.5 Q234 288 196.5 310 Q159 332 136.5 363 Q114 394 122 440 Q131 489 155.5 519 Q180 549 215 566 Q250 583 292 589 Q334 595 378 595 Z M165 -184 L241 -184 L313 -64 L246 -64 L165 -184 Z " />
<glyph glyph-name="uni0219" unicode="&#x219;" horiz-adv-x="422" d="M121 -184 L197 -184 L269 -64 L202 -64 L121 -184 Z M286 411 Q331 411 361 405.5 Q391 400 408 392 L398 335 Q376 338 357 341 Q338 343 321.5 344.5 Q305 346 295 346 Q232 346 202.5 338 Q173 330 168 304 Q165 288 183 276.5 Q201 265 229.5 254.5 Q258 244 291 233 Q324 222 351 206.5 Q378 191 394.5 169.5 Q411 148 405 116 Q395 59 345 26.5 Q295 -6 210 -6 Q162 -6 124 2.5 Q86 11 66 21 L77 81 Q106 75 133 70 Q158 66 180.5 62.5 Q203 59 217 59 Q233 59 252 61.5 Q271 64 288.5 70 Q306 76 319 86.5 Q332 97 335 114 Q338 131 320 142.5 Q302 154 273.5 164.5 Q245 175 212 186.5 Q179 198 152 213.5 Q125 229 108.5 250.5 Q92 272 98 303 Q103 333 122 354 Q141 375 167 387.5 Q193 400 224.5 405.5 Q256 411 286 411 Z " />
<glyph glyph-name="uni021A" unicode="&#x21a;" horiz-adv-x="532" d="M149 590 L591 590 L579 527 L393 527 L301 0 L231 0 L323 527 L137 527 L149 590 Z M141 -184 L217 -184 L289 -64 L222 -64 L141 -184 Z " />
<glyph glyph-name="uni021B" unicode="&#x21b;" horiz-adv-x="364" d="M84 340 L89 368 L257 556 L268 556 L241 405 L390 405 L378 340 L229 340 L198 159 Q192 124 193 104 Q194 84 203.5 74 Q213 64 231 61.5 Q249 59 276 59 Q289 59 302.5 61 Q316 63 330 65 L320 7 Q309 1 291.5 -2.5 Q274 -6 238 -6 Q193 -6 168 8 Q143 22 132 44.5 Q121 67 121.5 96 Q122 125 127 156 L159 340 L84 340 Z M105 -184 L181 -184 L253 -64 L186 -64 L105 -184 Z " />
<glyph glyph-name="circumflex" unicode="&#x2c6;" horiz-adv-x="357" d="M316 590 L369 467 L300 467 L273 540 L221 467 L152 467 L249 590 L316 590 Z " />
<glyph glyph-name="caron" unicode="&#x2c7;" horiz-adv-x="357" d="M227 467 L174 590 L243 590 L269 517 L322 590 L391 590 L294 467 L227 467 Z " />
<glyph glyph-name="breve" unicode="&#x2d8;" horiz-adv-x="408" d="M289 484 Q268 484 247.5 488.5 Q227 493 211 505 Q195 517 184.5 537.5 Q174 558 174 590 L242 590 Q247 561 262.5 552 Q278 543 299 543 Q320 543 339.5 552 Q359 561 374 590 L442 590 Q430 558 412 537.5 Q394 517 374 505 Q354 493 332 488.5 Q310 484 289 484 Z " />
<glyph glyph-name="dotaccent" unicode="&#x2d9;" horiz-adv-x="208" d="M174 590 L242 590 L230 525 L162 525 L174 590 Z " />
<glyph glyph-name="ring" unicode="&#x2da;" horiz-adv-x="374" d="M261 420 Q282 420 302 435 Q322 450 327 480 Q332 509 317.5 524.5 Q303 540 282 540 Q261 540 240.5 524.5 Q220 509 215 480 Q210 450 225 435 Q240 420 261 420 Z M251 365 Q224 365 204 374.5 Q184 384 171.5 399.5 Q159 415 154.5 436 Q150 457 154 480 Q158 503 170 524 Q182 545 200 561 Q218 577 241 586 Q264 595 291 595 Q318 595 338 586 Q358 577 370.5 561 Q383 545 387.5 524 Q392 503 388 480 Q384 457 372 436 Q360 415 342 399.5 Q324 384 301 374.5 Q278 365 251 365 Z " />
<glyph glyph-name="ogonek" unicode="&#x2db;" horiz-adv-x="267" d="M128 -6 L195 -6 L123 -126 L47 -126 L128 -6 Z " />
<glyph glyph-name="tilde" unicode="&#x2dc;" horiz-adv-x="384" d="M403 507 Q386 499 367.5 494.5 Q349 490 334 490 Q317 490 303 496 Q289 502 275.5 508.5 Q262 515 248 521 Q234 527 217 527 Q207 527 198.5 526.5 Q190 526 182 523 L171 573 Q188 584 200.5 587 Q213 590 229 590 Q247 590 261.5 584 Q276 578 289.5 571.5 Q303 565 317.5 559 Q332 553 349 553 Q360 553 371 554.5 Q382 556 393 561 L403 507 Z " />
<glyph glyph-name="hungarumlaut" unicode="&#x2dd;" horiz-adv-x="365" d="M215 480 L154 480 L205 590 L281 590 L215 480 Z M333 480 L272 480 L323 590 L399 590 L333 480 Z " />
<glyph glyph-name="uni03A9" unicode="&#x3a9;" horiz-adv-x="760" d="M474 530 Q431 530 394.5 518.5 Q358 507 328.5 479.5 Q299 452 277.5 405 Q256 358 244 287 L231 212 Q216 125 248 78 L235 0 L70 0 L81 65 L176 65 Q166 86 161.5 108 Q157 130 156.5 150 Q156 170 157.5 186.5 Q159 203 161 212 L177 305 Q191 385 222.5 440 Q254 495 296 529.5 Q338 564 387 579.5 Q436 595 484 595 Q532 595 575.5 579.5 Q619 564 649 529.5 Q679 495 691 440 Q703 385 689 305 L673 212 Q671 203 667 186.5 Q663 170 655.5 150 Q648 130 636 108 Q624 86 606 65 L701 65 L690 0 L525 0 L538 78 Q588 125 603 212 L616 287 Q628 358 623.5 405 Q619 452 599.5 479.5 Q580 507 548 518.5 Q516 530 474 530 Z " />
<glyph glyph-name="pi" unicode="&#x3c0;" horiz-adv-x="773" d="M763 342 L652 342 L592 0 L522 0 L582 342 L311 342 L251 0 L181 0 L241 342 L130 342 L141 405 L774 405 L763 342 Z " />
<glyph glyph-name="ZWSP" unicode="&#x200b;" d="" />
<glyph glyph-name="endash" unicode="&#x2013;" horiz-adv-x="444" d="M101 179 L112 242 L416 242 L405 179 L101 179 Z " />
<glyph glyph-name="emdash" unicode="&#x2014;" horiz-adv-x="502" d="M101 179 L112 242 L474 242 L463 179 L101 179 Z " />
<glyph glyph-name="quoteleft" unicode="&#x2018;" horiz-adv-x="264" d="M232 590 L298 590 L230 474 L153 474 L232 590 Z " />
<glyph glyph-name="quoteright" unicode="&#x2019;" horiz-adv-x="264" d="M219 474 L153 474 L221 590 L298 590 L219 474 Z " />
<glyph glyph-name="quotesinglbase" unicode="&#x201a;" horiz-adv-x="264" d="M120 -88 L54 -88 L121 28 L198 28 L120 -88 Z " />
<glyph glyph-name="quotedblleft" unicode="&#x201c;" horiz-adv-x="390" d="M232 590 L298 590 L230 474 L153 474 L232 590 Z M358 590 L424 590 L356 474 L279 474 L358 590 Z " />
<glyph glyph-name="quotedblright" unicode="&#x201d;" horiz-adv-x="390" d="M345 474 L279 474 L347 590 L424 590 L345 474 Z M219 474 L153 474 L221 590 L298 590 L219 474 Z " />
<glyph glyph-name="quotedblbase" unicode="&#x201e;" horiz-adv-x="390" d="M246 -88 L180 -88 L247 28 L324 28 L246 -88 Z M120 -88 L54 -88 L121 28 L198 28 L120 -88 Z " />
<glyph glyph-name="dagger" unicode="&#x2020;" horiz-adv-x="498" d="M141 405 L285 405 L318 590 L388 590 L355 405 L499 405 L488 342 L344 342 L253 -172 L183 -172 L274 342 L130 342 L141 405 Z " />
<glyph glyph-name="daggerdbl" unicode="&#x2021;" horiz-adv-x="498" d="M225 63 L274 342 L130 342 L141 405 L285 405 L318 590 L388 590 L355 405 L499 405 L488 342 L344 342 L295 63 L439 63 L428 0 L284 0 L253 -172 L183 -172 L214 0 L70 0 L81 63 L225 63 Z " />
<glyph glyph-name="bullet" unicode="&#x2022;" horiz-adv-x="225" d="M102 186 Q106 204 120.5 216.5 Q135 229 152 229 Q170 229 180.5 216.5 Q191 204 187 186 Q184 169 169.5 156.5 Q155 144 137 144 Q120 144 109.5 156.5 Q99 169 102 186 Z " />
<glyph glyph-name="ellipsis" unicode="&#x2026;" horiz-adv-x="703" d="M80 59 L148 59 L136 -6 L68 -6 L80 59 Z M327 59 L395 59 L383 -6 L315 -6 L327 59 Z M575 59 L643 59 L631 -6 L563 -6 L575 59 Z " />
<glyph glyph-name="perthousand" unicode="&#x2030;" horiz-adv-x="932" d="M521 590 L595 590 L270 0 L194 0 L521 590 Z M240 465 Q254 465 265 473.5 Q276 482 280 502 Q284 522 275.5 530 Q267 538 253 538 Q239 538 228.5 530 Q218 522 214 502 Q210 482 218 473.5 Q226 465 240 465 Z M230 407 Q141 407 158 502 Q166 547 193.5 571 Q221 595 263 595 Q305 595 324.5 571 Q344 547 336 502 Q319 407 230 407 Z M538 52 Q552 52 562.5 60.5 Q573 69 577 89 Q581 109 573 117 Q565 125 551 125 Q537 125 526 117 Q515 109 511 89 Q507 69 515.5 60.5 Q524 52 538 52 Z M527 -6 Q438 -6 455 89 Q463 134 491 158 Q519 182 561 182 Q603 182 622 158 Q641 134 633 89 Q616 -6 527 -6 Z M782 52 Q796 52 806.5 60.5 Q817 69 821 89 Q825 109 817 117 Q809 125 795 125 Q781 125 770 117 Q759 109 755 89 Q751 69 759.5 60.5 Q768 52 782 52 Z M771 -6 Q682 -6 699 89 Q707 134 735 158 Q763 182 805 182 Q847 182 866 158 Q885 134 877 89 Q860 -6 771 -6 Z " />
<glyph glyph-name="guilsinglleft" unicode="&#x2039;" horiz-adv-x="439" d="M158 191 L382 77 L369 0 L94 140 L113 244 L436 383 L422 305 L158 191 Z " />
<glyph glyph-name="guilsinglright" unicode="&#x203a;" horiz-adv-x="439" d="M123 305 L137 383 L412 244 L393 140 L70 0 L83 77 L347 191 L123 305 Z " />
<glyph glyph-name="fraction" unicode="&#x2044;" horiz-adv-x="564" d="M544 724 L621 724 L106 -204 L34 -204 L544 724 Z " />
<glyph glyph-name="Euro" unicode="&#x20ac;" horiz-adv-x="667" d="M436 59 Q471 59 506.5 67 Q542 75 578 93 Q585 81 591 68.5 Q597 56 603 45 Q560 18 513.5 6 Q467 -6 426 -6 Q392 -6 351 3 Q310 12 274 35.5 Q238 59 211.5 99 Q185 139 179 202 L105 202 L116 265 L180 265 Q182 275 182.5 285 Q183 295 185 306 Q187 317 190 327.5 Q193 338 195 348 L131 348 L142 411 L218 411 Q242 462 277 497.5 Q312 533 353.5 554.5 Q395 576 440.5 585.5 Q486 595 531 595 Q574 595 616 582.5 Q658 570 693 545 L649 497 Q619 514 585 522 Q551 530 519 530 Q489 530 457 525 Q425 520 395 506.5 Q365 493 338 470 Q311 447 291 411 L446 411 L435 348 L266 348 Q262 337 259.5 326 Q257 315 255 303 Q253 293 252 283.5 Q251 274 250 265 L420 265 L409 202 L250 202 Q255 156 275 127.5 Q295 99 322 84 Q349 69 379.5 64 Q410 59 436 59 Z " />
<glyph glyph-name="Numero" unicode="&#x2116;" horiz-adv-x="1131" d="M226 491 L140 0 L70 0 L174 590 L263 590 L510 92 L598 590 L668 590 L564 0 L473 0 L226 491 Z M898 217 Q918 217 941.5 222 Q965 227 987.5 242.5 Q1010 258 1028 286.5 Q1046 315 1055 363 Q1062 404 1054 431.5 Q1046 459 1029.5 475 Q1013 491 991 497.5 Q969 504 948 504 Q927 504 903 497.5 Q879 491 857 475 Q835 459 817.5 431.5 Q800 404 793 363 Q784 315 792 286.5 Q800 258 817 242.5 Q834 227 856.5 222 Q879 217 898 217 Z M886 152 Q858 152 824.5 161.5 Q791 171 765 195 Q739 219 725.5 260 Q712 301 723 365 Q732 419 758 457.5 Q784 496 818 521 Q852 546 889.5 557.5 Q927 569 960 569 Q993 569 1026 557.5 Q1059 546 1084.5 521 Q1110 496 1122 457.5 Q1134 419 1125 365 Q1114 301 1085.5 260 Q1057 219 1022 195 Q987 171 950.5 161.5 Q914 152 886 152 Z M661 0 L672 63 L1072 63 L1061 0 L661 0 Z " />
<glyph glyph-name="trademark" unicode="&#x2122;" horiz-adv-x="733" d="M174 590 L413 590 L403 537 L312 537 L265 271 L207 271 L254 537 L164 537 L174 590 Z M546 349 L489 483 L451 271 L394 271 L451 590 L517 590 L581 434 L701 590 L767 590 L710 271 L653 271 L691 483 L586 349 L546 349 Z " />
<glyph glyph-name="Omega" unicode="&#x2126;" horiz-adv-x="760" d="M474 530 Q431 530 394.5 518.5 Q358 507 328.5 479.5 Q299 452 277.5 405 Q256 358 244 287 L231 212 Q216 125 248 78 L235 0 L70 0 L81 65 L176 65 Q166 86 161.5 108 Q157 130 156.5 150 Q156 170 157.5 186.5 Q159 203 161 212 L177 305 Q191 385 222.5 440 Q254 495 296 529.5 Q338 564 387 579.5 Q436 595 484 595 Q532 595 575.5 579.5 Q619 564 649 529.5 Q679 495 691 440 Q703 385 689 305 L673 212 Q671 203 667 186.5 Q663 170 655.5 150 Q648 130 636 108 Q624 86 606 65 L701 65 L690 0 L525 0 L538 78 Q588 125 603 212 L616 287 Q628 358 623.5 405 Q619 452 599.5 479.5 Q580 507 548 518.5 Q516 530 474 530 Z " />
<glyph glyph-name="partialdiff" unicode="&#x2202;" horiz-adv-x="533" d="M437 251 Q431 278 417 299 Q405 318 384.5 332 Q364 346 330 346 Q317 346 294 342.5 Q271 339 248 325 Q225 311 205 283.5 Q185 256 176 209 Q166 153 176 122.5 Q186 92 204.5 78 Q223 64 244.5 61.5 Q266 59 279 59 Q313 59 339 74 Q365 89 383 107 Q404 127 420 154 L437 251 Z M463 0 L400 0 L400 50 Q379 29 356 17.5 Q333 6 311 1 Q289 -4 271.5 -5 Q254 -6 243 -6 Q214 -6 184.5 4.5 Q155 15 134 39.5 Q113 64 104 105.5 Q95 147 106 209 Q115 262 138 300 Q161 338 191.5 363 Q222 388 257 399.5 Q292 411 326 411 Q332 411 346.5 410 Q361 409 380 403 Q399 397 418.5 384 Q438 371 454 347 L464 403 Q472 450 461.5 476 Q451 502 431 514 Q411 526 386.5 528 Q362 530 343 530 Q323 530 290.5 527 Q258 524 220 511 Q215 526 213.5 537.5 Q212 549 209 565 Q241 581 279 588 Q317 595 359 595 Q386 595 421 588.5 Q456 582 484.5 561.5 Q513 541 529 503.5 Q545 466 534 403 L463 0 Z " />
<glyph glyph-name="Delta" unicode="&#x2206;" horiz-adv-x="791" d="M617 61 L474 444 L195 61 L617 61 Z M70 0 Q181 149 285 294 Q389 439 499 587 Q556 439 609 294 Q662 149 721 0 L70 0 Z " />
<glyph glyph-name="product" unicode="&#x220f;" horiz-adv-x="773" d="M795 527 L684 527 L592 0 L522 0 L614 527 L343 527 L251 0 L181 0 L273 527 L162 527 L174 590 L807 590 L795 527 Z " />
<glyph glyph-name="summation" unicode="&#x2211;" horiz-adv-x="476" d="M237 292 Q234 307 229 326 Q224 345 216 374 Q208 403 196 446 Q184 489 167 552 L174 590 L510 590 L499 528 L250 528 L315 292 L171 64 L417 64 L406 0 L70 0 L76 35 L237 292 Z " />
<glyph glyph-name="minus" unicode="&#x2212;" horiz-adv-x="444" d="M101 179 L112 242 L416 242 L405 179 L101 179 Z " />
<glyph glyph-name="radical" unicode="&#x221a;" horiz-adv-x="782" d="M222 0 L141 405 L219 405 L279 59 L595 657 L827 657 L816 595 L639 595 L316 0 L222 0 Z " />
<glyph glyph-name="infinity" unicode="&#x221e;" horiz-adv-x="1028" d="M539 146 Q479 87 414.5 66 Q350 45 287 45 Q248 45 212 56 Q176 67 150.5 89 Q125 111 113 144.5 Q101 178 109 223 Q124 310 188.5 358.5 Q253 407 351 407 Q414 407 468.5 380 Q523 353 563 282 Q628 353 692 380 Q756 407 819 407 Q917 407 964.5 358.5 Q1012 310 997 223 Q989 178 965 144.5 Q941 111 907.5 89 Q874 67 834 56 Q794 45 755 45 Q692 45 635 66.5 Q578 88 539 146 Z M340 344 Q319 344 293.5 339 Q268 334 245 320.5 Q222 307 203.5 283 Q185 259 179 222 Q174 195 182 173.5 Q190 152 207 137.5 Q224 123 248 115.5 Q272 108 299 108 Q328 108 353 110.5 Q378 113 404 123.5 Q430 134 460 154 Q490 174 529 209 Q490 281 443.5 312.5 Q397 344 340 344 Z M808 344 Q751 344 693.5 312.5 Q636 281 571 209 Q598 174 621.5 154 Q645 134 667.5 123.5 Q690 113 714 110.5 Q738 108 767 108 Q794 108 821 115.5 Q848 123 869.5 137.5 Q891 152 906.5 173.5 Q922 195 927 222 Q933 259 923.5 283 Q914 307 895 320.5 Q876 334 852.5 339 Q829 344 808 344 Z " />
<glyph glyph-name="integral" unicode="&#x222b;" horiz-adv-x="520" d="M284 -60 Q281 -79 272 -103 Q263 -127 244.5 -148 Q226 -169 196 -183.5 Q166 -198 121 -198 Q83 -198 65 -195.5 Q47 -193 36 -189 L47 -129 Q61 -130 74 -131 Q86 -132 97 -132.5 Q108 -133 115 -133 Q144 -133 162.5 -126.5 Q181 -120 192.5 -105.5 Q204 -91 210.5 -67.5 Q217 -44 223 -10 L305 457 Q308 476 317 500 Q326 524 344.5 545 Q363 566 393 580.5 Q423 595 468 595 Q506 595 524 592.5 Q542 590 553 586 L542 526 Q528 527 515 528 Q503 529 492 529.5 Q481 530 474 530 Q445 530 426.5 523.5 Q408 517 396.5 502.5 Q385 488 378.5 464.5 Q372 441 366 407 L284 -60 Z " />
<glyph glyph-name="approxequal" unicode="&#x2248;" horiz-adv-x="384" d="M327 76 Q310 68 291.5 63.5 Q273 59 258 59 Q241 59 227 65 Q213 71 199.5 77.5 Q186 84 172 90 Q158 96 141 96 Q131 96 122.5 95.5 Q114 95 106 92 L95 142 Q112 153 124.5 156 Q137 159 153 159 Q171 159 185.5 153 Q200 147 213.5 140.5 Q227 134 241.5 128 Q256 122 273 122 Q284 122 295 123.5 Q306 125 317 130 L327 76 Z M348 197 Q331 189 312.5 184.5 Q294 180 279 180 Q262 180 248 186 Q234 192 220.5 198.5 Q207 205 193.5 211 Q180 217 163 217 Q153 217 144.5 216.5 Q136 216 127 213 L116 263 Q133 274 145.5 277 Q158 280 174 280 Q192 280 206.5 274 Q221 268 234.5 261.5 Q248 255 262.5 249 Q277 243 294 243 Q305 243 316.5 244.5 Q328 246 339 251 L348 197 Z " />
<glyph glyph-name="notequal" unicode="&#x2260;" horiz-adv-x="409" d="M307 250 L252 153 L365 153 L354 90 L217 90 L168 0 L94 0 L143 90 L85 90 L96 153 L178 153 L233 250 L114 250 L125 313 L268 313 L309 387 L383 387 L342 313 L394 313 L383 250 L307 250 Z " />
<glyph glyph-name="lessequal" unicode="&#x2264;" horiz-adv-x="441" d="M124 311 L448 438 L434 362 L184 263 L400 165 L386 90 L108 216 L124 311 Z M70 0 L81 63 L382 63 L371 0 L70 0 Z " />
<glyph glyph-name="greaterequal" unicode="&#x2265;" horiz-adv-x="441" d="M409 216 L85 90 L99 165 L349 263 L133 362 L147 438 L425 311 L409 216 Z M70 0 L81 63 L382 63 L371 0 L70 0 Z " />
<glyph glyph-name="lozenge" unicode="&#x25ca;" horiz-adv-x="526" d="M284 128 L425 296 L345 461 L204 293 L284 128 Z M508 297 L507 293 L263 0 L121 290 L121 294 Q183 369 244 442 Q305 515 368 590 L508 297 Z " />
<glyph glyph-name="uni25CC" unicode="&#x25cc;" horiz-adv-x="512" d="" />
<glyph glyph-name="fi" unicode="&#xfb01;" horiz-adv-x="582" d="M429 526 Q418 528 401 529 Q384 530 368 530 Q324 530 298 509 Q272 488 261 423 L258 405 L407 405 L395 340 L246 340 L187 0 L117 0 L176 340 L89 340 L101 405 L188 405 L189 413 Q206 508 252 551.5 Q298 595 364 595 Q396 595 413.5 591.5 Q431 588 439 583 L429 526 Z M513 405 L583 405 L512 0 L442 0 L513 405 Z M539 554 L609 554 L595 475 L525 475 L539 554 Z " />
<glyph glyph-name="fl" unicode="&#xfb02;" horiz-adv-x="609" d="M429 526 Q418 528 401 529 Q384 530 368 530 Q324 530 298 509 Q272 488 261 423 L258 405 L407 405 L395 340 L246 340 L187 0 L117 0 L176 340 L89 340 L101 405 L188 405 L189 413 Q206 508 252 551.5 Q298 595 364 595 Q396 595 413.5 591.5 Q431 588 439 583 L429 526 Z M615 590 L545 590 L458 97 Q452 62 454.5 42 Q457 22 465.5 11.5 Q474 1 486.5 -2.5 Q499 -6 512 -6 L517 -6 Q522 -6 528.5 -5.5 Q535 -5 542 -5 Q550 -5 558 -4 L569 59 Q554 59 545 60 Q536 61 531.5 65 Q527 69 526 77.5 Q525 86 528 102 L615 590 Z " />
</font>
</svg>
