<?xml version="1.0" encoding="UTF-8"?>
<svg xmlns="http://www.w3.org/2000/svg" xmlns:xlink="http://www.w3.org/1999/xlink" version="1.2" >
<font id="Betm SemiLight">
<font-face  font-family="Betm" units-per-em="1000" ascent="750" descent="-250" font-style="normal" font-weight="300" font-stretch="normal" cap-height="568" x-height="405" underline-position="-91" underline-thickness="35" />
<missing-glyph  horiz-adv-x="593" d="M42 0 L42 628 L551 628 L551 0 L42 0 Z M88 35 L88 46 L80 46 Q88 44 88 35 Z M505 590 L505 582 L513 582 Q505 582 505 590 Z M513 46 L505 46 L505 37 Q505 44 513 46 Z M80 582 L88 582 L88 590 Q86 582 80 582 Z M88 46 L505 46 L505 582 L88 582 L88 46 Z " />
<glyph glyph-name="space" unicode="&#x20;" horiz-adv-x="199" d="" />
<glyph glyph-name="exclam" unicode="&#x21;" horiz-adv-x="210" d="M70 227 L70 590 L140 590 L140 227 L131 132 L78 132 L70 227 Z M70 29 Q70 43 80.5 53.5 Q91 64 105 64 Q119 64 129.5 53.5 Q140 43 140 29 Q140 15 129.5 4.5 Q119 -6 105 -6 Q91 -6 80.5 4.5 Q70 15 70 29 Z " />
<glyph glyph-name="quotedbl" unicode="&#x22;" horiz-adv-x="319" d="M70 590 L139 590 L128 457 L81 457 L70 590 Z M180 590 L249 590 L238 457 L191 457 L180 590 Z " />
<glyph glyph-name="numbersign" unicode="&#x23;" horiz-adv-x="851" d="M641 410 L556 186 L695 186 L695 123 L531 123 L485 0 L409 0 L456 123 L252 123 L204 0 L129 0 L176 123 L70 123 L70 186 L201 186 L286 410 L150 410 L150 473 L310 473 L355 590 L430 590 L386 473 L590 473 L635 590 L710 590 L666 473 L781 473 L781 410 L641 410 Z M566 410 L361 410 L276 186 L480 186 L566 410 Z " />
<glyph glyph-name="dollar" unicode="&#x24;" horiz-adv-x="584" d="M514 152 Q514 77 461.5 39 Q409 1 326 -5 L326 -124 L257 -124 L257 -5 Q202 -2 160.5 7.5 Q119 17 95 29 L95 92 Q109 88 130 82.5 Q151 77 176.5 71.5 Q202 66 231 62.5 Q260 59 289 59 Q318 59 346 63 Q374 67 396 77 Q418 87 431 105 Q444 123 444 150 Q444 180 416.5 200.5 Q389 221 347 238 Q305 255 257 271.5 Q209 288 167 310 Q125 332 97.5 363 Q70 394 70 440 Q70 483 85 511.5 Q100 540 126 557.5 Q152 575 186 583.5 Q220 592 257 594 L257 736 L326 736 L326 595 Q380 593 410 587 Q440 581 457 573 L457 512 Q425 517 396 521 Q370 525 346 527.5 Q322 530 308 530 Q283 530 253.5 528.5 Q224 527 199 518.5 Q174 510 157 492 Q140 474 140 440 Q140 411 167.5 390.5 Q195 370 237 352.5 Q279 335 327 318.5 Q375 302 417 279.5 Q459 257 486.5 226.5 Q514 196 514 152 Z " />
<glyph glyph-name="percent" unicode="&#x25;" horiz-adv-x="688" d="M417 590 L491 590 L270 0 L194 0 L417 590 Z M159 465 Q173 465 182.5 473.5 Q192 482 192 502 Q192 522 182.5 530 Q173 538 159 538 Q145 538 135.5 530 Q126 522 126 502 Q126 482 135.5 473.5 Q145 465 159 465 Z M159 407 Q70 407 70 502 Q70 547 93.5 571 Q117 595 159 595 Q201 595 224.5 571 Q248 547 248 502 Q248 407 159 407 Z M529 52 Q543 52 552.5 60.5 Q562 69 562 89 Q562 109 552.5 117 Q543 125 529 125 Q515 125 505.5 117 Q496 109 496 89 Q496 69 505.5 60.5 Q515 52 529 52 Z M529 -6 Q440 -6 440 89 Q440 134 463.5 158 Q487 182 529 182 Q571 182 594.5 158 Q618 134 618 89 Q618 -6 529 -6 Z " />
<glyph glyph-name="ampersand" unicode="&#x26;" horiz-adv-x="628" d="M301 528 Q282 528 259 524.5 Q236 521 216.5 510.5 Q197 500 184 481 Q171 462 171 432 Q171 394 184.5 373 Q198 352 218 342.5 Q238 333 260.5 331.5 Q283 330 301 330 L431 330 L431 409 L501 409 L501 330 L558 330 L558 267 L501 267 L501 165 Q501 131 490.5 100 Q480 69 456 45.5 Q432 22 393.5 8 Q355 -6 299 -6 L283 -6 Q226 -6 185.5 6.5 Q145 19 119.5 40.5 Q94 62 82 92 Q70 122 70 157 Q70 180 72.5 201 Q75 222 84 240 Q93 258 111.5 272.5 Q130 287 162 297 Q141 309 129 327 Q117 345 110.5 364.5 Q104 384 102.5 403 Q101 422 101 435 Q101 485 119.5 515 Q138 545 166.5 562 Q195 579 229 584.5 Q263 590 293 590 L331 590 L323 528 L301 528 Z M300 59 Q319 59 342 62.5 Q365 66 384.5 77 Q404 88 417.5 109.5 Q431 131 431 168 L431 267 L267 267 Q242 267 219 261 Q196 255 178.5 242.5 Q161 230 150.5 209.5 Q140 189 140 160 Q140 123 155.5 102.5 Q171 82 193.5 72 Q216 62 240 60.5 Q264 59 280 59 L300 59 Z " />
<glyph glyph-name="quotesingle" unicode="&#x27;" horiz-adv-x="209" d="M70 590 L139 590 L128 457 L81 457 L70 590 Z " />
<glyph glyph-name="parenleft" unicode="&#x28;" horiz-adv-x="310" d="M70 265 Q70 380 95.5 493 Q121 606 170 724 L240 724 Q189 603 164.5 491.5 Q140 380 140 266 Q140 153 164.5 35 Q189 -83 240 -204 L170 -204 Q121 -88 95.5 32 Q70 152 70 265 Z " />
<glyph glyph-name="parenright" unicode="&#x29;" horiz-adv-x="310" d="M240 265 Q240 152 214.5 32 Q189 -88 140 -204 L70 -204 Q121 -83 145.5 35 Q170 153 170 266 Q170 380 145.5 491.5 Q121 603 70 724 L140 724 Q189 606 214.5 493 Q240 380 240 265 Z " />
<glyph glyph-name="asterisk" unicode="&#x2a;" horiz-adv-x="466" d="M255 447 L373 503 L396 442 L266 394 L350 298 L300 255 L233 354 L166 255 L116 298 L200 394 L70 442 L93 503 L211 447 L200 590 L266 590 L255 447 Z " />
<glyph glyph-name="plus" unicode="&#x2b;" horiz-adv-x="456" d="M263 240 L386 240 L386 177 L263 177 L263 57 L193 57 L193 177 L70 177 L70 240 L193 240 L193 360 L263 360 L263 240 Z " />
<glyph glyph-name="comma" unicode="&#x2c;" horiz-adv-x="136" d="M69 -95 L20 -95 L52 45 L116 45 L69 -95 Z " />
<glyph glyph-name="hyphen" unicode="&#x2d;" horiz-adv-x="444" d="M70 179 L70 242 L374 242 L374 179 L70 179 Z " />
<glyph glyph-name="period" unicode="&#x2e;" horiz-adv-x="208" d="M70 59 L138 59 L138 -6 L70 -6 L70 59 Z " />
<glyph glyph-name="slash" unicode="&#x2f;" horiz-adv-x="564" d="M417 724 L494 724 L142 -204 L70 -204 L417 724 Z " />
<glyph glyph-name="zero" unicode="0" horiz-adv-x="600" d="M300 59 Q333 59 363.5 68.5 Q394 78 417.5 105 Q441 132 455.5 180 Q470 228 470 304 Q470 367 459.5 410 Q449 453 428 479.5 Q407 506 375 518 Q343 530 300 530 Q257 530 225 518 Q193 506 172 479.5 Q151 453 140.5 410 Q130 367 130 304 Q130 228 144.5 180 Q159 132 182.5 105 Q206 78 236.5 68.5 Q267 59 300 59 Z M300 595 Q347 595 390.5 580 Q434 565 467 531 Q500 497 520 442 Q540 387 540 307 Q540 211 517 150 Q494 89 458.5 54.5 Q423 20 381 7 Q339 -6 300 -6 Q261 -6 219 7 Q177 20 141.5 54.5 Q106 89 83 150 Q60 211 60 307 Q60 387 80 442 Q100 497 133 531 Q166 565 209.5 580 Q253 595 300 595 Z " />
<glyph glyph-name="one" unicode="1" horiz-adv-x="346" d="M30 516 L199 590 L276 590 L276 0 L206 0 L206 523 Q166 506 118.5 486 Q71 466 30 447 L30 516 Z " />
<glyph glyph-name="two" unicode="2" horiz-adv-x="510" d="M55 79 Q55 124 79.5 160.5 Q104 197 140.5 227.5 Q177 258 220 284.5 Q263 311 299.5 335 Q336 359 360.5 382 Q385 405 385 429 Q385 459 372.5 478.5 Q360 498 340 509.5 Q320 521 294 525.5 Q268 530 241 530 Q201 530 157.5 523 Q114 516 84 508 L84 566 Q104 577 140.5 586 Q177 595 242 595 Q286 595 324.5 588 Q363 581 392 561.5 Q421 542 438 509 Q455 476 455 423 Q455 386 430.5 356.5 Q406 327 369.5 301 Q333 275 290 250 Q247 225 210.5 197.5 Q174 170 149.5 137 Q125 104 125 63 L452 63 L452 0 L55 0 L55 79 Z " />
<glyph glyph-name="three" unicode="3" horiz-adv-x="519" d="M243 330 Q262 330 283 331.5 Q304 333 322 342.5 Q340 352 351.5 373 Q363 394 363 432 Q363 461 347 480 Q331 499 308.5 510 Q286 521 261 525.5 Q236 530 218 530 Q180 530 136.5 523.5 Q93 517 60 509 L60 567 Q84 577 123 586 Q162 595 230 595 Q259 595 294.5 588.5 Q330 582 360.5 564.5 Q391 547 412 516 Q433 485 433 435 Q433 422 431.5 403.5 Q430 385 424.5 365.5 Q419 346 408 328 Q397 310 377 298 Q405 286 422 273 Q439 260 448.5 244 Q458 228 461 208 Q464 188 464 163 Q464 128 450 97 Q436 66 407.5 43 Q379 20 336.5 7 Q294 -6 238 -6 Q171 -6 128.5 2.5 Q86 11 60 23 L60 83 Q96 76 129 71 Q159 66 186 62.5 Q213 59 230 59 Q247 59 274.5 63 Q302 67 328.5 78.5 Q355 90 374.5 111.5 Q394 133 394 168 Q394 199 382.5 218 Q371 237 353.5 248 Q336 259 315 263 Q294 267 274 267 L178 267 Q182 286 185.5 299.5 Q189 313 193 330 L243 330 Z " />
<glyph glyph-name="four" unicode="4" horiz-adv-x="541" d="M343 180 L40 180 L40 279 Q103 360 168.5 434.5 Q234 509 300 590 L413 590 L413 243 L501 243 L501 180 L413 180 L413 0 L343 0 L343 180 Z M343 243 L343 530 L100 243 L343 243 Z " />
<glyph glyph-name="five" unicode="5" horiz-adv-x="520" d="M268 359 Q298 359 334.5 352 Q371 345 402 325.5 Q433 306 454 272 Q475 238 475 184 Q475 118 452.5 80 Q430 42 398 23 Q366 4 331 -1 Q296 -6 271 -6 L263 -6 Q239 -6 208.5 -1.5 Q178 3 149 17.5 Q120 32 97.5 59.5 Q75 87 67 132 L136 132 Q141 106 156 91 Q171 76 190.5 69 Q210 62 230.5 60.5 Q251 59 267 59 Q298 59 323.5 64.5 Q349 70 367 84.5 Q385 99 395 122.5 Q405 146 405 182 Q405 236 367.5 265 Q330 294 273 294 Q263 294 247 293 Q231 292 212.5 289.5 Q194 287 175.5 282 Q157 277 142 269 L65 277 L65 590 L424 590 L424 527 L135 527 L135 333 Q186 353 219.5 356 Q253 359 268 359 Z " />
<glyph glyph-name="six" unicode="6" horiz-adv-x="527" d="M280 362 Q319 362 355 351.5 Q391 341 419.5 319 Q448 297 465 262.5 Q482 228 482 179 Q482 120 459.5 83.5 Q437 47 405 27 Q373 7 338 0.5 Q303 -6 278 -6 L267 -6 Q242 -6 206 0.5 Q170 7 138 27 Q106 47 83 83 Q60 119 60 177 L60 336 Q60 476 118.5 535.5 Q177 595 287 595 Q332 595 368 590 Q404 585 426 579 L426 517 Q406 521 385 524 Q366 526 345.5 528 Q325 530 305 530 Q255 530 221.5 520.5 Q188 511 167.5 486 Q147 461 138.5 419.5 Q130 378 130 313 Q149 331 172 341 Q195 351 216.5 355.5 Q238 360 255 361 Q272 362 280 362 Z M272 57 Q289 57 313 59.5 Q337 62 359 73.5 Q381 85 396.5 109 Q412 133 412 176 Q412 216 397.5 240.5 Q383 265 361.5 278 Q340 291 316 295 Q292 299 272 299 Q254 299 230 293.5 Q206 288 183.5 273.5 Q161 259 145.5 235.5 Q130 212 130 176 Q130 135 146 111.5 Q162 88 184.5 76 Q207 64 231 60.5 Q255 57 272 57 Z " />
<glyph glyph-name="seven" unicode="7" horiz-adv-x="463" d="M45 590 L433 590 L433 523 L199 0 L122 0 L358 526 L45 526 L45 590 Z " />
<glyph glyph-name="eight" unicode="8" horiz-adv-x="562" d="M281 329 Q301 329 323 331 Q345 333 364 342.5 Q383 352 395.5 373 Q408 394 408 431 Q408 464 395 484 Q382 504 363 514 Q344 524 322 527 Q300 530 281 530 Q262 530 240 527 Q218 524 199 514 Q180 504 167 484 Q154 464 154 431 Q154 394 166.5 373 Q179 352 198 342.5 Q217 333 239.5 331 Q262 329 281 329 Z M281 59 Q297 59 321.5 62.5 Q346 66 369.5 76.5 Q393 87 410 108 Q427 129 427 163 Q427 200 410.5 220.5 Q394 241 370.5 251 Q347 261 322.5 263 Q298 265 281 265 Q265 265 240 263 Q215 261 191.5 251 Q168 241 151.5 220.5 Q135 200 135 163 Q135 129 152 108 Q169 87 192.5 76.5 Q216 66 240.5 62.5 Q265 59 281 59 Z M281 -6 Q256 -6 219 0 Q182 6 148 24 Q114 42 89.5 75.5 Q65 109 65 165 Q65 183 67 201 Q69 219 75.5 235.5 Q82 252 96 267 Q110 282 134 295 Q102 324 93 361.5 Q84 399 84 431 Q84 485 104.5 517.5 Q125 550 155 567.5 Q185 585 219 590 Q253 595 281 595 Q309 595 343 590 Q377 585 407 567.5 Q437 550 457.5 517.5 Q478 485 478 431 Q478 399 469 361.5 Q460 324 428 295 Q452 282 466 267 Q480 252 486.5 235.5 Q493 219 495 201 Q497 183 497 165 Q497 109 472.5 75.5 Q448 42 414 24 Q380 6 343 0 Q306 -6 281 -6 Z " />
<glyph glyph-name="nine" unicode="9" horiz-adv-x="527" d="M247 227 Q208 227 172 237.5 Q136 248 107.5 270 Q79 292 62 326.5 Q45 361 45 410 Q45 469 67.5 505.5 Q90 542 122 562 Q154 582 189 588.5 Q224 595 249 595 L260 595 Q286 595 321.5 588.5 Q357 582 389 562 Q421 542 444 506.5 Q467 471 467 412 L467 253 Q467 113 408.5 53.5 Q350 -6 240 -6 Q195 -6 159 -1 Q123 4 101 10 L101 72 Q121 68 142 66 Q161 63 181.5 61 Q202 59 222 59 Q272 59 305.5 68.5 Q339 78 359.5 103 Q380 128 388.5 170 Q397 212 397 276 Q378 258 355 248 Q332 238 310.5 233.5 Q289 229 272 228 Q255 227 247 227 Z M255 532 Q238 532 214 529.5 Q190 527 168 515.5 Q146 504 130.5 480 Q115 456 115 413 Q115 373 129.5 348.5 Q144 324 165.5 311 Q187 298 211.5 294 Q236 290 255 290 Q273 290 297 295.5 Q321 301 343.5 315.5 Q366 330 381.5 353.5 Q397 377 397 413 Q397 454 381 477.5 Q365 501 342.5 513 Q320 525 296 528.5 Q272 532 255 532 Z " />
<glyph glyph-name="colon" unicode="&#x3a;" horiz-adv-x="208" d="M70 59 L138 59 L138 -6 L70 -6 L70 59 Z M70 365 L138 365 L138 300 L70 300 L70 365 Z " />
<glyph glyph-name="semicolon" unicode="&#x3b;" horiz-adv-x="237" d="M99 365 L167 365 L167 300 L99 300 L99 365 Z M119 -95 L70 -95 L102 45 L166 45 L119 -95 Z " />
<glyph glyph-name="less" unicode="&#x3c;" horiz-adv-x="439" d="M125 191 L369 77 L369 0 L70 140 L70 244 L369 383 L369 305 L125 191 Z " />
<glyph glyph-name="equal" unicode="&#x3d;" horiz-adv-x="409" d="M70 219 L70 282 L339 282 L339 219 L70 219 Z M70 59 L70 122 L339 122 L339 59 L70 59 Z " />
<glyph glyph-name="greater" unicode="&#x3e;" horiz-adv-x="439" d="M70 305 L70 383 L369 244 L369 140 L70 0 L70 77 L314 191 L70 305 Z " />
<glyph glyph-name="question" unicode="&#x3f;" horiz-adv-x="510" d="M177 294 Q230 308 266.5 321.5 Q303 335 326 351 Q349 367 359.5 386.5 Q370 406 370 432 Q370 468 354.5 488 Q339 508 317 517 Q295 526 270.5 528 Q246 530 229 530 Q191 530 147 523 Q103 516 70 508 L70 567 Q91 577 127.5 586 Q164 595 237 595 Q267 595 302.5 588.5 Q338 582 368.5 564.5 Q399 547 419.5 516 Q440 485 440 435 Q440 413 434 386.5 Q428 360 408 334 Q388 308 350 285 Q312 262 247 246 L247 116 L177 116 L177 294 Z M177 34 Q177 50 187 60 Q197 70 211 70 Q227 70 237 60 Q247 50 247 34 Q247 20 237 10 Q227 0 211 0 Q197 0 187 10 Q177 20 177 34 Z " />
<glyph glyph-name="at" unicode="&#x40;" horiz-adv-x="726" d="M586 251 Q575 278 558 299 Q542 318 519 332 Q496 346 462 346 Q449 346 427 342.5 Q405 339 384 325 Q363 311 348 283.5 Q333 256 333 209 Q333 153 348 122.5 Q363 92 384 78 Q405 64 427 61.5 Q449 59 462 59 Q496 59 519.5 74 Q543 89 558 107 Q575 127 586 154 L586 251 Z M656 0 L593 0 L585 50 Q568 29 546.5 17.5 Q525 6 504.5 1 Q484 -4 466.5 -5 Q449 -6 438 -6 Q409 -6 378 4.5 Q347 15 321.5 39.5 Q296 64 279.5 105.5 Q263 147 263 209 Q263 262 279 300 Q295 338 321 363 Q347 388 380 399.5 Q413 411 447 411 Q453 411 468 410 Q483 409 502.5 403 Q522 397 544 384 Q566 371 586 347 L586 364 Q586 435 565 479 Q544 523 511.5 548.5 Q479 574 439 583 Q399 592 361 592 Q322 592 282.5 583.5 Q243 575 211.5 551 Q180 527 160 483 Q140 439 140 368 L140 82 Q140 19 155 -21 Q170 -61 195 -85 Q220 -109 252.5 -120 Q285 -131 320 -135 L320 -198 Q275 -192 230.5 -178 Q186 -164 150.5 -135 Q115 -106 92.5 -59.5 Q70 -13 70 57 L70 371 Q70 452 97.5 507 Q125 562 167.5 595.5 Q210 629 261.5 643 Q313 657 361 657 Q411 657 463 642.5 Q515 628 558 594 Q601 560 628.5 504.5 Q656 449 656 368 L656 0 Z " />
<glyph glyph-name="A" unicode="A" horiz-adv-x="598" d="M568 0 L493 0 L440 144 L158 144 L105 0 L30 0 L252 590 L346 590 L568 0 Z M414 208 L299 518 L184 208 L414 208 Z " />
<glyph glyph-name="B" unicode="B" horiz-adv-x="559" d="M288 330 Q307 330 328 332 Q349 334 367 343.5 Q385 353 396.5 374 Q408 395 408 432 Q408 462 396.5 481 Q385 500 367.5 510.5 Q350 521 329 524.5 Q308 528 288 528 L140 528 L140 330 L288 330 Z M319 63 Q338 63 359 65.5 Q380 68 398 78.5 Q416 89 427.5 110 Q439 131 439 168 Q439 199 427.5 218 Q416 237 398.5 248 Q381 259 360 263 Q339 267 319 267 L140 267 L140 63 L319 63 Z M70 0 L70 590 L296 590 Q326 590 358.5 584.5 Q391 579 417.5 562 Q444 545 461 515 Q478 485 478 435 Q478 422 477 405 Q476 388 470 369.5 Q464 351 452 332.5 Q440 314 418 299 Q451 289 469.5 273.5 Q488 258 496.5 239.5 Q505 221 507 200 Q509 179 509 157 Q509 129 499.5 101 Q490 73 468 50.5 Q446 28 409.5 14 Q373 0 318 0 L70 0 Z " />
<glyph glyph-name="C" unicode="C" horiz-adv-x="550" d="M339 530 Q299 530 259 521 Q219 512 187 487 Q155 462 135 418 Q115 374 115 303 Q115 222 138 174 Q161 126 195 100.5 Q229 75 268 67 Q307 59 339 59 Q374 59 408 67 Q442 75 475 93 Q484 81 492.5 68.5 Q501 56 509 45 Q471 18 426.5 6 Q382 -6 341 -6 Q301 -6 249.5 7 Q198 20 152.5 54.5 Q107 89 76 149.5 Q45 210 45 306 Q45 388 70.5 443.5 Q96 499 137.5 532.5 Q179 566 232 580.5 Q285 595 340 595 Q383 595 427.5 582.5 Q472 570 510 545 L475 497 Q442 514 406.5 522 Q371 530 339 530 Z " />
<glyph glyph-name="D" unicode="D" horiz-adv-x="596" d="M541 307 Q541 214 513.5 154.5 Q486 95 445.5 60.5 Q405 26 357.5 13 Q310 0 270 0 L70 0 L70 590 L258 590 Q306 590 356 575.5 Q406 561 447 528 Q488 495 514.5 441 Q541 387 541 307 Z M257 63 Q289 63 326.5 70 Q364 77 396 102 Q428 127 449.5 175 Q471 223 471 304 Q471 367 453 410 Q435 453 405.5 479 Q376 505 338 516.5 Q300 528 260 528 L140 528 L140 63 L257 63 Z " />
<glyph glyph-name="E" unicode="E" horiz-adv-x="518" d="M140 528 L140 330 L400 330 L400 267 L140 267 L140 63 L458 63 L458 0 L70 0 L70 590 L458 590 L458 528 L140 528 Z " />
<glyph glyph-name="F" unicode="F" horiz-adv-x="513" d="M70 0 L70 590 L458 590 L458 528 L140 528 L140 330 L400 330 L400 267 L140 267 L140 0 L70 0 Z " />
<glyph glyph-name="G" unicode="G" horiz-adv-x="614" d="M339 530 Q299 530 259 521 Q219 512 187 487 Q155 462 135 418 Q115 374 115 303 Q115 222 138 174 Q161 126 195 100.5 Q229 75 268 67 Q307 59 339 59 Q373 59 407 67 Q441 75 474 92 L474 229 L383 229 L383 294 L544 294 L544 64 Q524 44 497 30.5 Q470 17 442.5 9 Q415 1 388 -2.5 Q361 -6 341 -6 Q301 -6 249.5 7 Q198 20 152.5 54.5 Q107 89 76 149.5 Q45 210 45 306 Q45 388 70.5 443.5 Q96 499 137.5 532.5 Q179 566 232 580.5 Q285 595 340 595 Q383 595 427.5 582.5 Q472 570 510 545 L475 497 Q442 514 406.5 522 Q371 530 339 530 Z " />
<glyph glyph-name="H" unicode="H" horiz-adv-x="612" d="M542 590 L542 0 L472 0 L472 252 L140 252 L140 0 L70 0 L70 590 L140 590 L140 315 L472 315 L472 590 L542 590 Z " />
<glyph glyph-name="I" unicode="I" horiz-adv-x="210" d="M70 590 L140 590 L140 0 L70 0 L70 590 Z " />
<glyph glyph-name="J" unicode="J" horiz-adv-x="470" d="M330 590 L400 590 L400 195 Q400 130 376.5 91 Q353 52 320 31 Q287 10 250 2.5 Q213 -5 186 -6 Q171 -6 151.5 -5.5 Q132 -5 110 -1.5 Q88 2 66.5 9 Q45 16 25 29 L53 78 Q91 64 122 61.5 Q153 59 176 59 Q193 59 219 61.5 Q245 64 269.5 77.5 Q294 91 312 119.5 Q330 148 330 200 L330 590 Z " />
<glyph glyph-name="K" unicode="K" horiz-adv-x="532" d="M522 0 L425 0 L140 285 L140 0 L70 0 L70 590 L140 590 L140 310 L425 590 L522 590 L227 296 L522 0 Z " />
<glyph glyph-name="L" unicode="L" horiz-adv-x="479" d="M140 63 L434 63 L434 0 L70 0 L70 590 L140 590 L140 63 Z " />
<glyph glyph-name="M" unicode="M" horiz-adv-x="694" d="M579 590 L624 590 L624 0 L554 0 L554 416 L381 137 L313 137 L140 416 L140 0 L70 0 L70 590 L115 590 L347 216 L579 590 Z " />
<glyph glyph-name="N" unicode="N" horiz-adv-x="634" d="M140 491 L140 0 L70 0 L70 590 L159 590 L494 92 L494 590 L564 590 L564 0 L473 0 L140 491 Z " />
<glyph glyph-name="O" unicode="O" horiz-adv-x="676" d="M338 59 Q370 59 407.5 67 Q445 75 477 100.5 Q509 126 530.5 174.5 Q552 223 552 304 Q552 375 533.5 419 Q515 463 485 487.5 Q455 512 416.5 521 Q378 530 338 530 Q298 530 260 521 Q222 512 192 487.5 Q162 463 143.5 419 Q125 375 125 304 Q125 223 146.5 174.5 Q168 126 200 100.5 Q232 75 269 67 Q306 59 338 59 Z M338 -6 Q298 -6 248.5 7 Q199 20 156 54.5 Q113 89 84 150 Q55 211 55 307 Q55 387 81 442 Q107 497 148.5 531 Q190 565 240 580 Q290 595 338 595 Q386 595 436.5 580 Q487 565 528 531 Q569 497 595 442 Q621 387 621 307 Q621 211 592 150 Q563 89 520 54.5 Q477 20 428 7 Q379 -6 338 -6 Z " />
<glyph glyph-name="P" unicode="P" horiz-adv-x="555" d="M65 590 L342 590 Q372 590 403.5 579.5 Q435 569 461 546.5 Q487 524 503.5 488 Q520 452 520 401 Q520 340 504 301 Q488 262 462.5 239.5 Q437 217 406 208 Q375 199 345 199 L135 199 L135 0 L65 0 L65 590 Z M135 526 L135 263 L338 263 Q358 263 378 268 Q398 273 414 287.5 Q430 302 440 329 Q450 356 450 401 Q450 440 440 464 Q430 488 414.5 502 Q399 516 379 521 Q359 526 338 526 L135 526 Z " />
<glyph glyph-name="Q" unicode="Q" horiz-adv-x="676" d="M621 307 Q621 211 592 150 Q563 89 520 54.5 Q477 20 428 7 Q379 -6 338 -6 L330 -6 L455 -175 L379 -175 L241 9 Q207 20 173.5 42 Q140 64 113.5 99.5 Q87 135 71 186 Q55 237 55 307 Q55 387 81 442 Q107 497 148.5 531 Q190 565 240 580 Q290 595 338 595 Q386 595 436.5 580 Q487 565 528 531 Q569 497 595 442 Q621 387 621 307 Z M125 304 Q125 223 146.5 174.5 Q168 126 200 100.5 Q232 75 269 67 Q306 59 338 59 Q370 59 407.5 67 Q445 75 477 100.5 Q509 126 530.5 174.5 Q552 223 552 304 Q552 375 533.5 419 Q515 463 485 487.5 Q455 512 416.5 521 Q378 530 338 530 Q298 530 260 521 Q222 512 192 487.5 Q162 463 143.5 419 Q125 375 125 304 Z " />
<glyph glyph-name="R" unicode="R" horiz-adv-x="558" d="M514 408 Q514 390 510.5 364.5 Q507 339 495.5 313 Q484 287 462 265 Q440 243 403 232 Q423 213 436.5 195 Q450 177 459.5 158.5 Q469 140 476 119.5 Q483 99 491 74 Q495 61 500.5 45 Q506 29 516 0 L443 0 L408 98 Q385 162 355.5 189 Q326 216 286 216 L140 216 L140 0 L70 0 L70 590 L338 590 Q368 590 399.5 580.5 Q431 571 456.5 550 Q482 529 498 494 Q514 459 514 408 Z M330 280 Q351 280 371 282.5 Q391 285 407.5 297 Q424 309 434 334.5 Q444 360 444 407 Q444 446 434 469.5 Q424 493 408 505.5 Q392 518 371.5 522 Q351 526 330 526 L140 526 L140 280 L330 280 Z " />
<glyph glyph-name="S" unicode="S" horiz-adv-x="534" d="M274 595 Q341 595 376.5 588.5 Q412 582 432 573 L432 512 Q400 517 371 521 Q345 525 321 527.5 Q297 530 283 530 Q258 530 228.5 528.5 Q199 527 174 518.5 Q149 510 132 492 Q115 474 115 440 Q115 411 142.5 390.5 Q170 370 212 352.5 Q254 335 302 318.5 Q350 302 392 279.5 Q434 257 461.5 226.5 Q489 196 489 152 Q489 111 472.5 81 Q456 51 426.5 31.5 Q397 12 356.5 3 Q316 -6 268 -6 Q200 -6 149 4.5 Q98 15 70 29 L70 92 Q84 88 105 82.5 Q126 77 151.5 71.5 Q177 66 206 62.5 Q235 59 264 59 Q293 59 321 63 Q349 67 371 77 Q393 87 406 105 Q419 123 419 150 Q419 180 391.5 200.5 Q364 221 322 238 Q280 255 232 271.5 Q184 288 142 310 Q100 332 72.5 363 Q45 394 45 440 Q45 489 64.5 519 Q84 549 116 566 Q148 583 189 589 Q230 595 274 595 Z " />
<glyph glyph-name="T" unicode="T" horiz-adv-x="532" d="M45 590 L487 590 L487 527 L301 527 L301 0 L231 0 L231 527 L45 527 L45 590 Z " />
<glyph glyph-name="U" unicode="U" horiz-adv-x="614" d="M307 -6 Q267 -6 225 4.5 Q183 15 148.5 44 Q114 73 92 126 Q70 179 70 266 L70 590 L140 590 L140 277 Q140 212 153.5 170 Q167 128 190.5 103 Q214 78 244 68.5 Q274 59 307 59 Q340 59 370 68.5 Q400 78 423.5 103 Q447 128 460.5 170 Q474 212 474 277 L474 590 L544 590 L544 266 Q544 179 522 126 Q500 73 465.5 44 Q431 15 389 4.5 Q347 -6 307 -6 Z " />
<glyph glyph-name="V" unicode="V" horiz-adv-x="598" d="M493 590 L568 590 L346 0 L252 0 L30 590 L105 590 L299 72 L493 590 Z " />
<glyph glyph-name="W" unicode="W" horiz-adv-x="838" d="M618 71 L734 590 L803 590 L675 0 L563 0 L419 501 L275 0 L163 0 L35 590 L104 590 L220 71 L373 590 L465 590 L618 71 Z " />
<glyph glyph-name="X" unicode="X" horiz-adv-x="516" d="M112 0 L27 0 L218 291 L25 590 L111 590 L258 359 L405 590 L491 590 L298 291 L489 0 L404 0 L258 227 L112 0 Z " />
<glyph glyph-name="Y" unicode="Y" horiz-adv-x="557" d="M313 0 L244 0 L244 199 L25 590 L103 590 L278 281 L454 590 L532 590 L313 199 L313 0 Z " />
<glyph glyph-name="Z" unicode="Z" horiz-adv-x="517" d="M51 590 L467 590 L467 510 L126 65 L467 65 L467 0 L50 0 L50 84 L391 525 L51 525 L51 590 Z " />
<glyph glyph-name="bracketleft" unicode="&#x5b;" horiz-adv-x="332" d="M137 -141 L262 -141 L262 -204 L70 -204 L70 724 L262 724 L262 661 L137 661 L137 -141 Z " />
<glyph glyph-name="backslash" unicode="&#x5c;" horiz-adv-x="564" d="M494 -204 L422 -204 L70 724 L147 724 L494 -204 Z " />
<glyph glyph-name="bracketright" unicode="&#x5d;" horiz-adv-x="332" d="M195 661 L70 661 L70 724 L262 724 L262 -204 L70 -204 L70 -141 L195 -141 L195 661 Z " />
<glyph glyph-name="asciicircum" unicode="&#x5e;" horiz-adv-x="437" d="M264 590 Q288 539 315.5 494 Q343 449 367 399 L293 399 L219 534 L147 399 L70 399 Q94 450 121.5 495.5 Q149 541 173 590 L264 590 Z " />
<glyph glyph-name="underscore" unicode="&#x5f;" horiz-adv-x="444" d="M70 -65 L70 -6 L374 -6 L374 -65 L70 -65 Z " />
<glyph glyph-name="grave" unicode="&#x60;" horiz-adv-x="251" d="M70 590 L143 590 Q154 558 163 524.5 Q172 491 181 459 L121 459 L70 590 Z " />
<glyph glyph-name="a" unicode="a" horiz-adv-x="479" d="M414 0 L348 0 L341 48 Q324 28 301 17 Q278 6 255.5 1 Q233 -4 213.5 -5 Q194 -6 184 -6 L171 -6 Q164 -6 143.5 -2.5 Q123 1 101 14 Q79 27 62 53 Q45 79 45 124 Q45 148 52.5 170.5 Q60 193 78 210 Q96 227 125 237 Q154 247 196 247 Q219 247 253 241 Q287 235 344 204 L344 244 Q344 266 337 285 Q330 304 311.5 317.5 Q293 331 261 338.5 Q229 346 178 346 Q161 346 138 343 Q115 340 87 335 L87 392 Q109 400 136.5 405.5 Q164 411 218 411 Q311 411 361 369 Q411 327 414 247 L414 0 Z M344 139 Q330 151 311 161 Q294 169 271.5 175.5 Q249 182 219 182 Q186 182 165.5 177.5 Q145 173 133.5 165 Q122 157 118.5 146 Q115 135 115 121 Q115 93 137 76 Q159 59 219 59 Q254 59 278 66.5 Q302 74 317 83 Q334 94 344 107 L344 139 Z " />
<glyph glyph-name="b" unicode="b" horiz-adv-x="508" d="M65 590 L135 590 L135 347 Q155 371 177 384 Q199 397 218.5 403 Q238 409 253 410 Q268 411 274 411 Q308 411 341 399.5 Q374 388 400 363 Q426 338 442 300 Q458 262 458 209 Q458 147 441.5 105.5 Q425 64 399.5 39.5 Q374 15 343 4.5 Q312 -6 283 -6 Q273 -6 255 -5 Q237 -4 216.5 1 Q196 6 174.5 17.5 Q153 29 136 50 L128 0 L65 0 L65 590 Z M135 154 Q146 127 163 107 Q179 87 202 73 Q225 59 259 59 Q273 59 294.5 61.5 Q316 64 337 78 Q358 92 373 122.5 Q388 153 388 209 Q388 256 373 283.5 Q358 311 337 325 Q316 339 294.5 342.5 Q273 346 259 346 Q225 346 201.5 331 Q178 316 163 299 Q146 278 135 251 L135 154 Z " />
<glyph glyph-name="c" unicode="c" horiz-adv-x="425" d="M390 29 Q351 3 312.5 -1.5 Q274 -6 242 -6 Q215 -5 180.5 5 Q146 15 116 39 Q86 63 65.5 103.5 Q45 144 45 207 Q45 261 64.5 299.5 Q84 338 113.5 363 Q143 388 177.5 399.5 Q212 411 242 411 Q271 411 309 406.5 Q347 402 390 373 L360 324 Q325 338 299 342 Q273 346 255 346 Q235 346 210.5 340 Q186 334 165 318.5 Q144 303 129.5 276 Q115 249 115 208 Q115 162 129.5 133 Q144 104 165.5 87.5 Q187 71 211.5 65 Q236 59 255 59 Q275 59 300 62.5 Q325 66 360 81 L390 29 Z " />
<glyph glyph-name="d" unicode="d" horiz-adv-x="508" d="M443 0 L380 0 L372 50 Q355 29 333.5 17.5 Q312 6 291.5 1 Q271 -4 253.5 -5 Q236 -6 225 -6 Q196 -6 165 4.5 Q134 15 108.5 39.5 Q83 64 66.5 105.5 Q50 147 50 209 Q50 262 66 300 Q82 338 108 363 Q134 388 167 399.5 Q200 411 234 411 Q240 411 255 410 Q270 409 289.5 403 Q309 397 331 384 Q353 371 373 347 L373 590 L443 590 L443 0 Z M373 251 Q362 278 345 299 Q329 318 306 332 Q283 346 249 346 Q236 346 214 342.5 Q192 339 171 325 Q150 311 135 283.5 Q120 256 120 209 Q120 153 135 122.5 Q150 92 171 78 Q192 64 214 61.5 Q236 59 249 59 Q283 59 306.5 74 Q330 89 345 107 Q362 127 373 154 L373 251 Z " />
<glyph glyph-name="e" unicode="e" horiz-adv-x="475" d="M420 176 L119 176 Q126 146 136 123.5 Q146 101 164 87 Q182 73 210.5 66 Q239 59 283 59 Q298 59 329 62 Q360 65 391 69 L391 11 Q369 3 334.5 -1.5 Q300 -6 252 -6 Q200 -6 162 10.5 Q124 27 99 55 Q74 83 62 121.5 Q50 160 50 203 Q50 246 61.5 284 Q73 322 96.5 350 Q120 378 155 394.5 Q190 411 236 411 Q283 411 317.5 397 Q352 383 374.5 358.5 Q397 334 408.5 301 Q420 268 420 229 L420 176 Z M350 241 Q349 273 339.5 293.5 Q330 314 314.5 325.5 Q299 337 278.5 341.5 Q258 346 235 346 Q182 346 154.5 320 Q127 294 120 241 L350 241 Z " />
<glyph glyph-name="f" unicode="f" horiz-adv-x="372" d="M337 526 Q326 528 308.5 529 Q291 530 275 530 Q231 530 209 509 Q187 488 187 423 L187 405 L336 405 L336 340 L187 340 L187 0 L117 0 L117 340 L30 340 L30 405 L117 405 L117 413 Q117 508 155.5 551.5 Q194 595 260 595 Q292 595 310 591.5 Q328 588 337 583 L337 526 Z " />
<glyph glyph-name="g" unicode="g" horiz-adv-x="513" d="M448 -6 Q448 -69 425.5 -106.5 Q403 -144 371 -164.5 Q339 -185 303 -191.5 Q267 -198 240 -198 Q198 -198 161 -191 Q124 -184 95 -168 Q101 -152 104.5 -140.5 Q108 -129 115 -114 Q150 -127 182.5 -130 Q215 -133 235 -133 Q254 -133 279 -131 Q304 -129 326 -117 Q348 -105 363 -79 Q378 -53 378 -6 L378 51 Q361 30 339.5 18.5 Q318 7 297 1.5 Q276 -4 258.5 -5 Q241 -6 230 -6 Q201 -6 170 4.5 Q139 15 113.5 39.5 Q88 64 71.5 105.5 Q55 147 55 209 Q55 262 71 300 Q87 338 113 363 Q139 388 172 399.5 Q205 411 239 411 Q245 411 260 410 Q275 409 294.5 402.5 Q314 396 336 383 Q358 370 378 346 L387 405 L448 405 L448 -6 Z M378 251 Q367 278 350 299 Q334 318 311 332 Q288 346 254 346 Q241 346 219 342.5 Q197 339 176 325 Q155 311 140 283.5 Q125 256 125 209 Q125 153 140 122.5 Q155 92 176 78 Q197 64 219 61.5 Q241 59 254 59 Q288 59 311.5 74 Q335 89 350 107 Q367 127 378 154 L378 251 Z " />
<glyph glyph-name="h" unicode="h" horiz-adv-x="492" d="M65 0 L65 590 L135 590 L135 344 Q154 369 176 382.5 Q198 396 219 402.5 Q240 409 258 410 Q276 411 286 411 Q311 411 337 400.5 Q363 390 384 370.5 Q405 351 418.5 323 Q432 295 432 260 L432 0 L362 0 L362 254 Q362 281 352.5 299 Q343 317 329 327.5 Q315 338 297.5 342 Q280 346 265 346 Q232 346 208 332.5 Q184 319 167 303 Q148 284 135 260 L135 0 L65 0 Z " />
<glyph glyph-name="i" unicode="i" horiz-adv-x="210" d="M70 405 L140 405 L140 0 L70 0 L70 405 Z M70 554 L140 554 L140 475 L70 475 L70 554 Z " />
<glyph glyph-name="j" unicode="j" horiz-adv-x="210" d="M70 405 L140 405 L140 -60 Q140 -79 135.5 -103 Q131 -127 116 -148 Q101 -169 73.5 -183.5 Q46 -198 1 -198 Q-37 -198 -55.5 -195.5 Q-74 -193 -85 -189 L-85 -129 Q-70 -130 -57 -131 Q-45 -132 -34 -132.5 Q-23 -133 -16 -133 Q13 -133 30 -126.5 Q47 -120 56 -105.5 Q65 -91 67.5 -67.5 Q70 -44 70 -10 L70 405 Z M70 554 L140 554 L140 475 L70 475 L70 554 Z " />
<glyph glyph-name="k" unicode="k" horiz-adv-x="440" d="M337 0 L135 217 L135 0 L65 0 L65 590 L135 590 L135 243 L308 405 L409 405 L220 227 L432 0 L337 0 Z " />
<glyph glyph-name="l" unicode="l" horiz-adv-x="238" d="M140 102 Q140 86 142 77.5 Q144 69 149.5 65 Q155 61 164 60 Q173 59 188 59 L188 -4 Q180 -5 173 -5 Q166 -5 159.5 -5.5 Q153 -6 148 -6 L143 -6 Q130 -6 117 -2.5 Q104 1 93.5 11.5 Q83 22 76.5 42 Q70 62 70 97 L70 590 L140 590 L140 102 Z " />
<glyph glyph-name="m" unicode="m" horiz-adv-x="721" d="M507 411 Q581 411 621 370 Q661 329 661 254 L661 0 L591 0 L591 247 Q591 280 581.5 299.5 Q572 319 558 329.5 Q544 340 527 343 Q510 346 495 346 Q468 346 449 335.5 Q430 325 418 309.5 Q406 294 400.5 276 Q395 258 395 242 L395 0 L325 0 L325 254 Q325 281 316 299 Q307 317 293.5 327.5 Q280 338 263.5 342 Q247 346 232 346 Q196 346 176.5 332 Q157 318 148 299.5 Q139 281 137 264 Q135 247 135 241 L135 0 L65 0 L65 405 L123 405 L135 346 Q144 370 161 383.5 Q178 397 196 403 Q214 409 229.5 410 Q245 411 252 411 Q280 411 308.5 399.5 Q337 388 374 346 Q391 370 410.5 383.5 Q430 397 448 403 Q466 409 481.5 410 Q497 411 507 411 Z " />
<glyph glyph-name="n" unicode="n" horiz-adv-x="492" d="M65 0 L65 405 L126 405 L136 345 Q155 370 177 383.5 Q199 397 219.5 403 Q240 409 258 410 Q276 411 286 411 Q311 411 337 400.5 Q363 390 384 370.5 Q405 351 418.5 323 Q432 295 432 260 L432 0 L362 0 L362 254 Q362 281 352.5 299 Q343 317 329 327.5 Q315 338 297.5 342 Q280 346 265 346 Q232 346 208 332.5 Q184 319 167 303 Q148 284 135 260 L135 0 L65 0 Z " />
<glyph glyph-name="o" unicode="o" horiz-adv-x="502" d="M251 59 Q271 59 293.5 64 Q316 69 336 84.5 Q356 100 369 128.5 Q382 157 382 205 Q382 246 369.5 273.5 Q357 301 337.5 317 Q318 333 295 339.5 Q272 346 251 346 Q230 346 207 339.5 Q184 333 164.5 317 Q145 301 132.5 273.5 Q120 246 120 205 Q120 157 133 128.5 Q146 100 166 84.5 Q186 69 209 64 Q232 59 251 59 Z M251 -6 Q223 -6 188 3.5 Q153 13 122.5 37 Q92 61 71 102 Q50 143 50 207 Q50 261 69 299.5 Q88 338 117.5 363 Q147 388 182.5 399.5 Q218 411 251 411 Q284 411 319.5 399.5 Q355 388 384.5 363 Q414 338 433 299.5 Q452 261 452 207 Q452 143 431 102 Q410 61 379.5 37 Q349 13 314 3.5 Q279 -6 251 -6 Z " />
<glyph glyph-name="p" unicode="p" horiz-adv-x="508" d="M135 -198 L65 -198 L65 405 L126 405 L135 346 Q155 370 177 383 Q199 396 218.5 402.5 Q238 409 253 410 Q268 411 274 411 Q308 411 341 399.5 Q374 388 400 363 Q426 338 442 300 Q458 262 458 209 Q458 147 441.5 105.5 Q425 64 399.5 39.5 Q374 15 343 4.5 Q312 -6 283 -6 Q273 -6 255 -5 Q237 -4 216 1.5 Q195 7 173.5 18.5 Q152 30 135 51 L135 -198 Z M135 154 Q146 127 163 107 Q179 87 202 73 Q225 59 259 59 Q273 59 294.5 61.5 Q316 64 337 78 Q358 92 373 122.5 Q388 153 388 209 Q388 256 373 283.5 Q358 311 337 325 Q316 339 294.5 342.5 Q273 346 259 346 Q225 346 201.5 331 Q178 316 163 299 Q146 278 135 251 L135 154 Z " />
<glyph glyph-name="q" unicode="q" horiz-adv-x="508" d="M373 51 Q356 30 334.5 18.5 Q313 7 292 1.5 Q271 -4 253.5 -5 Q236 -6 225 -6 Q196 -6 165 4.5 Q134 15 108.5 39.5 Q83 64 66.5 105.5 Q50 147 50 209 Q50 262 66 300 Q82 338 108 363 Q134 388 167 399.5 Q200 411 234 411 Q240 411 255 410 Q270 409 289.5 402.5 Q309 396 331 383 Q353 370 373 346 L382 405 L443 405 L443 -198 L373 -198 L373 51 Z M373 251 Q362 278 345 299 Q329 318 306 332 Q283 346 249 346 Q236 346 214 342.5 Q192 339 171 325 Q150 311 135 283.5 Q120 256 120 209 Q120 153 135 122.5 Q150 92 171 78 Q192 64 214 61.5 Q236 59 249 59 Q283 59 306.5 74 Q330 89 345 107 Q362 127 373 154 L373 251 Z " />
<glyph glyph-name="r" unicode="r" horiz-adv-x="344" d="M314 343 Q300 345 292.5 345.5 Q285 346 279 346 Q227 346 198 325.5 Q169 305 155 280 Q138 250 135 213 L135 0 L65 0 L65 405 L126 405 L135 346 Q150 370 173.5 383.5 Q197 397 220.5 403 Q244 409 262.5 410 Q281 411 285 411 L314 411 L314 343 Z " />
<glyph glyph-name="s" unicode="s" horiz-adv-x="422" d="M214 411 Q259 411 290 405.5 Q321 400 339 392 L339 335 Q317 338 297 341 Q278 343 261 344.5 Q244 346 234 346 Q171 346 143 338 Q115 330 115 304 Q115 288 135 276.5 Q155 265 185 254.5 Q215 244 250 233 Q285 222 315 206.5 Q345 191 365 169.5 Q385 148 385 116 Q385 59 341 26.5 Q297 -6 212 -6 Q164 -6 124 2.5 Q84 11 63 21 L63 81 Q94 75 121 70 Q147 66 170 62.5 Q193 59 207 59 Q223 59 241.5 61.5 Q260 64 276.5 70 Q293 76 304 86.5 Q315 97 315 114 Q315 131 295 142.5 Q275 154 245 164.5 Q215 175 180 186.5 Q145 198 115 213.5 Q85 229 65 250.5 Q45 272 45 303 Q45 333 60 354 Q75 375 99 387.5 Q123 400 153.5 405.5 Q184 411 214 411 Z " />
<glyph glyph-name="t" unicode="t" horiz-adv-x="364" d="M25 340 L25 368 L159 556 L170 556 L170 405 L319 405 L319 340 L170 340 L170 159 Q170 124 175 104 Q180 84 191 74 Q202 64 220.5 61.5 Q239 59 266 59 Q279 59 292 61 Q305 63 319 65 L319 7 Q309 1 292.5 -2.5 Q276 -6 240 -6 Q195 -6 167.5 8 Q140 22 125 44.5 Q110 67 105 96 Q100 125 100 156 L100 340 L25 340 Z " />
<glyph glyph-name="u" unicode="u" horiz-adv-x="492" d="M427 405 L427 0 L366 0 L356 60 Q337 35 315 21.5 Q293 8 272.5 2 Q252 -4 234.5 -5 Q217 -6 206 -6 Q181 -6 155 4.5 Q129 15 108 34.5 Q87 54 73.5 82 Q60 110 60 145 L60 405 L130 405 L130 151 Q130 124 139.5 106.5 Q149 89 163 78.5 Q177 68 194.5 63.5 Q212 59 227 59 Q260 59 284 72.5 Q308 86 325 102 Q344 121 357 145 L357 405 L427 405 Z " />
<glyph glyph-name="v" unicode="v" horiz-adv-x="448" d="M177 0 L25 405 L103 405 L224 59 L345 405 L423 405 L271 0 L177 0 Z " />
<glyph glyph-name="w" unicode="w" horiz-adv-x="656" d="M459 57 L549 405 L626 405 Q597 302 569.5 202.5 Q542 103 513 0 L410 0 L328 244 L246 0 L143 0 Q114 103 86.5 202.5 Q59 302 30 405 L107 405 L197 57 L304 405 L352 405 L459 57 Z " />
<glyph glyph-name="x" unicode="x" horiz-adv-x="434" d="M117 0 L25 0 L168 203 L25 405 L119 405 L217 261 L315 405 L409 405 L266 203 L409 0 L317 0 L217 149 L117 0 Z " />
<glyph glyph-name="y" unicode="y" horiz-adv-x="447" d="M180 -13 Q167 24 153 63 Q139 102 122.5 150.5 Q106 199 84.5 261 Q63 323 35 405 L115 405 L218 84 Q247 159 279.5 244.5 Q312 330 341 405 L427 405 L213 -109 Q186 -163 156 -180.5 Q126 -198 94 -198 Q82 -198 66 -198 Q50 -198 40 -197 L40 -131 Q49 -132 57.5 -132.5 Q66 -133 68 -133 Q75 -133 86.5 -132 Q98 -131 111 -125 Q124 -119 136 -107 Q148 -95 156 -73 L180 -13 Z " />
<glyph glyph-name="z" unicode="z" horiz-adv-x="434" d="M60 405 L374 405 L374 317 L138 65 L374 65 L374 0 L60 0 L60 85 L300 340 L60 340 L60 405 Z " />
<glyph glyph-name="braceleft" unicode="&#x7b;" horiz-adv-x="492" d="M214 114 Q214 145 202 164.5 Q190 184 172 195.5 Q154 207 132 211.5 Q110 216 90 216 L70 216 L70 271 L90 271 Q110 271 132 275.5 Q154 280 172 291 Q190 302 202 322 Q214 342 214 372 L214 584 Q214 601 217.5 625 Q221 649 234 671 Q247 693 272 708.5 Q297 724 339 724 Q374 724 392.5 720.5 Q411 717 422 712 L422 660 Q414 660 407 661 Q400 661 394.5 661 Q389 661 386 661 Q359 661 339 659 Q319 657 306 648 Q293 639 287 620.5 Q281 602 281 570 L281 396 Q281 373 280 350 Q279 327 272 306.5 Q265 286 251 269.5 Q237 253 210 244 Q237 237 251 220.5 Q265 204 272 182.5 Q279 161 280 137 Q281 113 281 90 L281 -50 Q281 -82 287 -100.5 Q293 -119 306 -128 Q319 -137 339 -139 Q359 -141 386 -141 Q389 -141 394.5 -141 Q400 -141 407 -141 Q414 -140 422 -140 L422 -192 Q411 -197 392.5 -200.5 Q374 -204 339 -204 Q297 -204 272 -188.5 Q247 -173 234 -151 Q221 -129 217.5 -105 Q214 -81 214 -64 L214 114 Z " />
<glyph glyph-name="bar" unicode="&#x7c;" horiz-adv-x="210" d="M70 725 L140 725 L140 -204 L70 -204 L70 725 Z " />
<glyph glyph-name="braceright" unicode="&#x7d;" horiz-adv-x="492" d="M278 -64 Q278 -81 274.5 -105 Q271 -129 258 -151 Q245 -173 220 -188.5 Q195 -204 153 -204 Q118 -204 99.5 -200.5 Q81 -197 70 -192 L70 -140 Q78 -140 85 -141 Q92 -141 97.5 -141 Q103 -141 106 -141 Q133 -141 153 -139 Q173 -137 186 -128 Q199 -119 205 -100.5 Q211 -82 211 -50 L211 90 Q211 113 212 137 Q213 161 220 182.5 Q227 204 241 220.5 Q255 237 282 244 Q255 253 241 269.5 Q227 286 220 306.5 Q213 327 212 350 Q211 373 211 396 L211 570 Q211 602 205 620.5 Q199 639 186 648 Q173 657 153 659 Q133 661 106 661 Q103 661 97.5 661 Q92 661 85 661 Q78 660 70 660 L70 712 Q81 717 99.5 720.5 Q118 724 153 724 Q195 724 220 708.5 Q245 693 258 671 Q271 649 274.5 625 Q278 601 278 584 L278 372 Q278 342 290 322 Q302 302 320 291 Q338 280 360 275.5 Q382 271 402 271 L422 271 L422 216 L402 216 Q382 216 360 211.5 Q338 207 320 195.5 Q302 184 290 164.5 Q278 145 278 114 L278 -64 Z " />
<glyph glyph-name="asciitilde" unicode="&#x7e;" horiz-adv-x="384" d="M314 135 Q299 127 281 122.5 Q263 118 248 118 Q231 118 216 124 Q201 130 186 136.5 Q171 143 156.5 149 Q142 155 125 155 Q115 155 106.5 154.5 Q98 154 90 151 L70 201 Q85 212 97 215 Q109 218 125 218 Q143 218 158.5 212 Q174 206 189 199.5 Q204 193 219.5 187 Q235 181 252 181 Q263 181 274 182.5 Q285 184 295 189 L314 135 Z " />
<glyph glyph-name="uni00A0" unicode="&#xa0;" horiz-adv-x="199" d="" />
<glyph glyph-name="exclamdown" unicode="&#xa1;" horiz-adv-x="210" d="M78 452 L131 452 L140 357 L140 -6 L70 -6 L70 357 L78 452 Z M70 555 Q70 569 80.5 579.5 Q91 590 105 590 Q119 590 129.5 579.5 Q140 569 140 555 Q140 541 129.5 530.5 Q119 520 105 520 Q91 520 80.5 530.5 Q70 541 70 555 Z " />
<glyph glyph-name="cent" unicode="&#xa2;" horiz-adv-x="605" d="M500 93 Q509 81 517.5 68.5 Q526 56 534 45 Q499 21 460 8.5 Q421 -4 383 -6 L383 -124 L314 -124 L314 -2 Q274 4 231 22.5 Q188 41 152 77 Q116 113 93 169 Q70 225 70 306 Q70 378 90 430 Q110 482 144 516 Q178 550 222 568 Q266 586 314 592 L314 736 L383 736 L383 594 Q422 592 461 580 Q500 568 535 545 L500 497 Q467 514 431.5 522 Q396 530 364 530 Q324 530 284 521 Q244 512 212 487 Q180 462 160 418 Q140 374 140 303 Q140 222 163 174 Q186 126 220 100.5 Q254 75 293 67 Q332 59 364 59 Q399 59 433 67 Q467 75 500 93 Z " />
<glyph glyph-name="sterling" unicode="&#xa3;" horiz-adv-x="573" d="M209 312 L322 312 L322 249 L209 249 L209 63 L503 63 L503 0 L70 0 L70 63 L139 63 L139 249 L70 249 L70 312 L139 312 L139 403 Q139 466 161.5 503.5 Q184 541 216 561.5 Q248 582 284 588.5 Q320 595 347 595 Q389 595 426 588 Q463 581 492 565 Q486 549 482.5 537.5 Q479 526 472 511 Q437 524 404.5 527 Q372 530 352 530 Q333 530 308 528 Q283 526 261 514 Q239 502 224 476 Q209 450 209 403 L209 312 Z " />
<glyph glyph-name="currency" unicode="&#xa4;" horiz-adv-x="502" d="M388 208 Q388 197 385.5 179.5 Q383 162 372 142 L432 88 L398 49 L340 102 Q314 84 292 78 Q270 72 251 72 Q232 72 210 78 Q188 84 162 102 L104 49 L70 88 L130 142 Q119 162 116.5 179.5 Q114 197 114 208 Q114 219 116.5 236.5 Q119 254 130 274 L70 328 L104 367 L162 314 Q188 332 210 338 Q232 344 251 344 Q270 344 292 338 Q314 332 340 314 L398 367 L432 328 L372 274 Q383 254 385.5 236.5 Q388 219 388 208 Z M172 208 Q172 174 195.5 152 Q219 130 251 130 Q283 130 306.5 152 Q330 174 330 208 Q330 242 306.5 264 Q283 286 251 286 Q219 286 195.5 264 Q172 242 172 208 Z " />
<glyph glyph-name="yen" unicode="&#xa5;" horiz-adv-x="647" d="M172 251 L260 251 L70 590 L148 590 L323 281 L499 590 L577 590 L387 251 L475 251 L475 188 L358 188 L358 135 L475 135 L475 72 L358 72 L358 0 L289 0 L289 72 L172 72 L172 135 L289 135 L289 188 L172 188 L172 251 Z " />
<glyph glyph-name="brokenbar" unicode="&#xa6;" horiz-adv-x="210" d="M70 724 L140 724 L140 317 L70 317 L70 724 Z M70 203 L140 203 L140 -204 L70 -204 L70 203 Z " />
<glyph glyph-name="section" unicode="&#xa7;" horiz-adv-x="499" d="M258 595 Q303 595 334 589.5 Q365 584 383 576 L383 519 Q361 522 341 525 Q322 527 305 528.5 Q288 530 278 530 Q215 530 187 522 Q159 514 159 488 Q159 472 179 459 Q199 446 229 434 Q259 422 294 409.5 Q329 397 359 381 Q389 365 409 344.5 Q429 324 429 296 Q429 218 350 191 Q376 176 393 157 Q410 138 410 112 Q410 54 366 24 Q322 -6 237 -6 Q189 -6 149 2.5 Q109 11 88 21 L88 81 Q119 75 146 70 Q172 66 195 62.5 Q218 59 232 59 Q248 59 266.5 60 Q285 61 301.5 64.5 Q318 68 329 76.5 Q340 85 340 100 Q340 117 320 129.5 Q300 142 270 154.5 Q240 167 205 180 Q170 193 140 210 Q110 227 90 249.5 Q70 272 70 303 Q70 341 93 364 Q116 387 151 398 Q124 415 106.5 436.5 Q89 458 89 487 Q89 517 104 538 Q119 559 143 571.5 Q167 584 197.5 589.5 Q228 595 258 595 Z M359 284 Q359 301 345 313.5 Q331 326 312 333.5 Q293 341 272.5 344.5 Q252 348 238 348 Q223 348 206 346 Q189 344 174 339 Q159 334 149.5 325.5 Q140 317 140 304 Q140 291 153 280 Q166 269 184 260.5 Q202 252 220.5 247.5 Q239 243 251 243 Q267 243 285.5 244 Q304 245 320.5 248.5 Q337 252 348 260.5 Q359 269 359 284 Z " />
<glyph glyph-name="dieresis" unicode="&#xa8;" horiz-adv-x="349" d="M70 590 L138 590 L138 525 L70 525 L70 590 Z M211 590 L279 590 L279 525 L211 525 L211 590 Z " />
<glyph glyph-name="copyright" unicode="&#xa9;" horiz-adv-x="741" d="M369 596 Q432 596 487 572.5 Q542 549 583 508 Q624 467 647.5 412 Q671 357 671 294 Q671 233 647.5 178.5 Q624 124 583 83 Q542 42 487 18.5 Q432 -5 369 -5 Q308 -5 253.5 18.5 Q199 42 158 83 Q117 124 93.5 178.5 Q70 233 70 294 Q70 357 93.5 412 Q117 467 158 508 Q199 549 253.5 572.5 Q308 596 369 596 Z M369 60 Q417 60 460 79.5 Q503 99 535.5 131 Q568 163 587.5 205.5 Q607 248 607 294 Q607 342 587.5 385 Q568 428 535.5 460.5 Q503 493 460 512.5 Q417 532 369 532 Q323 532 280.5 512.5 Q238 493 206 460.5 Q174 428 154.5 385 Q135 342 135 294 Q135 248 154.5 205.5 Q174 163 206 131 Q238 99 280.5 79.5 Q323 60 369 60 Z M467 208 Q438 196 418.5 193 Q399 190 382 190 Q366 190 347.5 193.5 Q329 197 313.5 208.5 Q298 220 287.5 242.5 Q277 265 277 302 Q277 336 287 356 Q297 376 313 387 Q329 398 347.5 401.5 Q366 405 382 405 Q396 405 417.5 401.5 Q439 398 467 387 L492 437 Q457 460 425.5 464 Q394 468 371 468 Q347 468 318.5 458.5 Q290 449 266 429 Q242 409 226 377 Q210 345 210 301 Q210 250 226.5 216.5 Q243 183 268 163 Q293 143 321 135 Q349 127 371 127 Q397 127 428.5 130.5 Q460 134 492 156 L467 208 Z " />
<glyph glyph-name="ordfeminine" unicode="&#xaa;" horiz-adv-x="403" d="M333 290 L280 290 L275 315 Q249 293 225.5 289.5 Q202 286 189 286 Q183 286 163.5 288.5 Q144 291 123.5 300.5 Q103 310 86.5 328.5 Q70 347 70 379 Q70 396 75 413 Q80 430 92 443.5 Q104 457 123.5 465 Q143 473 171 473 Q199 473 222.5 469 Q246 465 275 451 L275 473 Q275 492 272.5 505 Q270 518 258 526.5 Q246 535 222 539 Q198 543 156 543 Q128 543 102 540 L102 586 Q113 590 132 592.5 Q151 595 186 595 Q256 595 293.5 568 Q331 541 333 482 L333 290 Z M275 383 Q275 388 273.5 394.5 Q272 401 264.5 406 Q257 411 241.5 414.5 Q226 418 199 418 Q154 418 141 408 Q128 398 128 378 Q128 373 129 366 Q130 359 137 353 Q144 347 158 343 Q172 339 199 339 Q231 339 253 349.5 Q275 360 275 383 Z " />
<glyph glyph-name="guillemotleft" unicode="&#xab;" horiz-adv-x="548" d="M70 193 Q90 243 106.5 289.5 Q123 336 142 387 L218 387 L145 193 L219 0 L144 0 L70 193 Z M329 193 Q349 243 365.5 289.5 Q382 336 401 387 L477 387 L404 193 L478 0 L403 0 L329 193 Z " />
<glyph glyph-name="logicalnot" unicode="&#xac;" horiz-adv-x="500" d="M360 158 L70 158 L70 221 L430 221 L430 40 L360 40 L360 158 Z " />
<glyph glyph-name="uni00AD" unicode="&#xad;" horiz-adv-x="198" d="" />
<glyph glyph-name="registered" unicode="&#xae;" horiz-adv-x="741" d="M369 596 Q432 596 487 572.5 Q542 549 583 508 Q624 467 647.5 412 Q671 357 671 294 Q671 233 647.5 178.5 Q624 124 583 83 Q542 42 487 18.5 Q432 -5 369 -5 Q308 -5 253.5 18.5 Q199 42 158 83 Q117 124 93.5 178.5 Q70 233 70 294 Q70 357 93.5 412 Q117 467 158 508 Q199 549 253.5 572.5 Q308 596 369 596 Z M369 60 Q417 60 460 79.5 Q503 99 535.5 131 Q568 163 587.5 205.5 Q607 248 607 294 Q607 342 587.5 385 Q568 428 535.5 460.5 Q503 493 460 512.5 Q417 532 369 532 Q323 532 280.5 512.5 Q238 493 206 460.5 Q174 428 154.5 385 Q135 342 135 294 Q135 248 154.5 205.5 Q174 163 206 131 Q238 99 280.5 79.5 Q323 60 369 60 Z M491 352 Q491 326 477.5 304 Q464 282 439 275 Q456 265 463.5 248 Q471 231 478 210 L499 142 L429 142 L408 201 Q400 224 380.5 233.5 Q361 243 349 243 L315 243 L315 142 L248 142 L248 457 L387 457 Q404 457 422.5 451.5 Q441 446 456 433.5 Q471 421 481 401 Q491 381 491 352 Z M391 322 Q402 322 413 329 Q424 336 424 360 Q424 376 413 385 Q402 394 391 394 L315 394 L315 322 L391 322 Z " />
<glyph glyph-name="macron" unicode="&#xaf;" horiz-adv-x="445" d="M70 526 L70 590 L375 590 L375 526 L70 526 Z " />
<glyph glyph-name="degree" unicode="&#xb0;" horiz-adv-x="374" d="M187 420 Q208 420 225.5 435 Q243 450 243 480 Q243 509 225.5 524.5 Q208 540 187 540 Q166 540 148.5 524.5 Q131 509 131 480 Q131 450 148.5 435 Q166 420 187 420 Z M187 365 Q160 365 138.5 374.5 Q117 384 101.5 399.5 Q86 415 78 436 Q70 457 70 480 Q70 503 78 524 Q86 545 101.5 561 Q117 577 138.5 586 Q160 595 187 595 Q214 595 235.5 586 Q257 577 272.5 561 Q288 545 296 524 Q304 503 304 480 Q304 457 296 436 Q288 415 272.5 399.5 Q257 384 235.5 374.5 Q214 365 187 365 Z " />
<glyph glyph-name="plusminus" unicode="&#xb1;" horiz-adv-x="456" d="M263 310 L386 310 L386 247 L263 247 L263 127 L193 127 L193 247 L70 247 L70 310 L193 310 L193 430 L263 430 L263 310 Z M70 63 L386 63 L386 0 L70 0 L70 63 Z " />
<glyph glyph-name="twosuperior" unicode="&#xb2;" horiz-adv-x="352" d="M70 335 Q70 362 94 383 Q118 404 147 423 Q176 442 200 460.5 Q224 479 224 502 Q224 517 219 525.5 Q214 534 205 538 Q196 542 184.5 542.5 Q173 543 161 543 Q143 543 122.5 539.5 Q102 536 85 531 L85 580 Q103 589 123 592 Q143 595 173 595 Q194 595 213.5 591.5 Q233 588 248.5 577.5 Q264 567 273 549 Q282 531 282 502 Q282 471 259.5 444.5 Q237 418 210 397.5 Q183 377 159 362.5 Q135 348 132 340 L275 340 L275 288 L70 288 L70 335 Z " />
<glyph glyph-name="threesuperior" unicode="&#xb3;" horiz-adv-x="342" d="M166 460 Q192 460 203 467 Q214 474 214 500 Q214 515 207 523.5 Q200 532 189 536.5 Q178 541 164.5 542 Q151 543 137 543 L129 543 Q111 543 96.5 540.5 Q82 538 70 535 L70 586 Q83 591 102 593 Q121 595 154 595 Q169 595 189.5 592 Q210 589 228.5 579 Q247 569 259.5 550 Q272 531 272 500 Q272 487 265.5 468 Q259 449 227 433 Q244 426 253 416 Q262 406 266.5 395.5 Q271 385 271.5 376 Q272 367 272 362 Q272 328 243 305.5 Q214 283 157 283 Q100 283 70 291 L70 343 Q84 339 102.5 337 Q121 335 147 335 Q174 335 194 339.5 Q214 344 214 370 Q214 398 199.5 403 Q185 408 156 408 L129 408 Q131 423 131 435 Q131 447 133 460 L166 460 Z " />
<glyph glyph-name="acute" unicode="&#xb4;" horiz-adv-x="267" d="M137 470 L70 470 L121 590 L197 590 L137 470 Z " />
<glyph glyph-name="mu" unicode="&#xb5;" horiz-adv-x="492" d="M60 405 L130 405 L130 151 Q130 124 139.5 106.5 Q149 89 163 78.5 Q177 68 194.5 63.5 Q212 59 227 59 Q260 59 284 72.5 Q308 86 325 102 Q344 121 357 145 L357 405 L427 405 L427 0 L366 0 L356 60 Q337 35 315 21.5 Q293 8 272.5 2 Q252 -4 234.5 -5 Q217 -6 206 -6 Q187 -6 167 0 Q147 6 130 17 L130 -195 L60 -195 L60 405 Z " />
<glyph glyph-name="paragraph" unicode="&#xb6;" horiz-adv-x="598" d="M528 0 L458 0 L458 527 L298 527 L298 0 L228 0 L228 304 Q192 304 163 316 Q134 328 113 347 Q92 366 81 390.5 Q70 415 70 440 Q70 464 79.5 490.5 Q89 517 107 539 Q125 561 151.5 575.5 Q178 590 212 590 L528 590 L528 0 Z " />
<glyph glyph-name="periodcentered" unicode="&#xb7;" horiz-adv-x="208" d="M70 205 L138 205 L138 140 L70 140 L70 205 Z " />
<glyph glyph-name="cedilla" unicode="&#xb8;" horiz-adv-x="267" d="M130 -6 L197 -6 L146 -126 L70 -126 L130 -6 Z " />
<glyph glyph-name="onesuperior" unicode="&#xb9;" horiz-adv-x="292" d="M70 544 L164 590 L222 590 L222 290 L164 290 L164 526 L70 478 L70 544 Z " />
<glyph glyph-name="ordmasculine" unicode="&#xba;" horiz-adv-x="374" d="M187 420 Q208 420 225.5 435 Q243 450 243 480 Q243 509 225.5 524.5 Q208 540 187 540 Q166 540 148.5 524.5 Q131 509 131 480 Q131 450 148.5 435 Q166 420 187 420 Z M187 365 Q160 365 138.5 374.5 Q117 384 101.5 399.5 Q86 415 78 436 Q70 457 70 480 Q70 503 78 524 Q86 545 101.5 561 Q117 577 138.5 586 Q160 595 187 595 Q214 595 235.5 586 Q257 577 272.5 561 Q288 545 296 524 Q304 503 304 480 Q304 457 296 436 Q288 415 272.5 399.5 Q257 384 235.5 374.5 Q214 365 187 365 Z " />
<glyph glyph-name="guillemotright" unicode="&#xbb;" horiz-adv-x="548" d="M404 0 L329 0 L403 193 L330 387 L406 387 Q425 336 441.5 289.5 Q458 243 478 193 L404 0 Z M145 0 L70 0 L144 193 L71 387 L147 387 Q166 336 182.5 289.5 Q199 243 219 193 L145 0 Z " />
<glyph glyph-name="onequarter" unicode="&#xbc;" horiz-adv-x="712" d="M70 544 L164 590 L222 590 L222 290 L164 290 L164 526 L70 478 L70 544 Z M188 0 L245 0 L472 590 L413 590 L188 0 Z M523 62 L359 62 L359 125 L490 319 L581 319 L581 114 L619 114 L619 62 L581 62 L581 0 L523 0 L523 62 Z M523 114 L523 268 L421 114 L523 114 Z " />
<glyph glyph-name="onehalf" unicode="&#xbd;" horiz-adv-x="705" d="M423 47 Q423 74 447 95 Q471 116 500 135 Q529 154 553 172.5 Q577 191 577 214 Q577 229 572 237.5 Q567 246 558 250 Q549 254 537.5 254.5 Q526 255 514 255 Q496 255 475.5 251.5 Q455 248 438 243 L438 292 Q456 301 476 304 Q496 307 526 307 Q547 307 566.5 303.5 Q586 300 601.5 289.5 Q617 279 626 261 Q635 243 635 214 Q635 183 612.5 156.5 Q590 130 563 109.5 Q536 89 512 74.5 Q488 60 485 52 L628 52 L628 0 L423 0 L423 47 Z M70 544 L164 590 L222 590 L222 290 L164 290 L164 526 L70 478 L70 544 Z M188 0 L245 0 L472 590 L413 590 L188 0 Z " />
<glyph glyph-name="threequarters" unicode="&#xbe;" horiz-adv-x="727" d="M166 455 Q192 455 203 462 Q214 469 214 495 Q214 510 207 518.5 Q200 527 189 531.5 Q178 536 164.5 537 Q151 538 137 538 L129 538 Q111 538 96.5 535.5 Q82 533 70 530 L70 581 Q83 586 102 588 Q121 590 154 590 Q169 590 189.5 587 Q210 584 228.5 574 Q247 564 259.5 545 Q272 526 272 495 Q272 482 265.5 463 Q259 444 227 428 Q244 421 253 411 Q262 401 266.5 390.5 Q271 380 271.5 371 Q272 362 272 357 Q272 323 243 300.5 Q214 278 157 278 Q100 278 70 286 L70 338 Q84 334 102.5 332 Q121 330 147 330 Q174 330 194 334.5 Q214 339 214 365 Q214 393 199.5 398 Q185 403 156 403 L129 403 Q131 418 131 430 Q131 442 133 455 L166 455 Z M212 0 L269 0 L496 590 L437 590 L212 0 Z M561 62 L397 62 L397 125 L528 319 L619 319 L619 114 L657 114 L657 62 L619 62 L619 0 L561 0 L561 62 Z M561 114 L561 268 L459 114 L561 114 Z " />
<glyph glyph-name="questiondown" unicode="&#xbf;" horiz-adv-x="510" d="M333 301 Q280 287 243.5 273.5 Q207 260 184 244 Q161 228 150.5 208.5 Q140 189 140 163 Q140 127 155.5 107 Q171 87 193 78 Q215 69 239.5 67 Q264 65 281 65 Q319 65 363 72 Q407 79 440 87 L440 28 Q419 18 382.5 9 Q346 0 273 0 Q243 0 207.5 6.5 Q172 13 141.5 30.5 Q111 48 90.5 79.5 Q70 111 70 160 Q70 182 76 208.5 Q82 235 102 261 Q122 287 160.5 310 Q199 333 263 349 L263 479 L333 479 L333 301 Z M333 561 Q333 545 323 535 Q313 525 299 525 Q283 525 273 535 Q263 545 263 561 Q263 575 273 585 Q283 595 299 595 Q313 595 323 585 Q333 575 333 561 Z " />
<glyph glyph-name="Agrave" unicode="&#xc0;" horiz-adv-x="598" d="M568 0 L493 0 L440 144 L158 144 L105 0 L30 0 L252 590 L346 590 L568 0 Z M414 208 L299 518 L184 208 L414 208 Z M204 777 L280 777 L331 657 L264 657 L204 777 Z " />
<glyph glyph-name="Aacute" unicode="&#xc1;" horiz-adv-x="598" d="M252 590 L346 590 L568 0 L493 0 L440 144 L158 144 L105 0 L30 0 L252 590 Z M414 208 L299 518 L184 208 L414 208 Z M334 657 L267 657 L318 777 L394 777 L334 657 Z " />
<glyph glyph-name="Acircumflex" unicode="&#xc2;" horiz-adv-x="598" d="M252 590 L346 590 L568 0 L493 0 L440 144 L158 144 L105 0 L30 0 L252 590 Z M414 208 L299 518 L184 208 L414 208 Z M333 780 L408 657 L339 657 L299 730 L260 657 L191 657 L266 780 L333 780 Z " />
<glyph glyph-name="Atilde" unicode="&#xc3;" horiz-adv-x="598" d="M252 590 L346 590 L568 0 L493 0 L440 144 L158 144 L105 0 L30 0 L252 590 Z M414 208 L299 518 L184 208 L414 208 Z M421 674 Q406 666 388 661.5 Q370 657 355 657 Q338 657 323 663 Q308 669 293 675.5 Q278 682 263.5 688 Q249 694 232 694 Q222 694 213.5 693.5 Q205 693 197 690 L177 740 Q192 751 204 754 Q216 757 232 757 Q250 757 265.5 751 Q281 745 296 738.5 Q311 732 326.5 726 Q342 720 359 720 Q370 720 381 721.5 Q392 723 402 728 L421 674 Z " />
<glyph glyph-name="Adieresis" unicode="&#xc4;" horiz-adv-x="598" d="M252 590 L346 590 L568 0 L493 0 L440 144 L158 144 L105 0 L30 0 L252 590 Z M414 208 L299 518 L184 208 L414 208 Z M195 722 L263 722 L263 657 L195 657 L195 722 Z M336 722 L404 722 L404 657 L336 657 L336 722 Z " />
<glyph glyph-name="Aring" unicode="&#xc5;" horiz-adv-x="598" d="M252 590 L346 590 L568 0 L493 0 L440 144 L158 144 L105 0 L30 0 L252 590 Z M414 208 L299 518 L184 208 L414 208 Z M299 712 Q320 712 337.5 727 Q355 742 355 772 Q355 801 337.5 816.5 Q320 832 299 832 Q278 832 260.5 816.5 Q243 801 243 772 Q243 742 260.5 727 Q278 712 299 712 Z M299 657 Q272 657 250.5 666.5 Q229 676 213.5 691.5 Q198 707 190 728 Q182 749 182 772 Q182 795 190 816 Q198 837 213.5 853 Q229 869 250.5 878 Q272 887 299 887 Q326 887 347.5 878 Q369 869 384.5 853 Q400 837 408 816 Q416 795 416 772 Q416 749 408 728 Q400 707 384.5 691.5 Q369 676 347.5 666.5 Q326 657 299 657 Z " />
<glyph glyph-name="AE" unicode="&#xc6;" horiz-adv-x="992" d="M614 528 L614 330 L874 330 L874 267 L614 267 L614 63 L932 63 L932 0 L544 0 L544 144 L235 144 L120 0 L31 0 L502 590 L932 590 L932 528 L614 528 Z M544 208 L544 530 L286 208 L544 208 Z " />
<glyph glyph-name="Ccedilla" unicode="&#xc7;" horiz-adv-x="550" d="M339 530 Q299 530 259 521 Q219 512 187 487 Q155 462 135 418 Q115 374 115 303 Q115 222 138 174 Q161 126 195 100.5 Q229 75 268 67 Q307 59 339 59 Q374 59 408 67 Q442 75 475 93 Q484 81 492.5 68.5 Q501 56 509 45 Q471 18 426.5 6 Q382 -6 341 -6 Q301 -6 249.5 7 Q198 20 152.5 54.5 Q107 89 76 149.5 Q45 210 45 306 Q45 388 70.5 443.5 Q96 499 137.5 532.5 Q179 566 232 580.5 Q285 595 340 595 Q383 595 427.5 582.5 Q472 570 510 545 L475 497 Q442 514 406.5 522 Q371 530 339 530 Z M300 -64 L367 -64 L316 -184 L240 -184 L300 -64 Z " />
<glyph glyph-name="Egrave" unicode="&#xc8;" horiz-adv-x="518" d="M140 528 L140 330 L400 330 L400 267 L140 267 L140 63 L458 63 L458 0 L70 0 L70 590 L458 590 L458 528 L140 528 Z M176 777 L252 777 L303 657 L236 657 L176 777 Z " />
<glyph glyph-name="Eacute" unicode="&#xc9;" horiz-adv-x="518" d="M140 528 L140 330 L400 330 L400 267 L140 267 L140 63 L458 63 L458 0 L70 0 L70 590 L458 590 L458 528 L140 528 Z M308 657 L241 657 L292 777 L368 777 L308 657 Z " />
<glyph glyph-name="Ecircumflex" unicode="&#xca;" horiz-adv-x="518" d="M140 528 L140 330 L400 330 L400 267 L140 267 L140 63 L458 63 L458 0 L70 0 L70 590 L458 590 L458 528 L140 528 Z M295 780 L370 657 L301 657 L261 730 L222 657 L153 657 L228 780 L295 780 Z " />
<glyph glyph-name="Edieresis" unicode="&#xcb;" horiz-adv-x="518" d="M140 528 L140 330 L400 330 L400 267 L140 267 L140 63 L458 63 L458 0 L70 0 L70 590 L458 590 L458 528 L140 528 Z M156 722 L224 722 L224 657 L156 657 L156 722 Z M297 722 L365 722 L365 657 L297 657 L297 722 Z " />
<glyph glyph-name="Igrave" unicode="&#xcc;" horiz-adv-x="210" d="M70 590 L140 590 L140 0 L70 0 L70 590 Z M10 777 L86 777 L137 657 L70 657 L10 777 Z " />
<glyph glyph-name="Iacute" unicode="&#xcd;" horiz-adv-x="210" d="M140 0 L70 0 L70 590 L140 590 L140 0 Z M140 657 L73 657 L124 777 L200 777 L140 657 Z " />
<glyph glyph-name="Icircumflex" unicode="&#xce;" horiz-adv-x="210" d="M70 590 L140 590 L140 0 L70 0 L70 590 Z M139 780 L214 657 L145 657 L105 730 L66 657 L-3 657 L72 780 L139 780 Z " />
<glyph glyph-name="Idieresis" unicode="&#xcf;" horiz-adv-x="210" d="M70 590 L140 590 L140 0 L70 0 L70 590 Z M12 722 L80 722 L80 657 L12 657 L12 722 Z M129 722 L197 722 L197 657 L129 657 L129 722 Z " />
<glyph glyph-name="Eth" unicode="&#xd0;" horiz-adv-x="640" d="M585 307 Q585 214 557.5 154.5 Q530 95 489.5 60.5 Q449 26 401.5 13 Q354 0 314 0 L114 0 L114 259 L30 259 L30 322 L114 322 L114 590 L302 590 Q350 590 400 575.5 Q450 561 491 528 Q532 495 558.5 441 Q585 387 585 307 Z M184 259 L184 63 L301 63 Q333 63 370.5 70 Q408 77 440 102 Q472 127 493.5 175 Q515 223 515 304 Q515 367 497 410 Q479 453 449.5 479 Q420 505 382 516.5 Q344 528 304 528 L184 528 L184 322 L334 322 L334 259 L184 259 Z " />
<glyph glyph-name="Ntilde" unicode="&#xd1;" horiz-adv-x="634" d="M140 491 L140 0 L70 0 L70 590 L159 590 L494 92 L494 590 L564 590 L564 0 L473 0 L140 491 Z M436 674 Q421 666 403 661.5 Q385 657 370 657 Q353 657 338 663 Q323 669 308 675.5 Q293 682 278.5 688 Q264 694 247 694 Q237 694 228.5 693.5 Q220 693 212 690 L192 740 Q207 751 219 754 Q231 757 247 757 Q265 757 280.5 751 Q296 745 311 738.5 Q326 732 341.5 726 Q357 720 374 720 Q385 720 396 721.5 Q407 723 417 728 L436 674 Z " />
<glyph glyph-name="Ograve" unicode="&#xd2;" horiz-adv-x="676" d="M338 59 Q370 59 407.5 67 Q445 75 477 100.5 Q509 126 530.5 174.5 Q552 223 552 304 Q552 375 533.5 419 Q515 463 485 487.5 Q455 512 416.5 521 Q378 530 338 530 Q298 530 260 521 Q222 512 192 487.5 Q162 463 143.5 419 Q125 375 125 304 Q125 223 146.5 174.5 Q168 126 200 100.5 Q232 75 269 67 Q306 59 338 59 Z M338 -6 Q298 -6 248.5 7 Q199 20 156 54.5 Q113 89 84 150 Q55 211 55 307 Q55 387 81 442 Q107 497 148.5 531 Q190 565 240 580 Q290 595 338 595 Q386 595 436.5 580 Q487 565 528 531 Q569 497 595 442 Q621 387 621 307 Q621 211 592 150 Q563 89 520 54.5 Q477 20 428 7 Q379 -6 338 -6 Z M240 777 L316 777 L367 657 L300 657 L240 777 Z " />
<glyph glyph-name="Oacute" unicode="&#xd3;" horiz-adv-x="676" d="M338 59 Q370 59 407 67 Q444 75 476 100.5 Q508 126 529.5 174.5 Q551 223 551 304 Q551 375 532.5 419 Q514 463 484 487.5 Q454 512 416 521 Q378 530 338 530 Q298 530 259.5 521 Q221 512 191 487.5 Q161 463 142.5 419 Q124 375 124 304 Q124 223 145.5 174.5 Q167 126 199 100.5 Q231 75 268.5 67 Q306 59 338 59 Z M338 -6 Q298 -6 248.5 7 Q199 20 156 54.5 Q113 89 84 150 Q55 211 55 307 Q55 387 81 442 Q107 497 148 531 Q189 565 239.5 580 Q290 595 338 595 Q386 595 436 580 Q486 565 527.5 531 Q569 497 595 442 Q621 387 621 307 Q621 211 592 150 Q563 89 520 54.5 Q477 20 428 7 Q379 -6 338 -6 Z M376 657 L309 657 L360 777 L436 777 L376 657 Z " />
<glyph glyph-name="Ocircumflex" unicode="&#xd4;" horiz-adv-x="676" d="M338 59 Q370 59 407 67 Q444 75 476 100.5 Q508 126 529.5 174.5 Q551 223 551 304 Q551 375 532.5 419 Q514 463 484 487.5 Q454 512 416 521 Q378 530 338 530 Q298 530 259.5 521 Q221 512 191 487.5 Q161 463 142.5 419 Q124 375 124 304 Q124 223 145.5 174.5 Q167 126 199 100.5 Q231 75 268.5 67 Q306 59 338 59 Z M338 -6 Q298 -6 248.5 7 Q199 20 156 54.5 Q113 89 84 150 Q55 211 55 307 Q55 387 81 442 Q107 497 148 531 Q189 565 239.5 580 Q290 595 338 595 Q386 595 436 580 Q486 565 527.5 531 Q569 497 595 442 Q621 387 621 307 Q621 211 592 150 Q563 89 520 54.5 Q477 20 428 7 Q379 -6 338 -6 Z M372 780 L447 657 L378 657 L338 730 L299 657 L230 657 L305 780 L372 780 Z " />
<glyph glyph-name="Otilde" unicode="&#xd5;" horiz-adv-x="676" d="M338 59 Q370 59 407 67 Q444 75 476 100.5 Q508 126 529.5 174.5 Q551 223 551 304 Q551 375 532.5 419 Q514 463 484 487.5 Q454 512 416 521 Q378 530 338 530 Q298 530 259.5 521 Q221 512 191 487.5 Q161 463 142.5 419 Q124 375 124 304 Q124 223 145.5 174.5 Q167 126 199 100.5 Q231 75 268.5 67 Q306 59 338 59 Z M338 -6 Q298 -6 248.5 7 Q199 20 156 54.5 Q113 89 84 150 Q55 211 55 307 Q55 387 81 442 Q107 497 148 531 Q189 565 239.5 580 Q290 595 338 595 Q386 595 436 580 Q486 565 527.5 531 Q569 497 595 442 Q621 387 621 307 Q621 211 592 150 Q563 89 520 54.5 Q477 20 428 7 Q379 -6 338 -6 Z M460 674 Q445 666 427 661.5 Q409 657 394 657 Q377 657 362 663 Q347 669 332 675.5 Q317 682 302.5 688 Q288 694 271 694 Q261 694 252.5 693.5 Q244 693 236 690 L216 740 Q231 751 243 754 Q255 757 271 757 Q289 757 304.5 751 Q320 745 335 738.5 Q350 732 365.5 726 Q381 720 398 720 Q409 720 420 721.5 Q431 723 441 728 L460 674 Z " />
<glyph glyph-name="Odieresis" unicode="&#xd6;" horiz-adv-x="676" d="M338 59 Q370 59 407 67 Q444 75 476 100.5 Q508 126 529.5 174.5 Q551 223 551 304 Q551 375 532.5 419 Q514 463 484 487.5 Q454 512 416 521 Q378 530 338 530 Q298 530 259.5 521 Q221 512 191 487.5 Q161 463 142.5 419 Q124 375 124 304 Q124 223 145.5 174.5 Q167 126 199 100.5 Q231 75 268.5 67 Q306 59 338 59 Z M338 -6 Q298 -6 248.5 7 Q199 20 156 54.5 Q113 89 84 150 Q55 211 55 307 Q55 387 81 442 Q107 497 148 531 Q189 565 239.5 580 Q290 595 338 595 Q386 595 436 580 Q486 565 527.5 531 Q569 497 595 442 Q621 387 621 307 Q621 211 592 150 Q563 89 520 54.5 Q477 20 428 7 Q379 -6 338 -6 Z M234 722 L302 722 L302 657 L234 657 L234 722 Z M375 722 L443 722 L443 657 L375 657 L375 722 Z " />
<glyph glyph-name="multiply" unicode="&#xd7;" horiz-adv-x="406" d="M153 52 L71 52 L160 192 L70 333 L154 333 L203 254 L252 333 L336 333 L246 192 L335 52 L253 52 L203 130 L153 52 Z " />
<glyph glyph-name="Oslash" unicode="&#xd8;" horiz-adv-x="676" d="M473 566 Q504 552 531 529.5 Q558 507 578 475 Q598 443 609.5 401.5 Q621 360 621 307 Q621 211 592 150 Q563 89 520 54.5 Q477 20 428 7 Q379 -6 338 -6 Q323 -6 306 -4.5 Q289 -3 271 1 L237 -91 L164 -91 L206 23 Q176 37 148.5 60.5 Q121 84 100.5 118.5 Q80 153 67.5 199.5 Q55 246 55 307 Q55 387 81 442 Q107 497 148.5 531 Q190 565 240 580 Q290 595 338 595 Q375 595 407 588 L439 673 L512 673 L473 566 Z M338 59 Q370 59 407.5 67 Q445 75 477 100.5 Q509 126 530.5 174.5 Q552 223 552 304 Q552 375 533.5 419 Q515 463 485 487.5 Q455 512 416.5 521 Q378 530 338 530 Q298 530 260 521 Q222 512 192 487.5 Q162 463 143.5 419 Q125 375 125 304 Q125 223 146.5 174.5 Q168 126 200 100.5 Q232 75 269 67 Q306 59 338 59 Z " />
<glyph glyph-name="Ugrave" unicode="&#xd9;" horiz-adv-x="614" d="M307 -6 Q267 -6 225 4.5 Q183 15 148.5 44 Q114 73 92 126 Q70 179 70 266 L70 590 L140 590 L140 277 Q140 212 153.5 170 Q167 128 190.5 103 Q214 78 244 68.5 Q274 59 307 59 Q340 59 370 68.5 Q400 78 423.5 103 Q447 128 460.5 170 Q474 212 474 277 L474 590 L544 590 L544 266 Q544 179 522 126 Q500 73 465.5 44 Q431 15 389 4.5 Q347 -6 307 -6 Z M211 777 L287 777 L338 657 L271 657 L211 777 Z " />
<glyph glyph-name="Uacute" unicode="&#xda;" horiz-adv-x="614" d="M307 -6 Q267 -6 225 4.5 Q183 15 148.5 44 Q114 73 92 126 Q70 179 70 266 L70 590 L140 590 L140 277 Q140 212 153.5 170 Q167 128 190.5 103 Q214 78 244 68.5 Q274 59 307 59 Q340 59 370 68.5 Q400 78 423.5 103 Q447 128 460.5 170 Q474 212 474 277 L474 590 L544 590 L544 266 Q544 179 522 126 Q500 73 465.5 44 Q431 15 389 4.5 Q347 -6 307 -6 Z M343 657 L276 657 L327 777 L403 777 L343 657 Z " />
<glyph glyph-name="Ucircumflex" unicode="&#xdb;" horiz-adv-x="614" d="M307 -6 Q267 -6 225 4.5 Q183 15 148.5 44 Q114 73 92 126 Q70 179 70 266 L70 590 L140 590 L140 277 Q140 212 153.5 170 Q167 128 190.5 103 Q214 78 244 68.5 Q274 59 307 59 Q340 59 370 68.5 Q400 78 423.5 103 Q447 128 460.5 170 Q474 212 474 277 L474 590 L544 590 L544 266 Q544 179 522 126 Q500 73 465.5 44 Q431 15 389 4.5 Q347 -6 307 -6 Z M341 780 L416 657 L347 657 L307 730 L268 657 L199 657 L274 780 L341 780 Z " />
<glyph glyph-name="Udieresis" unicode="&#xdc;" horiz-adv-x="614" d="M307 -6 Q267 -6 225 4.5 Q183 15 148.5 44 Q114 73 92 126 Q70 179 70 266 L70 590 L140 590 L140 277 Q140 212 153.5 170 Q167 128 190.5 103 Q214 78 244 68.5 Q274 59 307 59 Q340 59 370 68.5 Q400 78 423.5 103 Q447 128 460.5 170 Q474 212 474 277 L474 590 L544 590 L544 266 Q544 179 522 126 Q500 73 465.5 44 Q431 15 389 4.5 Q347 -6 307 -6 Z M203 722 L271 722 L271 657 L203 657 L203 722 Z M344 722 L412 722 L412 657 L344 657 L344 722 Z " />
<glyph glyph-name="Yacute" unicode="&#xdd;" horiz-adv-x="557" d="M313 0 L244 0 L244 199 L25 590 L103 590 L278 281 L454 590 L532 590 L313 199 L313 0 Z M315 657 L248 657 L299 777 L375 777 L315 657 Z " />
<glyph glyph-name="Thorn" unicode="&#xde;" horiz-adv-x="555" d="M65 590 L135 590 L135 489 L342 489 Q372 489 403.5 478.5 Q435 468 461 445.5 Q487 423 503.5 387 Q520 351 520 300 Q520 239 504 200 Q488 161 462.5 138.5 Q437 116 406 107 Q375 98 345 98 L135 98 L135 0 L65 0 L65 590 Z M135 425 L135 162 L338 162 Q358 162 378 167 Q398 172 414 186.5 Q430 201 440 228 Q450 255 450 300 Q450 339 440 363 Q430 387 414.5 401 Q399 415 379 420 Q359 425 338 425 L135 425 Z " />
<glyph glyph-name="germandbls" unicode="&#xdf;" horiz-adv-x="557" d="M297 595 Q330 595 363 588 Q396 581 423 562 Q450 543 467 510 Q484 477 484 424 Q484 411 482.5 396 Q481 381 475 365 Q469 349 457 331 Q445 313 424 293 Q456 285 474 273 Q492 261 502 245 Q512 229 514.5 209 Q517 189 517 165 Q517 129 507 98.5 Q497 68 473.5 46.5 Q450 25 411 12.5 Q372 0 313 0 L277 0 L277 65 L315 65 Q335 65 358 68 Q381 71 400.5 83 Q420 95 433.5 117.5 Q447 140 447 179 Q447 208 434.5 224 Q422 240 403 247.5 Q384 255 361.5 256 Q339 257 319 257 L220 257 L236 322 L286 322 Q306 322 328.5 324.5 Q351 327 370 337 Q389 347 401.5 367 Q414 387 414 422 Q414 454 402 475 Q390 496 372 508 Q354 520 331.5 525 Q309 530 288 530 L281 530 Q244 530 216.5 523 Q189 516 171 494 Q153 472 144 430.5 Q135 389 135 320 L135 0 L65 0 L65 334 Q65 428 84 480.5 Q103 533 133.5 558.5 Q164 584 203.5 589.5 Q243 595 283 595 L297 595 Z " />
<glyph glyph-name="agrave" unicode="&#xe0;" horiz-adv-x="479" d="M414 0 L348 0 L341 48 Q324 28 301 17 Q278 6 255.5 1 Q233 -4 213.5 -5 Q194 -6 184 -6 L171 -6 Q164 -6 143.5 -2.5 Q123 1 101 14 Q79 27 62 53 Q45 79 45 124 Q45 148 52.5 170.5 Q60 193 78 210 Q96 227 125 237 Q154 247 196 247 Q219 247 253 241 Q287 235 344 204 L344 244 Q344 266 337 285 Q330 304 311.5 317.5 Q293 331 261 338.5 Q229 346 178 346 Q161 346 138 343 Q115 340 87 335 L87 392 Q109 400 136.5 405.5 Q164 411 218 411 Q311 411 361 369 Q411 327 414 247 L414 0 Z M344 139 Q330 151 311 161 Q294 169 271.5 175.5 Q249 182 219 182 Q186 182 165.5 177.5 Q145 173 133.5 165 Q122 157 118.5 146 Q115 135 115 121 Q115 93 137 76 Q159 59 219 59 Q254 59 278 66.5 Q302 74 317 83 Q334 94 344 107 L344 139 Z M150 591 L226 591 L277 471 L210 471 L150 591 Z " />
<glyph glyph-name="aacute" unicode="&#xe1;" horiz-adv-x="479" d="M414 0 L348 0 L341 48 Q324 28 301 17 Q278 6 255.5 1 Q233 -4 213.5 -5 Q194 -6 184 -6 L171 -6 Q164 -6 143.5 -2.5 Q123 1 101 14 Q79 27 62 53 Q45 79 45 124 Q45 148 52.5 170.5 Q60 193 78 210 Q96 227 125 237 Q154 247 196 247 Q219 247 253 241 Q287 235 344 204 L344 244 Q344 266 337 285 Q330 304 311.5 317.5 Q293 331 261 338.5 Q229 346 178 346 Q161 346 138 343 Q115 340 87 335 L87 392 Q109 400 136.5 405.5 Q164 411 218 411 Q311 411 361 369 Q411 327 414 247 L414 0 Z M344 139 Q330 151 311 161 Q294 169 271.5 175.5 Q249 182 219 182 Q186 182 165.5 177.5 Q145 173 133.5 165 Q122 157 118.5 146 Q115 135 115 121 Q115 93 137 76 Q159 59 219 59 Q254 59 278 66.5 Q302 74 317 83 Q334 94 344 107 L344 139 Z M258 471 L191 471 L242 591 L318 591 L258 471 Z " />
<glyph glyph-name="acircumflex" unicode="&#xe2;" horiz-adv-x="479" d="M414 0 L348 0 L341 48 Q324 28 301 17 Q278 6 255.5 1 Q233 -4 213.5 -5 Q194 -6 184 -6 L171 -6 Q164 -6 143.5 -2.5 Q123 1 101 14 Q79 27 62 53 Q45 79 45 124 Q45 148 52.5 170.5 Q60 193 78 210 Q96 227 125 237 Q154 247 196 247 Q219 247 253 241 Q287 235 344 204 L344 244 Q344 266 337 285 Q330 304 311.5 317.5 Q293 331 261 338.5 Q229 346 178 346 Q161 346 138 343 Q115 340 87 335 L87 392 Q109 400 136.5 405.5 Q164 411 218 411 Q311 411 361 369 Q411 327 414 247 L414 0 Z M344 139 Q330 151 311 161 Q294 169 271.5 175.5 Q249 182 219 182 Q186 182 165.5 177.5 Q145 173 133.5 165 Q122 157 118.5 146 Q115 135 115 121 Q115 93 137 76 Q159 59 219 59 Q254 59 278 66.5 Q302 74 317 83 Q334 94 344 107 L344 139 Z M279 594 L354 471 L285 471 L245 544 L206 471 L137 471 L212 594 L279 594 Z " />
<glyph glyph-name="atilde" unicode="&#xe3;" horiz-adv-x="479" d="M414 0 L348 0 L341 48 Q324 28 301 17 Q278 6 255.5 1 Q233 -4 213.5 -5 Q194 -6 184 -6 L171 -6 Q164 -6 143.5 -2.5 Q123 1 101 14 Q79 27 62 53 Q45 79 45 124 Q45 148 52.5 170.5 Q60 193 78 210 Q96 227 125 237 Q154 247 196 247 Q219 247 253 241 Q287 235 344 204 L344 244 Q344 266 337 285 Q330 304 311.5 317.5 Q293 331 261 338.5 Q229 346 178 346 Q161 346 138 343 Q115 340 87 335 L87 392 Q109 400 136.5 405.5 Q164 411 218 411 Q311 411 361 369 Q411 327 414 247 L414 0 Z M344 139 Q330 151 311 161 Q294 169 271.5 175.5 Q249 182 219 182 Q186 182 165.5 177.5 Q145 173 133.5 165 Q122 157 118.5 146 Q115 135 115 121 Q115 93 137 76 Q159 59 219 59 Q254 59 278 66.5 Q302 74 317 83 Q334 94 344 107 L344 139 Z M367 488 Q352 480 334 475.5 Q316 471 301 471 Q284 471 269 477 Q254 483 239 489.5 Q224 496 209.5 502 Q195 508 178 508 Q168 508 159.5 507.5 Q151 507 143 504 L123 554 Q138 565 150 568 Q162 571 178 571 Q196 571 211.5 565 Q227 559 242 552.5 Q257 546 272.5 540 Q288 534 305 534 Q316 534 327 535.5 Q338 537 348 542 L367 488 Z " />
<glyph glyph-name="adieresis" unicode="&#xe4;" horiz-adv-x="479" d="M414 0 L348 0 L341 48 Q324 28 301 17 Q278 6 255.5 1 Q233 -4 213.5 -5 Q194 -6 184 -6 L171 -6 Q164 -6 143.5 -2.5 Q123 1 101 14 Q79 27 62 53 Q45 79 45 124 Q45 148 52.5 170.5 Q60 193 78 210 Q96 227 125 237 Q154 247 196 247 Q219 247 253 241 Q287 235 344 204 L344 244 Q344 266 337 285 Q330 304 311.5 317.5 Q293 331 261 338.5 Q229 346 178 346 Q161 346 138 343 Q115 340 87 335 L87 392 Q109 400 136.5 405.5 Q164 411 218 411 Q311 411 361 369 Q411 327 414 247 L414 0 Z M344 139 Q330 151 311 161 Q294 169 271.5 175.5 Q249 182 219 182 Q186 182 165.5 177.5 Q145 173 133.5 165 Q122 157 118.5 146 Q115 135 115 121 Q115 93 137 76 Q159 59 219 59 Q254 59 278 66.5 Q302 74 317 83 Q334 94 344 107 L344 139 Z M139 536 L207 536 L207 471 L139 471 L139 536 Z M280 536 L348 536 L348 471 L280 471 L280 536 Z " />
<glyph glyph-name="aring" unicode="&#xe5;" horiz-adv-x="479" d="M414 0 L348 0 L341 48 Q324 28 301 17 Q278 6 255.5 1 Q233 -4 213.5 -5 Q194 -6 184 -6 L171 -6 Q164 -6 143.5 -2.5 Q123 1 101 14 Q79 27 62 53 Q45 79 45 124 Q45 148 52.5 170.5 Q60 193 78 210 Q96 227 125 237 Q154 247 196 247 Q219 247 253 241 Q287 235 344 204 L344 244 Q344 266 337 285 Q330 304 311.5 317.5 Q293 331 261 338.5 Q229 346 178 346 Q161 346 138 343 Q115 340 87 335 L87 392 Q109 400 136.5 405.5 Q164 411 218 411 Q311 411 361 369 Q411 327 414 247 L414 0 Z M344 139 Q330 151 311 161 Q294 169 271.5 175.5 Q249 182 219 182 Q186 182 165.5 177.5 Q145 173 133.5 165 Q122 157 118.5 146 Q115 135 115 121 Q115 93 137 76 Q159 59 219 59 Q254 59 278 66.5 Q302 74 317 83 Q334 94 344 107 L344 139 Z M243 526 Q264 526 281.5 541 Q299 556 299 586 Q299 615 281.5 630.5 Q264 646 243 646 Q222 646 204.5 630.5 Q187 615 187 586 Q187 556 204.5 541 Q222 526 243 526 Z M243 471 Q216 471 194.5 480.5 Q173 490 157.5 505.5 Q142 521 134 542 Q126 563 126 586 Q126 609 134 630 Q142 651 157.5 667 Q173 683 194.5 692 Q216 701 243 701 Q270 701 291.5 692 Q313 683 328.5 667 Q344 651 352 630 Q360 609 360 586 Q360 563 352 542 Q344 521 328.5 505.5 Q313 490 291.5 480.5 Q270 471 243 471 Z " />
<glyph glyph-name="ae" unicode="&#xe6;" horiz-adv-x="769" d="M714 176 L414 176 L414 172 Q421 143 431 121.5 Q441 100 459 86 Q477 72 505.5 65.5 Q534 59 577 59 Q592 59 623 62 Q654 65 685 69 L685 11 Q663 3 628.5 -1.5 Q594 -6 546 -6 Q489 -6 448.5 13.5 Q408 33 384 66 Q368 39 341 24.5 Q314 10 286 3 Q258 -4 234.5 -5 Q211 -6 201 -6 L188 -6 Q181 -6 157.5 -4 Q134 -2 109 10 Q84 22 64.5 48.5 Q45 75 45 124 Q45 148 52.5 170.5 Q60 193 78 210 Q96 227 125 237 Q154 247 196 247 Q219 247 253 241 Q287 235 344 204 L344 244 Q344 266 337 285 Q330 304 311.5 317.5 Q293 331 261 338.5 Q229 346 178 346 Q161 346 138 343 Q115 340 87 335 L87 392 Q109 400 136.5 405.5 Q164 411 218 411 Q336 411 384 342 Q407 374 443.5 392.5 Q480 411 530 411 Q577 411 611.5 397 Q646 383 668.5 358.5 Q691 334 702.5 301 Q714 268 714 229 L714 176 Z M344 139 Q330 151 311 161 Q294 169 271.5 175.5 Q249 182 219 182 Q186 182 165.5 177.5 Q145 173 133.5 165 Q122 157 118.5 146 Q115 135 115 121 Q115 93 137 76 Q159 59 219 59 Q254 59 278 66.5 Q302 74 317 83 Q334 94 344 107 L344 139 Z M644 241 Q643 273 633.5 293.5 Q624 314 608.5 325.5 Q593 337 572.5 341.5 Q552 346 529 346 Q476 346 448.5 320 Q421 294 414 241 L644 241 Z " />
<glyph glyph-name="ccedilla" unicode="&#xe7;" horiz-adv-x="425" d="M390 29 Q351 3 312.5 -1.5 Q274 -6 242 -6 Q215 -5 180.5 5 Q146 15 116 39 Q86 63 65.5 103.5 Q45 144 45 207 Q45 261 64.5 299.5 Q84 338 113.5 363 Q143 388 177.5 399.5 Q212 411 242 411 Q271 411 309 406.5 Q347 402 390 373 L360 324 Q325 338 299 342 Q273 346 255 346 Q235 346 210.5 340 Q186 334 165 318.5 Q144 303 129.5 276 Q115 249 115 208 Q115 162 129.5 133 Q144 104 165.5 87.5 Q187 71 211.5 65 Q236 59 255 59 Q275 59 300 62.5 Q325 66 360 81 L390 29 Z M218 -64 L285 -64 L234 -184 L158 -184 L218 -64 Z " />
<glyph glyph-name="egrave" unicode="&#xe8;" horiz-adv-x="475" d="M420 176 L119 176 Q126 146 136 123.5 Q146 101 164 87 Q182 73 210.5 66 Q239 59 283 59 Q298 59 329 62 Q360 65 391 69 L391 11 Q369 3 334.5 -1.5 Q300 -6 252 -6 Q200 -6 162 10.5 Q124 27 99 55 Q74 83 62 121.5 Q50 160 50 203 Q50 246 61.5 284 Q73 322 96.5 350 Q120 378 155 394.5 Q190 411 236 411 Q283 411 317.5 397 Q352 383 374.5 358.5 Q397 334 408.5 301 Q420 268 420 229 L420 176 Z M350 241 Q349 273 339.5 293.5 Q330 314 314.5 325.5 Q299 337 278.5 341.5 Q258 346 235 346 Q182 346 154.5 320 Q127 294 120 241 L350 241 Z M141 591 L217 591 L268 471 L201 471 L141 591 Z " />
<glyph glyph-name="eacute" unicode="&#xe9;" horiz-adv-x="475" d="M420 176 L119 176 Q126 146 136 123.5 Q146 101 164 87 Q182 73 210.5 66 Q239 59 283 59 Q298 59 329 62 Q360 65 391 69 L391 11 Q369 3 334.5 -1.5 Q300 -6 252 -6 Q200 -6 162 10.5 Q124 27 99 55 Q74 83 62 121.5 Q50 160 50 203 Q50 246 61.5 284 Q73 322 96.5 350 Q120 378 155 394.5 Q190 411 236 411 Q283 411 317.5 397 Q352 383 374.5 358.5 Q397 334 408.5 301 Q420 268 420 229 L420 176 Z M350 241 Q349 273 339.5 293.5 Q330 314 314.5 325.5 Q299 337 278.5 341.5 Q258 346 235 346 Q182 346 154.5 320 Q127 294 120 241 L350 241 Z M272 471 L205 471 L256 591 L332 591 L272 471 Z " />
<glyph glyph-name="ecircumflex" unicode="&#xea;" horiz-adv-x="475" d="M420 176 L119 176 Q126 146 136 123.5 Q146 101 164 87 Q182 73 210.5 66 Q239 59 283 59 Q298 59 329 62 Q360 65 391 69 L391 11 Q369 3 334.5 -1.5 Q300 -6 252 -6 Q200 -6 162 10.5 Q124 27 99 55 Q74 83 62 121.5 Q50 160 50 203 Q50 246 61.5 284 Q73 322 96.5 350 Q120 378 155 394.5 Q190 411 236 411 Q283 411 317.5 397 Q352 383 374.5 358.5 Q397 334 408.5 301 Q420 268 420 229 L420 176 Z M350 241 Q349 273 339.5 293.5 Q330 314 314.5 325.5 Q299 337 278.5 341.5 Q258 346 235 346 Q182 346 154.5 320 Q127 294 120 241 L350 241 Z M269 594 L344 471 L275 471 L235 544 L196 471 L127 471 L202 594 L269 594 Z " />
<glyph glyph-name="edieresis" unicode="&#xeb;" horiz-adv-x="475" d="M420 176 L119 176 Q126 146 136 123.5 Q146 101 164 87 Q182 73 210.5 66 Q239 59 283 59 Q298 59 329 62 Q360 65 391 69 L391 11 Q369 3 334.5 -1.5 Q300 -6 252 -6 Q200 -6 162 10.5 Q124 27 99 55 Q74 83 62 121.5 Q50 160 50 203 Q50 246 61.5 284 Q73 322 96.5 350 Q120 378 155 394.5 Q190 411 236 411 Q283 411 317.5 397 Q352 383 374.5 358.5 Q397 334 408.5 301 Q420 268 420 229 L420 176 Z M350 241 Q349 273 339.5 293.5 Q330 314 314.5 325.5 Q299 337 278.5 341.5 Q258 346 235 346 Q182 346 154.5 320 Q127 294 120 241 L350 241 Z M130 536 L198 536 L198 471 L130 471 L130 536 Z M271 536 L339 536 L339 471 L271 471 L271 536 Z " />
<glyph glyph-name="igrave" unicode="&#xec;" horiz-adv-x="210" d="M70 405 L140 405 L140 0 L70 0 L70 405 Z M13 591 L89 591 L140 471 L73 471 L13 591 Z " />
<glyph glyph-name="iacute" unicode="&#xed;" horiz-adv-x="210" d="M140 0 L70 0 L70 405 L140 405 L140 0 Z M137 471 L70 471 L121 591 L197 591 L137 471 Z " />
<glyph glyph-name="icircumflex" unicode="&#xee;" horiz-adv-x="210" d="M70 405 L140 405 L140 0 L70 0 L70 405 Z M139 594 L214 471 L145 471 L105 544 L66 471 L-3 471 L72 594 L139 594 Z " />
<glyph glyph-name="idieresis" unicode="&#xef;" horiz-adv-x="210" d="M70 405 L140 405 L140 0 L70 0 L70 405 Z M12 536 L80 536 L80 471 L12 471 L12 536 Z M129 536 L197 536 L197 471 L129 471 L129 536 Z " />
<glyph glyph-name="eth" unicode="&#xf0;" horiz-adv-x="550" d="M389 623 Q411 608 431 584.5 Q451 561 466.5 527.5 Q482 494 491 449 Q500 404 500 346 L500 188 Q500 124 475.5 85.5 Q451 47 416.5 27 Q382 7 344 0.5 Q306 -6 279 -6 L269 -6 Q242 -6 204 1 Q166 8 132 29.5 Q98 51 74 90 Q50 129 50 193 Q50 245 70.5 280.5 Q91 316 122.5 337.5 Q154 359 192 368 Q230 377 264 377 Q282 377 324.5 371.5 Q367 366 430 334 Q430 387 423 427.5 Q416 468 404.5 496.5 Q393 525 378 543.5 Q363 562 347 572 L254 464 L212 501 L286 588 Q272 590 260.5 590 Q249 590 238 590 Q203 590 179.5 585.5 Q156 581 133 577 L133 635 Q154 644 179.5 650.5 Q205 657 257 657 Q274 657 291 656 Q308 655 340 651 L383 703 L428 669 L389 623 Z M274 59 Q292 59 318.5 63 Q345 67 369.5 80.5 Q394 94 412 119.5 Q430 145 430 187 Q430 230 412.5 255 Q395 280 370.5 292.5 Q346 305 319.5 308.5 Q293 312 274 312 Q255 312 228.5 308.5 Q202 305 178 292.5 Q154 280 137 255 Q120 230 120 187 Q120 143 137.5 117.5 Q155 92 179.5 79 Q204 66 230 62.5 Q256 59 274 59 Z " />
<glyph glyph-name="ntilde" unicode="&#xf1;" horiz-adv-x="492" d="M65 0 L65 405 L126 405 L136 345 Q155 370 177 383.5 Q199 397 219.5 403 Q240 409 258 410 Q276 411 286 411 Q311 411 337 400.5 Q363 390 384 370.5 Q405 351 418.5 323 Q432 295 432 260 L432 0 L362 0 L362 254 Q362 281 352.5 299 Q343 317 329 327.5 Q315 338 297.5 342 Q280 346 265 346 Q232 346 208 332.5 Q184 319 167 303 Q148 284 135 260 L135 0 L65 0 Z M376 488 Q361 480 343 475.5 Q325 471 310 471 Q293 471 278 477 Q263 483 248 489.5 Q233 496 218.5 502 Q204 508 187 508 Q177 508 168.5 507.5 Q160 507 152 504 L132 554 Q147 565 159 568 Q171 571 187 571 Q205 571 220.5 565 Q236 559 251 552.5 Q266 546 281.5 540 Q297 534 314 534 Q325 534 336 535.5 Q347 537 357 542 L376 488 Z " />
<glyph glyph-name="ograve" unicode="&#xf2;" horiz-adv-x="502" d="M251 59 Q271 59 293.5 64 Q316 69 336 84.5 Q356 100 369 128.5 Q382 157 382 205 Q382 246 369.5 273.5 Q357 301 337.5 317 Q318 333 295 339.5 Q272 346 251 346 Q230 346 207 339.5 Q184 333 164.5 317 Q145 301 132.5 273.5 Q120 246 120 205 Q120 157 133 128.5 Q146 100 166 84.5 Q186 69 209 64 Q232 59 251 59 Z M251 -6 Q223 -6 188 3.5 Q153 13 122.5 37 Q92 61 71 102 Q50 143 50 207 Q50 261 69 299.5 Q88 338 117.5 363 Q147 388 182.5 399.5 Q218 411 251 411 Q284 411 319.5 399.5 Q355 388 384.5 363 Q414 338 433 299.5 Q452 261 452 207 Q452 143 431 102 Q410 61 379.5 37 Q349 13 314 3.5 Q279 -6 251 -6 Z M156 591 L232 591 L283 471 L216 471 L156 591 Z " />
<glyph glyph-name="oacute" unicode="&#xf3;" horiz-adv-x="502" d="M251 59 Q271 59 293.5 64 Q316 69 336 84.5 Q356 100 369 128.5 Q382 157 382 205 Q382 246 369.5 273.5 Q357 301 337.5 317 Q318 333 295 339.5 Q272 346 251 346 Q230 346 207 339.5 Q184 333 164.5 317 Q145 301 132.5 273.5 Q120 246 120 205 Q120 157 133 128.5 Q146 100 166 84.5 Q186 69 209 64 Q232 59 251 59 Z M251 -6 Q223 -6 188 3.5 Q153 13 122.5 37 Q92 61 71 102 Q50 143 50 207 Q50 261 69 299.5 Q88 338 117.5 363 Q147 388 182.5 399.5 Q218 411 251 411 Q284 411 319.5 399.5 Q355 388 384.5 363 Q414 338 433 299.5 Q452 261 452 207 Q452 143 431 102 Q410 61 379.5 37 Q349 13 314 3.5 Q279 -6 251 -6 Z M286 471 L219 471 L270 591 L346 591 L286 471 Z " />
<glyph glyph-name="ocircumflex" unicode="&#xf4;" horiz-adv-x="502" d="M251 59 Q271 59 293.5 64 Q316 69 336 84.5 Q356 100 369 128.5 Q382 157 382 205 Q382 246 369.5 273.5 Q357 301 337.5 317 Q318 333 295 339.5 Q272 346 251 346 Q230 346 207 339.5 Q184 333 164.5 317 Q145 301 132.5 273.5 Q120 246 120 205 Q120 157 133 128.5 Q146 100 166 84.5 Q186 69 209 64 Q232 59 251 59 Z M251 -6 Q223 -6 188 3.5 Q153 13 122.5 37 Q92 61 71 102 Q50 143 50 207 Q50 261 69 299.5 Q88 338 117.5 363 Q147 388 182.5 399.5 Q218 411 251 411 Q284 411 319.5 399.5 Q355 388 384.5 363 Q414 338 433 299.5 Q452 261 452 207 Q452 143 431 102 Q410 61 379.5 37 Q349 13 314 3.5 Q279 -6 251 -6 Z M285 594 L360 471 L291 471 L251 544 L212 471 L143 471 L218 594 L285 594 Z " />
<glyph glyph-name="otilde" unicode="&#xf5;" horiz-adv-x="502" d="M251 59 Q271 59 293.5 64 Q316 69 336 84.5 Q356 100 369 128.5 Q382 157 382 205 Q382 246 369.5 273.5 Q357 301 337.5 317 Q318 333 295 339.5 Q272 346 251 346 Q230 346 207 339.5 Q184 333 164.5 317 Q145 301 132.5 273.5 Q120 246 120 205 Q120 157 133 128.5 Q146 100 166 84.5 Q186 69 209 64 Q232 59 251 59 Z M251 -6 Q223 -6 188 3.5 Q153 13 122.5 37 Q92 61 71 102 Q50 143 50 207 Q50 261 69 299.5 Q88 338 117.5 363 Q147 388 182.5 399.5 Q218 411 251 411 Q284 411 319.5 399.5 Q355 388 384.5 363 Q414 338 433 299.5 Q452 261 452 207 Q452 143 431 102 Q410 61 379.5 37 Q349 13 314 3.5 Q279 -6 251 -6 Z M373 488 Q358 480 340 475.5 Q322 471 307 471 Q290 471 275 477 Q260 483 245 489.5 Q230 496 215.5 502 Q201 508 184 508 Q174 508 165.5 507.5 Q157 507 149 504 L129 554 Q144 565 156 568 Q168 571 184 571 Q202 571 217.5 565 Q233 559 248 552.5 Q263 546 278.5 540 Q294 534 311 534 Q322 534 333 535.5 Q344 537 354 542 L373 488 Z " />
<glyph glyph-name="odieresis" unicode="&#xf6;" horiz-adv-x="502" d="M251 59 Q271 59 293.5 64 Q316 69 336 84.5 Q356 100 369 128.5 Q382 157 382 205 Q382 246 369.5 273.5 Q357 301 337.5 317 Q318 333 295 339.5 Q272 346 251 346 Q230 346 207 339.5 Q184 333 164.5 317 Q145 301 132.5 273.5 Q120 246 120 205 Q120 157 133 128.5 Q146 100 166 84.5 Q186 69 209 64 Q232 59 251 59 Z M251 -6 Q223 -6 188 3.5 Q153 13 122.5 37 Q92 61 71 102 Q50 143 50 207 Q50 261 69 299.5 Q88 338 117.5 363 Q147 388 182.5 399.5 Q218 411 251 411 Q284 411 319.5 399.5 Q355 388 384.5 363 Q414 338 433 299.5 Q452 261 452 207 Q452 143 431 102 Q410 61 379.5 37 Q349 13 314 3.5 Q279 -6 251 -6 Z M158 536 L226 536 L226 471 L158 471 L158 536 Z M275 536 L343 536 L343 471 L275 471 L275 536 Z " />
<glyph glyph-name="divide" unicode="&#xf7;" horiz-adv-x="444" d="M70 172 L70 235 L374 235 L374 172 L70 172 Z M184 51 Q184 67 194.5 78 Q205 89 221 89 Q237 89 248 78 Q259 67 259 51 Q259 35 248 24.5 Q237 14 221 14 Q205 14 194.5 24.5 Q184 35 184 51 Z M184 356 Q184 372 194.5 382.5 Q205 393 221 393 Q237 393 248 382.5 Q259 372 259 356 Q259 340 248 329 Q237 318 221 318 Q205 318 194.5 329 Q184 340 184 356 Z " />
<glyph glyph-name="oslash" unicode="&#xf8;" horiz-adv-x="502" d="M353 384 Q394 361 423 318 Q452 275 452 207 Q452 143 431 102 Q410 61 379.5 37 Q349 13 314 3.5 Q279 -6 251 -6 Q234 -6 214 -3 L181 -91 L108 -91 L149 19 Q109 41 79.5 85.5 Q50 130 50 207 Q50 261 69 299.5 Q88 338 117.5 363 Q147 388 182.5 399.5 Q218 411 251 411 Q260 411 269.5 410 Q279 409 288 407 L321 497 L394 497 L353 384 Z M251 59 Q271 59 293.5 64 Q316 69 336 84.5 Q356 100 369 128.5 Q382 157 382 205 Q382 246 369.5 273.5 Q357 301 337.5 317 Q318 333 295 339.5 Q272 346 251 346 Q230 346 207 339.5 Q184 333 164.5 317 Q145 301 132.5 273.5 Q120 246 120 205 Q120 157 133 128.5 Q146 100 166 84.5 Q186 69 209 64 Q232 59 251 59 Z " />
<glyph glyph-name="ugrave" unicode="&#xf9;" horiz-adv-x="492" d="M427 405 L427 0 L366 0 L356 60 Q337 35 315 21.5 Q293 8 272.5 2 Q252 -4 234.5 -5 Q217 -6 206 -6 Q181 -6 155 4.5 Q129 15 108 34.5 Q87 54 73.5 82 Q60 110 60 145 L60 405 L130 405 L130 151 Q130 124 139.5 106.5 Q149 89 163 78.5 Q177 68 194.5 63.5 Q212 59 227 59 Q260 59 284 72.5 Q308 86 325 102 Q344 121 357 145 L357 405 L427 405 Z M156 591 L232 591 L283 471 L216 471 L156 591 Z " />
<glyph glyph-name="uacute" unicode="&#xfa;" horiz-adv-x="492" d="M427 405 L427 0 L366 0 L356 60 Q337 35 315 21.5 Q293 8 272.5 2 Q252 -4 234.5 -5 Q217 -6 206 -6 Q181 -6 155 4.5 Q129 15 108 34.5 Q87 54 73.5 82 Q60 110 60 145 L60 405 L130 405 L130 151 Q130 124 139.5 106.5 Q149 89 163 78.5 Q177 68 194.5 63.5 Q212 59 227 59 Q260 59 284 72.5 Q308 86 325 102 Q344 121 357 145 L357 405 L427 405 Z M279 471 L212 471 L263 591 L339 591 L279 471 Z " />
<glyph glyph-name="ucircumflex" unicode="&#xfb;" horiz-adv-x="492" d="M427 405 L427 0 L366 0 L356 60 Q337 35 315 21.5 Q293 8 272.5 2 Q252 -4 234.5 -5 Q217 -6 206 -6 Q181 -6 155 4.5 Q129 15 108 34.5 Q87 54 73.5 82 Q60 110 60 145 L60 405 L130 405 L130 151 Q130 124 139.5 106.5 Q149 89 163 78.5 Q177 68 194.5 63.5 Q212 59 227 59 Q260 59 284 72.5 Q308 86 325 102 Q344 121 357 145 L357 405 L427 405 Z M276 594 L351 471 L282 471 L242 544 L203 471 L134 471 L209 594 L276 594 Z " />
<glyph glyph-name="udieresis" unicode="&#xfc;" horiz-adv-x="492" d="M427 405 L427 0 L366 0 L356 60 Q337 35 315 21.5 Q293 8 272.5 2 Q252 -4 234.5 -5 Q217 -6 206 -6 Q181 -6 155 4.5 Q129 15 108 34.5 Q87 54 73.5 82 Q60 110 60 145 L60 405 L130 405 L130 151 Q130 124 139.5 106.5 Q149 89 163 78.5 Q177 68 194.5 63.5 Q212 59 227 59 Q260 59 284 72.5 Q308 86 325 102 Q344 121 357 145 L357 405 L427 405 Z M150 536 L218 536 L218 471 L150 471 L150 536 Z M267 536 L335 536 L335 471 L267 471 L267 536 Z " />
<glyph glyph-name="yacute" unicode="&#xfd;" horiz-adv-x="447" d="M180 -13 Q167 24 153 63 Q139 102 122.5 150.5 Q106 199 84.5 261 Q63 323 35 405 L115 405 L218 84 Q247 159 279.5 244.5 Q312 330 341 405 L427 405 L213 -109 Q186 -163 156 -180.5 Q126 -198 94 -198 Q82 -198 66 -198 Q50 -198 40 -197 L40 -131 Q49 -132 57.5 -132.5 Q66 -133 68 -133 Q75 -133 86.5 -132 Q98 -131 111 -125 Q124 -119 136 -107 Q148 -95 156 -73 L180 -13 Z M264 471 L197 471 L248 591 L324 591 L264 471 Z " />
<glyph glyph-name="thorn" unicode="&#xfe;" horiz-adv-x="508" d="M135 -198 L65 -198 L65 590 L135 590 L135 346 Q155 370 177 383 Q199 396 218.5 402.5 Q238 409 253 410 Q268 411 274 411 Q308 411 341 399.5 Q374 388 400 363 Q426 338 442 300 Q458 262 458 209 Q458 147 441.5 105.5 Q425 64 399.5 39.5 Q374 15 343 4.5 Q312 -6 283 -6 Q273 -6 255 -5 Q237 -4 216 1.5 Q195 7 173.5 18.5 Q152 30 135 51 L135 -198 Z M135 154 Q146 127 163 107 Q179 87 202 73 Q225 59 259 59 Q273 59 294.5 61.5 Q316 64 337 78 Q358 92 373 122.5 Q388 153 388 209 Q388 256 373 283.5 Q358 311 337 325 Q316 339 294.5 342.5 Q273 346 259 346 Q225 346 201.5 331 Q178 316 163 299 Q146 278 135 251 L135 154 Z " />
<glyph glyph-name="ydieresis" unicode="&#xff;" horiz-adv-x="447" d="M180 -13 Q167 24 153 63 Q139 102 122.5 150.5 Q106 199 84.5 261 Q63 323 35 405 L115 405 L218 84 Q247 159 279.5 244.5 Q312 330 341 405 L427 405 L213 -109 Q186 -163 156 -180.5 Q126 -198 94 -198 Q82 -198 66 -198 Q50 -198 40 -197 L40 -131 Q49 -132 57.5 -132.5 Q66 -133 68 -133 Q75 -133 86.5 -132 Q98 -131 111 -125 Q124 -119 136 -107 Q148 -95 156 -73 L180 -13 Z M135 536 L203 536 L203 471 L135 471 L135 536 Z M252 536 L320 536 L320 471 L252 471 L252 536 Z " />
<glyph glyph-name="Amacron" unicode="&#x100;" horiz-adv-x="598" d="M568 0 L493 0 L440 144 L158 144 L105 0 L30 0 L252 590 L346 590 L568 0 Z M414 208 L299 518 L184 208 L414 208 Z M145 657 L145 721 L450 721 L450 657 L145 657 Z " />
<glyph glyph-name="amacron" unicode="&#x101;" horiz-adv-x="479" d="M414 0 L348 0 L341 48 Q324 28 301 17 Q278 6 255.5 1 Q233 -4 213.5 -5 Q194 -6 184 -6 L171 -6 Q164 -6 143.5 -2.5 Q123 1 101 14 Q79 27 62 53 Q45 79 45 124 Q45 148 52.5 170.5 Q60 193 78 210 Q96 227 125 237 Q154 247 196 247 Q219 247 253 241 Q287 235 344 204 L344 244 Q344 266 337 285 Q330 304 311.5 317.5 Q293 331 261 338.5 Q229 346 178 346 Q161 346 138 343 Q115 340 87 335 L87 392 Q109 400 136.5 405.5 Q164 411 218 411 Q311 411 361 369 Q411 327 414 247 L414 0 Z M344 139 Q330 151 311 161 Q294 169 271.5 175.5 Q249 182 219 182 Q186 182 165.5 177.5 Q145 173 133.5 165 Q122 157 118.5 146 Q115 135 115 121 Q115 93 137 76 Q159 59 219 59 Q254 59 278 66.5 Q302 74 317 83 Q334 94 344 107 L344 139 Z M90 471 L90 535 L395 535 L395 471 L90 471 Z " />
<glyph glyph-name="Abreve" unicode="&#x102;" horiz-adv-x="598" d="M252 590 L346 590 L568 0 L493 0 L440 144 L158 144 L105 0 L30 0 L252 590 Z M414 208 L299 518 L184 208 L414 208 Z M299 657 Q278 657 257 661.5 Q236 666 217.5 678 Q199 690 185 710.5 Q171 731 165 763 L233 763 Q243 734 260.5 725 Q278 716 299 716 Q320 716 337.5 725 Q355 734 365 763 L433 763 Q427 731 413 710.5 Q399 690 380.5 678 Q362 666 341 661.5 Q320 657 299 657 Z " />
<glyph glyph-name="abreve" unicode="&#x103;" horiz-adv-x="479" d="M414 0 L348 0 L341 48 Q324 28 301 17 Q278 6 255.5 1 Q233 -4 213.5 -5 Q194 -6 184 -6 L171 -6 Q164 -6 143.5 -2.5 Q123 1 101 14 Q79 27 62 53 Q45 79 45 124 Q45 148 52.5 170.5 Q60 193 78 210 Q96 227 125 237 Q154 247 196 247 Q219 247 253 241 Q287 235 344 204 L344 244 Q344 266 337 285 Q330 304 311.5 317.5 Q293 331 261 338.5 Q229 346 178 346 Q161 346 138 343 Q115 340 87 335 L87 392 Q109 400 136.5 405.5 Q164 411 218 411 Q311 411 361 369 Q411 327 414 247 L414 0 Z M344 139 Q330 151 311 161 Q294 169 271.5 175.5 Q249 182 219 182 Q186 182 165.5 177.5 Q145 173 133.5 165 Q122 157 118.5 146 Q115 135 115 121 Q115 93 137 76 Q159 59 219 59 Q254 59 278 66.5 Q302 74 317 83 Q334 94 344 107 L344 139 Z M250 471 Q229 471 208 475.5 Q187 480 168.5 492 Q150 504 136 524.5 Q122 545 116 577 L184 577 Q194 548 211.5 539 Q229 530 250 530 Q271 530 288.5 539 Q306 548 316 577 L384 577 Q378 545 364 524.5 Q350 504 331.5 492 Q313 480 292 475.5 Q271 471 250 471 Z " />
<glyph glyph-name="Aogonek" unicode="&#x104;" horiz-adv-x="598" d="M568 0 L493 0 L440 144 L158 144 L105 0 L30 0 L252 590 L346 590 L568 0 Z M414 208 L299 518 L184 208 L414 208 Z M440 -184 L516 -184 L567 -64 L500 -64 L440 -184 Z " />
<glyph glyph-name="aogonek" unicode="&#x105;" horiz-adv-x="479" d="M414 0 L348 0 L341 48 Q324 28 301 17 Q278 6 255.5 1 Q233 -4 213.5 -5 Q194 -6 184 -6 L171 -6 Q164 -6 143.5 -2.5 Q123 1 101 14 Q79 27 62 53 Q45 79 45 124 Q45 148 52.5 170.5 Q60 193 78 210 Q96 227 125 237 Q154 247 196 247 Q219 247 253 241 Q287 235 344 204 L344 244 Q344 266 337 285 Q330 304 311.5 317.5 Q293 331 261 338.5 Q229 346 178 346 Q161 346 138 343 Q115 340 87 335 L87 392 Q109 400 136.5 405.5 Q164 411 218 411 Q311 411 361 369 Q411 327 414 247 L414 0 Z M344 139 Q330 151 311 161 Q294 169 271.5 175.5 Q249 182 219 182 Q186 182 165.5 177.5 Q145 173 133.5 165 Q122 157 118.5 146 Q115 135 115 121 Q115 93 137 76 Q159 59 219 59 Q254 59 278 66.5 Q302 74 317 83 Q334 94 344 107 L344 139 Z M287 -184 L363 -184 L414 -64 L347 -64 L287 -184 Z " />
<glyph glyph-name="Cacute" unicode="&#x106;" horiz-adv-x="550" d="M339 530 Q299 530 259 521 Q219 512 187 487 Q155 462 135 418 Q115 374 115 303 Q115 222 138 174 Q161 126 195 100.5 Q229 75 268 67 Q307 59 339 59 Q374 59 408 67 Q442 75 475 93 Q484 81 492.5 68.5 Q501 56 509 45 Q471 18 426.5 6 Q382 -6 341 -6 Q301 -6 249.5 7 Q198 20 152.5 54.5 Q107 89 76 149.5 Q45 210 45 306 Q45 388 70.5 443.5 Q96 499 137.5 532.5 Q179 566 232 580.5 Q285 595 340 595 Q383 595 427.5 582.5 Q472 570 510 545 L475 497 Q442 514 406.5 522 Q371 530 339 530 Z M361 657 L294 657 L345 777 L421 777 L361 657 Z " />
<glyph glyph-name="cacute" unicode="&#x107;" horiz-adv-x="425" d="M390 29 Q351 3 312.5 -1.5 Q274 -6 242 -6 Q215 -5 180.5 5 Q146 15 116 39 Q86 63 65.5 103.5 Q45 144 45 207 Q45 261 64.5 299.5 Q84 338 113.5 363 Q143 388 177.5 399.5 Q212 411 242 411 Q271 411 309 406.5 Q347 402 390 373 L360 324 Q325 338 299 342 Q273 346 255 346 Q235 346 210.5 340 Q186 334 165 318.5 Q144 303 129.5 276 Q115 249 115 208 Q115 162 129.5 133 Q144 104 165.5 87.5 Q187 71 211.5 65 Q236 59 255 59 Q275 59 300 62.5 Q325 66 360 81 L390 29 Z M267 471 L200 471 L251 591 L327 591 L267 471 Z " />
<glyph glyph-name="Ccircumflex" unicode="&#x108;" horiz-adv-x="550" d="M339 530 Q299 530 259 521 Q219 512 187 487 Q155 462 135 418 Q115 374 115 303 Q115 222 138 174 Q161 126 195 100.5 Q229 75 268 67 Q307 59 339 59 Q374 59 408 67 Q442 75 475 93 Q484 81 492.5 68.5 Q501 56 509 45 Q471 18 426.5 6 Q382 -6 341 -6 Q301 -6 249.5 7 Q198 20 152.5 54.5 Q107 89 76 149.5 Q45 210 45 306 Q45 388 70.5 443.5 Q96 499 137.5 532.5 Q179 566 232 580.5 Q285 595 340 595 Q383 595 427.5 582.5 Q472 570 510 545 L475 497 Q442 514 406.5 522 Q371 530 339 530 Z M370 780 L445 657 L376 657 L336 730 L297 657 L228 657 L303 780 L370 780 Z " />
<glyph glyph-name="ccircumflex" unicode="&#x109;" horiz-adv-x="425" d="M390 29 Q351 3 312.5 -1.5 Q274 -6 242 -6 Q215 -5 180.5 5 Q146 15 116 39 Q86 63 65.5 103.5 Q45 144 45 207 Q45 261 64.5 299.5 Q84 338 113.5 363 Q143 388 177.5 399.5 Q212 411 242 411 Q271 411 309 406.5 Q347 402 390 373 L360 324 Q325 338 299 342 Q273 346 255 346 Q235 346 210.5 340 Q186 334 165 318.5 Q144 303 129.5 276 Q115 249 115 208 Q115 162 129.5 133 Q144 104 165.5 87.5 Q187 71 211.5 65 Q236 59 255 59 Q275 59 300 62.5 Q325 66 360 81 L390 29 Z M275 594 L350 471 L281 471 L241 544 L202 471 L133 471 L208 594 L275 594 Z " />
<glyph glyph-name="Cdotaccent" unicode="&#x10a;" horiz-adv-x="550" d="M339 530 Q299 530 259 521 Q219 512 187 487 Q155 462 135 418 Q115 374 115 303 Q115 222 138 174 Q161 126 195 100.5 Q229 75 268 67 Q307 59 339 59 Q374 59 408 67 Q442 75 475 93 Q484 81 492.5 68.5 Q501 56 509 45 Q471 18 426.5 6 Q382 -6 341 -6 Q301 -6 249.5 7 Q198 20 152.5 54.5 Q107 89 76 149.5 Q45 210 45 306 Q45 388 70.5 443.5 Q96 499 137.5 532.5 Q179 566 232 580.5 Q285 595 340 595 Q383 595 427.5 582.5 Q472 570 510 545 L475 497 Q442 514 406.5 522 Q371 530 339 530 Z M273 657 L341 657 L341 722 L273 722 L273 657 Z " />
<glyph glyph-name="cdotaccent" unicode="&#x10b;" horiz-adv-x="425" d="M390 29 Q351 3 312.5 -1.5 Q274 -6 242 -6 Q215 -5 180.5 5 Q146 15 116 39 Q86 63 65.5 103.5 Q45 144 45 207 Q45 261 64.5 299.5 Q84 338 113.5 363 Q143 388 177.5 399.5 Q212 411 242 411 Q271 411 309 406.5 Q347 402 390 373 L360 324 Q325 338 299 342 Q273 346 255 346 Q235 346 210.5 340 Q186 334 165 318.5 Q144 303 129.5 276 Q115 249 115 208 Q115 162 129.5 133 Q144 104 165.5 87.5 Q187 71 211.5 65 Q236 59 255 59 Q275 59 300 62.5 Q325 66 360 81 L390 29 Z M206 471 L274 471 L274 536 L206 536 L206 471 Z " />
<glyph glyph-name="Ccaron" unicode="&#x10c;" horiz-adv-x="550" d="M339 530 Q299 530 259 521 Q219 512 187 487 Q155 462 135 418 Q115 374 115 303 Q115 222 138 174 Q161 126 195 100.5 Q229 75 268 67 Q307 59 339 59 Q374 59 408 67 Q442 75 475 93 Q484 81 492.5 68.5 Q501 56 509 45 Q471 18 426.5 6 Q382 -6 341 -6 Q301 -6 249.5 7 Q198 20 152.5 54.5 Q107 89 76 149.5 Q45 210 45 306 Q45 388 70.5 443.5 Q96 499 137.5 532.5 Q179 566 232 580.5 Q285 595 340 595 Q383 595 427.5 582.5 Q472 570 510 545 L475 497 Q442 514 406.5 522 Q371 530 339 530 Z M299 657 L224 780 L293 780 L332 707 L372 780 L441 780 L366 657 L299 657 Z " />
<glyph glyph-name="ccaron" unicode="&#x10d;" horiz-adv-x="425" d="M390 29 Q351 3 312.5 -1.5 Q274 -6 242 -6 Q215 -5 180.5 5 Q146 15 116 39 Q86 63 65.5 103.5 Q45 144 45 207 Q45 261 64.5 299.5 Q84 338 113.5 363 Q143 388 177.5 399.5 Q212 411 242 411 Q271 411 309 406.5 Q347 402 390 373 L360 324 Q325 338 299 342 Q273 346 255 346 Q235 346 210.5 340 Q186 334 165 318.5 Q144 303 129.5 276 Q115 249 115 208 Q115 162 129.5 133 Q144 104 165.5 87.5 Q187 71 211.5 65 Q236 59 255 59 Q275 59 300 62.5 Q325 66 360 81 L390 29 Z M216 471 L141 594 L210 594 L249 521 L289 594 L358 594 L283 471 L216 471 Z " />
<glyph glyph-name="Dcaron" unicode="&#x10e;" horiz-adv-x="596" d="M541 307 Q541 214 513.5 154.5 Q486 95 445.5 60.5 Q405 26 357.5 13 Q310 0 270 0 L70 0 L70 590 L258 590 Q306 590 356 575.5 Q406 561 447 528 Q488 495 514.5 441 Q541 387 541 307 Z M257 63 Q289 63 326.5 70 Q364 77 396 102 Q428 127 449.5 175 Q471 223 471 304 Q471 367 453 410 Q435 453 405.5 479 Q376 505 338 516.5 Q300 528 260 528 L140 528 L140 63 L257 63 Z M236 657 L161 780 L230 780 L269 707 L309 780 L378 780 L303 657 L236 657 Z " />
<glyph glyph-name="dcaron" unicode="&#x10f;" horiz-adv-x="641" d="M443 0 L380 0 L372 50 Q355 29 333.5 17.5 Q312 6 291.5 1 Q271 -4 253.5 -5 Q236 -6 225 -6 Q196 -6 165 4.5 Q134 15 108.5 39.5 Q83 64 66.5 105.5 Q50 147 50 209 Q50 262 66 300 Q82 338 108 363 Q134 388 167 399.5 Q200 411 234 411 Q240 411 255 410 Q270 409 289.5 403 Q309 397 331 384 Q353 371 373 347 L373 590 L443 590 L443 0 Z M373 251 Q362 278 345 299 Q329 318 306 332 Q283 346 249 346 Q236 346 214 342.5 Q192 339 171 325 Q150 311 135 283.5 Q120 256 120 209 Q120 153 135 122.5 Q150 92 171 78 Q192 64 214 61.5 Q236 59 249 59 Q283 59 306.5 74 Q330 89 345 107 Q362 127 373 154 L373 251 Z M616 590 L540 590 L489 470 L556 470 L616 590 Z " />
<glyph glyph-name="Dcroat" unicode="&#x110;" horiz-adv-x="640" d="M585 307 Q585 214 557.5 154.5 Q530 95 489.5 60.5 Q449 26 401.5 13 Q354 0 314 0 L114 0 L114 259 L30 259 L30 322 L114 322 L114 590 L302 590 Q350 590 400 575.5 Q450 561 491 528 Q532 495 558.5 441 Q585 387 585 307 Z M184 259 L184 63 L301 63 Q333 63 370.5 70 Q408 77 440 102 Q472 127 493.5 175 Q515 223 515 304 Q515 367 497 410 Q479 453 449.5 479 Q420 505 382 516.5 Q344 528 304 528 L184 528 L184 322 L334 322 L334 259 L184 259 Z " />
<glyph glyph-name="dcroat" unicode="&#x111;" horiz-adv-x="529" d="M287 481 L287 537 L373 537 L373 590 L443 590 L443 537 L524 537 L524 481 L443 481 L443 0 L380 0 L372 50 Q355 29 333.5 17.5 Q312 6 291.5 1 Q271 -4 253.5 -5 Q236 -6 225 -6 Q196 -6 165 4.5 Q134 15 108.5 39.5 Q83 64 66.5 105.5 Q50 147 50 209 Q50 262 66 300 Q82 338 108 363 Q134 388 167 399.5 Q200 411 234 411 Q240 411 255 410 Q270 409 289.5 403 Q309 397 331 384 Q353 371 373 347 L373 481 L287 481 Z M373 251 Q362 278 345 299 Q329 318 306 332 Q283 346 249 346 Q236 346 214 342.5 Q192 339 171 325 Q150 311 135 283.5 Q120 256 120 209 Q120 153 135 122.5 Q150 92 171 78 Q192 64 214 61.5 Q236 59 249 59 Q283 59 306.5 74 Q330 89 345 107 Q362 127 373 154 L373 251 Z " />
<glyph glyph-name="Emacron" unicode="&#x112;" horiz-adv-x="518" d="M140 528 L140 330 L400 330 L400 267 L140 267 L140 63 L458 63 L458 0 L70 0 L70 590 L458 590 L458 528 L140 528 Z M110 657 L110 721 L415 721 L415 657 L110 657 Z " />
<glyph glyph-name="emacron" unicode="&#x113;" horiz-adv-x="475" d="M420 176 L119 176 Q126 146 136 123.5 Q146 101 164 87 Q182 73 210.5 66 Q239 59 283 59 Q298 59 329 62 Q360 65 391 69 L391 11 Q369 3 334.5 -1.5 Q300 -6 252 -6 Q200 -6 162 10.5 Q124 27 99 55 Q74 83 62 121.5 Q50 160 50 203 Q50 246 61.5 284 Q73 322 96.5 350 Q120 378 155 394.5 Q190 411 236 411 Q283 411 317.5 397 Q352 383 374.5 358.5 Q397 334 408.5 301 Q420 268 420 229 L420 176 Z M350 241 Q349 273 339.5 293.5 Q330 314 314.5 325.5 Q299 337 278.5 341.5 Q258 346 235 346 Q182 346 154.5 320 Q127 294 120 241 L350 241 Z M89 471 L89 535 L394 535 L394 471 L89 471 Z " />
<glyph glyph-name="Edotaccent" unicode="&#x116;" horiz-adv-x="518" d="M140 528 L140 330 L400 330 L400 267 L140 267 L140 63 L458 63 L458 0 L70 0 L70 590 L458 590 L458 528 L140 528 Z M237 722 L305 722 L305 657 L237 657 L237 722 Z " />
<glyph glyph-name="edotaccent" unicode="&#x117;" horiz-adv-x="475" d="M420 176 L119 176 Q126 146 136 123.5 Q146 101 164 87 Q182 73 210.5 66 Q239 59 283 59 Q298 59 329 62 Q360 65 391 69 L391 11 Q369 3 334.5 -1.5 Q300 -6 252 -6 Q200 -6 162 10.5 Q124 27 99 55 Q74 83 62 121.5 Q50 160 50 203 Q50 246 61.5 284 Q73 322 96.5 350 Q120 378 155 394.5 Q190 411 236 411 Q283 411 317.5 397 Q352 383 374.5 358.5 Q397 334 408.5 301 Q420 268 420 229 L420 176 Z M350 241 Q349 273 339.5 293.5 Q330 314 314.5 325.5 Q299 337 278.5 341.5 Q258 346 235 346 Q182 346 154.5 320 Q127 294 120 241 L350 241 Z M200 536 L268 536 L268 471 L200 471 L200 536 Z " />
<glyph glyph-name="Eogonek" unicode="&#x118;" horiz-adv-x="518" d="M140 528 L140 330 L400 330 L400 267 L140 267 L140 63 L458 63 L458 0 L70 0 L70 590 L458 590 L458 528 L140 528 Z M331 -184 L407 -184 L458 -64 L391 -64 L331 -184 Z " />
<glyph glyph-name="eogonek" unicode="&#x119;" horiz-adv-x="475" d="M420 176 L119 176 Q126 146 136 123.5 Q146 101 164 87 Q182 73 210.5 66 Q239 59 283 59 Q298 59 329 62 Q360 65 391 69 L391 11 Q369 3 334.5 -1.5 Q300 -6 252 -6 Q200 -6 162 10.5 Q124 27 99 55 Q74 83 62 121.5 Q50 160 50 203 Q50 246 61.5 284 Q73 322 96.5 350 Q120 378 155 394.5 Q190 411 236 411 Q283 411 317.5 397 Q352 383 374.5 358.5 Q397 334 408.5 301 Q420 268 420 229 L420 176 Z M350 241 Q349 273 339.5 293.5 Q330 314 314.5 325.5 Q299 337 278.5 341.5 Q258 346 235 346 Q182 346 154.5 320 Q127 294 120 241 L350 241 Z M168 -184 L244 -184 L295 -64 L228 -64 L168 -184 Z " />
<glyph glyph-name="Ecaron" unicode="&#x11a;" horiz-adv-x="518" d="M140 528 L140 330 L400 330 L400 267 L140 267 L140 63 L458 63 L458 0 L70 0 L70 590 L458 590 L458 528 L140 528 Z M235 657 L160 780 L229 780 L268 707 L308 780 L377 780 L302 657 L235 657 Z " />
<glyph glyph-name="ecaron" unicode="&#x11b;" horiz-adv-x="475" d="M420 176 L119 176 Q126 146 136 123.5 Q146 101 164 87 Q182 73 210.5 66 Q239 59 283 59 Q298 59 329 62 Q360 65 391 69 L391 11 Q369 3 334.5 -1.5 Q300 -6 252 -6 Q200 -6 162 10.5 Q124 27 99 55 Q74 83 62 121.5 Q50 160 50 203 Q50 246 61.5 284 Q73 322 96.5 350 Q120 378 155 394.5 Q190 411 236 411 Q283 411 317.5 397 Q352 383 374.5 358.5 Q397 334 408.5 301 Q420 268 420 229 L420 176 Z M350 241 Q349 273 339.5 293.5 Q330 314 314.5 325.5 Q299 337 278.5 341.5 Q258 346 235 346 Q182 346 154.5 320 Q127 294 120 241 L350 241 Z M205 471 L130 594 L199 594 L238 521 L278 594 L347 594 L272 471 L205 471 Z " />
<glyph glyph-name="Gcircumflex" unicode="&#x11c;" horiz-adv-x="614" d="M339 530 Q299 530 259 521 Q219 512 187 487 Q155 462 135 418 Q115 374 115 303 Q115 222 138 174 Q161 126 195 100.5 Q229 75 268 67 Q307 59 339 59 Q373 59 407 67 Q441 75 474 92 L474 229 L383 229 L383 294 L544 294 L544 64 Q524 44 497 30.5 Q470 17 442.5 9 Q415 1 388 -2.5 Q361 -6 341 -6 Q301 -6 249.5 7 Q198 20 152.5 54.5 Q107 89 76 149.5 Q45 210 45 306 Q45 388 70.5 443.5 Q96 499 137.5 532.5 Q179 566 232 580.5 Q285 595 340 595 Q383 595 427.5 582.5 Q472 570 510 545 L475 497 Q442 514 406.5 522 Q371 530 339 530 Z M362 780 L437 657 L368 657 L328 730 L289 657 L220 657 L295 780 L362 780 Z " />
<glyph glyph-name="gcircumflex" unicode="&#x11d;" horiz-adv-x="513" d="M448 -6 Q448 -69 425.5 -106.5 Q403 -144 371 -164.5 Q339 -185 303 -191.5 Q267 -198 240 -198 Q198 -198 161 -191 Q124 -184 95 -168 Q101 -152 104.5 -140.5 Q108 -129 115 -114 Q150 -127 182.5 -130 Q215 -133 235 -133 Q254 -133 279 -131 Q304 -129 326 -117 Q348 -105 363 -79 Q378 -53 378 -6 L378 51 Q361 30 339.5 18.5 Q318 7 297 1.5 Q276 -4 258.5 -5 Q241 -6 230 -6 Q201 -6 170 4.5 Q139 15 113.5 39.5 Q88 64 71.5 105.5 Q55 147 55 209 Q55 262 71 300 Q87 338 113 363 Q139 388 172 399.5 Q205 411 239 411 Q245 411 260 410 Q275 409 294.5 402.5 Q314 396 336 383 Q358 370 378 346 L387 405 L448 405 L448 -6 Z M378 251 Q367 278 350 299 Q334 318 311 332 Q288 346 254 346 Q241 346 219 342.5 Q197 339 176 325 Q155 311 140 283.5 Q125 256 125 209 Q125 153 140 122.5 Q155 92 176 78 Q197 64 219 61.5 Q241 59 254 59 Q288 59 311.5 74 Q335 89 350 107 Q367 127 378 154 L378 251 Z M291 594 L366 471 L297 471 L257 544 L218 471 L149 471 L224 594 L291 594 Z " />
<glyph glyph-name="Gbreve" unicode="&#x11e;" horiz-adv-x="614" d="M339 530 Q299 530 259 521 Q219 512 187 487 Q155 462 135 418 Q115 374 115 303 Q115 222 138 174 Q161 126 195 100.5 Q229 75 268 67 Q307 59 339 59 Q373 59 407 67 Q441 75 474 92 L474 229 L383 229 L383 294 L544 294 L544 64 Q524 44 497 30.5 Q470 17 442.5 9 Q415 1 388 -2.5 Q361 -6 341 -6 Q301 -6 249.5 7 Q198 20 152.5 54.5 Q107 89 76 149.5 Q45 210 45 306 Q45 388 70.5 443.5 Q96 499 137.5 532.5 Q179 566 232 580.5 Q285 595 340 595 Q383 595 427.5 582.5 Q472 570 510 545 L475 497 Q442 514 406.5 522 Q371 530 339 530 Z M328 657 Q349 657 370 661.5 Q391 666 409.5 678 Q428 690 442 710.5 Q456 731 462 763 L394 763 Q384 734 366.5 725 Q349 716 328 716 Q307 716 289.5 725 Q272 734 262 763 L194 763 Q200 731 214 710.5 Q228 690 246.5 678 Q265 666 286 661.5 Q307 657 328 657 Z " />
<glyph glyph-name="gbreve" unicode="&#x11f;" horiz-adv-x="513" d="M448 -6 Q448 -69 425.5 -106.5 Q403 -144 371 -164.5 Q339 -185 303 -191.5 Q267 -198 240 -198 Q198 -198 161 -191 Q124 -184 95 -168 Q101 -152 104.5 -140.5 Q108 -129 115 -114 Q150 -127 182.5 -130 Q215 -133 235 -133 Q254 -133 279 -131 Q304 -129 326 -117 Q348 -105 363 -79 Q378 -53 378 -6 L378 51 Q361 30 339.5 18.5 Q318 7 297 1.5 Q276 -4 258.5 -5 Q241 -6 230 -6 Q201 -6 170 4.5 Q139 15 113.5 39.5 Q88 64 71.5 105.5 Q55 147 55 209 Q55 262 71 300 Q87 338 113 363 Q139 388 172 399.5 Q205 411 239 411 Q245 411 260 410 Q275 409 294.5 402.5 Q314 396 336 383 Q358 370 378 346 L387 405 L448 405 L448 -6 Z M378 251 Q367 278 350 299 Q334 318 311 332 Q288 346 254 346 Q241 346 219 342.5 Q197 339 176 325 Q155 311 140 283.5 Q125 256 125 209 Q125 153 140 122.5 Q155 92 176 78 Q197 64 219 61.5 Q241 59 254 59 Q288 59 311.5 74 Q335 89 350 107 Q367 127 378 154 L378 251 Z M255 471 Q234 471 213 475.5 Q192 480 173.5 492 Q155 504 141 524.5 Q127 545 121 577 L189 577 Q199 548 216.5 539 Q234 530 255 530 Q276 530 293.5 539 Q311 548 321 577 L389 577 Q383 545 369 524.5 Q355 504 336.5 492 Q318 480 297 475.5 Q276 471 255 471 Z " />
<glyph glyph-name="Gdotaccent" unicode="&#x120;" horiz-adv-x="614" d="M339 530 Q299 530 259 521 Q219 512 187 487 Q155 462 135 418 Q115 374 115 303 Q115 222 138 174 Q161 126 195 100.5 Q229 75 268 67 Q307 59 339 59 Q373 59 407 67 Q441 75 474 92 L474 229 L383 229 L383 294 L544 294 L544 64 Q524 44 497 30.5 Q470 17 442.5 9 Q415 1 388 -2.5 Q361 -6 341 -6 Q301 -6 249.5 7 Q198 20 152.5 54.5 Q107 89 76 149.5 Q45 210 45 306 Q45 388 70.5 443.5 Q96 499 137.5 532.5 Q179 566 232 580.5 Q285 595 340 595 Q383 595 427.5 582.5 Q472 570 510 545 L475 497 Q442 514 406.5 522 Q371 530 339 530 Z M289 657 L357 657 L357 722 L289 722 L289 657 Z " />
<glyph glyph-name="gdotaccent" unicode="&#x121;" horiz-adv-x="513" d="M448 -6 Q448 -69 425.5 -106.5 Q403 -144 371 -164.5 Q339 -185 303 -191.5 Q267 -198 240 -198 Q198 -198 161 -191 Q124 -184 95 -168 Q101 -152 104.5 -140.5 Q108 -129 115 -114 Q150 -127 182.5 -130 Q215 -133 235 -133 Q254 -133 279 -131 Q304 -129 326 -117 Q348 -105 363 -79 Q378 -53 378 -6 L378 51 Q361 30 339.5 18.5 Q318 7 297 1.5 Q276 -4 258.5 -5 Q241 -6 230 -6 Q201 -6 170 4.5 Q139 15 113.5 39.5 Q88 64 71.5 105.5 Q55 147 55 209 Q55 262 71 300 Q87 338 113 363 Q139 388 172 399.5 Q205 411 239 411 Q245 411 260 410 Q275 409 294.5 402.5 Q314 396 336 383 Q358 370 378 346 L387 405 L448 405 L448 -6 Z M378 251 Q367 278 350 299 Q334 318 311 332 Q288 346 254 346 Q241 346 219 342.5 Q197 339 176 325 Q155 311 140 283.5 Q125 256 125 209 Q125 153 140 122.5 Q155 92 176 78 Q197 64 219 61.5 Q241 59 254 59 Q288 59 311.5 74 Q335 89 350 107 Q367 127 378 154 L378 251 Z M213 536 L281 536 L281 471 L213 471 L213 536 Z " />
<glyph glyph-name="uni0122" unicode="&#x122;" horiz-adv-x="614" d="M339 530 Q299 530 259 521 Q219 512 187 487 Q155 462 135 418 Q115 374 115 303 Q115 222 138 174 Q161 126 195 100.5 Q229 75 268 67 Q307 59 339 59 Q373 59 407 67 Q441 75 474 92 L474 229 L383 229 L383 294 L544 294 L544 64 Q524 44 497 30.5 Q470 17 442.5 9 Q415 1 388 -2.5 Q361 -6 341 -6 Q301 -6 249.5 7 Q198 20 152.5 54.5 Q107 89 76 149.5 Q45 210 45 306 Q45 388 70.5 443.5 Q96 499 137.5 532.5 Q179 566 232 580.5 Q285 595 340 595 Q383 595 427.5 582.5 Q472 570 510 545 L475 497 Q442 514 406.5 522 Q371 530 339 530 Z M301 -64 L368 -64 L317 -184 L241 -184 L301 -64 Z " />
<glyph glyph-name="uni0123" unicode="&#x123;" horiz-adv-x="513" d="M448 -6 Q448 -69 425.5 -106.5 Q403 -144 371 -164.5 Q339 -185 303 -191.5 Q267 -198 240 -198 Q198 -198 161 -191 Q124 -184 95 -168 Q101 -152 104.5 -140.5 Q108 -129 115 -114 Q150 -127 182.5 -130 Q215 -133 235 -133 Q254 -133 279 -131 Q304 -129 326 -117 Q348 -105 363 -79 Q378 -53 378 -6 L378 51 Q361 30 339.5 18.5 Q318 7 297 1.5 Q276 -4 258.5 -5 Q241 -6 230 -6 Q201 -6 170 4.5 Q139 15 113.5 39.5 Q88 64 71.5 105.5 Q55 147 55 209 Q55 262 71 300 Q87 338 113 363 Q139 388 172 399.5 Q205 411 239 411 Q245 411 260 410 Q275 409 294.5 402.5 Q314 396 336 383 Q358 370 378 346 L387 405 L448 405 L448 -6 Z M378 251 Q367 278 350 299 Q334 318 311 332 Q288 346 254 346 Q241 346 219 342.5 Q197 339 176 325 Q155 311 140 283.5 Q125 256 125 209 Q125 153 140 122.5 Q155 92 176 78 Q197 64 219 61.5 Q241 59 254 59 Q288 59 311.5 74 Q335 89 350 107 Q367 127 378 154 L378 251 Z M289 470 L222 470 L273 590 L349 590 L289 470 Z " />
<glyph glyph-name="Hcircumflex" unicode="&#x124;" horiz-adv-x="612" d="M542 590 L542 0 L472 0 L472 252 L140 252 L140 0 L70 0 L70 590 L140 590 L140 315 L472 315 L472 590 L542 590 Z M340 780 L415 657 L346 657 L306 730 L267 657 L198 657 L273 780 L340 780 Z " />
<glyph glyph-name="hcircumflex" unicode="&#x125;" horiz-adv-x="492" d="M65 0 L65 590 L135 590 L135 344 Q154 369 176 382.5 Q198 396 219 402.5 Q240 409 258 410 Q276 411 286 411 Q311 411 337 400.5 Q363 390 384 370.5 Q405 351 418.5 323 Q432 295 432 260 L432 0 L362 0 L362 254 Q362 281 352.5 299 Q343 317 329 327.5 Q315 338 297.5 342 Q280 346 265 346 Q232 346 208 332.5 Q184 319 167 303 Q148 284 135 260 L135 0 L65 0 Z M207 780 L282 657 L213 657 L173 730 L134 657 L65 657 L140 780 L207 780 Z " />
<glyph glyph-name="Hbar" unicode="&#x126;" horiz-adv-x="638" d="M555 478 L555 0 L485 0 L485 252 L153 252 L153 0 L83 0 L83 478 L20 478 L20 541 L83 541 L83 590 L153 590 L153 541 L485 541 L485 590 L555 590 L555 541 L618 541 L618 478 L555 478 Z M485 315 L485 478 L153 478 L153 315 L485 315 Z " />
<glyph glyph-name="hbar" unicode="&#x127;" horiz-adv-x="513" d="M156 344 Q175 369 197 382.5 Q219 396 240 402.5 Q261 409 279 410 Q297 411 307 411 Q332 411 358 400.5 Q384 390 405 370.5 Q426 351 439.5 323 Q453 295 453 260 L453 0 L383 0 L383 254 Q383 281 373.5 299 Q364 317 350 327.5 Q336 338 318.5 342 Q301 346 286 346 Q253 346 229 332.5 Q205 319 188 303 Q169 284 156 260 L156 0 L86 0 L86 481 L5 481 L5 537 L86 537 L86 590 L156 590 L156 537 L242 537 L242 481 L156 481 L156 344 Z " />
<glyph glyph-name="Itilde" unicode="&#x128;" horiz-adv-x="210" d="M227 674 Q212 666 194 661.5 Q176 657 161 657 Q144 657 129 663 Q114 669 99 675.5 Q84 682 69.5 688 Q55 694 38 694 Q28 694 19.5 693.5 Q11 693 3 690 L-17 740 Q-2 751 10 754 Q22 757 38 757 Q56 757 71.5 751 Q87 745 102 738.5 Q117 732 132.5 726 Q148 720 165 720 Q176 720 187 721.5 Q198 723 208 728 L227 674 Z M140 0 L70 0 L70 590 L140 590 L140 0 Z " />
<glyph glyph-name="itilde" unicode="&#x129;" horiz-adv-x="210" d="M70 405 L140 405 L140 0 L70 0 L70 405 Z M227 488 Q212 480 194 475.5 Q176 471 161 471 Q144 471 129 477 Q114 483 99 489.5 Q84 496 69.5 502 Q55 508 38 508 Q28 508 19.5 507.5 Q11 507 3 504 L-17 554 Q-2 565 10 568 Q22 571 38 571 Q56 571 71.5 565 Q87 559 102 552.5 Q117 546 132.5 540 Q148 534 165 534 Q176 534 187 535.5 Q198 537 208 542 L227 488 Z " />
<glyph glyph-name="Imacron" unicode="&#x12a;" horiz-adv-x="210" d="M70 590 L140 590 L140 0 L70 0 L70 590 Z M12 657 L12 721 L199 721 L199 657 L12 657 Z " />
<glyph glyph-name="imacron" unicode="&#x12b;" horiz-adv-x="210" d="M70 405 L140 405 L140 0 L70 0 L70 405 Z M12 471 L12 535 L199 535 L199 471 L12 471 Z " />
<glyph glyph-name="Iogonek" unicode="&#x12e;" horiz-adv-x="210" d="M70 590 L140 590 L140 0 L70 0 L70 590 Z M13 -184 L89 -184 L140 -64 L73 -64 L13 -184 Z " />
<glyph glyph-name="iogonek" unicode="&#x12f;" horiz-adv-x="210" d="M70 405 L140 405 L140 0 L70 0 L70 405 Z M70 554 L140 554 L140 475 L70 475 L70 554 Z M14 -184 L90 -184 L141 -64 L74 -64 L14 -184 Z " />
<glyph glyph-name="Idotaccent" unicode="&#x130;" horiz-adv-x="210" d="M70 590 L140 590 L140 0 L70 0 L70 590 Z M70 736 L140 736 L140 657 L70 657 L70 736 Z " />
<glyph glyph-name="dotlessi" unicode="&#x131;" horiz-adv-x="210" d="M70 405 L140 405 L140 0 L70 0 L70 405 Z " />
<glyph glyph-name="Jcircumflex" unicode="&#x134;" horiz-adv-x="470" d="M330 590 L400 590 L400 195 Q400 130 376.5 91 Q353 52 320 31 Q287 10 250 2.5 Q213 -5 186 -6 Q171 -6 151.5 -5.5 Q132 -5 110 -1.5 Q88 2 66.5 9 Q45 16 25 29 L53 78 Q91 64 122 61.5 Q153 59 176 59 Q193 59 219 61.5 Q245 64 269.5 77.5 Q294 91 312 119.5 Q330 148 330 200 L330 590 Z M325 780 L400 657 L331 657 L291 730 L252 657 L183 657 L258 780 L325 780 Z " />
<glyph glyph-name="jcircumflex" unicode="&#x135;" horiz-adv-x="210" d="M70 405 L140 405 L140 -60 Q140 -79 135.5 -103 Q131 -127 116 -148 Q101 -169 73.5 -183.5 Q46 -198 1 -198 Q-37 -198 -55.5 -195.5 Q-74 -193 -85 -189 L-85 -129 Q-70 -130 -57 -131 Q-45 -132 -34 -132.5 Q-23 -133 -16 -133 Q13 -133 30 -126.5 Q47 -120 56 -105.5 Q65 -91 67.5 -67.5 Q70 -44 70 -10 L70 405 Z M139 594 L214 471 L145 471 L105 544 L66 471 L-3 471 L72 594 L139 594 Z " />
<glyph glyph-name="uni0136" unicode="&#x136;" horiz-adv-x="532" d="M522 0 L425 0 L140 285 L140 0 L70 0 L70 590 L140 590 L140 310 L425 590 L522 590 L227 296 L522 0 Z M250 -64 L317 -64 L266 -184 L190 -184 L250 -64 Z " />
<glyph glyph-name="uni0137" unicode="&#x137;" horiz-adv-x="440" d="M337 0 L135 217 L135 0 L65 0 L65 590 L135 590 L135 243 L308 405 L409 405 L220 227 L432 0 L337 0 Z M153 -184 L229 -184 L280 -64 L213 -64 L153 -184 Z " />
<glyph glyph-name="kgreenlandic" unicode="&#x138;" horiz-adv-x="440" d="M337 0 L135 217 L135 0 L65 0 L65 405 L135 405 L135 243 L308 405 L409 405 L220 227 L432 0 L337 0 Z " />
<glyph glyph-name="Lacute" unicode="&#x139;" horiz-adv-x="479" d="M140 63 L434 63 L434 0 L70 0 L70 590 L140 590 L140 63 Z M137 657 L70 657 L121 777 L197 777 L137 657 Z " />
<glyph glyph-name="lacute" unicode="&#x13a;" horiz-adv-x="210" d="M140 0 L70 0 L70 590 L140 590 L140 0 Z M140 657 L73 657 L124 777 L200 777 L140 657 Z " />
<glyph glyph-name="uni013B" unicode="&#x13b;" horiz-adv-x="479" d="M140 63 L434 63 L434 0 L70 0 L70 590 L140 590 L140 63 Z M181 -184 L257 -184 L308 -64 L241 -64 L181 -184 Z " />
<glyph glyph-name="uni013C" unicode="&#x13c;" horiz-adv-x="210" d="M70 590 L140 590 L140 0 L70 0 L70 590 Z M13 -184 L89 -184 L140 -64 L73 -64 L13 -184 Z " />
<glyph glyph-name="Lcaron" unicode="&#x13d;" horiz-adv-x="479" d="M140 63 L434 63 L434 0 L70 0 L70 590 L140 590 L140 63 Z M384 590 L308 590 L257 470 L324 470 L384 590 Z " />
<glyph glyph-name="lcaron" unicode="&#x13e;" horiz-adv-x="338" d="M70 590 L140 590 L140 0 L70 0 L70 590 Z M313 590 L237 590 L186 470 L253 470 L313 590 Z " />
<glyph glyph-name="Lslash" unicode="&#x141;" horiz-adv-x="539" d="M200 312 L200 63 L494 63 L494 0 L130 0 L130 289 L30 256 L30 324 L130 357 L130 590 L200 590 L200 381 L309 417 L309 348 L200 312 Z " />
<glyph glyph-name="lslash" unicode="&#x142;" horiz-adv-x="358" d="M209 334 L209 0 L139 0 L139 311 L30 275 L30 345 L139 380 L139 590 L209 590 L209 402 L328 441 L328 373 L209 334 Z " />
<glyph glyph-name="Nacute" unicode="&#x143;" horiz-adv-x="634" d="M140 491 L140 0 L70 0 L70 590 L159 590 L494 92 L494 590 L564 590 L564 0 L473 0 L140 491 Z M367 657 L300 657 L351 777 L427 777 L367 657 Z " />
<glyph glyph-name="nacute" unicode="&#x144;" horiz-adv-x="492" d="M65 0 L65 405 L126 405 L136 345 Q155 370 177 383.5 Q199 397 219.5 403 Q240 409 258 410 Q276 411 286 411 Q311 411 337 400.5 Q363 390 384 370.5 Q405 351 418.5 323 Q432 295 432 260 L432 0 L362 0 L362 254 Q362 281 352.5 299 Q343 317 329 327.5 Q315 338 297.5 342 Q280 346 265 346 Q232 346 208 332.5 Q184 319 167 303 Q148 284 135 260 L135 0 L65 0 Z M288 471 L221 471 L272 591 L348 591 L288 471 Z " />
<glyph glyph-name="uni0145" unicode="&#x145;" horiz-adv-x="634" d="M140 491 L140 0 L70 0 L70 590 L159 590 L494 92 L494 590 L564 590 L564 0 L473 0 L140 491 Z M236 -184 L312 -184 L363 -64 L296 -64 L236 -184 Z " />
<glyph glyph-name="uni0146" unicode="&#x146;" horiz-adv-x="492" d="M65 0 L65 405 L126 405 L136 345 Q155 370 177 383.5 Q199 397 219.5 403 Q240 409 258 410 Q276 411 286 411 Q311 411 337 400.5 Q363 390 384 370.5 Q405 351 418.5 323 Q432 295 432 260 L432 0 L362 0 L362 254 Q362 281 352.5 299 Q343 317 329 327.5 Q315 338 297.5 342 Q280 346 265 346 Q232 346 208 332.5 Q184 319 167 303 Q148 284 135 260 L135 0 L65 0 Z M167 -184 L243 -184 L294 -64 L227 -64 L167 -184 Z " />
<glyph glyph-name="Ncaron" unicode="&#x147;" horiz-adv-x="634" d="M140 491 L140 0 L70 0 L70 590 L159 590 L494 92 L494 590 L564 590 L564 0 L473 0 L140 491 Z M287 657 L212 780 L281 780 L320 707 L360 780 L429 780 L354 657 L287 657 Z " />
<glyph glyph-name="ncaron" unicode="&#x148;" horiz-adv-x="492" d="M65 0 L65 405 L126 405 L136 345 Q155 370 177 383.5 Q199 397 219.5 403 Q240 409 258 410 Q276 411 286 411 Q311 411 337 400.5 Q363 390 384 370.5 Q405 351 418.5 323 Q432 295 432 260 L432 0 L362 0 L362 254 Q362 281 352.5 299 Q343 317 329 327.5 Q315 338 297.5 342 Q280 346 265 346 Q232 346 208 332.5 Q184 319 167 303 Q148 284 135 260 L135 0 L65 0 Z M226 471 L151 594 L220 594 L259 521 L299 594 L368 594 L293 471 L226 471 Z " />
<glyph glyph-name="Eng" unicode="&#x14a;" horiz-adv-x="634" d="M564 -60 Q564 -79 559.5 -103 Q555 -127 540 -148 Q525 -169 497.5 -183.5 Q470 -198 425 -198 Q387 -198 368.5 -195.5 Q350 -193 339 -189 L339 -129 Q354 -130 367 -131 Q379 -132 390 -132.5 Q401 -133 408 -133 Q435 -133 451.5 -127.5 Q468 -122 477 -110 Q486 -98 489.5 -78.5 Q493 -59 494 -31 L140 491 L140 0 L70 0 L70 590 L159 590 L494 92 L494 590 L564 590 L564 -60 Z " />
<glyph glyph-name="eng" unicode="&#x14b;" horiz-adv-x="492" d="M362 254 Q362 281 352.5 299 Q343 317 329 327.5 Q315 338 297.5 342 Q280 346 265 346 Q232 346 208 332.5 Q184 319 167 303 Q148 284 135 260 L135 0 L65 0 L65 405 L126 405 L136 345 Q155 370 177 383.5 Q199 397 219.5 403 Q240 409 258 410 Q276 411 286 411 Q311 411 337 400.5 Q363 390 384 370.5 Q405 351 418.5 323 Q432 295 432 260 L432 -60 Q432 -79 427.5 -103 Q423 -127 408 -148 Q393 -169 365.5 -183.5 Q338 -198 293 -198 Q255 -198 236.5 -195.5 Q218 -193 207 -189 L207 -129 Q222 -130 235 -131 Q247 -132 258 -132.5 Q269 -133 276 -133 Q305 -133 322 -126.5 Q339 -120 348 -105.5 Q357 -91 359.5 -67.5 Q362 -44 362 -10 L362 254 Z " />
<glyph glyph-name="Omacron" unicode="&#x14c;" horiz-adv-x="676" d="M338 59 Q370 59 407.5 67 Q445 75 477 100.5 Q509 126 530.5 174.5 Q552 223 552 304 Q552 375 533.5 419 Q515 463 485 487.5 Q455 512 416.5 521 Q378 530 338 530 Q298 530 260 521 Q222 512 192 487.5 Q162 463 143.5 419 Q125 375 125 304 Q125 223 146.5 174.5 Q168 126 200 100.5 Q232 75 269 67 Q306 59 338 59 Z M338 -6 Q298 -6 248.5 7 Q199 20 156 54.5 Q113 89 84 150 Q55 211 55 307 Q55 387 81 442 Q107 497 148.5 531 Q190 565 240 580 Q290 595 338 595 Q386 595 436.5 580 Q487 565 528 531 Q569 497 595 442 Q621 387 621 307 Q621 211 592 150 Q563 89 520 54.5 Q477 20 428 7 Q379 -6 338 -6 Z M184 657 L184 721 L489 721 L489 657 L184 657 Z " />
<glyph glyph-name="omacron" unicode="&#x14d;" horiz-adv-x="502" d="M251 59 Q271 59 293.5 64 Q316 69 336 84.5 Q356 100 369 128.5 Q382 157 382 205 Q382 246 369.5 273.5 Q357 301 337.5 317 Q318 333 295 339.5 Q272 346 251 346 Q230 346 207 339.5 Q184 333 164.5 317 Q145 301 132.5 273.5 Q120 246 120 205 Q120 157 133 128.5 Q146 100 166 84.5 Q186 69 209 64 Q232 59 251 59 Z M251 -6 Q223 -6 188 3.5 Q153 13 122.5 37 Q92 61 71 102 Q50 143 50 207 Q50 261 69 299.5 Q88 338 117.5 363 Q147 388 182.5 399.5 Q218 411 251 411 Q284 411 319.5 399.5 Q355 388 384.5 363 Q414 338 433 299.5 Q452 261 452 207 Q452 143 431 102 Q410 61 379.5 37 Q349 13 314 3.5 Q279 -6 251 -6 Z M99 471 L99 535 L404 535 L404 471 L99 471 Z " />
<glyph glyph-name="Ohungarumlaut" unicode="&#x150;" horiz-adv-x="676" d="M338 59 Q370 59 407.5 67 Q445 75 477 100.5 Q509 126 530.5 174.5 Q552 223 552 304 Q552 375 533.5 419 Q515 463 485 487.5 Q455 512 416.5 521 Q378 530 338 530 Q298 530 260 521 Q222 512 192 487.5 Q162 463 143.5 419 Q125 375 125 304 Q125 223 146.5 174.5 Q168 126 200 100.5 Q232 75 269 67 Q306 59 338 59 Z M338 -6 Q298 -6 248.5 7 Q199 20 156 54.5 Q113 89 84 150 Q55 211 55 307 Q55 387 81 442 Q107 497 148.5 531 Q190 565 240 580 Q290 595 338 595 Q386 595 436.5 580 Q487 565 528 531 Q569 497 595 442 Q621 387 621 307 Q621 211 592 150 Q563 89 520 54.5 Q477 20 428 7 Q379 -6 338 -6 Z M307 657 L246 657 L277 767 L353 767 L307 657 Z M425 657 L364 657 L395 767 L471 767 L425 657 Z " />
<glyph glyph-name="ohungarumlaut" unicode="&#x151;" horiz-adv-x="502" d="M251 59 Q271 59 293.5 64 Q316 69 336 84.5 Q356 100 369 128.5 Q382 157 382 205 Q382 246 369.5 273.5 Q357 301 337.5 317 Q318 333 295 339.5 Q272 346 251 346 Q230 346 207 339.5 Q184 333 164.5 317 Q145 301 132.5 273.5 Q120 246 120 205 Q120 157 133 128.5 Q146 100 166 84.5 Q186 69 209 64 Q232 59 251 59 Z M251 -6 Q223 -6 188 3.5 Q153 13 122.5 37 Q92 61 71 102 Q50 143 50 207 Q50 261 69 299.5 Q88 338 117.5 363 Q147 388 182.5 399.5 Q218 411 251 411 Q284 411 319.5 399.5 Q355 388 384.5 363 Q414 338 433 299.5 Q452 261 452 207 Q452 143 431 102 Q410 61 379.5 37 Q349 13 314 3.5 Q279 -6 251 -6 Z M218 471 L157 471 L188 581 L264 581 L218 471 Z M336 471 L275 471 L306 581 L382 581 L336 471 Z " />
<glyph glyph-name="OE" unicode="&#x152;" horiz-adv-x="841" d="M463 528 L463 330 L723 330 L723 267 L463 267 L463 63 L781 63 L781 0 L406 0 Q391 -4 375 -5 Q359 -6 341 -6 Q301 -6 249.5 7 Q198 20 152.5 54.5 Q107 89 76 149.5 Q45 210 45 306 Q45 388 70.5 443.5 Q96 499 137.5 532.5 Q179 566 232 580.5 Q285 595 340 595 Q357 595 369.5 594 Q382 593 393 590 L781 590 L781 528 L463 528 Z M339 59 Q359 59 370.5 60 Q382 61 393 65 L393 525 Q381 528 368 529 Q355 530 339 530 Q299 530 259 521 Q219 512 187 487 Q155 462 135 418 Q115 374 115 303 Q115 222 138 174 Q161 126 195 100.5 Q229 75 268 67 Q307 59 339 59 Z " />
<glyph glyph-name="oe" unicode="&#x153;" horiz-adv-x="807" d="M752 176 L451 176 Q458 146 468 123.5 Q478 101 496 87 Q514 73 542.5 66 Q571 59 615 59 Q630 59 661 62 Q692 65 723 69 L723 11 Q701 3 666.5 -1.5 Q632 -6 584 -6 Q523 -6 481.5 16 Q440 38 416 75 Q400 52 379 36.5 Q358 21 335.5 11.5 Q313 2 291 -2 Q269 -6 251 -6 Q223 -6 188 3.5 Q153 13 122.5 37 Q92 61 71 102 Q50 143 50 207 Q50 261 69 299.5 Q88 338 117.5 363 Q147 388 182.5 399.5 Q218 411 251 411 Q293 411 338 391.5 Q383 372 414 330 Q437 367 475.5 389 Q514 411 568 411 Q615 411 649.5 397 Q684 383 706.5 358.5 Q729 334 740.5 301 Q752 268 752 229 L752 176 Z M251 59 Q270 59 292 63.5 Q314 68 333.5 82.5 Q353 97 367 124 Q381 151 382 195 L382 205 Q382 246 369.5 273.5 Q357 301 337.5 317 Q318 333 295 339.5 Q272 346 251 346 Q230 346 207 339.5 Q184 333 164.5 317 Q145 301 132.5 273.5 Q120 246 120 205 Q120 157 133 128.5 Q146 100 166 84.5 Q186 69 209 64 Q232 59 251 59 Z M682 241 Q681 273 671.5 293.5 Q662 314 646.5 325.5 Q631 337 610.5 341.5 Q590 346 567 346 Q514 346 486.5 320 Q459 294 452 241 L682 241 Z " />
<glyph glyph-name="Racute" unicode="&#x154;" horiz-adv-x="558" d="M514 408 Q514 390 510.5 364.5 Q507 339 495.5 313 Q484 287 462 265 Q440 243 403 232 Q423 213 436.5 195 Q450 177 459.5 158.5 Q469 140 476 119.5 Q483 99 491 74 Q495 61 500.5 45 Q506 29 516 0 L443 0 L408 98 Q385 162 355.5 189 Q326 216 286 216 L140 216 L140 0 L70 0 L70 590 L338 590 Q368 590 399.5 580.5 Q431 571 456.5 550 Q482 529 498 494 Q514 459 514 408 Z M330 280 Q351 280 371 282.5 Q391 285 407.5 297 Q424 309 434 334.5 Q444 360 444 407 Q444 446 434 469.5 Q424 493 408 505.5 Q392 518 371.5 522 Q351 526 330 526 L140 526 L140 280 L330 280 Z M293 657 L226 657 L277 777 L353 777 L293 657 Z " />
<glyph glyph-name="racute" unicode="&#x155;" horiz-adv-x="344" d="M314 343 Q300 345 292.5 345.5 Q285 346 279 346 Q227 346 198 325.5 Q169 305 155 280 Q138 250 135 213 L135 0 L65 0 L65 405 L126 405 L135 346 Q150 370 173.5 383.5 Q197 397 220.5 403 Q244 409 262.5 410 Q281 411 285 411 L314 411 L314 343 Z M132 471 L65 471 L116 591 L192 591 L132 471 Z " />
<glyph glyph-name="uni0156" unicode="&#x156;" horiz-adv-x="558" d="M514 408 Q514 390 510.5 364.5 Q507 339 495.5 313 Q484 287 462 265 Q440 243 403 232 Q423 213 436.5 195 Q450 177 459.5 158.5 Q469 140 476 119.5 Q483 99 491 74 Q495 61 500.5 45 Q506 29 516 0 L443 0 L408 98 Q385 162 355.5 189 Q326 216 286 216 L140 216 L140 0 L70 0 L70 590 L338 590 Q368 590 399.5 580.5 Q431 571 456.5 550 Q482 529 498 494 Q514 459 514 408 Z M330 280 Q351 280 371 282.5 Q391 285 407.5 297 Q424 309 434 334.5 Q444 360 444 407 Q444 446 434 469.5 Q424 493 408 505.5 Q392 518 371.5 522 Q351 526 330 526 L140 526 L140 280 L330 280 Z M204 -184 L280 -184 L331 -64 L264 -64 L204 -184 Z " />
<glyph glyph-name="uni0157" unicode="&#x157;" horiz-adv-x="344" d="M314 343 Q300 345 292.5 345.5 Q285 346 279 346 Q227 346 198 325.5 Q169 305 155 280 Q138 250 135 213 L135 0 L65 0 L65 405 L126 405 L135 346 Q150 370 173.5 383.5 Q197 397 220.5 403 Q244 409 262.5 410 Q281 411 285 411 L314 411 L314 343 Z M65 -184 L141 -184 L192 -64 L125 -64 L65 -184 Z " />
<glyph glyph-name="Rcaron" unicode="&#x158;" horiz-adv-x="558" d="M514 408 Q514 390 510.5 364.5 Q507 339 495.5 313 Q484 287 462 265 Q440 243 403 232 Q423 213 436.5 195 Q450 177 459.5 158.5 Q469 140 476 119.5 Q483 99 491 74 Q495 61 500.5 45 Q506 29 516 0 L443 0 L408 98 Q385 162 355.5 189 Q326 216 286 216 L140 216 L140 0 L70 0 L70 590 L338 590 Q368 590 399.5 580.5 Q431 571 456.5 550 Q482 529 498 494 Q514 459 514 408 Z M330 280 Q351 280 371 282.5 Q391 285 407.5 297 Q424 309 434 334.5 Q444 360 444 407 Q444 446 434 469.5 Q424 493 408 505.5 Q392 518 371.5 522 Q351 526 330 526 L140 526 L140 280 L330 280 Z M217 657 L142 780 L211 780 L250 707 L290 780 L359 780 L284 657 L217 657 Z " />
<glyph glyph-name="rcaron" unicode="&#x159;" horiz-adv-x="344" d="M314 343 Q300 345 292.5 345.5 Q285 346 279 346 Q227 346 198 325.5 Q169 305 155 280 Q138 250 135 213 L135 0 L65 0 L65 405 L126 405 L135 346 Q150 370 173.5 383.5 Q197 397 220.5 403 Q244 409 262.5 410 Q281 411 285 411 L314 411 L314 343 Z M140 471 L65 594 L134 594 L173 521 L213 594 L282 594 L207 471 L140 471 Z " />
<glyph glyph-name="Sacute" unicode="&#x15a;" horiz-adv-x="534" d="M274 595 Q341 595 376.5 588.5 Q412 582 432 573 L432 512 Q400 517 371 521 Q345 525 321 527.5 Q297 530 283 530 Q258 530 228.5 528.5 Q199 527 174 518.5 Q149 510 132 492 Q115 474 115 440 Q115 411 142.5 390.5 Q170 370 212 352.5 Q254 335 302 318.5 Q350 302 392 279.5 Q434 257 461.5 226.5 Q489 196 489 152 Q489 111 472.5 81 Q456 51 426.5 31.5 Q397 12 356.5 3 Q316 -6 268 -6 Q200 -6 149 4.5 Q98 15 70 29 L70 92 Q84 88 105 82.5 Q126 77 151.5 71.5 Q177 66 206 62.5 Q235 59 264 59 Q293 59 321 63 Q349 67 371 77 Q393 87 406 105 Q419 123 419 150 Q419 180 391.5 200.5 Q364 221 322 238 Q280 255 232 271.5 Q184 288 142 310 Q100 332 72.5 363 Q45 394 45 440 Q45 489 64.5 519 Q84 549 116 566 Q148 583 189 589 Q230 595 274 595 Z M286 657 L219 657 L270 777 L346 777 L286 657 Z " />
<glyph glyph-name="sacute" unicode="&#x15b;" horiz-adv-x="422" d="M240 471 L173 471 L224 591 L300 591 L240 471 Z M214 411 Q259 411 290 405.5 Q321 400 339 392 L339 335 Q317 338 297 341 Q278 343 261 344.5 Q244 346 234 346 Q171 346 143 338 Q115 330 115 304 Q115 288 135 276.5 Q155 265 185 254.5 Q215 244 250 233 Q285 222 315 206.5 Q345 191 365 169.5 Q385 148 385 116 Q385 59 341 26.5 Q297 -6 212 -6 Q164 -6 124 2.5 Q84 11 63 21 L63 81 Q94 75 121 70 Q147 66 170 62.5 Q193 59 207 59 Q223 59 241.5 61.5 Q260 64 276.5 70 Q293 76 304 86.5 Q315 97 315 114 Q315 131 295 142.5 Q275 154 245 164.5 Q215 175 180 186.5 Q145 198 115 213.5 Q85 229 65 250.5 Q45 272 45 303 Q45 333 60 354 Q75 375 99 387.5 Q123 400 153.5 405.5 Q184 411 214 411 Z " />
<glyph glyph-name="Scircumflex" unicode="&#x15c;" horiz-adv-x="534" d="M274 595 Q341 595 376.5 588.5 Q412 582 432 573 L432 512 Q400 517 371 521 Q345 525 321 527.5 Q297 530 283 530 Q258 530 228.5 528.5 Q199 527 174 518.5 Q149 510 132 492 Q115 474 115 440 Q115 411 142.5 390.5 Q170 370 212 352.5 Q254 335 302 318.5 Q350 302 392 279.5 Q434 257 461.5 226.5 Q489 196 489 152 Q489 111 472.5 81 Q456 51 426.5 31.5 Q397 12 356.5 3 Q316 -6 268 -6 Q200 -6 149 4.5 Q98 15 70 29 L70 92 Q84 88 105 82.5 Q126 77 151.5 71.5 Q177 66 206 62.5 Q235 59 264 59 Q293 59 321 63 Q349 67 371 77 Q393 87 406 105 Q419 123 419 150 Q419 180 391.5 200.5 Q364 221 322 238 Q280 255 232 271.5 Q184 288 142 310 Q100 332 72.5 363 Q45 394 45 440 Q45 489 64.5 519 Q84 549 116 566 Q148 583 189 589 Q230 595 274 595 Z M296 780 L371 657 L302 657 L262 730 L223 657 L154 657 L229 780 L296 780 Z " />
<glyph glyph-name="scircumflex" unicode="&#x15d;" horiz-adv-x="422" d="M261 594 L336 471 L267 471 L227 544 L188 471 L119 471 L194 594 L261 594 Z M214 411 Q259 411 290 405.5 Q321 400 339 392 L339 335 Q317 338 297 341 Q278 343 261 344.5 Q244 346 234 346 Q171 346 143 338 Q115 330 115 304 Q115 288 135 276.5 Q155 265 185 254.5 Q215 244 250 233 Q285 222 315 206.5 Q345 191 365 169.5 Q385 148 385 116 Q385 59 341 26.5 Q297 -6 212 -6 Q164 -6 124 2.5 Q84 11 63 21 L63 81 Q94 75 121 70 Q147 66 170 62.5 Q193 59 207 59 Q223 59 241.5 61.5 Q260 64 276.5 70 Q293 76 304 86.5 Q315 97 315 114 Q315 131 295 142.5 Q275 154 245 164.5 Q215 175 180 186.5 Q145 198 115 213.5 Q85 229 65 250.5 Q45 272 45 303 Q45 333 60 354 Q75 375 99 387.5 Q123 400 153.5 405.5 Q184 411 214 411 Z " />
<glyph glyph-name="Scedilla" unicode="&#x15e;" horiz-adv-x="534" d="M274 595 Q341 595 376.5 588.5 Q412 582 432 573 L432 512 Q400 517 371 521 Q345 525 321 527.5 Q297 530 283 530 Q258 530 228.5 528.5 Q199 527 174 518.5 Q149 510 132 492 Q115 474 115 440 Q115 411 142.5 390.5 Q170 370 212 352.5 Q254 335 302 318.5 Q350 302 392 279.5 Q434 257 461.5 226.5 Q489 196 489 152 Q489 111 472.5 81 Q456 51 426.5 31.5 Q397 12 356.5 3 Q316 -6 268 -6 Q200 -6 149 4.5 Q98 15 70 29 L70 92 Q84 88 105 82.5 Q126 77 151.5 71.5 Q177 66 206 62.5 Q235 59 264 59 Q293 59 321 63 Q349 67 371 77 Q393 87 406 105 Q419 123 419 150 Q419 180 391.5 200.5 Q364 221 322 238 Q280 255 232 271.5 Q184 288 142 310 Q100 332 72.5 363 Q45 394 45 440 Q45 489 64.5 519 Q84 549 116 566 Q148 583 189 589 Q230 595 274 595 Z M198 -184 L274 -184 L325 -64 L258 -64 L198 -184 Z " />
<glyph glyph-name="scedilla" unicode="&#x15f;" horiz-adv-x="422" d="M150 -184 L226 -184 L277 -64 L210 -64 L150 -184 Z M214 411 Q259 411 290 405.5 Q321 400 339 392 L339 335 Q317 338 297 341 Q278 343 261 344.5 Q244 346 234 346 Q171 346 143 338 Q115 330 115 304 Q115 288 135 276.5 Q155 265 185 254.5 Q215 244 250 233 Q285 222 315 206.5 Q345 191 365 169.5 Q385 148 385 116 Q385 59 341 26.5 Q297 -6 212 -6 Q164 -6 124 2.5 Q84 11 63 21 L63 81 Q94 75 121 70 Q147 66 170 62.5 Q193 59 207 59 Q223 59 241.5 61.5 Q260 64 276.5 70 Q293 76 304 86.5 Q315 97 315 114 Q315 131 295 142.5 Q275 154 245 164.5 Q215 175 180 186.5 Q145 198 115 213.5 Q85 229 65 250.5 Q45 272 45 303 Q45 333 60 354 Q75 375 99 387.5 Q123 400 153.5 405.5 Q184 411 214 411 Z " />
<glyph glyph-name="Scaron" unicode="&#x160;" horiz-adv-x="534" d="M274 595 Q341 595 376.5 588.5 Q412 582 432 573 L432 512 Q400 517 371 521 Q345 525 321 527.5 Q297 530 283 530 Q258 530 228.5 528.5 Q199 527 174 518.5 Q149 510 132 492 Q115 474 115 440 Q115 411 142.5 390.5 Q170 370 212 352.5 Q254 335 302 318.5 Q350 302 392 279.5 Q434 257 461.5 226.5 Q489 196 489 152 Q489 111 472.5 81 Q456 51 426.5 31.5 Q397 12 356.5 3 Q316 -6 268 -6 Q200 -6 149 4.5 Q98 15 70 29 L70 92 Q84 88 105 82.5 Q126 77 151.5 71.5 Q177 66 206 62.5 Q235 59 264 59 Q293 59 321 63 Q349 67 371 77 Q393 87 406 105 Q419 123 419 150 Q419 180 391.5 200.5 Q364 221 322 238 Q280 255 232 271.5 Q184 288 142 310 Q100 332 72.5 363 Q45 394 45 440 Q45 489 64.5 519 Q84 549 116 566 Q148 583 189 589 Q230 595 274 595 Z M229 657 L154 780 L223 780 L262 707 L302 780 L371 780 L296 657 L229 657 Z " />
<glyph glyph-name="scaron" unicode="&#x161;" horiz-adv-x="422" d="M180 471 L105 594 L174 594 L213 521 L253 594 L322 594 L247 471 L180 471 Z M214 411 Q259 411 290 405.5 Q321 400 339 392 L339 335 Q317 338 297 341 Q278 343 261 344.5 Q244 346 234 346 Q171 346 143 338 Q115 330 115 304 Q115 288 135 276.5 Q155 265 185 254.5 Q215 244 250 233 Q285 222 315 206.5 Q345 191 365 169.5 Q385 148 385 116 Q385 59 341 26.5 Q297 -6 212 -6 Q164 -6 124 2.5 Q84 11 63 21 L63 81 Q94 75 121 70 Q147 66 170 62.5 Q193 59 207 59 Q223 59 241.5 61.5 Q260 64 276.5 70 Q293 76 304 86.5 Q315 97 315 114 Q315 131 295 142.5 Q275 154 245 164.5 Q215 175 180 186.5 Q145 198 115 213.5 Q85 229 65 250.5 Q45 272 45 303 Q45 333 60 354 Q75 375 99 387.5 Q123 400 153.5 405.5 Q184 411 214 411 Z " />
<glyph glyph-name="uni0162" unicode="&#x162;" horiz-adv-x="532" d="M45 590 L487 590 L487 527 L301 527 L301 0 L231 0 L231 527 L45 527 L45 590 Z M174 -184 L250 -184 L301 -64 L234 -64 L174 -184 Z " />
<glyph glyph-name="uni0163" unicode="&#x163;" horiz-adv-x="364" d="M25 340 L25 368 L159 556 L170 556 L170 405 L319 405 L319 340 L170 340 L170 159 Q170 124 175 104 Q180 84 191 74 Q202 64 220.5 61.5 Q239 59 266 59 Q279 59 292 61 Q305 63 319 65 L319 7 Q309 1 292.5 -2.5 Q276 -6 240 -6 Q195 -6 167.5 8 Q140 22 125 44.5 Q110 67 105 96 Q100 125 100 156 L100 340 L25 340 Z M138 -184 L214 -184 L265 -64 L198 -64 L138 -184 Z " />
<glyph glyph-name="Tcaron" unicode="&#x164;" horiz-adv-x="532" d="M45 590 L487 590 L487 527 L301 527 L301 0 L231 0 L231 527 L45 527 L45 590 Z M233 657 L158 780 L227 780 L266 707 L306 780 L375 780 L300 657 L233 657 Z " />
<glyph glyph-name="tcaron" unicode="&#x165;" horiz-adv-x="404" d="M35 340 L35 368 L169 556 L180 556 L180 405 L329 405 L329 340 L180 340 L180 159 Q180 124 185 104 Q190 84 201 74 Q212 64 230.5 61.5 Q249 59 276 59 Q289 59 302 61 Q315 63 329 65 L329 7 Q319 1 302.5 -2.5 Q286 -6 250 -6 Q205 -6 177.5 8 Q150 22 135 44.5 Q120 67 115 96 Q110 125 110 156 L110 340 L35 340 Z M324 470 L257 470 L308 590 L384 590 L324 470 Z " />
<glyph glyph-name="Tbar" unicode="&#x166;" horiz-adv-x="532" d="M301 256 L301 0 L231 0 L231 256 L113 256 L113 320 L231 320 L231 527 L45 527 L45 590 L487 590 L487 527 L301 527 L301 320 L419 320 L419 256 L301 256 Z " />
<glyph glyph-name="tbar" unicode="&#x167;" horiz-adv-x="364" d="M25 268 L100 268 L100 340 L25 340 L25 368 L159 556 L170 556 L170 405 L319 405 L319 340 L170 340 L170 268 L319 268 L319 203 L170 203 L170 159 Q170 124 175 104 Q180 84 191 74 Q202 64 220.5 61.5 Q239 59 266 59 Q279 59 292 61 Q305 63 319 65 L319 7 Q309 1 292.5 -2.5 Q276 -6 240 -6 Q195 -6 167.5 8 Q140 22 125 44.5 Q110 67 105 96 Q100 125 100 156 L100 203 L25 203 L25 268 Z " />
<glyph glyph-name="Utilde" unicode="&#x168;" horiz-adv-x="614" d="M307 -6 Q267 -6 225 4.5 Q183 15 148.5 44 Q114 73 92 126 Q70 179 70 266 L70 590 L140 590 L140 277 Q140 212 153.5 170 Q167 128 190.5 103 Q214 78 244 68.5 Q274 59 307 59 Q340 59 370 68.5 Q400 78 423.5 103 Q447 128 460.5 170 Q474 212 474 277 L474 590 L544 590 L544 266 Q544 179 522 126 Q500 73 465.5 44 Q431 15 389 4.5 Q347 -6 307 -6 Z M427 674 Q412 666 394 661.5 Q376 657 361 657 Q344 657 329 663 Q314 669 299 675.5 Q284 682 269.5 688 Q255 694 238 694 Q228 694 219.5 693.5 Q211 693 203 690 L183 740 Q198 751 210 754 Q222 757 238 757 Q256 757 271.5 751 Q287 745 302 738.5 Q317 732 332.5 726 Q348 720 365 720 Q376 720 387 721.5 Q398 723 408 728 L427 674 Z " />
<glyph glyph-name="utilde" unicode="&#x169;" horiz-adv-x="492" d="M427 405 L427 0 L366 0 L356 60 Q337 35 315 21.5 Q293 8 272.5 2 Q252 -4 234.5 -5 Q217 -6 206 -6 Q181 -6 155 4.5 Q129 15 108 34.5 Q87 54 73.5 82 Q60 110 60 145 L60 405 L130 405 L130 151 Q130 124 139.5 106.5 Q149 89 163 78.5 Q177 68 194.5 63.5 Q212 59 227 59 Q260 59 284 72.5 Q308 86 325 102 Q344 121 357 145 L357 405 L427 405 Z M365 488 Q350 480 332 475.5 Q314 471 299 471 Q282 471 267 477 Q252 483 237 489.5 Q222 496 207.5 502 Q193 508 176 508 Q166 508 157.5 507.5 Q149 507 141 504 L121 554 Q136 565 148 568 Q160 571 176 571 Q194 571 209.5 565 Q225 559 240 552.5 Q255 546 270.5 540 Q286 534 303 534 Q314 534 325 535.5 Q336 537 346 542 L365 488 Z " />
<glyph glyph-name="Umacron" unicode="&#x16a;" horiz-adv-x="614" d="M307 -6 Q267 -6 225 4.5 Q183 15 148.5 44 Q114 73 92 126 Q70 179 70 266 L70 590 L140 590 L140 277 Q140 212 153.5 170 Q167 128 190.5 103 Q214 78 244 68.5 Q274 59 307 59 Q340 59 370 68.5 Q400 78 423.5 103 Q447 128 460.5 170 Q474 212 474 277 L474 590 L544 590 L544 266 Q544 179 522 126 Q500 73 465.5 44 Q431 15 389 4.5 Q347 -6 307 -6 Z M153 657 L153 721 L458 721 L458 657 L153 657 Z " />
<glyph glyph-name="umacron" unicode="&#x16b;" horiz-adv-x="492" d="M427 405 L427 0 L366 0 L356 60 Q337 35 315 21.5 Q293 8 272.5 2 Q252 -4 234.5 -5 Q217 -6 206 -6 Q181 -6 155 4.5 Q129 15 108 34.5 Q87 54 73.5 82 Q60 110 60 145 L60 405 L130 405 L130 151 Q130 124 139.5 106.5 Q149 89 163 78.5 Q177 68 194.5 63.5 Q212 59 227 59 Q260 59 284 72.5 Q308 86 325 102 Q344 121 357 145 L357 405 L427 405 Z M90 471 L90 535 L395 535 L395 471 L90 471 Z " />
<glyph glyph-name="Ubreve" unicode="&#x16c;" horiz-adv-x="614" d="M307 -6 Q267 -6 225 4.5 Q183 15 148.5 44 Q114 73 92 126 Q70 179 70 266 L70 590 L140 590 L140 277 Q140 212 153.5 170 Q167 128 190.5 103 Q214 78 244 68.5 Q274 59 307 59 Q340 59 370 68.5 Q400 78 423.5 103 Q447 128 460.5 170 Q474 212 474 277 L474 590 L544 590 L544 266 Q544 179 522 126 Q500 73 465.5 44 Q431 15 389 4.5 Q347 -6 307 -6 Z M307 657 Q286 657 265 661.5 Q244 666 225.5 678 Q207 690 193 710.5 Q179 731 173 763 L241 763 Q251 734 268.5 725 Q286 716 307 716 Q328 716 345.5 725 Q363 734 373 763 L441 763 Q435 731 421 710.5 Q407 690 388.5 678 Q370 666 349 661.5 Q328 657 307 657 Z " />
<glyph glyph-name="ubreve" unicode="&#x16d;" horiz-adv-x="492" d="M427 405 L427 0 L366 0 L356 60 Q337 35 315 21.5 Q293 8 272.5 2 Q252 -4 234.5 -5 Q217 -6 206 -6 Q181 -6 155 4.5 Q129 15 108 34.5 Q87 54 73.5 82 Q60 110 60 145 L60 405 L130 405 L130 151 Q130 124 139.5 106.5 Q149 89 163 78.5 Q177 68 194.5 63.5 Q212 59 227 59 Q260 59 284 72.5 Q308 86 325 102 Q344 121 357 145 L357 405 L427 405 Z M244 471 Q223 471 202 475.5 Q181 480 162.5 492 Q144 504 130 524.5 Q116 545 110 577 L178 577 Q188 548 205.5 539 Q223 530 244 530 Q265 530 282.5 539 Q300 548 310 577 L378 577 Q372 545 358 524.5 Q344 504 325.5 492 Q307 480 286 475.5 Q265 471 244 471 Z " />
<glyph glyph-name="Uring" unicode="&#x16e;" horiz-adv-x="614" d="M307 -6 Q267 -6 225 4.5 Q183 15 148.5 44 Q114 73 92 126 Q70 179 70 266 L70 590 L140 590 L140 277 Q140 212 153.5 170 Q167 128 190.5 103 Q214 78 244 68.5 Q274 59 307 59 Q340 59 370 68.5 Q400 78 423.5 103 Q447 128 460.5 170 Q474 212 474 277 L474 590 L544 590 L544 266 Q544 179 522 126 Q500 73 465.5 44 Q431 15 389 4.5 Q347 -6 307 -6 Z M307 712 Q328 712 345.5 727 Q363 742 363 772 Q363 801 345.5 816.5 Q328 832 307 832 Q286 832 268.5 816.5 Q251 801 251 772 Q251 742 268.5 727 Q286 712 307 712 Z M307 657 Q280 657 258.5 666.5 Q237 676 221.5 691.5 Q206 707 198 728 Q190 749 190 772 Q190 795 198 816 Q206 837 221.5 853 Q237 869 258.5 878 Q280 887 307 887 Q334 887 355.5 878 Q377 869 392.5 853 Q408 837 416 816 Q424 795 424 772 Q424 749 416 728 Q408 707 392.5 691.5 Q377 676 355.5 666.5 Q334 657 307 657 Z " />
<glyph glyph-name="uring" unicode="&#x16f;" horiz-adv-x="492" d="M427 405 L427 0 L366 0 L356 60 Q337 35 315 21.5 Q293 8 272.5 2 Q252 -4 234.5 -5 Q217 -6 206 -6 Q181 -6 155 4.5 Q129 15 108 34.5 Q87 54 73.5 82 Q60 110 60 145 L60 405 L130 405 L130 151 Q130 124 139.5 106.5 Q149 89 163 78.5 Q177 68 194.5 63.5 Q212 59 227 59 Q260 59 284 72.5 Q308 86 325 102 Q344 121 357 145 L357 405 L427 405 Z M243 526 Q264 526 281.5 541 Q299 556 299 586 Q299 615 281.5 630.5 Q264 646 243 646 Q222 646 204.5 630.5 Q187 615 187 586 Q187 556 204.5 541 Q222 526 243 526 Z M243 471 Q216 471 194.5 480.5 Q173 490 157.5 505.5 Q142 521 134 542 Q126 563 126 586 Q126 609 134 630 Q142 651 157.5 667 Q173 683 194.5 692 Q216 701 243 701 Q270 701 291.5 692 Q313 683 328.5 667 Q344 651 352 630 Q360 609 360 586 Q360 563 352 542 Q344 521 328.5 505.5 Q313 490 291.5 480.5 Q270 471 243 471 Z " />
<glyph glyph-name="Uhungarumlaut" unicode="&#x170;" horiz-adv-x="614" d="M276 657 L215 657 L246 767 L322 767 L276 657 Z M394 657 L333 657 L364 767 L440 767 L394 657 Z M307 -6 Q267 -6 225 4.5 Q183 15 148.5 44 Q114 73 92 126 Q70 179 70 266 L70 590 L140 590 L140 277 Q140 212 153.5 170 Q167 128 190.5 103 Q214 78 244 68.5 Q274 59 307 59 Q340 59 370 68.5 Q400 78 423.5 103 Q447 128 460.5 170 Q474 212 474 277 L474 590 L544 590 L544 266 Q544 179 522 126 Q500 73 465.5 44 Q431 15 389 4.5 Q347 -6 307 -6 Z " />
<glyph glyph-name="uhungarumlaut" unicode="&#x171;" horiz-adv-x="492" d="M427 405 L427 0 L366 0 L356 60 Q337 35 315 21.5 Q293 8 272.5 2 Q252 -4 234.5 -5 Q217 -6 206 -6 Q181 -6 155 4.5 Q129 15 108 34.5 Q87 54 73.5 82 Q60 110 60 145 L60 405 L130 405 L130 151 Q130 124 139.5 106.5 Q149 89 163 78.5 Q177 68 194.5 63.5 Q212 59 227 59 Q260 59 284 72.5 Q308 86 325 102 Q344 121 357 145 L357 405 L427 405 Z M212 471 L151 471 L182 581 L258 581 L212 471 Z M330 471 L269 471 L300 581 L376 581 L330 471 Z " />
<glyph glyph-name="Uogonek" unicode="&#x172;" horiz-adv-x="614" d="M307 -6 Q267 -6 225 4.5 Q183 15 148.5 44 Q114 73 92 126 Q70 179 70 266 L70 590 L140 590 L140 277 Q140 212 153.5 170 Q167 128 190.5 103 Q214 78 244 68.5 Q274 59 307 59 Q340 59 370 68.5 Q400 78 423.5 103 Q447 128 460.5 170 Q474 212 474 277 L474 590 L544 590 L544 266 Q544 179 522 126 Q500 73 465.5 44 Q431 15 389 4.5 Q347 -6 307 -6 Z M210 -184 L286 -184 L337 -64 L270 -64 L210 -184 Z " />
<glyph glyph-name="uogonek" unicode="&#x173;" horiz-adv-x="492" d="M427 405 L427 0 L366 0 L356 60 Q337 35 315 21.5 Q293 8 272.5 2 Q252 -4 234.5 -5 Q217 -6 206 -6 Q181 -6 155 4.5 Q129 15 108 34.5 Q87 54 73.5 82 Q60 110 60 145 L60 405 L130 405 L130 151 Q130 124 139.5 106.5 Q149 89 163 78.5 Q177 68 194.5 63.5 Q212 59 227 59 Q260 59 284 72.5 Q308 86 325 102 Q344 121 357 145 L357 405 L427 405 Z M300 -184 L376 -184 L427 -64 L360 -64 L300 -184 Z " />
<glyph glyph-name="Ydieresis" unicode="&#x178;" horiz-adv-x="557" d="M313 0 L244 0 L244 199 L25 590 L103 590 L278 281 L454 590 L532 590 L313 199 L313 0 Z M174 721 L242 721 L242 656 L174 656 L174 721 Z M315 721 L383 721 L383 656 L315 656 L315 721 Z " />
<glyph glyph-name="Zacute" unicode="&#x179;" horiz-adv-x="517" d="M51 590 L467 590 L467 510 L126 65 L467 65 L467 0 L50 0 L50 84 L391 525 L51 525 L51 590 Z M288 657 L221 657 L272 777 L348 777 L288 657 Z " />
<glyph glyph-name="zacute" unicode="&#x17a;" horiz-adv-x="434" d="M60 405 L374 405 L374 317 L138 65 L374 65 L374 0 L60 0 L60 85 L300 340 L60 340 L60 405 Z M255 471 L188 471 L239 591 L315 591 L255 471 Z " />
<glyph glyph-name="Zdotaccent" unicode="&#x17b;" horiz-adv-x="517" d="M51 590 L467 590 L467 510 L126 65 L467 65 L467 0 L50 0 L50 84 L391 525 L51 525 L51 590 Z M223 722 L291 722 L291 657 L223 657 L223 722 Z " />
<glyph glyph-name="zdotaccent" unicode="&#x17c;" horiz-adv-x="434" d="M60 405 L374 405 L374 317 L138 65 L374 65 L374 0 L60 0 L60 85 L300 340 L60 340 L60 405 Z M180 536 L248 536 L248 471 L180 471 L180 536 Z " />
<glyph glyph-name="Zcaron" unicode="&#x17d;" horiz-adv-x="517" d="M51 590 L467 590 L467 510 L126 65 L467 65 L467 0 L50 0 L50 84 L391 525 L51 525 L51 590 Z M225 657 L150 780 L219 780 L258 707 L298 780 L367 780 L292 657 L225 657 Z " />
<glyph glyph-name="zcaron" unicode="&#x17e;" horiz-adv-x="434" d="M60 405 L374 405 L374 317 L138 65 L374 65 L374 0 L60 0 L60 85 L300 340 L60 340 L60 405 Z M191 471 L116 594 L185 594 L224 521 L264 594 L333 594 L258 471 L191 471 Z " />
<glyph glyph-name="florin" unicode="&#x192;" horiz-adv-x="372" d="M117 340 L30 340 L30 405 L117 405 L117 413 Q117 508 155.5 551.5 Q194 595 260 595 Q292 595 310 591.5 Q328 588 337 583 L337 526 Q326 528 308.5 529 Q291 530 275 530 Q231 530 209 509 Q187 488 187 423 L187 405 L336 405 L336 340 L187 340 L187 -60 Q187 -79 182.5 -103 Q178 -127 163 -148 Q148 -169 120.5 -183.5 Q93 -198 48 -198 Q10 -198 -8.5 -195.5 Q-27 -193 -38 -189 L-38 -129 Q-23 -130 -10 -131 Q2 -132 13 -132.5 Q24 -133 31 -133 Q60 -133 77 -126.5 Q94 -120 103 -105.5 Q112 -91 114.5 -67.5 Q117 -44 117 -10 L117 340 Z " />
<glyph glyph-name="uni0218" unicode="&#x218;" horiz-adv-x="534" d="M274 595 Q341 595 376.5 588.5 Q412 582 432 573 L432 512 Q400 517 371 521 Q345 525 321 527.5 Q297 530 283 530 Q258 530 228.5 528.5 Q199 527 174 518.5 Q149 510 132 492 Q115 474 115 440 Q115 411 142.5 390.5 Q170 370 212 352.5 Q254 335 302 318.5 Q350 302 392 279.5 Q434 257 461.5 226.5 Q489 196 489 152 Q489 111 472.5 81 Q456 51 426.5 31.5 Q397 12 356.5 3 Q316 -6 268 -6 Q200 -6 149 4.5 Q98 15 70 29 L70 92 Q84 88 105 82.5 Q126 77 151.5 71.5 Q177 66 206 62.5 Q235 59 264 59 Q293 59 321 63 Q349 67 371 77 Q393 87 406 105 Q419 123 419 150 Q419 180 391.5 200.5 Q364 221 322 238 Q280 255 232 271.5 Q184 288 142 310 Q100 332 72.5 363 Q45 394 45 440 Q45 489 64.5 519 Q84 549 116 566 Q148 583 189 589 Q230 595 274 595 Z M198 -184 L274 -184 L325 -64 L258 -64 L198 -184 Z " />
<glyph glyph-name="uni0219" unicode="&#x219;" horiz-adv-x="422" d="M154 -184 L230 -184 L281 -64 L214 -64 L154 -184 Z M214 411 Q259 411 290 405.5 Q321 400 339 392 L339 335 Q317 338 297 341 Q278 343 261 344.5 Q244 346 234 346 Q171 346 143 338 Q115 330 115 304 Q115 288 135 276.5 Q155 265 185 254.5 Q215 244 250 233 Q285 222 315 206.5 Q345 191 365 169.5 Q385 148 385 116 Q385 59 341 26.5 Q297 -6 212 -6 Q164 -6 124 2.5 Q84 11 63 21 L63 81 Q94 75 121 70 Q147 66 170 62.5 Q193 59 207 59 Q223 59 241.5 61.5 Q260 64 276.5 70 Q293 76 304 86.5 Q315 97 315 114 Q315 131 295 142.5 Q275 154 245 164.5 Q215 175 180 186.5 Q145 198 115 213.5 Q85 229 65 250.5 Q45 272 45 303 Q45 333 60 354 Q75 375 99 387.5 Q123 400 153.5 405.5 Q184 411 214 411 Z " />
<glyph glyph-name="uni021A" unicode="&#x21a;" horiz-adv-x="532" d="M45 590 L487 590 L487 527 L301 527 L301 0 L231 0 L231 527 L45 527 L45 590 Z M174 -184 L250 -184 L301 -64 L234 -64 L174 -184 Z " />
<glyph glyph-name="uni021B" unicode="&#x21b;" horiz-adv-x="364" d="M25 340 L25 368 L159 556 L170 556 L170 405 L319 405 L319 340 L170 340 L170 159 Q170 124 175 104 Q180 84 191 74 Q202 64 220.5 61.5 Q239 59 266 59 Q279 59 292 61 Q305 63 319 65 L319 7 Q309 1 292.5 -2.5 Q276 -6 240 -6 Q195 -6 167.5 8 Q140 22 125 44.5 Q110 67 105 96 Q100 125 100 156 L100 340 L25 340 Z M138 -184 L214 -184 L265 -64 L198 -64 L138 -184 Z " />
<glyph glyph-name="circumflex" unicode="&#x2c6;" horiz-adv-x="357" d="M212 590 L287 467 L218 467 L178 540 L139 467 L70 467 L145 590 L212 590 Z " />
<glyph glyph-name="caron" unicode="&#x2c7;" horiz-adv-x="357" d="M145 467 L70 590 L139 590 L178 517 L218 590 L287 590 L212 467 L145 467 Z " />
<glyph glyph-name="breve" unicode="&#x2d8;" horiz-adv-x="408" d="M204 484 Q183 484 162 488.5 Q141 493 122.5 505 Q104 517 90 537.5 Q76 558 70 590 L138 590 Q148 561 165.5 552 Q183 543 204 543 Q225 543 242.5 552 Q260 561 270 590 L338 590 Q332 558 318 537.5 Q304 517 285.5 505 Q267 493 246 488.5 Q225 484 204 484 Z " />
<glyph glyph-name="dotaccent" unicode="&#x2d9;" horiz-adv-x="208" d="M70 590 L138 590 L138 525 L70 525 L70 590 Z " />
<glyph glyph-name="ring" unicode="&#x2da;" horiz-adv-x="374" d="M187 420 Q208 420 225.5 435 Q243 450 243 480 Q243 509 225.5 524.5 Q208 540 187 540 Q166 540 148.5 524.5 Q131 509 131 480 Q131 450 148.5 435 Q166 420 187 420 Z M187 365 Q160 365 138.5 374.5 Q117 384 101.5 399.5 Q86 415 78 436 Q70 457 70 480 Q70 503 78 524 Q86 545 101.5 561 Q117 577 138.5 586 Q160 595 187 595 Q214 595 235.5 586 Q257 577 272.5 561 Q288 545 296 524 Q304 503 304 480 Q304 457 296 436 Q288 415 272.5 399.5 Q257 384 235.5 374.5 Q214 365 187 365 Z " />
<glyph glyph-name="ogonek" unicode="&#x2db;" horiz-adv-x="267" d="M130 -6 L197 -6 L146 -126 L70 -126 L130 -6 Z " />
<glyph glyph-name="tilde" unicode="&#x2dc;" horiz-adv-x="384" d="M314 507 Q299 499 281 494.5 Q263 490 248 490 Q231 490 216 496 Q201 502 186 508.5 Q171 515 156.5 521 Q142 527 125 527 Q115 527 106.5 526.5 Q98 526 90 523 L70 573 Q85 584 97 587 Q109 590 125 590 Q143 590 158.5 584 Q174 578 189 571.5 Q204 565 219.5 559 Q235 553 252 553 Q263 553 274 554.5 Q285 556 295 561 L314 507 Z " />
<glyph glyph-name="hungarumlaut" unicode="&#x2dd;" horiz-adv-x="365" d="M131 480 L70 480 L101 590 L177 590 L131 480 Z M249 480 L188 480 L219 590 L295 590 L249 480 Z " />
<glyph glyph-name="uni03A9" unicode="&#x3a9;" horiz-adv-x="760" d="M381 530 Q338 530 303.5 518.5 Q269 507 244.5 479.5 Q220 452 207 405 Q194 358 194 287 L194 212 Q194 125 235 78 L235 0 L70 0 L70 65 L165 65 Q151 86 143 108 Q135 130 130.5 150 Q126 170 125 186.5 Q124 203 124 212 L124 305 Q124 385 146 440 Q168 495 204 529.5 Q240 564 286 579.5 Q332 595 380 595 Q428 595 474 579.5 Q520 564 556 529.5 Q592 495 614 440 Q636 385 636 305 L636 212 Q636 203 635 186.5 Q634 170 629.5 150 Q625 130 617 108 Q609 86 595 65 L690 65 L690 0 L525 0 L525 78 Q566 125 566 212 L566 287 Q566 358 553 405 Q540 452 515.5 479.5 Q491 507 457 518.5 Q423 530 381 530 Z " />
<glyph glyph-name="pi" unicode="&#x3c0;" horiz-adv-x="773" d="M703 342 L592 342 L592 0 L522 0 L522 342 L251 342 L251 0 L181 0 L181 342 L70 342 L70 405 L703 405 L703 342 Z " />
<glyph glyph-name="ZWSP" unicode="&#x200b;" d="" />
<glyph glyph-name="endash" unicode="&#x2013;" horiz-adv-x="444" d="M70 179 L70 242 L374 242 L374 179 L70 179 Z " />
<glyph glyph-name="emdash" unicode="&#x2014;" horiz-adv-x="502" d="M70 179 L70 242 L432 242 L432 179 L70 179 Z " />
<glyph glyph-name="quoteleft" unicode="&#x2018;" horiz-adv-x="264" d="M128 590 L194 590 L147 474 L70 474 L128 590 Z " />
<glyph glyph-name="quoteright" unicode="&#x2019;" horiz-adv-x="264" d="M136 474 L70 474 L117 590 L194 590 L136 474 Z " />
<glyph glyph-name="quotesinglbase" unicode="&#x201a;" horiz-adv-x="264" d="M136 -88 L70 -88 L117 28 L194 28 L136 -88 Z " />
<glyph glyph-name="quotedblleft" unicode="&#x201c;" horiz-adv-x="390" d="M128 590 L194 590 L147 474 L70 474 L128 590 Z M254 590 L320 590 L273 474 L196 474 L254 590 Z " />
<glyph glyph-name="quotedblright" unicode="&#x201d;" horiz-adv-x="390" d="M262 474 L196 474 L243 590 L320 590 L262 474 Z M136 474 L70 474 L117 590 L194 590 L136 474 Z " />
<glyph glyph-name="quotedblbase" unicode="&#x201e;" horiz-adv-x="390" d="M262 -88 L196 -88 L243 28 L320 28 L262 -88 Z M136 -88 L70 -88 L117 28 L194 28 L136 -88 Z " />
<glyph glyph-name="dagger" unicode="&#x2020;" horiz-adv-x="498" d="M70 405 L214 405 L214 590 L284 590 L284 405 L428 405 L428 342 L284 342 L284 -172 L214 -172 L214 342 L70 342 L70 405 Z " />
<glyph glyph-name="daggerdbl" unicode="&#x2021;" horiz-adv-x="498" d="M214 63 L214 342 L70 342 L70 405 L214 405 L214 590 L284 590 L284 405 L428 405 L428 342 L284 342 L284 63 L428 63 L428 0 L284 0 L284 -172 L214 -172 L214 0 L70 0 L70 63 L214 63 Z " />
<glyph glyph-name="bullet" unicode="&#x2022;" horiz-adv-x="225" d="M70 186 Q70 204 82.5 216.5 Q95 229 112 229 Q130 229 142.5 216.5 Q155 204 155 186 Q155 169 142.5 156.5 Q130 144 112 144 Q95 144 82.5 156.5 Q70 169 70 186 Z " />
<glyph glyph-name="ellipsis" unicode="&#x2026;" horiz-adv-x="703" d="M70 59 L138 59 L138 -6 L70 -6 L70 59 Z M317 59 L385 59 L385 -6 L317 -6 L317 59 Z M565 59 L633 59 L633 -6 L565 -6 L565 59 Z " />
<glyph glyph-name="perthousand" unicode="&#x2030;" horiz-adv-x="932" d="M417 590 L491 590 L270 0 L194 0 L417 590 Z M159 465 Q173 465 182.5 473.5 Q192 482 192 502 Q192 522 182.5 530 Q173 538 159 538 Q145 538 135.5 530 Q126 522 126 502 Q126 482 135.5 473.5 Q145 465 159 465 Z M159 407 Q70 407 70 502 Q70 547 93.5 571 Q117 595 159 595 Q201 595 224.5 571 Q248 547 248 502 Q248 407 159 407 Z M529 52 Q543 52 552.5 60.5 Q562 69 562 89 Q562 109 552.5 117 Q543 125 529 125 Q515 125 505.5 117 Q496 109 496 89 Q496 69 505.5 60.5 Q515 52 529 52 Z M529 -6 Q440 -6 440 89 Q440 134 463.5 158 Q487 182 529 182 Q571 182 594.5 158 Q618 134 618 89 Q618 -6 529 -6 Z M773 52 Q787 52 796.5 60.5 Q806 69 806 89 Q806 109 796.5 117 Q787 125 773 125 Q759 125 749.5 117 Q740 109 740 89 Q740 69 749.5 60.5 Q759 52 773 52 Z M773 -6 Q684 -6 684 89 Q684 134 707.5 158 Q731 182 773 182 Q815 182 838.5 158 Q862 134 862 89 Q862 -6 773 -6 Z " />
<glyph glyph-name="guilsinglleft" unicode="&#x2039;" horiz-adv-x="439" d="M125 191 L369 77 L369 0 L70 140 L70 244 L369 383 L369 305 L125 191 Z " />
<glyph glyph-name="guilsinglright" unicode="&#x203a;" horiz-adv-x="439" d="M70 305 L70 383 L369 244 L369 140 L70 0 L70 77 L314 191 L70 305 Z " />
<glyph glyph-name="fraction" unicode="&#x2044;" horiz-adv-x="564" d="M417 724 L494 724 L142 -204 L70 -204 L417 724 Z " />
<glyph glyph-name="Euro" unicode="&#x20ac;" horiz-adv-x="667" d="M426 59 Q461 59 495 67 Q529 75 562 93 Q571 81 579.5 68.5 Q588 56 596 45 Q558 18 513.5 6 Q469 -6 428 -6 Q394 -6 351.5 3 Q309 12 268.5 35.5 Q228 59 194.5 99 Q161 139 144 202 L70 202 L70 265 L134 265 Q133 275 132.5 285 Q132 295 132 306 Q132 317 132.5 327.5 Q133 338 134 348 L70 348 L70 411 L146 411 Q161 462 190 497.5 Q219 533 257 554.5 Q295 576 338.5 585.5 Q382 595 427 595 Q470 595 514.5 582.5 Q559 570 597 545 L562 497 Q529 514 493.5 522 Q458 530 426 530 Q396 530 365 525 Q334 520 306 506.5 Q278 493 255.5 470 Q233 447 219 411 L374 411 L374 348 L205 348 Q202 327 202 303 Q202 293 202.5 283.5 Q203 274 204 265 L374 265 L374 202 L215 202 Q229 156 253.5 127.5 Q278 99 307.5 84 Q337 69 368.5 64 Q400 59 426 59 Z " />
<glyph glyph-name="Numero" unicode="&#x2116;" horiz-adv-x="1131" d="M140 491 L140 0 L70 0 L70 590 L159 590 L494 92 L494 590 L564 590 L564 0 L473 0 L140 491 Z M860 217 Q880 217 902.5 222 Q925 227 945 242.5 Q965 258 978 286.5 Q991 315 991 363 Q991 404 978.5 431.5 Q966 459 946.5 475 Q927 491 904 497.5 Q881 504 860 504 Q839 504 816 497.5 Q793 491 773.5 475 Q754 459 741.5 431.5 Q729 404 729 363 Q729 315 742 286.5 Q755 258 775 242.5 Q795 227 818 222 Q841 217 860 217 Z M860 152 Q832 152 797 161.5 Q762 171 731.5 195 Q701 219 680 260 Q659 301 659 365 Q659 419 678 457.5 Q697 496 726.5 521 Q756 546 791.5 557.5 Q827 569 860 569 Q893 569 928.5 557.5 Q964 546 993.5 521 Q1023 496 1042 457.5 Q1061 419 1061 365 Q1061 301 1040 260 Q1019 219 988.5 195 Q958 171 923 161.5 Q888 152 860 152 Z M661 0 L661 63 L1061 63 L1061 0 L661 0 Z " />
<glyph glyph-name="trademark" unicode="&#x2122;" horiz-adv-x="733" d="M70 590 L309 590 L309 537 L218 537 L218 271 L160 271 L160 537 L70 537 L70 590 Z M485 349 L404 483 L404 271 L347 271 L347 590 L413 590 L505 434 L597 590 L663 590 L663 271 L606 271 L606 483 L525 349 L485 349 Z " />
<glyph glyph-name="Omega" unicode="&#x2126;" horiz-adv-x="760" d="M381 530 Q338 530 303.5 518.5 Q269 507 244.5 479.5 Q220 452 207 405 Q194 358 194 287 L194 212 Q194 125 235 78 L235 0 L70 0 L70 65 L165 65 Q151 86 143 108 Q135 130 130.5 150 Q126 170 125 186.5 Q124 203 124 212 L124 305 Q124 385 146 440 Q168 495 204 529.5 Q240 564 286 579.5 Q332 595 380 595 Q428 595 474 579.5 Q520 564 556 529.5 Q592 495 614 440 Q636 385 636 305 L636 212 Q636 203 635 186.5 Q634 170 629.5 150 Q625 130 617 108 Q609 86 595 65 L690 65 L690 0 L525 0 L525 78 Q566 125 566 212 L566 287 Q566 358 553 405 Q540 452 515.5 479.5 Q491 507 457 518.5 Q423 530 381 530 Z " />
<glyph glyph-name="partialdiff" unicode="&#x2202;" horiz-adv-x="533" d="M393 251 Q382 278 365 299 Q349 318 326 332 Q303 346 269 346 Q256 346 234 342.5 Q212 339 191 325 Q170 311 155 283.5 Q140 256 140 209 Q140 153 155 122.5 Q170 92 191 78 Q212 64 234 61.5 Q256 59 269 59 Q303 59 326.5 74 Q350 89 365 107 Q382 127 393 154 L393 251 Z M463 0 L400 0 L392 50 Q375 29 353.5 17.5 Q332 6 311.5 1 Q291 -4 273.5 -5 Q256 -6 245 -6 Q216 -6 185 4.5 Q154 15 128.5 39.5 Q103 64 86.5 105.5 Q70 147 70 209 Q70 262 86 300 Q102 338 128 363 Q154 388 187 399.5 Q220 411 254 411 Q260 411 275 410 Q290 409 309.5 403 Q329 397 351 384 Q373 371 393 347 L393 403 Q393 450 378 476 Q363 502 341 514 Q319 526 294 528 Q269 530 250 530 Q230 530 197.5 527 Q165 524 130 511 Q123 526 119.5 537.5 Q116 549 110 565 Q139 581 176 588 Q213 595 255 595 Q282 595 318 588.5 Q354 582 386 561.5 Q418 541 440.5 503.5 Q463 466 463 403 L463 0 Z " />
<glyph glyph-name="Delta" unicode="&#x2206;" horiz-adv-x="791" d="M607 61 L396 444 L185 61 L607 61 Z M70 0 Q155 149 233.5 294 Q312 439 396 587 Q480 439 558 294 Q636 149 721 0 L70 0 Z " />
<glyph glyph-name="product" unicode="&#x220f;" horiz-adv-x="773" d="M703 527 L592 527 L592 0 L522 0 L522 527 L251 527 L251 0 L181 0 L181 527 L70 527 L70 590 L703 590 L703 527 Z " />
<glyph glyph-name="summation" unicode="&#x2211;" horiz-adv-x="476" d="M186 292 Q180 307 172 326 Q164 345 151 374 Q138 403 118.5 446 Q99 489 70 552 L70 590 L406 590 L406 528 L157 528 L264 292 L160 64 L406 64 L406 0 L70 0 L70 35 L186 292 Z " />
<glyph glyph-name="minus" unicode="&#x2212;" horiz-adv-x="444" d="M70 179 L70 242 L374 242 L374 179 L70 179 Z " />
<glyph glyph-name="radical" unicode="&#x221a;" horiz-adv-x="782" d="M222 0 L70 405 L148 405 L269 59 L480 657 L712 657 L712 595 L535 595 L316 0 L222 0 Z " />
<glyph glyph-name="infinity" unicode="&#x221e;" horiz-adv-x="1028" d="M514 146 Q464 87 403.5 66 Q343 45 280 45 Q241 45 203 56 Q165 67 135.5 89 Q106 111 88 144.5 Q70 178 70 223 Q70 310 126 358.5 Q182 407 280 407 Q343 407 402.5 380 Q462 353 514 282 Q567 353 626 380 Q685 407 748 407 Q846 407 902 358.5 Q958 310 958 223 Q958 178 940 144.5 Q922 111 892.5 89 Q863 67 825 56 Q787 45 748 45 Q685 45 624.5 66 Q564 87 514 146 Z M280 344 Q259 344 234.5 339 Q210 334 189 320.5 Q168 307 154 283 Q140 259 140 222 Q140 195 151.5 173.5 Q163 152 182.5 137.5 Q202 123 227.5 115.5 Q253 108 280 108 Q309 108 333.5 110.5 Q358 113 382.5 123.5 Q407 134 433.5 154 Q460 174 493 209 Q441 281 389 312.5 Q337 344 280 344 Z M748 344 Q691 344 639 312.5 Q587 281 535 209 Q568 174 594.5 154 Q621 134 645.5 123.5 Q670 113 694.5 110.5 Q719 108 748 108 Q775 108 800.5 115.5 Q826 123 845.5 137.5 Q865 152 876.5 173.5 Q888 195 888 222 Q888 259 874 283 Q860 307 839 320.5 Q818 334 793.5 339 Q769 344 748 344 Z " />
<glyph glyph-name="integral" unicode="&#x222b;" horiz-adv-x="520" d="M295 -60 Q295 -79 290.5 -103 Q286 -127 271 -148 Q256 -169 228.5 -183.5 Q201 -198 156 -198 Q118 -198 99.5 -195.5 Q81 -193 70 -189 L70 -129 Q85 -130 98 -131 Q110 -132 121 -132.5 Q132 -133 139 -133 Q168 -133 185 -126.5 Q202 -120 211 -105.5 Q220 -91 222.5 -67.5 Q225 -44 225 -10 L225 457 Q225 476 229.5 500 Q234 524 249 545 Q264 566 291.5 580.5 Q319 595 364 595 Q402 595 420.5 592.5 Q439 590 450 586 L450 526 Q435 527 422 528 Q410 529 399 529.5 Q388 530 381 530 Q352 530 335 523.5 Q318 517 309 502.5 Q300 488 297.5 464.5 Q295 441 295 407 L295 -60 Z " />
<glyph glyph-name="approxequal" unicode="&#x2248;" horiz-adv-x="384" d="M314 76 Q299 68 281 63.5 Q263 59 248 59 Q231 59 216 65 Q201 71 186 77.5 Q171 84 156.5 90 Q142 96 125 96 Q115 96 106.5 95.5 Q98 95 90 92 L70 142 Q85 153 97 156 Q109 159 125 159 Q143 159 158.5 153 Q174 147 189 140.5 Q204 134 219.5 128 Q235 122 252 122 Q263 122 274 123.5 Q285 125 295 130 L314 76 Z M314 197 Q299 189 281 184.5 Q263 180 248 180 Q231 180 216 186 Q201 192 186 198.5 Q171 205 156.5 211 Q142 217 125 217 Q115 217 106.5 216.5 Q98 216 90 213 L70 263 Q85 274 97 277 Q109 280 125 280 Q143 280 158.5 274 Q174 268 189 261.5 Q204 255 219.5 249 Q235 243 252 243 Q263 243 274 244.5 Q285 246 295 251 L314 197 Z " />
<glyph glyph-name="notequal" unicode="&#x2260;" horiz-adv-x="409" d="M263 250 L226 153 L339 153 L339 90 L202 90 L168 0 L94 0 L128 90 L70 90 L70 153 L152 153 L189 250 L70 250 L70 313 L213 313 L241 387 L315 387 L287 313 L339 313 L339 250 L263 250 Z " />
<glyph glyph-name="lessequal" unicode="&#x2264;" horiz-adv-x="441" d="M70 311 L371 438 L371 362 L138 263 L371 165 L371 90 L70 216 L70 311 Z M70 0 L70 63 L371 63 L371 0 L70 0 Z " />
<glyph glyph-name="greaterequal" unicode="&#x2265;" horiz-adv-x="441" d="M371 216 L70 90 L70 165 L303 263 L70 362 L70 438 L371 311 L371 216 Z M70 0 L70 63 L371 63 L371 0 L70 0 Z " />
<glyph glyph-name="lozenge" unicode="&#x25ca;" horiz-adv-x="526" d="M262 128 L373 296 L264 461 L153 293 L262 128 Z M456 297 L456 293 L263 0 L70 290 L70 294 Q118 369 166 442 Q214 515 264 590 L456 297 Z " />
<glyph glyph-name="uni25CC" unicode="&#x25cc;" horiz-adv-x="512" d="" />
<glyph glyph-name="fi" unicode="&#xfb01;" horiz-adv-x="582" d="M337 526 Q326 528 308.5 529 Q291 530 275 530 Q231 530 209 509 Q187 488 187 423 L187 405 L336 405 L336 340 L187 340 L187 0 L117 0 L117 340 L30 340 L30 405 L117 405 L117 413 Q117 508 155.5 551.5 Q194 595 260 595 Q292 595 310 591.5 Q328 588 337 583 L337 526 Z M442 405 L512 405 L512 0 L442 0 L442 405 Z M442 554 L512 554 L512 475 L442 475 L442 554 Z " />
<glyph glyph-name="fl" unicode="&#xfb02;" horiz-adv-x="609" d="M337 526 Q326 528 308.5 529 Q291 530 275 530 Q231 530 209 509 Q187 488 187 423 L187 405 L336 405 L336 340 L187 340 L187 0 L117 0 L117 340 L30 340 L30 405 L117 405 L117 413 Q117 508 155.5 551.5 Q194 595 260 595 Q292 595 310 591.5 Q328 588 337 583 L337 526 Z M511 590 L441 590 L441 97 Q441 62 447.5 42 Q454 22 464.5 11.5 Q475 1 488 -2.5 Q501 -6 514 -6 L519 -6 Q524 -6 530.5 -5.5 Q537 -5 544 -5 Q551 -5 559 -4 L559 59 Q544 59 535 60 Q526 61 520.5 65 Q515 69 513 77.5 Q511 86 511 102 L511 590 Z " />
</font>
</svg>
